<svg height='100px' width='100px'  fill="#000000" xmlns="http://www.w3.org/2000/svg" data-name="Ğ¡Ğ»Ğ¾Ğ¹ 1" viewBox="0 0 100 100" x="0px" y="0px"><title>Map</title><g><path d="M64.48129,23.43938c1.04535-.98038,1.96791-1.93014,2.97817-2.77511,1.95218-1.63277,3.97491-3.18113,5.92747-4.81348,1.29723-1.08449,2.52342-2.254,3.88724-3.48063,0.10826-.017.39958-0.067,0.69223-0.10737a0.438,0.438,0,0,1,.57569.50282c-0.01576.63553-.04565,1.27118-0.04188,1.90662,0.00985,1.66365.04622,3.32721,0.04725,4.99082,0.00033,0.576-.10179,1.15171-0.10676,1.728Q78.402,25.8769,78.392,30.363c-0.00534,1.83058-.01015,3.66141.01433,5.49173,0.04174,3.12237.12812,6.24427,0.15279,9.36674,0.01205,1.52615-.11787,3.05353-0.10284,4.57954,0.02239,2.27349.1179,4.54622,0.17844,6.81938,0.01533,0.57476.024,1.14991,0.02246,1.72483-0.00776,2.92276-.05649,5.846-0.01491,8.76806,0.02073,1.456.25952,2.90824,0.29648,4.3648,0.03,1.18419-.13213,2.37208-0.13729,3.55864a18.95853,18.95853,0,0,0,.17684,2.83757,1.47191,1.47191,0,0,1-.546,1.51668c-1.49033,1.23563-2.998,2.45439-4.42809,3.7575-1.5795,1.43923-3.07747,2.96785-4.6168,4.45149q-1.86974,1.802-3.75593,3.587c-0.2175.20587-.47276,0.37186-0.71856,0.56249a1.80481,1.80481,0,0,1-1.16407-1.1145,2.13286,2.13286,0,0,0-.868-1.087c-2.62129-1.93673-5.24841-3.86586-7.85188-5.82636-1.35372-1.0194-2.6615-2.09967-3.99311-3.14854-0.47548-.37453-0.96-0.73758-1.475-1.13239-0.95907.69509-1.88974,1.31639-2.76113,2.01195-1.93748,1.54639-3.86534,3.10621-5.759,4.70571-1.58034,1.33487-3.10415,2.73649-4.65741,4.10352-0.70881.62383-.74689,0.60768-1.45475,0.06544-1.71822-1.31618-3.44968-2.615-5.16923-3.9294C28.009,85.06,26.27138,83.7054,24.51794,82.37157c-0.64864-.49344-1.323-0.95346-1.99232-1.41921a0.69649,0.69649,0,0,1-.273-1.02488,3.6965,3.6965,0,0,0,.204-1.3782c0.03491-.87808.03834-1.75812,0.02952-2.63709-0.01766-1.76206-.033-3.52453-0.08659-5.2857-0.03822-1.25491-.13872-2.50787-0.20927-3.76182-0.1813-3.22226-.40321-6.443-0.52877-9.66741-0.10047-2.57957-.0703-5.164-0.1223-7.74583-0.0445-2.20727-.13675-4.41355-0.18306-6.62082q-0.061-2.90491-.06357-5.811,0.00274-3.621.06331-7.24184c0.01862-1.21737.13389-2.43455,0.11926-3.65077-0.01836-1.52765-.13548-3.05386-0.19124-4.58139-0.09283-2.54443-.17047-5.08939-0.25539-7.63412a2.76672,2.76672,0,0,1-.0212-0.6055,1.05424,1.05424,0,0,1,.26867-0.66909,0.9986,0.9986,0,0,1,.83817.01163c0.98265,0.65612,1.92913,1.36736,2.87671,2.07481q3.0565,2.282,6.09878,4.58289c1.05171,0.80007,2.07432,1.63835,3.11048,2.45884,0.18625,0.14751.36668,0.30412,0.56329,0.43646a1.31221,1.31221,0,0,0,1.6849-.0177c1.03323-.773,2.1006-1.50064,3.15864-2.24014q4.33648-3.03086,8.67519-6.05856c0.52842-.37029,1.04024-0.76571,1.54386-1.16935a0.6987,0.6987,0,0,1,1.00254-.02931c1.20192,1.03872,2.35616,2.13889,3.61166,3.108,2.84829,2.19859,5.74774,4.33085,8.62191,6.49605C63.51833,22.63425,63.9512,23.00888,64.48129,23.43938ZM76.03651,60.088c-0.48094.3063-.97665,0.59208-1.43907,0.9242a1.75579,1.75579,0,0,0-.74775,1.66487c0.02645,0.33685.23947,0.23847,0.4279,0.2243A4.147,4.147,0,0,0,73.958,64.542a12.78444,12.78444,0,0,1,.01346,2.54344c0.02031,0.36581.04631,0.73129,0.07013,1.10311l0.45353,0.02551a6.15365,6.15365,0,0,0-.39423.81111,0.59306,0.59306,0,0,0,.34818.8755c-0.58343,1.26408-.56291,1.95051.09707,2.69918a3.76975,3.76975,0,0,0,1.78429-1.08916,2.39317,2.39317,0,0,1,.84049-0.52036,0.933,0.933,0,0,0,.76382-1.21849c-0.01325-.30527-0.0076-0.61129-0.01789-0.91672-0.04532-1.34277-.09332-2.68544-0.14955-4.2912-0.4135.49548-.65652,0.80506-0.91881,1.09739-0.67635.7538-1.36115,1.5-2.04262,2.24919a5.64223,5.64223,0,0,1,.51145-0.96193c0.61225-.76309,1.2773-1.48357,1.90113-2.23773a1.46012,1.46012,0,0,0,.52331-1.04381c-0.0562-1.247-.04007-2.49723-0.0612-3.746-0.00361-.21267-0.04865-0.42464-0.0815-0.69408l-1.11663.8491Zm-3.45005,5.119a4.60528,4.60528,0,0,1,.28895-0.62869,2.23164,2.23164,0,0,0,.102-2.04128l-0.38879.21832a7.17371,7.17371,0,0,1,2.05181-3.0883c0.066,0.28592.23607,0.2905,0.44415,0.15555,0.62343-.40429,1.24314-0.8143,1.866-1.21948a1.83727,1.83727,0,0,0,.648-2.50281c-0.40591.47161-.78185,0.89327-1.14086,1.32889-0.61645.74792-1.22225,1.50458-1.83248,2.25759a6.075,6.075,0,0,1,.40288-0.8147q1.21315-1.7588,2.46266-3.4924a0.91539,0.91539,0,0,0,.21131-1.057,23.33028,23.33028,0,0,0-2.407,1.55274,24.98894,24.98894,0,0,0-2.06159,2.14705l0.49761-1.23055a74.49582,74.49582,0,0,0-9.1596,6.10987c0.18941,1.36957-.337,2.85783.23317,4.3811,1.83142-1.26176,3.47357-2.70652,5.44371-3.91615,0.18718,0.58144.32428,1.0073,0.5008,1.55575,0.38227-.51276.6828-0.95592,1.02643-1.36272a8.89492,8.89492,0,0,1,.78909-0.74255,22.62013,22.62013,0,0,1-1.3011,2.02548,2.20687,2.20687,0,0,0-.31577,2.15744c0.53339-.58409,1.01947-1.1164,1.50554-1.64869-0.349.57175-.66733,1.16555-1.05682,1.7083a1.93994,1.93994,0,0,0-.43254,1.40652c0.08554,0.8374.088,1.683,0.14118,2.52412a7.176,7.176,0,0,0,.13239.76881c0.50017-.46811.93881-0.87869,1.37726-1.289-0.35678.57117-.698,1.15286-1.07534,1.71008a1.16824,1.16824,0,0,0-.18876,1.38225,8.22586,8.22586,0,0,0,1.93487-2.58928,1.90176,1.90176,0,0,0-.11393-0.62969l-0.57544.14456a4.98834,4.98834,0,0,0,.7199-2.59188,0.473,0.473,0,0,0-.65185-0.53386,2.8203,2.8203,0,0,0,.46087-2.3937ZM75.05055,44.767v0.53114a9.14385,9.14385,0,0,0,2.39239-1.494,0.76423,0.76423,0,0,0,.26072-0.5133c0.03674-.45144.01212-0.9079,0.01212-1.36235l-0.21312-.095c-0.26592.27694-.55171,0.53766-0.79381,0.83407-0.5695.6972-1.11811,1.41142-1.67514,2.11878l1.078-2.12741a1.93861,1.93861,0,0,1-.8774-2.00984,2.02535,2.02535,0,0,0-.0789-1.5678,0.47746,0.47746,0,0,1-.019-0.37986c0.53058-1.20731.22313-2.4666,0.242-3.70461a0.43013,0.43013,0,0,0-.12076-0.16167l-0.53848.429-0.18076-.09679a3.22858,3.22858,0,0,0,.78182-3.06785l-0.897.84757A12.22807,12.22807,0,0,1,77.137,28.7335a2.46073,2.46073,0,0,0,.43965-2.17451c-1.21831,1.29883-1.91872,2.73124-2.91317,3.96213a1.48757,1.48757,0,0,1,.19964-0.72037c0.76644-1.19821,1.48962-2.43178,2.3529-3.55721a2.49319,2.49319,0,0,0,.37451-2.07268c-0.43984.55672-.7425,0.94781-1.05483,1.33107a1.30865,1.30865,0,0,1-.39395.40584c-0.51243-.23063-0.64677.24709-0.91046,0.45151a16.88581,16.88581,0,0,1-1.584,1.26133,4.31889,4.31889,0,0,1-1.43593.412,0.59158,0.59158,0,0,1-.48-0.26311,2.39618,2.39618,0,0,1-.37289-1.0307c-0.0098-.94181.05935-1.8858,0.1277-2.82672a16.77681,16.77681,0,0,0-.15136-3.55121l-0.77983.72975,0.00968,0.00856q0.34715-.87325.69422-1.74647l-0.18437-.08282c-0.27514.37821-.53672,0.76754-0.83271,1.12869a0.77944,0.77944,0,0,1-.4479.2727,0.69715,0.69715,0,0,0-.76733.841c0.04762,0.84218.08626,1.6849,0.14017,2.52665,0.026,0.406.07953,0.81029,0.11789,1.21561,0.11494,1.21425.20972,2.43075,0.34813,3.6423a2.52415,2.52415,0,0,1-1.18088,2.529c-0.86326.58535-1.76771,1.11038-2.65892,1.65394a1.19988,1.19988,0,0,0-.86788,1.0144c0.009,1.21183.00267,2.42376,0.00267,3.614a0.98448,0.98448,0,0,0,.33735.0412,24.564,24.564,0,0,0,4.92833-3.19766,7.99588,7.99588,0,0,1,3.23429-2.01427l-0.0178-.01541,0.35774,1.03288c0.25291-.23525.46361-0.43121,0.67439-0.62737-0.18137.43226-.38126,0.85784-0.54,1.29831a1.878,1.878,0,0,0,.1349,2.04876,10.236,10.236,0,0,0-.37643,1.52231c-0.146,1.64518-.26808,3.29382-0.33852,4.94373a10.41021,10.41021,0,0,0,.17054,2.01446,4.67681,4.67681,0,0,0,.43343.99836C74.38092,45.35436,74.71559,45.06084,75.05055,44.767ZM51.98993,23.55292c-0.19785-1.00814-.13883-2.08358-0.94075-3.02089l0.645,0.15021a2.04445,2.04445,0,0,0-.8052-2.24547,0.95927,0.95927,0,0,0-.105.28032c-0.003,1.147-.00748,2.29433.01613,3.441a0.83989,0.83989,0,0,0,.23188.51686c0.30349,0.309.64775,0.57792,0.97557,0.863a1.45443,1.45443,0,0,0,.11344.37866,14.26752,14.26752,0,0,0,4.31615,4.38989c2.33541,1.50686,4.73868,2.90867,7.11815,4.34677a3.63279,3.63279,0,0,0,.68527.21823c0-.97747-0.01069-1.8536.0023-2.72938,0.02453-1.65854.07194-3.31678,0.0891-4.97534a1.24559,1.24559,0,0,0-.60062-1.101c-1.72727-1.19617-3.44731-2.405-5.12951-3.66334-1.30075-.973-2.55263-2.01286-3.80492-3.04877-0.99262-.82112-1.94184-1.69467-2.93406-2.51631a1.97211,1.97211,0,0,0-1.22117-.55267c0.34837,0.7716.64275,1.44045,0.9537,2.10147a1.39637,1.39637,0,0,0,.33791.50106c0.78928,0.63122,1.59554,1.24129,2.398,1.85585,1.45332,1.113,2.89439,2.24267,4.36668,3.33,1.1972,0.88413,2.40348,1.76345,3.66685,2.5463a1.66609,1.66609,0,0,1,.86727.99011c-0.76949,1.63985-.3634,3.38271-0.43859,5.00711a0.98608,0.98608,0,0,1-1.19845-.26325q-2.20637-1.46252-4.40183-2.94147c-0.55611-.37275-1.12552-0.72836-1.65971-1.13052C54.34272,25.38483,53.17025,24.46392,51.98993,23.55292Zm-0.19764,5.10046a1.72492,1.72492,0,0,1,.36832.32553,10.15326,10.15326,0,0,0,2.87893,2.694c2.82709,2.0474,5.70185,4.029,8.56261,6.02972a3.417,3.417,0,0,0,.6142.2516c-0.0915-1.47825.27659-2.85682-.05867-4.13891A65.03341,65.03341,0,0,1,51.15411,24.8996c0.25711,0.86054,1.06967,1.379,1.24649,2.27935-0.4997-.57147-0.99942-1.14292-1.59835-1.82788-0.21145.95541-.34431,1.66893,0.40858,2.28563a3.42807,3.42807,0,0,1,.59666,1.03562L50.791,28.04106l-0.13124.18932a1.45017,1.45017,0,0,0,.9744.64908A0.66222,0.66222,0,0,0,51.79229,28.65338Zm-17.72,2.26483-0.01951-.01158,1.195,0.738c0.07011-2.82421.13476-5.42875,0.19544-7.87346-2.32237-1.6848-4.51037-3.2714-6.69757-4.859-2.16781-1.57357-4.33486-3.14819-6.60722-4.79859-0.02847.31922-.051,0.44961-0.05,0.57982,0.01763,2.26516.083,4.53119,0.03775,6.795a2.29555,2.29555,0,0,0,1.22253,2.15486,6.75972,6.75972,0,0,1,1.04331.80984,38.59486,38.59486,0,0,0,7.42881,5.30659C32.55,30.1826,33.32066,30.534,34.07231,30.91821ZM32.05583,43.28175c0.42148,0.52723.84884,1.0499,1.26281,1.583a2.80987,2.80987,0,0,0,1.79386,1.03609c0.04249-.49841.10519-0.89172,0.10472-1.28495-0.00265-2.17041-.08692-4.3434-0.00291-6.51A1.9426,1.9426,0,0,0,34.16549,36.145c-1.94817-1.2211-3.85266-2.51209-5.77039-3.78151-1.72023-1.13865-3.43254-2.28931-5.15448-3.42536a9.67727,9.67727,0,0,0-.89831-0.456c-0.05008.6205-.12821,1.11872-0.12385,1.61622,0.01878,2.13362.06354,4.267,0.09489,6.40048a1.44021,1.44021,0,0,0,.68365,1.27362c1.63563,1.093,3.26716,2.19327,4.87355,3.32855,1.02071,0.72137,1.99178,1.51272,2.98987,2.26647,0.41941,0.31673.851,0.61736,1.277,0.92532l0.13623-.124-0.32234-.79723ZM48.4443,25.053l-3.2238,1.83079a0.666,0.666,0,0,0-.30583-0.17612A1.48363,1.48363,0,0,1,43.641,25.45576a13.67221,13.67221,0,0,1-.16231-4.74149,9.64334,9.64334,0,0,0,.1696-2.19245c-0.65265.4068-1.21941,0.76006-1.67756,1.04559,0.05522,1.5768.10777,3.02731,0.156,4.47794,0.02586,0.77671.06978,1.55394,0.06139,2.33044-0.02467,2.28054-.04931,2.82078-2.01087,3.89474a31.64251,31.64251,0,0,0-3.58851,2.48409,1.36277,1.36277,0,0,0-.40281.85911,16.25239,16.25239,0,0,0-.07667,1.82692,7.54524,7.54524,0,0,0,.07682.77282c0.47911-.328.83936-0.56967,1.19418-0.819,0.27732-.1949.5322-0.42687,0.82457-0.59426a0.94789,0.94789,0,0,1,1.59774.66763,4.175,4.175,0,0,1,.11065,1.19645c-0.01674.71068-.12676,1.42064-0.11956,2.1301,0.014,1.38366.01545,2.77316,0.14767,4.14817a2.44047,2.44047,0,0,1-1.418,2.46972c-0.66465.40818-1.32,0.83608-2.00993,1.1968a0.84825,0.84825,0,0,0-.55633.86926c0.06741,0.93156.14845,1.86216,0.23825,2.9694a7.14766,7.14766,0,0,0,1.26865-.81435c1.54456-1.58119,3.52877-2.63423,5.05021-4.23933a0.65091,0.65091,0,0,1,.29-0.07794,6.64134,6.64134,0,0,0,3.06539-1.84833,1.66235,1.66235,0,0,1,1.25988-.90056l-0.8437,1.07054c1.11915-.48258,2.04107-0.88012,3.0037-1.29519-0.04814-1.08458.21117-2.13629,0.10261-3.31136a9.62518,9.62518,0,0,0-3.58254,2.33642q-0.81029.9017-1.62564,1.79878c0.17673-.40666.3535-0.81331,0.59933-1.379l-2.27531,1.05077a2.88179,2.88179,0,0,1-.23026-2.25463,2.57032,2.57032,0,0,0,.01212-1.30635,1.14962,1.14962,0,0,0-.42769-0.42893,5.88675,5.88675,0,0,0,.50474-1.595c0.02884-1.07012.10054-2.132,0.2149-3.19405A0.38242,0.38242,0,0,0,42.44,33.95282l-0.434.26618a20.53964,20.53964,0,0,1,1.77644-2.73321,0.40088,0.40088,0,0,1,.23106-0.17893c1.36507-.04441,2.12262-0.97975,2.872-1.93368,0.37657-.47928.75472-0.95782,1.15026-1.42125a1.10759,1.10759,0,0,1,.37078-0.18552l0.09707,0.12268-1.15751,1.6104,0.16854,0.139a23.32412,23.32412,0,0,1,1.99982-1.35991,0.90707,0.90707,0,0,0,.53318-0.88c0.016-.84823.03278-1.69664,0.02908-2.5449a5.43994,5.43994,0,0,0-.15-0.816c-0.47569.36787-.83906,0.64892-1.20241,0.93Zm3.68732,8.54453c-0.56364-.48117-0.85953-1.26881-1.73911-1.56255-0.0849,2.12476-.16594,4.15251-0.24147,6.0422a36.10613,36.10613,0,0,1,3.895,2.95209l-0.13051-.58995a12.07146,12.07146,0,0,0,1.51752,1.53877,44.04036,44.04036,0,0,0,4.59211,2.99427,3.53319,3.53319,0,0,1,2.00942,3.84074c-0.0129.13527-.02138,0.271-0.02936,0.40668-0.12169,2.06485-.30811,4.12864-0.343,6.195a17.986,17.986,0,0,0,.287,4.66182,2.37127,2.37127,0,0,0,1.63737,1.7102c0.1703-7.68224.33849-15.26885,0.50631-22.83894-1.50189-1.09685-3.02675-2.22326-4.56542-3.33047-1.40326-1.00978-2.77344-2.07831-4.24921-2.97036a23.91836,23.91836,0,0,1-2.90076-2.281,3.39528,3.39528,0,0,0-1.49326-.93609c1.02305,1.17172,1.27622,1.58566,1.35967,2.24094-0.51616-.58554-0.99909-1.13335-1.51513-1.71878a1.4331,1.4331,0,0,0,.30257,1.9159,9.9491,9.9491,0,0,1,1.22515,1.614ZM34.84149,84.36666a3.78447,3.78447,0,0,0-.18381-2.67151c-0.41224-.7006-0.90809-1.35158-1.33733-2.04288a4.70867,4.70867,0,0,1-.32163-0.81852c0.31329,0.38727.63513,0.768,0.93745,1.16365a6.90253,6.90253,0,0,0,1.022,1.35977,6.21861,6.21861,0,0,0-.00478-0.78815,7.66853,7.66853,0,0,1,.03557-1.87726,2.89209,2.89209,0,0,0-.41048-2.23158l0.12451-.11222a1.19685,1.19685,0,0,0,.24069-0.39289,4.06184,4.06184,0,0,0-.24163-2.41012c0.52286-.01618.326-0.44633,0.33655-0.679C35.104,71.41722,35.182,69.96533,35.148,68.517c-0.0343-1.45778.37535-2.95537-.31244-4.36771a0.83841,0.83841,0,0,0,.321-0.98676c-0.034-2.34132-.0971-4.68224-0.1261-7.02359-0.021-1.69685-.0041-3.39418-0.0041-5.10792l-1.266-.68773,0.4566,1.27543-0.23448.11424a6.41437,6.41437,0,0,1-.57572-0.89585,2.67635,2.67635,0,0,0-1.54526-1.51141,10.36176,10.36176,0,0,1-1.85173-1.01307c-1.97907-1.30769-3.93805-2.64584-5.905-3.97186a6.11681,6.11681,0,0,0-1.61624-.9371c0.05152,0.93086.1299,1.73765,0.13424,2.54487q0.01664,3.10487-.024,6.20992c-0.019,1.4583-.14688,2.91769-0.10941,4.3736,0.05667,2.2042.21816,4.40563,0.32919,6.60853,0.14186,2.81347.25047,5.62893,0.42457,8.44038,0.15091,2.43741-.288,4.88722.176,7.31629a0.64205,0.64205,0,0,1-.05311.39782,0.80635,0.80635,0,0,0,.3867,1.11563c1.74661,1.39911,3.586,2.69775,5.22082,4.21678C30.62,86.15733,32.57368,87.24435,34.28179,88.67a4.73142,4.73142,0,0,0,.7388.40422C34.95747,87.414,34.89953,85.89037,34.84149,84.36666ZM50.49937,48.49312l-0.4933-.29854a3.97743,3.97743,0,0,0,.62969,2.03061,9.14441,9.14441,0,0,1,.93907,1.88643l0.01461-.01383-1.21451-1.08388a3.30128,3.30128,0,0,0,.52476,2.40969c0.20137,0.34715.36443,0.71652,0.545,1.07579l-0.14238.1277-0.87662-1.16893c0,1.29435.03928,2.37173-.01308,3.44464a2.91716,2.91716,0,0,0,.61255,2.08013q0.57253,0.71212,1.121,1.44343c0.14737,0.197.26048,0.41958,0.38921,0.63051l-0.15408.10591q-0.89685-1.04548-1.79369-2.09094a5.42977,5.42977,0,0,0-.23748,1.84146,1.24685,1.24685,0,0,0,.19959.53574c0.43592,0.78541.88373,1.56426,1.32729,2.34542-0.508-.5348-1.01593-1.06958-1.63486-1.72124,0,0.50251-.00687.86931,0.00113,1.23575,0.05928,2.71412.11391,5.42838,0.18714,8.14214a3.2171,3.2171,0,0,0,.8822,2.41361,3.25247,3.25247,0,0,1,.4159.631l-0.12008.10174-0.93074-.868a1.40076,1.40076,0,0,0,.30668,1.61664c0.45383,0.58151.853,1.20564,1.27585,1.81135-0.56076-.55274-1.12147-1.10552-1.825-1.799v3.41066c0.51037,0.34691,1.00985.64259,1.46,1.00029,1.646,1.30795,3.26491,2.65011,4.9141,3.954,2.12975,1.68379,4.27816,3.344,6.42111,5.011a4.83832,4.83832,0,0,0,.49283.28091c-0.69762-7.03329-.0748-13.9244-0.11316-20.74281-1.00289-.8452-1.953-1.61-2.86111-2.42184-0.83327-.745-1.62269-1.53905-2.42848-2.31452a2.18372,2.18372,0,0,1-.72536-1.62874c0.00657-.9517.023-1.90371,0.058-2.85476,0.1111-3.01753.26466-6.034,0.32433-9.05249a2.13254,2.13254,0,0,0-.52892-1.89536,23.50566,23.50566,0,0,0-1.90132-1.521c-0.32759-.21539-0.77312-0.60847-1.24888-0.081A4.89721,4.89721,0,0,0,51.32912,44.588q0.50479,0.82372,1.00953,1.64743l-0.155.09672q-0.92192-1.1772-1.8438-2.35438a16.882,16.882,0,0,0-.1681,2.88489,1.29573,1.29573,0,0,0,.01348.40574c0.13025,0.3765.28855,0.74332,0.43585,1.114Q50.56036,48.43789,50.49937,48.49312Zm-6.47852-2.1015,0.01707,0.01557,0.33249-1.163a39.08305,39.08305,0,0,0-5.26928,3.76738,20.43231,20.43231,0,0,1-2.21259,1.78359,1.6985,1.6985,0,0,0-.94739,1.5296c-0.07447,1.66173-.22081,3.32182-0.24433,4.9839-0.02976,2.10274.01967,4.20707,0.06038,6.31021,0.04525,2.33818.11975,4.67575,0.17893,7.01367,0.00342,0.13527-.02092.271-0.02507,0.4067-0.07576,2.47657-.18282,4.95271-0.215,7.42984a48.3374,48.3374,0,0,1,.04141,5.99263,8.60847,8.60847,0,0,0-.10624,1.62574,8.556,8.556,0,0,0,.34724,3.1265c0.18965-.14383.29737-0.21851,0.39737-0.30241,1.87185-1.57,3.73743-3.14762,5.61713-4.70818,0.57372-.47634,1.20738-0.881,1.7763-1.36256,1.73721-1.47037,3.4323-2.99158,5.1961-4.42875a1.75814,1.75814,0,0,0,.73652-1.6411c-0.09475-1.45532-.159-2.91406-0.18186-4.37221-0.02807-1.79576-.00117-3.59236.00249-5.38861,0.00021-.102.005-0.20393,0.00788-0.30588,0.06071-2.1717.1809-4.34372,0.1689-6.515-0.021-3.80112-.125-7.60174-0.19035-11.40265-0.024-1.393-.02647-2.78641-0.061-4.1791-0.01149-.46368-0.0925-0.92565-0.14226-1.39342a1.6021,1.6021,0,0,0-1.61767.79922c-0.33695.54819-.771,1.0367-1.16227,1.55148l-0.18456-.12294,0.73547-1.48224a3.483,3.483,0,0,0-2.074,1.29772C44.70394,45.65677,44.35,46.01493,44.02085,46.39162Zm33.6617-1.64536c-0.2531.13529-.51538,0.26653-0.769,0.41285-0.58481.33744-1.14273,0.7319-1.754,1.01018a3.865,3.865,0,0,0-1.78825,1.04437,1.07218,1.07218,0,0,0-.152-1.25559,2.48107,2.48107,0,0,1-.48195-1.62464c0.00284-.50905-0.05234-1.02008-0.02453-1.52709,0.10756-1.95952.25138-3.91709,0.354-5.87684,0.0469-.89463.0392-1.79271,0.033-2.68908a2.27381,2.27381,0,0,0-.1741-0.58238,6.62753,6.62753,0,0,0-1.5138.77521,37.33294,37.33294,0,0,1-5.47157,3.70782,1.96612,1.96612,0,0,0-1.00587,1.733c-0.13522,3.22256-.28712,6.44442-0.4139,9.66729-0.04406,1.12-.02678,2.24223-0.04884,3.3632-0.04612,2.34212-.11679,4.68393-0.13891,7.02624a17.58348,17.58348,0,0,0,.20873,1.98449A7.9522,7.9522,0,0,0,65.2712,61.534q2.81537-1.92161,5.62173-3.85643c0.33559-.23108.65349-0.488,0.9907-0.7165a6.53591,6.53591,0,0,1,.76754-0.45517,7.66923,7.66923,0,0,0,3.603-2.8719,5.32717,5.32717,0,0,1,.89388-1.10911,2.29853,2.29853,0,0,0,.676-1.94214c-0.07335-.98031-0.11323-1.964-0.13665-2.947C77.66508,46.6998,77.68255,45.76285,77.68255,44.74626Zm-7.36,30.97572a13.71923,13.71923,0,0,0,.22517-1.56881c0.01473-.52671-0.08528-1.0556-0.11239-1.5847-0.12252-2.393-.23331-4.78673-0.35925-7.17958a8.5172,8.5172,0,0,0-.17356-0.96226c-1.32647,1.00036-2.51125,1.8998-3.70343,2.78925a6.18477,6.18477,0,0,1-1.09478.73085,1.08835,1.08835,0,0,0-.68449,1.1141c-0.0887,3.62652-.2183,7.25216-0.28989,10.87894-0.024,1.21821.08022,2.43907,0.12981,3.65858,0.07161,1.76127.13328,3.52314,0.229,5.28312a1.70007,1.70007,0,0,0,.55527,1.41546c1.39686-1.33613,2.73754-2.62926,4.092-3.90785a2.45113,2.45113,0,0,0,.83022-1.4764c0.15042-1.14177.32515-2.2824,0.41679-3.42933,0.13244-1.65744.20285-3.31992,0.29261-4.98062C70.69362,76.16843,70.75557,75.79342,70.32251,75.722ZM50.543,40.92944c0.27188,0.32393.405,0.46026,0.51252,0.61436,0.562,0.80515,1.1097,1.62037,1.67793,2.421a3.83144,3.83144,0,0,0,1.47987,1.20428c1.02854,0.5129,2.02979,1.08934,3.00281,1.70211a2.62534,2.62534,0,0,1,1.34528,2.3646c-0.02244,1.52758-.00968,3.05564-0.0159,4.58348-0.00413,1.01855.00178,2.03753-.027,3.05547-0.0479,1.695-.14861,3.38925-0.15879,5.08423a1.68147,1.68147,0,0,0,.46211,1.0617c0.89238,0.9181,1.82941,1.7955,2.7857,2.64774a5.41338,5.41338,0,0,0,2.1074,1.44,12.78757,12.78757,0,0,0,.10153-3.38937,1.56548,1.56548,0,0,0-.90218-1.44165,2.72794,2.72794,0,0,1-1.59533-1.75381,8.32689,8.32689,0,0,1-.29959-1.70316,52.788,52.788,0,0,1,.23535-8.64248c0.08549-.74039.07255-1.49239,0.09965-2.23923a1.9169,1.9169,0,0,0-.97414-1.774q-3.063-2.00743-6.09662-4.05977c-0.45862-.30862-0.883-0.66819-1.40784-1.06906l0.27085,0.75415c-1.13584-.72271-1.41067-2.25738-2.91167-2.4617,0,0.99647-.01449,1.93652.00467,2.87586a1.31912,1.31912,0,0,0,1.47623,1.2123C51.4583,42.60709,50.54892,42.11109,50.543,40.92944Zm-6.52637.48966c1.74427-1.08639,3.40128-2.13632,5.08006-3.15027a0.87812,0.87812,0,0,0,.377-0.87q0.19837-3.81168.3872-7.62383a7.59,7.59,0,0,0-.07759-0.86455c-1.492.96779-2.86156,1.81984-4.18332,2.74054a2.77819,2.77819,0,0,1-.95334.50214,1.66725,1.66725,0,0,0-1.26834,1.20525,2.39145,2.39145,0,0,0,.19921.912c-0.68693,1.06948-.71127,1.8963-0.11471,2.28873a12.95282,12.95282,0,0,0-.40666,1.8948c-0.06357.9744-.0106,1.95656,0.001,2.93535a0.52932,0.52932,0,0,0,.1461.1787l0.53091-.5934Zm-8.86943,5.36136a4.70474,4.70474,0,0,1-1.13221-.327,20.25926,20.25926,0,0,1-2.43924-1.64222,56.08012,56.08012,0,0,0-5.99307-4.3841c-1.0212-.6383-2.01155-1.326-3.16284-2.08879,0,1.25564.00786,2.30338-.00406,3.35094a0.94227,0.94227,0,0,0,.49785.82569,23.21147,23.21147,0,0,1,1.90716,1.35487,35.02918,35.02918,0,0,0,4.71568,3.33516c0.68716,0.41205,1.37264.82687,2.0501,1.23514,0.154-.21727.22646-0.32276,0.30508-0.42342a0.538,0.538,0,0,1,.12256.04821,6.33989,6.33989,0,0,0,3.133,2.04281V46.78046ZM46.93133,24.66691c0.69354,0.25108.89965,0.14854,3.134-1.54055,0-1.2683.03733-2.52365-.01623-3.77509-0.02565-.59916-0.29711-1.18747-0.32539-1.78692-0.0381-.80888.05013-1.62379,0.08573-2.436a1.00718,1.00718,0,0,0-.23033-0.96122c-1.49837,1.091-2.97917,2.15608-4.43974,3.24819a1.16957,1.16957,0,0,0-.42333.655c-0.22008,1.187-.443,2.37773-0.56563,3.57731a8.52329,8.52329,0,0,0,.25978,3.462l0.48877-.12223-0.24334.90425C45.82573,26.05439,46.34982,25.29693,46.93133,24.66691Zm27.63849-8.26623-0.16962-.124a7.07479,7.07479,0,0,0-2.22783,2.70183,3.53335,3.53335,0,0,0,.09414,1.64707,0.95156,0.95156,0,0,1-.01346.10038q-0.08737,2.73549-.17187,5.4711a1.05865,1.05865,0,0,0,.42708,1.0696,3.486,3.486,0,0,0,2.21829-1.938,32.33428,32.33428,0,0,1,1.90657-3.00637,2.4932,2.4932,0,0,1,.46012-0.419c-0.43752,1.24079-1.40015,2.149-1.80659,3.37265,0.54688-.42525,1.02275-0.90908,1.54456-1.33693a2.11455,2.11455,0,0,0,.84276-1.85056c-0.09518-2.644-.136-5.29-0.20282-7.9351a0.69452,0.69452,0,0,0-.14674-0.21279c-1.61368,1.00526-2.33466,2.79588-3.68177,4.05935Q74.10624,17.20028,74.56982,16.40067Zm-33.425,3.8006a1.2173,1.2173,0,0,0-.31338.108c-1.44181,1.069-2.87342,2.152-4.3225,3.211a1.0394,1.0394,0,0,0-.37184.97719c-0.01559,1.14749-.09583,2.29419-0.108,3.44164-0.0139,1.31.0182,2.6204,0.03119,4.02382a2.60025,2.60025,0,0,0,.60932-0.16929c1.275-.83423,2.529-1.70117,3.81521-2.51741a2.09919,2.09919,0,0,0,1.07715-2.0289A43.89393,43.89393,0,0,0,41.14483,20.20128Zm-6.004,15.52425c0.02891-.93993.0683-1.77862,0.0698-2.6174a0.72435,0.72435,0,0,0-.21694-0.53543,4.27518,4.27518,0,0,0-1.63671-.98718c0.10324,0.73908.78457,1.19408,0.64965,1.94571-0.4698-.61673-0.8336-1.28839-1.23828-1.93441a2.744,2.744,0,0,0-.70592-0.83c-0.70018-.476-1.46735-0.85289-2.17306-1.32159-1.38209-.91792-2.76812-1.83421-4.10034-2.82153-1.06088-.78621-2.04086-1.68117-3.06692-2.51533a1.815,1.815,0,0,0-.52847-0.16667c0.06157,0.976.137,1.85339,0.1651,2.73227a1.40729,1.40729,0,0,0,.7199,1.23976c1.58093,1.03855,3.12819,2.12834,4.68834,3.19848,0.028,0.01923.0551,0.03981,0.08366,0.05815q2.39081,1.53515,4.784,3.06654a0.7014,0.7014,0,0,0,.24179.05149l0.07351-.54537A3.82777,3.82777,0,0,0,35.14083,35.72552Zm29.94691-3.192a1.97039,1.97039,0,0,0,.52659-0.13515c0.88746-.55773,1.79447-1.09178,2.6343-1.7154a1.83945,1.83945,0,0,0,.847-1.92571,18.81074,18.81074,0,0,1-.18407-1.91614c-0.0937-1.04036-.17919-2.08159-0.28524-3.12068-0.06868-.67265-0.16791-1.34218-0.27626-2.192-1.01536.95855-1.86537,1.77571-2.7326,2.57416a1.43635,1.43635,0,0,0-.53865,1.69613,2.46325,2.46325,0,0,1,.00917.80773C65.08753,28.56153,65.08774,30.51667,65.08774,32.53351ZM74.787,73.93919a2.22718,2.22718,0,0,0-.15377-0.41107,1.047,1.047,0,0,1-1.13769-.80626c-0.10465-.20057-0.2149-0.39824-0.4053-0.74993-0.56985.82872-1.08025,1.53905-1.54932,2.27567a1.42467,1.42467,0,0,0-.13954.68079c-0.08737,2.16633-.16085,4.33322-0.244,6.49974-0.03806.99222-.08887,1.984-0.14209,3.157,0.64-.53888,1.10892-0.9702,1.6153-1.35182a2.29906,2.29906,0,0,0,.84427-2.53716l-0.86387.58568a2.4,2.4,0,0,1,.19413-0.54249,3.30611,3.30611,0,0,0,.6402-2.36282,2.8735,2.8735,0,0,1,.96277-2.37839,9.56889,9.56889,0,0,0,1.925-2.34038,9.21321,9.21321,0,0,1,.79939-0.92441l0.21917,0.16507c-0.33458.536-.66918,1.072-1.13943,1.82544,0.62944-.256,1.044-0.38984,1.42115-0.59307a0.79288,0.79288,0,0,0,.41836-0.49728c0.01339-.68456-0.05475-1.37074-0.09271-2.05631l-0.2353-.08969C76.75164,72.299,75.77961,73.11049,74.787,73.93919ZM39.02645,35.55569a0.77636,0.77636,0,0,0-1.0484.16207,5.23817,5.23817,0,0,1-1.02507.8294,1.87552,1.87552,0,0,0-1.08069,2.06323c0.0589,2.20645.04905,4.41468,0.07637,6.62209a5.39474,5.39474,0,0,0,.11822.73837c0.886-.521,1.70795-0.97933,2.50222-1.48139a1.32928,1.32928,0,0,0,.54631-1.24356c-0.01252-2.37776-.00368-4.75561-0.00968-7.13342A3.72294,3.72294,0,0,0,39.02645,35.55569Zm37.62674,40.431a3.727,3.727,0,0,1-.29692.67281A12.75933,12.75933,0,0,1,75.16689,78.053c-1.0708.99773-1.01335,2.19156-.73451,3.54394a2.3332,2.3332,0,0,0,.47161-0.26306c0.92568-.89669,1.84734-1.79775,2.75464-2.713a1.0516,1.0516,0,0,0,.34541-0.5903c0.03477-1.03649.01611-2.07476,0.01611-3.30714-0.863.46251-1.58632,0.882-2.337,1.24466A2.40326,2.40326,0,0,0,74.3295,78.482C75.09306,77.6648,75.50042,76.6394,76.65319,75.98673ZM76.10657,36.75709l0.59787,0.095a1.97045,1.97045,0,0,0-.43981,1.98332c1.742-1.95122,1.71435-2.43713,1.03792-3.11742a6.456,6.456,0,0,0,.06645-4.11741,3.649,3.649,0,0,0-1.27353,2.76957C76.1541,35.14324,76.10657,35.92436,76.10657,36.75709ZM58.167,27.04131c-0.215-1.18567-.41512-2.335-0.63483-3.48051a13.30175,13.30175,0,0,0-.37207-1.573,1.05317,1.05317,0,0,0-1.11434-.83986c0.40762,1.7004.80511,3.36569,1.20689,5.03A0.95976,0.95976,0,0,0,58.167,27.04131Zm0.9472-3.58237a29.73165,29.73165,0,0,0,1.14869,5.04287,3.10706,3.10706,0,0,0,.63363.71467,1.03948,1.03948,0,0,0,.1522-0.31359c-0.29884-1.51445-.59192-3.03027-0.91773-4.539A1.15681,1.15681,0,0,0,59.11425,23.45894Zm-5.5493-4.64435-0.17954.11131C53.61907,20.311,53.828,21.701,54.099,23.07883a7.51545,7.51545,0,0,0,.541,1.51957,2.11089,2.11089,0,0,0,.52659.4834,3.58666,3.58666,0,0,0-.00347-0.558c-0.34354-1.64886-.67645-3.30039-1.05973-4.9401A2.60878,2.60878,0,0,0,53.56495,18.81459Zm1.455,1.20712a0.87486,0.87486,0,0,0-.13593.27685c0.315,1.69.62561,3.381,0.972,5.06463a2.11557,2.11557,0,0,0,.49956.62271,1.54653,1.54653,0,0,0,.0892-0.37c-0.30525-1.65917-.60294-3.32-0.94047-4.97264A2.0054,2.0054,0,0,0,55.02,20.02171ZM77.73451,37.90789c-1.35932,1.29177-2.03441,2.12884-1.45281,3.6858a11.87266,11.87266,0,0,0,1.11117-.69987,0.88681,0.88681,0,0,0,.32644-0.57293C77.756,39.518,77.73451,38.71246,77.73451,37.90789ZM58.02446,22.45645c0.17293,1.91293.23333,3.86018,1.37473,5.53148C59.04226,26.12053,59.0791,24.16038,58.02446,22.45645Zm2.98182,2.19815-0.20409.1008q0.52431,2.401,1.04859,4.802a37.85868,37.85868,0,0,0-.34829-4.038A2.76168,2.76168,0,0,0,61.00628,24.6546Zm-9.50262-6.30812c0.31244-1.20049-.32989-1.99284-0.79533-2.83877C50.70946,16.47606,50.43751,17.51358,51.50367,18.34648Zm2.19543,5.4941a3.76248,3.76248,0,0,0-.7723-2.76481A4.58432,4.58432,0,0,0,53.69909,23.84058Zm23.88744,6.61984a1.54913,1.54913,0,0,0-1.31812,1.75222C76.77652,31.5498,77.48439,31.25954,77.58653,30.46041ZM77.58536,52.49835l-1.24769,1.6048C77.65167,53.56694,77.73074,53.47353,77.58536,52.49835ZM52.52182,18.33517l-0.23821.08139c0.14742,0.70691-.04242,1.53387.95079,2.1478ZM77.59682,28.841a1.42533,1.42533,0,0,0-.7278,1.00854C77.27594,29.53314,77.76586,29.46911,77.59682,28.841ZM50.95745,23.2121l-0.195.21647,0.73017,0.61537,0.123-.1374Z"></path><path d="M74.83368,62.20672c0.21532-.40148.42422-0.80656,0.648-1.20321,0.17532-.31064.36916-0.61077,0.5548-0.91555l0.44591-.01193Q75.65806,61.14139,74.83368,62.20672Z"></path><path d="M47.64543,26.35063q0.39892-.64864.79835-1.29747l0.28058-.08547,0.42656,0.19321L47.7652,26.45851Z"></path><path d="M38.20287,54.08978a6.5292,6.5292,0,0,1,.55724-0.41409,13.045,13.045,0,0,0,3.14751-2.54222,0.65971,0.65971,0,0,1,.29737-0.26733c1.28677-.08772,1.99052-1.16285,2.98933-1.73264a11.74727,11.74727,0,0,0,2.92116-2.61808,0.81639,0.81639,0,0,1,.588-0.247,2.16144,2.16144,0,0,1-.24212.44127,9.31157,9.31157,0,0,1-.79174.79252,2.49247,2.49247,0,0,0-1.00092,2.47441,9.02576,9.02576,0,0,1-.08533,1.61664,1.38247,1.38247,0,0,0,.36028.48289,3.42258,3.42258,0,0,0-.40391,2.583c1.08088-.55724,1.36443-1.88742,2.68035-2.42941a5.683,5.683,0,0,1-.40492.63835c-0.43372.47864-.86312,0.96357-1.32774,1.41126-0.6549.631-1.26752,1.26358-.97972,2.15589A26.19359,26.19359,0,0,0,44.26223,57.971a2.65729,2.65729,0,0,0-.85592,3.24416,0.49848,0.49848,0,0,1,.06624.27525c-0.38837,1.32035.12791,2.61437,0.10917,3.92623-0.03,2.09742.0192,4.19619,0.04926,6.29419,0.013,0.90678.06183,1.813,0.09731,2.80179,1.36985-.367,1.62149-1.76556,2.69637-2.51566l-0.29732.68259c0.84757,0.2319,1.37276-.33638,2.08351-0.638a2.98446,2.98446,0,0,1-.45932.69422,1.38119,1.38119,0,0,0-.44019,1.55059,2.96976,2.96976,0,0,1,.04657,1.34185,4.40528,4.40528,0,0,0,.21565,1.48777,1.09168,1.09168,0,0,1-.38541,1.2509c-1.63655,1.21111-3.24929,2.45448-4.86809,3.68946q-1.49793,1.1428-2.98665,2.29773a0.8321,0.8321,0,0,1-1.0174.18547,0.85238,0.85238,0,0,1-.46293-0.915c0.08666-1.4575.12277-2.91793,0.18728-4.37683a33.44037,33.44037,0,0,0,.16113-3.85866c-0.15731-2.16917.13358-4.322,0.06256-6.48311-0.0703-2.13918-.16158-4.27882-0.16878-6.41854-0.00443-1.319.13391-2.63841,0.20315-3.95791,0.04619-.87984.11787-1.76035,0.11267-2.64019A16.52427,16.52427,0,0,0,38.20287,54.08978Zm6.83659-3.62122,0.01684,0.016a1.218,1.218,0,0,0-1.31637.46052c-1.358.95963-2.66863,1.98934-4.05714,2.90126a1.26709,1.26709,0,0,0-.6775,1.22065c0.01351,1.05328-.027,2.10722-0.044,3.16089-0.03238,2.0014-.08,4.00272-0.08969,6.00426-0.00525,1.0858.08383,2.17207,0.079,3.2579q-0.01681,3.81425-.088,7.62819c-0.02732,1.45947-.1,2.91821-0.16146,4.37688-0.04572,1.08543-.12357,2.16982-0.15047,3.25558a1.46624,1.46624,0,0,0,.28126,1.16055c0.38211-.30752.72224-0.58226,1.06339-0.85571q2.81983-2.26043,5.64178-4.51836a6.39694,6.39694,0,0,1,.58964-0.39929c0.8842-.55712.92774-0.711,0.46575-1.91063-0.5952.772-1.16447,1.5103-1.73376,2.24865L44.644,78.31515c0.53886-.80945,1.04589-1.64271,1.628-2.41975a1.7215,1.7215,0,0,0,.266-1.70035c-0.77125.99412-1.45982,1.88169-2.14839,2.76927l-0.17907-.12491,1.90106-2.871L45.97908,73.828c-0.89737.65928-1.79475,1.31857-2.79511,2.0535a4.633,4.633,0,0,1-.11459-0.64212c0.00155-1.32356.06415-2.64919,0.01128-3.97029-0.14934-3.72658-.33718-7.45172-0.53011-11.17637-0.03069-.59265-0.166-1.17988-0.26932-1.88092a3.51946,3.51946,0,0,1,.43674-0.37123c0.76851-.4986,1.55628-0.96781,2.31935-1.47436a1.90325,1.90325,0,0,0,.522-2.71606,7.24207,7.24207,0,0,0,.31943-3.90136Z"></path><path d="M44.03309,60.42344c0.40713-.57267.79073-1.164,1.22668-1.71385,0.75695-.95478,1.54477-1.88514,2.3227-2.82317a1.58223,1.58223,0,0,1,1.14332-.68627c-1.56168,1.84507-3.05031,3.60387-4.539,5.36268Z"></path><path d="M44.3041,69.80246a13.01239,13.01239,0,0,1,3.2605-3.70491,1.9842,1.9842,0,0,1-.14981.4714q-1.481,1.69806-2.97326,3.38632Z"></path><path d="M46.42187,62.88319A6.044,6.044,0,0,1,48.453,60.49294c-0.20493.79936-.64636,1.34223-1.92721,2.4855Z"></path><path d="M47.34,68.59349a1.10623,1.10623,0,0,1-.10727.25668c-0.64782.8566-1.30094,1.70919-2.02566,2.50895A5.43773,5.43773,0,0,1,47.34,68.59349Z"></path><path d="M46.414,60.01706c0.86195-1.36654,1.39564-1.86889,2.12661-1.95089a2.634,2.634,0,0,1-.97522,1.10217q-0.51.485-1.0235,0.96636Z"></path><path d="M46.08849,46.08326l-1.832,2.45758-0.17246-.12477a9.18023,9.18023,0,0,1,1.78478-2.50065Z"></path><path d="M46.98851,64.4452c-0.72119.84738-1.31887,1.5497-2.00606,2.35712A3.203,3.203,0,0,1,46.98851,64.4452Z"></path><path d="M46.54186,60.1347a7.67289,7.67289,0,0,1-1.67657,2.04273A4.74534,4.74534,0,0,1,46.414,60.01709Z"></path><path d="M46.52575,62.97844a3.82834,3.82834,0,0,1-1.31955,1.54585,3.43047,3.43047,0,0,1,1.21573-1.641Z"></path><path d="M42.64087,50.22923l0.97665-1.35963a1.95737,1.95737,0,0,1-.82745,1.49912Z"></path><path d="M48.8205,49.72247q-0.471.57844-.942,1.15692l-0.19715-.14885q0.44679-.59549.89362-1.191Z"></path><path d="M44.02085,46.39162l-0.7222,1.38488-0.20707-.12556a2.04772,2.04772,0,0,1,.94631-1.24372Z"></path><path d="M52.718,77.61976a1.42589,1.42589,0,0,0,.2326-0.50734c0.00488-1.30218.00617-2.6056-.05175-3.906A3.65876,3.65876,0,0,0,52.53,72.18369l0.14221-.13a0.8378,0.8378,0,0,0,.292-0.32142c0.00485-1.24715.00258-2.49533-.0517-3.74088a1.68761,1.68761,0,0,0-.36844-0.80551c-0.33256-.47121-0.72433-0.90042-1.061-1.369a7.12973,7.12973,0,0,1-.45189-0.83451l0.184-.11576,1.63364,2.19719a1.92891,1.92891,0,0,0-.34642-2.14687,4.38027,4.38027,0,0,1-.52657-1.04064c0.30264,0.26438.60531,0.52875,0.94118,0.82218a3.85312,3.85312,0,0,0,.04753-0.56943,0.69615,0.69615,0,0,1,.55093-0.75662,1.12295,1.12295,0,0,1,.78933.26808c1.66436,1.33,3.30261,2.69269,4.96115,4.03009,0.68459,0.552,1.41663,1.046,2.08986,1.61075a1.13895,1.13895,0,0,1,.4082.74592c-0.00312,1.82378-.07445,3.64727-0.09424,5.47119-0.03276,3.02232-.0423,6.04489-0.06418,9.06735-0.00164.22594-.02335,0.45175-0.04429,0.833a2.38163,2.38163,0,0,1-.64833-0.362,19.34187,19.34187,0,0,0-3.362-2.76939c-1.03623-.81685-2.1279-1.56433-3.20683-2.32582A3.6419,3.6419,0,0,1,52.718,77.61976Zm8.07079,6.18443c0.046-.48774.0926-0.77995,0.0982-1.073q0.0701-3.66765.12706-7.33561c0.023-1.39107.0464-2.78214,0.06249-4.17331a2.23649,2.23649,0,0,0-.95778-1.9976c-1.50029-1.10482-2.92407-2.31307-4.39128-3.46349-0.62779-.49227-1.28551-0.94631-2.02013-1.484-0.019.28023-.04064,0.46818-0.04293,0.65635-0.01018.83383,0.002,1.66834-.02795,2.50138a1.55179,1.55179,0,0,0,.429,1.20658,0.37282,0.37282,0,0,1,.01773.17989H53.64859c0,0.457-.00176.89451,0.00042,1.332,0.00281,0.56849.03133,1.138,0.00654,1.70518a5.04346,5.04346,0,0,0,.02432,1.49694,6.7998,6.7998,0,0,1-.157,1.56039c-0.0189.977,0.01015,1.95579,0.05266,2.9324a0.98357,0.98357,0,0,0,.25026.63872c0.68079,0.60817,1.3804,1.1991,2.10846,1.74957,1.02786,0.77713,2.08968,1.50918,3.13135,2.26823C59.59946,82.89392,60.12108,83.29978,60.78878,83.80419Z"></path><path d="M53.25124,59.29672a8.55,8.55,0,0,1-2.33436-3.32714A13.72619,13.72619,0,0,1,53.25124,59.29672Z"></path><path d="M52.55913,48.54056a5.143,5.143,0,0,1-2.10351-2.856,0.36286,0.36286,0,0,1,.1816.00366C51.2826,46.63574,51.92027,47.58855,52.55913,48.54056Z"></path><path d="M51.44465,54.49939q0.67548,0.90339,1.35093,1.8068a3.58041,3.58041,0,0,1-1.49328-1.67913Z"></path><path d="M51.36277,49.68453q0.44837,0.57109.89665,1.14217l-0.13834.12479-0.74269-1.28115Z"></path><path d="M51.37839,49.67035l-0.879-1.17725q0.061-.05522.12172-0.11077,0.371,0.65086.74175,1.302Z"></path><path d="M56.413,61.26543l-0.28939-.34508,0.10132-.08591,0.29146,0.34236Z"></path><path d="M52.79506,51.72321l0.58036,0.49649-0.20231.168-0.36346-.67818Z"></path><path d="M52.80965,51.70947q-0.34423-.379-0.68855-0.758l0.13832-.12477q0.2679,0.44809.53567,0.89639Z"></path><path d="M51.57483,52.11162l0.62611,0.56266a0.51423,0.51423,0,0,1-.61157-0.57628Z"></path><path d="M33.0156,78.85415a3.528,3.528,0,0,0,.30721,3.15954c0.539,0.76548,1.02233,1.57014,1.53042,2.35738a2.42107,2.42107,0,0,1-1.22213-1.2916,7.54773,7.54773,0,0,0-.65964-0.97306,2.97071,2.97071,0,0,0,.16615,2.231l-0.75188.7184c-0.75134-.54258-1.50156-1.10585-2.27445-1.6361-0.69469-.4766-1.41381-0.91761-2.12347-1.37231a0.88621,0.88621,0,0,1-.26008-0.1458c-0.83064-1.21514-2.21144-1.76844-3.26643-2.71435a1.51477,1.51477,0,0,1-.46849-1.06125,59.59866,59.59866,0,0,1-.26158-6.4036c-0.022-.84677-0.12526-1.69149-0.14556-2.53826-0.01686-.70377.22072-0.85908,0.88-0.60868a3.58378,3.58378,0,0,1,.89709.47083c1.64414,1.252,3.26784,2.5308,4.91208,3.78266,0.51034,0.38856,1.07185.70925,1.59284,1.08475a1.19032,1.19032,0,0,1,.54254.55874,8.31067,8.31067,0,0,0,1.2985,2.84618,3.314,3.314,0,0,1,.15654.477l-0.1053.093-0.97609-1.33979-0.16585.042Q32.8168,77.72248,33.0156,78.85415Zm-6.126-1.41785c0.40208,0.8448.84785,1.67214,1.19406,2.53922a7.07329,7.07329,0,0,0,1.59347,2.18621,1.59229,1.59229,0,0,0,1.06536.56244c-2.4066-4.3029-3.60873-9.06752-6.47591-13.20978a3.87554,3.87554,0,0,0,.1772,1.75184,8.66511,8.66511,0,0,1,1.14649,2.46592c0.50969,1.21191.88335,2.481,1.31447,3.72493q-0.79833-1.58108-1.59589-3.16254c-0.24745-.493-0.4865-0.99032-0.72937-1.48568L24.2613,72.958c1.30889,2.49312,1.80268,5.33855,3.5378,7.6503a7.49287,7.49287,0,0,0-.40924-1.33787C27.19684,78.66746,27.054,78.04843,26.88958,77.4363ZM25.5009,70.15319c0.11215,0.3214.156,0.48211,0.22264,0.63277,1.15085,2.60112,2.27377,5.21531,3.47207,7.79446,0.5102,1.09811,1.20051,2.11125,1.76657,3.18535a8.03644,8.03644,0,0,1,.56069,1.48793,0.48227,0.48227,0,0,0,.54753.45346,0.84131,0.84131,0,0,0,.04085-0.30642,3.32815,3.32815,0,0,1-.01585-1.53572c0.11457-.65581.40907-1.51061-0.69-1.77531a0.94238,0.94238,0,0,1-.31859-0.49773c-0.30281-.64357-0.58962-1.29465-0.88814-1.94029-0.89517-1.93591-1.80122-3.86684-2.68589-5.80751A3.188,3.188,0,0,0,25.5009,70.15319ZM31.81758,79.623l0.25727-.07276c0.01163-.263.02054-0.5261,0.03534-0.78888a2.55444,2.55444,0,0,0-.63-1.93321,7.56016,7.56016,0,0,1-1.33465-2.48194,2.43462,2.43462,0,0,0-1.94268-1.95964C29.44411,74.87148,30.63083,77.24722,31.81758,79.623Zm-7.15574-4.38035c0.4521,1.504.6424,3.12359,1.9231,4.259Q25.62342,77.37212,24.66184,75.24263Zm7.05311,1.0753c0.38858-1.39138.07724-1.96039-1.1345-2.08285A4.80642,4.80642,0,0,0,31.71495,76.31793Zm-6.9761,1.13148c-0.06479.94823-.06479,0.94823,0.59673,1.28509C25.103,78.23369,24.92092,77.84155,24.73884,77.44941Z"></path><path d="M34.2394,63.1483c-0.27514-.27905-0.55025-0.55813-0.9026-0.91552a2.851,2.851,0,0,0,.2874,2.43795,14.36676,14.36676,0,0,1,.893,1.5277l-0.223.14017c-0.34888-.49874-0.69776-0.9975-1.13042-1.616a2.96888,2.96888,0,0,0,.00905,2.03256,17.86428,17.86428,0,0,0,1.1233,1.85689c-0.71305-.15211-0.74705-0.77413-1.18063-0.96516-0.49965,1.37782.95728,2.04646,0.99149,3.24969l-1.09138-1.43271a1.79718,1.79718,0,0,0,.32926,1.77271,3.0681,3.0681,0,0,1,.89723,1.76734c-0.38356-.46516-0.76715-0.9303-1.20086-1.45628l-0.5978.38389a53.68965,53.68965,0,0,1-6.52731-4.511,12.11813,12.11813,0,0,0-1.29489-.98474,1.39334,1.39334,0,0,1-.69807-1.353c0.03512-1.38645.04375-2.77485,0.01313-4.16132-0.02987-1.35353-.13044-2.70535-0.18465-4.0585-0.08132-2.02989-.14336-4.06052-0.22686-6.09031-0.02228-.54094-0.11056-1.079-0.13687-1.62-0.034-.69886.22156-0.92865,0.91175-0.81376a1.71983,1.71983,0,0,1,.64683.26761c1.77,1.1783,3.5468,2.34756,5.28872,3.5664,0.63244,0.44251,1.17361,1.01476,1.76246,1.52076a4.6055,4.6055,0,0,0,.46865.3059l-0.0529-.66756a10.98056,10.98056,0,0,1,2.0538,2.84573c-0.60249.14214-.57058-0.45761-0.97956-0.63105a1.97625,1.97625,0,0,0,.13443,1.35813,4.02249,4.02249,0,0,1,.56847,1.306l-0.64078-.41024c-0.07435,1.20009-.17891,2.32237-0.19014,3.4456a2.56755,2.56755,0,0,0,.42844.9075C33.944,62.48263,34.0894,62.81655,34.2394,63.1483Zm-1.93954-7.85449c-2.14384-2.72432-5.12775-4.33749-8.14564-6.22741,0,0.40839-.01313.66388,0.00218,0.91766,0.07946,1.31515.19675,2.62879,0.24187,3.945,0.04624,1.34889.01712,2.70021,0.03555,4.05025,0.00835,0.61026.07072,1.21988,0.076,1.83006,0.01414,1.629.01473,3.25818,0.01137,4.88727a1.17372,1.17372,0,0,0,.42159,1.07877c2.169,1.62194,4.32236,3.2647,6.493,4.88434a3.59642,3.59642,0,0,0,.86558.29821L31.86014,69.122l0.475,0.03344c0-.12566.00746-0.2274-0.00124-0.32771-0.05883-.679-0.46626-1.34-0.01292-2.05047a1.252,1.252,0,0,0-.142-0.76935c-0.09168-.28649-0.22824-0.55865-0.36014-0.87233h0.62088c-0.06214-.85224-0.122-1.67331-0.17638-2.41931a1.62177,1.62177,0,0,0,.28911-0.55921c0.09276-1.72387.19844-3.44919,0.20219-5.17432a5.26187,5.26187,0,0,0-.48-1.52024l0.39967-.17781-0.2719-.46049L32.243,54.9095Z"></path><path d="M34.57843,76.46016c-0.52995-.80952-1.05987-1.61905-1.71791-2.62427A5.54589,5.54589,0,0,1,34.70294,76.348Z"></path><path d="M33.68113,86.62124c0.33938,0.55276.67879,1.1055,1.10055,1.7924A2.06927,2.06927,0,0,1,33.68113,86.62124Z"></path><path d="M33.82554,54.1496q-0.37852-.76488-0.757-1.52979l0.19806-.10854q0.41812,0.72542.83627,1.45086Z"></path><path d="M34.85247,64.16941L34.223,63.12565Z"></path><path d="M33.86522,77.79557l0.60831,0.84375-0.20817.13813q-0.2526-.44457-0.50533-0.889Z"></path><path d="M50.59759,35.938a11.55955,11.55955,0,0,1,2.478,3.35305A17.97526,17.97526,0,0,1,50.59759,35.938Z"></path><path d="M50.86724,34.76784a7.09216,7.09216,0,0,1,2.26242,2.77286A8.31545,8.31545,0,0,1,50.86724,34.76784Z"></path><path d="M54.2198,36.07115L54.58,36.51452l-0.1095.11161-0.39972-.40166Z"></path><path d="M52.2566,33.482l0.642,0.74067a0.89782,0.89782,0,0,1-.76691-0.62512Z"></path><path d="M66.23376,57.804c-0.01662-1.4684-.07206-2.91378-0.04035-4.35725,0.04994-2.27353.3-4.55222,0.19734-6.81656-0.082-1.80875.3195-3.54127,0.40856-5.31463a1.28775,1.28775,0,0,1,.361-0.7837c1.04409-1.01452,2.11838-1.99818,3.19246-2.98145a1.67971,1.67971,0,0,1,.52437-0.29772,0.59237,0.59237,0,0,1,.92361.61781c0.00162,0.4729-.09316.94554-0.10385,1.41921-0.04673,2.0712-.07191,4.14292-0.11848,6.21414a28.20052,28.20052,0,0,0-.08823,3.05076c0.102,1.17155.05353,2.33588,0.05719,3.50248a6.18906,6.18906,0,0,1,.14059,1.43154A2.28761,2.28761,0,0,1,70.60424,54.974q-1.61963,1.2231-3.20671,2.489A1.0522,1.0522,0,0,1,66.23376,57.804Zm0.88183-3.96917c0.201-.32956.41144-0.65377,0.60116-0.98969,0.514-.91013,1.01408-1.82816,1.52953-2.73747,0.43327-.76435.93339-1.49586,1.30675-2.28769a4.2734,4.2734,0,0,0,.28091-2.68385C69.527,46.53989,66.87747,52.42639,67.11559,53.83488Zm-0.23718,2.72275,0.24974,0.12005a3.87416,3.87416,0,0,0,.5608-0.59016c0.92361-1.49645,1.8242-3.00705,2.73874-4.50913a3.8,3.8,0,0,0,.31057-2.78439,1.92487,1.92487,0,0,0-.30388.29195c-1.10836,1.975-2.23925,3.93838-3.29394,5.94179A5.03935,5.03935,0,0,0,66.87841,56.55763Zm0.38349-8.95126a4.48313,4.48313,0,0,0,.37113-0.56252c0.94582-2.02372,1.90535-4.0416,2.81028-6.08361a5.81486,5.81486,0,0,0,.54765-2.80367c-0.99686,1.81771-1.95281,3.64941-2.79222,5.533A10.04839,10.04839,0,0,0,67.2619,47.60637Zm3.5521-5.97209a12.085,12.085,0,0,0-.646,1.04678c-1.04235,2.2352-2.085,4.47048-3.09285,6.72132a2.2307,2.2307,0,0,0,.02291,1.577,6.29979,6.29979,0,0,0,.35638-0.54139q1.166-2.36411,2.32069-4.73383,0.4215-.86755.80748-1.75224A3.70147,3.70147,0,0,0,70.814,41.63428Zm-1.123-2.285-0.21586-.136a7.84777,7.84777,0,0,0-2.16,5.57683Q68.50307,42.0697,69.691,39.34926ZM70.68713,52.184a8.95748,8.95748,0,0,0-1.46983,2.81136C71.09008,53.93041,71.08937,53.921,70.68713,52.184Z"></path><path d="M75.10171,52.43556a19.19607,19.19607,0,0,1,1.85766-2.67264l0.24937,0.1816q-0.96336,1.3111-1.92669,2.62223Z"></path><path d="M75.01179,50.06945a6.71038,6.71038,0,0,1,1.93274-2.30329,2.55452,2.55452,0,0,1-.81589,1.25364c-0.30907.39559-.595,0.80928-0.891,1.215Z"></path><path d="M76.53241,46.45088q-0.59331.8066-1.18665,1.61319l-0.17992-.13724A4.3902,4.3902,0,0,1,76.40567,46.339Z"></path><path d="M74.51012,53.53552L73.87531,54.6519A1.09666,1.09666,0,0,1,74.51012,53.53552Z"></path><path d="M74.03328,51.888l-0.44746.58854-0.15063-.093,0.38771-.66529Z"></path><path d="M76.40567,46.339l0.44-.64606,0.18672,0.13426q-0.25.3118-.50005,0.62367Z"></path><path d="M68.54692,68.35605q0.37965-.60573.75931-1.21148l0.21849,0.13227q-0.38.61892-.76,1.23786Z"></path><path d="M45.95233,28.97893l-1.16255,1.5126C45.10626,29.43494,45.25642,29.23725,45.95233,28.97893Z"></path><path d="M47.7652,26.45851l-1.03262,1.4374-0.17351-.1235a4.09774,4.09774,0,0,1,1.08641-1.42174Z"></path><path d="M44.02036,43.36218a0.8329,0.8329,0,0,1-.68088.80935Z"></path><path d="M33.90676,41.07957a16.8279,16.8279,0,0,1-1.69449-2.97817A5.50963,5.50963,0,0,1,33.90676,41.07957Z"></path><path d="M32.46233,41.13728a5.04345,5.04345,0,0,1,1.6607,2.88859A11.86268,11.86268,0,0,1,32.46233,41.13728Z"></path><path d="M34.26791,38.71565A9.27791,9.27791,0,0,1,32.76,36.492,3.28187,3.28187,0,0,1,34.26791,38.71565Z"></path><path d="M31.95137,43.37158l-0.96814-1.41691,0.23795-.14805q0.41721,0.73766.83453,1.47523Z"></path><path d="M34.52945,28.50427a3.32109,3.32109,0,0,1-1.65526-2.96862Z"></path><path d="M34.07231,30.91821l-1.26593-2.2268,0.24341-.1476a5.88585,5.88585,0,0,1,1.18539,2.03748,0.71989,0.71989,0,0,1-.1831.32492Z"></path><path d="M33.73018,24.35144q0.56774,0.68494,1.13546,1.36985l-0.18121.14885a2.151,2.151,0,0,1-1.13178-1.37295Z"></path><path d="M54.16522,42.969l0.37559,0.43266-0.14449.12922-0.36356-.44556Z"></path><path d="M73.42765,32.53741a1.71856,1.71856,0,0,1,.6312-1.25226,1.40748,1.40748,0,0,1-.649,1.23678Z"></path><path d="M70.5549,21.09061l-0.31615.8842-0.205-.09285a0.89327,0.89327,0,0,1,.53084-0.78286Z"></path><path d="M46.02795,35.34447a4.65722,4.65722,0,0,1,1.94252-2.11674l0.19448,0.19274q-1.01323,1.00943-2.02646,2.01884Q46.083,35.39208,46.02795,35.34447Z"></path><path d="M46.13848,35.43932L44.5198,37.93715l-0.20311-.13694A7.24842,7.24842,0,0,1,46.028,35.3445Q46.083,35.392,46.13848,35.43932Z"></path><path d="M46.207,32.87121a6.29866,6.29866,0,0,1,2.06121-2.2774c-0.024.80072-.67947,0.86459-0.93611,1.25294a10.92865,10.92865,0,0,1-.99168,1.14513Z"></path><path d="M46.49121,37.51859l1.56217-1.772,0.21047,0.18843-1.56409,1.7955Z"></path><path d="M46.07231,38.46569q-0.72074.877-1.44155,1.754l-0.15893-.1281a4.77036,4.77036,0,0,1,1.42809-1.79262Z"></path><path d="M46.34037,32.99187l-0.8086,1.16344-0.22348-.16885q0.44939-.55758.89871-1.11521Z"></path><path d="M44.49748,35.1408l0.38452-.515,0.12327,0.07438-0.32775.56613Z"></path><path d="M32.82966,46.17105l1.16923,1.76542C33.26,47.59371,33.14393,47.43055,32.82966,46.17105Z"></path><path d="M48.70915,20.87643c-0.688.53056-1.37595,1.06111-1.74694,1.3472A2.33251,2.33251,0,0,1,48.70915,20.87643Z"></path><path d="M47.64991,23.97343A4.19891,4.19891,0,0,1,49.173,22.23137,4.34312,4.34312,0,0,1,47.64991,23.97343Z"></path><path d="M46.93226,19.95137q0.70593-.75408,1.41187-1.50819l0.1926,0.15262a2.32256,2.32256,0,0,1-.64721.725c-0.25772.26161-.50089,0.53754-0.7504,0.80724Z"></path><path d="M48.59381,15.75787l-0.73514.42823C47.90892,15.74076,48.11287,15.53357,48.59381,15.75787Z"></path><path d="M75.8587,18.97106q0.44524-.71311.89043-1.42624l0.22069,0.13858a4.5306,4.5306,0,0,1-.914,1.41138Z"></path><path d="M75.69923,17.08095q0.45238-.69341.90476-1.38683l0.22592,0.14629-0.93574,1.38Z"></path><path d="M76.63342,20.11482c-0.12573.22895-.24133,0.46425-0.38009,0.685-0.13795.2195-.29924,0.42434-0.4503,0.6356l-0.1749-.10364,0.7644-1.38134Z"></path><path d="M74.726,20.97018l0.35533-.56179,0.11921,0.06537-0.32253.61145Z"></path><path d="M72.61318,19.59447l0.41955-.66927,0.18031,0.10556-0.39861.69563Z"></path><path d="M38.44731,24.81845l0.44213-.39064,0.1507,0.17035-0.44155.3913Z"></path><path d="M67.32784,29.135a3.90611,3.90611,0,0,1,.18451-0.42694,0.41761,0.41761,0,0,1,.34644-0.20925l-0.32084.7361Z"></path><path d="M74.46271,74.57029c-0.47822.73029-.95649,1.46057-1.51729,2.31691C72.952,76.03362,73.14367,75.71623,74.46271,74.57029Z"></path><path d="M51.51912,68.0887c-0.44373-.37008-0.949-0.71185-0.534-1.48385l0.64177,1.3864Z"></path><path d="M51.57467,71.12176q-0.37455-.5688-0.74909-1.13758l0.18993-.1359a2.79461,2.79461,0,0,1,.81484,1.06092Z"></path><path d="M51.62691,67.99125l0.9004,1.05715a1.54733,1.54733,0,0,1-1.00814-.95972Z"></path><path d="M52.53,72.18369l-0.52788-.62458,0.17628-.14313q0.24691,0.31887.49379,0.63774Z"></path><path d="M77.00094,61.785c-0.555.70921-1.10993,1.41843-1.73046,2.21144A3.38781,3.38781,0,0,1,77.00094,61.785Z"></path><path d="M76.97911,66.68994Q76.027,67.95507,75.075,69.2202l-0.19495-.138a11.102,11.102,0,0,1,1.81571-2.62162Z"></path><path d="M45.03945,50.46856l-0.37381.76738a0.54077,0.54077,0,0,1,.39064-0.75125Z"></path><path d="M43.774,52.36069l-0.32994.42731-0.13494-.087,0.29411-.47459Z"></path><path d="M54.71812,74.65561l-0.70245-.6708,0.15766-.16646A1.03041,1.03041,0,0,1,54.71812,74.65561Z"></path></g></svg>