<svg height='100px' width='100px'  fill="#000000" xmlns="http://www.w3.org/2000/svg" xmlns:xlink="http://www.w3.org/1999/xlink" version="1.1" x="0px" y="0px" viewBox="0 0 100 100" style="enable-background:new 0 0 100 100;" xml:space="preserve"><path d="M3.4,96.3c0.8-0.9,1.7-1.1,2.5-1.9c0.6-0.7,1.1-1.1,0.7-2.1C6.3,91,7,89.9,7.5,88.8c0.5-1.2,1.3-2.3,0.9-3.9  c-0.3-0.9,0.4-2,0.9-2.9c1.2-2.2,2.6-4.3,4.2-6.2c1.7-2.1,3.5-4,5.1-6.1c1.5-1.9,3.5-3.3,5.3-4.9c1-0.9,2-1.6,2.9-2.6  c1.3-1.5,3.1-2,4.8-2.3c3.6-0.6,6.7-2.5,10.4-3c3.2-0.4,6.3-1.2,9.5-0.9c0.7,0.1,1.4,0,2-0.2c1.8-0.5,3.6-0.4,5.3,0.3  c1.1,0.5,2.2,0,3.3,0.1c0.5,0.1,1.7-0.5,0.8,0.9c0.4,0.2,0.8,0.4,1.2,0.5c4.6,1.2,8.7,3.6,12.9,5.8c0.3,0.2,0.9,0.2,0.8,0.8  c-0.2,1.6,0.4,1.4,1.4,0.6c0.4-0.3,0.8-0.1,1.2,0.3c0.2,0.2,0.5,0.5,0.7,0.8c3,3.7,6.2,7.2,8.8,11.1c1.1,1.6,2,3.2,2.2,5.2  c0.2,1.9,1.7,3.1,2.6,4.7c0.4,0.7,0.7,1.3,0.9,2c0.2,0.9-0.2,2,1.3,2.5c0.7,0.3,0.4,2.1-0.1,3.1c-0.2,0.4-0.5,0.8-0.9,1.2  c-0.4,0.5-0.8,1.3-1.4,0.1c-0.2-0.4-0.6-0.3-0.9-0.2c-1.6,0.6-3-0.1-4.5-0.4c-2.4-0.4-4.8-0.3-7.2-0.3c-6.1-0.1-12.2-0.1-18.4-0.1  c-2.1,0-4.1-0.1-6.2,0c-4.5,0.3-9.1,0.3-13.7,0.4c-5.4,0.1-10.8,0.7-16.2,1.2c-2.7,0.2-5.3-0.1-7.9,0c-3.4,0.2-6.8,0.4-10.3,0.3  C7.3,96.7,5.4,96.5,3.4,96.3z M69.2,62.9c-0.6,0.5-1.2,1-1.8,1.4c-0.9,0.6-0.5,1.3-0.2,2c0.4,0.8,0.9,0.8,1.7,0.5c2-0.7,2.1-1,1-2.7  C69.6,63.7,69,63.5,69.2,62.9c-1.9-2.4-3.7-2.7-7.2-1.2c0,0.8,0.6,1.4,1,2c0.3,0.4,0.8,0.4,1.2,0.2c0.5-0.2,0.4-0.6,0.3-1.1  c-0.1-0.3-0.2-0.7,0.5-0.8C66,63.5,67.5,63.6,69.2,62.9z M73,71.3c-2.6,1-5.3,1.7-8.2,2.2c0.3-0.8,0.9-0.8,1.4-1  c2.1-0.8,2.3-1.5,0.9-3.2c-0.5-0.6-1-0.4-1.6-0.3c-1.9,0.4-3.7,1.2-5.7,1.2c0.8-0.5,1.7-0.9,2.6-1.2c0.9-0.3,1.4-0.8,1.1-1.9  c-0.3-1-0.9-1.4-1.9-1.3c-0.6,0.1-1.2,0.2-1.7,0.5c-1.5,0.6-3.1,0.6-4.7,1c0.3-0.3,0.7-0.6,1.1-0.7c0.9-0.3,1.7-0.6,1.1-1.8  c-0.5-1.1-1-1.7-2.4-1.1c-0.8,0.4-1.8,0.4-2.8,0.3c0.6-1,1.6-0.9,2.4-1.2c0.6-0.2,1.5-0.3,1.1-1.3c-0.3-0.8-0.8-1.3-1.8-0.9  c-0.8,0.3-1.7,0.6-2.6,0.3c0.4-0.6,0.9-0.7,1.4-0.9c0.6-0.2,1.7-0.1,1.6-1c-0.1-0.9-1.1-0.9-1.9-1c-0.2,0-0.5,0-0.8,0  c-5.1,0.2-10,0.7-15,2.5c-4.9,1.7-8.8,4.5-12.6,7.9c-2.7,2.3-4.8,5.1-6.7,8.1c-1.9,3-4,5.9-5.3,9.4c-0.5,1.4-1,2.8-1.3,4.2  c-0.3,1.5-1.4,2.7-1.4,4.4c2,0,4-0.1,5.8,0.1c2,0.2,3.9,0.2,5.8-0.3c-0.2-0.9-1.2-0.1-1.4-0.9c0.6-0.7,1.5-0.6,2.3-0.7  c3.2-0.2,6.4-0.2,9.6-0.2c7.4,0,14.8,0.1,22.2,0.1c6.6,0.1,13.3-0.2,19.9,0.1c0.7,0,1.5,0.2,2-0.3c1.1-0.9,2.4-0.8,3.7-0.6  c2.8,0.4,5.5-0.3,8-1.3c0.4-0.2,0.7-0.5,0.6-1c-0.1-0.4-0.4-0.5-0.8-0.4c-0.8,0.1-1.5,0.3-2.3,0.4c-2.1,0.2-4.2,1.3-6.4,0.6  c2.3-0.8,4.5-1.4,6.8-1.9c2.4-0.6,2.5-0.7,2.2-3.1c-0.2-1.5-0.6-1.9-2-1.4c-1.5,0.6-3,0.6-4.4,0.9c-1.6,0.3-3.3,1-5,0.6  c1.8-0.9,3.7-1.1,5.5-1.6c0.5-0.1,1.1-0.2,1.2-0.8c0.1-0.9,0.1-1.8-0.4-2.5c-0.5-0.7-1.3-0.4-1.9-0.2c-2.4,0.6-4.8,1.3-7.3,1.7  c-2,0.4-3.9,1.1-6.1,0.7c0.3-0.6,0.8-0.6,1.2-0.6c2.8-0.6,5.6-1.2,8.3-1.8c1.8-0.4,2.1-0.9,1.7-2.8c-0.1-0.3-0.2-0.7-0.3-1  c-0.2-1.2-0.8-1.6-2-1.1c-2,0.8-4,1.1-6.2,1.5c0.3-0.9,1-0.9,1.6-1.1c2.6-0.9,2.6-0.9,2.1-3.5C73.1,71.6,73,71.5,73,71.3  c1,0.6,0.7,1.8,1.2,2.7c0.4-0.1,0.7-0.1,1-0.2c1.6-0.4,1.8-0.7,1.4-2c-0.4-1.3-0.7-1.5-2.2-1.1C73.9,70.9,73.6,71.5,73,71.3z   M87.8,79.1c-0.4,3.5,0.9,6.7,0.7,10c0,0.2,0.3,0.4,0.5,0.5c1.1,0.4,2.2-0.5,2.2-1.7c0-1.6-1.1-3-0.8-4.8  C90.7,81.7,89.2,80.2,87.8,79.1z M68.2,69.1c0,1.6,0.5,2.3,1.5,2.3c1.4-0.1,2.5-0.9,2.5-1.6c-0.1-1.2-0.8-2.3-1.6-2.4  C69.4,67.3,68.2,68.2,68.2,69.1z M81.6,76.6c-0.1-0.2-0.3-0.9-0.4-1.5c-0.3-1.2-1.4-0.9-2.1-1c-0.9,0-0.8,0.9-0.6,1.6  c0.1,0.6,0.2,1.2,0.3,1.8c0.1,1,0.4,1.4,1.4,1.2C81.2,78.5,81.9,78.2,81.6,76.6z M61.8,64.2c-0.1-0.7-0.5-1.3-1-1.8  c-0.8-0.8-1.6-0.3-2.3,0.1C57.4,63,57.8,64,58,64.7c0.2,0.9,1.1,0.6,1.7,0.4C60.5,64.9,61.3,64.8,61.8,64.2z M83.4,80.4  c0.1,1.9,0.4,2.4,1.7,2c0.6-0.2,1.4-0.2,1.4-1.2c0-0.8,0-1.4-1-1.6c-0.5-0.1-0.5-1.4-1.5-0.8C83.3,79.2,83.4,79.8,83.4,80.4z   M64.5,64.8c-0.9,0.2-1,0.9-0.8,1.6c0.2,0.8,0.4,1.7,1.7,1.5c0.7-0.1,1-0.5,0.9-1.3C66.1,65.5,65.3,64.7,64.5,64.8z M73.8,69.9  c0.7-1.3,2.2-1.8,1.4-3.1c-0.5-0.7-1.6-0.3-2.1,0.2C71.9,68,73.1,68.7,73.8,69.9z M59.6,60.8c-0.2-0.9-0.8-1.4-1.6-1.6  c-0.6-0.2-1,0.1-1.4,0.4c-0.5,0.4-0.2,0.9,0.1,1.4c0.3,0.5,0.7,0.7,1.3,0.5C58.6,61.2,59.1,61,59.6,60.8z M80.6,72.4  c-0.3-1.1-0.9-1.8-1.7-2.3c-0.7-0.4-1.4,0-1.4,0.8C77.5,72.3,78.2,72.7,80.6,72.4z M87,91.6c1.3,0.2,2.6,0,3.9,0.7  c0.4,0.2,0.9,0,0.9-0.6c0-0.5-0.1-0.9-0.6-1c-0.4-0.1-0.8,0-1.3,0.1C88.9,91.1,88,91.3,87,91.6z M71,63c1.1,3.1,1.1,3.1,2.8,2  C73.1,64.2,72.3,63.6,71,63z M25.9,93.8c1.6,0.2,3,0.1,4.5-0.2C28.9,93.4,27.4,93.5,25.9,93.8z M82.8,75.1c0.2,0.9-0.5,2.1,0.9,2.8  C84.3,76.7,83.4,75.9,82.8,75.1z M60.5,59.6c0.8,1.1,1.6,0.9,2.6,0.4C62.3,59.1,61.6,59,60.5,59.6z"></path><path d="M49.4,47c-4-0.6-8.2-0.3-12-2.4c-1-0.6-1.8-1.3-2.5-2.2c-0.4-0.4-1.3-2.4-2,0c-0.1,0.3-0.4,0.3-0.6,0.1  c-0.3-0.2-0.6-0.5-0.7-0.7c-1.5-3.7-4.5-6.8-4.8-11c0-0.2,0-0.4-0.1-0.5c-2.2-2.8-1.1-5.7-0.2-8.6c0.3-1,0.4-1.9,0.3-3  c-0.4-2.7,1.4-4.5,3.1-6.3c2.8-2.9,6.2-4.9,9.7-6.8c1.6-0.9,3.2-1.7,4.9-2.3c1.1-0.4,2.1-1.7,3.4-0.2c0.1,0.1,0.4,0.1,0.5,0  c3.2-1.3,6,0.6,9,1.1c1.2,0.2,2.4,0.9,3.7,0.1c0.3-0.2,1-0.1,1,0.5c-0.1,1.2,0.9,1.7,1.6,2.1c1.5,0.7,2.2,2.4,3.9,2.9  c0.2,0.1,0.4,0.3,0.5,0.6c0.9,3.4,3.6,6,4.3,9.5c0.3,1.4,0.6,2.9,0.9,4.3c0.3,1.1,0.1,2.4-0.6,3.5c-0.7,1.1-1.1,2.3-1.5,3.6  c-0.3,1-0.4,2-1.6,2.5c-0.6,0.2-1,1.2-0.8,1.5c0.9,1,0.3,1.5-0.3,2.4c-3.7,5.1-9.2,7.1-14.9,8.7C52.2,46.5,50.9,46.9,49.4,47z   M60.4,13.9c-0.7,0.3-1-0.3-1.3-0.6c-1-1.1-2.2-0.9-2.9,0c-1.1,1.4-2.6,1-4.1,1.3c1-0.8,1.8-1.5,0.1-2.2c-1.8-0.8-2.6-2.8-4.5-3.6  c-0.3-0.1-0.4-0.9-0.5-1.2c0.3-0.3,0.5-0.2,0.8-0.1c0.8,0.3,1.7,0.2,1.7-0.8c0-0.7-0.9-1.3-1.8-1.1c-0.8,0.2-1.6,0.5-2.4,0.8  C45,6.6,44.7,6.9,44.1,7c-3.6,0.2-6.5,1.6-8.7,4.5c-2.1,2.8-3.2,6.1-4.3,9.3c-2,5.5-0.6,10.5,1.8,15.4c0.7,1.3,1.9,2.3,3.5,2.9  c2.7,0.9,5.5,1.3,8.3,1.9c1.4,0.3,2.8,0.4,4.4,1.4c-4.8,0.4-8.8-1.6-13.5-2.1c2.4,2.8,5.7,2.8,8.2,4.3c0.1,0.1,0.4,0,0.5-0.1  c0.7-0.9,1.7-0.5,2.6-0.5c2.2,0,4.5-0.1,6.7-0.2c0.4,0,1,0,0.9-0.6c-0.1-0.3-0.6-0.5-0.9-0.8c1-1,3-0.3,3.4-2.2  c-1.2-0.5-2.4,0.7-3.9,0c1.5-0.9,3.2-0.7,4.3-1.7c1.2-1.1,1.1-2.7,1.4-4.3c-1.9,0-3.6,1-5.8,0.5c3.1-1,5.7-1.9,8.5-2.7  c1.5-0.4,2.2-1.2,2.3-2.7c0.1-1.1,0.4-2.2-0.1-3.3c-2.2,0.6-4,2.2-6.4,1.7c0.6-0.5,1.2-0.8,1.8-1c1.5-0.6,0.9-1.5,0.6-2.5  c-0.4-1.2-0.8-1.9-2.2-1.4c-1.5,0.6-3,1.1-4.7,1c0.2-0.6,0.6-0.5,0.9-0.6c1.3-0.6,2.9-0.8,4-1.7c0.7-0.6,1.2-1.1,2.3-1  c0.8,0.1,1.6-0.6,2.3-1c1.2-0.5-0.2-1.6,0.6-2.3c1.2,1.6,2.5,0.9,3.8,0.3c0.7-0.3,1.3-0.9,1.1-1.6c-0.3-0.8-0.5-2-1.7-2  c-0.7,0-1.4-0.1-2.2,0.4c-1.8,1.1-3.8,2.1-5.7,3c-1,0.5-2,1.3-3.8,1.4c3.1-2.7,6.7-3.5,9.4-5.8c-2.5-2.6-2.6-2.6-4.7-0.8  C59.2,12.7,60.5,12.9,60.4,13.9z M61.3,25.4c1.1-0.4,2.1-0.8,3-1.2c0.2-0.1,0.5-0.2,0.7-0.4c0.3-0.2,0.6-0.3,0.7-0.7  c0.2-1.5-1.7-3.1-3.1-2.6c-3,1-3.2,1.4-1.7,4.3C61,25,61.1,25.1,61.3,25.4z M68.4,17.9c-0.7,0.3-1.3,0.5-1.8,0.7  c-0.5,0.2-1.4,0.5-1.1,1.2c0.3,0.9,0.2,2.1,1.3,2.6c0.4,0.2,0.8,0,1.2-0.3C69.3,21.1,69.4,20.3,68.4,17.9z M59.4,37.2  c2.8,0.2,3.7-1.1,3.1-4.3C59.5,32.9,59.7,35.2,59.4,37.2z M68.2,30.6c-0.4,0.2-0.9,0.7-1.3,0.7c-2.6-0.3-2.7,1.9-3.4,3.4  c-0.2,0.3-0.1,0.9,0.4,1c0.2,0.1,2.7-1.4,2.7-1.6c-0.6-1.3-0.3-2,1.2-2.1C68.1,32,68.6,31.3,68.2,30.6z M68.1,29.1  c2-1.9,1.7-3.9,1.3-6.1C67.3,24.4,67.1,25.3,68.1,29.1z M66.7,26.1c0.1-0.6,0.1-1.1-0.6-1.2c-0.5-0.1-0.8,0.3-0.9,0.8  c-0.2,1.3-0.4,2.7-0.5,4c0,0.8,0.5,0.7,1.1,0.4c0.5-0.2,0.7-0.7,0.7-1.2C66.6,28,66.7,27.1,66.7,26.1z M52.2,10.8  c2.3,2.1,2.3,2.1,4.3,0.9C54.6,9.4,54.5,9.3,52.2,10.8z M59.6,9.7c-2-2.2-2-2.2-3.9-0.6C57.7,11,57.7,11,59.6,9.7z M50.9,7.8  c-0.5,0.2-1.3,0.3-1.1,1.1c0.2,0.7,1,0.9,1.7,0.9c0.6,0,1-0.4,0.9-1C52.4,7.9,51.6,7.8,50.9,7.8z M51.6,44.8c-2,0-3.6-0.4-5.3,0.2  C48,45.7,49.5,46.6,51.6,44.8z M54.4,7.8c0.4-0.2,1.2-0.2,1-0.9c-0.2-0.6-0.8-0.8-1.4-0.8c-0.4,0-1.1,0.2-1,0.8  C53.1,7.7,53.8,7.8,54.4,7.8z M59.1,7.2c0.7,0.7,1.2,1.6,2.6,1.2C61,7.3,60.2,6.9,59.1,7.2z M60.8,38.6c-1.1,0.4-1.9,0.5-2.4,1.6  C59.6,40.2,60.3,40,60.8,38.6z M52.4,5.2c-0.5,0-0.8-0.1-1-0.1c-0.4,0.1-1,0.1-0.5,0.7C51.4,6.4,51.9,5.9,52.4,5.2z M63.6,9.9  c-0.1,0.1-0.3,0.1-0.3,0.2c0,0.4,0.2,0.6,0.6,0.7c0.1,0,0.4,0,0.4,0C64.3,10.4,63.8,10.2,63.6,9.9z"></path></svg>