<?xml version="1.0" encoding="UTF-8" standalone="no"?>
<!-- Created with Inkscape (http://www.inkscape.org/) -->

<svg
   width="59.981102"
   height="59.981102"
   viewBox="0 0 15.87 15.87"
   version="1.1"
   id="svg1"
   xml:space="preserve"
   xmlns="http://www.w3.org/2000/svg"
   xmlns:svg="http://www.w3.org/2000/svg"><defs
     id="defs1" /><g
     id="layer8"
     style="display:inline"
     transform="translate(37.567556,1.0817886)"><g
       id="g19"
       transform="matrix(0.01135317,0,0,0.01135317,-36.57596,-0.22814814)"><path
         d="m 442.35,199.04 c 1.5352,40.395 -2.7148,96.945 47.766,107.86 22.938,4.9609 120.5,10.746 143.71,8.8359 88.629,-7.3477 199.25,23.293 175.09,-115.13 160.44,-43.062 166.7,85.418 169.51,202.65 2.9062,121.46 6.5898,253.8 5.4805,374.55 -0.54297,62.621 4.5117,126.09 5.1016,188.55 0.40234,43.441 11.527,138.12 -40.582,150.52 -32.789,7.7969 -45.758,17.008 -81.52,16.016 -30.543,-0.8516 -58.914,-4.582 -89.977,-3.8047 -110.81,2.7383 -269.5,0.7578 -374.24,10.582 -45.426,4.2539 -120.07,13.652 -136.13,-41.219 -22.18,-75.828 -10.301,-100.02 -4.6758,-175.49 11.316,-152.1 -30.59,-440.69 -19.535,-558.66 3.3086,-35.34 -19.016,-127.75 22.324,-149.36 50.906,-26.598 122.91,-2.2695 177.68,-15.898 z m 343.28,-21.992 c 6.1406,26.008 11.48,98.078 -19.629,111.57 -14.363,6.2109 -226.61,10.348 -270.31,0.30859 -37.914,-8.6914 -37.324,-70.062 -30.449,-98.41 8.8125,-36.402 81.023,-3.9688 95.102,-41.715 18.613,-49.82 -3.2617,-70.395 64.395,-77.055 58.324,-5.7383 84.543,-9.8047 81.141,53.953 -2.6211,48.781 50.148,18.875 79.746,51.355 z m 204.97,113.22 c -7.3477,-60.211 -36,-108.21 -99.73,-116.08 -29.574,-3.6367 -63.047,10.938 -87.094,-8.3633 -24.992,-20.078 -64.109,-30.094 -69.52,-36.379 -33.613,-38.836 34.348,-93.309 -122.95,-76.203 -108,11.738 -19.746,89.93 -110.53,98.574 -53.48,5.1016 -43.938,22.465 -77.551,30.805 -25.203,6.2617 -61.039,-5.1484 -92.27,-2.5273 -69.309,5.8359 -113.53,14.715 -110.84,95.41 2.1016,61.844 0.47266,126.88 2.6211,187.16 l 8.9297,317.79 c 2.1953,55.512 -2.9766,104.1 -3,156.85 0,26.41 5.1719,53.977 6.5664,80.621 1.4648,27.309 -3.0469,56.055 -1.0156,82.82 6.4492,85.395 211.37,54.922 270.09,52.203 104.27,-4.8203 233.05,-14.34 335.48,-3.8281 160.06,16.418 163.91,-29.34 164.27,-169.75 -1.9375,-157.89 -9.1875,-319.04 -9.3555,-478.98 0.21094,-60.402 2.8594,-152.81 -4.1094,-210.12 z"
         fill-rule="evenodd"
         id="path1-37" /><path
         d="m 397.65,437.74 c 7.9141,-7.7969 4.6289,-6.6367 11.457,-3.1641 -3.8984,7.7969 -2.4805,7.8672 -11.457,3.1641 z m 273.99,-6.2617 c 1.0859,-0.85156 5.0781,-4.7227 7.6523,-5.2695 14.883,-3.1172 3.5898,-0.89844 8.6211,2.1484 -6.3086,8.1719 -7.7227,8.0781 -16.277,3.1172 z m 97.418,-8.5039 c 12.613,-5.8828 6.0938,-2.2695 10.254,-0.42578 -5.9766,2.457 0.30859,5.0547 -10.254,0.42578 z m -49.441,5.3398 17.574,-9.7305 c -4.6992,10.512 -7.1562,15.496 -17.574,9.7305 z m 103.02,-11.363 c 5.8125,-4.3711 8.3633,-3.6133 17.031,-2.3398 9.1172,1.3477 9.1875,1.3711 12.566,7.0625 z m -325.49,15.117 2.9297,10.961 -64.844,-0.1875 c 2.5039,-6.0703 11.219,-9.6367 18.781,-14.008 14.527,24.805 22.676,-1.5117 61.086,-15.449 -3.9453,9.2617 -8.7891,13.723 -17.953,18.684 z m -118.37,6.9453 -16.277,-0.47266 c 7.582,-8.9297 26.766,-23.387 38.172,-26.789 -9.7305,20.504 -11.008,1.7227 -21.898,27.262 z m 264.5,-5.3398 c -19.699,-4.3945 -12.945,4.582 -24.332,-2.1953 l 43.914,-23.41 c -6.3086,15.613 -2.125,4.7734 -13.133,14.148 -11.172,9.5195 -3.1406,6.0469 -6.4492,11.457 z m -105.26,8.3164 -29.504,3.8984 c 9.875,-11.148 50.883,-38.551 66.211,-43.371 -14.055,20.789 -25.086,15.945 -36.707,39.473 z m -129.66,-47.953 c -1.7734,1.8203 -3.1875,4.1328 -6,4.9844 -16.984,5.1016 -3.5898,1.7734 -9.7578,-1.8672 1.8672,-1.3008 1.5117,-11.527 15.758,-3.1172 z m 348.38,24.164 c 3.0703,-6.6133 8.293,-10.652 13.844,-15.781 12.52,-11.527 3.3086,-5.668 10.254,-17.008 24.379,5.1484 55.277,-1.9141 81.07,-0.68359 -0.61328,28.961 -16.652,12.402 -27.707,10.441 -13.348,6.5195 -29.293,23.836 -39.449,21.781 13.109,-11.621 16.133,-4.2773 17.93,-19.582 -16.961,-7.1328 -38.691,17.055 -55.938,20.836 z m -77.293,-2.9531 c 1.3477,-15 29.93,-28.535 45.285,-28.371 -6.7812,9.5898 -33.023,22.488 -45.285,28.371 z m -250.04,11.93 c 5.4805,-10.914 21.309,-13.914 28.867,-23.691 l -7.9609,-9.9688 c -16.465,1.1328 -8.5977,6.2344 -19.891,0.92188 2.3164,-4.6289 -4.9375,-8.9766 28.844,-9.6602 14.836,-0.28516 21.875,1.6055 37.891,-0.1875 -6.2852,12.309 -53.387,38.883 -67.746,42.59 z m 269.6,-1.1797 c 5.293,-13.062 9.707,-12.805 21.52,-20.574 17.859,-11.789 8.7891,-5.0312 16.488,-20.527 l 30.613,1.0859 c -4.5352,9.8281 -55.016,36.309 -68.621,40.016 z m -78.758,-18.07 c 24.211,-23.598 29.41,-23.906 63.852,-22.891 -6.2109,7.8906 -31.016,18.426 -41.715,23.293 -16.156,7.3711 -30.73,19.652 -47.27,19.109 l -4.0391,1.3477 c 0.0703,0.11719 2.5039,4.7227 2.668,5.2695 2.668,8.5039 2.5977,-3.9453 -0.11719,5.1016 l -28.418,-1.3477 14.055,-11.363 c 6.3555,-3.8047 8.9766,-5.1719 15.211,-9.7812 25.535,-18.875 16.559,-10.086 25.773,-8.7383 z m -61.203,20.172 c 10.324,-16.203 36.117,-28.512 49.984,-43.891 l 18.332,0.99219 c -6.8281,9.9219 -54.023,37.582 -68.316,42.898 z m -49.109,-44.977 67.844,3.3555 c -5.5508,8.3633 -49.984,35.41 -62.219,41.363 7.0156,-12.707 29.457,-21.945 30.781,-36.449 -20.859,-2.5039 -27.426,13.348 -48.164,19.348 l 11.766,-27.613 z m -158.53,-7.1562 c 5.1016,15.707 13.582,10.746 23.125,18.07 l -19.891,12.309 c -9.6133,-14.27 1.8438,-8.0312 -10.559,-11.953 -7.5117,10.254 -10.559,37.535 -7.2773,50.504 18.969,17.078 242.17,13.938 276.57,6.0469 30.047,-6.8984 41.551,2.2695 66.285,-1.8672 71.977,-12.07 187.46,11.738 204.09,-11.387 0.30859,-0.92188 -0.26172,-49.062 -0.63672,-52.676 -13.301,-23.172 -20.457,-22.797 -44.883,-18.355 -24.73,4.4883 -45.805,0.30859 -70.039,0.42578 -49.277,0.26172 -97.605,-1.6289 -146.48,-1.4883 -22.203,0.0703 -51.094,2.5273 -71.883,1.4414 -11.387,-0.58984 -23.293,-3.3789 -34.488,-3.5664 l -100.04,8.1953 c -18.094,2.2188 -51.332,-4.6523 -63.898,4.3008 z"
         fill-rule="evenodd"
         id="path2-5" /><path
         d="m 622.13,809.32 c 4.3711,-8.6211 5.4102,-7.418 15.023,-12.234 10.938,6.9922 6.9922,2.0781 10.961,11.527 z m -50.883,-0.47266 c 7.1094,-6.5195 14.977,-8.8828 24.73,-10.961 l 6.3086,10.699 z m 87.613,0.49609 c 5.8594,-6.5898 23.172,-13.723 30.969,-14.977 l 6.1406,11.363 c -12.52,2.2695 -23.977,5.3633 -37.109,3.6133 z m 119.95,-4.2266 c 11.27,-18.285 22.324,-8.5039 22.395,-8.4805 -1.4648,2.5742 4.9844,9.0703 -22.395,8.4805 z m -55.156,-0.85156 c 5.5977,-10.039 8.6445,-9.7578 20.977,-15.262 l 5.7148,18.047 -26.691,-2.7891 z m 122.15,-18.379 c 11.242,5.0078 6.8047,8.1719 16.488,9.1406 8.5977,0.85156 6.5664,-4.4648 15.781,1.6055 -20.836,10.773 -30.141,7.8438 -53.055,4.4414 l 20.789,-15.188 z m 35.031,-20.715 c -0.37891,10.039 3.875,9.5195 -12.332,10.277 z m -56.93,15.566 c 4.2773,-7.4414 7.582,-7.7461 16.277,-11.551 -4.1094,8.5273 -7.1328,9.1875 -16.277,11.551 z m -459.66,-25.891 c 22.348,4.3477 38.078,6.6602 60.805,7.8203 -3.5195,7.2539 -21.969,21.758 -31.109,23.977 3.1406,-10.938 6.707,-14.691 -6.3555,-20.812 -11.219,6.2344 -8.1016,17.668 -21,23.766 l -2.3398,-34.746 z m 69,24.875 c 19.418,-15.805 3.0938,-9.2109 7.2773,-23.031 l 83.691,0.26172 c -7.2031,13.254 -55.324,42.262 -72.402,47.504 11.738,-21.023 40.773,-17.906 26.242,-38.977 -22.699,-1.3008 -34.559,27.684 -66.875,34.891 6.6367,-12.332 11.148,-11.738 22.062,-20.645 z m 67.156,22.203 c 2.3867,-10.133 23.645,-20.953 33.309,-27.758 12.117,-8.5508 25.699,-21.59 38.125,-14.789 -32.789,15.566 -29.031,35.008 -71.434,42.543 z m 264.68,-12 c 5.7656,-33.496 35.766,-35.27 63.781,-37.418 -8.9766,11.316 -46.676,35.457 -63.781,37.418 z m -60.945,-1.0391 c 0.75781,-12.262 15.332,-18.473 25.773,-24.707 18.496,-11.008 14.621,-13.605 38.812,-12.426 -9.1406,13.867 -47.293,36.805 -64.582,37.133 z m -45.898,0.28516 c 7.0391,-17.27 32.953,-33.141 52.867,-36.094 -12.566,17.195 -29.219,31.746 -52.867,36.094 z m -64.156,-35.031 c 26.078,-5.2695 48.355,0.47266 74.102,-0.21094 -4.9141,10.156 -41.738,35.387 -54.355,37.699 3.5195,-14.316 18.094,-16.348 30.094,-26.125 -17.883,-25.203 -46.062,23.859 -84.852,28.18 5.7656,-7.7734 28.039,-20.008 38.457,-25.676 l -3.4492,-13.867 z m 250.65,-2.9062 c 10.277,-1.2773 9.3555,-2.0781 17.906,1.6758 -2.9531,3.4727 -0.23438,0.75781 -4.7461,5.1016 -1.2031,1.1562 -3.5664,2.8828 -5.293,4.3477 z m -501.83,-8.3867 c 20.812,35.738 -2.9766,64.559 8.5273,77.527 10.277,11.598 56.93,1.6758 73.488,2.2188 27.805,0.875 60.637,-0.78125 88.582,-2.7656 30.66,-2.1719 144.07,5.3398 173.57,1.2773 34.156,-4.6758 52.465,0.99219 79.629,-1.4883 66.449,-6.0234 123.83,9.0469 144.66,-16.723 l -12.379,-19.301 c 5.3398,-7.8906 27.188,-10.82 9.1172,-22.961 -5.5977,-3.7578 -8.5977,-1.4414 -14.977,-7.7969 -9.7305,-9.707 18.141,-19.82 -72.52,-12.473 -20.008,1.6289 -45.047,-5.6445 -67.914,-5.457 -21.637,0.1875 -45.73,6.1172 -68.457,4.9609 -22.629,-1.1562 -49.938,-3.1406 -72.023,-2.8359 -56.316,0.75781 -32.551,11.148 -140.48,4.2539 -24.59,-1.582 -44.219,6.1875 -68.551,5.8125 -25.582,-0.40234 -40.227,-13.652 -60.285,-4.2539 z"
         fill-rule="evenodd"
         id="path3-92" /><path
         d="m 743.5,993.23 c 5.7656,-3.3086 -0.75781,-5.9766 8.5742,-0.28516 -9.1875,5.668 -3.8516,2.8594 -8.5742,0.28516 z m -43.277,-3.1172 c 0,-1.1797 2.2695,-5.2422 3.8281,0.47266 1.3242,4.9141 -3.8516,3.4258 -3.8281,-0.47266 z m -57.66,3.6133 c 4.1562,-6 -1.8203,-2.3164 9.6133,-7.6758 0.28516,-0.11719 9.2617,-3.4961 9.3789,-3.5195 11.812,-2.8125 9.0703,0.42578 10.156,11.668 z m 228.71,-3.4727 c 5.9297,-5.3398 -8.6211,-1.6758 7.0156,-6.5898 -5.5508,15.426 -1.2773,5.3398 -7.0156,6.5898 z m -36.781,-0.14062 c 7.1328,-8.2188 14.953,-14.434 17.078,0.78125 z m -321.68,-13.535 c 9.1406,10.535 10.156,17.008 24.355,10.582 3.1641,-1.4414 23.316,-13.227 25.797,-15.047 9.2109,8.5273 5.6211,8.6211 18.164,17.172 8.9062,-4.6758 23.48,-13.676 36.945,-14.504 l -4.8438,18.59 c -30.898,3.0938 -196.82,4.6758 -213.45,-6.875 l 22.109,-11.434 c 24.758,17.27 20.766,7.3477 47.551,-2.125 11.102,8.5273 5.3398,15.023 20.41,13.488 9.2109,-0.94531 11.859,-6.7305 22.961,-9.8516 z m -153.31,13.418 c -5.0312,-8.5039 0.85156,-28.465 9.3789,-34.512 5.2695,10.441 0.80469,3.6133 -3.8281,15.047 -4.6992,11.527 1.582,10.938 -5.5508,19.465 z m 134.24,-24.211 c 1.3711,-3.1641 -1.0156,-7.2031 10.203,-9.8047 16.395,-3.8281 9.2109,1.2266 12.023,3.6836 l -22.227,6.1172 z m -48.164,-3.7578 c 7.418,-7.6523 11.812,-6.4727 22.582,-6.0703 -1.8438,2.1016 -0.68359,1.8906 -4.3945,4.3711 -16.723,11.125 -18.047,1.7734 -18.188,1.6992 z m -61.559,16.062 c 3.3789,-8.5742 8.4102,-11.836 1.7969,-21.805 l 36.684,-0.78125 c -8.125,10.277 -24.566,21.355 -38.48,22.582 z m 149.57,-10.938 c 15.211,-9 21.73,-15.211 40.18,-13.629 -4.9609,4.1562 -11.574,6.9688 -18.758,10.699 -27.023,14.102 -18,5.6445 -21.426,2.9297 z m 284.08,17.434 c 7.9141,-15.496 26.363,-20.645 37.746,-38.766 l 20.668,1.8906 c 5.6445,9.5664 6.4258,17.645 -3.8281,22.441 4.8203,-12.094 6.2617,-4.582 -0.73047,-14.527 -10.109,-6.9688 -25.133,22.277 -53.859,28.961 z m -235.94,-10.512 c 3.332,-21.426 43.465,-25.324 61.441,-23.738 -5.9297,11.715 -46.914,23.883 -61.441,23.738 z m 186.38,18.945 c 5.9531,-24.355 28.277,-26.859 43.488,-46.418 l 28.605,-0.94531 c -7.1797,9.6367 -18.543,11.078 -31.582,28.348 -8.7891,11.668 -25.676,17.859 -40.512,19.016 z M 719,992.47501 c 11.363,-25.891 40.723,-17.27 52.133,-46.961 l 21.684,1.1562 c -3.2852,5.1719 -51.969,43.227 -73.82,45.805 z m -29.434,-11.148 c 3.5664,-11.078 9.543,-12.969 19.938,-18.945 29.219,-16.82 -16.418,-16.629 46.891,-16.488 -7.1562,15.543 -49.133,33.992 -66.828,35.434 z m -59.293,2.9531 c 5.8359,-28.016 50.766,-38.125 76.605,-38.738 -8.5273,13.039 -60.426,37.652 -76.605,38.738 z m 281.46,17.92999 c 1.1328,-18.96899 -6,-22.41799 -12.285,-37.25399 -7.8203,-18.449 -2.0781,-22.348 -5.7891,-34.395 -25.699,-6.2617 -112.3,-0.1875 -143.84,1.0156 -23.621,0.89844 -51.52,-2.1719 -68.812,-1.8906 -7.2773,0.14062 -18.355,6.543 -28.938,7.3945 -30.805,2.4805 -9.4258,-4.1797 -26.953,-8.5742 -35.363,8.9297 -82.18,24.117 -115.96,3.6367 -40.016,18.898 -45.023,8.125 -87.164,9.2344 -19.371,0.51953 -79.652,-5.8828 -89.34,0.54297 l 18.188,11.27 -11.621,54.16402 c 26.172,11.93 534.29,7.2773 572.5,-5.1484 z"
         fill-rule="evenodd"
         id="path4-2" /><path
         d="m 447.66,603.14 c 7.3477,-7.7227 7.1094,-8.5039 13.961,-0.0234 -7.3945,3.8047 -6.9922,3.6602 -13.961,0.0234 z m 276.59,-21.945 8.3633,2.293 c -14.977,15.262 -17.789,19.203 -40.062,17.34 10.133,-9.8984 21.141,-8.7891 31.699,-19.629 z m -193.51,-11.906 25.371,-0.37891 c -5.5977,7.3711 -19.395,13.039 -30.426,14.055 z m -39.496,15.141 c 3.0938,-8.8359 1.7461,-8.5273 -1.0625,-16.773 l 26.031,0.37891 c -4.9609,8.1719 -16.512,14.293 -24.969,16.395 z m 285.14,8.9297 16.395,-15.332 c -1.4414,-11.27 1.5117,-3 -5.7148,-12.805 22.086,-4.7461 47.668,-3.543 70.559,-1.5586 l 3.875,11.715 -14.715,6.1875 c -2.457,1.2773 -6.6602,4.2773 -9.4492,6.1875 -10.559,7.2773 -11.363,9.1641 -24.922,9.7578 7.6289,-11.387 11.242,-6.332 15.117,-19.227 l -3.9922,-5.6211 c -16.109,-1.3242 -31.395,15.922 -47.148,20.691 z m 5.1719,-29.953 c -3.7305,9.8281 -18.59,16.891 -29.387,20.457 2.3164,-8.6914 6.6367,-10.254 12.992,-18.898 z m -200.43,17.242 c -4.4648,-6.4023 3.1641,-0.56641 -3.9922,-7.8672 l -9.3789,-6.543 35.27,-0.16406 c -2.3164,3.4023 0.0937,1.3711 -4.1562,4.7969 l -17.738,9.7812 z m -221.69,-17.504 119.64,4.4648 c -7.582,10.301 -14.316,10.559 -26.195,17.172 -9.8984,-10.18 -11.457,-15 -28.441,-2.9297 l -12.07,-11.598 c -8.7383,1.3008 -16.395,6.8984 -24.566,11.34 -11.598,6.3086 -16.18,4.0391 -28.535,9.8047 z m 364.82,18.047 c -21.07,6.6367 -16.418,10.086 -42,10.301 0.30859,10.938 -2.5742,2.5508 4.8438,10.535 l -208.91,7.9141 c 5.1016,-7.4883 8.3633,-7.3477 16.723,-11.93 18.285,-10.062 8.5039,-2.6445 23.977,-1.9844 17.172,0.73047 23.102,-13.699 43.465,-13.395 l 4.4414,12.473 c 30.141,-4.8672 14.195,-12.164 35.387,-19.133 -8.6445,17.906 -12.992,0.49609 -11.434,22.348 24.234,1.9375 28.699,-21.613 52.465,-22.891 l -13.652,11.434 c 17.242,24.805 52.844,-22.016 80.977,-22.938 l -12.828,12.922 c 16.18,-1.3711 9.8281,-15.402 46.156,-12.684 -7.6289,10.961 -11.102,7.7734 -19.605,17.031 z m -384.61,-37.676 c 1.0156,12.922 -0.21094,10.582 11.93,17.031 -8.7383,14.766 -6.1172,7.7461 -9.1406,27.66 -9.3086,61.465 5.5039,32.363 133.39,38.836 83.574,4.2266 196.94,-9.9219 276.9,-11.598 25.797,-0.51953 119.29,2.7148 136.46,-6.3789 3.9688,-20.93 -5.5508,-19.348 -9.3789,-37.348 -4.0391,-18.875 -5.1719,-12.992 -14.457,-30.234 -41.645,4.5117 -87.922,11.148 -129.33,7.5352 l -131.62,2.0781 c -42,3.4023 -93.285,2.2695 -135.78,1.6992 -13.254,-0.1875 -16.746,-3.1172 -30.969,-2.5508 -81.332,3.2344 -65.645,-4.6289 -98.008,-6.7305 z"
         fill-rule="evenodd"
         id="path5-89" /><path
         d="m 598.28,118.04 c 27.188,-13.133 30.309,-12.047 60.07,-6.9453 0.68359,20.551 2.4336,21.094 -3.5898,41.883 l -48.449,2.8125 c -16.867,-19.535 -13.488,-16.559 -8.0312,-37.746 z m 70.277,54.234 c 8.1719,-12.449 15.117,-64.773 2.2188,-77.078 -13.133,-12.543 -67.109,-5.8125 -81.402,4.4883 -13.086,9.4492 -7.7734,17.551 -11.574,32.055 -2.1484,8.1484 -5.4336,32.102 0.11719,37.277 l 90.637,3.2617 z"
         fill-rule="evenodd"
         id="path6-73" /><path
         d="m 674.77,259.44 c -1.3242,-10.254 -2.7383,-7.582 6.5195,-10.254 z m 57.543,-67.109 c 4.2773,12.379 6.9453,4.3711 12.59,17.621 -0.82813,0.40234 -2.1484,-0.16406 -2.6445,0.85156 -0.51953,1.0391 -1.9844,0.63672 -2.6914,0.75781 l -16.797,0.37891 c -12.141,-1.0859 -11.102,-4.3945 -18.66,1.582 5.9062,15.355 22.203,9.8516 38.242,10.418 l -7.7969,33.426 -44.836,1.1328 c 3.8281,-22.938 10.062,-9.0703 21.898,-23.621 -7.8438,-4.4414 -15.309,-3.6602 -24.922,-0.21094 -9.6836,-10.441 2.1953,-7.3008 -11.906,-12.188 -9.1875,9.2344 -1.4414,7.9141 -9.6602,14.883 -9.3086,7.9141 -9.1641,-1.0859 -18.262,9.9922 6.1172,9.0703 2.3398,5.2188 15.164,6.5195 l 3,17.645 c 23.551,6.4492 12.07,1.5117 31.844,-2.0781 20.41,-3.707 18.332,3.2617 33.758,5.0312 26.812,-19.82 16.062,-41.434 33.922,-58.18 -14.977,-12.73 -0.26172,-12.637 -8.2188,-26.055 -6.0234,-10.109 -18.164,-6.8984 -24.023,2.1016 z"
         fill-rule="evenodd"
         id="path7-61" /><path
         d="m 950.39,1102.5 c 3.543,9.707 2.0547,9.1875 11.316,3 -5.668,-6.3789 -3.707,-7.0391 -11.316,-3 z"
         fill-rule="evenodd"
         id="path8-29" /></g></g></svg>
