<?xml version="1.0" encoding="UTF-8" standalone="no"?>
<!-- Created with Inkscape (http://www.inkscape.org/) -->

<svg
   width="59.981102"
   height="59.981102"
   viewBox="0 0 15.87 15.87"
   version="1.1"
   id="svg1"
   xml:space="preserve"
   xmlns="http://www.w3.org/2000/svg"
   xmlns:svg="http://www.w3.org/2000/svg"><defs
     id="defs1" /><g
     id="layer12"
     style="display:inline"
     transform="translate(-18.914873,-0.41723878)"><g
       fill-rule="evenodd"
       id="g22"
       transform="matrix(0.01232039,0,0,0.01232039,19.419681,1.0266565)"><path
         d="m 937.8,956.69 c 9.4492,-7.0859 2.3633,-9.4492 14.172,-9.4492 -4.7227,4.7227 -9.4492,18.898 -16.535,21.262 z M 616.54,252.75 c 7.0859,-4.7227 11.812,-4.7227 18.898,-2.3633 v 7.0859 z m -63.781,-7.0859 c -37.797,-4.7227 -92.125,-82.676 -56.691,-146.46 4.7227,-7.0859 0,-9.4492 7.0859,-16.535 2.3633,-4.7227 7.0859,-9.4492 11.812,-14.172 9.4492,-7.0859 7.0859,-4.7227 14.172,-7.0859 25.984,-14.172 80.316,-42.52 108.66,-21.262 9.4492,9.4492 14.172,4.7227 30.707,18.898 18.898,16.535 35.434,35.434 42.52,59.055 7.0859,28.348 0,30.707 0,42.52 0,16.535 2.3633,4.7227 -2.3633,21.262 -2.3633,7.0859 -2.3633,11.812 -7.0859,18.898 -21.262,37.797 -18.898,25.984 -37.797,37.797 -7.0859,7.0859 0,4.7227 -9.4492,11.812 -4.7227,-11.812 -7.0859,-25.984 -9.4492,-37.797 -16.535,-2.3633 -44.883,-9.4492 -61.418,-7.0859 -16.535,2.3633 -14.172,4.7227 -21.262,14.172 -7.0859,9.4492 -4.7227,0 -7.0859,11.812 -2.3633,7.0859 0,7.0859 -2.3633,14.172 z m 385.04,711.02 c -14.172,14.172 -2.3633,7.0859 -28.348,14.172 -11.812,2.3633 -21.262,0 -23.621,11.812 14.172,0 25.984,-7.0859 40.156,-7.0859 -2.3633,4.7227 -2.3633,7.0859 -4.7227,11.812 -4.7227,16.535 -11.812,14.172 -21.262,23.621 -4.7227,4.7227 2.3633,2.3633 -7.0859,9.4492 -4.7227,2.3633 -9.4492,0 -14.172,7.0859 -2.3633,4.7227 0,7.0859 -4.7227,11.812 0,0 -18.898,16.535 -21.262,18.898 -30.707,21.262 -37.797,35.434 -77.953,37.797 -14.172,2.3633 -28.348,-2.3633 -28.348,14.172 7.0859,0 7.0859,0 14.172,-2.3633 4.7227,-2.3633 11.812,-4.7227 16.535,-2.3633 -7.0859,9.4492 -21.262,14.172 -30.707,14.172 -14.172,4.7227 -28.348,-9.4492 -33.07,2.3633 2.3633,7.0859 9.4492,4.7227 18.898,4.7227 -9.4492,11.812 -14.172,4.7227 -21.262,4.7227 -16.535,-2.3633 -35.434,4.7227 -51.969,2.3633 -11.812,0 -16.535,-4.7227 -18.898,7.0859 l 23.621,2.3633 c -2.3633,4.7227 2.3633,2.3633 -7.0859,4.7227 -11.812,2.3633 -23.621,0 -33.07,0 -33.07,0 -25.984,2.3633 -40.156,2.3633 -21.262,2.3633 -63.781,-2.3633 -85.039,-7.0859 -28.348,-7.0859 -23.621,-9.4492 -35.434,-11.812 -14.172,-4.7227 -25.984,-9.4492 -35.434,-14.172 -23.621,-4.7227 -44.883,-18.898 -63.781,-33.07 -9.4492,-7.0859 -18.898,-9.4492 -28.348,-18.898 -49.605,-47.242 -49.605,-42.52 -89.766,-101.57 -4.7227,-9.4492 -14.172,-16.535 -21.262,-28.348 -4.7227,-11.812 -21.262,-59.055 -28.348,-63.781 l 4.7227,21.262 c -23.621,-18.898 -37.797,-141.73 -35.434,-177.16 0,-14.172 2.3633,-33.07 9.4492,-44.883 7.0859,-16.535 0,-85.039 28.348,-129.92 7.0859,-14.172 16.535,-35.434 23.621,-44.883 4.7227,-7.0859 2.3633,-2.3633 7.0859,-7.0859 2.3633,-2.3633 7.0859,-7.0859 9.4492,-9.4492 23.621,-33.07 51.969,-63.781 87.402,-87.402 7.0859,-4.7227 11.812,-11.812 18.898,-16.535 14.172,-9.4492 11.812,4.7227 21.262,-9.4492 4.7227,-4.7227 0,-4.7227 7.0859,-7.0859 4.7227,0 2.3633,2.3633 11.812,-2.3633 21.262,-9.4492 42.52,-23.621 70.867,-35.434 18.898,-7.0859 40.156,-7.0859 56.691,-14.172 33.07,-9.4492 87.402,-11.812 122.84,-7.0859 -7.0859,2.3633 -11.812,2.3633 -14.172,9.4492 7.0859,4.7227 14.172,0 23.621,-2.3633 11.812,-7.0859 14.172,-2.3633 25.984,-2.3633 -4.7227,4.7227 -7.0859,2.3633 -11.812,4.7227 -11.812,4.7227 -7.0859,2.3633 -9.4492,9.4492 14.172,4.7227 37.797,-23.621 75.59,2.3633 -9.4492,-2.3633 -40.156,-4.7227 -44.883,7.0859 7.0859,4.7227 21.262,0 33.07,0 -9.4492,4.7227 -9.4492,0 -11.812,11.812 7.0859,0 25.984,-7.0859 42.52,-4.7227 l 2.3633,-7.0859 c 9.4492,2.3633 21.262,9.4492 28.348,9.4492 h 2.3633 c -7.0859,-23.621 -125.2,-44.883 -146.46,-47.242 l -2.3633,-2.3633 c -2.3633,-7.0859 -16.535,-7.0859 -25.984,-9.4492 l -2.3633,9.4492 h -2.3633 l -42.52,2.3633 c 4.7227,-14.172 11.812,2.3633 7.0859,-16.535 -4.7227,-25.984 -4.7227,-51.969 28.348,-51.969 l -2.3633,9.4492 c 9.4492,2.3633 9.4492,7.0859 18.898,4.7227 7.0859,0 11.812,-2.3633 18.898,0 -2.3633,11.812 -18.898,2.3633 -33.07,16.535 9.4492,18.898 37.797,0 35.434,16.535 -7.0859,-2.3633 -23.621,-4.7227 -28.348,4.7227 7.0859,4.7227 23.621,2.3633 30.707,0 l 4.7227,14.172 c 18.898,0 7.0859,-11.812 11.812,-28.348 l 14.172,-2.3633 c 9.4492,-4.7227 16.535,-11.812 23.621,-16.535 37.797,-30.707 49.605,-80.316 40.156,-127.56 -7.0859,-30.707 -23.621,-47.242 -49.605,-63.781 -18.898,-9.4492 -14.172,-11.812 -37.797,-18.898 -44.883,-16.535 -54.332,-11.812 -92.125,0 -18.898,4.7227 -23.621,11.812 -35.434,23.621 -21.262,23.621 -37.797,33.07 -44.883,68.504 -7.0859,49.605 9.4492,89.766 44.883,122.84 7.0859,4.7227 28.348,9.4492 37.797,16.535 v 33.07 c -14.172,2.3633 -28.348,2.3633 -44.883,7.0859 -37.797,9.4492 -77.953,21.262 -113.39,37.797 -25.984,11.812 -40.156,18.898 -59.055,40.156 -11.812,7.0859 -21.262,11.812 -30.707,21.262 -16.535,16.535 -33.07,30.707 -49.605,49.605 -11.812,11.812 -28.348,21.262 -35.434,37.797 l -11.812,16.535 c -28.348,23.621 -54.332,155.91 -54.332,193.7 2.3633,33.07 0,63.781 9.4492,94.488 7.0859,23.621 7.0859,54.332 18.898,82.676 16.535,44.883 44.883,85.039 75.59,125.2 28.348,37.797 61.418,70.867 103.94,96.852 47.242,30.707 172.44,73.227 233.86,61.418 40.156,-9.4492 82.676,2.3633 108.66,-14.172 h 2.3633 c 4.7227,-4.7227 11.812,-4.7227 18.898,-7.0859 42.52,-9.4492 25.984,-7.0859 44.883,-18.898 59.055,-30.707 118.11,-75.59 160.63,-127.56 2.3633,-2.3633 7.0859,-9.4492 9.4492,-14.172 9.4492,-7.0859 4.7227,2.3633 11.812,-11.812 l 35.434,-68.504 c 16.535,-30.707 23.621,-80.316 30.707,-115.75 11.812,-42.52 0,-94.488 0,-137.01 0,-2.3633 2.3633,-9.4492 2.3633,-11.812 -2.3633,-16.535 0,0 -4.7227,-7.0859 -7.0859,-9.4492 -2.3633,-7.0859 -4.7227,-18.898 0,-9.4492 -18.898,-66.141 -25.984,-73.227 -14.172,-18.898 -21.262,-42.52 -33.07,-66.141 l -23.621,-28.348 c -9.4492,-11.812 -16.535,-11.812 -25.984,-23.621 -16.535,-18.898 -30.707,-35.434 -51.969,-47.242 -11.812,-7.0859 -51.969,-33.07 -63.781,-33.07 -2.3633,16.535 21.262,9.4492 37.797,23.621 -21.262,0 -21.262,-2.3633 -37.797,-7.0859 -9.4492,-2.3633 -30.707,-4.7227 -30.707,7.0859 7.0859,4.7227 21.262,0 30.707,0 -7.0859,7.0859 -7.0859,2.3633 -9.4492,11.812 11.812,0 16.535,-4.7227 28.348,-4.7227 l 25.984,2.3633 c 9.4492,0 28.348,16.535 33.07,23.621 l -16.535,-4.7227 c 2.3633,-7.0859 4.7227,2.3633 2.3633,-7.0859 -11.812,-4.7227 -37.797,-14.172 -44.883,0 4.7227,2.3633 30.707,4.7227 37.797,4.7227 -9.4492,7.0859 -14.172,2.3633 -16.535,11.812 7.0859,2.3633 16.535,-4.7227 30.707,0 2.3633,0 21.262,7.0859 23.621,9.4492 -7.0859,2.3633 -21.262,-4.7227 -25.984,9.4492 h 4.7227 c 18.898,2.3633 33.07,-7.0859 44.883,14.172 -11.812,-2.3633 -25.984,-9.4492 -30.707,2.3633 l 11.812,2.3633 c 9.4492,2.3633 23.621,0 28.348,9.4492 -9.4492,-2.3633 -28.348,-7.0859 -33.07,4.7227 11.812,9.4492 37.797,-11.812 49.605,11.812 -18.898,2.3633 -30.707,-4.7227 -33.07,9.4492 21.262,0 40.156,-9.4492 49.605,14.172 -14.172,0 -42.52,-2.3633 -42.52,14.172 11.812,0 18.898,-9.4492 37.797,-7.0859 14.172,2.3633 14.172,7.0859 18.898,16.535 7.0859,16.535 28.348,37.797 33.07,68.504 -14.172,-2.3633 -40.156,-18.898 -44.883,-2.3633 18.898,9.4492 40.156,-7.0859 47.242,25.984 -9.4492,-4.7227 -40.156,-11.812 -42.52,2.3633 l 47.242,2.3633 c 4.7227,23.621 7.0859,37.797 7.0859,59.055 -11.812,2.3633 -37.797,-9.4492 -47.242,4.7227 4.7227,7.0859 18.898,0 44.883,2.3633 v 14.172 c -21.262,0 -25.984,-7.0859 -28.348,4.7227 4.7227,4.7227 16.535,2.3633 23.621,2.3633 l 2.3633,2.3633 v 2.3633 l 2.3633,4.7227 c 4.7227,7.0859 4.7227,14.172 2.3633,23.621 -9.4492,-2.3633 -18.898,-2.3633 -25.984,-2.3633 -11.812,-2.3633 -9.4492,-4.7227 -16.535,-7.0859 -2.3633,-18.898 -7.0859,-21.262 -7.0859,-42.52 0,-68.504 -68.504,-191.34 -113.39,-233.86 -30.707,-28.348 -82.676,-61.418 -122.84,-75.59 -49.605,-16.535 -127.56,-23.621 -177.16,-14.172 -40.156,7.0859 -80.316,16.535 -115.75,35.434 -21.262,9.4492 -23.621,9.4492 -35.434,14.172 -4.7227,2.3633 -25.984,14.172 -30.707,18.898 -11.812,7.0859 -18.898,14.172 -28.348,21.262 -37.797,37.797 -61.418,63.781 -85.039,113.39 -40.156,75.59 -47.242,115.75 -40.156,203.15 2.3633,21.262 9.4492,16.535 0,37.797 7.0859,11.812 7.0859,-2.3633 11.812,21.262 2.3633,7.0859 2.3633,16.535 4.7227,25.984 2.3633,7.0859 7.0859,16.535 9.4492,21.262 4.7227,9.4492 7.0859,11.812 11.812,18.898 11.812,33.07 14.172,56.691 40.156,82.676 21.262,21.262 37.797,42.52 63.781,63.781 14.172,11.812 33.07,18.898 47.242,30.707 l 4.7227,2.3633 c 2.3633,2.3633 0,2.3633 4.7227,2.3633 14.172,4.7227 11.812,0 9.4492,11.812 11.812,0 7.0859,-4.7227 18.898,0 7.0859,2.3633 11.812,7.0859 18.898,7.0859 11.812,4.7227 113.39,25.984 125.2,18.898 -14.172,-4.7227 -25.984,-2.3633 -42.52,-9.4492 -4.7227,-2.3633 -7.0859,-4.7227 -11.812,-4.7227 -4.7227,0 -7.0859,4.7227 -16.535,-2.3633 l 14.172,-2.3633 c -9.4492,-16.535 -33.07,-9.4492 -47.242,-9.4492 -9.4492,0 -4.7227,0 -14.172,-2.3633 4.7227,9.4492 4.7227,0 9.4492,11.812 -7.0859,-2.3633 -11.812,-2.3633 -16.535,-7.0859 9.4492,-14.172 33.07,-11.812 40.156,-18.898 -16.535,-9.4492 -37.797,11.812 -54.332,11.812 7.0859,-4.7227 4.7227,0 9.4492,-4.7227 -11.812,-9.4492 -11.812,2.3633 -25.984,-2.3633 l 9.4492,-7.0859 c 7.0859,-2.3633 7.0859,0 14.172,-4.7227 -11.812,-7.0859 -30.707,2.3633 -44.883,0 9.4492,-11.812 23.621,-2.3633 25.984,-14.172 -11.812,-4.7227 -40.156,2.3633 -51.969,0 l -2.3633,-7.0859 c -16.535,-4.7227 -4.7227,2.3633 -21.262,-9.4492 9.4492,-4.7227 7.0859,0 11.812,-7.0859 -21.262,0 -16.535,7.0859 -35.434,-14.172 0,-9.4492 4.7227,0 2.3633,-9.4492 l -14.172,-2.3633 c 4.7227,-14.172 7.0859,-2.3633 14.172,-14.172 -9.4492,-4.7227 -4.7227,0 -7.0859,0 -7.0859,0 -9.4492,4.7227 -14.172,7.0859 l -16.535,-18.898 7.0859,-16.535 c -4.7227,0 -2.3633,-2.3633 -7.0859,4.7227 l -4.7227,4.7227 -14.172,-16.535 c 2.3633,-9.4492 2.3633,-4.7227 4.7227,-14.172 -9.4492,-2.3633 -4.7227,-4.7227 -9.4492,7.0859 0,-7.0859 7.0859,-14.172 9.4492,-21.262 -11.812,-2.3633 -7.0859,2.3633 -14.172,9.4492 -4.7227,-9.4492 -7.0859,-9.4492 -2.3633,-16.535 l 9.4492,-14.172 c -9.4492,-2.3633 -9.4492,0 -18.898,0 l 9.4492,-11.812 c -4.7227,-2.3633 -7.0859,0 -11.812,-2.3633 l 4.7227,-14.172 c -11.812,2.3633 -4.7227,7.0859 -14.172,2.3633 0,-7.0859 4.7227,-9.4492 7.0859,-18.898 -14.172,0 -2.3633,2.3633 -11.812,7.0859 -7.0859,-21.262 -9.4492,-9.4492 4.7227,-25.984 l -7.0859,-2.3633 -7.0859,2.3633 c 4.7227,-25.984 -4.7227,-9.4492 -4.7227,-30.707 9.4492,-7.0859 7.0859,-2.3633 14.172,-7.0859 -9.4492,-4.7227 -7.0859,2.3633 -16.535,-2.3633 2.3633,-18.898 9.4492,0 14.172,-11.812 -4.7227,-7.0859 -4.7227,-2.3633 -11.812,-2.3633 -2.3633,0 -2.3633,0 -2.3633,-2.3633 0,0 0,2.3633 -2.3633,0 4.7227,-9.4492 2.3633,-2.3633 11.812,-9.4492 -7.0859,-7.0859 -4.7227,0 -11.812,-2.3633 l -2.3633,-14.172 c 9.4492,-4.7227 7.0859,0 11.812,-7.0859 -4.7227,-2.3633 -4.7227,0 -7.0859,-2.3633 -4.7227,-2.3633 -2.3633,0 -4.7227,-2.3633 2.3633,-18.898 9.4492,-7.0859 18.898,-18.898 h -9.4492 c -2.3633,0 -7.0859,2.3633 -9.4492,4.7227 -2.3633,-14.172 -4.7227,-9.4492 -2.3633,-25.984 2.3633,-14.172 7.0859,-70.867 18.898,-75.59 h 2.3633 c 2.3633,-2.3633 4.7227,-2.3633 7.0859,-4.7227 4.7227,-2.3633 4.7227,-2.3633 9.4492,-4.7227 14.172,-9.4492 16.535,2.3633 18.898,-9.4492 -16.535,-7.0859 -23.621,7.0859 -37.797,11.812 4.7227,-16.535 9.4492,-18.898 23.621,-28.348 16.535,-7.0859 33.07,-4.7227 35.434,-7.0859 -4.7227,-16.535 -35.434,2.3633 -47.242,7.0859 2.3633,-9.4492 14.172,-28.348 18.898,-37.797 28.348,-44.883 11.812,-23.621 33.07,-33.07 4.7227,-2.3633 7.0859,-4.7227 11.812,-7.0859 9.4492,-2.3633 25.984,-4.7227 30.707,-7.0859 -14.172,-11.812 -37.797,4.7227 -49.605,11.812 2.3633,-7.0859 2.3633,-9.4492 9.4492,-14.172 7.0859,-7.0859 4.7227,0 7.0859,-14.172 14.172,4.7227 14.172,0 28.348,-4.7227 7.0859,-2.3633 16.535,0 23.621,-4.7227 -11.812,-9.4492 -30.707,0 -42.52,4.7227 4.7227,-7.0859 7.0859,-9.4492 14.172,-14.172 7.0859,-2.3633 7.0859,-7.0859 14.172,-9.4492 7.0859,-4.7227 7.0859,0 16.535,-7.0859 7.0859,-7.0859 7.0859,-7.0859 18.898,-7.0859 v -2.3633 l 4.7227,-4.7227 c 11.812,-7.0859 35.434,-11.812 44.883,-14.172 -4.7227,-7.0859 -4.7227,-7.0859 -14.172,-7.0859 9.4492,0 16.535,0 21.262,-2.3633 -7.0859,-7.0859 -7.0859,-2.3633 -14.172,-4.7227 9.4492,-9.4492 25.984,-4.7227 37.797,-9.4492 -2.3633,-7.0859 2.3633,-4.7227 -7.0859,-2.3633 9.4492,-9.4492 23.621,-11.812 35.434,-14.172 11.812,-2.3633 18.898,-7.0859 33.07,-11.812 28.348,-4.7227 99.211,-11.812 129.92,-2.3633 21.262,7.0859 51.969,4.7227 77.953,18.898 21.262,9.4492 42.52,16.535 61.418,30.707 7.0859,7.0859 16.535,14.172 25.984,21.262 44.883,28.348 94.488,115.75 113.39,162.99 25.984,66.141 14.172,66.141 21.262,115.75 2.3633,14.172 4.7227,25.984 2.3633,40.156 -4.7227,68.504 -2.3633,28.348 -9.4492,54.332 -2.3633,9.4492 -2.3633,11.812 -4.7227,18.898 -9.4492,18.898 0,14.172 -7.0859,35.434 -2.3633,4.7227 -4.7227,11.812 -7.0859,16.535 -4.7227,7.0859 -4.7227,2.3633 -7.0859,14.172 -11.812,33.07 -37.797,56.691 -56.691,85.039 -11.812,16.535 -56.691,59.055 -73.227,66.141 -14.172,4.7227 -44.883,28.348 -59.055,30.707 2.3633,-14.172 2.3633,4.7227 7.0859,-11.812 -14.172,-4.7227 -16.535,0 -28.348,2.3633 -9.4492,2.3633 -18.898,0 -28.348,2.3633 -11.812,2.3633 -7.0859,7.0859 -23.621,7.0859 -7.0859,2.3633 -18.898,-2.3633 -18.898,7.0859 21.262,7.0859 44.883,-9.4492 66.141,-9.4492 -2.3633,7.0859 -2.3633,4.7227 -4.7227,7.0859 v 7.0859 c -7.0859,2.3633 -11.812,7.0859 -21.262,9.4492 -4.7227,0 -9.4492,-2.3633 -18.898,2.3633 0,-7.0859 2.3633,2.3633 0,-9.4492 -23.621,0 -61.418,-4.7227 -75.59,18.898 28.348,0 59.055,4.7227 85.039,-2.3633 23.621,-7.0859 47.242,-11.812 68.504,-25.984 18.898,-11.812 44.883,-21.262 61.418,-35.434 37.797,-33.07 51.969,-42.52 82.676,-82.676 9.4492,-11.812 4.7227,-4.7227 14.172,-9.4492 30.707,-25.984 59.055,-129.92 66.141,-172.44 2.3633,-14.172 2.3633,-25.984 2.3633,-42.52 16.535,-2.3633 30.707,0 47.242,2.3633 l -2.3633,16.535 c -7.0859,0 -16.535,0 -21.262,-2.3633 -11.812,0 -11.812,-4.7227 -14.172,7.0859 7.0859,4.7227 23.621,2.3633 35.434,2.3633 l -2.3633,23.621 c -9.4492,-2.3633 -28.348,-4.7227 -35.434,0 2.3633,11.812 16.535,2.3633 35.434,9.4492 l -4.7227,18.898 h -21.262 c -11.812,0 -14.172,-2.3633 -16.535,7.0859 9.4492,7.0859 21.262,-4.7227 33.07,2.3633 2.3633,4.7227 -2.3633,11.812 -2.3633,18.898 -11.812,0 -30.707,-2.3633 -37.797,9.4492 2.3633,2.3633 -2.3633,2.3633 7.0859,2.3633 11.812,-2.3633 16.535,-4.7227 28.348,-4.7227 0,16.535 -16.535,44.883 -21.262,63.781 -11.812,-2.3633 -16.535,-2.3633 -28.348,-4.7227 -2.3633,0 -14.172,-4.7227 -14.172,7.0859 9.4492,7.0859 21.262,-2.3633 33.07,2.3633 4.7227,9.4492 -7.0859,25.984 -18.898,28.348 -16.535,2.3633 -30.707,-4.7227 -35.434,9.4492 7.0859,7.0859 18.898,-2.3633 33.07,-2.3633 l -2.3633,9.4492 z"
         id="path1-3" /><path
         d="m 755.91,963.78 c 2.3633,4.7227 4.7227,9.4492 9.4492,11.812 9.4492,7.0859 4.7227,-7.0859 9.4492,9.4492 -9.4492,-2.3633 -18.898,-9.4492 -18.898,-21.262 z m -16.535,-23.621 c 2.3633,2.3633 2.3633,-2.3633 2.3633,4.7227 0,4.7227 0,2.3633 -2.3633,2.3633 z m -18.898,-42.52 c 21.262,21.262 2.3633,0 14.172,21.262 -7.0859,4.7227 -2.3633,2.3633 -7.0859,9.4492 -2.3633,-9.4492 -2.3633,-11.812 -7.0859,-18.898 -4.7227,4.7227 0,7.0859 -4.7227,11.812 -7.0859,-4.7227 -7.0859,-16.535 -7.0859,-25.984 l 11.812,2.3633 z m -33.07,-11.812 c 7.0859,4.7227 7.0859,16.535 9.4492,25.984 l -14.172,-11.812 c 2.3633,-7.0859 0,-9.4492 4.7227,-14.172 z m -9.4492,-23.621 c 7.0859,2.3633 4.7227,0 7.0859,9.4492 l 4.7227,-4.7227 v 11.812 c -9.4492,-2.3633 -14.172,-4.7227 -11.812,-16.535 z m -30.707,-9.4492 c 0,2.3633 0,0 2.3633,7.0859 4.7227,14.172 0,4.7227 -2.3633,7.0859 -4.7227,-4.7227 -4.7227,-7.0859 0,-14.172 z m 73.227,44.883 c -7.0859,-9.4492 -7.0859,-7.0859 -14.172,-11.812 v -16.535 l -11.812,-7.0859 v -16.535 c 7.0859,2.3633 25.984,47.242 25.984,51.969 z m -66.141,-42.52 c 11.812,2.3633 4.7227,2.3633 11.812,30.707 l -14.172,-9.4492 c 7.0859,-14.172 4.7227,-4.7227 2.3633,-21.262 z m 18.898,-16.535 11.812,2.3633 v 18.898 c -14.172,-4.7227 -9.4492,-7.0859 -11.812,-21.262 z m -54.332,7.0859 c 4.7227,0 7.0859,0 11.812,2.3633 9.4492,2.3633 -2.3633,2.3633 9.4492,2.3633 l -2.3633,7.0859 z m 21.262,-18.898 c 0,0 7.0859,4.7227 0,16.535 -9.4492,-11.812 0,-16.535 0,-16.535 z m 9.4492,4.7227 c 9.4492,0 9.4492,7.0859 9.4492,18.898 -9.4492,-4.7227 -7.0859,-9.4492 -9.4492,-18.898 z m 30.707,-4.7227 c 0,2.3633 2.3633,2.3633 2.3633,2.3633 0,2.3633 4.7227,0 4.7227,9.4492 -9.4492,-2.3633 -9.4492,-2.3633 -14.172,-7.0859 2.3633,-2.3633 -2.3633,-2.3633 7.0859,-4.7227 z m -68.504,-9.4492 c 9.4492,4.7227 9.4492,7.0859 7.0859,18.898 -4.7227,-2.3633 -9.4492,-4.7227 -9.4492,-11.812 0,-11.812 0,-2.3633 2.3633,-7.0859 z m 40.156,0 c 2.3633,0 2.3633,-2.3633 2.3633,2.3633 4.7227,14.172 2.3633,2.3633 -2.3633,7.0859 -9.4492,-9.4492 -2.3633,-9.4492 0,-9.4492 z m -30.707,4.7227 9.4492,2.3633 4.7227,16.535 -11.812,-2.3633 -2.3633,-16.535 z m 59.055,4.7227 -4.7227,-4.7227 c -4.7227,-4.7227 -7.0859,-7.0859 -2.3633,-14.172 7.0859,2.3633 9.4492,9.4492 11.812,16.535 -2.3633,4.7227 0,2.3633 -4.7227,2.3633 z m -44.883,-14.172 c 4.7227,0 4.7227,-2.3633 7.0859,2.3633 2.3633,7.0859 -2.3633,7.0859 -2.3633,7.0859 -7.0859,-4.7227 -4.7227,-2.3633 -4.7227,-9.4492 z m -47.242,-4.7227 4.7227,14.172 c 7.0859,-2.3633 0,0 4.7227,-9.4492 7.0859,4.7227 7.0859,9.4492 7.0859,18.898 -7.0859,-2.3633 -18.898,-11.812 -21.262,-16.535 -2.3633,-9.4492 4.7227,-7.0859 4.7227,-7.0859 z m 35.434,-2.3633 c 9.4492,2.3633 9.4492,2.3633 9.4492,11.812 l -11.812,-2.3633 z m 25.984,-9.4492 c 7.0859,4.7227 7.0859,9.4492 2.3633,14.172 -4.7227,-2.3633 -4.7227,0 -4.7227,-4.7227 -2.3633,-11.812 2.3633,-9.4492 2.3633,-9.4492 z m -42.52,4.7227 c 11.812,2.3633 9.4492,0 9.4492,11.812 -9.4492,-2.3633 -9.4492,-2.3633 -9.4492,-11.812 z m 30.707,-9.4492 c 2.3633,2.3633 2.3633,-2.3633 4.7227,4.7227 0,7.0859 -2.3633,7.0859 -2.3633,9.4492 -4.7227,-2.3633 -4.7227,2.3633 -4.7227,-4.7227 -2.3633,-11.812 2.3633,-9.4492 2.3633,-9.4492 z m -42.52,2.3633 c 7.0859,4.7227 7.0859,4.7227 7.0859,11.812 -7.0859,-2.3633 -11.812,-2.3633 -7.0859,-11.812 z m 30.707,-7.0859 c 11.812,9.4492 2.3633,14.172 2.3633,14.172 -7.0859,-4.7227 -4.7227,0 -4.7227,-4.7227 -4.7227,-11.812 2.3633,-9.4492 2.3633,-9.4492 z m -18.898,4.7227 v -9.4492 c 11.812,2.3633 11.812,2.3633 9.4492,14.172 z m -44.883,-16.535 2.3633,25.984 -9.4492,-9.4492 z m 77.953,4.7227 c 2.3633,7.0859 0,4.7227 -2.3633,4.7227 -4.7227,-2.3633 -7.0859,-2.3633 0,-9.4492 2.3633,2.3633 2.3633,0 2.3633,4.7227 z m -9.4492,-4.7227 c 2.3633,9.4492 -2.3633,4.7227 -2.3633,4.7227 -4.7227,-2.3633 -4.7227,2.3633 -4.7227,-4.7227 -2.3633,-7.0859 2.3633,-4.7227 2.3633,-4.7227 4.7227,2.3633 2.3633,-2.3633 4.7227,4.7227 z m 16.535,4.7227 c 7.0859,2.3633 7.0859,2.3633 11.812,0 l -11.812,-4.7227 v -11.812 l 4.7227,-2.3633 h 4.7227 l 16.535,40.156 c -9.4492,-2.3633 -9.4492,-4.7227 -14.172,-9.4492 h -2.3633 c -7.0859,-2.3633 -9.4492,0 -9.4492,-11.812 z m -49.605,9.4492 c -2.3633,-7.0859 -2.3633,-7.0859 0,-16.535 0,-7.0859 0,-4.7227 4.7227,-4.7227 -2.3633,9.4492 2.3633,11.812 -4.7227,21.262 z m -9.4492,-18.898 c 0,7.0859 2.3633,14.172 2.3633,21.262 0,11.812 2.3633,7.0859 -7.0859,11.812 v -28.348 c -4.7227,-4.7227 -14.172,-7.0859 -11.812,-9.4492 2.3633,-2.3633 14.172,2.3633 16.535,4.7227 z m 21.262,-11.812 c 7.0859,4.7227 7.0859,4.7227 7.0859,14.172 -7.0859,0 -7.0859,0 -9.4492,-4.7227 0,-7.0859 0,-4.7227 2.3633,-9.4492 z m 28.348,-4.7227 c 2.3633,4.7227 4.7227,7.0859 0,14.172 -4.7227,-7.0859 -2.3633,-7.0859 0,-14.172 z m -16.535,-2.3633 c 11.812,4.7227 7.0859,0 9.4492,9.4492 -7.0859,-2.3633 -7.0859,-2.3633 -9.4492,-9.4492 z m -35.434,-11.812 c 9.4492,-7.0859 -2.3633,-4.7227 9.4492,-11.812 l 4.7227,7.0859 c 7.0859,7.0859 4.7227,7.0859 2.3633,16.535 -11.812,2.3633 -7.0859,-2.3633 -18.898,7.0859 l -7.0859,-4.7227 v -18.898 c 9.4492,0 0,0 9.4492,4.7227 z m 42.52,-30.707 c 7.0859,9.4492 18.898,30.707 23.621,44.883 -21.262,-14.172 -11.812,-9.4492 -18.898,-21.262 l -21.262,-2.3633 16.535,-21.262 z m -56.691,-49.605 c -9.4492,-7.0859 -66.141,-25.984 -82.676,-30.707 -30.707,-11.812 -14.172,-2.3633 -28.348,-25.984 -7.0859,-14.172 -7.0859,-2.3633 -23.621,-37.797 11.812,2.3633 23.621,4.7227 35.434,9.4492 2.3633,0 14.172,2.3633 16.535,2.3633 9.4492,4.7227 59.055,54.332 75.59,63.781 l 59.055,59.055 -18.898,18.898 c -25.984,-2.3633 -44.883,7.0859 -35.434,37.797 l -2.3633,2.3633 c -9.4492,2.3633 -16.535,4.7227 -21.262,14.172 -2.3633,-2.3633 -7.0859,-9.4492 -9.4492,-16.535 h 25.984 c -7.0859,-7.0859 -11.812,-4.7227 -23.621,-9.4492 -14.172,-4.7227 -28.348,-37.797 -30.707,-54.332 23.621,4.7227 56.691,21.262 85.039,23.621 -7.0859,-7.0859 -63.781,-23.621 -77.953,-25.984 -18.898,-7.0859 -14.172,-9.4492 -23.621,-25.984 -7.0859,-9.4492 -14.172,-21.262 -16.535,-33.07 16.535,4.7227 89.766,33.07 96.852,28.348 z m -87.402,-87.402 c -75.59,-25.984 -40.156,-4.7227 -80.316,-73.227 -4.7227,-11.812 -4.7227,-2.3633 -7.0859,-14.172 9.4492,7.0859 16.535,14.172 23.621,21.262 14.172,16.535 61.418,47.242 63.781,66.141 z m -92.125,-106.3 c -11.812,-16.535 -16.535,-21.262 -25.984,-18.898 7.0859,18.898 25.984,44.883 35.434,63.781 11.812,21.262 21.262,47.242 33.07,66.141 11.812,21.262 61.418,118.11 63.781,132.29 -7.0859,2.3633 -9.4492,0 -16.535,2.3633 -33.07,16.535 -16.535,4.7227 -37.797,11.812 -14.172,4.7227 -51.969,7.0859 -56.691,18.898 4.7227,9.4492 18.898,9.4492 30.707,9.4492 18.898,0 2.3633,2.3633 14.172,4.7227 4.7227,2.3633 11.812,0 18.898,0 14.172,0 59.055,14.172 70.867,9.4492 -2.3633,-21.262 -73.227,-16.535 -94.488,-21.262 7.0859,-7.0859 25.984,-11.812 37.797,-14.172 18.898,-4.7227 23.621,-9.4492 40.156,-14.172 2.3633,11.812 11.812,28.348 18.898,40.156 14.172,25.984 21.262,21.262 16.535,28.348 -11.812,16.535 0,-11.812 -4.7227,4.7227 l 7.0859,7.0859 c 11.812,11.812 -4.7227,4.7227 18.898,21.262 9.4492,7.0859 18.898,16.535 28.348,25.984 16.535,11.812 11.812,14.172 7.0859,35.434 -2.3633,11.812 -2.3633,35.434 -7.0859,44.883 -11.812,-14.172 -16.535,-89.766 -25.984,-96.852 -9.4492,7.0859 -4.7227,25.984 0,37.797 l 14.172,73.227 c 7.0859,21.262 9.4492,23.621 21.262,21.262 2.3633,-7.0859 7.0859,-73.227 4.7227,-82.676 14.172,-9.4492 4.7227,-2.3633 11.812,-11.812 16.535,14.172 28.348,25.984 42.52,40.156 21.262,21.262 63.781,47.242 89.766,73.227 16.535,16.535 16.535,18.898 33.07,25.984 9.4492,4.7227 0,7.0859 11.812,2.3633 0,-28.348 -59.055,-108.66 -70.867,-137.01 7.0859,4.7227 2.3633,7.0859 11.812,14.172 -2.3633,-11.812 -2.3633,-11.812 -9.4492,-18.898 -11.812,-9.4492 -18.898,-33.07 -25.984,-47.242 -14.172,-23.621 -14.172,-18.898 -18.898,-33.07 -4.7227,-9.4492 -11.812,-21.262 -16.535,-33.07 -7.0859,-11.812 -11.812,-23.621 -16.535,-37.797 -2.3633,-7.0859 0,-2.3633 -4.7227,-7.0859 l -122.84,-118.11 c -21.262,-18.898 -87.402,-80.316 -101.57,-99.211 -4.7227,-7.0859 -16.535,-14.172 -25.984,-23.621 z"
         id="path2-6" /><path
         d="m 784.25,439.37 c 0,9.4492 9.4492,9.4492 18.898,16.535 7.0859,7.0859 11.812,11.812 18.898,18.898 18.898,16.535 49.605,59.055 59.055,82.676 4.7227,9.4492 14.172,28.348 23.621,49.605 18.898,49.605 7.0859,9.4492 14.172,56.691 9.4492,37.797 9.4492,85.039 0,122.84 -2.3633,11.812 -14.172,49.605 -18.898,54.332 -9.4492,-14.172 -2.3633,-56.691 0,-73.227 4.7227,-14.172 0,-61.418 -4.7227,-77.953 0,-7.0859 -21.262,-51.969 -25.984,-59.055 -7.0859,-9.4492 -7.0859,-16.535 -11.812,-28.348 l -35.434,-49.605 c -4.7227,-4.7227 -4.7227,0 -11.812,-7.0859 l -51.969,-56.691 c -4.7227,-7.0859 4.7227,0 -16.535,-18.898 -16.535,-14.172 -59.055,-51.969 -63.781,-66.141 11.812,2.3633 0,2.3633 11.812,4.7227 l 47.242,11.812 c 33.07,11.812 9.4492,-4.7227 21.262,4.7227 7.0859,4.7227 18.898,11.812 25.984,14.172 z m 0,0 c -2.3633,-9.4492 -28.348,-23.621 -40.156,-28.348 -47.242,-23.621 -25.984,7.0859 -49.605,-11.812 h 18.898 c -7.0859,-7.0859 -37.797,-7.0859 -47.242,-4.7227 0,18.898 0,25.984 14.172,33.07 l 2.3633,-7.0859 c 25.984,21.262 7.0859,11.812 16.535,25.984 2.3633,2.3633 21.262,14.172 23.621,16.535 14.172,9.4492 108.66,111.02 115.75,127.56 16.535,30.707 42.52,77.953 49.605,113.39 9.4492,70.867 -11.812,122.84 0,141.73 4.7227,4.7227 4.7227,2.3633 9.4492,4.7227 2.3633,4.7227 0,2.3633 2.3633,4.7227 4.7227,2.3633 -2.3633,0 4.7227,2.3633 9.4492,-11.812 9.4492,-14.172 11.812,-28.348 2.3633,-16.535 21.262,-73.227 18.898,-99.211 -4.7227,-23.621 0,-56.691 -14.172,-106.3 -4.7227,-11.812 -7.0859,-16.535 -9.4492,-30.707 -9.4492,-9.4492 -2.3633,4.7227 -9.4492,-7.0859 -11.812,-21.262 -16.535,-49.605 -42.52,-80.316 -11.812,-14.172 -59.055,-63.781 -75.59,-66.141 z"
         id="path3-7" /><path
         d="m 274.02,805.51 c 11.812,7.0859 11.812,11.812 21.262,25.984 7.0859,11.812 11.812,14.172 18.898,25.984 9.4492,18.898 21.262,40.156 33.07,59.055 16.535,21.262 28.348,30.707 44.883,49.605 9.4492,9.4492 11.812,14.172 21.262,23.621 4.7227,4.7227 21.262,21.262 23.621,25.984 l -49.605,-21.262 c -16.535,-11.812 -44.883,-42.52 -56.691,-59.055 -18.898,-18.898 -23.621,-33.07 -35.434,-56.691 -16.535,-30.707 -23.621,-40.156 -21.262,-73.227 z m 144.09,174.8 c -9.4492,-11.812 -4.7227,-9.4492 -14.172,-14.172 -4.7227,-2.3633 0,2.3633 -7.0859,-4.7227 l -7.0859,-7.0859 -54.332,-75.59 c -4.7227,-9.4492 -2.3633,-7.0859 -9.4492,-18.898 -4.7227,-4.7227 -7.0859,-9.4492 -9.4492,-14.172 l -23.621,-30.707 c -7.0859,-9.4492 -11.812,-21.262 -23.621,-25.984 -23.621,33.07 30.707,120.47 49.605,148.82 18.898,25.984 16.535,21.262 25.984,23.621 9.4492,4.7227 2.3633,4.7227 9.4492,14.172 l 28.348,23.621 c 7.0859,7.0859 7.0859,4.7227 14.172,11.812 11.812,7.0859 28.348,9.4492 42.52,9.4492 0,2.3633 0,4.7227 2.3633,9.4492 l 11.812,-9.4492 c -4.7227,-11.812 -9.4492,-25.984 -21.262,-33.07 -11.812,-4.7227 -4.7227,7.0859 -14.172,-7.0859 z"
         id="path4-5" /><path
         d="m 765.36,725.2 c 11.812,-2.3633 25.984,-2.3633 30.707,-14.172 -16.535,-2.3633 -61.418,-4.7227 -80.316,-7.0859 -18.898,-2.3633 -59.055,-16.535 -68.504,-7.0859 2.3633,18.898 33.07,14.172 49.605,14.172 18.898,2.3633 40.156,4.7227 59.055,7.0859 -11.812,9.4492 -33.07,14.172 -47.242,16.535 -14.172,2.363 -42.52,7.0859 -44.883,18.898 7.0859,4.7227 30.707,0 37.797,-2.3633 9.4492,-2.3633 21.262,-9.4492 30.707,-14.172 11.812,-2.3633 21.262,-9.4492 33.07,-11.812 z"
         id="path5-3" /><path
         d="m 607.09,583.46 c -4.7227,-21.262 -2.3633,-42.52 -7.0859,-56.691 -7.0859,-14.172 0,-14.172 -4.7227,-25.984 l -2.3633,-4.7227 c -9.4492,11.812 -7.0859,16.535 -7.0859,33.07 l -11.812,70.867 c -2.3633,9.4492 -7.0859,23.621 0,28.348 14.172,-9.4492 4.7227,-63.781 16.535,-75.59 2.3633,7.0859 4.7227,21.262 4.7227,30.707 2.3633,9.4492 7.0859,18.898 9.4492,28.348 2.3633,16.535 0,49.605 14.172,59.055 l -11.812,-87.402 z"
         id="path6-5" /><path
         d="m 814.96,1058.3 c 16.535,-11.812 37.797,-7.0859 42.52,-16.535 -11.812,-2.3633 -21.262,2.3633 -33.07,4.7227 -11.812,2.3633 -18.898,-4.7227 -14.172,14.172 -9.4492,0 -25.984,2.3633 -30.707,11.812 7.0859,7.0859 14.172,0 25.984,-4.7227 9.4492,-2.3633 23.621,0 30.707,-7.0859 -7.0859,-2.3633 -14.172,-2.3633 -21.262,-2.3633 z"
         id="path7-6" /><path
         d="m 848.03,1020.5 c 4.7227,0 44.883,-4.7227 49.605,-9.4492 -7.0859,-4.7227 -14.172,-2.3633 -23.621,-2.3633 -11.812,2.3633 -23.621,-4.7227 -25.984,11.812 z"
         id="path8-2" /><path
         d="m 909.45,517.32 c 7.0859,4.7227 11.812,0 21.262,0 11.812,0 14.172,2.3633 25.984,2.3633 -7.0859,-11.812 -42.52,-14.172 -47.242,-2.3633 z"
         id="path9-9" /><path
         d="m 725.2,351.97 c 9.4492,2.3633 9.4492,-2.3633 18.898,-4.7227 9.4492,-2.3633 18.898,0 28.348,0 -7.0859,-11.812 -47.242,-11.812 -47.242,4.7227 z"
         id="path10-1" /><path
         d="m 262.2,548.03 c 11.812,-2.3633 14.172,-7.0859 25.984,-9.4492 14.172,-7.0859 14.172,-2.3633 23.621,-7.0859 -9.4492,-11.812 -44.883,2.3633 -49.605,16.535 z"
         id="path11-2" /><path
         d="m 947.24,878.74 c 7.0859,0 11.812,-4.7227 16.535,-7.0859 11.812,-2.3633 14.172,2.3633 18.898,-7.0859 -9.4492,-4.7227 -30.707,4.7227 -33.07,4.7227 -9.4492,9.4492 -2.3633,9.4492 -2.3633,9.4492 z"
         id="path12-7" /><path
         d="m 966.14,635.43 c 18.898,-2.3633 16.535,-2.3633 35.434,0 -2.3633,-9.4492 -9.4492,-9.4492 -18.898,-9.4492 -11.812,0 -16.535,-2.3633 -16.535,9.4492 z"
         id="path13-0" /><path
         d="m 973.23,548.03 c -2.3633,-2.3633 -28.348,-16.535 -35.434,-9.4492 2.3633,4.7227 -4.7227,4.7227 9.4492,7.0859 21.262,4.7227 18.898,9.4492 25.984,2.3633 z"
         id="path14-9" /><path
         d="m 231.5,630.71 c 9.4492,-2.3633 9.4492,-7.0859 16.535,-9.4492 7.0859,-2.3633 11.812,0 18.898,-4.7227 -11.812,-9.4492 -35.434,0 -35.434,14.172 z"
         id="path15-3" /><path
         d="m 250.39,682.68 c -7.0859,-14.172 -30.707,4.7227 -30.707,11.812 z"
         id="path16-6" /><path
         d="m 226.77,647.24 c 2.3633,0 33.07,-9.4492 33.07,-9.4492 -9.4492,-9.4492 -28.348,0 -33.07,9.4492 z"
         id="path17-0" /><path
         d="m 337.8,996.85 c 4.7227,7.0859 11.812,4.7227 16.535,0 -4.7227,-7.0859 -9.4492,-4.7227 -16.535,0 z"
         id="path18-6" /><path
         d="m 229.13,663.78 c 7.0859,0 14.172,0 18.898,-4.7227 -9.4492,-4.7227 -14.172,-2.3633 -18.898,4.7227 z"
         id="path19" /><path
         d="m 304.72,966.14 c 7.0859,-2.3633 9.4492,-7.0859 9.4492,-14.172 -9.4492,0 -9.4492,4.7227 -9.4492,14.172 z"
         id="path20" /><path
         d="m 288.19,937.8 c 4.7227,-2.3633 4.7227,-4.7227 7.0859,-11.812 -9.4492,2.3633 -11.812,4.7227 -7.0859,11.812 z"
         id="path21" /><path
         d="m 848.03,696.85 c -7.0859,-4.7227 -2.3633,0 -4.7227,0 4.7227,4.7227 0,4.7227 4.7227,0 z"
         id="path22" /></g></g></svg>
