<?xml version="1.0" encoding="UTF-8" standalone="no"?>
<!-- Created with Inkscape (http://www.inkscape.org/) -->

<svg
   width="59.981102"
   height="59.981102"
   viewBox="0 0 15.87 15.87"
   version="1.1"
   id="svg1"
   xml:space="preserve"
   xmlns="http://www.w3.org/2000/svg"
   xmlns:svg="http://www.w3.org/2000/svg"><defs
     id="defs1" /><g
     id="layer3"
     style="display:inline"
     transform="translate(-37.760206,-0.5563199)"><g
       style="fill:#000000"
       id="g6"
       transform="matrix(0.1715093,0,0,0.1715093,37.036252,0.42367855)"><g
         id="g33"><path
           d="m 8.68359,48.18481 a 0.79756,0.79756 0 0 1 0.18459,-0.29012 26.52785,26.52785 0 0 1 2.69764,-0.98338 37.23991,37.23991 0 0 0 3.92314,-0.94922 c 1.13038,-0.429 2.38189,-0.52579 3.55422,-0.85946 A 115.83159,115.83159 0 0 0 31.86482,40.8658 c 2.16811,-0.901 4.3065,-1.87639 6.4368,-2.86453 2.132,-0.98892 4.2416,-2.02649 6.35156,-3.062 0.72227,-0.35446 1.41777,-0.76388 2.12231,-1.15394 1.66218,-0.92021 3.3255,-1.83847 4.98052,-2.77146 a 7.33883,7.33883 0 0 0 0.77826,-0.58256 c -0.18484,-1.06909 -0.38245,-2.10682 -0.53988,-3.15062 a 5.34055,5.34055 0 0 1 0.69239,-3.253 11.05324,11.05324 0 0 1 2.76886,-3.31269 7.31873,7.31873 0 0 1 4.00117,-1.54162 15.4648,15.4648 0 0 1 4.01444,-0.02487 1.88578,1.88578 0 0 1 0.69486,0.30994 q 2.25469,1.41181 4.49568,2.8454 a 7.14634,7.14634 0 0 1 0.68539,0.53563 c 2.31033,1.91183 4.63563,3.80607 6.92274,5.74531 1.45074,1.23006 2.83872,2.53389 4.26478,3.79338 1.32889,1.17367 2.64189,2.36811 4.01529,3.4879 1.395,1.13738 2.8216,2.24274 4.29563,3.27461 a 6.16524,6.16524 0 0 1 2.45162,5.02823 10.79326,10.79326 0 0 1 -1.95411,6.45152 26.52143,26.52143 0 0 1 -5.81482,6.284 c -0.83586,0.70532 -1.7469,1.32413 -2.64311,1.95478 -2.29323,1.61372 -4.54031,3.30246 -6.91018,4.79566 q -5.68506,3.582 -11.5129,6.9361 c -2.64932,1.5347 -5.39556,2.90146 -8.088,4.36269 -1.158,0.62849 -2.2632,1.35817 -3.43929,1.94841 -1.5262,0.76595 -3.11137,1.41363 -4.64787,2.16014 -1.067,0.51839 -2.1037,1.10191 -3.13679,1.68663 -0.60253,0.341 -0.67311,0.29994 -1.18825,-0.19439 -1.2556,-1.2049 -2.54816,-2.3718 -3.84049,-3.53775 -2.44336,-2.20436 -4.90072,-4.39322 -7.34515,-6.59642 -1.67659,-1.51115 -3.3679,-3.00757 -5.00152,-4.5642 -1.07061,-1.02014 -2.04926,-2.13672 -3.07042,-3.20884 -1.17812,-1.23692 -2.3342,-2.496 -3.54307,-3.70214 a 38.53944,38.53944 0 0 1 -3.6577,-4.11523 c -0.86845,-1.15648 -1.94411,-2.15544 -2.845,-3.29 A 25.8998,25.8998 0 0 0 9.93475,48.97864 4.6865,4.6865 0 0 0 9.12327,48.4978 C 8.972,48.40547 8.83337,48.29246 8.68359,48.18481 Z M 76.88418,33.30675 c 0.9726,-0.1107 1.94518,-0.22137 2.94123,-0.33472 -1.02341,-1.50222 -2.57372,-1.77707 -3.80474,-0.70339 a 0.662,0.662 0 0 0 1.08072,0.3005 c 0.7846,-0.4138 0.80364,-0.37771 1.388,-0.0014 -0.29433,0.07414 -0.53572,0.12528 -0.771,0.19657 a 0.90077,0.90077 0 0 0 -0.81943,0.55822 1.91682,1.91682 0 0 0 -1.43075,0.7067 1.39619,1.39619 0 0 0 1.41597,-0.7225 z m 6.25947,12.73725 0.5751,-0.92667 -2.25009,-1.43157 c -0.10918,0.26278 -0.20213,0.46347 -0.2759,0.671 a 2.87433,2.87433 0 0 0 -0.15471,0.55435 1.79,1.79 0 0 0 0.86892,1.59214 0.77834,0.77834 0 0 0 1.12682,-0.34836 q 0.05482,-0.05561 0.10986,-0.11089 z m -2.7773,-3.24433 0.01757,0.01879 c 0.2114,-0.45269 0.6589,-0.069 0.94622,-0.26884 0.71926,-0.50036 1.44367,-0.99335 2.20652,-1.51709 a 11.60117,11.60117 0 0 1 -0.94658,-0.71565 1.06389,1.06389 0 0 0 -1.47029,-0.0011 c -1.50852,0.93974 -2.18245,2.44919 -2.88884,4.04276 l 1.757,1.25344 c 0.33652,-0.926 0.628,-1.72786 0.93221,-2.565 z M 50.78778,34.59778 51.139,34.64709 a 3.80828,3.80828 0 0 0 -1.21793,-1.51774 l -7.79058,4.021 a 1.6543,1.6543 0 0 0 2.00489,1.33829 14.52,14.52 0 0 0 4.91282,-2.42064 l -0.88657,-0.793 a 1.5639,1.5639 0 0 1 0.78556,0.28264 1.40875,1.40875 0 0 0 1.84631,-0.5818 0.54188,0.54188 0 0 0 -0.12842,-0.24537 z m 14.99537,-8.40964 c -0.848,-0.33392 -0.848,-0.33392 -1.41815,0.27238 0.37564,0.305 0.73883,0.62085 1.12346,0.908 0.98144,0.73277 2.03219,1.38553 2.94392,2.19558 a 20.43018,20.43018 0 0 0 3.31782,2.47909 c 1.45813,0.84421 1.72207,0.85986 3.10264,-0.16515 l -0.215,-0.65583 a 1.03735,1.03735 0 0 0 1.31259,0.06474 c 0.42987,-0.18339 0.88346,-0.31127 1.44335,-0.50363 -0.303,-0.27616 -0.54676,-0.51713 -0.81007,-0.73449 -0.54683,-0.45142 -1.10191,-0.89294 -1.65731,-1.33388 -1.86666,-1.48187 -3.72732,-2.97146 -5.60587,-4.4381 -0.91349,-0.7132 -1.93412,-1.30454 -2.775,-2.09126 a 10.75882,10.75882 0 0 0 -3.29807,-1.934 4.87992,4.87992 0 0 0 -3.37226,-0.26784 c -0.78407,0.221 -1.56055,0.469 -2.5417,0.76577 2.18378,2.03591 4.51106,3.53278 6.55759,5.45519 l 0.80832,-0.67689 c -0.641,-0.47665 -1.03982,-1.18271 -1.92557,-0.71254 a 0.73917,0.73917 0 0 1 0.06423,-0.27 c 0.706,-0.37254 1.39954,-0.77752 2.13476,-1.08114 a 0.52018,0.52018 0 0 1 0.68442,0.50121 2.3008,2.3008 0 0 0 -1.6991,0.49312 c 0.87054,0.89873 1.4,1.1862 2.7185,0.23419 l 0.50777,0.45944 c -0.53411,0.17306 -1,0.324 -1.4761,0.4783 l 0.1648,0.47088 q -0.0448,0.04372 -0.08998,0.08686 z m -4.4134,44.03807 c -0.60364,-0.71256 -1.18106,-1.43754 -1.80458,-2.12044 -1.04162,-1.14081 -2.11056,-2.25677 -3.17226,-3.37916 -0.59754,-0.63167 -1.17661,-1.28434 -1.81278,-1.875 -0.75482,-0.70085 -1.57849,-1.327 -2.34375,-2.01723 -3.1131,-2.80784 -6.14953,-5.70327 -9.51489,-8.21988 a 5.67383,5.67383 0 0 0 -3.46973,-1.476 6.52521,6.52521 0 0 0 -2.995,0.49582 c -1.21746,0.59118 -2.42448,1.20464 -3.65161,1.77488 -0.99349,0.46167 -2.01,0.87375 -3.01637,1.30763 q -3.76964,1.62528 -7.53907,3.251 c -0.57817,0.24965 -1.15294,0.50715 -1.81685,0.79961 0.47741,0.55722 0.82659,1.01731 1.22877,1.42514 q 2.58167,2.61794 5.18975,5.20988 c 1.16365,1.1622 2.29976,2.35513 3.51049,3.46641 q 5.09726,4.67844 10.2498,9.29661 c 0.71456,0.64445 1.47267,1.24062 2.22228,1.8687 l 1.75859,-0.81493 c -0.17479,-0.76753 -0.87811,-0.14665 -1.13041,-0.56148 -0.0069,-0.88936 1.00175,-0.61876 1.33386,-1.14 l -0.71723,-0.97073 a 0.75959,0.75959 0 0 1 0.56243,0.2226 c 0.70163,0.62212 0.69951,0.616 1.51758,0.22836 0.7775,-0.36842 1.5634,-0.71915 2.34682,-1.075 0.16972,-0.07708 0.34465,-0.14271 0.54531,-0.22518 -1.82656,-1.31729 -1.82656,-1.31729 -1.69164,-1.93812 a 2.87109,2.87109 0 0 0 1.50834,1.16033 L 48.47502,74.3031 c 0.73551,0.25935 1.04723,1.15278 1.92327,0.87571 l -0.23346,0.7061 c -1.0113,-0.228 -1.6979,0.37711 -2.54449,0.77993 a 0.80851,0.80851 0 0 0 1.17817,0.25693 c 1.55621,-0.77948 3.13063,-1.524 4.67107,-2.33338 2.56644,-1.34837 5.11232,-2.73586 7.66444,-4.11142 a 1.30291,1.30291 0 0 0 0.23573,-0.25076 z M 74.18419,47.36249 c -0.1768,-0.136 -0.34527,-0.2842 -0.53124,-0.40552 -0.86048,-0.56139 -0.85469,-0.54743 -1.74861,0.04927 -1.44689,0.96581 -2.87769,1.95983 -4.364,2.86161 -2.66976,1.61979 -5.37644,3.17874 -8.06595,4.766 -0.66545,0.39271 -1.311,0.821 -1.98922,1.18976 a 13.30744,13.30744 0 0 1 -3.3003,1.57413 3.38465,3.38465 0 0 1 -2.62185,-0.1764 7.45287,7.45287 0 0 1 -1.24157,-1.07221 q -1.87324,-1.82008 -3.72153,-3.66576 a 22.52718,22.52718 0 0 1 -1.70829,-1.8468 4.98116,4.98116 0 0 1 -0.77514,-1.42567 c -0.25664,-0.72774 -0.15333,-0.86493 0.50869,-1.22174 1.61367,-0.86972 3.2289,-1.73679 4.83333,-2.62336 0.8176,-0.45176 1.59423,-0.98039 2.42444,-1.40588 0.77127,-0.39527 1.64473,-0.60981 2.37534,-1.062 1.75186,-1.08421 3.4862,-2.20707 5.14367,-3.42825 a 4.74918,4.74918 0 0 0 1.7546,-1.71573 c -1.31736,-1.23144 -1.41915,-1.24859 -2.87131,-0.51517 -0.11515,0.05815 -0.22943,0.11887 -0.3479,0.16956 a 2.35815,2.35815 0 0 1 -2.99315,-0.75827 25.5918,25.5918 0 0 0 -2.06583,-2.303 25.30546,25.30546 0 0 0 -2.12107,-1.64943 l -0.12109,0.1469 c 0.331,0.34623 0.67331,0.68248 0.99,1.04129 a 1.19343,1.19343 0 0 1 0.09253,1.50313 18.28224,18.28224 0 0 1 -1.83843,1.12475 c -0.67259,0.37352 -1.3545,0.73547 -2.055,1.05233 a 35.68806,35.68806 0 0 1 -3.63085,1.5343 1.88625,1.88625 0 0 1 -2.29067,-0.81174 c -0.154,-0.23825 -0.34794,-0.45071 -0.5782,-0.74477 l -1.16427,0.56292 a 8.1783,8.1783 0 0 0 0.65977,0.74034 c 0.87978,0.7566 1.81006,1.45833 2.65173,2.25427 a 18.863,18.863 0 0 1 2.00193,2.21765 1.05679,1.05679 0 0 1 -0.21311,1.62376 4.70275,4.70275 0 0 1 -0.88515,0.57971 q -1.44344,0.78814 -2.90206,1.54839 c -0.685,0.35923 -1.36022,0.745 -2.07026,1.04748 -3.3213,1.41459 -6.67189,2.762 -9.973,4.22158 a 2.94666,2.94666 0 0 1 -3.77944,-0.83795 c -1.6063,-1.892 -3.31709,-3.69578 -5.00191,-5.52 a 1.04474,1.04474 0 0 0 -0.71031,-0.368 7.27116,7.27116 0 0 0 -1.33688,0.38619 1.599,1.599 0 0 0 0.15681,0.29213 c 1.84508,1.75075 3.39526,3.78775 5.29043,5.48642 1.07246,0.96127 1.64529,2.37338 -0.508,3.08365 -1.13121,0.37312 -2.25485,0.77 -3.37537,1.1744 -0.59639,0.21523 -1.17879,0.46917 -1.89108,0.75526 0.37531,0.39271 0.66565,0.68266 0.93987,0.98712 a 0.89023,0.89023 0 0 0 1.12849,0.22743 c 1.635,-0.68221 3.28981,-1.31752 4.91945,-2.01206 1.92662,-0.82112 3.84016,-1.67356 5.74923,-2.53491 1.26326,-0.57 2.55179,-1.10416 3.75115,-1.79045 a 7.44117,7.44117 0 0 1 4.74995,-1.225 4.65757,4.65757 0 0 1 2.18383,0.68573 q 2.04811,1.45533 3.99543,3.05112 c 1.222,1.00074 2.3745,2.08616 3.56576,3.12493 1.677,1.46232 3.41117,2.86337 5.02785,4.38923 1.40359,1.32473 2.67709,2.78723 4.00941,4.18756 1.26186,1.32626 2.52542,2.65088 3.84766,4.03857 L 64.01471,68.642 A 0.64348,0.64348 0 0 0 63.93596,68.42085 C 61.99474,66.72229 60.0405,65.03846 58.11148,63.32621 a 15.31979,15.31979 0 0 1 -1.91512,-1.91628 c -0.97953,-1.24511 -0.95595,-2.18033 0.26577,-2.99869 0.10722,-0.07182 0.20372,-0.1605 0.31386,-0.227 1.26653,-0.7653 2.5464,-1.50921 3.80015,-2.29484 2.92435,-1.8325 5.83289,-3.69025 8.75477,-5.5267 1.57987,-0.99302 3.17402,-1.96322 4.85328,-3.00021 z m 9.95868,-7.40974 c 0.71171,0.52772 1.248,0.9254 1.79949,1.33432 -0.51374,0.44733 -0.17569,0.76581 0.06152,1.03692 a 4.49468,4.49468 0 0 1 0.89821,4.01039 6.02046,6.02046 0 0 1 -4.98021,4.78571 2.73419,2.73419 0 0 1 -2.19078,-0.39953 C 78.28245,49.81773 76.79134,48.98319 75.3217,48.1138 a 0.9339,0.9339 0 0 0 -1.07967,-0.02091 c -1.19948,0.75479 -2.42591,1.46682 -3.62306,2.22517 -2.25828,1.43055 -4.48808,2.90656 -6.75859,4.31723 -2.05042,1.27394 -4.14019,2.48453 -6.21018,3.72706 a 6.46345,6.46345 0 0 0 -0.63615,0.44049 c -1.01677,0.79022 -1.08183,1.50248 -0.15436,2.398 1.25161,1.20849 2.5342,2.38516 3.81424,3.56382 q 1.422,1.30939 2.87346,2.58674 c 0.95374,0.83483 1.09365,0.823 2.1745,0.15106 1.72535,-1.07263 3.46058,-2.12935 5.1904,-3.19479 1.77678,-1.09439 3.57014,-2.16335 5.32038,-3.29872 0.86219,-0.55929 1.59463,-1.32417 2.47164,-1.85392 a 41.80368,41.80368 0 0 0 4.92279,-3.73777 11.50921,11.50921 0 0 0 1.14533,-0.8532 c 1.27613,-1.36425 2.53451,-2.74646 3.76007,-4.15626 a 9.09109,9.09109 0 0 0 2.0025,-4.1305 7.15732,7.15732 0 0 0 -0.01425,-1.61567 c -0.0043,-0.1861 -0.03349,-0.37348 -0.01957,-0.55789 a 3.39247,3.39247 0 0 0 -1.08187,-2.971 C 89.0382,40.78945 88.72002,40.37632 88.37288,39.99527 a 3.66755,3.66755 0 0 0 -2.71157,-1.29331 4.54717,4.54717 0 0 0 -3.10309,0.70376 c 0.595,0.43867 1.1191,0.825 1.75881,1.29663 z M 61.89249,38.2329 c -1.06791,0.86411 -2.03528,1.70558 -3.06279,2.46574 a 23.35019,23.35019 0 0 1 -6.3148,3.69021 4.04819,4.04819 0 0 0 -0.86791,0.42244 54.17072,54.17072 0 0 1 -5.99716,3.31359 1.01761,1.01761 0 0 0 -0.56136,1.63166 2.3741,2.3741 0 0 0 0.433,0.63312 q 1.19962,1.25532 2.42626,2.48473 c 1.06907,1.07228 2.15386,2.12888 3.22253,3.20158 a 2.34993,2.34993 0 0 0 2.6318,0.67961 14.44977,14.44977 0 0 0 1.79871,-0.66048 c 0.971,-0.50236 1.90025,-1.08595 2.84262,-1.64293 2.71787,-1.60637 5.44724,-3.19388 8.14483,-4.83366 1.56787,-0.95305 3.08772,-1.98566 4.61842,-2.99871 a 7.81843,7.81843 0 0 0 0.80987,-0.71472 Q 66.83708,41.98 61.89249,38.2329 Z m 6.58824,4.15468 c 0.02612,-0.33432 0.0336,-0.462 0.04638,-0.5891 a 8.05139,8.05139 0 0 1 0.90991,-3.71376 c 0.5,-0.785 0.94009,-1.60788 1.41743,-2.4076 a 0.65575,0.65575 0 0 0 -0.0618,-0.94791 c -0.42989,-0.38791 -0.81862,-0.824 -1.265,-1.19063 -2.49127,-2.04613 -4.963,-4.118 -7.50343,-6.10169 a 29.47081,29.47081 0 0 0 -7.00928,-4.43127 c -0.60839,-0.24464 -0.89238,-0.11633 -1.00836,0.53166 a 8.13434,8.13434 0 0 1 -0.17651,0.93462 c -0.1961,0.64532 -0.40391,1.28877 -0.64568,1.91811 -0.34057,0.88651 0.20093,1.70611 0.1567,2.56951 a 0.80193,0.80193 0 0 0 0.63439,0.74319 0.29991,0.29991 0 0 1 0.07619,0.255 0.89542,0.89542 0 0 0 0.55212,0.83091 c 1.22147,1.10029 2.45044,2.19224 3.67638,3.28759 1.12959,1.00929 2.22842,2.05577 3.3949,3.02042 1.88672,1.5603 3.81478,3.07078 5.73329,4.59232 0.29469,0.23372 0.63175,0.41405 1.07237,0.69863 z m 7.82283,-7.1889 a 0.96376,0.96376 0 0 0 -1.163,0.24417 9.78077,9.78077 0 0 0 -3.92913,6.52915 3.0304,3.0304 0 0 0 1.63224,3.4858 c 0.8017,0.40342 1.5197,0.971 2.28642,1.44676 0.74066,0.45962 1.4954,0.89653 2.26373,1.35521 a 11.78041,11.78041 0 0 1 -0.29072,-2.47473 7.30488,7.30488 0 0 1 2.28435,-4.97825 c 1.80873,-1.61051 3.74785,-2.9722 6.38617,-3.00826 -0.61923,-0.54357 -1.16844,-1.03312 -1.72577,-1.51319 -0.87923,-0.75733 -1.78434,-1.4861 -2.63806,-2.27093 a 1.27467,1.27467 0 0 0 -1.44017,-0.231 c -0.75535,0.36324 -1.50449,0.73894 -2.27843,1.06515 a 1.98283,1.98283 0 0 0 -0.3859,0.28689 q -0.57758,0.44029 -1.15512,0.88067 L 76.03754,35.9066 Z M 10.44427,48.0763 c 2.90732,2.48094 4.79757,5.56717 7.291,8.04535 0.49486,-0.14258 0.9049,-0.23322 1.29487,-0.378 1.50809,-0.55981 3.03171,-1.08628 4.50621,-1.72519 0.99317,-0.43034 1.004,-0.77 0.25595,-1.55765 -0.13287,-0.13991 -0.29028,-0.25617 -0.42961,-0.39038 -0.43969,-0.42355 -0.89617,-0.832 -1.30961,-1.28 -0.78594,-0.85166 -1.53592,-1.73648 -2.32273,-2.5873 a 10.28611,10.28611 0 0 1 -1.052,-0.99173 1.76433,1.76433 0 0 0 -2.126,-0.65258 c -1.31963,0.29722 -2.65729,0.51492 -3.97557,0.81749 -0.64863,0.14889 -1.27096,0.41245 -2.13251,0.69999 z m 10.6573,-2.7681 c 0.44377,0.4764 0.84124,0.8849 1.21844,1.31133 1.34457,1.52007 2.70118,3.03017 4.01446,4.577 a 1.97626,1.97626 0 0 0 2.30951,0.72763 c 0.27552,-0.09024 0.56,-0.15845 0.82659,-0.26971 q 2.45053,-1.02252 4.89387,-2.06225 c 0.97708,-0.41578 1.92989,-0.89575 2.92566,-1.259 a 43.7391,43.7391 0 0 0 7.14941,-3.60411 0.83506,0.83506 0 0 0 0.36506,-1.36044 1.9396,1.9396 0 0 0 -0.4095,-0.53382 q -2.26441,-2.02987 -4.5439,-4.043 a 0.80792,0.80792 0 0 0 -0.97213,-0.11248 c -1.55657,0.69386 -3.117,1.38157 -4.69714,2.01925 -1.37324,0.55417 -2.77919,1.02668 -4.16265,1.55627 -1.25945,0.48213 -2.49049,1.04449 -3.76624,1.47646 -1.40165,0.47458 -2.84106,0.83728 -4.26173,1.25649 -0.29653,0.08754 -0.58305,0.20894 -0.88971,0.32038 z M 55.04345,22.18508 a 27.04592,27.04592 0 0 1 2.80853,1.4798 q 3.302,2.27677 6.50676,4.69336 c 1.46285,1.10892 2.84629,2.32434 4.24318,3.51793 0.9311,0.79563 1.83743,1.6218 2.72794,2.4628 a 0.95866,0.95866 0 0 1 0.24283,1.45206 c -0.31472,0.5983 -0.7049,1.15641 -1.03481,1.74732 a 7.90773,7.90773 0 0 0 -1.33688,4.36682 2.21142,2.21142 0 0 0 1.455,2.027 c -0.48344,-4.18367 1.62364,-7.05383 4.61926,-9.5785 -0.51652,-0.08011 -0.85211,-0.2287 -0.71795,-0.76132 a 1.44785,1.44785 0 0 0 1.5361,-0.64116 0.67227,0.67227 0 0 0 -0.9443,-0.298 3.58655,3.58655 0 0 0 -0.58882,0.33046 2.1303,2.1303 0 0 1 -2.45445,0.05174 11.84671,11.84671 0 0 1 -2.96678,-1.97739 19.55716,19.55716 0 0 0 -1.65947,-1.329 c -1.93683,-1.503 -3.88415,-2.99263 -5.81261,-4.50632 -1.69647,-1.33159 -3.373,-2.6886 -5.146,-4.10441 -0.42505,0.30689 -0.87474,0.63159 -1.47753,1.06681 z M 82.00018,42.8775 c 0.68435,0.57009 1.223,1.07446 1.818,1.5 a 1.19939,1.19939 0 0 1 0.54239,1.69647 2.3752,2.3752 0 0 1 -3.62377,0.97988 C 79.95349,46.35351 79.06469,45.77116 78.20902,45.1263 a 1.07587,1.07587 0 0 0 -0.20409,0.27687 c -0.26329,1.17407 0.31662,2.19325 0.6168,3.26316 a 0.48627,0.48627 0 0 0 0.19693,0.20677 c 0.36221,0.26147 0.71483,0.54059 1.0979,0.76791 a 3.57283,3.57283 0 0 0 2.467,0.63573 c 1.86122,-0.36375 4.36616,-2.67181 3.93981,-5.25051 -0.16366,-0.98992 -0.14532,-2.24094 -1.59973,-2.46656 a 0.89077,0.89077 0 0 1 -0.2628,-0.27362 0.9496,0.9496 0 0 0 -1.44408,-0.1658 c -0.29512,0.18451 -0.56133,0.41523 -1.01658,0.75725 z m -22.8893,-6.71263 -6.06688,-5.18746 -0.96917,0.6492 a 1.01738,1.01738 0 0 0 0.043,0.288 35.26163,35.26163 0 0 0 3.661,4.588 1.77945,1.77945 0 0 0 0.82867,0.40022 c 0.90711,0.24917 1.57619,-0.33567 2.50337,-0.73796 z M 45.56774,77.67545 c 0.88168,0.79594 1.33435,-0.15184 1.98568,-0.27986 -0.57156,-0.61166 -0.59618,-0.60809 -1.98568,0.27986 z m 30.7205,-42.94207 c 0.65748,0.37789 0.94148,0.239 1.36427,-0.65993 z M 45.59286,78.40807 c -0.52734,-0.41053 -0.52734,-0.41053 -1.0876,0.16765 0.45439,0.45528 0.7566,0.14961 1.0876,-0.16765 z m 5.459,-45.9811 0.95689,0.81152 C 51.80408,32.81577 51.76383,32.217 51.05189,32.427 Z"
           id="path1-6" /><path
           d="m 40.73829,54.7005 c 1.91757,1.80683 3.8394,3.66171 5.81295,5.45982 a 42.85332,42.85332 0 0 0 3.42838,2.83222 27.61082,27.61082 0 0 1 4.19324,3.85446 c 0.68876,0.76947 1.39675,1.52228 2.06821,2.30646 0.53462,0.62437 0.45659,0.89412 -0.27236,1.23251 -1.95754,0.90868 -3.92017,1.80694 -5.8654,2.74134 a 0.88773,0.88773 0 0 1 -1.13684,-0.15872 c -0.52371,-0.51971 -1.02465,-1.06284 -1.55716,-1.57317 -1.65212,-1.58335 -3.31816,-3.1522 -4.97139,-4.73443 -0.72146,-0.69049 -1.44119,-1.38426 -2.13053,-2.10635 a 1.05575,1.05575 0 0 0 -1.38778,-0.22487 c -1.5333,0.75016 -3.08445,1.46423 -4.60944,2.23058 a 7.996,7.996 0 0 0 -1.14308,0.8847 2.59158,2.59158 0 0 1 -1.20041,-0.83457 c -1.61984,-1.5736 -3.21921,-3.16834 -4.8185,-4.763 -0.42718,-0.42593 -0.4063,-0.82225 0.17816,-1.0587 1.31531,-0.53215 2.40222,-1.45842 3.76395,-1.941 2.18049,-0.77278 4.28341,-1.76616 6.41211,-2.68254 1.03,-0.44338 2.04409,-0.92373 3.23589,-1.46474 z m -1.1852,8.48262 a 11.41972,11.41972 0 0 1 2.55708,2.11982 c 2.34186,2.21767 4.62632,4.496 6.92908,6.75485 a 0.86808,0.86808 0 0 0 1.1209,0.20739 c 1.50683,-0.72745 3.03892,-1.40243 4.55189,-2.11746 a 7.16415,7.16415 0 0 0 0.87771,-0.5861 c -0.3117,-0.38506 -0.5452,-0.69152 -0.79718,-0.98191 A 27.46987,27.46987 0 0 0 49.64151,63.6414 34.87826,34.87826 0 0 1 46.06315,60.6945 c -1.3416,-1.20421 -2.56174,-2.54807 -3.93932,-3.7068 -1.78352,-1.50019 -1.1921,-1.38535 -3.45927,-0.47756 -1.6437,0.65815 -3.26764,1.3681 -4.88383,2.09195 -1.98463,0.88884 -3.952,1.81623 -6.08844,2.80148 0.97309,0.95435 1.77183,1.82905 2.66711,2.59017 0.90189,0.76673 1.50983,1.86632 2.68878,2.37178 z"
           id="path2-1" /><path
           d="M 55.12538,71.69844 A 8.89338,8.89338 0 0 1 51.4972,73.103 14.72333,14.72333 0 0 1 55.12538,71.69844 Z"
           id="path3-1" /><path
           d="m 53.08833,73.96035 0.88508,-0.34458 0.08491,0.20336 -0.86264,0.38978 z"
           id="path4-59" /><path
           d="m 44.824,40.65674 a 4.54754,4.54754 0 0 1 0.5008,-0.57174 18.74739,18.74739 0 0 1 3.49538,-2.3995 c 1.03824,-0.49128 2.043,-1.059 3.033,-1.64295 a 0.90046,0.90046 0 0 1 0.8,-0.11 3.63449,3.63449 0 0 1 1.79038,1.25811 c 0.41028,0.48963 0.80262,0.99449 1.21762,1.48 0.41685,0.48767 0.4463,0.71953 -0.03669,1.13223 a 7.13253,7.13253 0 0 1 -1.42532,0.99317 c -1.64475,0.81531 -3.32862,1.55191 -4.97,2.3737 A 1.533,1.533 0 0 1 47.50438,43.03938 C 46.57739,42.31051 45.73363,41.47579 44.824,40.65674 Z m 0.75637,-0.18076 c 0.72685,0.7204 1.29567,1.33087 1.916,1.88355 a 1.325,1.325 0 0 0 1.5996,0.22211 c 1.327,-0.65209 2.70581,-1.19961 4.02577,-1.86463 a 24.10045,24.10045 0 0 0 2.14131,-1.35739 c -0.58042,-0.72883 -1.064,-1.36356 -1.577,-1.97348 a 1.415,1.415 0 0 0 -2.09989,-0.46175 c -1.06275,0.53572 -2.13935,1.05084 -3.16411,1.6529 -0.93691,0.55045 -1.81273,1.20499 -2.84164,1.89871 z"
           id="path5-8" /><path
           d="m 69.31494,60.054 3.0214,2.17929 c -1.55463,1.142 -3.1754,2.349 -4.81975,3.52287 a 3.515,3.515 0 0 1 -0.97325,0.30542 1.13843,1.13843 0 0 0 -0.3326,-0.902 36.97179,36.97179 0 0 1 -5.46349,-4.73637 0.92655,0.92655 0 0 1 0.15469,-1.59388 c 1.46395,-0.99562 2.94893,-1.96043 4.43,-2.93061 1.93854,-1.26983 3.87349,-2.54546 5.82572,-3.794 1.30166,-0.83245 2.63167,-1.62048 3.947,-2.43158 a 0.921,0.921 0 0 1 1.074,0.01725 12.69736,12.69736 0 0 0 3.97125,1.708 0.99029,0.99029 0 0 1 0.62461,0.511 c 0.13149,0.32879 -0.20572,0.48008 -0.46207,0.62869 -0.805,0.4667 -1.64019,0.89267 -2.39714,1.42841 -1.46722,1.03839 -2.8755,2.15972 -4.33411,3.21071 -1.10921,0.79921 -2.25777,1.54392 -3.39056,2.31031 -0.26195,0.17736 -0.53112,0.3441 -0.8757,0.56649 z m 10.47818,-7.98549 c -0.993,-0.44394 -1.837,-0.76118 -2.622,-1.18727 a 2.5256,2.5256 0 0 0 -2.94414,0.027 c -2.36109,1.62171 -4.79092,3.14329 -7.19122,4.708 Q 64.28695,57.40813 61.544,59.209 a 5.38625,5.38625 0 0 0 -0.523,0.45472 c 0.26512,0.32069 0.49466,0.58543 0.71018,0.86113 1.29093,1.65127 3.0932,2.70826 4.68352,4.00892 0.77777,0.63613 0.82141,0.58414 1.67167,-0.02968 0.2614,-0.18871 0.5177,-0.38443 0.77864,-0.57379 0.723,-0.52461 1.44718,-1.04754 2.30007,-1.66459 -0.84567,-0.60407 -1.56132,-1.13845 -2.30109,-1.637 -0.71485,-0.48181 -0.72805,-0.64009 0.01641,-1.12769 0.61918,-0.40556 1.2655,-0.77136 1.87042,-1.19656 a 12.75266,12.75266 0 0 0 1.7434,-1.37135 13.90061,13.90061 0 0 1 1.74785,-1.15811 c 1.23561,-0.92689 2.5207,-1.78878 3.80024,-2.65562 0.52469,-0.35554 1.08724,-0.65525 1.75082,-1.05086 z"
           id="path6-4" /><path
           d="m 82.43891,53.197 c 0.5015,-0.44906 1.012,-0.88856 1.50253,-1.34935 0.88622,-0.83249 1.7577,-1.68066 2.64278,-2.5144 a 3.20977,3.20977 0 0 1 0.46057,-0.30475 c 0.24056,0.37052 -0.0275,0.52278 -0.207,0.67662 Q 84.70952,51.52943 82.569,53.3395 Z"
           id="path7-8" /><path
           d="m 77.28908,55.06142 2.87543,2.56412 C 79.47649,57.6092 77.96267,56.277 77.28908,55.06142 Z"
           id="path8-1" /><path
           d="m 87.61155,41.25344 q -1.19688,-0.83273 -2.3938,-1.66548 l 0.15006,-0.223 a 14.03039,14.03039 0 0 1 2.4196,1.6704 z"
           id="path9-0" /><path
           d="m 87.09889,50.365 a 16.67381,16.67381 0 0 1 -2.07275,2.23023 L 84.837,52.41486 q 1.05584,-1.09736 2.11171,-2.19472 z"
           id="path10-3" /><path
           d="m 75.53318,56.88553 1.70026,1.64927 C 76.11156,58.108 76.09793,58.09513 75.53318,56.88553 Z"
           id="path11-0" /><path
           d="m 74.74375,58.40271 c 0.78173,0.0087 0.93306,0.7521 1.514,1.06362 -0.54269,0.12318 -1.00948,-0.23327 -1.514,-1.06362 z"
           id="path12-4" /><path
           d="M 82.569,53.3395 81.09187,54.77744 80.63163,54.179 c 0.94357,0.12374 1.17267,-0.76083 1.80728,-0.982 z"
           id="path13-44" /><path
           d="m 86.4468,41.30137 -1.75994,-1.34987 0.12626,-0.17257 a 6.9476,6.9476 0 0 1 1.79835,1.31527 z"
           id="path14-4" /><path
           d="m 77.30286,57.48913 a 2.66062,2.66062 0 0 1 -1.1396,-1.077 L 76.3,56.2653 l 1.14032,1.0764 z"
           id="path15-7" /><path
           d="m 74.92161,60.31554 -0.286,0.20042 -0.07171,-0.08313 0.28231,-0.26254 z"
           id="path16-63" /><path
           d="M 55.12293,54.41367 A 42.83974,42.83974 0 0 0 51.2278,52.02314 c -0.6447,-0.31234 -1.045,-0.98937 -1.79893,-1.0776 a 0.26579,0.26579 0 0 1 -0.14536,-0.1196 c -0.357,-0.51819 -0.70978,-1.03933 -1.12513,-1.64989 a 7.27538,7.27538 0 0 1 1.06179,-0.91948 c 1.97713,-1.148 3.97944,-2.25262 5.96635,-3.384 a 0.69689,0.69689 0 0 1 0.87626,0.041 c 1.83411,1.369 3.70357,2.69122 5.52082,4.08188 1.15557,0.8843 1.05957,1.14715 -0.25864,1.80864 -1.32085,0.6628 -2.595,1.42089 -3.87458,2.16306 -0.80553,0.46724 -1.5835,0.98203 -2.32745,1.44652 z m -1.29915,-3.66316 a 1.8415,1.8415 0 0 1 0.06365,-0.55593 c 0.43569,-0.96347 0.922,-1.90479 1.33535,-2.87731 A 3.52755,3.52755 0 0 0 55.74645,45.59397 1.14065,1.14065 0 0 0 54.6378,46.28 c -0.81344,1.527 -1.63346,3.05261 -2.37721,4.6139 -0.37974,0.79716 -0.19731,1.01987 0.65638,1.26379 l 0.92175,-1.42561 c -0.08656,0.37265 -0.20343,0.74132 -0.25305,1.11883 -0.08776,0.66772 0.06688,0.86638 0.781,1.061 l 0.94381,-1.82391 0.15874,0.06432 -0.72894,2.20925 c 0.862,0.0897 1.1427,-0.095 1.343,-0.67032 a 15.82415,15.82415 0 0 1 0.66108,-1.5894 17.33009,17.33009 0 0 0 1.44642,-3.776 l -0.67749,-0.34338 -1.77315,3.49487 A 1.5958,1.5958 0 0 1 55.8688,49.5335 c 0.31112,-0.7743 0.64243,-1.54047 0.95121,-2.31565 0.23608,-0.59262 0.22624,-0.59654 -0.595,-1.01408 -0.37294,0.73547 -0.73689,1.47768 -1.12306,2.20816 -0.41506,0.78514 -0.85101,1.55928 -1.27817,2.33858 z m -2.27433,0.602 A 27.16632,27.16632 0 0 0 53.951,46.497 1.12209,1.12209 0 0 0 52.88188,47.17558 c -0.5869,1.10089 -1.1636,2.20723 -1.75482,3.3058 -0.21683,0.40287 -0.11936,0.66523 0.42239,0.87108 z m 5.25944,1.2682 a 5.6801,5.6801 0 0 0 0.9809,-0.83839 6.65531,6.65531 0 0 0 0.49889,-1.1272 c 0.34941,-0.78719 0.70532,-1.57148 1.07419,-2.39166 l -0.73631,-0.485 c -0.59402,1.59202 -1.57524,2.9389 -1.81767,4.8422 z m 2.92223,-3.94551 c -0.36749,1.00987 -1.127,1.78858 -1.37482,2.90532 1.28708,-0.36112 1.51513,-1.41744 1.87737,-2.35816 C 60.35545,48.906 60.14205,48.756 59.73113,48.67515 Z m -9.19907,1.847 a 12.13135,12.13135 0 0 0 1.3872,-2.964 2.3317,2.3317 0 0 0 -0.74008,0.41284 22.87616,22.87616 0 0 0 -1.083,2.02613 c -0.13764,0.29383 0.10012,0.45247 0.43588,0.52503 z m -1.549,-1.27811 0.586,0.53284 0.55909,-0.99669 -0.14213,-0.12152 z m 12.33325,0.73907 -0.006,-0.2512 a 1.04971,1.04971 0 0 0 -0.53823,-0.11143 0.53927,0.53927 0 0 0 -0.19634,0.78919 z"
           id="path17-1" /><path
           d="m 83.568,36.87019 c -0.66652,0.17321 -1.34172,0.31913 -1.99712,0.52732 -0.65623,0.20844 -1.29274,0.47908 -1.96994,0.62747 1.265,-0.58775 2.42188,-1.479 3.91009,-1.42794 z"
           id="path18-7" /><path
           d="m 79.78554,35.72119 c -0.95992,-0.29237 -1.51086,0.55088 -2.4667,0.79024 a 2.34227,2.34227 0 0 1 0.36362,-0.48371 c 0.39478,-0.27144 0.799,-0.53289 1.21862,-0.76352 0.44864,-0.24655 0.68399,-0.1322 0.88446,0.45699 z"
           id="path19-5" /><path
           d="m 81.404,36.22961 -2.54838,1.21733 A 2.985,2.985 0 0 1 81.404,36.22961 Z"
           id="path20-96" /><path
           d="M 64.43119,23.20267 C 63.94405,22.84313 63.4436,22.50002 62.97363,22.11928 a 1.24192,1.24192 0 0 0 -1.42476,-0.20581 c -0.50555,0.231 -1.03881,0.40131 -1.5599,0.5983 L 59.9135,22.30952 c 0.818,-0.33336 1.63146,-0.679 2.45806,-0.98952 a 0.64314,0.64314 0 0 1 0.54947,0.04088 c 0.567,0.54827 1.09534,1.13653 1.637,1.71105 z"
           id="path21-2" /><path
           d="m 73.60069,29.03465 c -0.55092,0.15836 -0.97218,0.248 -1.36814,0.40238 -0.37969,0.148 -0.73313,0.36335 -1.17888,0.59017 a 2.0925,2.0925 0 0 1 2.54702,-0.99255 z"
           id="path22-17" /><path
           d="m 74.612,30.36479 c -1.0194,0.51334 -1.86516,0.93925 -2.72351,1.37151 A 3.36581,3.36581 0 0 1 74.612,30.36479 Z"
           id="path23-8" /><path
           d="m 69.73562,26.94318 q -1.00442,0.46273 -2.00886,0.92545 L 67.64989,27.678 a 4.01393,4.01393 0 0 1 2.03156,-0.79994 z"
           id="path24-5" /><path
           d="M 65.87307,26.10138 66.819,26.199 a 0.59733,0.59733 0 0 1 -0.88974,0.50047 l -0.146,-0.51136 q 0.04501,-0.04316 0.08981,-0.08673 z"
           id="path25-74" /><path
           d="m 69.68145,26.878 0.6219,-0.29682 0.07539,0.23357 q -0.32164,0.06409 -0.64318,0.12831 z"
           id="path26-1" /><path
           d="m 23.47015,45.44418 c 2.43806,-0.93722 4.7213,-1.79405 6.98819,-2.69214 2.33244,-0.924 4.70718,-1.77132 6.94661,-2.88672 a 2.05726,2.05726 0 0 1 2.51171,0.22433 c 1.11959,0.86669 2.271,1.69527 3.35349,2.60591 0.73,0.61413 0.68934,0.89092 -0.10014,1.38927 a 23.48423,23.48423 0 0 1 -5.3112,2.7256 c -0.79516,0.25459 -1.54879,0.63835 -2.32231,0.96094 Q 32.86274,48.88646 30.18839,50 a 5.12326,5.12326 0 0 0 -0.612,0.28079 c -0.74025,0.43152 -0.868,0.44357 -1.47806,-0.19033 -0.66865,-0.69475 -1.26014,-1.46513 -1.9434,-2.144 C 25.47352,47.26937 24.71645,46.6688 24.00071,46.02561 23.82078,45.86393 23.672,45.66756 23.47015,45.44418 Z m 1.33265,0.28489 a 13.11905,13.11905 0 0 1 1.12912,0.94477 c 0.66342,0.70129 1.29071,1.43681 1.932,2.159 0.8091,0.9112 1.17142,0.99366 2.26812,0.51492 0.29555,-0.129 0.58937,-0.26243 0.888,-0.384 1.07079,-0.43591 2.15224,-0.847 3.21262,-1.30674 1.03263,-0.44773 2.04221,-0.94831 3.06579,-1.41724 1.52028,-0.69646 3.05217,-1.36837 4.56009,-2.09048 a 5.96814,5.96814 0 0 0 1.014,-0.81653 27.11411,27.11411 0 0 0 -3.93714,-3.01045 0.883,0.883 0 0 0 -0.71563,-0.02445 57.36644,57.36644 0 0 1 -5.45207,2.22491 c -2.004,0.70238 -3.94493,1.58462 -5.91434,2.386 -0.64728,0.26343 -1.29759,0.51937 -2.05056,0.82029 z"
           id="path27-8" /><path
           d="m 80.21316,47.54308 c -0.57624,0.65044 -0.69254,0.67077 -1.02673,0.13425 -0.18321,-0.29413 -0.61858,-0.55052 -0.24535,-1.05329 z"
           id="path28-5" /><path
           d="m 50.66508,34.73047 a 0.96837,0.96837 0 0 1 -0.61553,-0.86538 q 0.36909,0.36639 0.7382,0.73273 z"
           id="path29-9" /><path
           d="m 80.36636,42.79965 -0.04849,0.37606 -0.73062,-0.36437 a 1.12067,1.12067 0 0 1 0.34211,-0.12428 3.83252,3.83252 0 0 1 0.45447,0.13131 z"
           id="path30-75" /><path
           d="m 82.85213,45.2408 a 1.67207,1.67207 0 0 1 -1.3105,-0.93555 1.89379,1.89379 0 0 1 1.3105,0.93555 z"
           id="path31-3" /><path
           d="m 83.0338,46.15485 -1.20168,-0.69225 0.11893,-0.1855 a 2.02034,2.02034 0 0 1 1.19259,0.7669 q -0.05506,0.05527 -0.10984,0.11085 z"
           id="path32-8" /><path
           d="m 25.83819,46.07027 c 0.38853,-0.39868 0.70891,-0.51341 1.05137,-0.18377 a 0.41593,0.41593 0 0 1 -0.04221,0.40276 C 26.42429,46.65367 26.19784,46.28 25.83819,46.07027 Z"
           id="path33-8" /></g></g></g></svg>
