<?xml version="1.0" encoding="UTF-8" standalone="no"?>
<!-- Created with Inkscape (http://www.inkscape.org/) -->

<svg
   width="59.981102"
   height="59.981102"
   viewBox="0 0 15.87 15.87"
   version="1.1"
   id="svg1"
   xml:space="preserve"
   xmlns="http://www.w3.org/2000/svg"
   xmlns:svg="http://www.w3.org/2000/svg"><defs
     id="defs1" /><g
     id="layer8"
     style="display:inline"
     transform="translate(37.665899,-19.177151)"><g
       id="g20"
       transform="matrix(0.01133112,0,0,0.01133112,-36.573093,20.457238)"><path
         d="m 570.09,962.38 c -5.125,-5.293 -11.922,-8.6641 -19.242,-9.5352 -7.3164,-0.87109 -14.715,0.80469 -20.941,4.75 -4.7852,2.5078 -10.449,2.707 -15.398,0.53906 -9.168,-11.82 -20.5,-5.8984 -31.242,-6.0703 -53.754,-0.86328 -107.5,-2.1328 -161.26,-2.875 -27.223,-0.375 -54.48,-0.61328 -81.68,0.32812 -31.273,1.082 -62.555,2.9141 -93.719,5.6797 -4.7578,1.3242 -9.8594,0.14453 -13.555,-3.1328 -3.6953,-3.2734 -5.4766,-8.1992 -4.7344,-13.082 -0.83984,-20.047 -0.0625,-40.172 -1.2852,-60.184 -8.6406,-141.33 -0.44141,-282.77 -3.0664,-424.12 -0.47656,-25.645 -3.3359,-51.246 -5.2031,-76.855 -2.8008,-38.371 -5.5625,-76.742 -8.6484,-115.09 h -0.004 c -0.71484,-4.043 0.52344,-8.1836 3.3398,-11.172 2.8164,-2.9844 6.8789,-4.4648 10.957,-3.9883 33.516,-3.4414 66.992,-8.5078 100.59,-9.5547 38.461,-1.1992 77.051,0.92188 115.56,2.1641 48.906,1.5742 97.789,5.1367 146.69,5.1758 41.668,0.0352 83.324,-4.0977 125.01,-5.5977 18.379,-0.66016 36.84,1.25 55.246,0.91797 40.121,-0.72266 80.23,-3.2422 120.34,-3.0469 88.359,0.4375 176.71,1.9492 265.07,3.3672 23.312,0.375 27.891,6.9531 23.859,29.516 v -0.004 c -1.4727,7.8867 -1.9766,15.922 -1.4961,23.926 2.5938,36.812 6.3555,73.547 8.457,110.38 1.3711,24.008 0.7539,48.133 0.7852,72.207 0.07,57.027 0.5781,114.06 -0.2032,171.08 -0.6132,44.957 -4.6992,89.926 -3.9062,134.83 0.793,44.863 5.3477,89.688 9.0273,134.46 1.8867,22.973 -0.3085,26.723 -23.043,29.297 v -0.004 c -3.1953,0.36328 -6.4102,0.54688 -9.625,0.55469 -104.32994,0.21484 -208.65994,0.0781 -312.98994,0.78125 -30.43,0.20312 -60.832,3.1953 -91.27,4.0703 v 0.004 c -13.633,0.30469 -27.27,-0.44531 -40.789,-2.2383 -15.637,-1.9844 -30.309,-2.4609 -41.633,12.52 z m 315.06,-667.66 1.5078,1.8711 c 3.3086,5.1055 8.4453,8.7539 14.355,10.195 5.9102,1.4453 12.148,0.58203 17.438,-2.418 8.9648,-3.5547 18.219,-6.3164 27.66,-8.2617 4,-0.23828 8.0117,0.16406 11.887,1.1836 l 0.86328,4.7422 c -12.734,4.5742 -25.469,9.1523 -41.254,14.82 8.4883,5.2891 13.664,8.5156 19.844,12.363 29.309,-24.09 57.949,-47.637 86.59402,-71.184 l -2.0234,-5.3594 v 0.008 c -28.67602,-1.9648 -57.46502,-1.6211 -86.08602,1.0195 -27.281,6.5898 -53.965,15.453 -79.766,26.496 l -2.0039,-4.5977 c 13.402,-7.0039 26.801,-14.012 40.203,-21.016 l -1.4062,-4.5352 c -15.406,2.3984 -33.066,1.0117 -45.488,8.4141 h -0.004 c -8.2773,5.8711 -18.074,9.2227 -28.211,9.6484 -9.6758,0.0586 -19.34,1.8164 -32.422,3.1836 14.602,7.5898 26.668,13.863 38.734,20.133 -28.875,0.54297 -54.301,-25.551 -84.84,-6.9062 l 10.352,14.684 c -27.766,-7.7773 -27.742,-7.707 -58.484,1.8047 v 0.004 c -3.543,-0.0117 -7.0586,-0.61328 -10.398,-1.7812 8.6211,-6.0625 14.223,-10.008 20.355,-14.32 -18.75,-9.7109 -36,-18.559 -53.168,-27.566 -3.5898,-1.8477 -7.7461,-2.2773 -11.637,-1.1992 -3.8906,1.0742 -7.2383,3.5781 -9.3672,7.0078 12.781,14.254 33.805,12.426 44.797,27.34 -5.4219,1.1484 -11.066,0.51562 -16.094,-1.8086 -18.805,-11.781 -42.691,-10.621 -60.566,-24.75 -16.992,-13.43 -33.121,-8.6641 -51.211,4.332 20.164,11.055 42.602,12.91 57.457,29.059 -38.238,-9.3516 -74.203,-26.754 -118.73,-32.848 l 19.789,17.703 -0.004,-0.004 c -10.578,1.3789 -21.324,-0.58203 -30.734,-5.6094 -14.133,-9.9492 -26.59,-6.3945 -40.859,-2.0312 -8.7109,3.7031 -18.484,4.0469 -27.438,0.96875 -19.891,-13.285 -46.719,-2.9375 -64.66,-20.922 v 0.004 c -3.7422,-1.4609 -7.832,-1.7969 -11.762,-0.96094 -40.172,0.0312 -80.352,-0.28125 -120.51,0.4375 -16.848,0.30859 -33.504,3.6445 -49.168,9.8555 4.4492,4.1602 6.668,6.4492 9.1016,8.4883 86.734,72.617 172.37,146.61 260.71,217.22 44.98,35.945 95.059,65.484 142.37,98.574 18.395,12.863 34.223,8.5859 50.102,-3.6328 2.543,-1.957 4.8984,-4.1484 7.3867,-6.1836 49.09,-40.113 98.168,-80.238 147.24,-120.37 4.7422,-3.8828 9.0234,-8.332 13.52,-12.516 l -1.6094,-3.3906 c -13.41,3.2266 -26.82,6.457 -40.23,9.6836 14.609,-15.051 33.723,-18.18 51.852,-23.254 l 0.004,0.004 c 17.148,-4.5078 32.953,-13.094 46.07,-25.027 7.0508,-6.4883 15.309,-11.648 22.676,-17.82 3.6484,-3.8359 6.9844,-7.957 9.9766,-12.32 -34.789,8.7461 -65.195,16.387 -95.602,24.031 v -0.004 c 3.3867,-1.9336 5.7695,-5.2383 6.543,-9.0586 0.77344,-3.8203 -0.14453,-7.793 -2.5078,-10.891 10.125,2.1797 20.5,2.9766 30.844,2.3789 21.926,-4.4766 43.066,-13.039 65.062,-16.852 v 0.004 c 17.141,-4.168 32.48,-13.75 43.746,-27.324 -5.4805,-5.9336 -12.637,-10.051 -20.516,-11.809 -7.8828,-1.7539 -16.113,-1.0625 -23.59,1.9844 l 3.5078,-15.031 c -8.4023,-5.3125 -16.215,-10.25 -24.023,-15.188 l 1.1406,-3.4492 z M 741.01,850.31 c 23.898,8.7734 48.828,15.812 64.129,40.023 -8.0312,-2.4727 -16.062,-4.9453 -24.48,-7.543 -24.98,13.66 -42.168,38.727 -70.684,51.113 v -21.281 c 5.2539,-3.6758 10.352,-7.2422 15.398,-10.773 -14.57,-22.504 -30.215,-0.45703 -48.309,-1.6367 6.7734,-8.2109 11.621,-14.082 17.52,-21.23 h 0.004 c -2.8516,-1.2695 -5.9141,-1.9844 -9.0312,-2.1016 -13.613,14.27 -32.41,21.043 -48.547,32.383 6.2148,5.4023 11.406,9.918 19.727,17.148 -40.109,-5.707 -40.109,-5.707 -51.578,9.4258 5.4648,0 10.266,0.0781 15.062,-0.0117 62.562,-1.1875 125.12,-2.7891 187.69,-3.5117 80.293,-0.92578 160.59,-1.0625 240.89,-1.7148 22.582,-0.18359 24.434,-4.4844 22.934,-27.672 -3.1562,-48.758 -6.3906,-97.633 -6.3047,-146.46 0.1602,-91.469 2.875,-182.93 4.0508,-274.39 0.3359,-26.172 -13.551,-34.906 -39.34,-26.598 -11.426,3.6797 -23.074,6.668 -34.621,9.9688 l -1.9844,-5.543 40.504,-20.391 c -10.363,-7.9961 -18.145,-14 -28.633,-22.09 23.781,0.40625 38.434,26.434 61.09,12.941 2.7891,-19.145 2.75,-19.094 -9.8398,-28.164 -13.664,-9.8438 -27.25,-19.793 -40.867,-29.695 16.605,7.1094 33.215,14.219 50.656,21.688 -1.1914,-16.148 -2.3984,-32.488 -3.6367,-49.238 -28.195,8.4102 -36.625,13.559 -46.699,27.914 l -19.277,-0.004 -0.81641,-4.2578 c 22.05501,-12.508 44.10901,-25.02 66.84801,-37.914 -1.7734,-21.797 -3.457,-42.473 -5.0625,-62.152 -5.6172,3.9531 -11.914,8.1602 -17.945,12.715 -4.0625,2.1055 -7.4805,5.2617 -9.9023,9.1406 -6.0312,15.52 -18.242,27.836 -33.71101,33.988 -4.918,2.6562 -9.2969,6.2031 -12.914,10.461 -12.562,14.461 -27.375,26.801 -43.867,36.543 -16.691,10.477 -36.496,20.969 -45.746,36.82 -7.4727,11.617 -17.773,21.148 -29.934,27.699 -12.398,8.0977 -31.055,7.4922 -35.098,26.633 -20.801,12.477 -41.598,24.953 -62.398,37.43 l -5.7305,-6.2266 c 8.6836,-6.2148 17.363,-12.434 26.047,-18.648 l -3.1719,-3.6914 c -20.285,19.5 -46.848,31.477 -63.227,55.156 -3.8281,7.75 -10.566,13.672 -18.746,16.477 -14.551,5.1094 -26.75,15.32399 -34.34,28.746 9.3789,-4.94921 18.762,-9.89841 28.141,-14.84401 v -0.004 c 1.2188,3.0312 0.56641,6.4961 -1.668,8.875 -28.516,17.523 -54.875,38.531 -87.988,48.355 -11.781,4.707 -25.082,3.6875 -36.008,-2.7617 -84.844,-48.504 -159.23,-111.12 -234.27,-172.77 -59.551,-48.926 -117.83,-99.398 -177.01,-148.79 h -0.004 c -8.5742,-6.0117 -17.617,-11.332 -27.039,-15.898 0,27.77 -1.9141,51.844 0.39844,75.5 6.0352,48.641 8.1211,97.691 6.2461,146.67 -1.0195,16.008 -0.32812,32.133 -0.19922,48.203 0.34766,42.586 2.9414,85.277 0.78125,127.73 -4.2656,83.703 2.0703,167.01 5.4844,250.45 0.59375,5.043 1.4688,10.043 2.6172,14.988 10.855,0.36328 21.684,1.3789 32.461,0.97266 44.746,-1.6875 89.473,-5.2266 134.22,-5.4336 65.023,-0.30469 130.06,1.7461 195.09,2.5625 h -0.004 c 5.5586,0.62891 11.18,-0.32812 16.215,-2.7617 14.871,-10.332 28.891,-21.891 43.926,-33.527 -32.75,-21.512 -32.977,-21.91 -62.621,-4.9297 -16.699,9.5703 -32.414,20.84 -48.77,31.031 h 0.004 c -3.5859,1.7344 -7.3516,3.0586 -11.23,3.957 19.5,-31.52 56.73,-37.84 79.863,-63.156 13.812,5.2383 27.309,11.281 40.41,18.098 16.301,9.6328 28.449,-3.9805 45.535,-7.4883 -2.6289,5.5391 -3.6328,8.1953 -5.082,10.578 -1.8125,2.9844 -3.9922,5.7461 -6.1406,8.7773 22.539,12.316 22.539,12.316 41.152,-7.2656 -3.6953,-4.2109 -7.4102,-8.4414 -14.488,-16.508 22.895,5.082 43.344,16.594 51.586,-13.039 17.504,11.133 33.879,18.816 53.086,9.0234 -3.6953,4.6016 -7.3906,9.207 -11.152,13.891 24.285,16.977 28.562,16.094 46.676,-8.8516 -8.7695,-7.6445 -17.57,-15.316 -26.398,-23.012 z M 542.8,934.298 h 0.004 c 10.984,3.2227 22.695,2.9883 33.539,-0.67578 10.848,-3.6602 20.301,-10.574 27.082,-19.797 -3.7344,-4.9258 -9.4297,-7.9844 -15.602,-8.3711 -6.1723,-0.3867 -12.207,1.9336 -16.527,6.3516 -8.3555,6.9844 -17.082,13.52 -28.492,22.492 z m 204.73,-679.93 -0.52344,-4.2031 c -21.828,1.8984 -43.66,3.7969 -65.488,5.6953 17.902,10.02 33.641,27.305 57.641,15.492 -5.8672,-3.8125 -10.215,-6.6367 -18.844,-12.242 12.742,-2.2188 19.98,-3.4805 27.215,-4.7422 z m 199.65,86.168 -37.598,31.043 3.418,4.1836 c 13.051,-10.027 29.172,-16.164 34.18,-35.227 z m -522.99,-71.957 0.91797,-7.6836 c -6.8398,-1.2305 -13.637,-6.6602 -23.016,3.7344 8.7578,1.5625 15.426,2.7578 22.098,3.9492 z m 348.78,-10.867 0.39844,2.2734 c 3.0859,0 6.1875,0.20703 9.25,-0.0664 v -0.004 c 2.3711,-0.21094 4.7031,-0.76953 6.9141,-1.6562 1.7383,-0.91406 3.375,-2.0117 4.8789,-3.2695 l -1.6328,-2.6719 c -6.6016,1.7969 -13.207,3.5938 -19.812,5.3945 z m 31.609,195.42 1.8086,2.9492 11.508,-9.2461 -1.1992,-1.7383 c -4.0391,2.6758 -8.0781,5.3555 -12.117,8.0312 z m -189.07,-194.71 0.66016,-3.0547 -7.543,-1.2539 -0.51953,2.3398 z m 214.5,-5.3086 0.30859,-3.6328 -9.375,-0.4375 -0.25781,2.9531 z"
         id="path1-31" /><path
         d="m 943.82,811.94 c -15.047,-7.8398 -33.109,-7.1836 -47.547,1.7305 17.074,-25.176 47.586,-25.172 70.648,-38.754 l -2.3203,-9.5078 c 19.902,2.0312 39.562,4.0391 62.73,6.4062 -6.0859,4.793 -9.418,7.418 -14.781,11.641 10.324,5.5508 19.73,10.609 33.258,17.883 -23.668,10.918 -48.305,10.277 -71.406,24.289 18.918,12.504 35.746,23.633 52.578,34.758 l -1.3242,3.7188 c -3.3125,0.30078 -6.6523,-0.0234 -9.8477,-0.95312 -13.66,-7.3203 -26.512,-1.3516 -39.707,1.3867 -23.012,4.7734 -46.113,9.1055 -69.176,13.621 l -1.3516,-4.9414 c 9.1992,-3.3906 18.398,-6.7852 28.352,-10.457 l -5.5938,-11.469 1.4766,-1.7734 c 18.289,8.6016 39.5,8.3906 57.613,-0.57422 -16.691,-21.832 -37.242,-20.555 -60.613,-15.875 3.5039,-3.0586 7.3398,-5.7148 11.438,-7.918 2.6914,-0.81641 4.8672,-2.8203 5.9062,-5.4375 1.0352,-2.6172 0.82422,-5.5625 -0.57812,-8.0078 24.727,6.6914 45.602,-3.6172 68.10902,-13.59 -22.94502,-17.293 -41.17602,-16.316 -75.37102,2.5273 2.5,3.7695 5.0039,7.5352 7.5078,11.297 z"
         id="path2-94" /><path
         d="m 915,683.43 c 18.801,-10.871 37.602,-21.738 57.508,-33.246 -17.84,-23.996 -38.281,-8.9766 -62.992,-2.5938 l -0.004,-0.004 c 17.031,-15.082 37.219,-26.156 59.09,-32.41 18.988,-7.3242 36.711,-20.293 62.566,-18.059 -18.969,24.262 -48.07,16.008 -66.297,32.773 12.16,19.074 30.848,14.734 52.039,12.387 l -10,14.137 c 10.184,6.7773 20.367,13.559 30.559,20.34 v 0.004 c -5.3828,1.7266 -11.16,1.8008 -16.586,0.21484 -5.4297,-1.5859 -10.258,-4.7578 -13.863,-9.1094 -4.6758,-4.3789 -10.66,-7.0977 -17.031,-7.7422 -6.3672,-0.64453 -12.773,0.82031 -18.23,4.1719 -17.773,8.6133 -36.105,16.066 -54.195,24.02 z"
         id="path3-784" /><path
         d="m 953.68,522.8 c 6.6602,-4.7383 13.324,-9.4766 20.449,-14.543 l -6.0977,-12.328 c 12.945,2.8555 23.625,12.574 36.352,5.8906 9.2969,-4.8828 24.621,1.0742 27.648,-16.906 7.6133,4.6602 14.742,9.0234 25.055,15.336 -17.32,4.543 -31.23,8.1875 -48.5,12.715 13.324,11.363 23.633,20.156 33.941,28.949 -11.41,0.13281 -22.32,-4.6953 -29.895,-13.227 -5.4219,-5.3984 -12.5,-8.8125 -20.098,-9.6992 -7.5977,-0.89062 -15.27,0.80078 -21.789,4.8008 -4.8398,1.7578 -9.8984,2.832 -15.035,3.1914 z"
         id="path4-50" /><path
         d="m 1027.4,551.95 -18.496,10.102 5.6953,11.703 c -1.6602,0.87109 -3.4922,1.3594 -5.3672,1.4297 -14.203,-10.402 -28.684,-6.3945 -42.984,-0.73828 -10.418,4.1172 -20.434,9.2344 -30.824,13.426 -4.1992,1.543 -8.7695,1.7539 -13.09,0.59766 13.594,-15.738 34.836,-17.605 52.531,-29.375 -6.0156,-6.3281 -11.195,-11.781 -16.379,-17.23 l 1.3398,-2.9141 c 10.121,6.125 21.105,10.691 32.582,13.547 11.543,-0.63672 22.914,-3.082 33.695,-7.2422 z"
         id="path5-36" /><path
         d="m 987.11,705.51 c -12.469,1.0352 -24.875,2.7148 -37.172,5.0391 -14.453,3.418 -28.445,8.793 -48.004,15.031 12.484,-16.016 26.695,-17.863 38.773,-22.848 h 0.004 c 12.184,-5.4219 24.879,-9.6016 37.898,-12.48 13.004,-2.4844 25.133,-13.602 44.688,-5.4531 -8.3438,4.4375 -12.785,6.6016 -17.035,9.1016 -6.5273,3.8398 -12.922,7.9102 -19.371,11.883 z"
         id="path6-1" /><path
         d="m 875.86,765.52 c 38.684,-21.559 80.977,-35.867 124.8,-42.223 -13.805,16.121 -29.293,13.059 -41.449,17.992 -14.074,5.7148 -28.43,10.809 -42.895,15.457 -12.719,5.7383 -26.508,8.7266 -40.461,8.7734 z"
         id="path7-06" /><path
         d="m 881.16,887 c -34.445,-6.1484 -60.875,-28.168 -94.258,-45.055 19.594,-0.75391 57.988,17.727 94.258,45.055 z"
         id="path8-32" /><path
         d="m 986.89,705.78 c 25.344,0.57812 38.551,19.48 54.328,34.496 -20.504,-7.2031 -39.035,-19.109 -54.105,-34.766 z"
         id="path9-061" /><path
         d="m 1027.3,397.93 c -16.477,5.7695 -32.957,11.539 -49.434,17.309 l -1.7109,-4.8008 c 16.434,-7.1445 29.336,-23.875 50.578,-17.977 z"
         id="path10-55" /><path
         d="m 928.34,851.29 c -10.039,-1.168 -19.945,-3.3047 -29.574,-6.3789 -4.8359,-4.9453 -8.5,-10.914 -10.719,-17.465 17.273,5.1133 32.156,8.2031 41.766,22.074 z"
         id="path11-4" /><path
         d="m 740.94,850.41 c -9.7891,-3.2773 -19.574,-6.5508 -29.363,-9.8242 l 2.1211,-4.8906 h -0.004 c 5.5078,-0.6875 11.094,0.34766 15.988,2.9648 4.8906,2.6211 8.8516,6.6914 11.336,11.656 z"
         id="path12-76" /><path
         d="m 832.39,802.73 c 2.8789,-0.35938 5.7969,-0.30078 8.6602,0.16797 3.8047,1.2227 6.793,4.1875 8.0469,7.9766 -5.6094,-1.1953 -11.219,-2.3906 -16.828,-3.5898 z"
         id="path13-5" /><path
         d="m 885.15,294.72 c 28.379,-12.184 58.211,-20.652 88.754,-25.195 -11.449,14.18 -49.852,25.105 -87.254,27.055 z"
         id="path14-69" /><path
         d="m 728.81,428.23 c 4.0664,2.1094 8.1367,4.2188 12.203,6.3281 l -1.3828,3.0781 c -2.8008,-0.64453 -5.5312,-1.5625 -8.1562,-2.7383 -1.6133,-1.3125 -2.9883,-2.8945 -4.0664,-4.6719 z"
         id="path15-37" /></g></g></svg>
