<?xml version="1.0" encoding="UTF-8" standalone="no"?>
<!-- Created with Inkscape (http://www.inkscape.org/) -->

<svg
   width="59.981102"
   height="59.981102"
   viewBox="0 0 15.87 15.87"
   version="1.1"
   id="svg1"
   xml:space="preserve"
   xmlns="http://www.w3.org/2000/svg"
   xmlns:svg="http://www.w3.org/2000/svg"><defs
     id="defs1" /><g
     id="layer7"
     style="display:inline"
     transform="translate(-0.04123476,-18.211574)"><g
       style="fill:#000000"
       id="g1"
       transform="matrix(0.16230726,0,0,0.16230726,-0.06360015,18.06092)"><g
         id="g87"><path
           d="m 64.48129,23.43938 c 1.04535,-0.98038 1.96791,-1.93014 2.97817,-2.77511 1.95218,-1.63277 3.97491,-3.18113 5.92747,-4.81348 1.29723,-1.08449 2.52342,-2.254 3.88724,-3.48063 0.10826,-0.017 0.39958,-0.067 0.69223,-0.10737 a 0.438,0.438 0 0 1 0.57569,0.50282 c -0.01576,0.63553 -0.04565,1.27118 -0.04188,1.90662 0.0099,1.66365 0.04622,3.32721 0.04725,4.99082 3.3e-4,0.576 -0.10179,1.15171 -0.10676,1.728 Q 78.402,25.8769 78.392,30.363 c -0.0053,1.83058 -0.01015,3.66141 0.01433,5.49173 0.04174,3.12237 0.12812,6.24427 0.15279,9.36674 0.01205,1.52615 -0.11787,3.05353 -0.10284,4.57954 0.02239,2.27349 0.1179,4.54622 0.17844,6.81938 0.01533,0.57476 0.024,1.14991 0.02246,1.72483 -0.0078,2.92276 -0.05649,5.846 -0.01491,8.76806 0.02073,1.456 0.25952,2.90824 0.29648,4.3648 0.03,1.18419 -0.13213,2.37208 -0.13729,3.55864 a 18.95853,18.95853 0 0 0 0.17684,2.83757 1.47191,1.47191 0 0 1 -0.546,1.51668 c -1.49033,1.23563 -2.998,2.45439 -4.42809,3.7575 -1.5795,1.43923 -3.07747,2.96785 -4.6168,4.45149 q -1.86974,1.802 -3.75593,3.587 c -0.2175,0.20587 -0.47276,0.37186 -0.71856,0.56249 a 1.80481,1.80481 0 0 1 -1.16407,-1.1145 2.13286,2.13286 0 0 0 -0.868,-1.087 c -2.62129,-1.93673 -5.24841,-3.86586 -7.85188,-5.82636 -1.35372,-1.0194 -2.6615,-2.09967 -3.99311,-3.14854 -0.47548,-0.37453 -0.96,-0.73758 -1.475,-1.13239 -0.95907,0.69509 -1.88974,1.31639 -2.76113,2.01195 -1.93748,1.54639 -3.86534,3.10621 -5.759,4.70571 -1.58034,1.33487 -3.10415,2.73649 -4.65741,4.10352 -0.70881,0.62383 -0.74689,0.60768 -1.45475,0.06544 -1.71822,-1.31618 -3.44968,-2.615 -5.16923,-3.9294 C 28.009,85.06 26.27138,83.7054 24.51794,82.37157 23.8693,81.87813 23.19494,81.41811 22.52562,80.95236 a 0.69649,0.69649 0 0 1 -0.273,-1.02488 3.6965,3.6965 0 0 0 0.204,-1.3782 c 0.03491,-0.87808 0.03834,-1.75812 0.02952,-2.63709 -0.01766,-1.76206 -0.033,-3.52453 -0.08659,-5.2857 -0.03822,-1.25491 -0.13872,-2.50787 -0.20927,-3.76182 -0.1813,-3.22226 -0.40321,-6.443 -0.52877,-9.66741 -0.10047,-2.57957 -0.0703,-5.164 -0.1223,-7.74583 -0.0445,-2.20727 -0.13675,-4.41355 -0.18306,-6.62082 q -0.061,-2.90491 -0.06357,-5.811 0.0027,-3.621 0.06331,-7.24184 c 0.01862,-1.21737 0.13389,-2.43455 0.11926,-3.65077 -0.01836,-1.52765 -0.13548,-3.05386 -0.19124,-4.58139 -0.09283,-2.54443 -0.17047,-5.08939 -0.25539,-7.63412 a 2.76672,2.76672 0 0 1 -0.0212,-0.6055 1.05424,1.05424 0 0 1 0.26867,-0.66909 0.9986,0.9986 0 0 1 0.83817,0.01163 c 0.98265,0.65612 1.92913,1.36736 2.87671,2.07481 q 3.0565,2.282 6.09878,4.58289 c 1.05171,0.80007 2.07432,1.63835 3.11048,2.45884 0.18625,0.14751 0.36668,0.30412 0.56329,0.43646 a 1.31221,1.31221 0 0 0 1.6849,-0.0177 c 1.03323,-0.773 2.1006,-1.50064 3.15864,-2.24014 q 4.33648,-3.03086 8.67519,-6.05856 c 0.52842,-0.37029 1.04024,-0.76571 1.54386,-1.16935 a 0.6987,0.6987 0 0 1 1.00254,-0.02931 c 1.20192,1.03872 2.35616,2.13889 3.61166,3.108 2.84829,2.19859 5.74774,4.33085 8.62191,6.49605 0.45621,0.34373 0.88908,0.71836 1.41917,1.14886 z M 76.03651,60.088 c -0.48094,0.3063 -0.97665,0.59208 -1.43907,0.9242 a 1.75579,1.75579 0 0 0 -0.74775,1.66487 c 0.02645,0.33685 0.23947,0.23847 0.4279,0.2243 A 4.147,4.147 0 0 0 73.958,64.542 a 12.78444,12.78444 0 0 1 0.01346,2.54344 c 0.02031,0.36581 0.04631,0.73129 0.07013,1.10311 l 0.45353,0.02551 a 6.15365,6.15365 0 0 0 -0.39423,0.81111 0.59306,0.59306 0 0 0 0.34818,0.8755 c -0.58343,1.26408 -0.56291,1.95051 0.09707,2.69918 a 3.76975,3.76975 0 0 0 1.78429,-1.08916 2.39317,2.39317 0 0 1 0.84049,-0.52036 0.933,0.933 0 0 0 0.76382,-1.21849 c -0.01325,-0.30527 -0.0076,-0.61129 -0.01789,-0.91672 -0.04532,-1.34277 -0.09332,-2.68544 -0.14955,-4.2912 -0.4135,0.49548 -0.65652,0.80506 -0.91881,1.09739 -0.67635,0.7538 -1.36115,1.5 -2.04262,2.24919 a 5.64223,5.64223 0 0 1 0.51145,-0.96193 c 0.61225,-0.76309 1.2773,-1.48357 1.90113,-2.23773 a 1.46012,1.46012 0 0 0 0.52331,-1.04381 c -0.0562,-1.247 -0.04007,-2.49723 -0.0612,-3.746 -0.0036,-0.21267 -0.04865,-0.42464 -0.0815,-0.69408 l -1.11663,0.8491 z m -3.45005,5.119 a 4.60528,4.60528 0 0 1 0.28895,-0.62869 2.23164,2.23164 0 0 0 0.102,-2.04128 l -0.38879,0.21832 a 7.17371,7.17371 0 0 1 2.05181,-3.0883 c 0.066,0.28592 0.23607,0.2905 0.44415,0.15555 0.62343,-0.40429 1.24314,-0.8143 1.866,-1.21948 a 1.83727,1.83727 0 0 0 0.648,-2.50281 c -0.40591,0.47161 -0.78185,0.89327 -1.14086,1.32889 -0.61645,0.74792 -1.22225,1.50458 -1.83248,2.25759 a 6.075,6.075 0 0 1 0.40288,-0.8147 q 1.21315,-1.7588 2.46266,-3.4924 a 0.91539,0.91539 0 0 0 0.21131,-1.057 23.33028,23.33028 0 0 0 -2.407,1.55274 24.98894,24.98894 0 0 0 -2.06159,2.14705 l 0.49761,-1.23055 a 74.49582,74.49582 0 0 0 -9.1596,6.10987 c 0.18941,1.36957 -0.337,2.85783 0.23317,4.3811 1.83142,-1.26176 3.47357,-2.70652 5.44371,-3.91615 0.18718,0.58144 0.32428,1.0073 0.5008,1.55575 0.38227,-0.51276 0.6828,-0.95592 1.02643,-1.36272 a 8.89492,8.89492 0 0 1 0.78909,-0.74255 22.62013,22.62013 0 0 1 -1.3011,2.02548 2.20687,2.20687 0 0 0 -0.31577,2.15744 c 0.53339,-0.58409 1.01947,-1.1164 1.50554,-1.64869 -0.349,0.57175 -0.66733,1.16555 -1.05682,1.7083 a 1.93994,1.93994 0 0 0 -0.43254,1.40652 c 0.08554,0.8374 0.088,1.683 0.14118,2.52412 a 7.176,7.176 0 0 0 0.13239,0.76881 c 0.50017,-0.46811 0.93881,-0.87869 1.37726,-1.289 -0.35678,0.57117 -0.698,1.15286 -1.07534,1.71008 a 1.16824,1.16824 0 0 0 -0.18876,1.38225 8.22586,8.22586 0 0 0 1.93487,-2.58928 1.90176,1.90176 0 0 0 -0.11393,-0.62969 l -0.57544,0.14456 a 4.98834,4.98834 0 0 0 0.7199,-2.59188 0.473,0.473 0 0 0 -0.65185,-0.53386 2.8203,2.8203 0 0 0 0.46087,-2.3937 z m 2.46409,-20.44 v 0.53114 a 9.14385,9.14385 0 0 0 2.39239,-1.494 0.76423,0.76423 0 0 0 0.26072,-0.5133 c 0.03674,-0.45144 0.01212,-0.9079 0.01212,-1.36235 l -0.21312,-0.095 c -0.26592,0.27694 -0.55171,0.53766 -0.79381,0.83407 -0.5695,0.6972 -1.11811,1.41142 -1.67514,2.11878 l 1.078,-2.12741 a 1.93861,1.93861 0 0 1 -0.8774,-2.00984 2.02535,2.02535 0 0 0 -0.0789,-1.5678 0.47746,0.47746 0 0 1 -0.019,-0.37986 c 0.53058,-1.20731 0.22313,-2.4666 0.242,-3.70461 a 0.43013,0.43013 0 0 0 -0.12076,-0.16167 l -0.53848,0.429 -0.18076,-0.09679 a 3.22858,3.22858 0 0 0 0.78182,-3.06785 l -0.897,0.84757 A 12.22807,12.22807 0 0 1 77.137,28.7335 2.46073,2.46073 0 0 0 77.57665,26.55899 c -1.21831,1.29883 -1.91872,2.73124 -2.91317,3.96213 a 1.48757,1.48757 0 0 1 0.19964,-0.72037 c 0.76644,-1.19821 1.48962,-2.43178 2.3529,-3.55721 a 2.49319,2.49319 0 0 0 0.37451,-2.07268 c -0.43984,0.55672 -0.7425,0.94781 -1.05483,1.33107 a 1.30865,1.30865 0 0 1 -0.39395,0.40584 c -0.51243,-0.23063 -0.64677,0.24709 -0.91046,0.45151 a 16.88581,16.88581 0 0 1 -1.584,1.26133 4.31889,4.31889 0 0 1 -1.43593,0.412 0.59158,0.59158 0 0 1 -0.48,-0.26311 2.39618,2.39618 0 0 1 -0.37289,-1.0307 c -0.0098,-0.94181 0.05935,-1.8858 0.1277,-2.82672 a 16.77681,16.77681 0 0 0 -0.15136,-3.55121 l -0.77983,0.72975 0.0097,0.0086 q 0.34715,-0.87325 0.69422,-1.74647 l -0.18437,-0.08282 c -0.27514,0.37821 -0.53672,0.76754 -0.83271,1.12869 a 0.77944,0.77944 0 0 1 -0.4479,0.2727 0.69715,0.69715 0 0 0 -0.76733,0.841 c 0.04762,0.84218 0.08626,1.6849 0.14017,2.52665 0.026,0.406 0.07953,0.81029 0.11789,1.21561 0.11494,1.21425 0.20972,2.43075 0.34813,3.6423 a 2.52415,2.52415 0 0 1 -1.18088,2.529 c -0.86326,0.58535 -1.76771,1.11038 -2.65892,1.65394 a 1.19988,1.19988 0 0 0 -0.86788,1.0144 c 0.009,1.21183 0.0027,2.42376 0.0027,3.614 a 0.98448,0.98448 0 0 0 0.33735,0.0412 24.564,24.564 0 0 0 4.92833,-3.19766 7.99588,7.99588 0 0 1 3.23429,-2.01427 l -0.0178,-0.01541 0.35774,1.03288 c 0.25291,-0.23525 0.46361,-0.43121 0.67439,-0.62737 -0.18137,0.43226 -0.38126,0.85784 -0.54,1.29831 a 1.878,1.878 0 0 0 0.1349,2.04876 10.236,10.236 0 0 0 -0.37643,1.52231 c -0.146,1.64518 -0.26808,3.29382 -0.33852,4.94373 a 10.41021,10.41021 0 0 0 0.17054,2.01446 4.67681,4.67681 0 0 0 0.43343,0.99836 c 0.45495,-0.39912 0.78962,-0.69264 1.12458,-0.98648 z M 51.98993,23.55292 C 51.79208,22.54478 51.8511,21.46934 51.04918,20.53203 l 0.645,0.15021 a 2.04445,2.04445 0 0 0 -0.8052,-2.24547 0.95927,0.95927 0 0 0 -0.105,0.28032 c -0.003,1.147 -0.0075,2.29433 0.01613,3.441 a 0.83989,0.83989 0 0 0 0.23188,0.51686 c 0.30349,0.309 0.64775,0.57792 0.97557,0.863 a 1.45443,1.45443 0 0 0 0.11344,0.37866 14.26752,14.26752 0 0 0 4.31615,4.38989 c 2.33541,1.50686 4.73868,2.90867 7.11815,4.34677 a 3.63279,3.63279 0 0 0 0.68527,0.21823 c 0,-0.97747 -0.01069,-1.8536 0.0023,-2.72938 0.02453,-1.65854 0.07194,-3.31678 0.0891,-4.97534 a 1.24559,1.24559 0 0 0 -0.60062,-1.101 c -1.72727,-1.19617 -3.44731,-2.405 -5.12951,-3.66334 -1.30075,-0.973 -2.55263,-2.01286 -3.80492,-3.04877 C 53.8043,16.53255 52.85508,15.659 51.86286,14.83736 a 1.97211,1.97211 0 0 0 -1.22117,-0.55267 c 0.34837,0.7716 0.64275,1.44045 0.9537,2.10147 a 1.39637,1.39637 0 0 0 0.33791,0.50106 c 0.78928,0.63122 1.59554,1.24129 2.398,1.85585 1.45332,1.113 2.89439,2.24267 4.36668,3.33 1.1972,0.88413 2.40348,1.76345 3.66685,2.5463 a 1.66609,1.66609 0 0 1 0.86727,0.99011 c -0.76949,1.63985 -0.3634,3.38271 -0.43859,5.00711 a 0.98608,0.98608 0 0 1 -1.19845,-0.26325 q -2.20637,-1.46252 -4.40183,-2.94147 c -0.55611,-0.37275 -1.12552,-0.72836 -1.65971,-1.13052 -1.1908,-0.89652 -2.36327,-1.81743 -3.54359,-2.72843 z m -0.19764,5.10046 a 1.72492,1.72492 0 0 1 0.36832,0.32553 10.15326,10.15326 0 0 0 2.87893,2.694 c 2.82709,2.0474 5.70185,4.029 8.56261,6.02972 a 3.417,3.417 0 0 0 0.6142,0.2516 c -0.0915,-1.47825 0.27659,-2.85682 -0.05867,-4.13891 A 65.03341,65.03341 0 0 1 51.15411,24.8996 c 0.25711,0.86054 1.06967,1.379 1.24649,2.27935 -0.4997,-0.57147 -0.99942,-1.14292 -1.59835,-1.82788 -0.21145,0.95541 -0.34431,1.66893 0.40858,2.28563 a 3.42807,3.42807 0 0 1 0.59666,1.03562 L 50.791,28.04106 50.65976,28.23038 a 1.45017,1.45017 0 0 0 0.9744,0.64908 0.66222,0.66222 0 0 0 0.15813,-0.22608 z m -17.72,2.26483 -0.01951,-0.01158 1.195,0.738 c 0.07011,-2.82421 0.13476,-5.42875 0.19544,-7.87346 -2.32237,-1.6848 -4.51037,-3.2714 -6.69757,-4.859 -2.16781,-1.57357 -4.33486,-3.14819 -6.60722,-4.79859 -0.02847,0.31922 -0.051,0.44961 -0.05,0.57982 0.01763,2.26516 0.083,4.53119 0.03775,6.795 a 2.29555,2.29555 0 0 0 1.22253,2.15486 6.75972,6.75972 0 0 1 1.04331,0.80984 38.59486,38.59486 0 0 0 7.42881,5.30659 c 0.72917,0.42291 1.49983,0.77431 2.25148,1.15852 z m -2.01646,12.36354 c 0.42148,0.52723 0.84884,1.0499 1.26281,1.583 a 2.80987,2.80987 0 0 0 1.79386,1.03609 c 0.04249,-0.49841 0.10519,-0.89172 0.10472,-1.28495 -0.0026,-2.17041 -0.08692,-4.3434 -0.0029,-6.51 A 1.9426,1.9426 0 0 0 34.16549,36.145 C 32.21732,34.9239 30.31283,33.63291 28.3951,32.36349 26.67487,31.22484 24.96256,30.07418 23.24062,28.93813 a 9.67727,9.67727 0 0 0 -0.89831,-0.456 c -0.05008,0.6205 -0.12821,1.11872 -0.12385,1.61622 0.01878,2.13362 0.06354,4.267 0.09489,6.40048 a 1.44021,1.44021 0 0 0 0.68365,1.27362 c 1.63563,1.093 3.26716,2.19327 4.87355,3.32855 1.02071,0.72137 1.99178,1.51272 2.98987,2.26647 0.41941,0.31673 0.851,0.61736 1.277,0.92532 l 0.13623,-0.124 -0.32234,-0.79723 z M 48.4443,25.053 45.2205,26.88379 a 0.666,0.666 0 0 0 -0.30583,-0.17612 1.48363,1.48363 0 0 1 -1.27367,-1.25191 13.67221,13.67221 0 0 1 -0.16231,-4.74149 9.64334,9.64334 0 0 0 0.1696,-2.19245 c -0.65265,0.4068 -1.21941,0.76006 -1.67756,1.04559 0.05522,1.5768 0.10777,3.02731 0.156,4.47794 0.02586,0.77671 0.06978,1.55394 0.06139,2.33044 -0.02467,2.28054 -0.04931,2.82078 -2.01087,3.89474 a 31.64251,31.64251 0 0 0 -3.58851,2.48409 1.36277,1.36277 0 0 0 -0.40281,0.85911 16.25239,16.25239 0 0 0 -0.07667,1.82692 7.54524,7.54524 0 0 0 0.07682,0.77282 c 0.47911,-0.328 0.83936,-0.56967 1.19418,-0.819 0.27732,-0.1949 0.5322,-0.42687 0.82457,-0.59426 a 0.94789,0.94789 0 0 1 1.59774,0.66763 4.175,4.175 0 0 1 0.11065,1.19645 c -0.01674,0.71068 -0.12676,1.42064 -0.11956,2.1301 0.014,1.38366 0.01545,2.77316 0.14767,4.14817 a 2.44047,2.44047 0 0 1 -1.418,2.46972 c -0.66465,0.40818 -1.32,0.83608 -2.00993,1.1968 a 0.84825,0.84825 0 0 0 -0.55633,0.86926 c 0.06741,0.93156 0.14845,1.86216 0.23825,2.9694 a 7.14766,7.14766 0 0 0 1.26865,-0.81435 c 1.54456,-1.58119 3.52877,-2.63423 5.05021,-4.23933 a 0.65091,0.65091 0 0 1 0.29,-0.07794 6.64134,6.64134 0 0 0 3.06539,-1.84833 1.66235,1.66235 0 0 1 1.25988,-0.90056 l -0.8437,1.07054 c 1.11915,-0.48258 2.04107,-0.88012 3.0037,-1.29519 -0.04814,-1.08458 0.21117,-2.13629 0.10261,-3.31136 a 9.62518,9.62518 0 0 0 -3.58254,2.33642 q -0.81029,0.9017 -1.62564,1.79878 c 0.17673,-0.40666 0.3535,-0.81331 0.59933,-1.379 l -2.27531,1.05077 a 2.88179,2.88179 0 0 1 -0.23026,-2.25463 2.57032,2.57032 0 0 0 0.01212,-1.30635 1.14962,1.14962 0 0 0 -0.42769,-0.42893 5.88675,5.88675 0 0 0 0.50474,-1.595 c 0.02884,-1.07012 0.10054,-2.132 0.2149,-3.19405 A 0.38242,0.38242 0 0 0 42.44,33.95282 L 42.006,34.219 a 20.53964,20.53964 0 0 1 1.77644,-2.73321 0.40088,0.40088 0 0 1 0.23106,-0.17893 c 1.36507,-0.04441 2.12262,-0.97975 2.872,-1.93368 0.37657,-0.47928 0.75472,-0.95782 1.15026,-1.42125 a 1.10759,1.10759 0 0 1 0.37078,-0.18552 l 0.09707,0.12268 -1.15751,1.6104 0.16854,0.139 a 23.32412,23.32412 0 0 1 1.99982,-1.35991 0.90707,0.90707 0 0 0 0.53318,-0.88 c 0.016,-0.84823 0.03278,-1.69664 0.02908,-2.5449 a 5.43994,5.43994 0 0 0 -0.15,-0.816 c -0.47569,0.36787 -0.83906,0.64892 -1.20241,0.93 z m 3.68732,8.54453 c -0.56364,-0.48117 -0.85953,-1.26881 -1.73911,-1.56255 -0.0849,2.12476 -0.16594,4.15251 -0.24147,6.0422 a 36.10613,36.10613 0 0 1 3.895,2.95209 l -0.13051,-0.58995 a 12.07146,12.07146 0 0 0 1.51752,1.53877 44.04036,44.04036 0 0 0 4.59211,2.99427 3.53319,3.53319 0 0 1 2.00942,3.84074 c -0.0129,0.13527 -0.02138,0.271 -0.02936,0.40668 -0.12169,2.06485 -0.30811,4.12864 -0.343,6.195 a 17.986,17.986 0 0 0 0.287,4.66182 2.37127,2.37127 0 0 0 1.63737,1.7102 c 0.1703,-7.68224 0.33849,-15.26885 0.50631,-22.83894 -1.50189,-1.09685 -3.02675,-2.22326 -4.56542,-3.33047 -1.40326,-1.00978 -2.77344,-2.07831 -4.24921,-2.97036 a 23.91836,23.91836 0 0 1 -2.90076,-2.281 3.39528,3.39528 0 0 0 -1.49326,-0.93609 c 1.02305,1.17172 1.27622,1.58566 1.35967,2.24094 -0.51616,-0.58554 -0.99909,-1.13335 -1.51513,-1.71878 a 1.4331,1.4331 0 0 0 0.30257,1.9159 9.9491,9.9491 0 0 1 1.22515,1.614 z M 34.84149,84.36666 a 3.78447,3.78447 0 0 0 -0.18381,-2.67151 c -0.41224,-0.7006 -0.90809,-1.35158 -1.33733,-2.04288 a 4.70867,4.70867 0 0 1 -0.32163,-0.81852 c 0.31329,0.38727 0.63513,0.768 0.93745,1.16365 a 6.90253,6.90253 0 0 0 1.022,1.35977 6.21861,6.21861 0 0 0 -0.0048,-0.78815 7.66853,7.66853 0 0 1 0.03557,-1.87726 2.89209,2.89209 0 0 0 -0.41048,-2.23158 l 0.12451,-0.11222 a 1.19685,1.19685 0 0 0 0.24069,-0.39289 4.06184,4.06184 0 0 0 -0.24163,-2.41012 c 0.52286,-0.01618 0.326,-0.44633 0.33655,-0.679 0.0654,-1.44873 0.1434,-2.90062 0.1094,-4.34895 -0.0343,-1.45778 0.37535,-2.95537 -0.31244,-4.36771 a 0.83841,0.83841 0 0 0 0.321,-0.98676 c -0.034,-2.34132 -0.0971,-4.68224 -0.1261,-7.02359 -0.021,-1.69685 -0.0041,-3.39418 -0.0041,-5.10792 l -1.266,-0.68773 0.4566,1.27543 -0.23448,0.11424 A 6.41437,6.41437 0 0 1 33.40676,50.83711 2.67635,2.67635 0 0 0 31.8615,49.3257 10.36176,10.36176 0 0 1 30.00977,48.31263 c -1.97907,-1.30769 -3.93805,-2.64584 -5.905,-3.97186 a 6.11681,6.11681 0 0 0 -1.61624,-0.9371 c 0.05152,0.93086 0.1299,1.73765 0.13424,2.54487 q 0.01664,3.10487 -0.024,6.20992 c -0.019,1.4583 -0.14688,2.91769 -0.10941,4.3736 0.05667,2.2042 0.21816,4.40563 0.32919,6.60853 0.14186,2.81347 0.25047,5.62893 0.42457,8.44038 0.15091,2.43741 -0.288,4.88722 0.176,7.31629 a 0.64205,0.64205 0 0 1 -0.05311,0.39782 0.80635,0.80635 0 0 0 0.3867,1.11563 c 1.74661,1.39911 3.586,2.69775 5.22082,4.21678 1.64647,1.52984 3.60015,2.61686 5.30826,4.04251 a 4.73142,4.73142 0 0 0 0.7388,0.40422 C 34.95747,87.414 34.89953,85.89037 34.84149,84.36666 Z m 15.65788,-35.87354 -0.4933,-0.29854 a 3.97743,3.97743 0 0 0 0.62969,2.03061 9.14441,9.14441 0 0 1 0.93907,1.88643 l 0.01461,-0.01383 -1.21451,-1.08388 a 3.30128,3.30128 0 0 0 0.52476,2.40969 c 0.20137,0.34715 0.36443,0.71652 0.545,1.07579 l -0.14238,0.1277 -0.87662,-1.16893 c 0,1.29435 0.03928,2.37173 -0.01308,3.44464 a 2.91716,2.91716 0 0 0 0.61255,2.08013 q 0.57253,0.71212 1.121,1.44343 c 0.14737,0.197 0.26048,0.41958 0.38921,0.63051 l -0.15408,0.10591 Q 51.48444,60.1173 50.5876,59.07184 a 5.42977,5.42977 0 0 0 -0.23748,1.84146 1.24685,1.24685 0 0 0 0.19959,0.53574 c 0.43592,0.78541 0.88373,1.56426 1.32729,2.34542 -0.508,-0.5348 -1.01593,-1.06958 -1.63486,-1.72124 0,0.50251 -0.0069,0.86931 0.0011,1.23575 0.05928,2.71412 0.11391,5.42838 0.18714,8.14214 a 3.2171,3.2171 0 0 0 0.8822,2.41361 3.25247,3.25247 0 0 1 0.4159,0.631 l -0.12008,0.10174 -0.93074,-0.868 a 1.40076,1.40076 0 0 0 0.30668,1.61664 c 0.45383,0.58151 0.853,1.20564 1.27585,1.81135 -0.56076,-0.55274 -1.12147,-1.10552 -1.825,-1.799 v 3.41066 c 0.51037,0.34691 1.00985,0.64259 1.46,1.00029 1.646,1.30795 3.26491,2.65011 4.9141,3.954 2.12975,1.68379 4.27816,3.344 6.42111,5.011 a 4.83832,4.83832 0 0 0 0.49283,0.28091 c -0.69762,-7.03329 -0.0748,-13.9244 -0.11316,-20.74281 -1.00289,-0.8452 -1.953,-1.61 -2.86111,-2.42184 -0.83327,-0.745 -1.62269,-1.53905 -2.42848,-2.31452 A 2.18372,2.18372 0 0 1 57.59515,61.9074 c 0.0066,-0.9517 0.023,-1.90371 0.058,-2.85476 0.1111,-3.01753 0.26466,-6.034 0.32433,-9.05249 a 2.13254,2.13254 0 0 0 -0.52892,-1.89536 23.50566,23.50566 0 0 0 -1.90132,-1.521 c -0.32759,-0.21539 -0.77312,-0.60847 -1.24888,-0.081 A 4.89721,4.89721 0 0 0 51.32912,44.588 q 0.50479,0.82372 1.00953,1.64743 l -0.155,0.09672 q -0.92192,-1.1772 -1.8438,-2.35438 a 16.882,16.882 0 0 0 -0.1681,2.88489 1.29573,1.29573 0 0 0 0.01348,0.40574 c 0.13025,0.3765 0.28855,0.74332 0.43585,1.114 q -0.06072,0.05549 -0.12171,0.11072 z m -6.47852,-2.1015 0.01707,0.01557 0.33249,-1.163 a 39.08305,39.08305 0 0 0 -5.26928,3.76738 20.43231,20.43231 0 0 1 -2.21259,1.78359 1.6985,1.6985 0 0 0 -0.94739,1.5296 c -0.07447,1.66173 -0.22081,3.32182 -0.24433,4.9839 -0.02976,2.10274 0.01967,4.20707 0.06038,6.31021 0.04525,2.33818 0.11975,4.67575 0.17893,7.01367 0.0034,0.13527 -0.02092,0.271 -0.02507,0.4067 -0.07576,2.47657 -0.18282,4.95271 -0.215,7.42984 a 48.3374,48.3374 0 0 1 0.04141,5.99263 8.60847,8.60847 0 0 0 -0.10624,1.62574 8.556,8.556 0 0 0 0.34724,3.1265 c 0.18965,-0.14383 0.29737,-0.21851 0.39737,-0.30241 1.87185,-1.57 3.73743,-3.14762 5.61713,-4.70818 0.57372,-0.47634 1.20738,-0.881 1.7763,-1.36256 1.73721,-1.47037 3.4323,-2.99158 5.1961,-4.42875 a 1.75814,1.75814 0 0 0 0.73652,-1.6411 c -0.09475,-1.45532 -0.159,-2.91406 -0.18186,-4.37221 -0.02807,-1.79576 -0.0012,-3.59236 0.0025,-5.38861 2.1e-4,-0.102 0.005,-0.20393 0.0079,-0.30588 0.06071,-2.1717 0.1809,-4.34372 0.1689,-6.515 -0.021,-3.80112 -0.125,-7.60174 -0.19035,-11.40265 -0.024,-1.393 -0.02647,-2.78641 -0.061,-4.1791 -0.01149,-0.46368 -0.0925,-0.92565 -0.14226,-1.39342 a 1.6021,1.6021 0 0 0 -1.61767,0.79922 c -0.33695,0.54819 -0.771,1.0367 -1.16227,1.55148 l -0.18456,-0.12294 0.73547,-1.48224 a 3.483,3.483 0 0 0 -2.074,1.29772 c -0.29872,0.39945 -0.65266,0.75761 -0.98181,1.1343 z m 33.6617,-1.64536 c -0.2531,0.13529 -0.51538,0.26653 -0.769,0.41285 -0.58481,0.33744 -1.14273,0.7319 -1.754,1.01018 a 3.865,3.865 0 0 0 -1.78825,1.04437 1.07218,1.07218 0 0 0 -0.152,-1.25559 2.48107,2.48107 0 0 1 -0.48195,-1.62464 c 0.0028,-0.50905 -0.05234,-1.02008 -0.02453,-1.52709 0.10756,-1.95952 0.25138,-3.91709 0.354,-5.87684 0.0469,-0.89463 0.0392,-1.79271 0.033,-2.68908 a 2.27381,2.27381 0 0 0 -0.1741,-0.58238 6.62753,6.62753 0 0 0 -1.5138,0.77521 37.33294,37.33294 0 0 1 -5.47157,3.70782 1.96612,1.96612 0 0 0 -1.00587,1.733 c -0.13522,3.22256 -0.28712,6.44442 -0.4139,9.66729 -0.04406,1.12 -0.02678,2.24223 -0.04884,3.3632 -0.04612,2.34212 -0.11679,4.68393 -0.13891,7.02624 a 17.58348,17.58348 0 0 0 0.20873,1.98449 7.9522,7.9522 0 0 0 0.72964,-0.38129 q 2.81537,-1.92161 5.62173,-3.85643 c 0.33559,-0.23108 0.65349,-0.488 0.9907,-0.7165 a 6.53591,6.53591 0 0 1 0.76754,-0.45517 7.66923,7.66923 0 0 0 3.603,-2.8719 5.32717,5.32717 0 0 1 0.89388,-1.10911 2.29853,2.29853 0 0 0 0.676,-1.94214 c -0.07335,-0.98031 -0.11323,-1.964 -0.13665,-2.947 -0.02232,-0.93595 -0.0048,-1.8729 -0.0048,-2.88949 z m -7.36,30.97572 a 13.71923,13.71923 0 0 0 0.22517,-1.56881 c 0.01473,-0.52671 -0.08528,-1.0556 -0.11239,-1.5847 -0.12252,-2.393 -0.23331,-4.78673 -0.35925,-7.17958 a 8.5172,8.5172 0 0 0 -0.17356,-0.96226 c -1.32647,1.00036 -2.51125,1.8998 -3.70343,2.78925 a 6.18477,6.18477 0 0 1 -1.09478,0.73085 1.08835,1.08835 0 0 0 -0.68449,1.1141 c -0.0887,3.62652 -0.2183,7.25216 -0.28989,10.87894 -0.024,1.21821 0.08022,2.43907 0.12981,3.65858 0.07161,1.76127 0.13328,3.52314 0.229,5.28312 a 1.70007,1.70007 0 0 0 0.55527,1.41546 c 1.39686,-1.33613 2.73754,-2.62926 4.092,-3.90785 a 2.45113,2.45113 0 0 0 0.83022,-1.4764 c 0.15042,-1.14177 0.32515,-2.2824 0.41679,-3.42933 0.13244,-1.65744 0.20285,-3.31992 0.29261,-4.98062 0.01799,-0.3343 0.07994,-0.70931 -0.35312,-0.78073 z M 50.543,40.92944 c 0.27188,0.32393 0.405,0.46026 0.51252,0.61436 0.562,0.80515 1.1097,1.62037 1.67793,2.421 a 3.83144,3.83144 0 0 0 1.47987,1.20428 c 1.02854,0.5129 2.02979,1.08934 3.00281,1.70211 a 2.62534,2.62534 0 0 1 1.34528,2.3646 c -0.02244,1.52758 -0.0097,3.05564 -0.0159,4.58348 -0.0041,1.01855 0.0018,2.03753 -0.027,3.05547 -0.0479,1.695 -0.14861,3.38925 -0.15879,5.08423 a 1.68147,1.68147 0 0 0 0.46211,1.0617 c 0.89238,0.9181 1.82941,1.7955 2.7857,2.64774 a 5.41338,5.41338 0 0 0 2.1074,1.44 12.78757,12.78757 0 0 0 0.10153,-3.38937 1.56548,1.56548 0 0 0 -0.90218,-1.44165 2.72794,2.72794 0 0 1 -1.59533,-1.75381 8.32689,8.32689 0 0 1 -0.29959,-1.70316 52.788,52.788 0 0 1 0.23535,-8.64248 c 0.08549,-0.74039 0.07255,-1.49239 0.09965,-2.23923 a 1.9169,1.9169 0 0 0 -0.97414,-1.774 q -3.063,-2.00743 -6.09662,-4.05977 c -0.45862,-0.30862 -0.883,-0.66819 -1.40784,-1.06906 l 0.27085,0.75415 c -1.13584,-0.72271 -1.41067,-2.25738 -2.91167,-2.4617 0,0.99647 -0.01449,1.93652 0.0047,2.87586 a 1.31912,1.31912 0 0 0 1.47623,1.2123 C 51.4583,42.60709 50.54892,42.11109 50.543,40.92944 Z m -6.52637,0.48966 c 1.74427,-1.08639 3.40128,-2.13632 5.08006,-3.15027 a 0.87812,0.87812 0 0 0 0.377,-0.87 q 0.19837,-3.81168 0.3872,-7.62383 A 7.59,7.59 0 0 0 49.7833,28.91045 c -1.492,0.96779 -2.86156,1.81984 -4.18332,2.74054 a 2.77819,2.77819 0 0 1 -0.95334,0.50214 1.66725,1.66725 0 0 0 -1.26834,1.20525 2.39145,2.39145 0 0 0 0.19921,0.912 c -0.68693,1.06948 -0.71127,1.8963 -0.11471,2.28873 a 12.95282,12.95282 0 0 0 -0.40666,1.8948 c -0.06357,0.9744 -0.0106,1.95656 10e-4,2.93535 a 0.52932,0.52932 0 0 0 0.1461,0.1787 l 0.53091,-0.5934 z m -8.86943,5.36136 a 4.70474,4.70474 0 0 1 -1.13221,-0.327 20.25926,20.25926 0 0 1 -2.43924,-1.64222 56.08012,56.08012 0 0 0 -5.99307,-4.3841 c -1.0212,-0.6383 -2.01155,-1.326 -3.16284,-2.08879 0,1.25564 0.0079,2.30338 -0.0041,3.35094 a 0.94227,0.94227 0 0 0 0.49785,0.82569 23.21147,23.21147 0 0 1 1.90716,1.35487 35.02918,35.02918 0 0 0 4.71568,3.33516 c 0.68716,0.41205 1.37264,0.82687 2.0501,1.23514 0.154,-0.21727 0.22646,-0.32276 0.30508,-0.42342 a 0.538,0.538 0 0 1 0.12256,0.04821 6.33989,6.33989 0 0 0 3.133,2.04281 V 46.78046 Z M 46.93133,24.66691 c 0.69354,0.25108 0.89965,0.14854 3.134,-1.54055 0,-1.2683 0.03733,-2.52365 -0.01623,-3.77509 -0.02565,-0.59916 -0.29711,-1.18747 -0.32539,-1.78692 -0.0381,-0.80888 0.05013,-1.62379 0.08573,-2.436 a 1.00718,1.00718 0 0 0 -0.23033,-0.96122 c -1.49837,1.091 -2.97917,2.15608 -4.43974,3.24819 a 1.16957,1.16957 0 0 0 -0.42333,0.655 c -0.22008,1.187 -0.443,2.37773 -0.56563,3.57731 a 8.52329,8.52329 0 0 0 0.25978,3.462 l 0.48877,-0.12223 -0.24334,0.90425 c 1.17011,0.16274 1.6942,-0.59472 2.27571,-1.22474 z m 27.63849,-8.26623 -0.16962,-0.124 a 7.07479,7.07479 0 0 0 -2.22783,2.70183 3.53335,3.53335 0 0 0 0.09414,1.64707 0.95156,0.95156 0 0 1 -0.01346,0.10038 q -0.08737,2.73549 -0.17187,5.4711 a 1.05865,1.05865 0 0 0 0.42708,1.0696 3.486,3.486 0 0 0 2.21829,-1.938 32.33428,32.33428 0 0 1 1.90657,-3.00637 2.4932,2.4932 0 0 1 0.46012,-0.419 c -0.43752,1.24079 -1.40015,2.149 -1.80659,3.37265 0.54688,-0.42525 1.02275,-0.90908 1.54456,-1.33693 a 2.11455,2.11455 0 0 0 0.84276,-1.85056 c -0.09518,-2.644 -0.136,-5.29 -0.20282,-7.9351 a 0.69452,0.69452 0 0 0 -0.14674,-0.21279 c -1.61368,1.00526 -2.33466,2.79588 -3.68177,4.05935 q 0.4636,-0.79963 0.92718,-1.59924 z m -33.425,3.8006 a 1.2173,1.2173 0 0 0 -0.31338,0.108 c -1.44181,1.069 -2.87342,2.152 -4.3225,3.211 a 1.0394,1.0394 0 0 0 -0.37184,0.97719 c -0.01559,1.14749 -0.09583,2.29419 -0.108,3.44164 -0.0139,1.31 0.0182,2.6204 0.03119,4.02382 a 2.60025,2.60025 0 0 0 0.60932,-0.16929 c 1.275,-0.83423 2.529,-1.70117 3.81521,-2.51741 a 2.09919,2.09919 0 0 0 1.07715,-2.0289 43.89393,43.89393 0 0 0 -0.41714,-7.04605 z m -6.004,15.52425 c 0.02891,-0.93993 0.0683,-1.77862 0.0698,-2.6174 A 0.72435,0.72435 0 0 0 34.99368,32.5727 4.27518,4.27518 0 0 0 33.35697,31.58552 c 0.10324,0.73908 0.78457,1.19408 0.64965,1.94571 -0.4698,-0.61673 -0.8336,-1.28839 -1.23828,-1.93441 a 2.744,2.744 0 0 0 -0.70592,-0.83 C 31.36224,30.29082 30.59507,29.91393 29.88936,29.44523 28.50727,28.52731 27.12124,27.61102 25.78902,26.6237 24.72814,25.83749 23.74816,24.94253 22.7221,24.10837 A 1.815,1.815 0 0 0 22.19363,23.9417 c 0.06157,0.976 0.137,1.85339 0.1651,2.73227 a 1.40729,1.40729 0 0 0 0.7199,1.23976 c 1.58093,1.03855 3.12819,2.12834 4.68834,3.19848 0.028,0.01923 0.0551,0.03981 0.08366,0.05815 q 2.39081,1.53515 4.784,3.06654 a 0.7014,0.7014 0 0 0 0.24179,0.05149 l 0.07351,-0.54537 a 3.82777,3.82777 0 0 0 2.1909,1.9825 z m 29.94691,-3.192 a 1.97039,1.97039 0 0 0 0.52659,-0.13515 c 0.88746,-0.55773 1.79447,-1.09178 2.6343,-1.7154 a 1.83945,1.83945 0 0 0 0.847,-1.92571 18.81074,18.81074 0 0 1 -0.18407,-1.91614 c -0.0937,-1.04036 -0.17919,-2.08159 -0.28524,-3.12068 -0.06868,-0.67265 -0.16791,-1.34218 -0.27626,-2.192 -1.01536,0.95855 -1.86537,1.77571 -2.7326,2.57416 a 1.43635,1.43635 0 0 0 -0.53865,1.69613 2.46325,2.46325 0 0 1 0.0092,0.80773 c -4.4e-4,1.95506 -2.3e-4,3.9102 -2.3e-4,5.92704 z M 74.787,73.93919 a 2.22718,2.22718 0 0 0 -0.15377,-0.41107 1.047,1.047 0 0 1 -1.13769,-0.80626 c -0.10465,-0.20057 -0.2149,-0.39824 -0.4053,-0.74993 -0.56985,0.82872 -1.08025,1.53905 -1.54932,2.27567 a 1.42467,1.42467 0 0 0 -0.13954,0.68079 c -0.08737,2.16633 -0.16085,4.33322 -0.244,6.49974 -0.03806,0.99222 -0.08887,1.984 -0.14209,3.157 0.64,-0.53888 1.10892,-0.9702 1.6153,-1.35182 a 2.29906,2.29906 0 0 0 0.84427,-2.53716 l -0.86387,0.58568 a 2.4,2.4 0 0 1 0.19413,-0.54249 3.30611,3.30611 0 0 0 0.6402,-2.36282 2.8735,2.8735 0 0 1 0.96277,-2.37839 9.56889,9.56889 0 0 0 1.925,-2.34038 9.21321,9.21321 0 0 1 0.79939,-0.92441 l 0.21917,0.16507 c -0.33458,0.536 -0.66918,1.072 -1.13943,1.82544 0.62944,-0.256 1.044,-0.38984 1.42115,-0.59307 a 0.79288,0.79288 0 0 0 0.41836,-0.49728 c 0.01339,-0.68456 -0.05475,-1.37074 -0.09271,-2.05631 L 77.72372,71.4875 C 76.75164,72.299 75.77961,73.11049 74.787,73.93919 Z M 39.02645,35.55569 a 0.77636,0.77636 0 0 0 -1.0484,0.16207 5.23817,5.23817 0 0 1 -1.02507,0.8294 1.87552,1.87552 0 0 0 -1.08069,2.06323 c 0.0589,2.20645 0.04905,4.41468 0.07637,6.62209 a 5.39474,5.39474 0 0 0 0.11822,0.73837 c 0.886,-0.521 1.70795,-0.97933 2.50222,-1.48139 a 1.32928,1.32928 0 0 0 0.54631,-1.24356 c -0.01252,-2.37776 -0.0037,-4.75561 -0.0097,-7.13342 a 3.72294,3.72294 0 0 0 -0.07928,-0.55679 z m 37.62674,40.431 a 3.727,3.727 0 0 1 -0.29692,0.67281 12.75933,12.75933 0 0 1 -1.18938,1.3935 c -1.0708,0.99773 -1.01335,2.19156 -0.73451,3.54394 a 2.3332,2.3332 0 0 0 0.47161,-0.26306 c 0.92568,-0.89669 1.84734,-1.79775 2.75464,-2.713 a 1.0516,1.0516 0 0 0 0.34541,-0.5903 c 0.03477,-1.03649 0.01611,-2.07476 0.01611,-3.30714 -0.863,0.46251 -1.58632,0.882 -2.337,1.24466 A 2.40326,2.40326 0 0 0 74.3295,78.482 c 0.76356,-0.8172 1.17092,-1.8426 2.32369,-2.49527 z m -0.54662,-39.2296 0.59787,0.095 a 1.97045,1.97045 0 0 0 -0.43981,1.98332 c 1.742,-1.95122 1.71435,-2.43713 1.03792,-3.11742 a 6.456,6.456 0 0 0 0.06645,-4.11741 3.649,3.649 0 0 0 -1.27353,2.76957 c 0.05863,0.77309 0.0111,1.55421 0.0111,2.38694 z M 58.167,27.04131 c -0.215,-1.18567 -0.41512,-2.335 -0.63483,-3.48051 a 13.30175,13.30175 0 0 0 -0.37207,-1.573 1.05317,1.05317 0 0 0 -1.11434,-0.83986 c 0.40762,1.7004 0.80511,3.36569 1.20689,5.03 a 0.95976,0.95976 0 0 0 0.91435,0.86337 z m 0.9472,-3.58237 a 29.73165,29.73165 0 0 0 1.14869,5.04287 3.10706,3.10706 0 0 0 0.63363,0.71467 1.03948,1.03948 0 0 0 0.1522,-0.31359 c -0.29884,-1.51445 -0.59192,-3.03027 -0.91773,-4.539 a 1.15681,1.15681 0 0 0 -1.01674,-0.90495 z m -5.5493,-4.64435 -0.17954,0.11131 c 0.23371,1.3851 0.44264,2.7751 0.71364,4.15293 a 7.51545,7.51545 0 0 0 0.541,1.51957 2.11089,2.11089 0 0 0 0.52659,0.4834 3.58666,3.58666 0 0 0 -0.0035,-0.558 c -0.34354,-1.64886 -0.67645,-3.30039 -1.05973,-4.9401 a 2.60878,2.60878 0 0 0 -0.53844,-0.76911 z m 1.455,1.20712 a 0.87486,0.87486 0 0 0 -0.13593,0.27685 c 0.315,1.69 0.62561,3.381 0.972,5.06463 a 2.11557,2.11557 0 0 0 0.49956,0.62271 1.54653,1.54653 0 0 0 0.0892,-0.37 c -0.30525,-1.65917 -0.60294,-3.32 -0.94047,-4.97264 A 2.0054,2.0054 0 0 0 55.02,20.02171 Z m 22.71461,17.88618 c -1.35932,1.29177 -2.03441,2.12884 -1.45281,3.6858 a 11.87266,11.87266 0 0 0 1.11117,-0.69987 0.88681,0.88681 0 0 0 0.32644,-0.57293 c 0.03669,-0.80289 0.0152,-1.60843 0.0152,-2.413 z M 58.02446,22.45645 c 0.17293,1.91293 0.23333,3.86018 1.37473,5.53148 -0.35693,-1.8674 -0.32009,-3.82755 -1.37473,-5.53148 z m 2.98182,2.19815 -0.20409,0.1008 q 0.52431,2.401 1.04859,4.802 a 37.85868,37.85868 0 0 0 -0.34829,-4.038 2.76168,2.76168 0 0 0 -0.49621,-0.8648 z m -9.50262,-6.30812 c 0.31244,-1.20049 -0.32989,-1.99284 -0.79533,-2.83877 0.0011,0.96835 -0.27082,2.00587 0.79534,2.83877 z m 2.19543,5.4941 a 3.76248,3.76248 0 0 0 -0.7723,-2.76481 4.58432,4.58432 0 0 0 0.7723,2.76481 z m 23.88744,6.61984 a 1.54913,1.54913 0 0 0 -1.31812,1.75222 c 0.50811,-0.66284 1.21598,-0.9531 1.31812,-1.75223 z m -0.0012,22.03793 -1.24769,1.6048 c 1.314,-0.53621 1.39307,-0.62962 1.24769,-1.6048 z M 52.52182,18.33517 52.28361,18.41656 c 0.14742,0.70691 -0.04242,1.53387 0.95079,2.1478 z m 25.075,10.50583 a 1.42533,1.42533 0 0 0 -0.7278,1.00854 c 0.40692,-0.3164 0.89684,-0.38043 0.7278,-1.00854 z m -26.63937,-5.6289 -0.195,0.21647 0.73017,0.61537 0.123,-0.1374 z"
           id="path1-2" /><path
           d="m 74.83368,62.20672 c 0.21532,-0.40148 0.42422,-0.80656 0.648,-1.20321 0.17532,-0.31064 0.36916,-0.61077 0.5548,-0.91555 l 0.44591,-0.01193 q -0.82433,1.06536 -1.64871,2.13069 z"
           id="path2-61" /><path
           d="m 47.64543,26.35063 q 0.39892,-0.64864 0.79835,-1.29747 l 0.28058,-0.08547 0.42656,0.19321 -1.38572,1.29761 z"
           id="path3-8" /><path
           d="m 38.20287,54.08978 a 6.5292,6.5292 0 0 1 0.55724,-0.41409 13.045,13.045 0 0 0 3.14751,-2.54222 0.65971,0.65971 0 0 1 0.29737,-0.26733 c 1.28677,-0.08772 1.99052,-1.16285 2.98933,-1.73264 a 11.74727,11.74727 0 0 0 2.92116,-2.61808 0.81639,0.81639 0 0 1 0.588,-0.247 2.16144,2.16144 0 0 1 -0.24212,0.44127 9.31157,9.31157 0 0 1 -0.79174,0.79252 2.49247,2.49247 0 0 0 -1.00092,2.47441 9.02576,9.02576 0 0 1 -0.08533,1.61664 1.38247,1.38247 0 0 0 0.36028,0.48289 3.42258,3.42258 0 0 0 -0.40391,2.583 c 1.08088,-0.55724 1.36443,-1.88742 2.68035,-2.42941 a 5.683,5.683 0 0 1 -0.40492,0.63835 c -0.43372,0.47864 -0.86312,0.96357 -1.32774,1.41126 -0.6549,0.631 -1.26752,1.26358 -0.97972,2.15589 a 26.19359,26.19359 0 0 0 -2.24548,1.53576 2.65729,2.65729 0 0 0 -0.85592,3.24416 0.49848,0.49848 0 0 1 0.06624,0.27525 c -0.38837,1.32035 0.12791,2.61437 0.10917,3.92623 -0.03,2.09742 0.0192,4.19619 0.04926,6.29419 0.013,0.90678 0.06183,1.813 0.09731,2.80179 1.36985,-0.367 1.62149,-1.76556 2.69637,-2.51566 l -0.29732,0.68259 c 0.84757,0.2319 1.37276,-0.33638 2.08351,-0.638 a 2.98446,2.98446 0 0 1 -0.45932,0.69422 1.38119,1.38119 0 0 0 -0.44019,1.55059 2.96976,2.96976 0 0 1 0.04657,1.34185 4.40528,4.40528 0 0 0 0.21565,1.48777 1.09168,1.09168 0 0 1 -0.38541,1.2509 c -1.63655,1.21111 -3.24929,2.45448 -4.86809,3.68946 q -1.49793,1.1428 -2.98665,2.29773 a 0.8321,0.8321 0 0 1 -1.0174,0.18547 0.85238,0.85238 0 0 1 -0.46293,-0.915 c 0.08666,-1.4575 0.12277,-2.91793 0.18728,-4.37683 a 33.44037,33.44037 0 0 0 0.16113,-3.85866 c -0.15731,-2.16917 0.13358,-4.322 0.06256,-6.48311 -0.0703,-2.13918 -0.16158,-4.27882 -0.16878,-6.41854 -0.0044,-1.319 0.13391,-2.63841 0.20315,-3.95791 0.04619,-0.87984 0.11787,-1.76035 0.11267,-2.64019 a 16.52427,16.52427 0 0 0 -0.20822,-1.79952 z m 6.83659,-3.62122 0.01684,0.016 a 1.218,1.218 0 0 0 -1.31637,0.46052 c -1.358,0.95963 -2.66863,1.98934 -4.05714,2.90126 a 1.26709,1.26709 0 0 0 -0.6775,1.22065 c 0.01351,1.05328 -0.027,2.10722 -0.044,3.16089 -0.03238,2.0014 -0.08,4.00272 -0.08969,6.00426 -0.0053,1.0858 0.08383,2.17207 0.079,3.2579 q -0.01681,3.81425 -0.088,7.62819 c -0.02732,1.45947 -0.1,2.91821 -0.16146,4.37688 -0.04572,1.08543 -0.12357,2.16982 -0.15047,3.25558 a 1.46624,1.46624 0 0 0 0.28126,1.16055 c 0.38211,-0.30752 0.72224,-0.58226 1.06339,-0.85571 q 2.81983,-2.26043 5.64178,-4.51836 a 6.39694,6.39694 0 0 1 0.58964,-0.39929 c 0.8842,-0.55712 0.92774,-0.711 0.46575,-1.91063 -0.5952,0.772 -1.16447,1.5103 -1.73376,2.24865 L 44.644,78.31515 c 0.53886,-0.80945 1.04589,-1.64271 1.628,-2.41975 a 1.7215,1.7215 0 0 0 0.266,-1.70035 c -0.77125,0.99412 -1.45982,1.88169 -2.14839,2.76927 l -0.17907,-0.12491 1.90106,-2.871 -0.13252,-0.14041 c -0.89737,0.65928 -1.79475,1.31857 -2.79511,2.0535 a 4.633,4.633 0 0 1 -0.11459,-0.64212 c 0.0015,-1.32356 0.06415,-2.64919 0.01128,-3.97029 -0.14934,-3.72658 -0.33718,-7.45172 -0.53011,-11.17637 -0.03069,-0.59265 -0.166,-1.17988 -0.26932,-1.88092 a 3.51946,3.51946 0 0 1 0.43674,-0.37123 c 0.76851,-0.4986 1.55628,-0.96781 2.31935,-1.47436 a 1.90325,1.90325 0 0 0 0.522,-2.71606 7.24207,7.24207 0 0 0 0.31943,-3.90136 z"
           id="path4-7" /><path
           d="m 44.03309,60.42344 c 0.40713,-0.57267 0.79073,-1.164 1.22668,-1.71385 0.75695,-0.95478 1.54477,-1.88514 2.3227,-2.82317 a 1.58223,1.58223 0 0 1 1.14332,-0.68627 c -1.56168,1.84507 -3.05031,3.60387 -4.539,5.36268 z"
           id="path5-9" /><path
           d="m 44.3041,69.80246 a 13.01239,13.01239 0 0 1 3.2605,-3.70491 1.9842,1.9842 0 0 1 -0.14981,0.4714 q -1.481,1.69806 -2.97326,3.38632 z"
           id="path6-2" /><path
           d="M 46.42187,62.88319 A 6.044,6.044 0 0 1 48.453,60.49294 c -0.20493,0.79936 -0.64636,1.34223 -1.92721,2.4855 z"
           id="path7-0" /><path
           d="m 47.34,68.59349 a 1.10623,1.10623 0 0 1 -0.10727,0.25668 c -0.64782,0.8566 -1.30094,1.70919 -2.02566,2.50895 A 5.43773,5.43773 0 0 1 47.34,68.59349 Z"
           id="path8-23" /><path
           d="m 46.414,60.01706 c 0.86195,-1.36654 1.39564,-1.86889 2.12661,-1.95089 a 2.634,2.634 0 0 1 -0.97522,1.10217 q -0.51,0.485 -1.0235,0.96636 z"
           id="path9-7" /><path
           d="m 46.08849,46.08326 -1.832,2.45758 -0.17246,-0.12477 a 9.18023,9.18023 0 0 1 1.78478,-2.50065 z"
           id="path10-5" /><path
           d="m 46.98851,64.4452 c -0.72119,0.84738 -1.31887,1.5497 -2.00606,2.35712 a 3.203,3.203 0 0 1 2.00606,-2.35712 z"
           id="path11-9" /><path
           d="M 46.54186,60.1347 A 7.67289,7.67289 0 0 1 44.86529,62.17743 4.74534,4.74534 0 0 1 46.414,60.01709 Z"
           id="path12-2" /><path
           d="m 46.52575,62.97844 a 3.82834,3.82834 0 0 1 -1.31955,1.54585 3.43047,3.43047 0 0 1 1.21573,-1.641 z"
           id="path13-2" /><path
           d="m 42.64087,50.22923 0.97665,-1.35963 a 1.95737,1.95737 0 0 1 -0.82745,1.49912 z"
           id="path14-8" /><path
           d="m 48.8205,49.72247 q -0.471,0.57844 -0.942,1.15692 l -0.19715,-0.14885 q 0.44679,-0.59549 0.89362,-1.191 z"
           id="path15-9" /><path
           d="m 44.02085,46.39162 -0.7222,1.38488 -0.20707,-0.12556 a 2.04772,2.04772 0 0 1 0.94631,-1.24372 z"
           id="path16-7" /><path
           d="m 52.718,77.61976 a 1.42589,1.42589 0 0 0 0.2326,-0.50734 c 0.0049,-1.30218 0.0062,-2.6056 -0.05175,-3.906 A 3.65876,3.65876 0 0 0 52.53,72.18369 l 0.14221,-0.13 a 0.8378,0.8378 0 0 0 0.292,-0.32142 c 0.0048,-1.24715 0.0026,-2.49533 -0.0517,-3.74088 a 1.68761,1.68761 0 0 0 -0.36844,-0.80551 c -0.33256,-0.47121 -0.72433,-0.90042 -1.061,-1.369 a 7.12973,7.12973 0 0 1 -0.45189,-0.83451 l 0.184,-0.11576 1.63364,2.19719 A 1.92891,1.92891 0 0 0 52.5024,64.91693 4.38027,4.38027 0 0 1 51.97583,63.87629 c 0.30264,0.26438 0.60531,0.52875 0.94118,0.82218 a 3.85312,3.85312 0 0 0 0.04753,-0.56943 0.69615,0.69615 0 0 1 0.55093,-0.75662 1.12295,1.12295 0 0 1 0.78933,0.26808 c 1.66436,1.33 3.30261,2.69269 4.96115,4.03009 0.68459,0.552 1.41663,1.046 2.08986,1.61075 a 1.13895,1.13895 0 0 1 0.4082,0.74592 c -0.0031,1.82378 -0.07445,3.64727 -0.09424,5.47119 -0.03276,3.02232 -0.0423,6.04489 -0.06418,9.06735 -0.0016,0.22594 -0.02335,0.45175 -0.04429,0.833 a 2.38163,2.38163 0 0 1 -0.64833,-0.362 19.34187,19.34187 0 0 0 -3.362,-2.76939 c -1.03623,-0.81685 -2.1279,-1.56433 -3.20683,-2.32582 A 3.6419,3.6419 0 0 1 52.718,77.61976 Z m 8.07079,6.18443 c 0.046,-0.48774 0.0926,-0.77995 0.0982,-1.073 q 0.0701,-3.66765 0.12706,-7.33561 c 0.023,-1.39107 0.0464,-2.78214 0.06249,-4.17331 a 2.23649,2.23649 0 0 0 -0.95778,-1.9976 c -1.50029,-1.10482 -2.92407,-2.31307 -4.39128,-3.46349 -0.62779,-0.49227 -1.28551,-0.94631 -2.02013,-1.484 -0.019,0.28023 -0.04064,0.46818 -0.04293,0.65635 -0.01018,0.83383 0.002,1.66834 -0.02795,2.50138 a 1.55179,1.55179 0 0 0 0.429,1.20658 0.37282,0.37282 0 0 1 0.01773,0.17989 h -0.43461 c 0,0.457 -0.0018,0.89451 4.2e-4,1.332 0.0028,0.56849 0.03133,1.138 0.0065,1.70518 a 5.04346,5.04346 0 0 0 0.02432,1.49694 6.7998,6.7998 0 0 1 -0.157,1.56039 c -0.0189,0.977 0.01015,1.95579 0.05266,2.9324 a 0.98357,0.98357 0 0 0 0.25026,0.63872 c 0.68079,0.60817 1.3804,1.1991 2.10846,1.74957 1.02786,0.77713 2.08968,1.50918 3.13135,2.26823 0.53386,0.38911 1.05548,0.79497 1.72318,1.29938 z"
           id="path17-3" /><path
           d="m 53.25124,59.29672 a 8.55,8.55 0 0 1 -2.33436,-3.32714 13.72619,13.72619 0 0 1 2.33436,3.32714 z"
           id="path18-61" /><path
           d="m 52.55913,48.54056 a 5.143,5.143 0 0 1 -2.10351,-2.856 0.36286,0.36286 0 0 1 0.1816,0.0037 c 0.64538,0.94752 1.28305,1.90033 1.92191,2.85234 z"
           id="path19-2" /><path
           d="m 51.44465,54.49939 q 0.67548,0.90339 1.35093,1.8068 A 3.58041,3.58041 0 0 1 51.3023,54.62706 Z"
           id="path20-9" /><path
           d="m 51.36277,49.68453 q 0.44837,0.57109 0.89665,1.14217 l -0.13834,0.12479 -0.74269,-1.28115 z"
           id="path21-3" /><path
           d="m 51.37839,49.67035 -0.879,-1.17725 q 0.061,-0.05522 0.12172,-0.11077 0.371,0.65086 0.74175,1.302 z"
           id="path22-1" /><path
           d="m 56.413,61.26543 -0.28939,-0.34508 0.10132,-0.08591 0.29146,0.34236 z"
           id="path23" /><path
           d="m 52.79506,51.72321 0.58036,0.49649 -0.20231,0.168 -0.36346,-0.67818 z"
           id="path24" /><path
           d="m 52.80965,51.70947 q -0.34423,-0.379 -0.68855,-0.758 l 0.13832,-0.12477 q 0.2679,0.44809 0.53567,0.89639 z"
           id="path25" /><path
           d="m 51.57483,52.11162 0.62611,0.56266 A 0.51423,0.51423 0 0 1 51.58937,52.098 Z"
           id="path26" /><path
           d="m 33.0156,78.85415 a 3.528,3.528 0 0 0 0.30721,3.15954 c 0.539,0.76548 1.02233,1.57014 1.53042,2.35738 a 2.42107,2.42107 0 0 1 -1.22213,-1.2916 7.54773,7.54773 0 0 0 -0.65964,-0.97306 2.97071,2.97071 0 0 0 0.16615,2.231 l -0.75188,0.7184 C 31.63439,84.51323 30.88417,83.94996 30.11128,83.41971 29.41659,82.94311 28.69747,82.5021 27.98781,82.0474 A 0.88621,0.88621 0 0 1 27.72773,81.9016 C 26.89709,80.68646 25.51629,80.13316 24.4613,79.18725 A 1.51477,1.51477 0 0 1 23.99281,78.126 59.59866,59.59866 0 0 1 23.73123,71.7224 c -0.022,-0.84677 -0.12526,-1.69149 -0.14556,-2.53826 -0.01686,-0.70377 0.22072,-0.85908 0.88,-0.60868 a 3.58378,3.58378 0 0 1 0.89709,0.47083 c 1.64414,1.252 3.26784,2.5308 4.91208,3.78266 0.51034,0.38856 1.07185,0.70925 1.59284,1.08475 a 1.19032,1.19032 0 0 1 0.54254,0.55874 8.31067,8.31067 0 0 0 1.2985,2.84618 3.314,3.314 0 0 1 0.15654,0.477 l -0.1053,0.093 -0.97609,-1.33979 -0.16585,0.042 q 0.19878,1.13165 0.39758,2.26332 z m -6.126,-1.41785 c 0.40208,0.8448 0.84785,1.67214 1.19406,2.53922 a 7.07329,7.07329 0 0 0 1.59347,2.18621 1.59229,1.59229 0 0 0 1.06536,0.56244 c -2.4066,-4.3029 -3.60873,-9.06752 -6.47591,-13.20978 a 3.87554,3.87554 0 0 0 0.1772,1.75184 8.66511,8.66511 0 0 1 1.14649,2.46592 c 0.50969,1.21191 0.88335,2.481 1.31447,3.72493 Q 26.10641,75.876 25.30885,74.29454 c -0.24745,-0.493 -0.4865,-0.99032 -0.72937,-1.48568 L 24.2613,72.958 c 1.30889,2.49312 1.80268,5.33855 3.5378,7.6503 A 7.49287,7.49287 0 0 0 27.38986,79.27043 C 27.19684,78.66746 27.054,78.04843 26.88958,77.4363 Z m -1.3887,-7.28311 c 0.11215,0.3214 0.156,0.48211 0.22264,0.63277 1.15085,2.60112 2.27377,5.21531 3.47207,7.79446 0.5102,1.09811 1.20051,2.11125 1.76657,3.18535 a 8.03644,8.03644 0 0 1 0.56069,1.48793 0.48227,0.48227 0 0 0 0.54753,0.45346 0.84131,0.84131 0 0 0 0.04085,-0.30642 3.32815,3.32815 0 0 1 -0.01585,-1.53572 c 0.11457,-0.65581 0.40907,-1.51061 -0.69,-1.77531 A 0.94238,0.94238 0 0 1 31.08681,79.59198 C 30.784,78.94841 30.49719,78.29733 30.19867,77.65169 29.3035,75.71578 28.39745,73.78485 27.51278,71.84418 A 3.188,3.188 0 0 0 25.5009,70.15319 Z m 6.31668,9.46981 0.25727,-0.07276 c 0.01163,-0.263 0.02054,-0.5261 0.03534,-0.78888 a 2.55444,2.55444 0 0 0 -0.63,-1.93321 7.56016,7.56016 0 0 1 -1.33465,-2.48194 2.43462,2.43462 0 0 0 -1.94268,-1.95964 c 1.24125,2.48491 2.42797,4.86065 3.61472,7.23643 z m -7.15574,-4.38035 c 0.4521,1.504 0.6424,3.12359 1.9231,4.259 q -0.96152,-2.12953 -1.9231,-4.25902 z m 7.05311,1.0753 c 0.38858,-1.39138 0.07724,-1.96039 -1.1345,-2.08285 a 4.80642,4.80642 0 0 0 1.1345,2.08283 z m -6.9761,1.13148 c -0.06479,0.94823 -0.06479,0.94823 0.59673,1.28509 -0.23258,-0.50083 -0.41466,-0.89297 -0.59674,-1.28511 z"
           id="path27" /><path
           d="m 34.2394,63.1483 c -0.27514,-0.27905 -0.55025,-0.55813 -0.9026,-0.91552 a 2.851,2.851 0 0 0 0.2874,2.43795 14.36676,14.36676 0 0 1 0.893,1.5277 l -0.223,0.14017 c -0.34888,-0.49874 -0.69776,-0.9975 -1.13042,-1.616 a 2.96888,2.96888 0 0 0 0.009,2.03256 17.86428,17.86428 0 0 0 1.1233,1.85689 c -0.71305,-0.15211 -0.74705,-0.77413 -1.18063,-0.96516 -0.49965,1.37782 0.95728,2.04646 0.99149,3.24969 l -1.09138,-1.43271 a 1.79718,1.79718 0 0 0 0.32926,1.77271 3.0681,3.0681 0 0 1 0.89723,1.76734 c -0.38356,-0.46516 -0.76715,-0.9303 -1.20086,-1.45628 l -0.5978,0.38389 a 53.68965,53.68965 0 0 1 -6.52731,-4.511 12.11813,12.11813 0 0 0 -1.29489,-0.98474 1.39334,1.39334 0 0 1 -0.69807,-1.353 c 0.03512,-1.38645 0.04375,-2.77485 0.01313,-4.16132 -0.02987,-1.35353 -0.13044,-2.70535 -0.18465,-4.0585 -0.08132,-2.02989 -0.14336,-4.06052 -0.22686,-6.09031 -0.02228,-0.54094 -0.11056,-1.079 -0.13687,-1.62 -0.034,-0.69886 0.22156,-0.92865 0.91175,-0.81376 a 1.71983,1.71983 0 0 1 0.64683,0.26761 c 1.77,1.1783 3.5468,2.34756 5.28872,3.5664 0.63244,0.44251 1.17361,1.01476 1.76246,1.52076 a 4.6055,4.6055 0 0 0 0.46865,0.3059 l -0.0529,-0.66756 a 10.98056,10.98056 0 0 1 2.0538,2.84573 c -0.60249,0.14214 -0.57058,-0.45761 -0.97956,-0.63105 a 1.97625,1.97625 0 0 0 0.13443,1.35813 4.02249,4.02249 0 0 1 0.56847,1.306 l -0.64078,-0.41024 c -0.07435,1.20009 -0.17891,2.32237 -0.19014,3.4456 a 2.56755,2.56755 0 0 0 0.42844,0.9075 c 0.15591,0.32895 0.30131,0.66287 0.45131,0.99462 z m -1.93954,-7.85449 c -2.14384,-2.72432 -5.12775,-4.33749 -8.14564,-6.22741 0,0.40839 -0.01313,0.66388 0.0022,0.91766 0.07946,1.31515 0.19675,2.62879 0.24187,3.945 0.04624,1.34889 0.01712,2.70021 0.03555,4.05025 0.0084,0.61026 0.07072,1.21988 0.076,1.83006 0.01414,1.629 0.01473,3.25818 0.01137,4.88727 a 1.17372,1.17372 0 0 0 0.42159,1.07877 c 2.169,1.62194 4.32236,3.2647 6.493,4.88434 a 3.59642,3.59642 0 0 0 0.86558,0.29821 l -0.44122,-1.83596 0.475,0.03344 c 0,-0.12566 0.0075,-0.2274 -0.0012,-0.32771 -0.05883,-0.679 -0.46626,-1.34 -0.01292,-2.05047 a 1.252,1.252 0 0 0 -0.142,-0.76935 c -0.09174,-0.28649 -0.2283,-0.55865 -0.3602,-0.87233 h 0.62088 c -0.06214,-0.85224 -0.122,-1.67331 -0.17638,-2.41931 a 1.62177,1.62177 0 0 0 0.28911,-0.55921 c 0.09276,-1.72387 0.19844,-3.44919 0.20219,-5.17432 a 5.26187,5.26187 0 0 0 -0.48,-1.52024 l 0.39967,-0.17781 -0.2719,-0.46049 -0.15941,0.0853 z"
           id="path28" /><path
           d="M 34.57843,76.46016 C 34.04848,75.65064 33.51856,74.84111 32.86052,73.83589 A 5.54589,5.54589 0 0 1 34.70294,76.348 Z"
           id="path29" /><path
           d="m 33.68113,86.62124 c 0.33938,0.55276 0.67879,1.1055 1.10055,1.7924 a 2.06927,2.06927 0 0 1 -1.10055,-1.7924 z"
           id="path30" /><path
           d="m 33.82554,54.1496 q -0.37852,-0.76488 -0.757,-1.52979 l 0.19806,-0.10854 q 0.41812,0.72542 0.83627,1.45086 z"
           id="path31" /><path
           d="M 34.85247,64.16941 34.223,63.12565 Z"
           id="path32" /><path
           d="m 33.86522,77.79557 0.60831,0.84375 -0.20817,0.13813 q -0.2526,-0.44457 -0.50533,-0.889 z"
           id="path33" /><path
           d="m 50.59759,35.938 a 11.55955,11.55955 0 0 1 2.478,3.35305 17.97526,17.97526 0 0 1 -2.478,-3.35305 z"
           id="path34" /><path
           d="m 50.86724,34.76784 a 7.09216,7.09216 0 0 1 2.26242,2.77286 8.31545,8.31545 0 0 1 -2.26242,-2.77286 z"
           id="path35" /><path
           d="m 54.2198,36.07115 0.3602,0.44337 -0.1095,0.11161 -0.39972,-0.40166 z"
           id="path36" /><path
           d="m 52.2566,33.482 0.642,0.74067 a 0.89782,0.89782 0 0 1 -0.76691,-0.62512 z"
           id="path37" /><path
           d="m 66.23376,57.804 c -0.01662,-1.4684 -0.07206,-2.91378 -0.04035,-4.35725 0.04994,-2.27353 0.3,-4.55222 0.19734,-6.81656 -0.082,-1.80875 0.3195,-3.54127 0.40856,-5.31463 a 1.28775,1.28775 0 0 1 0.361,-0.7837 c 1.04409,-1.01452 2.11838,-1.99818 3.19246,-2.98145 a 1.67971,1.67971 0 0 1 0.52437,-0.29772 0.59237,0.59237 0 0 1 0.92361,0.61781 c 0.0016,0.4729 -0.09316,0.94554 -0.10385,1.41921 -0.04673,2.0712 -0.07191,4.14292 -0.11848,6.21414 a 28.20052,28.20052 0 0 0 -0.08823,3.05076 c 0.102,1.17155 0.05353,2.33588 0.05719,3.50248 a 6.18906,6.18906 0 0 1 0.14059,1.43154 2.28761,2.28761 0 0 1 -1.08373,1.48537 q -1.61963,1.2231 -3.20671,2.489 a 1.0522,1.0522 0 0 1 -1.16377,0.341 z m 0.88183,-3.96917 c 0.201,-0.32956 0.41144,-0.65377 0.60116,-0.98969 0.514,-0.91013 1.01408,-1.82816 1.52953,-2.73747 0.43327,-0.76435 0.93339,-1.49586 1.30675,-2.28769 a 4.2734,4.2734 0 0 0 0.28091,-2.68385 c -1.30694,1.40376 -3.95647,7.29026 -3.71835,8.69875 z m -0.23718,2.72275 0.24974,0.12005 a 3.87416,3.87416 0 0 0 0.5608,-0.59016 c 0.92361,-1.49645 1.8242,-3.00705 2.73874,-4.50913 a 3.8,3.8 0 0 0 0.31057,-2.78439 1.92487,1.92487 0 0 0 -0.30388,0.29195 c -1.10836,1.975 -2.23925,3.93838 -3.29394,5.94179 a 5.03935,5.03935 0 0 0 -0.26203,1.52994 z m 0.38349,-8.95126 a 4.48313,4.48313 0 0 0 0.37113,-0.56252 c 0.94582,-2.02372 1.90535,-4.0416 2.81028,-6.08361 a 5.81486,5.81486 0 0 0 0.54765,-2.80367 c -0.99686,1.81771 -1.95281,3.64941 -2.79222,5.533 a 10.04839,10.04839 0 0 0 -0.93684,3.91685 z m 3.5521,-5.97209 a 12.085,12.085 0 0 0 -0.646,1.04678 c -1.04235,2.2352 -2.085,4.47048 -3.09285,6.72132 a 2.2307,2.2307 0 0 0 0.02291,1.577 6.29979,6.29979 0 0 0 0.35638,-0.54139 q 1.166,-2.36411 2.32069,-4.73383 0.4215,-0.86755 0.80748,-1.75224 A 3.70147,3.70147 0 0 0 70.814,41.63428 Z m -1.123,-2.285 -0.21586,-0.136 a 7.84777,7.84777 0 0 0 -2.16,5.57683 Q 68.50307,42.0697 69.691,39.34926 Z M 70.68713,52.184 A 8.95748,8.95748 0 0 0 69.2173,54.99536 C 71.09008,53.93041 71.08937,53.921 70.68713,52.184 Z"
           id="path38" /><path
           d="m 75.10171,52.43556 a 19.19607,19.19607 0 0 1 1.85766,-2.67264 l 0.24937,0.1816 q -0.96336,1.3111 -1.92669,2.62223 z"
           id="path39" /><path
           d="m 75.01179,50.06945 a 6.71038,6.71038 0 0 1 1.93274,-2.30329 2.55452,2.55452 0 0 1 -0.81589,1.25364 c -0.30907,0.39559 -0.595,0.80928 -0.891,1.215 z"
           id="path40" /><path
           d="m 76.53241,46.45088 q -0.59331,0.8066 -1.18665,1.61319 L 75.16584,47.92683 A 4.3902,4.3902 0 0 1 76.40567,46.339 Z"
           id="path41" /><path
           d="m 74.51012,53.53552 -0.63481,1.11638 a 1.09666,1.09666 0 0 1 0.63481,-1.11638 z"
           id="path42" /><path
           d="m 74.03328,51.888 -0.44746,0.58854 -0.15063,-0.093 0.38771,-0.66529 z"
           id="path43" /><path
           d="m 76.40567,46.339 0.44,-0.64606 0.18672,0.13426 q -0.25,0.3118 -0.50005,0.62367 z"
           id="path44" /><path
           d="m 68.54692,68.35605 q 0.37965,-0.60573 0.75931,-1.21148 l 0.21849,0.13227 q -0.38,0.61892 -0.76,1.23786 z"
           id="path45" /><path
           d="m 45.95233,28.97893 -1.16255,1.5126 c 0.31648,-1.05659 0.46664,-1.25428 1.16255,-1.5126 z"
           id="path46" /><path
           d="m 47.7652,26.45851 -1.03262,1.4374 -0.17351,-0.1235 a 4.09774,4.09774 0 0 1 1.08641,-1.42174 z"
           id="path47" /><path
           d="m 44.02036,43.36218 a 0.8329,0.8329 0 0 1 -0.68088,0.80935 z"
           id="path48" /><path
           d="m 33.90676,41.07957 a 16.8279,16.8279 0 0 1 -1.69449,-2.97817 5.50963,5.50963 0 0 1 1.69449,2.97817 z"
           id="path49" /><path
           d="m 32.46233,41.13728 a 5.04345,5.04345 0 0 1 1.6607,2.88859 11.86268,11.86268 0 0 1 -1.6607,-2.88859 z"
           id="path50" /><path
           d="M 34.26791,38.71565 A 9.27791,9.27791 0 0 1 32.76,36.492 a 3.28187,3.28187 0 0 1 1.50791,2.22365 z"
           id="path51" /><path
           d="m 31.95137,43.37158 -0.96814,-1.41691 0.23795,-0.14805 q 0.41721,0.73766 0.83453,1.47523 z"
           id="path52" /><path
           d="M 34.52945,28.50427 A 3.32109,3.32109 0 0 1 32.87419,25.53565 Z"
           id="path53" /><path
           d="m 34.07231,30.91821 -1.26593,-2.2268 0.24341,-0.1476 a 5.88585,5.88585 0 0 1 1.18539,2.03748 0.71989,0.71989 0 0 1 -0.1831,0.32492 z"
           id="path54" /><path
           d="m 33.73018,24.35144 q 0.56774,0.68494 1.13546,1.36985 l -0.18121,0.14885 a 2.151,2.151 0 0 1 -1.13178,-1.37295 z"
           id="path55" /><path
           d="m 54.16522,42.969 0.37559,0.43266 -0.14449,0.12922 -0.36356,-0.44556 z"
           id="path56" /><path
           d="m 73.42765,32.53741 a 1.71856,1.71856 0 0 1 0.6312,-1.25226 1.40748,1.40748 0 0 1 -0.649,1.23678 z"
           id="path57" /><path
           d="m 70.5549,21.09061 -0.31615,0.8842 -0.205,-0.09285 a 0.89327,0.89327 0 0 1 0.53084,-0.78286 z"
           id="path58" /><path
           d="m 46.02795,35.34447 a 4.65722,4.65722 0 0 1 1.94252,-2.11674 l 0.19448,0.19274 Q 47.15172,34.4299 46.13849,35.43931 46.083,35.39208 46.02795,35.34447 Z"
           id="path59" /><path
           d="M 46.13848,35.43932 44.5198,37.93715 44.31669,37.80021 A 7.24842,7.24842 0 0 1 46.028,35.3445 q 0.055,0.0475 0.11048,0.09482 z"
           id="path60" /><path
           d="m 46.207,32.87121 a 6.29866,6.29866 0 0 1 2.06121,-2.2774 c -0.024,0.80072 -0.67947,0.86459 -0.93611,1.25294 a 10.92865,10.92865 0 0 1 -0.99168,1.14513 z"
           id="path61" /><path
           d="m 46.49121,37.51859 1.56217,-1.772 0.21047,0.18843 -1.56409,1.7955 z"
           id="path62" /><path
           d="m 46.07231,38.46569 q -0.72074,0.877 -1.44155,1.754 l -0.15893,-0.1281 a 4.77036,4.77036 0 0 1 1.42809,-1.79262 z"
           id="path63" /><path
           d="m 46.34037,32.99187 -0.8086,1.16344 -0.22348,-0.16885 q 0.44939,-0.55758 0.89871,-1.11521 z"
           id="path64" /><path
           d="m 44.49748,35.1408 0.38452,-0.515 0.12327,0.07438 -0.32775,0.56613 z"
           id="path65" /><path
           d="m 32.82966,46.17105 1.16923,1.76542 C 33.26,47.59371 33.14393,47.43055 32.82966,46.17105 Z"
           id="path66" /><path
           d="m 48.70915,20.87643 c -0.688,0.53056 -1.37595,1.06111 -1.74694,1.3472 a 2.33251,2.33251 0 0 1 1.74694,-1.3472 z"
           id="path67" /><path
           d="M 47.64991,23.97343 A 4.19891,4.19891 0 0 1 49.173,22.23137 4.34312,4.34312 0 0 1 47.64991,23.97343 Z"
           id="path68" /><path
           d="m 46.93226,19.95137 q 0.70593,-0.75408 1.41187,-1.50819 l 0.1926,0.15262 a 2.32256,2.32256 0 0 1 -0.64721,0.725 c -0.25772,0.26161 -0.50089,0.53754 -0.7504,0.80724 z"
           id="path69" /><path
           d="m 48.59381,15.75787 -0.73514,0.42823 c 0.05025,-0.44534 0.2542,-0.65253 0.73514,-0.42823 z"
           id="path70" /><path
           d="m 75.8587,18.97106 q 0.44524,-0.71311 0.89043,-1.42624 l 0.22069,0.13858 a 4.5306,4.5306 0 0 1 -0.914,1.41138 z"
           id="path71" /><path
           d="m 75.69923,17.08095 q 0.45238,-0.69341 0.90476,-1.38683 l 0.22592,0.14629 -0.93574,1.38 z"
           id="path72" /><path
           d="m 76.63342,20.11482 c -0.12573,0.22895 -0.24133,0.46425 -0.38009,0.685 -0.13795,0.2195 -0.29924,0.42434 -0.4503,0.6356 l -0.1749,-0.10364 0.7644,-1.38134 z"
           id="path73" /><path
           d="m 74.726,20.97018 0.35533,-0.56179 0.11921,0.06537 -0.32253,0.61145 z"
           id="path74" /><path
           d="m 72.61318,19.59447 0.41955,-0.66927 0.18031,0.10556 -0.39861,0.69563 z"
           id="path75" /><path
           d="m 38.44731,24.81845 0.44213,-0.39064 0.1507,0.17035 -0.44155,0.3913 z"
           id="path76" /><path
           d="m 67.32784,29.135 a 3.90611,3.90611 0 0 1 0.18451,-0.42694 0.41761,0.41761 0 0 1 0.34644,-0.20925 l -0.32084,0.7361 z"
           id="path77" /><path
           d="m 74.46271,74.57029 c -0.47822,0.73029 -0.95649,1.46057 -1.51729,2.31691 0.0066,-0.85358 0.19825,-1.17097 1.51729,-2.31691 z"
           id="path78" /><path
           d="m 51.51912,68.0887 c -0.44373,-0.37008 -0.949,-0.71185 -0.534,-1.48385 l 0.64177,1.3864 z"
           id="path79" /><path
           d="m 51.57467,71.12176 q -0.37455,-0.5688 -0.74909,-1.13758 l 0.18993,-0.1359 a 2.79461,2.79461 0 0 1 0.81484,1.06092 z"
           id="path80" /><path
           d="m 51.62691,67.99125 0.9004,1.05715 a 1.54733,1.54733 0 0 1 -1.00814,-0.95972 z"
           id="path81" /><path
           d="m 52.53,72.18369 -0.52788,-0.62458 0.17628,-0.14313 q 0.24691,0.31887 0.49379,0.63774 z"
           id="path82" /><path
           d="m 77.00094,61.785 c -0.555,0.70921 -1.10993,1.41843 -1.73046,2.21144 A 3.38781,3.38781 0 0 1 77.00094,61.785 Z"
           id="path83" /><path
           d="M 76.97911,66.68994 Q 76.027,67.95507 75.075,69.2202 l -0.19495,-0.138 a 11.102,11.102 0 0 1 1.81571,-2.62162 z"
           id="path84" /><path
           d="m 45.03945,50.46856 -0.37381,0.76738 a 0.54077,0.54077 0 0 1 0.39064,-0.75125 z"
           id="path85" /><path
           d="M 43.774,52.36069 43.44406,52.788 43.30912,52.701 43.60323,52.22641 Z"
           id="path86" /><path
           d="m 54.71812,74.65561 -0.70245,-0.6708 0.15766,-0.16646 a 1.03041,1.03041 0 0 1 0.54479,0.83726 z"
           id="path87" /></g></g></g></svg>
