<?xml version="1.0" encoding="UTF-8" standalone="no"?>
<!-- Created with Inkscape (http://www.inkscape.org/) -->

<svg
   width="60"
   height="60"
   viewBox="0 0 15.875 15.875"
   version="1.1"
   id="svg1"
   xml:space="preserve"
   xmlns="http://www.w3.org/2000/svg"
   xmlns:svg="http://www.w3.org/2000/svg"><defs
     id="defs1" /><g
     id="layer13"
     style="display:inline"><g
       style="fill:#000000;stroke:#000000;stroke-width:0.25731;stroke-dasharray:none;stroke-opacity:1;paint-order:stroke markers fill"
       id="g2"
       transform="matrix(0.17959557,0,0,0.17959557,-1.0539479,-0.73118162)"><g
         id="g27"
         style="stroke:#000000;stroke-width:0.25731;stroke-dasharray:none;stroke-opacity:1;paint-order:stroke markers fill"><path
           d="m 88.55316,46.99941 c -0.32883,0.48522 -0.59694,0.9398 -0.92692,1.34385 a 4.55581,4.55581 0 0 1 -0.69175,0.51334 c -1.09967,0.9009 -2.27425,1.69447 -3.29846,2.708 -1.33829,1.32427 -2.86018,2.46123 -4.27564,3.70987 -0.98116,0.86551 -1.90309,1.79784 -2.87634,2.67268 -0.57893,0.52036 -1.21626,0.97508 -1.80939,1.4804 q -2.55732,2.17861 -5.09984,4.37465 c -0.9045,0.777 -1.8274,1.53392 -2.70775,2.33744 -2.44893,2.23525 -4.85489,4.5182 -7.32714,6.72707 a 43.08129,43.08129 0 0 1 -4.756,4.09653 28.26759,28.26759 0 0 0 -2.75593,2.41734 12.035,12.035 0 0 1 -1.24838,0.95269 0.812,0.812 0 0 1 -1.26125,-0.22539 2.38816,2.38816 0 0 0 -0.57944,-0.51453 c -1.90432,-1.11768 -3.827,-2.20442 -5.7223,-3.337 -0.67218,-0.40166 -1.28117,-0.90831 -1.92382,-1.3602 -2.1202,-1.4909 -4.30062,-2.90353 -6.3499,-4.48612 -2.74711,-2.12151 -5.65567,-4.001 -8.54015,-5.91452 a 64.18291,64.18291 0 0 1 -6.15566,-5.012 c -1.85517,-1.591 -3.74968,-3.1384 -5.559,-4.77979 a 35.027,35.027 0 0 0 -2.84657,-2.15254 c -0.53253,-0.393 -0.50422,-0.44861 -0.0466,-0.87576 1.18968,-1.11043 2.34852,-2.254 3.51622,-3.3878 0.62649,-0.60834 1.24076,-1.22925 1.86951,-1.83524 1.55166,-1.49545 3.08931,-3.00614 4.66761,-4.47305 2.49523,-2.31913 4.99529,-4.63418 7.53821,-6.90058 2.12861,-1.89714 4.33308,-3.7089 6.48237,-5.5832 1.88567,-1.6444 3.73477,-3.33066 5.61271,-4.984 1.20123,-1.0576 2.44019,-2.07259 3.63359,-3.13878 0.64548,-0.57667 1.2308,-1.22071 1.92372,-1.915 a 3.2053,3.2053 0 0 1 1.46293,0.64105 c 2.37807,1.51625 4.75863,3.029 7.11708,4.57542 0.89856,0.58915 1.71455,1.30415 2.61277,1.89386 3.25432,2.1365 6.5367,4.23027 9.79045,6.36764 q 3.17081,2.08291 6.28811,4.24685 c 0.88513,0.61107 1.70891,1.31024 2.575,1.94987 0.91227,0.6738 1.84269,1.323 2.76343,1.98537 0.98958,0.71193 1.99811,1.39966 2.96044,2.14684 a 32.737,32.737 0 0 0 4.21538,2.7338 c 0.37547,0.20854 0.70377,0.50053 1.07142,0.72527 a 4.4508,4.4508 0 0 0 0.65728,0.27567 z M 55.91887,27.35761 a 0.70964,0.70964 0 0 0 0.83964,-0.72293 l -0.90477,0.25941 c 0.03432,0.208 0.05645,0.34218 0.07848,0.47636 l -0.643,-0.13912 a 1.041,1.041 0 0 0 0.72091,0.58573 z M 65.5,38.0114 a 2.05568,2.05568 0 0 0 -1.25164,0.48747 0.91173,0.91173 0 0 0 1.42342,-0.37863 c 0.30506,0.03439 0.6886,0.24309 0.72224,-0.32523 0.67412,0.37246 1.12613,-0.10229 1.74141,-0.44121 A 1.34142,1.34142 0 0 0 67.57869,37.04338 1.71751,1.71751 0 0 0 66.3474,37.72848 0.8,0.8 0 0 0 65.5,38.0114 Z m -7.63271,-9.05785 a 1.794,1.794 0 0 0 1.31709,-0.5101 c -0.62869,-0.79605 -1.36979,-0.91 -1.80458,-0.17719 0.16906,0.23744 0.33443,0.46971 0.49892,0.70112 L 56.96323,28.4522 c 0.24699,0.28357 0.37591,0.82621 0.90408,0.50135 z m 12.91434,10.47689 a 2.15686,2.15686 0 0 0 -1.63281,0.52644 c 0.65418,0.68785 0.88412,0.696 2.00048,0.10142 q -0.18934,-0.3207 -0.37719,-0.63937 l 0.90363,0.4812 C 71.45923,39.555 71.29766,39.07586 70.78163,39.43044 Z M 61.15854,30.69862 61.8544,30.05393 C 61.25022,29.69148 60.72348,29.34779 60.17,29.05466 a 0.93669,0.93669 0 0 0 -1.02863,0.42545 c -0.16313,0.35189 0.10152,0.50159 0.32118,0.70539 a 1.65681,1.65681 0 0 0 1.713,0.49782 l -0.42159,0.40193 a 1.15291,1.15291 0 0 0 1.73832,0.36374 0.867,0.867 0 0 1 1.11913,0.044 l -1.66764,0.54908 c 0.36058,0.29608 0.59259,0.49576 0.83448,0.68268 0.24932,0.19266 0.50824,0.37292 0.80873,0.592 l 1.762,-1.07617 a 0.90213,0.90213 0 0 0 -0.1463,-0.23087 c -0.5507,-0.31989 -1.12152,-0.60828 -1.65434,-0.95517 a 1.92938,1.92938 0 0 0 -2.2179,-0.35456 0.37423,0.37423 0 0 1 -0.1719,-0.0014 z m 15.06262,15.73355 0.01139,0.01339 a 16.91216,16.91216 0 0 0 3.64518,-3.42483 2.815,2.815 0 0 0 -0.93782,0.23522 c -1.59414,0.69394 -3.18234,1.4015 -4.77754,2.09295 a 5.43155,5.43155 0 0 1 -0.73519,0.20593 2.55545,2.55545 0 0 1 0.45883,-0.36762 c 1.61958,-0.77661 3.23387,-1.56639 4.8766,-2.29134 a 9.1039,9.1039 0 0 1 1.66659,-0.3961 c -0.798,-0.945 -1.013,-1.01221 -2.136,-0.6362 -0.27434,0.09185 -0.54339,0.20091 -0.81079,0.31182 -1.51337,0.62776 -3.02549,1.2585 -4.60167,1.91472 -0.05542,-0.22 -0.10907,-0.433 -0.163,-0.64578 a 0.74524,0.74524 0 0 0 0.79631,0.07265 c 1.40575,-0.64946 2.8351,-1.24814 4.25962,-1.85652 0.31038,-0.13255 0.63626,-0.22877 1.03468,-0.37 a 1.01152,1.01152 0 0 0 -1.18457,-0.45219 c -1.18172,0.469 -2.37512,0.90863 -3.55568,1.38042 -0.5634,0.22515 -1.10831,0.49653 -1.70911,0.76844 l 0.37606,0.47147 -1.1069,-0.42826 v -0.46342 a 1.03881,1.03881 0 0 0 1.14427,-0.28081 l -0.70072,-0.75521 0.121,-0.14317 c 0.20306,0.17429 0.40266,0.35282 0.61014,0.52171 a 0.66794,0.66794 0 0 0 0.77683,0.17357 c 1.27259,-0.5421 2.56414,-1.0396 4.01926,-1.62223 -0.26208,-0.19849 -0.48785,-0.37209 -0.71633,-0.54208 -1.18564,-0.88222 -0.99828,-0.75835 -2.06654,-0.22769 a 3.67856,3.67856 0 0 1 -0.53348,0.29086 0.84283,0.84283 0 0 0 -0.72863,0.91231 1.872,1.872 0 0 0 -0.79431,-0.17551 18.59368,18.59368 0 0 0 -1.70088,0.77554 l 0.4615,0.975 -1.11851,-0.74368 A 8.7538,8.7538 0 0 1 67.189,42.768 l 2.8831,-1.2592 a 0.51288,0.51288 0 0 0 -0.78195,-0.27525 c -0.50175,0.14486 -0.98616,0.3623 -1.4947,0.469 a 28.64269,28.64269 0 0 0 -6.74525,2.56458 36.094,36.094 0 0 1 -3.68491,1.57717 c -1.584,0.57224 -3.20628,1.03847 -4.81322,1.54679 -0.74758,0.23649 -1.51026,0.4312 -2.2435,0.70531 a 4.88243,4.88243 0 0 0 -2.06015,1.272 1.569,1.569 0 0 0 0.07913,2.26492 c 1.16167,1.178 2.28357,2.396 3.46443,3.55414 1.61651,1.5854 3.23037,3.18395 5.47671,3.89816 a 5.30912,5.30912 0 0 0 3.995,-0.11867 8.03653,8.03653 0 0 0 1.3781,-0.90026 c 1.92873,-1.45168 3.90728,-2.84566 5.75215,-4.398 2.05764,-1.73138 3.99018,-3.61141 5.99883,-5.44651 -0.4473,-0.42754 -0.90457,-0.8256 -1.31582,-1.26655 -0.66815,-0.7164 -0.655,-0.72714 -1.583,-0.38148 a 0.22432,0.22432 0 0 1 -0.1214,-0.04832 l 0.80715,-0.81019 c 0.38575,-0.05338 0.8253,-0.1142 1.26432,-0.17466 l -0.7095,0.6 1.89882,1.85074 c 0.50739,-0.37557 0.93949,-0.6618 1.32662,-0.99957 a 1.59142,1.59142 0 0 0 0.2612,-0.55998 z m 4.17137,-1.77826 0.05362,0.06509 a 4.36136,4.36136 0 0 1 -0.81783,0.45616 7.61215,7.61215 0 0 0 -3.18413,2.01116 11.8928,11.8928 0 0 1 -2.34721,1.9689 5.01626,5.01626 0 0 0 -1.0255,1.137 c -0.58852,0.53389 -1.1652,1.08159 -1.768,1.59877 a 42.66446,42.66446 0 0 1 -3.77413,3.05153 c -1.583,1.07356 -2.98435,2.41252 -4.55,3.5149 a 6.60167,6.60167 0 0 1 -2.512,1.43412 7.05231,7.05231 0 0 1 -3.50279,-0.29525 10.36411,10.36411 0 0 1 -4.22856,-2.69306 c -1.67118,-1.61346 -3.285,-3.28678 -4.90924,-4.94826 a 2.06167,2.06167 0 0 1 0.08228,-3.08215 7.93617,7.93617 0 0 1 1.60113,-1.02722 c 2.21239,-0.80074 4.4596,-1.50466 6.68409,-2.27295 a 39.31368,39.31368 0 0 0 4.07486,-1.52142 31.54819,31.54819 0 0 1 6.51983,-2.66171 0.48592,0.48592 0 0 0 0.50478,-0.38967 2.383,2.383 0 0 0 1.88235,-0.34189 1.26144,1.26144 0 0 0 -1.89975,0.11 0.48032,0.48032 0 0 0 0.034,0.24871 1.09186,1.09186 0 0 1 -0.87473,-0.61018 1.87412,1.87412 0 0 0 1.86983,-0.71852 c -0.2407,-0.28 -0.45957,-0.53452 -0.678,-0.78885 a 1.80971,1.80971 0 0 1 0.36809,0.1856 c 0.84121,0.698 1.20943,0.6812 1.99783,-0.108 -0.97374,-0.997 -1.68019,-1.01575 -2.35269,-0.06242 a 2.37873,2.37873 0 0 0 -1.86569,0.46437 1.24313,1.24313 0 0 1 -1.11185,0.13388 1.23768,1.23768 0 0 1 -0.29361,0.41744 5.93009,5.93009 0 0 1 -1.059,0.39574 c -0.54242,0.14228 -1.10511,0.2101 -1.64339,0.36461 a 15.5461,15.5461 0 0 1 -1.71411,0.58023 3.88462,3.88462 0 0 1 -3.52835,-0.76561 c -0.71081,-0.67715 -1.34262,-1.43655 -2.02432,-2.1452 a 1.67548,1.67548 0 0 1 -0.47147,-1.18457 3.44722,3.44722 0 0 1 0.929,-2.80367 0.88962,0.88962 0 0 0 0.41862,-0.97467 13.60846,13.60846 0 0 0 2.76608,-3.6055 1.19482,1.19482 0 0 0 -1.296,0.30185 0.72715,0.72715 0 0 1 -0.9397,0.09223 l 1.57814,-0.78272 c -0.468,-0.30522 -0.82006,-0.5348 -1.17336,-0.76524 a 2.39892,2.39892 0 0 0 -0.46633,0.33384 c -1.06411,1.29826 -2.09821,2.62162 -3.18235,3.90269 a 15.10255,15.10255 0 0 1 -1.55472,1.52128 1.965,1.965 0 0 1 -2.36151,0.251 22.88092,22.88092 0 0 1 -2.72551,-1.70037 c -0.93571,-0.68595 -1.77005,-1.50854 -2.68906,-2.21921 -1.28388,-0.9928 -2.60526,-1.93709 -3.99707,-2.96607 -0.56988,0.48423 -1.18052,1.00311 -1.87734,1.59521 0.7939,0.55509 1.474,1.04144 2.16573,1.51072 0.505,0.34262 1.05224,0.62786 1.53354,0.99967 1.31064,1.01248 2.617,2.0326 3.88717,3.09495 2.09581,1.7529 4.16678,3.5357 6.23659,5.3194 a 12.40369,12.40369 0 0 1 1.2375,1.23129 1.41461,1.41461 0 0 1 -0.34968,2.28238 c -0.22349,0.13592 -0.46026,0.25 -0.69116,0.374 a 0.53013,0.53013 0 0 1 0.25274,-0.66474 c 0.7975,-0.758 0.8275,-1.05738 0.04033,-1.85871 C 50.794,40.75255 49.89786,39.87312 48.948,39.061 c -1.5677,-1.34027 -3.18258,-2.62549 -4.78432,-3.92565 -0.36126,-0.29325 -0.79223,-0.51006 -1.11925,-0.8345 -1.706,-1.69264 -3.84,-2.80274 -5.72467,-4.25031 a 0.74139,0.74139 0 0 0 -1.08663,0.07344 c -0.46742,0.43745 -0.965,0.8434 -1.45765,1.25313 -1.5211,1.26493 -3.07382,2.49349 -4.56247,3.79541 -1.81718,1.58927 -3.58471,3.23543 -5.368,4.86323 -0.98847,0.90228 -1.99061,1.79172 -2.94222,2.73186 -2.07129,2.04633 -4.10413,4.13158 -6.17312,6.18026 -0.94761,0.9383 -1.94657,1.82463 -2.91346,2.74375 a 2.29691,2.29691 0 0 0 -0.28479,0.46071 l 0.738,0.46831 c 0.29288,-0.29111 0.55472,-0.55559 0.82113,-0.81534 0.6041,-0.589 1.18254,-1.20815 1.82145,-1.75678 1.52233,-1.30714 3.06827,-2.587 4.61466,-3.86582 1.72685,-1.428 3.45566,-2.854 5.201,-4.25935 1.15562,-0.9305 2.32154,-1.851 3.52318,-2.72023 a 10.702,10.702 0 0 1 1.83216,-1.00051 1.58718,1.58718 0 0 1 1.71758,0.26971 c 0.57572,0.44341 1.17745,0.853 1.76714,1.27832 a 16.36881,16.36881 0 0 1 1.68643,1.23716 c 1.27215,1.19452 2.4925,2.44413 3.73695,3.66826 a 9.8142,9.8142 0 0 0 0.897,0.83189 2.86384,2.86384 0 0 0 2.2896,0.88493 31.61872,31.61872 0 0 0 5.37553,-1.473 6.71755,6.71755 0 0 1 2.83989,-0.74657 0.64456,0.64456 0 0 1 -0.64077,0.48907 c -0.62546,0.2357 -1.28651,0.38482 -1.89613,0.65308 a 30.10819,30.10819 0 0 1 -5.26513,1.528 2.88136,2.88136 0 0 1 -2.75069,-0.69127 c -1.18271,-1.0736 -2.37172,-2.15212 -3.44482,-3.33159 a 20.12406,20.12406 0 0 0 -4.5919,-3.57807 2.37871,2.37871 0 0 0 -1.473,-0.35868 3.90888,3.90888 0 0 0 -1.641,0.76488 c -1.83225,1.3818 -3.62864,2.81162 -5.42393,4.24176 -0.68051,0.5421 -1.30989,1.14794 -1.98333,1.69942 -1.44013,1.17929 -2.92256,2.30859 -4.3333,3.52162 -1.25471,1.07886 -2.43952,2.23932 -3.64569,3.37388 a 3.571,3.571 0 0 0 -0.39871,0.55393 13.251,13.251 0 0 0 2.74313,2.27756 c 1.4921,-1.32713 2.88916,-2.59948 4.32155,-3.83073 0.6831,-0.58717 1.44911,-1.07678 2.15034,-1.64424 a 62.76316,62.76316 0 0 1 6.84918,-4.6597 3.25072,3.25072 0 0 1 3.09845,-0.12905 c 0.72022,0.313 1.43542,0.64036 2.13654,0.99371 a 15.94649,15.94649 0 0 1 1.41758,0.82734 c 0.391,0.25059 0.7637,0.53134 1.13341,0.81326 0.64582,0.49246 1.3071,0.96852 1.91844,1.50132 0.96367,0.83988 1.87592,1.7387 2.83882,2.57951 0.89649,0.7828 1.80767,1.55267 2.75447,2.27291 1.04063,0.79162 2.13565,1.51137 3.19307,2.28155 a 4.96218,4.96218 0 0 1 0.82918,0.76854 1.83077,1.83077 0 0 1 0.1172,2.39628 18.33745,18.33745 0 0 1 -1.87887,2.05794 c -1.10275,1.032 -2.26157,2.00432 -3.40157,2.99627 -0.81166,0.70628 -1.62438,1.41157 -2.44889,2.1027 -1.132,0.94882 -2.27556,1.88383 -3.49468,2.89131 l 1.63277,1.556 C 39.14901,70.70217 38.4832,70.33249 37.76999,69.93653 l -0.88946,0.82214 a 26.48427,26.48427 0 0 0 3.48377,2.26765 0.95283,0.95283 0 0 0 0.50608,-1.0593 2.87049,2.87049 0 0 0 0.66182,-0.32486 c 0.37327,-0.32082 0.67153,-0.73357 1.05967,-1.03163 a 48.19709,48.19709 0 0 0 4.64279,-4.608 c 1.32959,-1.34191 2.61228,-2.73016 3.92209,-4.09179 a 2.06211,2.06211 0 0 1 3.11435,-0.14565 32.97474,32.97474 0 0 1 2.77282,2.51839 c 1.01185,1.0043 1.97825,2.0559 2.93405,3.11433 a 0.82091,0.82091 0 0 0 0.99662,0.24145 c 0.55763,-0.17033 1.14611,-0.23969 1.916,-0.39056 -0.72869,0.7329 -1.61692,0.4083 -2.30487,0.92295 l 1.187,1.28944 a 7.72647,7.72647 0 0 1 2.279,-1.91775 5.04121,5.04121 0 0 0 0.55442,-0.474 C 63.79527,66.57002 63.39121,65.76815 62.44668,65.5736 a 0.73671,0.73671 0 0 0 0.39291,-0.96068 3.25946,3.25946 0 0 1 1.05455,-3.45507 c 0.29529,-0.27676 0.61386,-0.52849 0.91727,-0.79676 a 16.06266,16.06266 0 0 0 1.8013,-1.635 9.07518,9.07518 0 0 1 2.21595,-1.90058 7.77213,7.77213 0 0 0 2.12588,-1.982 c -0.308,0.15067 -0.57641,0.30419 -0.86139,0.41489 a 8.36436,8.36436 0 0 1 -0.834,0.2423 0.8293,0.8293 0 0 1 -0.92528,0.12334 c 0.65744,-0.27854 1.20805,-0.51271 1.7594,-0.745 a 4.1158,4.1158 0 0 1 1.03673,-0.4142 3.64513,3.64513 0 0 0 1.99872,-1.25136 1.53717,1.53717 0 0 1 -0.6274,-0.78761 0.67337,0.67337 0 0 1 0.25536,0.037 c 0.87805,0.56409 0.87,0.55887 1.617,-0.15237 a 5.78277,5.78277 0 0 1 0.68607,-0.49384 l -0.42533,-0.66848 a 1.013,1.013 0 0 0 1.36914,-0.31356 2.24281,2.24281 0 0 1 0.474,-0.36965 c 0.9591,-0.69042 1.92186,-1.37577 2.877,-2.0716 a 2.77315,2.77315 0 0 0 0.35166,-0.36774 l -1.22071,0.16594 c 0.64961,-0.3071 1.28793,-0.64154 1.95125,-0.91545 a 8.93275,8.93275 0 0 0 3.09113,-2.50995 l -2.48054,-1.928 -2.14658,2.21836 z M 46.8162,21.60746 a 1.36114,1.36114 0 0 1 1.44869,0.32737 l 0.86982,-0.4581 -1.96591,-1.11264 -7.47212,6.93164 c 0.40967,0.35193 0.7239,0.654 1.07008,0.9134 1.161,0.87 2.36994,1.68012 3.49237,2.59664 a 34.228,34.228 0 0 0 4.42519,3.22384 1.42252,1.42252 0 0 0 1.7777,0.01108 8.93571,8.93571 0 0 0 1.12221,-0.95283 c 0.66981,-0.76512 1.23886,-1.62145 1.93452,-2.36009 a 12.423,12.423 0 0 1 1.93474,-2.26477 0.51894,0.51894 0 0 0 0.07516,-0.20124 c -0.29782,-0.2375 -0.60644,-0.48364 -0.94233,-0.75153 a 7.08829,7.08829 0 0 0 -0.67918,0.45622 c -1.17263,1.00432 -2.34713,2.00691 -3.49806,3.03575 a 10.99121,10.99121 0 0 0 -1.25623,1.322 c -0.42248,0.52837 -0.45336,0.54926 -1.00111,0.12251 -1.30839,-1.01941 -2.61709,-2.03887 -3.943,-3.03514 -0.83763,-0.62934 -1.71172,-1.20989 -2.55949,-1.826 a 0.719,0.719 0 0 1 -0.09567,-1.22332 q 2.12788,-1.943 4.25945,-3.88194 c 0.1698,-0.1553 0.315,-0.33744 0.47167,-0.50713 z m 12.62273,10.84323 c -0.568,-0.32946 -1.136,-0.65891 -1.75727,-1.01927 l -0.49856,0.63023 0.34819,0.274 a 7.49741,7.49741 0 0 0 -1.32935,0.96239 21.97345,21.97345 0 0 0 -1.37294,1.90852 2.49079,2.49079 0 0 0 0.12106,3.04441 c 0.45347,0.52578 0.98954,0.9807 1.4386,1.50981 a 3.07486,3.07486 0 0 0 3.34107,0.95309 c 1.54483,-0.4247 3.0186,-1.10793 4.60151,-1.70957 -0.58,-0.46884 -1.03748,-0.84409 -1.50154,-1.211 -0.18188,-0.14381 -0.38508,-0.26062 -0.56708,-0.40431 A 0.87428,0.87428 0 0 0 61.2157,37.32746 c -0.4935,0.24883 -1.02937,0.41362 -1.547,0.61465 l -0.06171,-0.1565 c 0.49877,-0.22747 1.01,-0.43223 1.48955,-0.69471 a 1.88025,1.88025 0 0 0 0.41578,-0.53545 7.44964,7.44964 0 0 0 3.78516,-1.47885 C 64.919,34.78778 64.56031,34.49977 64.18694,34.23219 a 1.0258,1.0258 0 0 0 -1.6138,-0.01994 1.60452,1.60452 0 0 1 -1.03369,0.34649 l -0.051,-0.064 c 0.51261,-0.339 1.02522,-0.678 1.612,-1.06608 -0.40571,-0.30628 -0.76233,-0.5848 -1.1287,-0.84979 a 1.18162,1.18162 0 0 0 -1.57068,0.254 1.2897,1.2897 0 0 0 0.09155,0.52313 1.175,1.175 0 0 0 -1.37879,-0.17581 q -0.03777,-0.042 -0.075,-0.08453 c 0.17761,-0.19122 0.61095,-0.23421 0.38255,-0.66073 a 1.72953,1.72953 0 0 0 1.67509,-0.47189 l -0.96636,-0.6987 -1.16224,0.52355 z m -12.42865,38.6376 a 23.08107,23.08107 0 0 0 -2.25612,1.94154 l 0.83037,0.7628 -0.05392,0.2122 c -0.89561,-0.32316 -0.77424,0.45561 -1.01693,0.92234 -0.42889,-0.57912 0.06926,-0.91872 0.187,-1.30981 a 1.02134,1.02134 0 0 0 -0.23174,-0.15815 c -0.49964,0.40632 -0.98964,0.82445 -1.58091,1.325 l 4.37831,2.78892 a 11.92924,11.92924 0 0 1 1.38329,-1.32267 28.55206,28.55206 0 0 0 3.71519,-3.2809 0.80648,0.80648 0 0 1 1.1001,-0.15387 c 0.34228,0.21531 0.702,0.4028 1.05234,0.60533 0.59246,0.34246 1.18365,0.68707 1.704,0.98936 L 60.37094,70.805 a 1.56083,1.56083 0 0 0 -1.95775,-0.65754 c -0.40308,0.18455 -0.83818,0.29918 -1.3584,0.48012 0.39337,-0.82352 1.36208,-0.47679 1.78522,-1.10329 -1.65282,-1.805 -4.03014,-2.56108 -5.81518,-4.25395 a 9.91837,9.91837 0 0 0 -1.02239,0.75549 q -2.16882,2.08893 -4.30363,4.21307 a 10.133,10.133 0 0 0 -0.70505,0.86526 z m -10.60751,-0.74916 0.94324,-0.97228 a 2.53022,2.53022 0 0 1 0.231,-0.23548 c 1.52668,-1.20623 3.07115,-2.39055 4.5788,-3.62006 1.26177,-1.029 2.50809,-2.08039 3.71068,-3.17732 1.00821,-0.91967 1.96112,-1.90244 2.90452,-2.88977 a 1.2878,1.2878 0 0 0 0.04057,-1.94849 4.90523,4.90523 0 0 0 -1.01347,-0.957 62.04421,62.04421 0 0 1 -5.4333,-4.22689 c -0.84732,-0.70519 -1.63357,-1.48334 -2.45564,-2.21937 -0.518,-0.46374 -1.02818,-0.941 -1.583,-1.35751 a 26.60227,26.60227 0 0 0 -2.21484,-1.51089 12.85,12.85 0 0 0 -1.49642,-0.657 1.52809,1.52809 0 0 1 -0.40533,-0.22757 c -0.908,-0.80725 -2.86793,-1.31638 -3.983,-0.61031 -0.639,0.40462 -1.28267,0.80191 -1.92317,1.20419 a 73.86361,73.86361 0 0 0 -9.72246,7.38533 18.78841,18.78841 0 0 0 -1.4226,1.58164 c 1.30884,1.12542 2.51179,2.17336 3.73,3.20329 1.11082,0.93913 2.21389,1.8901 3.364,2.77949 1.70248,1.31661 3.40416,2.641 5.17976,3.85433 1.607,1.09812 3.32487,2.03264 4.96859,3.079 0.65766,0.41869 1.24772,0.94362 2.00208,1.52267 z M 74.5062,53.6333 c 0.22768,0.692 1.07051,0.77782 1.14747,1.48793 a 2.53095,2.53095 0 0 1 -0.76543,-0.52386 c -0.72663,-0.73535 -0.7967,-1.10657 -2.14815,-0.29066 -0.14766,0.08916 -0.27126,0.21756 -0.41686,0.31083 -1.58911,1.018 -2.69786,2.62986 -4.37576,3.53972 a 1.84634,1.84634 0 0 0 -0.30773,0.30745 c -0.27678,0.25747 -0.55693,0.51134 -0.837,0.76524 -0.94437,0.856 -1.9258,1.67511 -2.82331,2.57767 a 2.64694,2.64694 0 0 0 -0.34661,3.18286 c 0.34117,-0.11529 0.69046,-0.24845 1.04866,-0.35013 a 9.49324,9.49324 0 0 1 1.091,-0.25168 0.813,0.813 0 0 1 0.98307,0.26117 c -0.9523,0.29046 -2.09107,0.0358 -2.82929,1.08169 l 1.13155,0.875 c 0.43085,-0.30909 0.8237,-0.55359 1.17388,-0.84872 1.39875,-1.17886 2.80227,-2.35317 4.16944,-3.56808 1.30528,-1.15989 2.56461,-2.37132 3.84962,-3.55418 1.092,-1.00521 2.17927,-2.01617 3.29152,-2.99869 1.28309,-1.13343 2.7265,-2.06181 3.97395,-3.25568 1.70037,-1.62739 3.53665,-3.11273 5.31253,-4.66138 a 4.05757,4.05757 0 0 0 0.30385,-0.354 l -2.88368,-2.16974 a 2.23548,2.23548 0 0 0 -1.103,0.86917 l 1.09237,-0.2279 0.05358,0.19013 c -0.19733,0.09751 -0.39517,0.194 -0.59186,0.2927 a 17.69924,17.69924 0 0 0 -2.46727,1.26772 c -1.55312,1.11919 -2.98957,2.398 -4.62956,3.40366 a 7.77462,7.77462 0 0 0 -0.8383,0.70341 5.63361,5.63361 0 0 0 0.95732,0.505 1.64672,1.64672 0 0 0 0.82,0.0054 c 0.58806,-0.14669 1.15791,-0.36516 1.74317,-0.52515 a 1.69081,1.69081 0 0 1 0.52636,0.02729 l 0.01721,0.13886 c -0.68715,0.22943 -1.37432,0.45885 -2.17771,0.7271 l 0.97452,0.59453 c -0.74548,0.15759 -1.3265,-0.52262 -2.07291,-0.23263 -0.66801,0.25955 -1.35696,0.46516 -2.04664,0.69793 z M 48.54509,31.93287 c 1.86783,-1.68114 3.69336,-3.32426 5.52493,-4.97277 a 0.83573,0.83573 0 0 0 -1.25287,-0.26643 c -0.28593,0.17045 -0.59552,0.3012 -0.89446,0.4498 l -0.0734,-0.13785 1.2234,-0.829 a 3.15789,3.15789 0 0 0 -0.74127,-0.502 0.94836,0.94836 0 0 1 -0.5993,-0.44236 1.01446,1.01446 0 0 0 -1.33037,-0.50529 0.29543,0.29543 0 0 1 -0.13744,-0.06675 l 0.22891,-0.40618 -1.0218,-0.719 -1.18936,0.61421 -0.05267,-0.101 0.913,-0.77457 -1.11169,-0.76949 -0.94419,0.3904 0.55249,-0.72479 a 1.043,1.043 0 0 0 -0.472,-0.01737 46.84818,46.84818 0 0 0 -5.30682,4.8518 z m 11.96237,37.11287 c -0.5543,-0.69558 -1.01407,-1.37988 -1.5795,-1.96142 -1.52,-1.56331 -3.06209,-3.10691 -4.64027,-4.61126 -1.10131,-1.04979 -2.0224,-0.99874 -3.12671,0.05344 -0.12587,0.12 -0.236,0.25627 -0.35549,0.38306 -0.31936,0.33888 -0.63743,0.679 -0.96033,1.01446 -0.86709,0.90094 -1.73885,1.79738 -2.60439,2.69982 -1.28734,1.34225 -2.56756,2.69135 -3.85738,4.03121 -0.74941,0.77847 -1.51645,1.54 -2.26272,2.32144 a 1.64181,1.64181 0 0 0 -0.21254,0.45664 c 0.36123,0.23067 0.67879,0.43474 0.99763,0.63678 a 0.6102,0.6102 0 0 0 0.99207,-0.24652 l -0.3623,-0.548 c 0.3802,0.04 0.61257,0.4246 1.01828,0.15789 a 0.74056,0.74056 0 0 0 0.29424,-0.81539 2.432,2.432 0 0 0 0.73315,-0.25484 c 0.81715,-0.70072 1.63467,-1.40512 2.40145,-2.15966 1.61633,-1.5905 3.19847,-3.21567 4.8,-4.82125 a 1.3458,1.3458 0 0 1 2.11561,-0.18077 c 1.16577,0.8149 2.359,1.59042 3.53019,2.39771 a 7.06749,7.06749 0 0 1 1.58455,1.21272 1.00442,1.00442 0 0 0 1.49446,0.23394 z m -12.62984,8.95682 c 0.60753,0.38734 1.18,0.72709 1.72519,1.106 A 1.40575,1.40575 0 0 0 51.5241,78.838 c 0.76921,-0.66055 1.58658,-1.26493 2.35748,-1.9236 a 7.6895,7.6895 0 0 0 1.9166,-1.82784 C 55.16773,74.18531 54.136,73.9899 53.3338,73.44867 a 0.74592,0.74592 0 0 0 -0.60713,0.17512 c -0.49026,0.39509 -0.94168,0.8381 -1.41248,1.25767 -0.52881,0.47127 -1.065,0.93432 -1.59111,1.40854 a 0.488,0.488 0 0 0 -0.18516,0.28722 0.64366,0.64366 0 0 1 -0.66039,0.6438 1.36318,1.36318 0 0 0 -0.99991,0.78154 z M 67.34986,36.6787 A 8.67947,8.67947 0 0 1 66.35703,35.92215 1.02992,1.02992 0 0 0 64.94,35.79788 17.00476,17.00476 0 0 1 63.165,36.53416 c -0.28118,0.12694 -0.57,0.23712 -0.87234,0.36192 a 4.35075,4.35075 0 0 0 1.55219,1.273 9.56533,9.56533 0 0 0 1.191,-0.46093 c 0.08008,-0.03172 0.17134,-0.037 0.24909,-0.07268 0.6455,-0.29612 1.28912,-0.59653 2.06492,-0.95677 z m 1.09151,-2.53556 c -0.78751,0.41475 -1.44262,0.75976 -2.222,1.17025 0.46259,0.341 0.85649,0.61581 1.23245,0.91332 a 0.725,0.725 0 0 0 0.87973,0.02257 c 0.46034,-0.23783 0.9343,-0.45264 1.41568,-0.644 a 1.5828,1.5828 0 0 1 0.58229,0.11914 C 69.5501,36.092 68.94175,36.3789 68.17415,36.74088 a 1.52946,1.52946 0 0 0 0.5994,0.22193 c 0.7133,-0.317 1.40981,-0.67188 2.22841,-1.07176 z M 68.145,33.953 c -0.68005,-0.48366 -1.234,-0.89053 -1.80414,-1.2734 a 0.64321,0.64321 0 0 0 -0.4724,-0.12251 5.12231,5.12231 0 0 0 -1.93951,1.0435 l 1.90276,1.44 z m 5.52112,3.82591 c -0.48894,-0.32674 -0.88768,-0.60223 -1.29758,-0.86 A 0.43059,0.43059 0 0 0 72.0424,36.8558 10.77837,10.77837 0 0 0 69.79813,37.84597 c 0.379,0.28564 0.66522,0.52533 0.977,0.725 a 0.6555,0.6555 0 0 0 0.47839,0.11554 C 72.03123,38.4176 72.796,38.11126 73.66615,37.77894 Z M 71.37228,39.0077 72.322,39.586 c 0.74133,-0.41457 1.68271,-0.36965 2.30916,-1.04045 a 0.65276,0.65276 0 0 0 -0.812,-0.41036 c -0.75405,0.26849 -1.50791,0.53767 -2.44688,0.87251 z M 51.11307,22.653 50.0266,23.17366 c 1.37205,1.01235 1.13177,1.09425 2.33552,0.36847 z m 7.37381,7.481 -0.52847,0.94565 0.71528,0.56767 1.21339,-0.65116 z m 15.489,23.12734 0.10467,0.191 c 0.78148,-0.28372 1.563,-0.56744 2.50251,-0.90851 L 75.51674,51.95939 Z M 50.65918,22.433 c -1.15069,-0.89769 -1.26679,-0.9073 -1.98278,-0.22 l 1.03477,0.75839 z m 1.03017,1.91949 c 0.79621,0.75972 0.79621,0.75972 1.78587,0.072 -0.77982,-0.6136 -0.77982,-0.6136 -1.78588,-0.07202 z m 4.32056,1.99779 c -0.341,-0.75175 -0.56376,-0.82659 -1.23568,-0.41518 0.56385,0.79548 0.56385,0.79548 1.23568,0.41517 z M 71.79065,36.536 a 2.97238,2.97238 0 0 0 -2.36678,0.94779 C 70.18395,37.17939 70.944,36.875 71.79065,36.536 Z M 61.33,70.084 c -0.40529,-0.62671 -0.40529,-0.62671 -1.09674,-0.358 0.49018,0.505 0.49018,0.505 1.09674,0.358 z M 71.89207,40.76474 c -0.48559,-0.26774 -0.71322,-0.21277 -1.48522,0.313 0.59548,0.30744 0.94286,-0.27499 1.48522,-0.313 z M 54.86493,25.2398 c -0.45,-0.12464 -0.66316,-0.69317 -1.16242,-0.224 0.32049,0.2833 0.52018,0.82975 1.16242,0.224 z m 2.086,2.67442 0.8864,-0.4508 C 57.167,27.04691 57.03821,27.4403 56.95091,27.91423 Z M 53.8866,25.75237 c -0.2599,-0.338 -0.38,-0.7042 -0.949,-0.52907 a 1.04438,1.04438 0 0 0 0.949,0.52907 z m 19.00409,14.1353 0.12557,0.1962 1.08519,-0.48073 a 2.91761,2.91761 0 0 0 -0.987,0.184 2.03363,2.03363 0 0 0 -0.22376,0.10053 z"
           id="path1-9"
           style="stroke:#000000;stroke-width:0.25731;stroke-dasharray:none;stroke-opacity:1;paint-order:stroke markers fill" /><path
           d="m 46.28464,21.97318 -0.32072,-0.112 a 3.041,3.041 0 0 1 1.181,-0.83147 l -0.32875,0.57772 z"
           id="path2-4"
           style="stroke:#000000;stroke-width:0.25731;stroke-dasharray:none;stroke-opacity:1;paint-order:stroke markers fill" /><path
           d="m 74.82691,49.75014 a 6.44029,6.44029 0 0 0 -0.63646,0.41862 3.81021,3.81021 0 0 0 -0.41661,0.473 2.882,2.882 0 0 1 -0.48747,-0.12971 0.88691,0.88691 0 0 1 -0.22608,-0.2368 q 0.88331,-0.26257 1.76662,-0.52511 z"
           id="path3-78"
           style="stroke:#000000;stroke-width:0.25731;stroke-dasharray:none;stroke-opacity:1;paint-order:stroke markers fill" /><path
           d="m 73.75763,50.62482 c 0.32626,0.1316 0.8599,-0.08062 0.89231,0.53818 a 0.78376,0.78376 0 0 1 -0.89231,-0.53818 z"
           id="path4-4"
           style="stroke:#000000;stroke-width:0.25731;stroke-dasharray:none;stroke-opacity:1;paint-order:stroke markers fill" /><path
           d="m 55.50962,30.74792 -0.62825,0.40262 c 0.05332,-0.46635 0.05332,-0.46635 0.5296,-0.5562 z"
           id="path5-5"
           style="stroke:#000000;stroke-width:0.25731;stroke-dasharray:none;stroke-opacity:1;paint-order:stroke markers fill" /><path
           d="m 40.88726,71.98276 a 1.17873,1.17873 0 0 1 -0.90155,-0.71251 1.16065,1.16065 0 0 1 0.90155,0.71251 z"
           id="path6-0"
           style="stroke:#000000;stroke-width:0.25731;stroke-dasharray:none;stroke-opacity:1;paint-order:stroke markers fill" /><path
           d="m 39.17746,60.03728 c -0.654,-0.74544 0.4314,-0.9132 0.46663,-1.52262 l -1.19181,0.28692 c 0.14986,0.43324 0.72283,0.7989 0.10263,1.11946 Q 35.49457,57.548 32.52511,55.2454 a 0.64649,0.64649 0 0 0 -0.21809,0.04958 c -1.14685,0.97845 -2.32182,1.92717 -3.42222,2.95559 a 6.3634,6.3634 0 0 0 -1.5637,1.96828 c -0.23087,0.50816 -0.49105,0.54408 -0.9791,0.17842 -0.97487,-0.73037 -1.92359,-1.49557 -2.88627,-2.24231 a 5.93,5.93 0 0 0 -0.77335,-0.55377 1.18091,1.18091 0 0 1 -0.703,-1.23368 c 0.54281,-0.52153 0.98984,-0.96484 1.45192,-1.39185 0.72655,-0.67141 1.47747,-1.317 2.19263,-2.00011 1.34543,-1.28519 2.67636,-2.58566 4.00573,-3.88754 a 4.49066,4.49066 0 0 1 1.842,-1.31456 c 0.60213,0.44412 1.23805,0.94567 1.90768,1.39723 0.57695,0.38906 1.211,0.69368 1.78676,1.08426 1.12983,0.76642 2.24271,1.5584 3.35163,2.355 1.41416,1.01595 2.81867,2.04534 4.2246,3.07268 a 0.50442,0.50442 0 0 1 0.06574,0.87459 c -0.54544,0.60025 -1.09893,1.19577 -1.68455,1.75618 -0.60202,0.57616 -1.24652,1.10785 -1.94606,1.72389 z m -15.841,-4.07163 c 2.05855,-0.49906 3.99608,-0.98416 5.94184,-1.43366 0.906,-0.20929 1.83026,-0.33838 2.742,-0.52452 a 12.56241,12.56241 0 0 1 2.20667,-0.47064 c 1.07607,-0.0178 1.96118,-0.592 3.14223,-0.7011 -0.571,-0.50555 -0.98837,-0.90171 -1.43795,-1.25712 a 0.871,0.871 0 0 0 -0.54756,-0.14248 5.46969,5.46969 0 0 0 -1.10981,0.1586 c -0.72643,0.19454 -1.43485,0.45733 -2.16274,0.64536 -2.18976,0.5657 -4.37339,1.14015 -6.50348,1.918 a 4.96767,4.96767 0 0 0 -2.27121,1.80755 z m 3.408,3.91072 A 17.05459,17.05459 0 0 1 28.01561,58.403 c 0.85378,-0.78608 1.75862,-1.51675 2.64292,-2.26966 a 4.56243,4.56243 0 0 0 1.31464,-1.55763 53.84463,53.84463 0 0 0 -9.20725,2.24441 9.20059,9.20059 0 0 1 0.85341,0.66945 1.1764,1.1764 0 0 0 1.27085,0.32266 c 0.72487,-0.214 1.45785,-0.40128 2.17922,-0.62612 a 1.52287,1.52287 0 0 1 1.3249,0.08493 c -1.14255,0.467 -2.35861,0.69845 -3.63732,1.19231 0.75982,0.54022 1.37002,0.97405 1.98751,1.41301 z m 7.98974,-9.08609 a 2.00763,2.00763 0 0 0 -2.046,-0.70248 c -0.46813,0.1478 -0.95315,0.24321 -1.41877,0.39778 -0.99019,0.32867 -1.98535,0.64863 -2.95466,1.0323 a 5.11224,5.11224 0 0 0 -2.08709,1.82463 c 2.73406,-1.08365 5.71781,-1.28224 8.50655,-2.55224 z m 6.85039,5.173 0.07373,-0.1797 c -0.21859,-0.18063 -0.44285,-0.3549 -0.65466,-0.54317 a 1.72423,1.72423 0 0 0 -1.76884,-0.35984 15.70682,15.70682 0 0 1 -2.13936,0.3303 9.27921,9.27921 0 0 0 -2.79086,0.59364 2.65983,2.65983 0 0 0 3.20818,0.88046 15.2754,15.2754 0 0 1 2.36,-0.587 15.50915,15.50915 0 0 1 1.71184,-0.13468 z m -8.87128,-1.5046 a 1.43815,1.43815 0 0 0 1.865,0.68972 A 20.67786,20.67786 0 0 1 37.4,54.67357 q 1.00005,-0.15658 2.0006,-0.30994 a 3.3053,3.3053 0 0 0 -1.1095,-0.9393 1.4002,1.4002 0 0 0 -0.90275,-0.11806 25.95767,25.95767 0 0 1 -3.706,0.86729 6.3396,6.3396 0 0 0 -0.96901,0.28512 z m 9.34,1.95533 a 14.82919,14.82919 0 0 0 -5.59649,1.13123 2.56163,2.56163 0 0 1 0.54362,0.34812 1.27862,1.27862 0 0 0 1.68528,0.405 2.22212,2.22212 0 0 1 0.75927,-0.16991 3.72194,3.72194 0 0 0 2.60837,-1.71445 z m -12.90555,-6.0323 0.1305,0.18864 3.24313,-1.07494 c -0.26738,-0.18384 -0.4276,-0.30379 -0.5971,-0.40881 a 1.13651,1.13651 0 0 0 -1.56574,0.07557 C 29.929,49.539 29.5495,49.973 29.14781,50.38171 Z"
           id="path7-3"
           style="stroke:#000000;stroke-width:0.25731;stroke-dasharray:none;stroke-opacity:1;paint-order:stroke markers fill" /><path
           d="m 64.97551,44.69351 c 1.14707,0.69649 2.21749,1.33783 3.27768,1.99568 a 4.07682,4.07682 0 0 1 0.83149,0.63156 0.759,0.759 0 0 1 -0.0539,1.32235 c -0.69214,0.62335 -1.40488,1.22455 -2.12249,1.81868 -1.68077,1.39153 -3.37331,2.76888 -5.05283,4.1619 -0.41556,0.34467 -0.79971,0.72718 -1.13889,1.03788 -1.4001,-0.87323 -2.68121,-1.67173 -3.96161,-2.47136 a 2.81077,2.81077 0 0 1 -0.504,-0.336 0.43233,0.43233 0 0 1 -0.0408,-0.686 c 0.16566,-0.163 0.31609,-0.34426 0.49574,-0.48971 2.30267,-1.86425 4.64366,-3.68224 6.798,-5.72351 0.4609,-0.43684 0.96434,-0.82886 1.47161,-1.26147 z m -6.64831,6.41968 0.094,0.20607 c 0.316,-0.02743 0.63328,-0.04434 0.94769,-0.084 1.73021,-0.21843 3.45851,-0.45243 5.19029,-0.65733 a 3.78991,3.78991 0 0 0 1.26716,-0.04387 6.67968,6.67968 0 0 0 2.19095,-1.97922 c -0.62982,0.08261 -1.0699,0.13627 -1.50874,0.19865 -1.83927,0.26149 -3.67184,0.59443 -5.51945,0.76435 C 59.769,49.63 59.213,50.586 58.32719,51.11319 Z m -1.49268,1.30069 a 1.81128,1.81128 0 0 0 1.52351,0.65719 c 1.56267,-0.13261 3.12984,-0.21176 4.69385,-0.33018 a 1.17626,1.17626 0 0 0 0.55138,-0.21623 14.0378,14.0378 0 0 0 1.17409,-0.906 3.11881,3.11881 0 0 0 0.40913,-0.61569 c -1.27065,0.086 -2.40443,0.11359 -3.52465,0.25136 -1.32488,0.163 -2.6368,0.42927 -3.95716,0.63243 a 0.99567,0.99567 0 0 0 -0.87015,0.52712 z m 4.37993,-3.59666 c 2.555,0.0199 4.89613,-0.64906 7.33533,-0.68747 a 0.33173,0.33173 0 0 0 -0.04347,-0.54044 2.29893,2.29893 0 0 0 -2.00116,-0.63828 c -1.0593,0.18566 -2.11531,0.39066 -3.17606,0.56755 a 3.97566,3.97566 0 0 0 -2.11464,1.29864 z m 1.20489,4.6202 -0.10564,-0.20271 c -0.569,0.06208 -1.13728,0.13238 -1.70725,0.18394 -0.57189,0.05172 -1.14545,0.08475 -1.71828,0.126 l -0.03157,0.19786 c 0.50727,0.31873 1.00139,0.66239 1.52974,0.94114 a 0.70063,0.70063 0 0 0 0.6172,-0.03588 c 0.49607,-0.37116 0.94746,-0.80211 1.4158,-1.21035 z m 4.11522,-6.95313 a 1.73055,1.73055 0 0 0 -2.95009,0.44566 c 0.97087,-0.14666 1.897,-0.28657 2.95009,-0.44566 z"
           id="path8-6"
           style="stroke:#000000;stroke-width:0.25731;stroke-dasharray:none;stroke-opacity:1;paint-order:stroke markers fill" /><path
           d="m 70.61709,44.16126 c -0.203,-0.17415 -0.6636,-0.09992 -0.56688,-0.58913 0.52394,-0.119 0.54546,0.23461 0.575,0.58035 z"
           id="path9-1"
           style="stroke:#000000;stroke-width:0.25731;stroke-dasharray:none;stroke-opacity:1;paint-order:stroke markers fill" /><path
           d="m 70.62516,44.15248 0.8417,0.58828 -0.16156,0.17731 -0.68819,-0.75683 z"
           id="path10-0"
           style="stroke:#000000;stroke-width:0.25731;stroke-dasharray:none;stroke-opacity:1;paint-order:stroke markers fill" /><path
           d="M 68.65274,44.58386 69.33242,44.16 a 0.569,0.569 0 0 1 0.093,0.10666 0.64238,0.64238 0 0 1 -0.77268,0.3172 z"
           id="path11-6"
           style="stroke:#000000;stroke-width:0.25731;stroke-dasharray:none;stroke-opacity:1;paint-order:stroke markers fill" /><path
           d="m 38.63979,40.06079 c 0.90576,-0.77841 1.71469,-1.47462 2.52482,-2.16945 0.48334,-0.41455 0.96385,-0.8326 1.45437,-1.23851 a 0.973,0.973 0 0 1 1.27423,-0.032 q 2.06929,1.4504 4.11936,2.928 a 3.34559,3.34559 0 0 1 0.48631,0.59131 l -4.26356,4.0213 c -1.63839,-1.11219 -3.246,-2.19241 -4.83774,-3.29542 a 5.96088,5.96088 0 0 1 -0.75779,-0.80523 z m 9.0374,-0.01727 c -1.35615,-0.95311 -2.55813,-1.80521 -3.76826,-2.64559 -0.71506,-0.49657 -0.83312,-0.46928 -1.47177,0.13817 -0.91555,0.87077 -1.84271,1.72938 -2.81675,2.64175 a 40.42066,40.42066 0 0 0 4.57619,3.14032 z"
           id="path12-3"
           style="stroke:#000000;stroke-width:0.25731;stroke-dasharray:none;stroke-opacity:1;paint-order:stroke markers fill" /><path
           d="m 41.8519,35.22321 c -0.42191,0.36613 -0.81828,0.69388 -1.19626,1.04162 q -1.08873,1.00157 -2.15944,2.02263 c -0.69144,0.66095 -0.83531,0.66747 -1.61655,0.09126 -0.91061,-0.67163 -1.83524,-1.32423 -2.74887,-1.99182 -0.42025,-0.30708 -0.83529,-0.62206 -1.24053,-0.94856 a 0.52974,0.52974 0 0 1 -0.03825,-0.88555 9.21954,9.21954 0 0 1 0.86053,-0.866 q 1.29832,-1.09487 2.62852,-2.15177 a 0.8686,0.8686 0 0 1 1.17937,-0.039 29.04465,29.04465 0 0 1 4.33148,3.72719 z M 36.87241,31.9164 c -1.18105,0.99255 -2.33242,1.96014 -3.53426,2.97017 a 25.48352,25.48352 0 0 0 4.37673,3.32787 l 3.192,-3.0493 A 13.83251,13.83251 0 0 0 36.87241,31.9164 Z"
           id="path13-20"
           style="stroke:#000000;stroke-width:0.25731;stroke-dasharray:none;stroke-opacity:1;paint-order:stroke markers fill" /><path
           d="m 73.21436,55.99266 -0.05957,-0.36588 a 0.28,0.28 0 0 1 0.14009,-0.024 0.95432,0.95432 0 0 0 0.97164,0.09545 5.66029,5.66029 0 0 1 1.34448,-0.34632 2.27994,2.27994 0 0 1 0.85649,0.01926 c -0.55114,0.54176 -1.33973,0.37076 -2.028,0.731 l 0.57351,0.50862 -0.07147,0.15662 A 1.58391,1.58391 0 0 1 74.35797,56.59868 1.38174,1.38174 0 0 0 72.9557,56.45584 c -0.669,0.19786 -1.33048,0.421 -1.99927,0.61945 A 0.94011,0.94011 0 0 1 70.45,57.06511 13.36406,13.36406 0 0 1 73.21436,55.99266 Z"
           id="path14-6"
           style="stroke:#000000;stroke-width:0.25731;stroke-dasharray:none;stroke-opacity:1;paint-order:stroke markers fill" /><path
           d="M 68.00823,59.91226 A 17.261,17.261 0 0 1 72.685,58.68467 l 0.05407,0.207 -4.68115,1.22795 z"
           id="path15-1"
           style="stroke:#000000;stroke-width:0.25731;stroke-dasharray:none;stroke-opacity:1;paint-order:stroke markers fill" /><path
           d="m 65.1263,63.01832 a 7.83716,7.83716 0 0 1 3.78283,-1.20326 L 68.971,62.0375 Z"
           id="path16-5"
           style="stroke:#000000;stroke-width:0.25731;stroke-dasharray:none;stroke-opacity:1;paint-order:stroke markers fill" /><path
           d="m 81.29853,49.02173 -0.4777,0.20186 c -0.01919,-0.44152 0.19917,-0.40997 0.4777,-0.20186 z"
           id="path17-5"
           style="stroke:#000000;stroke-width:0.25731;stroke-dasharray:none;stroke-opacity:1;paint-order:stroke markers fill" /><path
           d="m 58.79248,71.851 q -1.265,0.29118 -2.53,0.58235 a 3.50811,3.50811 0 0 1 2.50967,-0.76569 z"
           id="path18-4"
           style="stroke:#000000;stroke-width:0.25731;stroke-dasharray:none;stroke-opacity:1;paint-order:stroke markers fill" /><path
           d="m 46.99375,71.10419 a 2.34164,2.34164 0 0 1 0.57509,0.26131 10.00675,10.00675 0 0 1 0.76718,0.79069 c -1.01929,-0.25985 -1.26566,-0.46823 -1.32575,-1.06784 z"
           id="path19-7"
           style="stroke:#000000;stroke-width:0.25731;stroke-dasharray:none;stroke-opacity:1;paint-order:stroke markers fill" /><path
           d="m 55.64249,72.54984 -0.855,0.23049 c 0.50093,-0.56079 0.50093,-0.56079 0.855,-0.23049 z"
           id="path20-6"
           style="stroke:#000000;stroke-width:0.25731;stroke-dasharray:none;stroke-opacity:1;paint-order:stroke markers fill" /><path
           d="m 46.073,72.344 0.53917,-0.55618 0.13948,0.13762 -0.544,0.51609 z"
           id="path21-5"
           style="stroke:#000000;stroke-width:0.25731;stroke-dasharray:none;stroke-opacity:1;paint-order:stroke markers fill" /><path
           d="m 49.05056,72.97594 -0.39416,-0.329 0.07007,-0.09818 0.43231,0.27389 z"
           id="path22-6"
           style="stroke:#000000;stroke-width:0.25731;stroke-dasharray:none;stroke-opacity:1;paint-order:stroke markers fill" /><path
           d="m 61.53947,34.55872 a 1.14175,1.14175 0 0 1 -0.99765,0.39192 1.06082,1.06082 0 0 1 0.94676,-0.45573 z"
           id="path23-9"
           style="stroke:#000000;stroke-width:0.25731;stroke-dasharray:none;stroke-opacity:1;paint-order:stroke markers fill" /><path
           d="m 59.11384,33.1801 a 0.38978,0.38978 0 0 1 -0.5802,0.2281 c 0.04727,-0.313 0.28562,-0.29916 0.50517,-0.31261 Q 59.076,33.138 59.11384,33.1801 Z"
           id="path24-3"
           style="stroke:#000000;stroke-width:0.25731;stroke-dasharray:none;stroke-opacity:1;paint-order:stroke markers fill" /><path
           d="m 78.50112,48.17652 a 3.596,3.596 0 0 1 -0.4721,0.351 c -0.65869,0.34376 -1.32011,0.68365 -1.993,0.99838 a 1.49177,1.49177 0 0 1 -1.22838,0.23457 10.5366,10.5366 0 0 1 3.69348,-1.58395 z"
           id="path25-7"
           style="stroke:#000000;stroke-width:0.25731;stroke-dasharray:none;stroke-opacity:1;paint-order:stroke markers fill" /><path
           d="m 80.39253,44.65391 1.07326,-0.65177 c -0.19727,0.46469 -0.19727,0.46469 -1.01982,0.71666 z"
           id="path26-4"
           style="stroke:#000000;stroke-width:0.25731;stroke-dasharray:none;stroke-opacity:1;paint-order:stroke markers fill" /><path
           d="m 76.22116,46.43217 a 0.41014,0.41014 0 0 1 -0.6961,0.16734 q 0.35357,-0.07708 0.70733,-0.15407 z"
           id="path27-5"
           style="stroke:#000000;stroke-width:0.25731;stroke-dasharray:none;stroke-opacity:1;paint-order:stroke markers fill" /></g></g></g></svg>
