<?xml version="1.0" encoding="UTF-8" standalone="no"?>
<!-- Created with Inkscape (http://www.inkscape.org/) -->

<svg
   width="59.981102"
   height="59.981102"
   viewBox="0 0 15.87 15.87"
   version="1.1"
   id="svg1"
   xml:space="preserve"
   xmlns="http://www.w3.org/2000/svg"
   xmlns:svg="http://www.w3.org/2000/svg"><defs
     id="defs1" /><g
     id="layer11"
     style="display:inline"
     transform="translate(-38.023622,-37.707743)"><g
       fill-rule="evenodd"
       id="g5"
       transform="matrix(0.01165595,0,0,0.01165595,39.099826,39.155471)"><path
         d="m 1032.4,1143.7 c 10.984,-6.4492 6.9453,-2.0547 10.723,0 l -4.3945,1.8672 c -4.6758,-0.2852 -4.2539,-0.8281 -6.332,-1.8672 z m 32.172,-16.277 c 4.5117,7.9375 5.668,10.535 4.2539,20.527 l -14.34,2.9062 -5.0078,-12.805 c 2.7891,-4.3945 -1.7969,-3.9219 15.094,-10.629 z m -60.047,-2.8594 4.7227,-12.449 c 9.8984,9.707 15.496,16.227 21.047,31.418 -15.922,-2.9531 -20.766,-7.1797 -25.773,-18.969 z m 62.195,-19.582 c 18.73,0.9453 9.4727,7.4648 22.418,22.961 -2.2188,10.039 -2.8828,17.527 -11.738,21.781 3.6602,-21.164 -5.5977,-17.906 1.0156,-31.535 l -11.691,-13.203 z m 41.434,-48.094 c 6.543,5.3867 3.6836,-6.7812 6.7305,8.1016 2.668,12.992 -2.1953,7.8203 -2.4805,8.3398 -6.9453,-7.418 -9.3086,-5.8594 -4.2539,-16.441 z m -8.5039,-4.5586 c -0.2852,-0.332 -6.3555,-6.1406 -7.0391,-6.8281 3.2617,-8.7383 13.133,-17.766 22.773,-22.629 1.8906,6.0938 3.2852,11.387 -0.8281,17.598 z m -90.543,-16.629 -0.07,-28.867 c 39.566,-7.6758 48.781,3.543 69.566,36.805 9.2617,14.812 15,21.473 21.781,39.023 6.8047,17.645 -1.3945,23.219 -4.4648,43.844 -3.1875,-6.4727 -6.4727,-14.836 -7.7969,-21.945 -0.8281,-4.5586 -0.6133,-8.0078 -1.7461,-13.676 l -5.8594,-13.488 -9.332,17.551 c -19.156,0.047 -3.2344,2.2188 -13.062,-5.4805 -10.395,-8.1719 -4.582,1.9375 -7.9844,-9.5195 17.293,-7.8203 26.93,-7.3711 35.789,-12.758 -8.6445,-7.1562 -18.566,-0.1875 -33.566,-0.1406 -1.3711,-27.379 -3.1875,-19.773 4.4883,-27 0.4258,-0.4024 1.2539,-1.1094 1.6992,-1.5352 3.543,-3.5664 2.5977,-1.582 5.2188,-6.4023 -5.7891,-5.457 -4.0156,-2.4805 -9.1406,-5.9297 l -9.1875,-7.4414 c -10.156,13.652 -10.797,11.055 -36.332,16.961 z m 0.1875,-40.605 c -0.3555,-9.3555 1.9141,-16.109 5.4336,-22.016 6,8.0781 9.6133,10.797 19.371,16.254 -0.8281,0.66016 -1.9844,0.61328 -2.5273,1.9375 -1.5586,3.8047 -14.715,4.8906 -22.277,3.8281 z m 38.41,-10.797 16.062,-13.82 c 3.8984,-1.6523 2.1719,-1.3008 8.1719,-2.2695 12.875,35.859 20.504,21.781 36.426,47.977 -10.277,11.621 -6.1406,9.1875 -21.473,14.457 -6.707,-5.0781 -8.2695,-10.938 -12.262,-17.645 5.2188,-10.277 10.723,-7.1797 10.371,-16.629 -10.277,-3.0234 -10.938,3.332 -21.402,8.0312 -5.6211,-9.6367 -10.629,-11.93 -15.898,-20.102 z m -51.07,14.48 c -7.3945,-9.4727 -3.707,-3.6133 -13.773,0.99219 l -1.1094,-21.309 18.117,-4.0391 z m -16.301,-56.883 c 12.117,4.6758 23.031,14.008 29.434,25.441 l -28.254,-0.21094 -1.1797,-25.227 z m -43.301,-22.914 c 3.6602,4.3477 3,1.5586 4.9141,10.016 2.1719,9.6602 -0.0469,11.668 -1.7227,15.023 -5.4336,-7.0625 -8.5508,-14.574 -3.1875,-25.039 z m 49.156,4.7461 c 19.133,-13.227 27.637,-7.0391 41.031,5.5039 10.867,10.156 27.543,24.992 33.164,32.953 -4.8672,4.1328 -16.039,13.984 -21.637,13.535 l 0.9219,-6.7812 c 2.2188,-4.2266 0.5664,2.9766 5.2422,-6.8047 -10.559,-5.1719 -8.8594,-1.3008 -19.324,3.2109 -6.6367,-9.332 -10.324,-10.891 -17.906,-19.301 8.457,-10.441 10.961,-3.3086 14.977,-15.637 l -21.852,8.1719 c -5.81252,-4.2031 -2.73832,-2.1719 -7.60552,-7.3008 -2.9531,-3.1172 -4.6758,-4.8672 -7.0156,-7.5586 z m -19.227,-18.945 c 13.605,-5.7148 16.156,-1.5117 28.488,2.125 -4.2539,5.293 1.6523,1.9375 -7.6523,6.9688 -0.14062,0.0937 -8.7656,3.1641 -10.109,3.6602 l -10.723,-12.758 z m -16.746,3.0703 c 13.961,6.4258 27.426,28.395 5.9531,33.07 -5.0781,-11.668 -1.1328,-22.086 -5.9531,-33.07 z m 0,0 c -17.715,1.4648 -19.203,5.0547 -19.488,-15.449 11.645,9.5898 10.676,2.5742 19.488,15.449 z m 3.1875,-13.277 c 4.1094,-5.5508 12.898,-12.402 22.395,-15.402 l 8.0547,10.109 -13.82,3.4727 c -10.797,4.4648 -2.8594,8.8828 -16.629,1.8203 z m -35.789,-2.7383 c 0.73047,12.52 5.1719,13.961 0.28516,20.621 l -7.3711,-29.504 c 11.125,4.2539 7.8438,0.75781 16.961,2.9531 -0.63672,0.35547 -1.6289,0.1875 -1.9141,1.0625 z m 16.605,-19.109 c 6.0703,-4.4648 10.797,-8.5273 15.566,-11.41 10.227,3.0469 8.8125,3.0938 15.852,12.52 -9.6836,4.7969 -9.8984,8.8359 -22.227,10.961 -6.332,-6.3789 -5.6445,-3.3555 -9.1875,-12.07 z m -30.355,-6.3789 c -5.125,7.9609 -2.668,7.9844 -14.668,9.707 -5.1016,-7.582 -8.5273,-16.18 -8.0781,-27.332 10.465,1.5117 17.457,10.535 22.746,17.621 z m 20.41,-24.379 c 20.527,8.9297 15.141,10.086 17.148,14.812 -9.6133,13.488 -24.852,13.254 -34.18,-4.2266 l 17.031,-10.582 z m -54.211,39.094 c -4.6992,-7.8906 -3.8984,-27.496 -3.8516,-39.852 l 8.3164,1.5352 c -17.906,14.789 15.355,30.613 -4.4648,38.316 z m 46.371,-45.473 c -10.676,6.8047 -6.875,5.9531 -22.156,9.3789 -5.0312,-9.0469 -3.0938,-6.2617 -10.062,-11.504 l 17.738,-8.2695 c 8.1016,3.707 7.7461,4.4648 14.48,10.395 z m -66.945,-0.16406 -7.9609,-27.613 c 4.9609,4.1328 12.141,11.551 12.141,20.125 0.0234,6.8516 -1.0156,3.9922 -4.1797,7.4883 z m 21.922,-11.551 c -5.9531,-8.5508 -9.1172,-11.34 -10.867,-20.715 11.48,-3.9922 4.7969,-5.5039 32.102,15.379 -4.6992,4.2031 -3.6836,6.6133 -21.234,5.3398 z m -52.348,8.7148 c 3.1641,-8.1953 -2.3398,-16.605 -2.6211,-29.27 l 9.5898,-2.1016 c 2.0547,3.9453 9.9922,22.914 12.211,33.234 -10.395,4.2773 -11.738,-7.9141 -9.1172,13.277 12.758,5.7148 15.684,2.6211 27.402,-0.96875 0.66016,23.574 5.6211,30.023 6.8047,45.309 23.738,0.0937 12.164,4.6289 25.867,9.2109 7.8672,-18.707 -5.7383,-10.961 9.5664,-15.164 15.449,33.188 2.2188,28.844 -0.30859,40.797 25.348,7.6055 9.9922,3.0234 26.738,-4.7461 l -0.1875,34.062 22.371,-0.99219 c 3.6133,16.371 -0.82812,8.457 9.4023,14.008 2.5977,-13.488 -4.3945,-13.559 5.7656,-20.078 5.2695,1.9609 6.3789,-1.582 8.3164,19.18 -14.27,9.332 -11.293,-6 -16.938,12.758 8.0781,6.2344 7.0859,3.2109 17.906,0.23438 4.582,39.47302 12,34.60502 27.094,30.61302 -0.66016,17.645 -0.66016,44.836 10.72299,53.953 1.9375,-3.5664 -6.2109,-27.828 34.109,-26.172 l 0.07,27.449 c -12.992,8.2422 -6.7812,-5.1484 -15.188,9.5664 11.645,19.203 9.9219,-12.613 17.93,20.668 5.1953,21.637 -0.9687,2.2188 13.82,17.953 l -14.504,7.2773 c -10.867,-16.676 -0.2344,-24.566 -15.945,-28.914 -8.5039,13.371 2.0547,20.812 4.9375,36.141 -19.016,-46.324 -28.844,-25.559 -40.32398,-37.039 -9.9453,-9.9219 -2.3164,-9.9688 -16.488,-13.156 -2.4102,9.1875 0.23438,17.055 -3.875,23.293 -16.203,-26.789 -24.285,-20.668 -60.379,-79.488 l -42.992,-55.82002 c -16.699,-22.582 -35.055,-57.141 -52.605,-75 -19.559,-19.938 -9.4727,-27.426 -46.277,-68.457 l -34.676,-34.371 c 7.9141,-10.676 7.0625,-11.527 18.164,-22.156 8.2188,-7.8438 14.574,-15.211 22.18,-22.676 7.3008,7.3008 12.449,14.102 21.234,23.715 l 12.684,9.6602 c 4.9141,4.0156 7.9844,7.7461 9.4258,12.805 -12.141,-6.9453 5.5742,-8.293 -13.277,-3.5898 -5.8359,17.41 -5.7148,6.8984 -0.51953,23.41 3.9922,12.758 3.6602,16.676 11.906,21.59 z m 33.59,-34.699 1.8672,-9.7812 c -19.371,0.94531 -26.41,-6.2109 -41.621,-24.496 l 12.969,-9.2344 14.977,9.3789 c -5.5273,7.9844 -5.1953,3.8047 -9.9219,14.172 10.203,-1.1094 13.465,-4.1094 19.605,-5.9766 l 13.109,7.6289 c -2.4805,12.211 0.11719,11.859 -10.984,18.309 z m -46.348,-43.395 c -2.3164,-2.8828 -0.68359,-0.21094 -4.1328,-5.5273 l -4.8672,-12.402 9,-4.9141 c 7.6758,5.3867 11.172,9.3086 12.969,19.535 z m -32.906,-47.551 c 4.6523,-8.1719 2.6914,-7.0859 13.773,-12.707 4.6523,9.3555 11.668,21.094 15,29.387 l -15,7.6289 z m -6.3789,-19.109 c 3.6133,-5.8594 -5.0547,-4.7227 19.371,-8.7891 -2.3633,4.0859 -3.5898,6.7578 -8.6445,9.332 -17.645,8.9531 -8.668,0.56641 -10.723,-0.54297 z m -24.188,-8.3164 c -1.1328,4.3945 -0.94531,1.2539 -1.7734,8.3164 5.6211,5.5508 9.5195,5.4102 14.906,12.73 -0.44922,0.16406 -1.2539,0.11719 -1.4648,0.0937 -4.1094,-0.33203 2.0547,-2.5273 -14.766,-2.8828 0.78125,11.789 2.0312,9.9688 11.316,16.582 5.2695,3.7578 12.047,8.0078 16.277,11.102 -1.582,18.898 -31.938,47.691 -45.188,50.621 -6.2344,1.3711 -56.457,-20.008 -65.715,-24.496 2.457,-3.5195 -6.9922,-4.1328 6.3789,-4.7461 0.94531,-0.0469 38.836,21.211 54.141,20.148 10.277,-0.73047 0.35547,2.1719 6.4023,-2.668 -9.1172,-6.4727 -15.543,-6.8047 -26.883,-11.242 -5.9766,-2.3398 -8.0312,-3.4727 -13.652,-5.5742 l -14.504,-5.0312 16.844,-7.0859 c 4.4414,3.7305 4.4883,6.8516 12.355,8.9531 9.1875,2.4336 -1.0391,-3.2344 11.906,2.125 10.984,4.5586 13.18,11.691 25.395,10.488 -7.9375,-9.6367 -12.426,-17.008 -26.574,-23.242 22.488,3.7812 30.449,7.6758 52.109,0.0937 -8.3867,-8.5742 -24.496,-20.078 -37.891,-20.93 2.1953,9.9219 3.8047,13.301 11.574,14.27 -12.852,0.70703 -16.395,-3.5195 -25.277,-8.457 l 34.086,-39.164 z m 41.906,-21.023 c -1.7227,14.387 5.6445,11.551 -11.387,8.457 4.8672,-4.3477 1.6289,-4.1094 11.387,-8.457 z m -65.574,-14.055 c 1.7734,49.559 -15.875,46.629 -23.078,57.473 0.37891,-15.637 0.66016,-11.645 12.117,-17.27 l -11.574,-9.6602 5.7891,-27.898 z m 50.27,7.6758 c 2.0312,-7.4883 18.828,-27.023 26.293,-29.293 l -6.9219,22.605 -19.371,6.6836 z m 2.2422,-47.598 c -12.758,40.18 -9.2344,33.758 -23.363,36.758 l 3.7812,-43.156 c 8.457,-1.6289 5.0781,-1.2773 9.3555,6.7305 z m 20.031,-13.348 c 7.6992,-13.914 4.9141,-12.758 20.906,-17.48 l -6.2109,18.875 -14.691,-1.3945 z m 1.7734,-44.504 c 8.5508,-5.3633 7.3945,-10.797 11.27,-12.023 l -16.605,42.332 c -7.6758,-9.1172 -8.1484,-24.898 -7.1797,-38.789 16.746,0.70703 2.9766,-4.6758 12.52,8.4805 z m 16.746,9.6367 c 4.7734,-12.73 13.582,-19.938 28.605,-26.27 -4.2773,14.48 -15.637,21.684 -28.605,26.27 z m 18.66,-63.188 c 1.1562,-32.102 12.543,-14.598 22.867,-31.629 -15.449,-8.5977 -12.07,1.2266 -14.668,-5.3867 -0.37891,-0.96875 -1.582,-0.51953 -2.6445,-1.0625 l 4.7227,-25.82 c 15.684,8.3867 31.348,-10.984 17.668,41.363 -4.5352,17.316 -13.18,42.852 -15.922,59.055 -9.6133,-11.504 -11.621,-6.0234 -24.875,-1.4883 l 6.1641,-22.039 c 4.7461,-6.0938 22.203,4.8438 24.898,-15.945 -10.18,-5.6211 -12.262,-1.9844 -18.211,2.9531 z m -17.953,3.4258 c -11.789,-20.008 -6.6133,-29.219 -12.828,-43.324 l 15.285,-1.2539 c 3.8516,17.48 9.6133,11.195 1.3008,37.156 -3.707,11.598 -7.2031,28.016 -10.324,41.008 -3.6836,-5.2422 -2.3867,-0.23438 -5.0078,-11.078 l 11.574,-22.512 z m 2.9531,-82.254 c 2.6445,8.6914 0.51953,8.457 11.102,11.125 0.96875,-12.309 -0.75781,-7.0859 -1.9844,-16.418 -2.7148,-20.645 -2.457,-8.8125 5.6211,-11.691 2.7891,4.2539 2.1484,-0.16406 3.1172,7.0625 l -2.6211,20.148 c -4.1328,23.031 -2.7383,16.039 -8.0312,20.598 l -7.2031,-30.828 z m 2.5039,-45.262 c 11.008,2.4805 18.566,6.2344 16.559,16.699 -0.21094,0.0703 -5.1953,8.8359 -13.867,-0.37891 -3.707,-3.9219 -2.5508,-10.961 -2.6914,-16.324 z m 44.645,12.758 c -4.4883,-9.4727 -3.7578,-7.7734 -16.512,-9.3789 -0.11719,-18.945 -9.4023,-29.859 17.738,-24.496 3.4023,27.211 2.9062,44.645 0.0234,70.723 -9.6367,-0.92188 -13.773,0.92188 -21.898,5.125 l 3.8984,-36.66 16.746,-5.3164 z m -40.371,-26.859 -7.2539,-9.875 c 9.9453,3.1875 6.9219,0.56641 7.2539,9.875 z m 18.309,-32.836 c 14.621,-2.3633 12.047,-3.5195 17.977,4.8203 -0.875,2.7891 5.4102,11.621 -17.242,8.668 l -0.73047,-13.488 z m 8.125,-32.551 3.9922,19.582 -16.348,0.89844 -3.9688,-17.434 z m -27.449,44.434 c -0.0937,0.0469 -3.8047,8.5039 -19.395,-0.40234 -3.1641,-1.8203 -10.254,-9.543 -12.781,-12.637 -2.8125,-3.4727 -19.891,-22.867 -21.117,-26.883 20.172,0.58984 18.684,4.4883 29.008,15.852 15.566,17.172 20.906,17.055 24.285,24.07 z m 23.102,-56.055 -14.715,4.8906 -10.156,-16.605 10.746,-1.1797 c 9.9453,-1.2539 11.008,3.3086 14.125,12.898 z m -25.961,36.758 c -26.148,-11.195 14.621,-3.2852 -25.277,-26.504 -13.676,-7.9844 -33.332,-32.316 -43.039,-46.605 14.812,-0.80469 15.402,2.457 24.426,8.0078 l 16.418,6.3555 c 16.348,4.3711 23.859,39.117 27.473,58.746 z m -71.645,-85.891 c -13.109,6.3086 -23.242,-13.723 -27.355,-25.418 z m 22.488,-24.379 c 1.3008,2.3398 9.4727,16.039 9.6133,18.637 1.418,29.387 -43.277,-18.59 -43.324,-18.613 17.055,-1.0625 17.48,5.4102 33.707,-0.0234 z m 26.195,-8.1016 c -13.512,-3.1875 -24.234,-4.7734 -32.27,-18.07 23.41,-2.1719 32.738,7.4883 46.371,26.598 8.2188,11.504 20.715,36.07 24.285,49.535 l -19.371,2.7891 c -6.707,-13.723 -4.582,-12.117 -2.5039,-26.551 -17.715,-6.0938 -18.379,-13.016 -28.156,-25.348 19.605,-3.6836 7.3711,4.1094 11.645,-8.9531 z m -39.07,-6.1172 c -20.078,-10.016 -28.676,-17.953 -43.773,-31.133 20.41,2.3633 36.684,15.332 43.773,31.133 z m -16.301,3.0703 c -28.039,0.94531 -38.293,-21.379 -51.852,-33.707 11.836,-1.5352 16.605,6.7305 27.496,14.691 6.8281,4.9844 18.234,13.301 24.355,19.016 z m 20.504,-50.27 c 9.4727,4.9141 22.277,18.094 27.332,27.449 -24.449,-12.875 -32.031,14.078 -50.457,-19.652 l 27.332,1.9609 -4.2031,-9.7578 z m -57.426,5.7148 c -11.574,-4.6289 -13.488,-9.1406 -18.828,-19.797 z m 57.426,-5.7148 c -28.18,-2.5508 -37.227,2.8594 -53.715,-15.992 l 31.582,-5.3164 c 6.332,5.1953 16.676,11.691 22.133,21.309 z m 12.707,461.53 -2.7891,-13.441 c -0.28516,-0.75781 -0.73047,-1.4883 -1.0391,-2.2188 l -12.566,-51.379 c -11.953,18.496 0.0703,29.715 -1.9375,49.535 -16.605,1.6992 -10.324,-5.4336 -23.008,2.1484 2.5039,23.836 9.8516,-7.418 10.605,28.371 0.33203,16.039 -2.4102,12.332 2.6211,27.684 3.1406,9.5664 -9.4258,20.242 -16.559,25.559 -0.80469,-13.961 1.2266,-15.852 4.9609,-25.277 2.7656,-6.9219 1.3711,1.3711 1.9844,-5.5273 l -7.3711,-31.227 c -13.371,4.3945 -7.8438,11.055 -5.9766,25.324 -20.836,0.63672 -23.316,1.1094 -28.227,19.488 -7.6289,28.605 -4.6055,12.234 -17.363,27.898 7.0391,15.141 0.11719,-0.51953 6.0703,7.4883 2.7148,3.6367 -0.28516,-1.6523 3.9219,5.7656 2.9766,5.2422 1.6523,5.8594 5.5508,11.789 -21.211,14.34 -48.66,41.363 -81.758,42.945 -68.598,3.2344 -36.262,-5.1016 -111.38,8.9062 -36.59,6.8281 -76.133,7.2773 -115.02,4.6758 -75.047,-5.0547 -147.31,-56.977 -191.03,-113.86 -5.4336,-7.0859 -6.7578,-10.652 -13.062,-18.828 -53.055,-68.504 -44.078,-83.574 -66.781,-143.91 -9.9922,-26.574 -4.3711,-57.496 -3.8984,-79.324 l 0.73047,-34.227 c 1.9609,-16.488 5.1953,-35.27 9.9219,-51.023 5.6914,-19.039 11.953,-23.34 18.637,-41.93 2.4805,-6.8281 18.449,-39.805 18.496,-40.441 1.4414,-15.805 2.6211,16.109 -2.8125,-6.1641 -1.1797,-4.8438 -2.2695,-0.94531 2.4336,-7.8203 l 58.418,-63.402 c 63.781,-49.844 141.85,-93.992 227.43,-107.57 35.645,-5.6445 74.598,6.7578 108.02,10.82 46.629,5.6914 55.676,16.203 87.66,33.684 -1.2539,10.016 -4.3242,8.2422 -4.8906,20.574 18.285,-3.2344 18.898,-8.9062 49.086,24.023 -11.766,6.7812 -12.117,0.0234 -17.387,11.836 7.4648,4.7969 7.0156,1.9141 11.125,4.3477 8.2188,4.9141 0.26172,-1.6523 8.0078,7.9375 4.1562,5.125 7.9375,8.0547 13.914,14.621 3.9453,4.3477 9.0703,13.156 11.41,19.371 l 18.992,36.211 c 5.125,8.3398 2.0547,3.2344 12.188,10.348 14.078,9.8984 20.148,22.699 31.254,33.852 -28.867,4.9375 -15.07,-9.5195 -37.109,-14.102 3.2109,12.355 4.7734,7.8906 8.8125,15.211 4.6289,8.3164 0.92188,2.9297 2.8594,13.301 20.172,2.9062 34.535,25.277 41.859,37.418 -13.277,8.6445 -8.8828,-3.7812 -19.086,9.5664 12.234,13.723 18.852,-6.0938 35.766,6.0938 11.031,7.9844 2.0312,19.227 4.9609,36.66 -12.262,-2.3398 -18.309,-10.961 -20.242,2.2695 -1.9141,12.898 1.4414,5.2188 3.3086,7.418 0.58984,0.68359 2.9766,2.3633 3.6367,3.0469 11.102,11.293 10.133,24.285 15.117,43.488 -17.34,-1.3008 -10.488,3.1875 -17.031,-5.9531 -8.2695,-11.574 2.293,-9.4492 -9.1406,-13.441 -3.6836,6.3086 -6.1875,21.309 -1.4414,30.355 9,17.148 5.3867,11.363 10.82,30.332 -11.41,8.1719 -16.512,4.2773 -22.156,20.668 l 17.668,-0.23438 -0.37891,22.277 c -20.691,1.6523 4.2031,-0.75781 -14.078,-6.875 -10.301,8.4336 -7.2266,2.8594 -13.605,15.164 8.8828,22.016 -13.156,-20.293 6.0234,7.3242 3.2852,4.7227 1.1328,-2.7383 4.5352,8.8594 2.293,7.6992 1.6055,15.141 2.8828,22.371 2.9297,16.535 8.6211,15.355 -2.5742,31.156 z m -50.93,-489.21 c -21.66,5.3867 -23.645,3.1875 -35.598,-4.1094 -2.0547,-9.1172 5.7656,0.94531 5.3633,-12.211 -51.141,-4.0391 -19.676,-5.7383 -47.715,-13.254 l 13.699,-7.3242 c 23.195,-9.0938 34.984,11.172 52.203,21.684 2.6445,1.6289 14.715,4.6289 12.047,15.211 z m -67.773,-45.922 c -20.953,14.527 -47.195,2.1953 -65.363,-8.293 18.164,-4.0859 56.172,-7.6758 65.363,8.293 z m -156.73,-25.512 c 8.457,-4.6289 15.875,-3.9922 26.434,-4.4414 l 75.898,5.4102 c -3.543,2.293 0.0469,1.0859 -6.332,2.8125 -32.738,8.9297 -23.953,8.7383 -44.48,2.8828 -36.332,-10.371 -38.738,-0.875 -51.52,-6.6602 z m -1.2031,-13.016 c -24.355,3.6367 -37.203,5.9062 -59.598,12.309 -14.977,4.2773 -10.133,4.6055 -27.094,7.7969 l -77.387,27.684 c -52.371,25.844 -86.242,40.395 -129.95,83.668 -28.746,28.465 -45.234,39.684 -69.473,74.031 -9.3555,13.277 -34.699,85.254 -37.844,102.61 -9.9688,55.18 -8.0547,136.65 16.961,186.92 30.379,61.039 -9,36.828 78.52,138.23 22.348,25.891 72.59,72.66 105.92,85.062 49.348,18.379 14.078,7.6523 71.457,21 97.867,22.797 222.05,-37.254 314.36,1.4414 l 45.59,24.684 c 31.82,25.559 48.141,66.117 78.234,100.42 7.0625,8.0547 7.9141,10.914 14.504,20.363 10.652,15.211 20.621,25.676 31.961,41.598 9.1172,12.758 15.898,29.691 26.055,43.84396 l 31.109,42.285 c 31.109,31.418 37.652,46.891 66.945,73.277 26.836,24.188 46.82,47.977 101.32,40.512 40.062,-5.4805 53.219,-52.348 54.637,-84.945 2.4102,-54.852 -18.73,-72.875 -43.086,-100.19996 -22.559,-25.301 -44.93,-43.488 -74.551,-65.691 -25.676,-19.227 -10.82,-13.676 -35.41,-34.82 -21.262,-18.309 -25.488,-31.227 -64.746,-54.992 -36.637,-22.156 -12.613,-16.086 -46.723,-43.891 -13.418,-10.914 -24.496,-22.348 -37.227,-32.883 -15.164,-12.543 -19.301,-23.434 -26.738,-46.723 -22.418,-70.156 39.211,-138.36 60.426,-211.04 24.852,-85.301 0.37891,-212.41 -43.465,-284.03 -5.5039,-9 -8.4336,-9.2617 -14.598,-20.457 -6.8047,-12.402 -5.6914,-10.797 -14.598,-20.41 -6.4023,-6.9219 -10.773,-11.527 -16.914,-18.234 -24.969,-27.262 -31.254,-30.473 -58.723,-49.629 l -43.086,-27.117 c -56.219,-31.395 -110.01,-42.66 -176.79,-32.668 z"
         id="path1-4" /><path
         d="m 250.04,542.74 c -5.1016,-4.2031 -2.3398,-1.7734 -6.3086,-8.2695 4.4883,0.49609 6.1172,-1.0625 11.078,3.8984 l -4.7734,4.3711 z m -38.125,-67.797 -3.1875,-18.992 11.766,5.5508 c -0.40234,0.78125 -0.96875,1.7969 -1.2539,2.3164 z m -5.0547,-32.48 c -3.8047,-8.8828 -2.8125,-6.4492 3.1875,-12.566 0.78125,1.4648 5.0547,-5.457 1.3945,7.3945 -3.2109,11.148 -0.26172,1.0156 -4.582,5.1719 z m 13.512,-106.8 c -0.85156,-40.039 59.031,-111.95 81.047,-127.11 3.4961,-2.4102 5.293,-3.3086 9.1875,-6.8047 39.73,-35.363 94.465,-43.512 148.13,-43.938 44.102,-0.35547 55.961,6.3555 90.898,15.637 53.148,14.148 100.2,29.195 135.9,74.219 16.723,21.117 12.211,4.3945 11.527,28.676 -0.61328,22.203 7.7227,6.707 13.418,15.969 5.2188,8.4805 1.8203,31.652 7.0391,47.598 8.3633,25.488 11.574,65.48 1.4883,88.465 -3.4023,7.7461 -6.1406,31.652 -8.3398,42.875 -17.812,90.309 -15.332,83.715 -75.426,131.62 -10.156,8.1016 -18.52,16.891 -29.504,24.73 -11.715,8.3633 -19.652,11.93 -30.426,20.527 -20.789,16.559 -50.195,19.039 -77.668,28.277 -16.465,5.5039 -4.8906,3.7812 -18,0.58984 -37.559,-9.0703 -75.047,1.6523 -138.52,-39.188 6.1641,-20.645 18.379,-28.254 22.441,-46.652 -20.836,4.8438 -18.262,24.379 -35.551,34.254 -24.613,-7.5352 -8.4102,-12.023 -24.047,-21.285 12.828,-5.0312 10.348,3.332 16.488,-17.316 -12.945,-3.0469 -38.219,15.332 -43.465,-18 8.0312,-3.8516 9.5664,-0.73047 14.883,-5.2188 l -2.125,-15.047 c -17.812,1.4883 -2.668,8.7148 -26.34,2.7891 4.418,-20.859 12.473,-13.676 13.844,-28.961 -15.613,7.0859 -15.66,10.203 -34.652,0.28516 2.4805,-26.055 15.309,-11.883 18.141,-32.48 -12.047,2.0078 -14.883,6.0469 -21.379,12.992 -11.434,-5.0078 -14.125,-9.875 -23.219,-12.945 0.61328,-0.54297 1.5586,-1.1328 1.9609,-1.4648 0.37891,-0.35547 1.3945,-1.1094 1.8438,-1.5352 l 18.781,-32.93 c -6.2344,-0.85156 -9.2344,1.1562 -18.211,-5.5508 7.0859,-20.316 11.387,-11.242 13.723,-25.488 -12.379,-5.457 -9.8047,10.254 -15.566,-2.1016 -3.8984,-8.3164 3.3789,-8.3164 10.512,-17.031 -4.418,-19.016 -0.85156,-0.23438 -6.6133,-10.109 -0.85156,-1.418 -14.078,3.2617 6.3789,-24.969 -6.5664,-5.8125 -9.3789,-0.75781 -15.969,-3.1875 3.5898,-21.07 14.219,-20.906 27.188,-34.016 l -19.797,3.8281 z m 524.03,84.402 c 5.2188,-36.543 -12.023,-131.79 -21.852,-149.03 -6.6133,-11.621 -2.1484,-2.4102 -8.0312,-6.4023 l -7.1797,-6.8516 c -31.371,-34.938 -1.7734,-28.016 -48.707,-53.621 -56.078,-30.613 -109.82,-56.504 -180.61,-61.441 -32.434,-2.2695 -93.945,8.8125 -122.46,17.953 -29.504,9.4492 -69.66,34.512 -83.598,53.434 -17.906,24.285 -46.156,57.52 -54.047,82.984 -19.133,61.746 -35.836,111.05 -17.738,177.78 16.465,60.684 35.883,88.82 74.48,132.47 28.465,32.172 14.457,14.219 37.512,32.48 6.6836,5.2695 10.914,9.9219 20.668,14.551 28.582,13.582 99.473,40.18 131.69,38.812 41.859,-1.7734 77.078,-12.52 111,-28.914 83.883,-40.582 42.141,-15.59 109.72,-78.52 l 8.3633,-10.605 c 13.016,-29.836 7.3477,-14.621 24.262,-42.637 10.961,-18.188 22.938,-87.285 26.527,-112.44 z"
         id="path2-43" /><path
         d="m 385.89,409.42 c 14.836,-3.6133 46.938,-46.82 76.844,-60.496 -4.1562,23.598 -40.418,70.797 -28.746,85.984 4.6523,4.1797 -7.1328,3.3086 8.5273,3.6133 13.277,0.26172 14.953,-16.156 45,-22.465 3.8047,42.613 -28.324,46.984 -19.891,65.41 l 41.598,-17.883 c 4.9141,-1.8203 10.938,-3.4258 14.195,0.78125 l -1.5117,20.504 c 0,-0.40234 0.30859,1.2266 0.61328,1.7461 13.773,-5.8594 10.914,-23.148 7.1797,-32.148 -16.582,-6.5195 -33.781,9.7812 -51.379,16.18 4.8672,-14.766 29.27,-39.922 15.141,-59.34 -7.6523,-8.5273 -13.418,-6.4492 -29.812,4.1094 -10.016,6.4492 -11.316,10.18 -23.34,13.348 -1.3242,-22.746 61.277,-104.08 14.883,-86.055 -1.7227,0.68359 -10.605,6.2852 -12.164,7.4883 l -31.605,28.914 c -14.102,14.691 -26.316,13.254 -25.535,30.309 z"
         id="path3-0" /><path
         d="m 385.7,327.61 c -3.332,7.0391 -10.676,20.812 -15.543,23.242 -6.4961,3.3086 -24.781,0.54297 -30.852,-2.6914 -23.48,-12.543 -5.7656,-39.852 0.42578,-53.055 31.371,-0.51953 42.211,1.5352 45.969,32.504 z m -61.746,26.621 c 22.699,7.4414 38.316,15.023 57.332,-2.0547 20.387,-18.309 15.023,-42.211 5.457,-54.426 -20.551,-26.242 -89.906,-13.773 -62.789,56.48 z"
         id="path4-78" /><path
         d="m 602.22,552.38 c -13.109,0.1875 -14.457,2.7148 -21.59,-14.363 4.0625,-8.2188 15.426,-27.566 33.141,-17.574 14.316,8.0781 -5.4102,24.379 -11.551,31.938 z m -34.254,-4.3242 c 21.496,21.449 36.023,19.629 51.758,1.1094 22.133,-26.055 2.3633,-40.227 -17.504,-45.496 -8.5742,3.4492 -7.0156,4.0156 -13.395,8.0312 -17.008,10.699 -23.387,8.8828 -20.859,36.355 z"
         id="path5-6" /></g></g></svg>
