<?xml version="1.0" encoding="UTF-8" standalone="no"?>
<!-- Created with Inkscape (http://www.inkscape.org/) -->

<svg
   width="60"
   height="60"
   viewBox="0 0 15.875 15.875"
   version="1.1"
   id="svg1"
   xml:space="preserve"
   xmlns="http://www.w3.org/2000/svg"
   xmlns:svg="http://www.w3.org/2000/svg"><defs
     id="defs1" /><g
     id="layer6"
     style="display:inline"
     transform="translate(-0.94870545,-38.372375)"><g
       style="fill:#000000;stroke:#000000;stroke-width:0.113386;stroke-dasharray:none;stroke-opacity:1"
       id="g3"
       transform="matrix(0.17336781,0,0,0.17336781,0.36715308,37.715072)"><g
         id="g62"
         style="stroke:#000000;stroke-width:0.113386;stroke-dasharray:none;stroke-opacity:1"><path
           d="m 36.096,41.09053 c -0.04645,-0.22245 -0.07329,-0.40916 -0.12485,-0.58877 a 16.29322,16.29322 0 0 1 -0.76563,-3.92746 8.08514,8.08514 0 0 1 0.54919,-4.05156 10.67366,10.67366 0 0 1 2.30692,-3.33286 c 0.6128,-0.53939 1.25592,-1.04719 1.91033,-1.53579 a 9.86739,9.86739 0 0 1 3.07752,-1.31709 1.49232,1.49232 0 0 1 0.51307,-0.05639 20.4278,20.4278 0 0 1 4.11315,0.34391 9.58865,9.58865 0 0 1 4.0553,2.04766 4.71209,4.71209 0 0 1 0.65676,0.86655 c 0.12278,0.17575 0.219,0.37 0.32829,0.55523 0.52552,0.89113 1.095,1.75987 1.5635,2.68 a 6.51841,6.51841 0 0 1 0.61259,2.42767 18.35043,18.35043 0 0 1 -1.05676,7.63515 c -0.075,0.21779 -0.12342,0.44469 -0.18824,0.68214 1.22576,0.395 2.39309,0.76663 3.55722,1.14806 0.65381,0.21421 1.289,0.50236 1.95575,0.65688 a 32.6749,32.6749 0 0 0 6.07806,0.84172 9.70963,9.70963 0 0 0 1.93034,-0.13323 22.73236,22.73236 0 0 1 3.73651,-0.17288 24.07884,24.07884 0 0 0 4.5044,-0.37829 c 2.179,-0.41106 4.32669,-0.99575 6.47776,-1.54538 2.48391,-0.63467 4.95628,-1.31441 7.43524,-1.96862 0.87444,-0.23077 1.75475,-0.43931 2.62959,-0.66864 a 4.94615,4.94615 0 0 0 0.60295,-0.22964 0.54059,0.54059 0 0 1 0.63256,0.198 0.39221,0.39221 0 0 1 -0.02682,0.53167 c -0.459,0.73119 -0.906,1.47059 -1.38739,2.18681 -1.0577,1.57357 -2.16792,3.11293 -3.1904,4.70873 -0.7198,1.12337 -1.32348,2.32069 -1.993,3.47692 -0.302,0.52152 -0.63458,1.02557 -0.95921,1.53375 -1.033,1.617 -2.07586,3.22782 -3.09982,4.85056 a 18.29914,18.29914 0 0 0 -1.03029,1.79488 c -0.75445,1.56378 -1.82778,2.92578 -2.72119,4.40045 -0.65975,1.089 -1.31229,2.18539 -1.90076,3.31359 a 15.85161,15.85161 0 0 1 -2.17188,2.888 0.76433,0.76433 0 0 1 -0.36,0.2574 c -0.71113,0.166 -1.42783,0.30862 -2.14382,0.45331 a 6.02255,6.02255 0 0 0 -0.6985,0.11706 45.07635,45.07635 0 0 1 -6.2486,1.32729 c -0.80336,0.14466 -1.60192,0.31993 -2.40877,0.44011 a 14.12106,14.12106 0 0 1 -1.86622,0.16683 c -1.20627,0.01776 -2.41369,0.0027 -3.61969,-0.03164 a 8.94956,8.94956 0 0 1 -1.18822,-0.19 c -1.0391,-0.17245 -2.07859,-0.34247 -3.11728,-0.51739 -0.76245,-0.1284 -1.5239,-0.26275 -2.28568,-0.39513 a 3.54147,3.54147 0 0 1 -0.44374,-0.08442 37.65883,37.65883 0 0 1 -4.30355,-1.38168 41.50172,41.50172 0 0 0 -5.30222,-1.83619 24.84,24.84 0 0 0 -3.23,-0.59484 c -0.91319,-0.14165 -1.83443,-0.23142 -2.75215,-0.34378 -0.10681,-0.01307 -0.21364,-0.02726 -0.3209,-0.03512 -1.71826,-0.1259 -3.43509,-0.28381 -5.15554,-0.36272 -0.92176,-0.04228 -1.85023,0.04235 -2.77482,0.08729 -0.71058,0.03454 -1.41959,0.09988 -2.12969,0.14559 -1.33423,0.08592 -2.67374,0.12043 -4.00206,0.26109 A 34.61194,34.61194 0 0 0 12.96505,69.97 24.87271,24.87271 0 0 0 7.98364,72.1158 c -0.16619,0.10007 -0.34635,0.1769 -0.51268,0.27679 a 0.506,0.506 0 0 1 -0.65042,0.0713 c -0.21835,-0.2057 -0.0381,-0.42363 0.06339,-0.64262 0.40622,-0.87652 0.76154,-1.77779 1.19309,-2.64119 a 43.33745,43.33745 0 0 1 3.01555,-4.977 c 1.3116,-1.92644 2.48449,-3.93865 3.67236,-5.94328 a 32.1421,32.1421 0 0 1 2.76986,-4.06028 c 1.03306,-1.25523 1.90862,-2.61152 2.86864,-3.91191 q 1.24721,-1.68941 2.4543,-3.40829 c 0.42025,-0.5989 0.7662,-1.25132 1.20328,-1.83656 a 2.98209,2.98209 0 0 1 1.27263,-1.112 44.05206,44.05206 0 0 1 7.30317,-2.186 c 0.6948,-0.14954 1.404,-0.23093 2.10381,-0.35882 0.43656,-0.07973 0.86785,-0.18804 1.35538,-0.29541 z M 46.72074,27.82407 a 1.04087,1.04087 0 0 0 0.25755,-0.27356 1.08877,1.08877 0 0 0 0.01093,-0.38191 0.8304,0.8304 0 0 0 -0.30657,-0.288 3.84793,3.84793 0 0 0 -1.14314,-0.0015 c -0.64923,0.13707 -1.28031,0.36013 -1.919,0.5472 l 0.0062,0.0081 0.25685,-0.37841 a 3.70215,3.70215 0 0 0 -1.95256,0.61253 1.04958,1.04958 0 0 1 -0.36046,0.09559 6.80118,6.80118 0 0 0 -1.21215,0.41179 8.90133,8.90133 0 0 0 -2.55593,2.16091 8.1213,8.1213 0 0 0 -1.80431,4.02583 7.10549,7.10549 0 0 0 -0.24225,2.10937 c 0.09945,0.68337 0.17069,1.37428 0.32505,2.04563 a 36.23485,36.23485 0 0 0 2.26431,7.13209 43.75031,43.75031 0 0 0 3.16269,5.48968 c 0.70513,1.08473 1.36828,2.19706 2.0856,3.27347 0.53349,0.80057 1.12367,1.56337 1.72146,2.38836 0.54973,-0.60018 1.19528,-1.064 0.88348,-1.97288 A 1.36972,1.36972 0 0 1 46.18408,54.50597 23.49245,23.49245 0 0 0 46.0658,51.75066 1.326,1.326 0 0 1 46.0592,51.49211 q 0.0096,-2.5225 0.02291,-5.045 a 0.35025,0.35025 0 0 1 0.06905,-0.13114 14.56046,14.56046 0 0 1 0.11273,2.19579 9.976,9.976 0 0 0 0.0379,2.12483 19.41154,19.41154 0 0 0 0.0972,2.10912 c 0.58515,-0.15233 0.59211,-0.15241 0.58706,-0.62556 -0.0087,-0.8188 0.0013,-1.63925 -0.04948,-2.45571 a 5.69318,5.69318 0 0 0 -0.15651,-2.38912 0.345,0.345 0 0 1 0.04093,-0.11351 c 0.05343,-0.26729 0.10646,-0.53469 0.15462,-0.803 0.02981,-0.16606 0.0508,-0.33371 0.07574,-0.50064 a 5.75432,5.75432 0 0 1 0.17308,0.77277 1.23824,1.23824 0 0 0 0.29322,0.3681 0.71779,0.71779 0 0 0 -0.30515,0.72023 c 0.02467,0.36217 -0.01925,0.72876 -0.0281,1.09356 -0.0055,0.22511 -10e-4,0.45045 -10e-4,0.69492 0.68025,-0.186 0.775,-0.27665 0.72338,-0.903 a 4.29379,4.29379 0 0 1 0.17506,-1.35192 q 0.106,0.32667 0.21191,0.65343 a 1.19267,1.19267 0 0 0 -0.02565,1.09013 c 0.71747,-0.17617 0.73339,-0.20648 0.57316,-1.084 h -0.55567 a 1.21088,1.21088 0 0 1 0.18324,-0.17089 c 0.51013,-0.31065 0.53771,-0.39087 0.319,-1.03227 a 2.90615,2.90615 0 0 1 -1.27867,0.29558 1.02548,1.02548 0 0 0 0.48757,-1.03739 12.98627,12.98627 0 0 1 0.02725,-1.48612 0.46119,0.46119 0 0 1 0.09991,-0.17163 c 0.06932,0.76132 0.026,1.5 0.11006,2.243 0.64906,-0.14686 0.68493,-0.1846 0.69054,-0.71578 0.0044,-0.42154 9e-4,-0.84316 9e-4,-1.26474 0.32252,0.50175 -0.034,1.09508 0.27372,1.57891 0.57842,0.03437 0.77863,-0.24855 0.69686,-0.70684 a 5.70383,5.70383 0 0 1 -0.0062,-1.1315 C 49.90425,43.34649 49.87255,42.3795 49.85519,41.4129 a 0.43679,0.43679 0 0 1 0.27382,-0.50747 v 2.55209 c 0.99625,0.0038 1.19389,-0.18818 0.99394,-0.92886 H 50.6148 l 0.5968,-0.39784 -0.1186,-1.1132 -0.76863,0.11463 a 1.03659,1.03659 0 0 1 0.23983,-0.19514 0.69039,0.69039 0 0 0 0.57066,-0.85443 c -0.038,-0.55917 -0.06364,-1.12131 -0.05091,-1.68116 a 2.82129,2.82129 0 0 1 0.281,-1.38129 l 0.06144,0.86947 c 0.79137,-0.0763 0.863,-0.1272 0.80794,-0.59044 l -0.58,0.08152 a 5.383,5.383 0 0 1 1.18875,-0.59445 c 1.01352,-0.171 1.00813,-0.20291 1.36812,0.0091 -0.27412,0.04788 -0.47912,0.08129 -0.68311,0.11994 -0.23248,0.044 -0.46714,0.08124 -0.69524,0.14232 -0.29053,0.07782 -0.28993,0.26317 -0.1815,0.47714 a 1.44352,1.44352 0 0 1 0.84645,0.07766 0.59174,0.59174 0 0 1 -0.581,0.22036 c -0.30941,0.04312 -0.39968,0.19381 -0.26982,0.52531 0.24527,-0.074 0.46584,-0.14971 0.69129,-0.20583 0.2025,-0.0504 0.43652,-0.18241 0.58546,0.12695 -0.3638,0.10034 -0.69908,0.17432 -1.01908,0.29041 a 0.48938,0.48938 0 0 0 -0.30277,0.28336 c -0.03456,0.39631 -0.01161,0.79762 -0.0099,1.27272 a 5.45477,5.45477 0 0 1 0.721,-0.13791 c 0.19113,-0.0087 0.43268,-0.24324 0.63156,0.12688 -0.33689,0.07066 -0.6257,0.14843 -0.91962,0.18828 a 0.42959,0.42959 0 0 0 -0.42791,0.52441 c 0.02189,0.24518 0.05139,0.48968 0.08006,0.75817 l 1.16734,-0.19861 c 0.15512,-0.8961 0.31531,-1.80079 0.467,-2.70693 0.06758,-0.40378 0.13261,-0.809 0.17224,-1.21618 a 1.45546,1.45546 0 0 0 -0.32391,-1.26523 0.52466,0.52466 0 0 0 -0.573,-0.23455 c -0.31118,0.064 -0.62846,0.09841 -1.06265,0.16357 0.2563,-0.2796 0.37765,-0.51395 0.16956,-0.74721 A 0.46984,0.46984 0 0 1 52.57536,34.8422 1.549,1.549 0 0 0 52.521,34.25715 l -0.92509,0.21469 c 0.30546,-0.43185 1.041,-0.21723 0.95459,-0.97551 l 0.29,0.34847 a 1.08662,1.08662 0 0 1 0.90328,0.05139 0.29174,0.29174 0 0 1 -0.04233,0.09463 q -0.21525,0.04715 -0.43217,0.0866 c -0.495,0.091 -0.53485,0.18092 -0.28365,0.70687 l 1.27974,-0.21072 a 5.49043,5.49043 0 0 0 -0.3448,-1.25616 c -0.40792,-0.73459 -0.75812,-1.4921 -1.09492,-2.25849 a 1.82446,1.82446 0 0 0 -0.369,-0.33943 1.17456,1.17456 0 0 0 -0.98239,-0.27085 1.02768,1.02768 0 0 0 -0.52531,0.28665 0.51053,0.51053 0 0 0 0.22019,0.67934 3.151,3.151 0 0 1 1.66241,-0.36267 c -0.03352,0.3065 -0.28046,0.26721 -0.48567,0.30657 -0.31337,0.06011 -0.627,0.12223 -0.93575,0.20205 a 0.46978,0.46978 0 0 0 -0.34892,0.64483 c 0.101,0.54721 0.141,1.10547 0.23544,1.65413 a 8.93063,8.93063 0 0 0 0.53019,2.40176 c 0.08789,0.18538 -0.02981,0.27383 -0.30687,0.238 -0.53771,-2.10556 -0.61952,-4.30149 -0.94482,-6.45564 l -0.4113,-0.165 a 0.5383,0.5383 0 0 0 0.19991,-0.83564 l -1.04414,0.20349 1.08675,-0.652 a 7.49626,7.49626 0 0 0 -2.37661,-1.29651 0.71345,0.71345 0 0 0 -0.76025,-0.11525 0.874,0.874 0 0 0 0.76544,0.10893 3.31984,3.31984 0 0 1 -0.388,0.30553 c -0.293,0.16955 -0.168,0.3236 -0.0474,0.47962 a 1.04762,1.04762 0 0 1 0.744,0.06823 l -0.70861,0.322 c 0.08654,0.36377 0.15373,0.71326 0.25979,1.05051 a 0.79578,0.79578 0 0 0 0.26334,0.24342 l -0.30241,0.5169 -0.46653,-1.65343 c -0.51311,0.05563 -0.542,0.08247 -0.48887,0.4521 0.02762,0.19234 0.06374,0.38344 0.096,0.5751 l -0.13451,0.03481 -0.32107,-0.73336 c -0.17387,0.01374 -0.32128,0.02538 -0.46851,0.03692 0.1393,-0.25 0.57637,-0.39192 0.29326,-0.79774 -0.62426,0.15629 -0.64366,0.21142 -0.28258,0.79195 v 0.90087 a 3.67426,3.67426 0 0 1 -0.51738,-2.06274 c 0.41865,0.29821 0.49712,0.27851 0.68082,-0.20823 l -0.68241,0.07369 0.78236,-0.668 c 0.20273,0.04425 0.42849,0.09351 0.65407,0.14288 a 0.80995,0.80995 0 0 1 -0.18972,0.1651 c -0.29662,0.12493 -0.25461,0.29463 -0.08223,0.49169 a 0.41931,0.41931 0 0 0 0.1488,0.60452 c 0.212,-0.05362 0.44129,-0.07978 0.40043,-0.38239 -0.04514,-0.33425 -0.29694,-0.21573 -0.49361,-0.21394 -0.02114,2.5e-4 -0.04229,-0.0022 -0.06324,-0.0036 z m 5.46332,10.87853 0.12744,-0.65094 a 2.27006,2.27006 0 0 0 -0.57065,0.098 0.66461,0.66461 0 0 0 -0.32728,0.32743 0.33205,0.33205 0 0 0 0.26127,0.48009 1.545,1.545 0 0 0 -0.21133,1.5877 c 0.79865,-0.16479 0.92384,-0.23737 0.91359,-0.72348 a 7.19559,7.19559 0 0 0 -0.19304,-1.1188 z m 33.309,5.32021 -0.95718,0.48957 c 0.25352,0.94037 0.487,1.80634 0.72212,2.67853 l 0.497,-0.06009 -0.63272,0.49882 c -0.23661,-0.85719 -0.42929,-1.627 -0.66682,-2.38271 a 0.92093,0.92093 0 0 1 0.03775,-0.99865 l -0.53842,0.142 -0.03351,-0.07707 0.39787,-0.35779 c -0.90018,0.234 -1.72635,0.4487 -2.55267,0.66357 l -0.45942,0.19782 c -0.2132,0.0324 -0.4286,0.05433 -0.63923,0.09891 -1.44987,0.30688 -2.89358,0.64577 -4.34966,0.91921 -1.01522,0.19064 -2.046,0.30026 -3.07161,0.43288 -0.49869,0.06448 -0.47843,0.05672 -0.61438,0.56149 -0.34178,1.269 -0.634,2.55766 -1.07625,3.79179 a 48.19751,48.19751 0 0 1 -2.53147,6.14774 11.56255,11.56255 0 0 0 -0.48547,1.26784 0.35891,0.35891 0 0 0 0.16935,0.54174 3.87345,3.87345 0 0 0 2.76493,0.27462 c 0.74315,-0.28577 1.51469,-0.49706 2.26989,-0.75245 0.59183,-0.20012 1.18749,-0.39386 1.7648,-0.631 1.49408,-0.61367 2.96894,-1.27536 4.47271,-1.86359 a 1.09575,1.09575 0 0 0 0.92179,-1.12255 0.84543,0.84543 0 0 1 0.37927,-0.8328 c -0.06514,0.43656 -0.12787,0.74187 -0.15253,1.05025 a 0.42739,0.42739 0 0 0 0.50066,0.567 c 0.2535,0.01056 0.50778,0.0019 0.782,0.0019 V 54.74 l -1.08207,0.45129 -0.07251,-0.151 c 0.29089,-0.16312 0.57692,-0.33586 0.87427,-0.4862 a 0.44648,0.44648 0 0 0 0.27324,-0.51893 c -0.07054,-0.55609 -0.12333,-1.115 -0.16336,-1.67413 a 0.60017,0.60017 0 0 1 0.22638,-0.684 0.68252,0.68252 0 0 1 0.09349,0.20193 2.00135,2.00135 0 0 0 0.0309,1.0063 c 0.32865,0.36628 -0.103,0.65244 0.04692,0.9541 a 1.8301,1.8301 0 0 1 0.09783,0.33845 c 0.66324,-0.09335 1.29036,-0.1816 2.00944,-0.2828 a 3.06144,3.06144 0 0 0 0.64375,-1.31894 c -0.5234,0.13734 -0.97949,0.24 -1.42178,0.38486 a 0.63453,0.63453 0 0 0 -0.26348,0.31975 1.39189,1.39189 0 0 0 -0.07985,0.35329 l -0.05,-0.01268 v -0.747 a 7.06082,7.06082 0 0 1 0.83215,-0.2804 3.04146,3.04146 0 0 0 2.14031,-1.55467 c 1.18626,-2.00212 2.48423,-3.93833 3.74711,-5.89465 0.38525,-0.5968 0.81281,-1.16616 1.20485,-1.75876 a 6.74493,6.74493 0 0 0 0.88181,-1.69885 c -0.35451,0.11787 -0.61957,0.19449 -0.8761,0.2933 -1.04448,0.40233 -2.09177,0.79833 -3.12644,1.22473 -0.39837,0.16417 -0.38432,0.19828 -0.16235,0.69321 a 5.19779,5.19779 0 0 1 1.9193,-0.77626 1.12962,1.12962 0 0 1 -0.34962,0.25162 c -0.46225,0.23351 -0.92484,0.46639 -1.38983,0.69433 -0.27692,0.13574 -0.40163,0.31188 -0.20059,0.61341 a 2.22735,2.22735 0 0 1 1.38146,-0.20989 l -1.39633,0.56415 0.0758,0.72307 0.415,0.2058 c -0.28694,0.46083 -0.84055,0.21278 -1.21472,0.57911 L 87.856,47.66392 85.26429,48.703 v -0.78227 l 0.32793,0.42639 0.84982,-0.43153 -0.18704,-0.82724 -0.5068,0.04792 0.42789,-0.46066 c -0.165,-0.65184 -0.325,-1.28916 -0.48806,-1.92568 -0.06271,-0.24481 -0.13243,-0.48783 -0.19889,-0.73162 a 0.97682,0.97682 0 0 0 0.97943,-0.12679 c 0.22937,-0.15263 0.49653,-0.24718 0.73732,-0.38438 a 3.0338,3.0338 0 0 0 0.35479,-0.27482 3.4119,3.4119 0 0 0 -2.06762,0.7905 z M 49.19257,50.634 a 12.61036,12.61036 0 0 0 0.96933,-1.35644 c 0.65434,-1.215 1.25463,-2.459 1.87607,-3.69171 0.30127,-0.59757 0.60717,-1.19292 0.89862,-1.79524 0.09717,-0.20082 0.15591,-0.42024 0.28056,-0.76476 l -1.7337,0.39553 v 1.74047 a 4.49251,4.49251 0 0 1 -0.31041,-1.55447 c -0.92779,-0.06926 -1.16247,0.172 -0.96484,0.96863 0.29071,0.17628 0.57487,-0.28468 0.942,0.02129 a 2.96747,2.96747 0 0 0 -0.86976,0.317 0.92415,0.92415 0 0 0 -0.11529,0.90276 l 0.67246,0.17359 -0.62205,0.26336 c -0.01252,0.18331 -0.014,0.334 -0.03793,0.481 a 0.48391,0.48391 0 0 1 -0.13787,0.1505 l -0.19,-0.47257 c -0.75094,0.08281 -0.80978,0.163 -0.64659,0.83642 l 0.64461,0.15293 c -0.677,0.362 -0.70991,0.42047 -0.63146,1.08637 A 16.114,16.114 0 0 1 49.1984,50.64418 L 48.92111,49.2787 c -0.78719,-0.048 -0.95193,0.24819 -0.59841,1.14807 l 0.48954,-0.24966 c 0.07593,0.35816 0.08476,0.4187 -0.12118,0.45111 a 0.62527,0.62527 0 0 0 -0.56637,0.58584 1.34667,1.34667 0 0 0 -0.539,-0.23795 0.43672,0.43672 0 0 0 -0.34559,0.53739 c 0.01857,0.29674 0.03727,0.59349 0.05776,0.91937 a 1.34428,1.34428 0 0 0 1.20533,-0.41274 C 48.7719,51.582 48.96591,51.098 49.19257,50.634 Z m 4.15227,2.467 -0.0077,-0.0089 a 1.02714,1.02714 0 0 0 -0.48243,0.99141 q -0.039,0.04152 -0.08061,0.08034 l -0.19779,-0.48692 a 18.73986,18.73986 0 0 0 -4.76124,2.97256 1.28569,1.28569 0 0 0 0.25959,0.02284 q 1.02642,-0.12608 2.0515,-0.263 a 25.441,25.441 0 0 0 2.556,-0.36533 c 1.84207,-0.44183 3.66644,-0.95774 5.49612,-1.45048 a 0.71272,0.71272 0 0 0 0.39088,-0.2052 5.60225,5.60225 0 0 0 0.64856,-1.10479 58.85518,58.85518 0 0 0 1.84633,-5.65 7.19731,7.19731 0 0 0 0.1663,-1.01751 0.39216,0.39216 0 0 0 -0.35034,-0.46153 C 60.31275,46.02434 59.75158,45.85693 59.1782,45.76634 a 22.99482,22.99482 0 0 1 -5.21181,-1.47886 c -0.19069,-0.07883 -0.37622,-0.1701 -0.55982,-0.25362 a 1.6689,1.6689 0 0 0 -0.137,0.19724 c -0.96925,2.06881 -1.87275,4.17169 -2.92471,6.19748 -0.84182,1.62109 -1.86426,3.14834 -2.80543,4.71792 -0.15468,0.258 -0.31357,0.51422 -0.45194,0.78091 a 0.36226,0.36226 0 0 0 0.13692,0.52875 c 0.50432,-0.32465 1.00056,-0.61335 1.46311,-0.9485 A 25.69682,25.69682 0 0 0 51.35747,53.8752 4.20042,4.20042 0 0 0 52.7356,53.24251 3.29516,3.29516 0 0 1 53.34484,53.101 Z M 9.124,70.86159 c 0.62554,-0.2245 1.26417,-0.41842 1.87413,-0.67933 A 23.73678,23.73678 0 0 1 16.28,68.48945 c 0.9529,-0.16435 1.91887,-0.25353 2.8795,-0.37207 a 0.95469,0.95469 0 0 0 1.10222,-0.75765 0.60839,0.60839 0 0 1 0.17216,-0.26946 c 0.89712,-1.02 1.80177,-2.03344 2.69424,-3.05749 a 8.25433,8.25433 0 0 0 0.87433,-1.11029 9.69085,9.69085 0 0 0 0.69625,-1.45449 16.74182,16.74182 0 0 1 2.43,-4.47355 0.34316,0.34316 0 0 0 0.02826,-0.15769 c -0.26907,0 -0.5231,0.02028 -0.77284,-0.0038 -0.74949,-0.07227 -1.502,-0.13279 -2.24456,-0.25226 a 8.276,8.276 0 0 0 -2.63842,0.08987 43.52894,43.52894 0 0 0 -5.53893,1.52408 1.4904,1.4904 0 0 0 -0.86083,0.72445 c -0.67,1.07812 -1.36489,2.14073 -2.046,3.212 a 5.81412,5.81412 0 0 0 -0.45418,0.77937 12.38282,12.38282 0 0 1 -1.76539,2.77346 20.90872,20.90872 0 0 0 -2.8457,4.83249 c -0.10655,0.24656 -0.16388,0.5144 -0.29136,0.92495 L 9.13631,70.8553 Z m 42.63634,1.20528 c 0.35716,0.1187 0.65273,0.24041 0.95972,0.31512 a 29.57958,29.57958 0 0 0 5.702,0.64327 c 1.15787,0.05206 2.32114,0.03371 3.48014,-0.0063 0.75013,-0.0259 1.49678,-0.14948 2.2453,-0.22622 a 0.49186,0.49186 0 0 0 0.44935,-0.30177 c 0.29385,-0.62272 0.61224,-1.234 0.92577,-1.84732 A 79.15922,79.15922 0 0 1 69.79537,63.33281 5.03135,5.03135 0 0 0 70.63826,61.258 0.34617,0.34617 0 0 0 70.32247,60.80049 2.2275,2.2275 0 0 0 69.93563,60.77462 4.76621,4.76621 0 0 1 66.38141,59.19097 C 66.05397,58.85133 65.80425,58.43809 65.49462,58.07954 A 3.2998,3.2998 0 0 0 64.67654,57.27166 8.81978,8.81978 0 0 0 61.05019,56.001 c -1.14379,-0.069 -1.00853,-0.09386 -1.42894,0.93736 a 0.82519,0.82519 0 0 0 -0.05643,0.252 2.1838,2.1838 0 0 1 -0.28526,0.76225 10.7755,10.7755 0 0 1 -1.01356,1.48381 c -0.806,1.19669 -1.62173,2.38868 -2.37531,3.61824 -0.82021,1.33825 -1.72372,2.62444 -2.41542,4.04511 a 21.12415,21.12415 0 0 0 -1.48213,3.77816 c -0.09877,0.36907 -0.1487,0.75124 -0.23283,1.18893 z m -16.922,-4.43642 a 16.62782,16.62782 0 0 1 0.63413,-1.64345 16.00236,16.00236 0 0 1 0.93705,-1.46967 1.65882,1.65882 0 0 1 1.93969,-0.75038 c 1.61222,0.389 3.21745,0.81263 4.841,1.1469 a 16.2187,16.2187 0 0 0 2.88408,0.34227 18.78874,18.78874 0 0 0 5.35209,-0.8141 6.32565,6.32565 0 0 1 1.6903,-0.24057 7.24885,7.24885 0 0 1 -0.68225,2.25855 35.997,35.997 0 0 0 -2.08919,4.162 c -0.12959,0.31017 -0.22379,0.63514 -0.35918,1.025 l 1.33416,0.32636 a 8.13023,8.13023 0 0 0 0.28312,-0.88431 17.811,17.811 0 0 1 2.26319,-5.54972 c 1.302,-2.20929 2.74535,-4.33768 4.18544,-6.46185 a 6.98767,6.98767 0 0 0 1.18994,-2.34117 3.84991,3.84991 0 0 1 0.27417,-0.65559 0.81681,0.81681 0 0 1 0.90778,-0.55083 9.6294,9.6294 0 0 1 3.73225,0.93778 4.003,4.003 0 0 1 1.88677,1.49418 4.64713,4.64713 0 0 0 0.54917,0.71948 4.2362,4.2362 0 0 0 3.42134,1.6695 2.07711,2.07711 0 0 1 0.63667,0.07925 0.51839,0.51839 0 0 1 0.46527,0.71354 6.686,6.686 0 0 1 -0.68492,2.00706 c -0.89445,1.3971 -1.79995,2.78907 -2.63607,4.221 -0.81575,1.39707 -1.55531,2.83885 -2.31764,4.26668 -0.1571,0.29426 -0.26713,0.61367 -0.40787,0.94254 a 1.18763,1.18763 0 0 0 1.29638,-0.48322 c 0.4507,-0.907 0.9288,-1.80159 1.346,-2.72375 a 54.19886,54.19886 0 0 1 2.771,-4.8985 19.20818,19.20818 0 0 0 0.97145,-2.03487 c 0.16258,-0.37341 0.24605,-0.78043 0.386,-1.16472 a 2.10462,2.10462 0 0 1 1.75593,-1.67206 1.05979,1.05979 0 0 0 0.24053,-0.09408 c 1.431,-0.54029 2.85344,-1.10543 4.30041,-1.59876 0.29079,-0.09916 0.3004,-0.40394 0.544,-0.45965 a 0.86889,0.86889 0 0 0 0.69231,-0.58252 c 0.62631,0.38519 1.00675,-0.14285 1.51877,-0.27077 l -0.12691,-0.78 c -0.24765,0.07884 -0.42775,0.12258 -0.59722,0.19221 q -2.41984,0.99427 -4.83718,1.99469 c -0.13927,0.05732 -0.28625,0.09591 -0.42963,0.14328 -1.10418,0.36484 -2.204,0.74369 -3.31465,1.0877 a 2.44874,2.44874 0 0 1 -1.38967,0.1475 c -0.51862,-0.1388 -1.05394,-0.219 -1.56666,-0.37511 a 0.76464,0.76464 0 0 1 -0.50183,-1.21154 c 0.499,-1.09976 0.98639,-2.205 1.50022,-3.29779 a 41.06614,41.06614 0 0 0 2.51127,-7.19848 3.3888,3.3888 0 0 0 0.06289,-0.70294 0.60244,0.60244 0 0 0 -0.1018,-0.20509 l -0.53922,0.04273 c -0.20647,0.84093 -0.36811,1.645 -0.60413,2.42659 -0.36144,1.197 -0.71858,2.40051 -1.18,3.56054 -0.50875,1.27919 -1.11742,2.52 -1.71653,3.7611 a 4.65979,4.65979 0 0 1 -0.733,1.05384 C 67.02871,57.57136 66.82682,57.54284 66.51539,57.22144 66.4105,57.11318 66.334,56.97465 66.22076,56.87771 a 9.40745,9.40745 0 0 0 -2.042,-1.55636 8.00358,8.00358 0 0 0 -3.39527,-0.669 3.824,3.824 0 0 1 -0.72337,-0.14637 c 0.06844,-0.26071 0.135,-0.52194 0.20735,-0.78156 a 0.35384,0.35384 0 0 1 0.07433,-0.104 9.6088,9.6088 0 0 0 1.40579,-2.66892 14.55771,14.55771 0 0 0 0.63408,-4.07677 2.43254,2.43254 0 0 0 -0.05014,-0.44021 4.055,4.055 0 0 0 -0.39123,-0.12844 0.19338,0.19338 0 0 0 -0.11647,0.0185 c -0.45515,1.52241 -0.88187,3.01074 -1.34771,4.48673 -0.31814,1.008 -0.73891,1.98532 -1.02313,3.00172 a 1.65418,1.65418 0 0 1 -1.33957,1.22515 c -1.14844,0.2918 -2.30051,0.56927 -3.44921,0.86013 -0.9158,0.23187 -1.8205,0.5169 -2.74563,0.69988 -0.79944,0.15812 -1.61951,0.218 -2.43274,0.29843 -0.62085,0.06137 -1.24476,0.10377 -1.86827,0.12218 a 1.19566,1.19566 0 0 1 -1.10462,-0.32261 c -0.221,0.31451 -0.4067,0.57825 -0.59179,0.84241 a 0.44552,0.44552 0 0 1 -0.56124,0.15678 1.20568,1.20568 0 0 1 -0.69036,-0.72549 0.88485,0.88485 0 0 0 -0.79721,-0.56653 3.43,3.43 0 0 1 -1.67291,-0.40484 8.76309,8.76309 0 0 0 -1.22677,-0.40542 26.01249,26.01249 0 0 0 -4.50392,-0.82212 19.16869,19.16869 0 0 0 -5.15768,0.15125 c -0.75716,0.13915 -1.51637,0.26718 -2.32466,0.409 a 1.75246,1.75246 0 0 1 0.0085,-0.53566 12.42881,12.42881 0 0 1 0.59479,-1.57 21.44591,21.44591 0 0 1 2.52667,-3.67472 c 0.557,-0.71377 1.182,-1.37778 1.701,-2.11708 a 11.8402,11.8402 0 0 0 1.79877,-4.127 3.05522,3.05522 0 0 0 -0.01766,-1.57234 l -0.70127,0.17786 a 8.50226,8.50226 0 0 1 -0.18439,1.67643 10.86483,10.86483 0 0 1 -1.966,3.60582 c -0.15076,0.18306 -0.29292,0.37369 -0.43125,0.56642 -0.72958,1.01656 -1.43833,2.04866 -2.18923,3.04915 a 7.634,7.634 0 0 0 -1.73643,4.18 4.4819,4.4819 0 0 1 -0.09676,0.51451 c -0.73009,0.02248 -1.45507,0.07123 -2.179,0.059 -0.62356,-0.01051 -1.24539,-0.1 -1.86906,-0.13615 -0.36533,-0.02116 -0.73281,-0.01129 -1.09921,-0.0065 a 16.34313,16.34313 0 0 0 -2.3758,0.06128 30.86838,30.86838 0 0 0 -3.39652,0.79373 1.93642,1.93642 0 0 0 -1.36087,1.45878 c 0.20168,-0.061 0.32317,-0.098 0.44479,-0.1345 1.238,-0.372 2.46164,-0.80518 3.71777,-1.09984 a 13.14082,13.14082 0 0 1 4.49266,-0.36289 6.72691,6.72691 0 0 0 2.68885,0.19568 0.58576,0.58576 0 0 1 0.43375,0.301 0.57424,0.57424 0 0 1 -0.13391,0.444 10.28765,10.28765 0 0 0 -0.83226,1.07133 c -0.65022,1.21476 -1.3214,2.427 -1.84733,3.69708 a 9.86518,9.86518 0 0 1 -2.20063,3.23169 12.52727,12.52727 0 0 0 -2.11208,2.72354 c 0.42909,-0.0314 0.81212,-0.04323 1.18944,-0.0959 a 0.522,0.522 0 0 0 0.35678,-0.21665 5.93479,5.93479 0 0 1 1.31807,-1.897 0.74637,0.74637 0 0 0 0.14249,-0.28736 5.34752,5.34752 0 0 1 1.58127,-1.84631 1.1158,1.1158 0 0 1 0.54169,-0.16588 c 0.16794,-0.02988 0.34366,-0.01252 0.51481,-0.02828 1.2875,-0.11865 2.57328,-0.31752 3.86238,-0.34137 1.59413,-0.02953 3.19135,0.07593 4.78642,0.1424 0.71225,0.02969 0.82581,0.223 0.596,0.90072 a 1.84844,1.84844 0 0 1 -0.15243,0.35683 c -0.3407,0.56936 -0.693,1.13181 -1.03279,1.7017 a 4.44748,4.44748 0 0 0 -0.58058,1.541 z M 17.27509,55.66252 17.35534,55.787 c 0.6211,-0.14371 1.23753,-0.31364 1.86436,-0.42511 0.97358,-0.17312 1.95,-0.35486 2.93332,-0.43962 a 14.16863,14.16863 0 0 1 1.99986,0.0814 c 0.60185,0.0342 1.20268,0.08783 1.80474,0.11653 0.47391,0.0226 0.95016,0.04469 1.42323,0.02216 0.46934,-0.02238 0.524,-0.11308 0.6283,-0.57154 0.11439,-0.503 0.23473,-1.00631 0.38787,-1.49848 a 9.691,9.691 0 0 1 1.594,-2.79558 c 0.84173,-1.1484 1.65032,-2.32158 2.51009,-3.45612 a 13.305,13.305 0 0 0 1.62169,-2.71125 3.61964,3.61964 0 0 0 0.32454,-2.13228 4.78675,4.78675 0 0 0 -0.787,0.05688 c -0.94215,0.2298 -1.88892,0.45 -2.81435,0.73709 -1.62374,0.50363 -3.22891,1.067 -4.85068,1.57722 a 2.05058,2.05058 0 0 0 -1.2102,0.99437 12.89863,12.89863 0 0 1 -0.76071,1.20032 c -0.73989,1.00517 -1.48848,2.00456 -2.25837,2.98684 -0.57014,0.72741 -1.21386,1.39868 -1.76267,2.1409 -0.833,1.12651 -1.614,2.29151 -2.41191,3.44371 -0.11962,0.17287 -0.21157,0.36491 -0.31636,0.54808 z m 49.409,16.67216 c 0.57066,-0.0716 0.99856,-0.09889 1.41493,-0.18315 0.8026,-0.16244 1.60478,-0.334 2.396,-0.54374 1.20716,-0.31991 2.408,-0.665 3.604,-1.0247 a 1.39944,1.39944 0 0 0 0.64608,-0.39751 16.27676,16.27676 0 0 0 1.49612,-1.94221 c 1.18615,-1.95279 2.30326,-3.94738 3.46732,-5.91379 0.868,-1.46626 1.76833,-2.91335 2.64913,-4.37207 A 3.80545,3.80545 0 0 0 82.56,57.48369 1.562,1.562 0 0 0 81.29245,57.61023 l -0.11375,1.31524 c -0.217,-0.64087 -0.25213,-0.68438 -0.70434,-0.59974 a 4.02325,4.02325 0 0 0 -0.78744,0.27744 0.38359,0.38359 0 0 0 -0.20666,0.61159 l 0.74031,0.19224 a 3.35668,3.35668 0 0 1 -0.35782,0.14337 4.94961,4.94961 0 0 0 -1.53171,0.36952 3.02771,3.02771 0 0 1 -1.16092,0.28111 0.82835,0.82835 0 0 0 0.64291,-1.07139 1.19069,1.19069 0 0 1 0.1517,-0.27006 4.532,4.532 0 0 0 0.08228,-0.53108 2.07469,2.07469 0 0 0 -0.37032,0.062 c -1.50221,0.5958 -3.00608,1.1878 -4.49892,1.80641 a 1.14121,1.14121 0 0 0 -0.49754,0.46895 11.92828,11.92828 0 0 0 -0.58491,1.22289 15.9886,15.9886 0 0 1 -1.096,2.54746 c -1.33734,2.03892 -2.45576,4.2049 -3.59379,6.35807 -0.23988,0.45393 -0.43732,0.93031 -0.72144,1.54042 z M 44.107,55.98235 A 57.67968,57.67968 0 0 1 36.26877,41.87779 c -0.17116,0.76876 -0.35606,1.53253 -0.50959,2.30255 a 10.0073,10.0073 0 0 1 -2.11752,4.24032 c -0.99055,1.24692 -2.014,2.46941 -2.94314,3.76361 a 7.75867,7.75867 0 0 0 -1.26711,2.58791 c 0.25786,-0.03269 0.46675,-0.05786 0.67526,-0.08583 1.08735,-0.14583 2.171,-0.35959 3.263,-0.41918 a 26.03784,26.03784 0 0 1 3.09762,0.09044 18.94257,18.94257 0 0 1 6.39,1.455 1.888,1.888 0 0 0 1.24971,0.16974 z m 8.38224,8.68889 a 5.17782,5.17782 0 0 0 -0.802,0.10178 23.11034,23.11034 0 0 1 -5.40054,0.90351 17.1079,17.1079 0 0 1 -4.907,-0.7116 c -1.06716,-0.26081 -2.13047,-0.5381 -3.2009,-0.78453 a 1.17863,1.17863 0 0 0 -1.49911,0.6834 1.471,1.471 0 0 1 -0.18613,0.33875 5.41132,5.41132 0 0 0 -1.09822,2.08822 1.21432,1.21432 0 0 0 -0.0054,0.37817 c 0.16843,0.03007 0.29355,0.05642 0.41986,0.07429 1.00195,0.14176 2.01832,0.21863 3.00252,0.43921 1.1293,0.25308 2.23042,0.63219 3.34325,0.95835 0.5364,0.15721 1.08074,0.29319 1.60568,0.48261 1.74264,0.62877 3.47325,1.29214 5.27084,1.75516 0.46579,0.12 0.51454,0.10631 0.70878,-0.29636 0.18694,-0.38755 0.34006,-0.79133 0.52435,-1.18026 0.424,-0.89471 0.83548,-1.79644 1.29434,-2.67316 a 5.89752,5.89752 0 0 0 0.9297,-2.55753 z m 14.49434,-7.75447 a 2.48724,2.48724 0 0 0 0.54456,-0.54724 35.71163,35.71163 0 0 0 3.178,-8.0441 3.79381,3.79381 0 0 0 0.2308,-1.83113 c -0.22957,0.06839 -0.42867,0.1332 -0.631,0.18566 a 1.02207,1.02207 0 0 1 -0.30377,0.04136 c -0.12841,-0.42859 -0.46922,-0.19209 -0.673,-0.17527 a 36.86535,36.86535 0 0 1 -4.64132,-0.01447 c -0.59509,-0.02578 -1.1899,-0.05813 -1.85633,-0.091 -0.04315,0.43545 -0.09445,0.83725 -0.1207,1.24071 a 9.6505,9.6505 0 0 1 -0.51081,2.98 c -0.41405,1.03877 -0.93649,2.03418 -1.4058,3.0512 a 4.91831,4.91831 0 0 0 -0.16834,0.51076 9.26777,9.26777 0 0 1 4.18638,0.89 2.22075,2.22075 0 0 1 0.509,0.27253 c 0.547,0.48357 1.07593,0.98753 1.66237,1.53099 z m -31.81548,6.5858 c -1.10525,-0.08231 -2.12827,-0.198 -3.15351,-0.22311 -0.92247,-0.02259 -1.84872,0.03335 -2.77088,0.09258 -1.11554,0.07163 -2.229,0.17763 -3.342,0.28356 a 0.92273,0.92273 0 0 0 -0.47163,0.1785 4.21392,4.21392 0 0 0 -1.39922,1.66345 2.12752,2.12752 0 0 1 -0.62251,0.8817 1.90423,1.90423 0 0 0 -0.65642,1.19206 c 0.21179,0 0.38163,0.0092 0.55022,-0.0015 1.24518,-0.07843 2.48911,-0.18875 3.73544,-0.23378 1.13884,-0.04116 2.28128,-0.04383 3.42006,-0.0041 0.70536,0.02461 1.40483,0.19277 2.11065,0.23626 0.672,0.04142 0.67809,0.0086 0.93406,-0.63636 a 6.9671,6.9671 0 0 1 0.92547,-1.76343 7.337,7.337 0 0 0 0.66144,-1.17384 2.01171,2.01171 0 0 0 0.07883,-0.49203 z m 48.44114,-7.79684 a 16.91306,16.91306 0 0 0 -2.44532,0.07614 v 0.58238 c 0.48861,0.20926 0.89187,-0.31765 1.50169,-0.05721 l -1.4646,0.51582 0.03124,0.17294 a 7.05381,7.05381 0 0 0 1.719,-0.0053 z M 46.5103,55.19616 46.633,55.24338 a 10.61407,10.61407 0 0 0 1.55762,-2.67476 l -0.83111,0.20748 a 2.96176,2.96176 0 0 1 -0.21969,1.28819 l -0.15264,-1.13278 c -0.59756,0.11343 -0.62693,0.11443 -0.61286,0.52525 0.01983,0.58068 0.08829,1.15968 0.13599,1.7394 z m 7.1928,-13.45488 a 1.65643,1.65643 0 0 0 -0.517,0.04217 4.89456,4.89456 0 0 1 -1.25057,0.38032 c -0.5669,0.1514 -0.60681,0.29747 -0.35113,0.9081 0.533,-0.09388 1.07545,-0.18456 1.6149,-0.29035 a 0.302,0.302 0 0 0 0.18174,-0.16308 c 0.10424,-0.24833 0.18796,-0.50525 0.32207,-0.87716 z m 30.7241,12.62063 a 1.70532,1.70532 0 0 0 -1.36231,0.09859 c -0.42075,0.10224 -0.43148,0.17981 -0.29875,0.71929 a 2.14183,2.14183 0 0 1 0.68869,0.01316 0.49687,0.49687 0 0 0 0.70768,-0.32831 c 0.07122,-0.15232 0.15632,-0.29814 0.2647,-0.50273 z M 51.4729,41.98809 c 1.01071,-0.13692 1.18235,-0.47811 0.71391,-1.423 l -0.71391,0.30436 v 1.11866 z m 35.70478,3.24342 c 0.73287,-0.29069 0.72947,-0.28981 0.56456,-0.92164 a 1.25393,1.25393 0 0 1 0.04128,-0.239 c -0.0022,-0.15708 -0.02207,-0.31389 -0.03863,-0.52066 -0.36323,0.13937 -0.7529,0.18466 -0.76454,0.57129 a 5.3018,5.3018 0 0 0 0.19733,1.11001 z m -0.91653,0.5238 C 86.967,45.535 86.96471,45.533 86.73,44.91882 a 1.59963,1.59963 0 0 1 -0.0065,-0.29143 c -0.0252,-0.15971 -0.06823,-0.31661 -0.12163,-0.55407 l -0.71316,0.418 z m -35.0939,-16.075 c -0.25664,0.16793 -0.49209,0.34959 -0.17008,0.64658 l 1.04558,-0.28763 A 2.83294,2.83294 0 0 0 50.90146,28.9476 c -0.18602,0.44314 -0.18602,0.44314 0.26579,0.73267 z m 1.81593,6.09507 1.22762,-0.2133 -0.04635,-0.55085 a 1.51676,1.51676 0 0 0 -1.22119,0.1826 z m 34.27645,10.826 c -0.80978,0.26978 -0.885,0.49035 -0.43806,1.13784 l 0.65141,-0.24883 z m -39.36776,2.99255 c -0.77661,0.13031 -0.86641,0.30642 -0.54811,1.07495 0.59024,-0.11574 0.59024,-0.11574 0.54811,-1.07495 z m 33.009,8.3 -0.03845,-0.16175 a 2.071,2.071 0 0 0 -1.28206,0.15769 c -0.18143,0.05656 -0.1928,0.26113 -0.03,0.46307 z m -1.866,0.98761 c -0.84444,0.19155 -0.85336,0.19958 -0.821,0.7066 0.82898,-0.10414 0.86959,-0.13684 0.82102,-0.70662 z m 0.01727,-0.81289 c -0.70959,0.07671 -0.7378,0.1046 -0.72653,0.71864 0.71921,-0.1028 0.77271,-0.15572 0.72654,-0.71866 z M 87.8704,45.26744 c -0.65386,0.29729 -0.68584,0.38685 -0.33835,0.84974 0.57983,-0.20431 0.57983,-0.20431 0.33836,-0.84976 z m -1.3899,1.27227 c 0.73424,-0.23679 0.74642,-0.26135 0.38809,-0.79917 l -0.57385,0.30486 z m -5.62964,10.40141 -1.14962,0.36232 0.03846,0.12574 c 0.34539,-0.24568 0.87878,0.12852 1.11116,-0.48806 z"
           id="path1-1"
           style="stroke:#000000;stroke-width:0.113386;stroke-dasharray:none;stroke-opacity:1" /><path
           d="m 81.04753,45.01326 0.25957,-0.19639 0.45949,-0.1979 q 0.25886,0.04422 0.51754,0.08856 l 0.01079,0.1308 -1.18034,0.25577 z"
           id="path2-49"
           style="stroke:#000000;stroke-width:0.113386;stroke-dasharray:none;stroke-opacity:1" /><path
           d="m 38.67285,36.39522 a 6.33966,6.33966 0 0 1 1.85461,-4.46922 2.5327,2.5327 0 0 1 0.708,-0.43614 c 0.78587,-0.40009 1.56978,-0.80608 2.37254,-1.16985 a 1.90485,1.90485 0 0 1 0.87814,-0.16114 7.74793,7.74793 0 0 1 2.94278,0.68022 6.64672,6.64672 0 0 1 1.39266,1.02171 5.61894,5.61894 0 0 1 1.38583,1.9283 6.24682,6.24682 0 0 1 0.43893,2.07046 6.31308,6.31308 0 0 1 -1.22274,4.10815 4.59547,4.59547 0 0 1 -0.9107,0.91121 6.52646,6.52646 0 0 1 -4.39118,1.44859 4.8,4.8 0 0 1 -3.26453,-1.2235 7.46366,7.46366 0 0 1 -1.23067,-1.57089 6.928,6.928 0 0 1 -0.95367,-3.1379 z m 11.35552,0.079 c -0.01824,-0.28708 -0.02879,-0.52442 -0.049,-0.76093 a 4.87981,4.87981 0 0 0 -2.0442,-3.85835 c -0.1403,-0.09692 -0.2442,-0.24519 -0.38,-0.35017 a 2.53836,2.53836 0 0 0 -1.31465,-0.64687 5.00913,5.00913 0 0 0 -2.23755,0.10026 c -0.32016,0.11952 -0.66252,0.178 -0.99,0.27977 a 4.96783,4.96783 0 0 0 -3.74469,5.17242 4.7996,4.7996 0 0 0 0.66221,2.40726 c 0.59535,1.01418 1.154,2.08967 2.40982,2.47524 a 6.38616,6.38616 0 0 0 2.51634,0.4454 13.65069,13.65069 0 0 0 1.42676,-0.33762 4.90293,4.90293 0 0 0 2.2672,-1.30681 4.96233,4.96233 0 0 0 1.47776,-3.61957 z"
           id="path3-2"
           style="stroke:#000000;stroke-width:0.113386;stroke-dasharray:none;stroke-opacity:1" /><path
           d="m 48.40881,29.65112 c 0.22737,-0.2499 0.65081,-0.4242 0.30331,-0.91889 l -0.50562,0.07063 a 0.31527,0.31527 0 0 1 0.0019,-0.12386 1.63549,1.63549 0 0 1 1.38453,-0.26076 l -0.585,0.19877 a 0.53518,0.53518 0 0 0 0.32,0.62431 1.05185,1.05185 0 0 1 -0.91908,0.4098 z"
           id="path4-0"
           style="stroke:#000000;stroke-width:0.113386;stroke-dasharray:none;stroke-opacity:1" /><path
           d="m 53.4685,33.06765 -1.42833,0.30732 a 1.08567,1.08567 0 0 1 1.40793,-0.46285 z"
           id="path5-68"
           style="stroke:#000000;stroke-width:0.113386;stroke-dasharray:none;stroke-opacity:1" /><path
           d="m 49.22806,30.00259 0.30994,1.68606 -0.16785,0.03357 -0.34124,-1.6661 z"
           id="path6-9"
           style="stroke:#000000;stroke-width:0.113386;stroke-dasharray:none;stroke-opacity:1" /><path
           d="m 52.97681,32.22559 a 3.06683,3.06683 0 0 1 -1.33942,0.279 1.03551,1.03551 0 0 1 1.33942,-0.279 z"
           id="path7-2"
           style="stroke:#000000;stroke-width:0.113386;stroke-dasharray:none;stroke-opacity:1" /><path
           d="m 49.186,42.82582 -0.089,1.14865 a 1.57093,1.57093 0 0 1 -0.10816,-1.16433 z"
           id="path8-66"
           style="stroke:#000000;stroke-width:0.113386;stroke-dasharray:none;stroke-opacity:1" /><path
           d="m 48.06538,43.85193 0.09977,-1.03407 0.0806,0.006 v 1.03955 z"
           id="path9-4"
           style="stroke:#000000;stroke-width:0.113386;stroke-dasharray:none;stroke-opacity:1" /><path
           d="m 43.62055,27.42634 a 1.54065,1.54065 0 0 1 -0.88482,0.41231 1.12368,1.12368 0 0 1 0.891,-0.40424 z"
           id="path10-9"
           style="stroke:#000000;stroke-width:0.113386;stroke-dasharray:none;stroke-opacity:1" /><path
           d="m 44.87828,29.55526 -0.10428,-0.44664 0.09409,-0.03491 0.17968,0.40337 z"
           id="path11-5"
           style="stroke:#000000;stroke-width:0.113386;stroke-dasharray:none;stroke-opacity:1" /><path
           d="M 50.10846,39.71982 50.07082,40.0302 49.98672,40.02148 50.0085,39.708 Z"
           id="path12-0"
           style="stroke:#000000;stroke-width:0.113386;stroke-dasharray:none;stroke-opacity:1" /><path
           d="m 58.48709,55.85338 a 4.17072,4.17072 0 0 1 -0.11792,0.65327 13.91024,13.91024 0 0 1 -1.4994,2.70438 c -0.61851,0.957 -1.17438,1.95477 -1.74766,2.94052 a 1.59893,1.59893 0 0 1 -1.26332,0.86548 12.68156,12.68156 0 0 0 -1.88037,0.43139 14.682,14.682 0 0 1 -5.91383,0.75151 37.98507,37.98507 0 0 1 -4.78759,-0.677 24.202,24.202 0 0 1 -2.80841,-0.959 c -0.614,-0.23919 -0.69044,-0.50137 -0.35553,-1.09716 a 14.48465,14.48465 0 0 1 2.09815,-3.24518 3.01942,3.01942 0 0 0 0.29646,-0.49449 1.01548,1.01548 0 0 1 1.13121,-0.55437 c 0.94678,0.20391 1.89254,0.41446 2.84412,0.59344 0.548,0.10308 1.10706,0.14666 1.66042,0.22224 a 15.939,15.939 0 0 0 6.526,-0.502 c 1.74063,-0.48863 3.47222,-1.00945 5.20889,-1.51229 0.16015,-0.0464 0.32809,-0.06602 0.60878,-0.12074 z M 38.33881,61.931 a 1.44556,1.44556 0 0 0 0.32777,0.25694 23.20531,23.20531 0 0 0 2.87058,0.96722 c 1.343,0.28494 2.72016,0.41159 4.08428,0.594 a 12.49489,12.49489 0 0 0 5.24435,-0.39591 c 0.98708,-0.29037 1.997,-0.50244 2.99236,-0.76594 a 0.94781,0.94781 0 0 0 0.48907,-0.26959 q 0.59533,-0.76181 1.12862,-1.57161 c 0.568,-0.86231 1.11062,-1.74136 1.66729,-2.61119 a 6.22974,6.22974 0 0 0 0.74207,-1.7235 1.37843,1.37843 0 0 0 -0.31287,0.0029 c -1.5447,0.45914 -3.09082,0.914 -4.63076,1.38871 a 13.58816,13.58816 0 0 1 -4.12938,0.65845 c -0.58,-0.0044 -1.16792,0.1351 -1.73936,0.07869 -1.02567,-0.10125 -2.04446,-0.285 -3.06065,-0.46514 -0.72033,-0.12771 -1.42983,-0.31529 -2.14754,-0.45927 a 0.79937,0.79937 0 0 0 -1.09,0.518 2.54265,2.54265 0 0 1 -0.41047,0.57014 15.75892,15.75892 0 0 0 -2.02536,3.22715 z"
           id="path13-4"
           style="stroke:#000000;stroke-width:0.113386;stroke-dasharray:none;stroke-opacity:1" /><path
           d="m 35.09524,55.55452 a 10.61137,10.61137 0 0 1 3.41931,0.39006 0.9277,0.9277 0 0 1 0.82282,1.3603 6.64019,6.64019 0 0 1 -0.95159,2.0451 c -0.44064,0.69083 -0.8826,1.38265 -1.3637,2.04521 a 1.22141,1.22141 0 0 1 -1.3268,0.55578 14.07314,14.07314 0 0 0 -4.23626,-0.38114 c -1.39486,0.11768 -2.78953,0.23746 -4.18483,0.3495 a 6.30234,6.30234 0 0 1 -0.96957,0.02717 0.33908,0.33908 0 0 1 -0.32848,-0.496 2.59837,2.59837 0 0 1 0.17872,-0.55148 c 0.37474,-0.75223 0.7556,-1.5017 1.15162,-2.24289 0.131,-0.24508 0.31833,-0.45949 0.47228,-0.69294 a 3.192,3.192 0 0 0 0.5026,-0.82044 1.09111,1.09111 0 0 1 0.96546,-0.81415 c 1.03573,-0.19909 2.08426,-0.33527 3.11472,-0.55687 a 9.03081,9.03081 0 0 1 2.7337,-0.21721 z M 26.459,61.59665 a 3.11184,3.11184 0 0 0 0.3596,-0.0016 26.91327,26.91327 0 0 1 4.37193,-0.37153 c 0.19352,0.0017 0.38716,-0.02439 0.58082,-0.026 0.60036,-0.005 1.20458,-0.0478 1.80019,0.0047 0.76931,0.06782 1.53063,0.22253 2.2981,0.318 a 0.65143,0.65143 0 0 0 0.461,-0.107 3.94946,3.94946 0 0 0 0.69406,-0.75636 c 0.562,-0.84123 1.11685,-1.68932 1.624,-2.564 a 2.9098,2.9098 0 0 0 0.29143,-1.046 0.50231,0.50231 0 0 0 -0.46556,-0.6539 20.11215,20.11215 0 0 0 -2.34884,-0.38609 15.66779,15.66779 0 0 0 -4.367,0.25978 c -0.52639,0.1066 -1.07144,0.12343 -1.59564,0.23775 -0.6637,0.14477 -1.3894,0.23419 -1.59027,1.08363 a 0.98726,0.98726 0 0 1 -0.18857,0.25922 10.50745,10.50745 0 0 0 -0.82185,1.232 c -0.39356,0.80043 -0.72069,1.63361 -1.1034,2.51744 z"
           id="path14-87"
           style="stroke:#000000;stroke-width:0.113386;stroke-dasharray:none;stroke-opacity:1" /><path
           d="m 86.995,49.28712 c -0.19885,0.50245 -0.59071,0.15276 -0.84506,0.30063 a 4.65684,4.65684 0 0 1 -0.90893,0.29144 c -0.2854,0.09279 -0.56934,0.19145 -0.84889,0.30043 -0.29685,0.11572 -0.58777,0.24661 -0.943,0.397 V 49.8987 L 83.53017,49.82038 83.734,50.205 c 1.09324,-0.33479 2.035,-1.02807 3.261,-0.91788 z"
           id="path15-17"
           style="stroke:#000000;stroke-width:0.113386;stroke-dasharray:none;stroke-opacity:1" /><path
           d="m 84.05166,51.52173 a 2.11691,2.11691 0 0 1 1.73045,-0.54028 4.56522,4.56522 0 0 1 -1.69052,0.58888 z"
           id="path16-2"
           style="stroke:#000000;stroke-width:0.113386;stroke-dasharray:none;stroke-opacity:1" /><path
           d="m 84.09159,51.57033 a 1.32632,1.32632 0 0 0 -0.54135,0.9027 L 83.47089,50.7676 c 0.31007,0.30887 0.11252,0.79627 0.58084,0.75423 z"
           id="path17-7"
           style="stroke:#000000;stroke-width:0.113386;stroke-dasharray:none;stroke-opacity:1" /><path
           d="m 83.40107,44.72114 -0.66408,0.33134 a 0.66,0.66 0 0 1 0.58794,-0.44432 z"
           id="path18-2"
           style="stroke:#000000;stroke-width:0.113386;stroke-dasharray:none;stroke-opacity:1" /><path
           d="m 83.15484,45.08626 0.463,-0.25274 0.0679,0.12729 -0.46779,0.24357 z"
           id="path19-26"
           style="stroke:#000000;stroke-width:0.113386;stroke-dasharray:none;stroke-opacity:1" /><path
           d="M 80.43036,45.3114 80.03591,45.59928 79.95949,45.442 q 0.2384,-0.06135 0.47688,-0.12266 z"
           id="path20-1"
           style="stroke:#000000;stroke-width:0.113386;stroke-dasharray:none;stroke-opacity:1" /><path
           d="m 81.11458,45.0941 q -0.342,0.10871 -0.68415,0.21736 l 0.006,0.0079 Q 80.742,45.16645 81.0477,45.0135 Z"
           id="path21-0"
           style="stroke:#000000;stroke-width:0.113386;stroke-dasharray:none;stroke-opacity:1" /><path
           d="m 15.9536,67.1506 -0.71144,-0.07326 a 0.32682,0.32682 0 0 1 0.4246,-0.22253 1.05514,1.05514 0 0 0 1.01424,-0.54493 4.0153,4.0153 0 0 1 0.501,-0.5634 l 0.11213,0.07776 -0.61681,0.93474 a 0.73825,0.73825 0 0 0 0.8909,-0.21418 0.72653,0.72653 0 0 1 0.52,-0.25362 1.21506,1.21506 0 0 0 -0.19941,0.33757 1.41025,1.41025 0 0 0 0.04284,0.42077 L 17.38941,67.19498 17.808,67.43323 17.01274,67.82 c -0.6123,-0.517 -1.2958,0.24407 -1.98669,-0.11256 l 0.97064,-0.37683 z m 0.44767,0.11829 h 0.72063 a 0.41126,0.41126 0 0 0 -0.72063,0 z"
           id="path22-61"
           style="stroke:#000000;stroke-width:0.113386;stroke-dasharray:none;stroke-opacity:1" /><path
           d="M 14.94259,63.54325 A 4.44292,4.44292 0 0 0 13.21517,64.753 l 0.22148,-0.52155 a 2.25135,2.25135 0 0 0 -1.8044,1.27636 1.91337,1.91337 0 0 1 0.66948,-1.38421 4.2954,4.2954 0 0 1 1.05292,-1.21323 0.52741,0.52741 0 0 1 -0.18144,0.61982 c -0.10609,0.15183 -0.213,0.30307 -0.37364,0.53135 0.80351,-0.0074 1.29855,-0.76284 2.14302,-0.51829 z"
           id="path23-5"
           style="stroke:#000000;stroke-width:0.113386;stroke-dasharray:none;stroke-opacity:1" /><path
           d="m 14.19111,64.8945 a 1.23,1.23 0 0 1 -0.24846,0.19289 c -0.66581,0.28491 -1.34,0.55053 -2.00269,0.84232 -0.34483,0.15182 -0.67173,0.34436 -1.0616,0.547 a 0.55513,0.55513 0 0 1 0.43116,-0.57719 c 0.78362,-0.33829 1.58155,-0.64424 2.38033,-0.94589 a 2.06933,2.06933 0 0 1 0.50095,-0.05979 z"
           id="path24-9"
           style="stroke:#000000;stroke-width:0.113386;stroke-dasharray:none;stroke-opacity:1" /><path
           d="m 13.134,66.36455 c -1.01315,0.47758 -2.02571,0.95646 -3.04182,1.42767 a 0.80117,0.80117 0 0 1 -0.27768,-0.11141 19.16332,19.16332 0 0 1 3.251,-1.43945 z"
           id="path25-4"
           style="stroke:#000000;stroke-width:0.113386;stroke-dasharray:none;stroke-opacity:1" /><path
           d="m 14.78307,66.55723 a 7.03589,7.03589 0 0 1 1.23266,-2.26446 0.54666,0.54666 0 0 1 0.54526,-0.24754 c -0.6076,0.85849 -1.19276,1.68525 -1.77792,2.512 z"
           id="path26-9"
           style="stroke:#000000;stroke-width:0.113386;stroke-dasharray:none;stroke-opacity:1" /><path
           d="m 19.465,66.50554 -1.00433,1.28823 A 1.47137,1.47137 0 0 1 19.465,66.50554 Z"
           id="path27-0"
           style="stroke:#000000;stroke-width:0.113386;stroke-dasharray:none;stroke-opacity:1" /><path
           d="m 9.41867,69.53515 1.45124,-0.62824 0.06309,0.14267 a 7.31629,7.31629 0 0 1 -1.42558,0.63221 z"
           id="path28-9"
           style="stroke:#000000;stroke-width:0.113386;stroke-dasharray:none;stroke-opacity:1" /><path
           d="M 9.13627,70.85526 A 0.68013,0.68013 0 0 1 9.079,70.66467 a 2.865,2.865 0 0 1 0.67779,-0.3351 1.3573,1.3573 0 0 1 -0.63269,0.532 z"
           id="path29-1"
           style="stroke:#000000;stroke-width:0.113386;stroke-dasharray:none;stroke-opacity:1" /><path
           d="m 14.19079,64.89386 0.64888,-0.317 0.08257,0.10366 -0.3117,0.41017 -0.41943,-0.19619 z"
           id="path30-7"
           style="stroke:#000000;stroke-width:0.113386;stroke-dasharray:none;stroke-opacity:1" /><path
           d="M 10.08246,68.70041 9.454,69.12587 a 0.59351,0.59351 0 0 1 0.54745,-0.517 z"
           id="path31-7"
           style="stroke:#000000;stroke-width:0.113386;stroke-dasharray:none;stroke-opacity:1" /><path
           d="m 11.52806,67.97042 -0.30281,0.19226 -0.06558,-0.104 0.29952,-0.19748 z"
           id="path32-1"
           style="stroke:#000000;stroke-width:0.113386;stroke-dasharray:none;stroke-opacity:1" /><path
           d="m 10.00144,68.60886 0.51621,-0.29791 0.07008,0.12341 q -0.25274,0.13291 -0.50538,0.26593 z"
           id="path33-1"
           style="stroke:#000000;stroke-width:0.113386;stroke-dasharray:none;stroke-opacity:1" /><path
           d="m 12.28641,67.50307 0.2943,-0.12951 0.04321,0.08651 -0.27455,0.154 z"
           id="path34-5"
           style="stroke:#000000;stroke-width:0.113386;stroke-dasharray:none;stroke-opacity:1" /><path
           d="m 13.61759,66.1249 0.27338,-0.19809 0.07344,0.082 -0.24736,0.23919 z"
           id="path35-9"
           style="stroke:#000000;stroke-width:0.113386;stroke-dasharray:none;stroke-opacity:1" /><path
           d="m 57.49331,51.283 a 0.245,0.245 0 0 0 -0.10979,-0.0595 1.81274,1.81274 0 0 0 -1.40547,0.87421 c -0.3307,-0.27908 -0.59606,0.06116 -0.90629,0.13832 l -0.08237,-0.09526 a 3.12637,3.12637 0 0 1 0.37073,-0.25961 1.2161,1.2161 0 0 0 0.78258,-1.15841 0.23771,0.23771 0 0 1 0.19277,-0.20213 l -0.1198,0.79464 a 7.13865,7.13865 0 0 0 1.08861,-0.56582 1.07413,1.07413 0 0 0 0.26333,-0.6218 3.00455,3.00455 0 0 1 0.66664,-1.68919 1.30154,1.30154 0 0 1 -0.21955,0.96978 9.16215,9.16215 0 0 1 -0.26633,1.024 4.42238,4.42238 0 0 0 0.86832,-0.26836 0.89267,0.89267 0 0 0 0.28954,-0.457 1.78924,1.78924 0 0 1 0.73618,-1.17261 l -0.703,1.88858 a 1.73169,1.73169 0 0 0 -1.45093,0.85664 z"
           id="path36-7"
           style="stroke:#000000;stroke-width:0.113386;stroke-dasharray:none;stroke-opacity:1" /><path
           d="m 51.22206,52.43818 a 0.99782,0.99782 0 0 0 0.34582,-1.21237 l 0.70714,-1.131 a 1.20788,1.20788 0 0 1 -0.12391,0.93634 8.31258,8.31258 0 0 0 -0.31672,0.83427 l 0.30363,0.146 c -0.459,0.45206 -0.59966,0.39306 -0.33192,1.03016 l -0.48132,0.40876 C 51.14846,53.077 51.74775,52.72858 51.22206,52.43818 Z"
           id="path37-7"
           style="stroke:#000000;stroke-width:0.113386;stroke-dasharray:none;stroke-opacity:1" /><path
           d="m 52.79884,50.46387 0.892,-1.17894 0.1149,0.039 -0.63346,2.68436 -0.32274,-0.40378 a 1.34039,1.34039 0 0 0 0.311,-1.11826 z"
           id="path38-6"
           style="stroke:#000000;stroke-width:0.113386;stroke-dasharray:none;stroke-opacity:1" /><path
           d="m 49.6923,53.46412 a 2.28253,2.28253 0 0 0 0.92821,-1.7243 5.3145,5.3145 0 0 1 0.4394,-1.1689 l 0.15225,0.05058 c -0.10585,0.37245 -0.21806,0.74324 -0.31546,1.11788 a 3.19154,3.19154 0 0 0 -0.18133,0.875 0.54628,0.54628 0 0 1 -0.40595,0.6273 c -0.20082,0.07054 -0.39144,0.17016 -0.58661,0.25676 z"
           id="path39-7"
           style="stroke:#000000;stroke-width:0.113386;stroke-dasharray:none;stroke-opacity:1" /><path
           d="M 56.29112,50.03357 A 5.81089,5.81089 0 0 1 57.015,47.624 l 0.13419,0.03921 q -0.3534,1.20728 -0.70676,2.41453 z"
           id="path40-3"
           style="stroke:#000000;stroke-width:0.113386;stroke-dasharray:none;stroke-opacity:1" /><path
           d="M 55.46343,48.654 A 0.97187,0.97187 0 0 1 55.5315,49.00328 15.42221,15.42221 0 0 1 54.7,50.7368 3.84139,3.84139 0 0 1 55.46343,48.654 Z"
           id="path41-6"
           style="stroke:#000000;stroke-width:0.113386;stroke-dasharray:none;stroke-opacity:1" /><path
           d="m 60.21607,48.76942 -1.00305,2.336 -0.1195,-0.04775 a 24.72221,24.72221 0 0 1 0.91845,-2.35675 z"
           id="path42-5"
           style="stroke:#000000;stroke-width:0.113386;stroke-dasharray:none;stroke-opacity:1" /><path
           d="m 55.07175,52.236 a 3.78435,3.78435 0 0 1 -1.73452,0.85608 l 0.0076,0.0089 a 3.69048,3.69048 0 0 1 1.64459,-0.96012 z"
           id="path43-6"
           style="stroke:#000000;stroke-width:0.113386;stroke-dasharray:none;stroke-opacity:1" /><path
           d="m 52.85475,54.08351 0.4917,-0.39365 a 3.97628,3.97628 0 0 1 -0.90932,1.25823 l -0.12031,-0.08595 q 0.22874,-0.34919 0.4574,-0.69834 0.04154,-0.03874 0.08053,-0.08029 z"
           id="path44-3"
           style="stroke:#000000;stroke-width:0.113386;stroke-dasharray:none;stroke-opacity:1" /><path
           d="m 57.48844,51.27947 0.20866,0.6284 -0.41641,0.30662 a 1.25877,1.25877 0 0 1 0.2126,-0.93148 z"
           id="path45-9"
           style="stroke:#000000;stroke-width:0.113386;stroke-dasharray:none;stroke-opacity:1" /><path
           d="m 50.266,54.05658 c -0.03432,-0.446 0.16756,-0.54119 0.47548,-0.50378 z"
           id="path46-4"
           style="stroke:#000000;stroke-width:0.113386;stroke-dasharray:none;stroke-opacity:1" /><path
           d="m 55.70243,53.57023 0.57872,-0.57242 0.1,0.09855 a 2.7091,2.7091 0 0 1 -0.56426,0.58666 z"
           id="path47-8"
           style="stroke:#000000;stroke-width:0.113386;stroke-dasharray:none;stroke-opacity:1" /><path
           d="m 49.72279,53.49846 a 1.11508,1.11508 0 0 1 -0.79951,0.52775 1.10216,1.10216 0 0 1 0.76927,-0.5618 z"
           id="path48-1"
           style="stroke:#000000;stroke-width:0.113386;stroke-dasharray:none;stroke-opacity:1" /><path
           d="m 47.71759,55.30646 0.6503,-0.37331 0.07371,0.1186 a 2.758,2.758 0 0 1 -0.63262,0.40345 z"
           id="path49-2"
           style="stroke:#000000;stroke-width:0.113386;stroke-dasharray:none;stroke-opacity:1" /><path
           d="m 53.7961,54.5756 -0.458,0.33263 -0.09973,-0.12809 0.45029,-0.35981 z"
           id="path50-9"
           style="stroke:#000000;stroke-width:0.113386;stroke-dasharray:none;stroke-opacity:1" /><path
           d="m 53.17995,52.3429 a 1.49692,1.49692 0 0 1 -0.2369,0.10955 0.18877,0.18877 0 0 1 -0.06245,-0.1233 0.22752,0.22752 0 0 1 0.13435,-0.11293 0.485,0.485 0 0 1 0.165,0.12668 z"
           id="path51-3"
           style="stroke:#000000;stroke-width:0.113386;stroke-dasharray:none;stroke-opacity:1" /><path
           d="m 55.963,52.8375 -0.21126,0.19076 -0.06346,-0.05716 0.19232,-0.235 z"
           id="path52-9"
           style="stroke:#000000;stroke-width:0.113386;stroke-dasharray:none;stroke-opacity:1" /><path
           d="m 76.74051,61.58661 c 0.36166,0.36919 0.6308,-0.0066 0.91569,-0.11645 0.38942,-0.15011 0.09774,-0.59407 0.34814,-0.92494 l 0.19775,0.69572 0.9166,-0.21011 a 1.14981,1.14981 0 0 1 -0.74559,0.47271 c -0.33671,0.13591 -0.70205,0.203 -1.03386,0.34821 a 4.28975,4.28975 0 0 0 -0.65615,0.44294 L 76.45964,62.1119 Z"
           id="path53-0"
           style="stroke:#000000;stroke-width:0.113386;stroke-dasharray:none;stroke-opacity:1" /><path
           d="m 73.96968,65.18271 c 0.10724,0.99749 0.20382,1.89589 0.31483,2.9286 a 4.82093,4.82093 0 0 1 -0.31483,-2.9286 z"
           id="path54-8"
           style="stroke:#000000;stroke-width:0.113386;stroke-dasharray:none;stroke-opacity:1" /><path
           d="m 75.777,63.60367 c 0.18314,-0.10537 0.37235,-0.20166 0.54754,-0.31889 0.15017,-0.10048 0.28427,-0.22494 0.44841,-0.35727 a 2.0135,2.0135 0 0 0 1.1965,-0.07615 3.75812,3.75812 0 0 1 -2.1996,0.74308 z"
           id="path55-8"
           style="stroke:#000000;stroke-width:0.113386;stroke-dasharray:none;stroke-opacity:1" /><path
           d="m 75.505,65.40794 -0.34906,0.29941 v -1.565 l 0.08853,-0.0238 a 2.90772,2.90772 0 0 1 0.114,0.35756 c 0.0585,0.31234 0.10394,0.62714 0.15461,0.94095 z"
           id="path56-5"
           style="stroke:#000000;stroke-width:0.113386;stroke-dasharray:none;stroke-opacity:1" /><path
           d="m 75.51313,65.417 a 1.78524,1.78524 0 0 1 1.43547,-0.64789 0.964,0.964 0 0 1 -0.72522,0.39456 6.11058,6.11058 0 0 1 -0.7183,0.24425 z"
           id="path57-0"
           style="stroke:#000000;stroke-width:0.113386;stroke-dasharray:none;stroke-opacity:1" /><path
           d="m 79.26617,60.91078 -0.08145,-0.90216 0.14418,-0.01505 a 1.72607,1.72607 0 0 1 0.069,0.91547 z"
           id="path58-9"
           style="stroke:#000000;stroke-width:0.113386;stroke-dasharray:none;stroke-opacity:1" /><path
           d="m 75.76981,63.59445 -0.48844,0.17769 -0.02951,-0.14859 0.52505,-0.01991 z"
           id="path59-6"
           style="stroke:#000000;stroke-width:0.113386;stroke-dasharray:none;stroke-opacity:1" /><path
           d="m 44.572,32.96774 a 3.82023,3.82023 0 0 1 1.92391,0.4846 3.02038,3.02038 0 0 1 1.52,2.42765 3.82929,3.82929 0 0 1 -1.36384,3.70021 2.79117,2.79117 0 0 1 -1.99346,0.604 A 3.15183,3.15183 0 0 1 41.7548,38.58376 3.52924,3.52924 0 0 1 41.39728,37.55643 14.35565,14.35565 0 0 1 41.256,35.946 c -0.10025,-1.88489 1.15184,-2.80588 2.86274,-2.97627 0.14969,-0.01493 0.30211,-0.002 0.45326,-0.002 z m -0.04157,2.23574 a 1.48653,1.48653 0 0 0 -0.14494,1.36661 c -0.65709,0.25844 -0.67056,0.28381 -0.41194,0.69424 0.2646,0.06941 0.2439,-0.54293 0.6231,-0.22978 V 37.681 c 0.3236,-0.04673 0.44124,-0.18619 0.35938,-0.45345 a 1.073,1.073 0 0 1 -0.13285,-0.35724 c 0.02541,-0.18327 0.05077,-0.452 0.39252,-0.31813 v 0.85423 a 1.69891,1.69891 0 0 0 0.55446,-0.5371 1.8893,1.8893 0 0 0 -0.161,-1.22045 0.38462,0.38462 0 0 0 -0.18443,-0.04194 l 0.52152,-0.9787 c 0.01484,0.349 0.03448,0.65335 0.0383,0.95785 a 0.2816,0.2816 0 0 0 0.264,0.3527 0.58551,0.58551 0 0 0 -0.04041,0.74487 c 0.45932,-0.20888 0.478,-0.28167 0.20735,-0.77829 l 0.25754,-0.88566 c 0.06735,0.47493 0.11363,0.9204 0.2,1.358 a 2.78615,2.78615 0 0 1 -0.14183,1.19849 l -0.28688,-0.72885 a 1.52677,1.52677 0 0 0 -0.311,0.54671 c 0.04549,0.50723 0.14931,1.00923 0.2435,1.5883 a 3.32782,3.32782 0 0 0 0.30512,-0.24273 3.11784,3.11784 0 0 0 0.14709,-3.98891 3.848,3.848 0 0 0 -2.05759,-1.26886 2.45591,2.45591 0 0 0 -2.66982,1.24041 C 41.29678,36.26115 41.985,38.815 43.704,39.456 a 2.70608,2.70608 0 0 0 1.99715,-0.0025 0.47469,0.47469 0 0 0 0.27391,-0.75027 l -0.68885,0.22569 -0.28266,-1.00329 c -0.37487,0.08667 -0.31441,0.31941 -0.32636,0.53248 a 0.59743,0.59743 0 0 1 -0.08691,0.63935 l -0.2277,-0.75852 c -0.48941,0.08414 -0.0902,0.47772 -0.32,0.64043 l -0.42348,-0.44882 0.11532,-0.57856 -0.12729,-0.07113 -0.6648,0.45889 a 7.42651,7.42651 0 0 1 -0.33739,-3.19434 c 0.45423,0.27841 0.52928,0.20023 0.69032,-0.68091 l 0.26407,0.32864 c 0.41459,-0.06764 0.34968,-0.45119 0.48594,-0.74 0.12057,0.243 0.37522,0.34844 0.18324,0.65374 -0.16213,0.25777 0.01149,0.44406 0.30188,0.4966 z m -0.97821,1.94908 -0.36358,-0.0704 c 0.24907,-0.42465 0.24907,-0.42465 0.11735,-0.73354 -0.48592,0.25962 -0.52244,0.55909 -0.15416,1.40147 0.35017,-0.05788 0.53254,-0.21356 0.40035,-0.59753 z m 2.29557,0.25257 c -0.63649,0.18292 -0.713,0.46845 -0.2936,1.09594 0.49713,-0.16671 0.50455,-0.19443 0.29356,-1.09594 z m -1.90412,-2.51476 c -0.30259,0.228 -0.52093,0.37031 -0.32279,0.72056 0.42518,-0.04663 0.36764,-0.32161 0.32275,-0.72056 z m 0.063,0.94346 c -0.405,0.25573 -0.405,0.25573 -0.17218,0.63279 a 0.3725,0.3725 0 0 0 0.17218,-0.63279 z m -1.12864,0.35355 c 0.28067,-0.18145 0.5601,-0.27117 0.32665,-0.70627 A 0.54228,0.54228 0 0 0 42.878,36.18737 Z m 1.516,1.28593 c -0.38921,0.10052 -0.47426,0.22324 -0.37761,0.41667 a 0.423,0.423 0 0 0 0.20017,0.0868 z"
           id="path60-3"
           style="stroke:#000000;stroke-width:0.113386;stroke-dasharray:none;stroke-opacity:1" /><path
           d="m 45.04943,35.84118 -0.13749,0.36486 -0.38754,-0.999 c 0.11442,-0.18242 0.0918,-0.54124 0.43787,-0.40225 z"
           id="path61-8"
           style="stroke:#000000;stroke-width:0.113386;stroke-dasharray:none;stroke-opacity:1" /><path
           d="m 45.25781,33.95 -0.5515,0.30629 a 0.44082,0.44082 0 0 1 0.46152,-0.46242 z"
           id="path62-5"
           style="stroke:#000000;stroke-width:0.113386;stroke-dasharray:none;stroke-opacity:1" /></g></g></g></svg>
