<?xml version="1.0" encoding="UTF-8"?>
<svg width="1200pt" height="1200pt" version="1.1" viewBox="0 0 1200 1200" xmlns="http://www.w3.org/2000/svg">
 <g fill="#fff">
  <path d="m591.91 945.88c-18.504-1.625-37.102-0.88281-55.723-3.1523-29.305-3.5742-56.652-14.156-85.164-20.352-11.047-2.4023-21.926-5.6602-32.781-8.8594v-0.003907c-18.77-4.8672-38.609-3.5508-56.57 3.7578-42.383 14.32-87.266 19.746-131.84 15.93-35.062-2.707-64.387-42.793-64.629-74.535-0.48047-6.6953 0.80859-13.402 3.7383-19.441 26.039-46.449 48.789-94.762 70.438-143.14 41.477-92.695 94.844-178.63 142.45-267.82 19.59-33.25 37.027-67.723 52.195-103.21 4.5625-12.059 15.688-19.891 18.922-32.609 1.1406-4.4922 6.4883-4.4258 10.004-5.5977v-0.003906c32.43-12.125 65.793-21.59 99.762-28.297 27.539-4.4883 55.402-6.6758 83.305-6.5391 20.82 0.10547 36.617 11.051 53.371 20.234 12.422 6.4531 24.262 13.973 35.387 22.477 8.8594 7.3086 20.492 10.332 31.789 8.2656 29.707-3.9844 59.637-6.0703 89.609-6.2461 18.535-0.41406 36.949-4.8633 55.488-6.8945 33.773-3.6992 67.594-7.0273 101.41-10.352 17.797-1.75 19.242 0.83594 21.383 18.508v-0.003906c0.95703 11.922-1.5195 23.871-7.1406 34.43-17.277 38.117-34.66 76.199-52.875 113.88-15.113 31.27-23.543 65.109-38.418 96.418-25.742 54.184-43.789 111.45-66.766 166.75-13.004 31.301-24.422 63.234-40.078 93.441l0.003906-0.003906c-4.7773 9.5703-8.1055 19.797-9.8789 30.344-4.2695 23.852-16.492 45.047-21.688 68.484-1.7266 7.7852-7.582 10.094-13.781 12.926-21.816 8.2539-44.336 14.504-67.285 18.68-18.668 4.7305-37.871 7.4961-56.938 10.492v-0.003907c-22.281 4.5312-45.176 5.2227-67.695 2.043zm338.59-468.72 0.33984 0.30078h-0.003906c12.125-36.863 31.316-71.012 56.508-100.53 3.0586-2.6172 5.1328-6.1992 5.8867-10.152 2.5156-10.344 6.6523-20.223 12.262-29.27 5.043-8.5977 7.9883-18.262 8.6055-28.211-7.7422-0.60156-15.531 0.30859-22.922 2.6875-33.328 9.707-67.645 15.621-102.3 17.625-5.8672 0.96875-11.887-0.30859-16.852-3.582 49.336-5.7188 95.707-10.773 138.91-29.836-15.379-3.9766-31.633-2.793-46.273 3.3633-35.785 10.633-72.582 17.504-109.79 20.504-19.867 1.9219-39.832 2.7148-59.793 2.375-43.098 0.47656-76.039-25.863-112.94-41.152h0.003906c-17.195-8.4648-35.727-13.883-54.77-16.02-26.691-0.45703-53.324 2.5625-79.234 8.9844-6.7695 1.2578-13.043 4.4102-18.098 9.0898 6.1445 3.7461 12.875-0.64062 17.586 4.3867-1.0742 1.1523-1.7891 2.6562-2.8047 2.9023-24.57 5.9336-49.078 12.188-73.824 17.281v-0.003906c-6.2852 0.48047-11.199 5.6094-11.414 11.91 23.645 6.1289 43.629-13.922 71.504-9.5586-18.992 9.4023-39.59 15.125-60.711 16.859-5.9336 0.054687-8.9766 1.5508-10.949 5.1719-6.9102 9.9609-12.465 20.793-16.52 32.215 12.172 0.15625 24.316-1.125 36.188-3.8125 4.5586-0.37891 8.7422-2.668 11.516-6.3047 2.7734-3.6328 3.8789-8.2734 3.043-12.766-0.32422-2.8867-1.4336-5.0391 1.5742-4.4453 7 1.3789 9.7539-8.668 17.465-6.4766-11.324 15.551-21.57 31.863-30.66 48.816 7.9102 3.8711 15.445-0.46094 22.914 4.1133h-0.003906c-6.2812 4.3438-13.66 6.8359-21.289 7.1875-8.0312 1.2461-14.91 6.418-18.34 13.785-11.605 23.258-27.258 44.262-38.031 68-5.6289 7.8164-9.1641 16.941-10.266 26.512 14.648-1.4648 28.52-6.1562 41.859 0.29688-13.441 4.4688-27.387 4.957-40.641 9.0352l-0.003906-0.003906c-5.9727 0.92969-11.23 4.4531-14.363 9.625-4.1328 8.2891-8.3867 16.516-12.535 24.668 5.6602 4.8398 13.066 0.37109 18.555 4.6641-22.668 7.9883-22.668 7.9883-29.305 19.793 3.293 3.3008 7.4219 1.5898 11.184 1.7344 3.8906 0.14844 7.9883-1.5234 11.445 1.6211-32.137 11.879-32.137 11.879-35.453 25.727 6.1797 3.2539 13.312-1.9336 19.859 2.4375-10.398 7.7969-27.559 2.3008-33.676 17.746l-0.003906-0.003907c-6.3359 11.211-11.645 22.977-15.852 35.148 6.8164 3.918 14.18-0.37109 19.848 5.0078h0.003906c-4.8164 3.668-10.77 5.5156-16.812 5.2188-7.2617 1.1562-13.504 5.7812-16.727 12.387-4.5977 7.25 2.3828 16-0.27344 17.945-5.8125 4.2617-12.875 6.6484-15.828 14.102-1.8164 4.582-3.3945 9.2578-4.8477 13.254 5.8164 3.5156 11.105 0.37109 15.758 4.5625-10.305 2.9844-21.203 4.2969-26.961 14.492-8.5312-11.754-19.801 2.2539-29.652-2.6055v0.003907c5.4297-6.2344 13.141-10.02 21.391-10.504 13.547-2.9688 16.051-7.2695 15.695-23.617-8.9844-0.87109-15.527 10.32-27.227 5.332l0.003906-0.003906c6.7656-7.8047 16.137-12.887 26.371-14.305 5.0586-0.86328 9.6523-3.4922 12.961-7.418 3.3086-3.9258 5.125-8.8945 5.1172-14.031-7.2539-4.5273-15.867 8.5234-21.055-3.0117 10.176-9.2305 26.914-4.668 34.559-18.543h0.003906c6.9414-12.02 13.051-24.496 18.293-37.348-6.7852-2.8711-11.281 1.4805-16.332 2.0781-5.5391 0.65625-10.68 6.1719-16.883 1.0586 2.7383-7.8789 10.656-7.1523 16.352-9.5352 6.6992-2.7969 14.133-3.7891 21-6.2461l-0.003906-0.003907c4.4492-1.875 7.4336-6.1289 7.6914-10.945 0.60156-4.6641-7.6758-1.4297-7.0898-7.3711 7.1953-5.1094 19.324-6.4336 17.84-19.543-9.9492-4.1875-18.492 6.9297-29.215 1.9961 2.2266-2.4141 3.2695-4.4492 4.8789-5.125 6.125-2.5742 12.348-5 18.695-6.9531 19.848-6.1016 24.27-11.746 25.598-33.523-7.7148-4.4023-14.34 7.1406-23.023 1.3516 4.9883-6.4688 12.25-10.801 20.316-12.109 6.8047-1.5156 12.977-5.0977 17.672-10.25s7.6875-11.633 8.5625-18.551c-39.566 2.582-39.496 2.6133-53.289 34.355v0.003907c-2.957 6.7148-6.2852 13.262-9.9688 19.605-2.1562 3.75-2.0547 9.9414-10.039 9.6914 6.3672-12.176 11.422-24.992 15.074-38.234-14.422 21.375-26.984 43.945-37.547 67.469-24.77 47.145-50.84 93.59-75.492 140.8-13.859 26.539-27.582 52.98-39.27 80.512-1.7305 4.0781-5.3516 7.7617-2.3203 12.699 6.2891 1.0078 9.668-4.0117 14.172-6.5 34.562-21.422 72.055-37.715 111.3-48.367 20.98-4.6562 42.367-4.7031 63.367-7.9961 32.148-5.043 62.023 3.25 92.172 12.109 26.504 7.7852 48.031 25.539 73.492 35.379 27.852 10.766 54.973 24.301 85.559 24.973 21.305 0.46875 42.645-1.2422 63.969-1.3438l-0.003906-0.003906c31.969 0.99219 63.852-3.918 94.043-14.484 7.3867-2.3242 13.336-7.8477 16.203-15.039 13.102-27.918 17.008-58.906 30.008-86.734 7.5703-16.207 16.602-31.777 23.512-48.246 26.773-63.797 51.82-128.33 82.039-190.64 5.0039-9.3672 8.3242-19.539 9.8047-30.055-6.5703 8.6016-12.332 17.793-17.215 27.453-4.5547 7.0039-5.2812 16.559-13.832 20.91zm-196.99 356.62c-21.02 0-41.48-0.95312-61.824 0.19141v-0.003906c-47.395 3.3125-94.527-9.3945-133.84-36.078-8.2344-5.5352-14.977-13.523-23.578-18.254l0.003906 0.003906c-29.891-16.727-63.691-25.211-97.938-24.582-58.125 2.2852-115.09 16.93-167.11 42.957-6.6953 3.8594-12.379 9.2539-16.586 15.742-7.9297 10.066-7.25 28.227-25.254 29.945-0.85938 0.082031-1.7109 4.6914-1.8477 7.2305-1.7617 32.914 21.199 55.367 53.828 50.082 28.887-4.6797 57.949-8.3086 86.609-14.848h0.003906c32.402-8.1992 66.059-10.219 99.211-5.9492 45.402 6.8047 88.945 22.418 134.81 27.305 42.973 6.2891 86.809 2.7461 128.21-10.359 3.9883-1.4062 9.4609-1.8789 9.8633-8.0156-18.047-13.988-18.863-17.992-7.9062-35.645 2.2539-3.6289 6.043-5.0625 8.9766-7.6641 4.7461-4.2031 11.598-6.2422 14.371-12.059zm-22.094 83.375-0.066406-4.2266c-8.4805 0.91797-16.953 1.9141-25.445 2.7344-18.961 3.2773-38.086 5.5-57.293 6.6641-55.047-0.68359-107.9-13.906-160.86-26.441-35.246-9.5-72.559-7.9961-106.93 4.3125 2.6016 1.0156 3.2227 1.4844 3.8164 1.4531 2.6484-0.15234 5.3086-0.30469 7.9258-0.71484h0.003906c34.23-5.5156 69.305-2.2266 101.92 9.5586 60.098 21.359 122.75 22.082 185.33 18.836l-0.003906-0.003906c17.793-0.91406 35.273-5.0391 51.602-12.172zm-288.44-508.54c10.004-13.598 23.312-14.93 34.832-18.941 4.8398-1.0898 9.2617-3.5664 12.719-7.125 3.457-3.5586 5.8047-8.0508 6.75-12.922-12-1.8477-21.621 4.7695-31.965 5.2695-3.9492 0.15625-7.7695 1.4492-11 3.7227-3.2344 2.2734-5.7422 5.4297-7.2305 9.0898-9.0547 16.223-19.129 31.949-27.117 48.676h0.003906c-7.3906 12.492-13.449 25.73-18.082 39.488 23.887-5.8125 49.438-3.8945 53.633-35.816-9.7227-2.5312-19.262 6.8516-31.27 1.7734 7.75-5.9766 16.891-9.8906 26.562-11.383 17.637-5.2227 20.828-8.2891 25.16-28.824-10.945-2.2266-19.074 8.5664-32.996 6.9922zm339.2 489.9c19.422-1.9961 20.754-2.1523 23.09-16.207h0.003906c2.5898-12.332 6.5234-24.344 11.723-35.824 1.8867-4.25 3.4922-8.6172 4.8125-13.074 1.8555-5.2617-0.76953-11.051-5.9531-13.121-4.8633-0.94922-9.6758 1.8555-11.246 6.5586-8.7266 23.48-16.215 47.402-22.43 71.668zm5.4062-69.07c-6.3945 3.0391-12.617 6.4414-18.629 10.188-7.5391 5.4414-14.73 11.414-21.699 17.582-9.8008 8.6719-8.3477 13.281 7.4883 20.465-5.6758-16.137 8.6914-16.285 14.633-25.223 4.6797 11.629-5.9844 18.895-1.4961 31.984 6.7109-16.535 11.98-29.227 16.973-42.023v-0.003907c1.1953-4.2578 2.1094-8.5898 2.7305-12.969zm-577.94 51.484c15.297 32.383 35.5 42.109 66.547 33.973-10.727-8.4297-24.387-1.9961-34.512-9.0039v-0.003907c-9.9531-9.2109-20.672-17.562-32.035-24.965zm2.0039-44.812c-4.1953 4.7266-8.9688 8.5469-5.2852 15.762 3.793-1.3672 3.625-5.0938 5.0586-7.7539 1.7656-2.3516 1.8594-5.5586 0.22656-8.0078zm176.35-358.55c-1.9375 2.3281-3.6836 4.8047-5.2266 7.4102-0.9375 1.9648-1.9023 4.5898 2.5039 6.0781 0.27734-3.9609 4.6875-6.0977 2.7227-13.488z"/>
  <path d="m923 363.95c2.2266-5.2734 4.5156-10.262-4.8125-10.676-10.664-0.47656-20.789 5.125-32.906 2.5391 5.418-9.2344 14.715-4.8047 21.207-7.6914 3.2031-4.3555-11.359-2.5039-3.0273-8.3086h-0.003906c6.7305-2.9961 14.09-4.3086 21.438-3.8203 22.18-3.0234 43.516-10.199 68.688-14.723-10.066 11.836-23.527 9.6172-32.031 18.133 2.9648 0 5.75 0.019531 8.5391-0.003907 8.5625-0.074219 10.895 4 7.0547 11.344-4.6445 6.5-8.5391 13.504-11.613 20.879-4.6953 18.82-19.832 31.402-26.953 48.539-3.7617 9.0508-11.184 16.738-10.371 27.551 0.53516 7.0938-7.9141 5.7188-10.207 10.875-10.125 22.75-25.891 43.012-30.031 68.375h0.003906c-0.023437 2.6719-1.7656 5.0195-4.3125 5.8203-6.0078 1.8828-6.0547 8.3828-9.4258 12.164-5.6211 6.3008 0.089844 17.547-3.0781 18.992-7.7422 3.5312-9.7227 10.195-14.355 15.445-5.9531 6.7422-0.23438 17.297-7.7734 22.195-8.0625 5.2344-5.168 16.062-13.066 21.527-3.9414 2.7266-0.45703 7.3477 3.8203 8.8477 3.7109 1.3008 7.7461 1.6484 11.535 2.7734 2.2852 0.67969 2.4844 2.9883 1.832 4.8359-0.53125 1.1953-1.6133 2.0508-2.8984 2.293-3.2578-0.14844-6.4766-0.98437-9.7383-1.3125-14.086-1.418-20.078 4.3555-19.898 19.273 0.015624 1.1992 1.0898 2.3906 1.6719 3.582-12.828 5.3594-10.863 18.875-16.219 27.938-8.7422 14.793-11.359 13.246-0.93359 25.09-18.215 3.3203-21.523 7.2773-23.699 29.359-15.465-2.2344-31.168-2.2773-46.648-0.12891 6.4258-9.7148 14.988-7.9219 22.465-8.2539 19.074-0.85156 19.082-0.64844 24.668-21.035-21.18-8.7109-43.918-5.6211-66.02-8.9023v0.003906c9.8164-4.5391 20.777-5.9961 31.438-4.1836 10.648 0.21094 21.27 1.7812 31.906 2.6914 3.9453 0.33594 8.1211 1.0508 11.082-2.5625l-0.003906 0.003906c2.4414-2.3281 3.8008-5.5664 3.7539-8.9414-0.47266-4.332-4.1367-4.4922-7.3008-5.2656-10.801-2.6328-22.59 0.72266-34.488-6.1016h-0.003906c12.242-2.3984 24.785-2.8203 37.16-1.2461 10.473 0.125 14.973-3.5273 13.719-14.656-14.352-3.6562-30.102-1-44.211-9.3398 12.676 0 25.355-0.21094 38.023 0.0625 5.1133 0.40234 10.164-1.3047 13.988-4.7188 3.8242-3.4141 6.0898-8.2461 6.2656-13.371-0.007813-5.6406-4.4102-5.7148-8.3867-6.0391-19.805-1.6133-39.617-3.1328-59.418-4.8047-8.043 0.046874-16.02-1.4414-23.5-4.3906 8.3555-2.8086 17.297-3.418 25.953-1.7617 6.668 0.11328 13.336 0.57812 19.992 1.0781v-0.003907c5.9883 1.4648 12.191-1.3945 14.969-6.8984 4.4961-8.5391-4.9414-8.7109-8.0977-12.059 4.6875-5.1602 10.168-1.9219 13.961-4.8125 1.7188-7.8281-7.7383-4.9219-11.125-11.648 17.453 4.707 22.855-5.8125 27.238-17.707 2.9688-8.0547 1.2422-12.824-8.3086-13.223-15.301-0.63672-30.594-1.5273-45.875-2.5664-3.0625-0.20703-6.8281 1.1133-9.6445-3.5312l0.003907 0.003906c8.918-2.293 18.211-2.7656 27.316-1.3906 10.633 0.23828 21.25 1.2734 31.883 1.5312 15.582 0.37891 15.586 0.21484 20.785-18.152h-33.719v0.003906c7.3125-4.7266 15.816-7.2812 24.52-7.3711 19.508-1.8906 19.508-1.8945 25.609-24.324-15.133-5.0938-31.484 0.76953-50.332-5.0273l0.003906-0.003907c6.6445-2.8984 13.945-3.9648 21.145-3.0898 9.3398-0.22266 18.688-0.21875 28.031-0.41406 4.0508-0.085937 9.2812-0.46484 8.6328-5.6289-0.63672-5.0625-6.1484-3.6172-9.7383-3.3164-12.66 1.8555-25.582 0.76953-37.758-3.1719 14.301-1.8789 28.703-2.8945 43.125-3.043 17.305 0.73438 25.77-7.043 29.547-24.352-21.09-3.8789-42.191 1.7812-62.914-4.9297 18.16-1.1211 36.316-2.2812 54.48-3.3477 7.1914-0.42187 15.25 0.81641 16.617-9.6055-6.4062-6.0625-15.758 0.45312-22.59-5.2188 7.0508-7.668 16.793-3.7266 25.582-6.6133-6.4375-3.3477-13.094 0.90625-18.344-4.0352 0.84766-4.3164 4.6289-2.9883 7.2852-3.4766v-0.003906c2.6289-0.4375 5.2812-0.71094 7.9414-0.82031 13.625-0.80859 19.938-8.4805 21.188-22.445-17.016-2.1523-33.684 2.2891-53.73-2.0117 22.285-6.9688 43.332-2.3359 65.254-10.973-13.375-6.1719-23.797 0.10547-33.664-4.7969 13.41-7.2695 29.66-2.2617 41.891-11.523v0.007813c9.6367 1.9141 19.523 2.2266 29.258 0.92578 4.2773-0.21875 8.2578-2.2422 10.953-5.5703 2.6914-3.3281 3.8438-7.6445 3.1641-11.875-16.148-0.82031-31.902 5.1797-43.41 16.535zm-44.406 136.45c-22.105 1.4922-22.105 1.4922-26.195 21.762 21.074 3.2383 22.48 3.6719 27.148-3.8203l-0.003906 0.003907c8.4648-11.578 14.473-24.762 17.66-38.742-11.891 4.25-25.496-3.9961-32.77 11.359 4.1953 4.0938 11.105 2.5703 14.16 9.4375zm-47.344 92.828c10.309 1.0547 16.367-5.168 21.75-20.906 2.0234-5.918 0.36719-8.4023-5.2031-9.8906-12.719-3.4023-16.902-0.80078-24.141 15.508-4.9531 11.156-3.4609 14.156 7.5938 15.289zm44.059-121.13c27.051 5.832 34.559-1.125 37.023-20.789-27.242-4.3516-31.637-1.8828-37.023 20.789zm-38.152 79.441c23.355 9.8906 28.164 6.9961 32.762-19.73-25.168-2.0586-25.168-2.0586-32.762 19.73zm67.711-137.55c16.34-6.1172 36.625 0.97266 38.914-23.477-29.012-2.418-30.395-1.6797-38.914 23.477zm-113.75 210.37c9.8281 1.207 18.809 2.6953 27.852 3.2852 2.6602 0.44922 5.3867-0.29688 7.4414-2.043 2.0586-1.75 3.2383-4.3164 3.2227-7.0195 0.17188-5.5664-5.0938-4.5781-8.6914-5.293-4.4727-0.88672-8.9453-1.7812-13.398-2.7539-9.7266-2.1211-14.875 2.0156-16.426 13.824zm161.67-249.09c-10.715-1.2227-22.281-5.1289-34.203 6.5703 11.809 3.1172 24.391 0.69922 34.203-6.5703zm-149.75 224.98c9.707 5.8242 21.602 6.6758 32.039 2.3008-10.02-4.7305-21.445-5.5508-32.039-2.3008zm129.52-183.64c-13.387 2.7422-23.191 1.2734-31.762 6.8008 9.9922 1.6133 20.977 11.922 31.762-6.8008zm-14.723 21.281c-3.7266-2.582-8.0703-4.1289-12.59-4.4727-4.5195-0.34766-9.0508 0.51562-13.125 2.5-0.75 0.96484-1.043 2.2031-0.80078 3.3984 4.0781 2.3711 8.7578 3.4961 13.469 3.2422 4.7109-0.25 9.2422-1.875 13.047-4.668zm-107.8 149.73c7.9141-6.7148 12.43-16.609 12.312-26.992-7.1914 7.2422-11.559 16.816-12.312 26.992z"/>
  <path d="m637.32 506.84c6.5938-1.8203 13.656-0.089844 18.66 4.5703 2.875 1.9844 5.7852 3.6719 8.6836 0.35547v0.003907c2.0586-2.7031 2.6875-6.2305 1.6875-9.4766-1.0195-5.1953-5.5234-7.0742-9.1953-9.8984l0.003906 0.003906c-9.082-5.0117-17.656-10.883-25.609-17.535 13.602-1.5469 21.773 7.2734 31.457 12.07 3.5312 1.75 7.0312 5.1523 10.895 2.0742v-0.003907c5.3086-4.1953 8.8047-10.27 9.7617-16.973 0.51953-3.9531-4.8242-5.6445-8.3867-7.3594-13.199-5.3008-25.035-13.5-34.641-23.992 12.715 5.7461 25.426 11.488 38.145 17.23 3.4766 1.5625 6.7773 4.6758 10.852 1.0352 2.1797-1.8516 3.2969-4.6641 2.9844-7.5078-0.31641-2.8398-2.0195-5.3398-4.5508-6.6719-3.7109-1.4258-7.0742-3.6328-9.8594-6.4727-0.46875-0.83984-0.86719-1.7148-1.1914-2.6211 6.5781-1.5039 11.016 3.5352 16.391 4.6445 3.9688 0.82031 6.0391-1.9961 7.5586-5.0781l0.003906 0.003906c1.3203-2.4336 0.61719-5.4688-1.6367-7.0781-5.1719-4.5586-12.691-6.4062-16.41-13.125 3.2422-1.7031 7.168-1.4375 10.148 0.6875 13.453 6.043 13.473 6.0039 21.52-8.2109-9.957-8.4922-25.23-8.5742-34.598-21.621 16.785 2.8555 30.395 11.66 46.016 13.105 3.9062 0.35938 6.3008 5.4492 6.1484 9.4062-0.18359 4.832-5.3203 2.082-7.7109 3.5195-9.6523 5.8047-12.27 16.824-17.668 25.68-4.3477 7.1367-3.6992 16.695-10.652 23.051h0.003906c-2.3398 2.6211-2.3633 6.5742-0.054687 9.2227 2.2578 3.1914 5.6719 7.2812-2.4727 6.5859-6.3008-0.53906-6.4219 6.0859-9.707 8.1172-9.1484 5.6484 8.8867 20.125-9.4648 23.906-7.3086 1.5078-4.4688 18.258-12.539 25.359-5.5039 4.8438-0.71094 10.312 1.2891 17.062-14.25-4.8398-28.328-6.1055-37.793-19.844 7.2617-0.40234 13.121-3.5 18.262 3.6836l-0.003907-0.003906c1.2734 2.0859 3.5859 3.3125 6.0273 3.1875 2.4414-0.12109 4.6172-1.5703 5.6758-3.7773 3.6094-5.082 4.0781-9.4258-1.5508-13.703-5.5898-4.2461-13.805-5.4336-16.477-13.613z"/>
  <path d="m650.3 621.52c-0.19141-6.7539-6-7.8008-10.375-10.539-14.223-6.8086-27.57-15.324-39.738-25.355 18.141 3.793 35.168 11.707 49.762 23.129 5.2227-3.4883 6.2344-8.2266 8.6406-12.07 5.3359-8.5195 1.8164-13.633-5.9688-17.438-8.9414-4.3672-17.91-8.6797-26.863-13.027h0.003907c-6.5898-1.7969-12.051-6.4023-14.926-12.594 14.848 6.8008 29.781 7.1289 42.102 16.254 10.461 7.75 13.176 6.7578 18.785-5.2578 17.137-36.719 33.727-73.699 51.211-110.25v-0.003906c11.512-25.434 24.746-50.051 39.613-73.684 2.0625-3.1289 3.1641-7.5 8.2305-7.3164l-0.48828-0.32812c-8.7617 25.223-25.02 46.605-36.094 70.691-21.391 46.527-44.094 92.434-63.688 139.8l0.003907 0.003907c-4.6445 13.641-11.621 26.379-20.617 37.637z"/>
  <path d="m649.89 621.18c-1.1602 22.742-12.863 41.387-23.461 60.477-2.9453 5.3086-6.5078 7.9727-12.789 4.7773-4.1289-2.1016-9.9336-3.6016-8.0078-9.2109 1.7578-5.1211 4.8789-12.379 12.449-9.6367 8.832 3.1992 11.625-1.7227 11.438-8.0625-0.21484-7.1484 10.727-15.234-2.5586-21.93v-0.003906c-10.617-4.2148-19.867-11.27-26.738-20.395 10.168 2.5078 19.773 6.918 28.301 12.996 8.8281 5.8555 14.387 5.7461 17.613-5.1562 0.50391-1.9336 2.1719-3.3398 4.1641-3.5117z"/>
  <path d="m770.78 373.37c-3.1719-6.6406-9.2344-11.441-16.426-13.008-17.523-6.2305-34.32-14.34-50.098-24.184-6.6914-3.2188-12.234-8.4102-15.891-14.871 17.996 5.2344 30.379 17.844 46.125 23.586 16.453 5.2344 32.34 12.105 47.426 20.512-3.1523 3.5039-7.1602 6.1367-11.629 7.6367z"/>
  <path d="m577.68 692.32c22.602 3.0859 44.156 11.465 62.91 24.453-22.277-4.2656-43.598-12.551-62.91-24.453z"/>
  <path d="m716.39 761.04c21.746-6.0273 44.914-4.2461 65.48 5.0352-21.953 1.3242-43.984-0.36719-65.48-5.0352z"/>
  <path d="m890.73 557.55c-1.1094-3.1953-0.85547-6.7109 0.70312-9.7148 12.551-23.785 21.215-49.75 39.402-70.375l-0.33594-0.30078h-0.003906c-9.7969 28.34-23.285 55.27-40.121 80.086z"/>
  <path d="m593.9 734.66c14.938 1.8164 29.16 7.4219 41.32 16.281-15.078-1.2266-29.457-6.8906-41.32-16.281z"/>
  <path d="m728.43 378.5c-11.578-2.6406-22.203-8.4336-30.691-16.738 11.801 2.8125 24.535 3.6992 30.691 16.738z"/>
  <path d="m326.01 644.29c-10.215 2.8672-18.121 12.562-30.641 7.6055v0.003906c8.5664-6.9805 19.805-9.7734 30.641-7.6094z"/>
  <path d="m868.68 598.71c3.4375 7.6367-0.94531 11.055-3.9258 16.77-3.3672-7.7969 1.9297-10.914 3.9258-16.77z"/>
  <path d="m619.92 766.49c-9.4922 3.6367-11.629-1.2148-16.281-2.7773 6.7578-4.4141 9.4805 0.48438 16.281 2.7773z"/>
  <path d="m882.64 573.49c1.75 6.1523-2.7422 9.7148-6.4414 15.02h-0.003907c-2.4453-5.9141 0.33594-12.691 6.2305-15.188z"/>
  <path d="m882.43 573.32c-0.71094-7.0898 0.48438-13.18 8.3047-15.781l-0.35547-0.30078c0.65625 3.1836 0.25781 6.4922-1.1406 9.4258-1.3984 2.9336-3.7109 5.3281-6.5977 6.8242z"/>
  <path d="m658.45 855.16c-11.148 1.7734-20.551-4.8867-30.219 2.8359 3.457 7.0547 14.355 2.5117 16.781 10.07v-0.003906c-40.039-2.9688-79.801-8.957-118.94-17.906-18.082-6.8516-39.191-4.3086-55.75-15.629l1.1133-4.2266c18.559 3.8594 37.203 7.3516 55.652 11.684v-0.003906c19.91 5.4141 40.348 8.6602 60.957 9.6836 5.8008 0.089843 6.1094-0.42188 3.1328-7.1094-2.1484-4.8281 0.16016-6.2266 3.9844-5.7852l-0.003906 0.003906c17.203 2.1055 34.508 3.2969 51.836 3.5625 7.3906 0.066406 10.105 5 11.457 12.824z"/>
  <path d="m514.49 867.12c42.84 3.4727 84.102 16.566 127.06 18.758-21.754 8.9297-105.85-3.0156-127.06-18.758z"/>
  <path d="m223.27 850.47c17.812-14.629 39.82-23.191 62.836-24.453-19.316 11.836-40.598 20.121-62.836 24.453z"/>
  <path d="m306.18 855.58c-19.227 12.039-39.395 13.582-60.168 25.586 14.617-17.918 37.121-27.488 60.168-25.586z"/>
  <path d="m475.26 790.39 38.535 24.984c-10.52 1.4375-10.426 1.2461-22.938-4.9688-7.6875-3.8203-16.348-6.3984-15.598-20.016z"/>
  <path d="m423.22 855.18c-12.02 2.668-24.605 0.53516-35.078-5.9453 13.188-5.8828 24.086 0.29688 35.078 5.9453z"/>
  <path d="m242.35 818.72c13.859-8.5508 29.684-13.406 45.957-14.094l-44.352 19.027z"/>
  <path d="m370.34 805.23c-11.719 7.8047-26.102 10.531-39.867 7.5547 11.941-7.2578 26.102-9.9414 39.867-7.5547z"/>
  <path d="m534.1 821.79c14.07-1.6055 23.332 5.8516 34.578 12.656v0.003906c-12.73 0.41797-25.125-4.1211-34.578-12.66z"/>
  <path d="m389.01 806.61c10.645-7.8359 17.777-0.28906 28.934 5.0234-9.9297 2.2109-20.332 0.40625-28.934-5.0234z"/>
  <path d="m379 778.78c5.6953-8.6406 13.172-7.8398 22.957-4.707-3.0273 2.8164-6.7695 4.75-10.82 5.5781-4.0469 0.83203-8.25 0.53125-12.137-0.87109z"/>
  <path d="m466.32 786.95c-7.0156-1.6289-16.371 2.4219-20.152-7.3047-0.17188-0.44531 0.21875-1.5977 0.53516-1.6758 8.6836-2.2188 13.48 4.8477 19.617 8.9805z"/>
  <path d="m476.55 864.48c2.5547-1.5352 5.4922-2.3203 8.4766-2.2617 2.9805 0.058594 5.8867 0.95703 8.3789 2.5938-4.8125 4.3906-12.223 4.2461-16.855-0.33203z"/>
  <path d="m677.38 856.21c1.6602-3.293 5.2617-5.1367 8.9062-4.5625 1.7266 0.14844 2.375 1.5586 1.2812 2.7461-2.4375 2.6445-5.7305 2.0508-10.188 1.8164z"/>
 </g>
</svg>
