<?xml version="1.0" encoding="UTF-8"?>
<svg width="1200pt" height="1200pt" version="1.1" viewBox="0 0 1200 1200" xmlns="http://www.w3.org/2000/svg">
 <g fill-rule="evenodd">
  <path d="m291.29 954.9c5.2188-3.2852-1.0391-5.4336 8.0781 0.40234-9.6133 5.5977-4.6523 1.8203-8.0781-0.40234zm233.08-14.551 3.6836 4.7227-7.0625 1.8438zm415.63-27.52c3.1406-6.9922 7.1094-13.605 9.2617-21.684l33.52 5.6445c-3.707 13.203-5.2188 14.148-12.758 22.938-10.254-1.0156-20.738-1.3477-30.023-6.8984zm163.91-64.418c-8.125-21.094-5.2188 5.0312-11.078-15.141-0.51953-1.7734 0.23438-15.188 0.82812-16.605l26.668-24.898c1.5352 37.254-1.6289 8.4102-13.395 58.723-2.9766 12.66-15.426 39.355-22.773 44.906 1.1562-9.9688 1.9609-7.3242 3.543-15.66 5.125-27.141 0.89844-22.109 16.203-31.324zm11.953-93.473c3.5664-4.6758 4.3008-4.8438 8.5977-8.0078l-1.8672 35.055c-14.812 2.5039-14.738 6.2852-26.41 10.488l4.2266-25.227c0.42578-0.11719 1.6055-0.40234 2.0312-0.51953 0.63672-0.14062 3.9922-0.11719 5.0547-0.33203l8.3633-11.457zm-90.426 46.723c3.5898-12.496 18.805-33.402 26.27-39.262 21.969 5.8594 9.332 2.9766-4.8438 31.324l-8.3164 11.859zm72.707-61.961c-0.046875-1.3711 0.35547-16.676 0.51953-17.242 1.9844-6.9922 19.133-23.715 28.109-27.898l1.6758 35.34c-11.195 10.984-19.133 9.6367-29.738 25.465l-0.56641-15.66zm-56.242-34.914c12.637 2.293 13.18 3.9453 19.844 12.047l-13.324 29.621c-7.5586 0.023437-10.156 0.40234-17.953-1.6758l-9.4023-4.3242c-0.37891-1.0391-1.418-0.96875-1.7969-1.3242l22.629-34.348zm10.18 103.51c6.9688-18.449 14.34-24.613 21.59-42.473-2.9297-3.2852-4.6055-4.5117-7.6523-7.6055-3.0703-3.0703-2.7148-2.7656-4.6523-4.9844l-2.7891-3.7305c5.0312-11.102 11.293-19.891 15.73-29.41-6.0234-13.512-13.984-19.938-26.859-24.992 3.6367-12.07 13.914-33.211 20.574-40.652l3.0234 4.3711c0.40234 0.51953 1.0391 1.4648 1.4883 1.9844 2.5977 3.0703 0.37891 1.7969 4.3711 4.3477 6.3086 4.0391 1.2266-0.73047 10.18 2.0078 10.109 71.48-11.645 110.08-8.7656 157.46 2.6211 43.203-18.117 62.715-23.906 81-3.0938 9.8047 2.3867 13.867-11.812 24.023-24.52 17.504-84.117 5.7148-111.4 10.984l1.1562-13.441c16.227-2.457 31.961 4.0156 44.293 5.5742l15.73-34.629 22.867 7.5586c-0.66016-14.645-0.80469-6.707-14.598-15.73 2.2422-8.5273 12.355-26.527 18.355-35.598 18.094 0.23437 20.008 7.7461 35.738 9.6133-3.5898-15.379-10.371-12.496-23.789-20.41l17.457-23.93c9.7812 4.0156 14.34 9.543 23.504 4.9844l-19.844-16.324zm-35.504-127.39c19.797-42.828 17.27-36.613 36.332-32.574-1.9375 20.27-9.3086 23.715-14.055 41.008zm93.707-78.684c15-10.535 18.828-22.746 19.559 9.707 0.49609 22.512 0.40234 48.332-0.14062 68.977l-27.07 14.457c0.070313-69.73 4.2031-33.969 21.262-56.93-11.055-7.5117-11.195-3.0469-24.707 0.80469l-1.7969-30.211 12.898-6.8047zm-97.867 25.867c0.49609-14.645 10.512-33.379 19.676-43.891 9.0938 2.5039 11.387 3.6367 19.559 7.6758-4.3945 16.348-12.637 26.93-18.355 41.434l-20.883-5.2188zm84.117-68.055c13.086-12.402 16.914-20.527 29.977-22.867l0.51953 39.805c-14.953 5.9766-17.27 13.82-30.094 19.746zm1.9844-42.473c9.875-10.039 12.188-15.309 25.746-22.133l0.23438 25.938-26.668 19.395 0.68359-23.195zm-41.504 16.324c3.8516-8.2695 7.3008-16.016 14.27-22.676l15.945 13.676c-7.1797 12.164 1.2031 104.93-0.94531 131.79-4.3945-5.2188-9.6836-11.148-15.473-14.387-10.891-6.1406-12.262-2.2695-25.746-7.1328 1.1797-12.852 8.9297-20.434 13.512-33.426 17.172 3.332 1.8203 5.1953 19.109 6.8984-3.875-10.348-6.9922-9.1172-8.6914-16.984-2.125-9.8281 1.8203-8.3164 1.0391-20.504-27.805-2.6211 5.8125 16.699-31.914 3.0234 2.2695-11.551 5.9297-22.844 16.844-27.969 10.301 5.5039 7.1094 6 9.1641 7.8906 5.5508 5.125-0.49609 3.1641 8.0078 6.7812 5.0078-16.227-4.0625-18.828-15.117-26.977zm41.789-39.828c-0.33203-29.621-3.3555-37.156 25.914-46.324l-0.023438 32.434c-5.457 2.8594-8.4805 5.6445-13.418 8.8125-8.1953 5.2188-2.6211 4.1094-12.473 5.0781zm-955.37-15.164-29.48 28.016c-7.0156-14.836-7.582-9.4727-9.4727-22.086-1.0156-6.875-1.1328-25.227-0.75781-32.621 1.3945-28.18-0.75781-30.496 16.086-44.316l16.348 4.4883c-4.7461 19.062-6.4492 20.102-21.758 26.102-0.875 13.961 0.54297 11.41-3.5898 23.883-3.6836 11.125-5.1016 3.6836-2.7148 18.234 8.1953-4.0391 10.203-13.844 15.66-21.355 10.203 7.0156 9.7305 10.699 19.676 19.652zm979.75-85.961c3.4727 18.023 0.21094 22.629 1.5117 42.945l-15.758 5.0312c-3.2852 1.0859-5.5039 2.457-10.488 3.6367l-3.543-41.078c11.078-7.582 12.898-7.6055 28.277-10.535zm-1011.2 3.1875c-1.4883-24.164 8.8125-32.691 23.387-40.746-8.3164 17.977-11.574 26.574-23.387 40.746zm127.89-63.828-14.41 27.945c-12.07-5.8828-14.172-8.3633-14.621-26.836zm-93.285 25.18c9.6367-20.738 23.48-19.867 49.016-20.859-4.7461 11.789-12.59 30.707-22.82 39.684-2.4102-2.125-9.0703-8.6914-11.457-10.605-4.8438-3.875-3.0938-2.2188-8.0312-4.8438l-6.707-3.3789zm167.12 3.0938c-3.8047-7.6055-7.0391-12.566-8.293-18.117l7.7734-13.676 22.844-0.66016-22.324 32.457zm584.43-44.195c3.4961 6 2.8828 1.1094-0.30859 7.6992-7.418-8.125-1.418-5.457 0.30859-7.6992zm-754.7 162.52c6.6602-4.4414 2.3867 2.6211 2.1484-7.0156-0.33203-12.52-5.8594-9-13.227-26.195 11.691-24.355 14.125-15.59 15.922-14.668 5.5977 2.8594-5.7148 0.37891 8.125 5.125-1.6992-24.023-12.402-33.188-26.363-41.504 1.8438-13.348 4.7734-15.637 10.914-26.883 7.2266 13.254 1.2031 3.9453 9.6836 8.1484 10.254 5.0547 2.668-1.582 14.715 8.5273-0.875 15.141-5.4805 3.0234-5.1016 21.164l15.262-9.8516c12.707 8.6914 4.0391 7.0156 19.062 12.473-6.4023-16.227-15.449-14.219-10.797-29.219 2.1719-7.0156 11.738-17.906 18.379-21.922 27.852 20.219 11.859 23.008 35.102 22.254-3.6367-14.316-8.3633-13.203 4.1094-24.898 9.8047 5.1484 12.781 13.844 24.047 13.984-0.49609-9.3789-9.8281-17.363-14.977-27.262 10.652-12.379 6.5664-14.195 46.301-11.883-3.6602 12.781-18.52 30.684-21.426 40.016 14.316 0 13.418-6.1172 21.613-14.293 5.4336 2.5742 7.9141 4.3945 16.773 5.5742-2.5742 17.738-1.3242 5.0312 2.8359 10.371 8.3633-4.7461 14.766-17.316 22.867-24.047l19.133 9.6133c-6.2852-20.621-14.691-30.898 13.535-38.457l2.1953 4.6992c5.9766 9.3086 7.9609 8.9531 20.645 8.668-2.668-18.332-15.707-12.07-3.4727-19.441 19.277-11.621 33.449-2.7656 71.078-47.102 27.992-33 57.164-45.164 109.13-46.629 53.172-1.5352 103.3-11.859 137.64 17.668 34.961 30.094 39.684 53.172 90.805 67.254 0.54297 3.1641-3.5898-2.3164-1.1797 7.6055 2.0781 8.5039 3.9688 6.4961 9.0234 12.613 9.6602 11.738 5.457 15.566 20.434 22.891l-13.629-38.172 31.652 6.0938-1.6758 27.047c14.387 0.023437 9.4258-11.457 15.66-4.3008 7.6523 8.7891-0.1875 7.6055 11.598 15.758 6.1641-11.008-5.0781-23.293-6.1172-36.66l15.922-0.11719c3.3789 7.9375 6.8516 20.738 7.4414 31.254 13.605 3.6133 7.6758 4.0391 19.254 7.1562-3.332-14.953-4.3945-4.7461-6.9688-20.148 3.7305-3.6602 11.836-11.977 16.961-15.023 8.1484-4.7969 20.859-6.7578 28.746-0.875-7.1328 16.938 1.3711 0.61328-15.707 9.8047 2.3164 13.867 19.016 24.945 34.559 25.652-2.7148-8.5273-8.6211-11.48-14.34-19.133l6.875-11.883c6.1406 8.0078 6.4492 4.7734 13.348 9.8047 9.9688 7.2539 4.2031 7.8672 17.668 12-3.3555-19.016-9.0469-24.969-27.543-28.203 6.9453-3.4023 19.984-3.3555 30.922-3.1641 13.133 0.26172 15.52 4.2031 26.977 7.5586 32.148 9.4727 24.332 8.4805 40.156 31.82 0.56641 0 1.5117-0.85156 1.6523-0.33203 2.668 9.4961 2.5273-0.61328 2.9297-0.70703 11.766-2.4102-7.0859-2.7656 3.4492-0.54297 5.0078 10.512 1.3945 4.4648-2.9766 17.715 9.3555 6.0703 13.82 5.3398 9.3789 15.023-10.629-11.527-34.82-41.738-51.992-26.219 0.40234 0.63672 1.3008 0.68359 1.5352 1.6289 0.26172 0.94531 1.2773 1.3008 1.6523 1.5586l18.852 10.395c23.574 15.496 33.449 16.867 36.805 38.668 2.0078 13.156 3.2344 23.102 3.1172 36.805-11.883-5.7656-30.449-14.078-45.945-10.891-14.789 3.0703-7.9375-0.14062-10.488 10.039 12.637 9.0469 33.496-0.89844 58.605 16.676l0.92188 46.016c-19.535-11.34-7.5117-6.3555-5.5273-30.332-16.18 0.61328-11.504 3.1641-20.621 14.148-11.977-2.5039-17.363-8.5977-28.254-5.8125-13.465 3.4258-4.0625 1.0156-9.0234 5.0312 8.3398 17.836 9.8516 3.2617 28.016 13.086-0.28516 44.078-12.309 17.242-36.285 28.914 3.0703 11.93 10.699 8.668 23.598 10.371-6.7812 19.203-11.738 19.867-25.086 31.227 1.8672 11.172 10.062 17.008-10.629 41.34-9.9453 11.691-3.5195-2.6445-12.355 12.285 10.039 12.402 20.055 9.6133 33.047 16.324-14.172 35.008-25.254 36.211-27.852 45.07l32.789 8.0078c-1.1797 11.598-13.086 32.859-20.242 41.102-19.844 0.11719-24.852-9.1875-31.629 6.707 16.891 6.0234 42.73 4.418 58.676 13.465-5.293 15.426-14.195 21.898-20.055 37.156-22.961-1.7461-30.141-14.008-38.195-0.11719 9.4961 8.6211 41.859 15.992 56.621 19.441-13.133 42.094-55.82 4.7969-67.891 28.441l16.133 3.9453c6.7578 0.35547 15.613 0.023437 22.629 0.070312l-14.906 38.789-31.488-6.8984c5.1484-13.039 11.527-13.277 12.379-24.449-18.613-5.9062-16.395 5.8828-27.875 21.211-6.4258 8.5742-5.2695 17.48-14.883 33.852-2.3633 0.28516-10.844 0.42578-11.219 0.49609-3.543 0.58984-6.4258-0.875-13.441 4.8672 3.0234 6.9688 7.1797 6.2852 14.766 9.0234 0.56641 0.1875 1.7969 0.30859 2.5508 0.78125-8.0078 32.93-17.766-1.0156-45.707 3.6133 0.66016 9.0469 3.6133 7.7227 5.3398 14.48l-31.891 0.63672c-4.9375-7.0156-8.5508-13.512-13.039-18.781-0.49609-0.58984-7.2539-7.4883-8.7891-8.1484l-14.738 1.6523c6.8281 13.203 12.543 4.7734 23.41 25.395-38.48 0.14063-25.016 5.8359-36.355-14.812-9.2109-16.773-3.0469-15.285-18-18.637-6.6602 21.805 6.7578 15.164 15.73 30.922l-7.5352 2.1953c-29.504 4.6992-61.441 0.49609-91.039 1.3477-48.852 1.3945-60.07 9.2852-88.109-9.0938-18.566 7.582 3.4492 10.629-49.535 10.086 5.668-10.938 5.6211-5.3398 8.0312-18.992-22.535 4.9609-10.016 9.4727-28.277 18.758l-3.9219-23.551c-28.227 3.5664-13.984 30.309-67.938 23.574l28.559-19.109c13.773-8.6914 5.5273 2.457 9.2852-11.34-25.039 1.6758-21.234 14.766-38.906 8.6445-16.676-5.7656-33.707-5.9766-34.227 14.527 18.094-3.4023 16.652-15.613 21.426 2.9531l-11.219 4.5117c-0.875 0.14062-14.766 0.14062-16.465 0.09375-15.781-0.30859-16.18 0.78125-25.844-7.8672 2.9766-7.1797 19.582-11.574 20.691-19.867-0.75781-0.30859-2.0078-1.3711-2.3633-0.58984l-4.6289-0.54297c-0.56641 0.046875-1.6758 0.11719-2.3164 0.23438-2.3633 0.42578-8.9766 4.0156-10.938 5.0547-16.938 8.8359-3.9219 2.3867-22.652 3.1875l2.8828 22.773c-12.59 0.37891-38.27 7.0156-27.992-14.125 6.875-14.125 25.984-11.668 26.574-28.016-9.2852 1.5586-15.992 6.0703-24.566 12.852-16.016 12.637-6.4023 7.3477-29.195 9.9453-1.0391 14.906 3.1875 5.7656 1.8438 24.211-16.418 1.8203-17.836-0.61328-24.188-12.211 9.543-14.172 23.789-16.559 26.953-28.395-12.684-1.2266-38.363 21.637-38.387 21.66l-12.758 14.242c-10.773-7.1328-13.18-25.418-28.395-15.969 1.8203 15.234 9.0938 6.4961 17.504 24.07-42.852 3.875-91.652 1.3711-121.46-29.859-42.379-44.34-43.109-190.04-45-253.28-1.7969-60.355 8.125-108.52 5.6211-151.32 10.418 4.7461 1.3711 0.1875 7.7969 4.4883 6.4492 4.3242 0.28516 0.85156 6.0703 4.5352 7.4883 4.7969 1.6758 4.7227 12.758 4.0625-1.6055-10.629-4.7461-11.766-11.527-18.047 6-14.551 17.977-24.805 19.488-39.188zm937.84-189.92c40.156 42.684 23.434 43.699 40.844 96.852-18.473-4.2266-17.031-0.26172-32.789 7.5586l-5.3867-33.637 29.668 0.44922c-1.2266-14.953-6.332-13.062-34.984-9.4023l-10.133-28.559c7.1562-4.2031 5.5742-3.2617 13.039-5.4336 11.527-3.332 2.3398 6.7812 10.582-5.0547-5.7891-23.363-21.047-1.5352-40.535 6.0234-5.9531-9.1172-4.4883-3-8.668-12.543 10.938-8.5273 19.652-11.172 34.914-8.3867 5.0781-4.3242 5.4102 6.5664 3.4492-7.8672zm-941.77 46.348c11.387-21.852 46.441-32.078 65.953-39.023-6.1172 7.6758-25.086 13.559-31.418 19.961-9.2617 9.332 5.3867 7.9141-34.535 19.062zm90.992-16.441c6.875-15.566 31.488-34.086 54.613-33.852-2.5508 2.8828-2.2422 3.1172-5.5039 5.9766l-13.746 9.3555c-4.4414 4.1328-8.457 12.449-10.844 18.047zm-45.047 5.5273c11.195-12.969 42.543-32.504 62.195-38.977l-13.652 12.402c-21.332 19.488-12.945 27.379-48.543 26.574zm809.77-22.203c10.797-19.676 26.953-21.473 39.59-24.117 16.039-3.3555 3.4023-9 28.723 6.8047-51.355 16.133-3.4961 16.418-68.316 17.316zm-727.46 13.18c15.402-19.559 37.867-33.234 64.203-35.148l-31.773 36.426-32.434-1.2773zm813.52-26.41-12.805-12.332c11.434 3.2617 5.6211 1.0156 12.805 12.332zm-201.23-8.3398c10.254-6.8516 18.496-10.465 33.426-4.8203-2.0781 3.1172-0.1875 1.4648-4.1328 4.8438-8.1719 7.0391 6.7578-4.9141-3.7305 2.5977-9.5898 6.8984-13.652 8.4805-19.961 21.945l-30.875-2.6211 25.277-21.945zm-546.02 32.574c14.363-25.348 48.309-38.219 77.457-37.18-6.875 9.8281 2.3164 1.3242-11.363 8.293-4.1328 2.1016-6.6367 3.4961-10.82 5.2422-30.262 12.66-38.387 31.465-74.766 24.828l9.0703-11.293c3.9922 7.0391 2.0078 6.2852 10.418 10.109zm564.36-7.6289c11.551-22.488 40.605-26.172 50.219-31.371 7.0625-3.8281 3.0703-4.1328 17.551-3.5898-4.8438 11.293-9.4492 3.3789-27.023 23.363-12.262 13.914-17.789 11.27-40.746 11.598zm-75.52-10.418c6.9453-11.078 26.363-23.078 47.031-23.598-0.58984 0.80469-1.3242 1.8203-1.7734 2.3398-10.746 12.047-12.637 8.3867-19.746 17.41-0.47266 0.56641-0.99219 1.5586-1.3945 2.125l-2.8828 4.582c-0.26172-0.56641-0.96875 1.6289-1.6055 2.7656l-19.629-5.6211zm123.73 7.0391c5.1719-9.543 3.5195-6.0703 13.676-13.203 6.9922-4.9375 5.3867-4.3711 14.363-8.6211 12.613-5.9766 21.637-8.8594 37.844-10.723-5.5508 8.8125-19.605 16.699-29.621 31.301l-36.262 1.2539zm-155.17-15.66c16.488-12.094 16.465-17.621 40.82-16.746-5.9766 9.8984-13.746 9.1172-21.969 22.227zm5.5039-37.18c9.332 5.3867 6.9453 5.5039 10.746 14.434-24.992 8.4102-13.371 9.9453-31.371 19.891l-9.4258-12.094 24.023-11.148c9.5664-3.9922 8.9531-5.5977 6.0234-11.078zm0 0c-18.379-0.40234-26.102 8.8359-38.504 15.426l-6.3555-8.5742c9.3789-9.875 18.211-9.5195 31.676-13.844l13.18 6.9922zm-64.652-9.4727c8.2695-11.551 25.277-14.363 38.387-5.8359-38.977 16.797-28.277 17.125-38.387 5.8359zm-13.629-26.031c9.7812-5.3164 21.355 0.85156 26.172 2.7148l-22.039 11.789-11.715-6.4023c5.9766-9.2617-4.9844-1.3008 7.582-8.1016zm-24.211-19.961c12.66 0.33203 15.117-0.42578 23.195 7.2539l-19.156 12.59-14.363-8.668 10.324-11.172zm-39.188 10.773c6.2109-12.449 13.652-19.676 24.66-18.332 2.9531 10.324-5.457 18.613-24.66 18.332zm-73.062 1.2539c13.301-19.301 15.262-15 38.27-24.566-2.4336 5.2695-8.0312 14.457-13.18 19.301-8.3867 7.9141-12.898 5.9766-25.086 5.2695zm-39.73 0.28516c6-12.922 22.18-21.141 43.324-21.707l-9.4961 11.363c-1.9375 2.6211-3.3086 5.5742-5.9766 10.488l-27.852-0.14062zm76.086-3.4961c5.4336-8.668 11.293-14.645 18.59-22.277l20.789 2.3398c-7.3477 5.0547-13.227 11.598-17.102 20.859zm-197.93 72.117c-2.0312-7.6055 4.4414 0.61328-2.5977-5.3398-7.3242-6.1875-53.316-1.9844-62.715-1.418-75.758 4.4883-173.15 1.418-222.21 53.008-37.867 39.852-42.852 74.102-48.262 134.36-9.4023 105 2.2422 111.54-0.023438 173.2-2.5977 70.891 2.9531 276.16 49.629 309.43 10.277 7.3008 45.332 25.867 62.766 28.512 95.434 14.434 157.51-10.82 246.78-7.9844 127.72 4.0391 408-2.2188 541.02-7.7461 32.055-1.3242 52.277-3.2617 73.914-17.598 8.8359-5.8594 18.496-13.086 26.621-19.254 10.938-8.3164 12.426-12.73 18.023-24.449 52.891-110.46 29.906-200.55 35.789-329.5l-0.26172-129.61c-1.8906-10.227-4.7227-25.277-6.8984-38.527-11.219-68.457-9.2852-77.527-53.598-126.02-17.715 0.42578-11.48 4.7227-24.141 0.73047-9.4023-2.9766-9.6836-5.4336-21.969-8.0547-37.156-7.9609-113.27-2.1719-157.25-0.80469-28.324 0.875-57.73-14.766-87.875-28.062-25.133-11.055-47.93-34.773-68.504-42.473-42.758-16.016-16.535-14.789-40.676-14.219-20.008 0.47266-8.9062-0.51953-21.449-5.2422l-72.449-3c-66.613 4.9141-132.83 100.77-163.16 118.63l-0.49609-8.5508z"/>
  <path d="m481.2 670.68c2.7383-17.055 18.52-23.645 33.141-37.086 13.348-12.285 23.766-23.148 40.699-32.172 0.78125 0.44922 1.9141 0.30859 2.2695 1.4414l9.9688 6.5664c-13.676 15.188-82.133 53.504-86.078 61.254zm188.2-62.598c-19.699 0.94531-18.66 0.44922-34.418-7.0391-0.73047-30.402 5.3398-23.48 31.086-20.691 12.945 1.418 6.5195-1.0625 18.309 3.8984 0.58984 13.227-7.2773 16.254-14.977 23.836zm-96.59-7.0859c-0.80469-13.582 24.922-28.914 31.086-30.781 3.2617-0.99219 28.984 1.3477 39.262-22.891-18.969-3.0469-33.828 9.6367-49.773 18.426-63.07 34.773-32.008 18.402-80.527 56.668-12.805 10.109-21.828 25.652-36.922 33.188-6.7578-39.047-1.9844-29.195 6.5195-32.148 13.324-4.6289 53.812-36.758 70.723-48.969 11.504-8.3398 48.449-35.008 62.293-38.977 16.488-4.7461 17.977 3.1172 20.977-15.234 29.078 6.8516 53.859 16.914 72.355 33.023 40.348 35.102 25.82 53.242 31.844 65.34-11.387 1.7969-20.316 10.512-28.324 16.984-8.1484 6.5898-22.039 12.969-29.148 19.133 13.773 9.0234 42.234-18.543 57.234-25.465 2.5039 33.852-9.6602 68.293-24.117 91.961-15.309 25.039-27.684 14.598-35.195 33.449-1.4883 3.7812 10.016-4.1094-4.4883 8.2695-3.6133 3.0703-16.301 7.6992-23.031 9.6836-30.922 9.0469-69.262 5.6914-96.023-9.3086-25.797-14.48-45.73-28.773-60.828-59.574 14.078-35.148 104.39-81.898 109.98-91.797-13.723 1.0625-24.07 8.0781-33.945 14.766-51.262 34.746-45 36.805-82.301 66-6.2617-7.1328-4.2773-5.7656-9.2344-15.637 37.062-19.629 32.812-17.41 66.379-42.945l69.52-45.945c0.49609 0.80469 0.94531 1.2031 1.1094 2.6211l8.457 18.496c6.4023 6.7305 11.387 4.2539 19.961 12.969l-56.008 39c6.1172 5.3633-1.0156 2.7891 13.512 1.7227l24.285 0.023438c-12.332 14.93 12.188 6.8984-36.898 38.008-8.0781 5.125-15.234 9.4023-24.262 15-13.324 8.2422-19.867 5.4102-24.234 17.102 14.574 8.6914 72.707-38.172 96.945-53.148 1.9609 4.5352-3.2344 8.293 5.7383 22.676-17.457 7.6992-58.395 28.418-61.18 47.48 18.07-0.42578 20.859-10.301 35.527-20.551 17.41-12.164 96.52-54.613 103.46-64.133-15.66-11.055-51.945 23.812-70.699 31.062 2.9766-14.836 7.1328-9.9453 16.535-18.922-2.4805-8.8359-1.3477-2.293-10.301-12.945 16.465-8.293 64.156-58.277 68.172-68.078-16.891-1.8203-26.434 14.738-49.676 40.277l-24.52 21.59c-15-12.332-15.094-6.2109-25.559-12.898 59.527-37.938 37.109-17.621 57.309-27.875 9.3086-4.6992 3.8984-5.8125 2.1484-14.172 16.203-1.0391 33.566-13.82 37.82-23.906-12.473-8.3164-17.008 3.3555-25.961 9.5664-0.40234-0.66016-0.85156-2.5977-1.0156-2.125-0.56641 1.7227-1.7461-10.512-12.59-16.723-9.1172-5.2422-17.48-3.5898-24.07-7.0391 8.1953-7.3242 17.363-9.543 18.379-22.277-18.496 2.457-13.746 11.715-38.172 23.668l-68.527 36.309zm-85.535-15.707c8.3398-22.605 43.062-51.234 68.363-58.676zm-11.242 30.805c2.7383-13.652 53.293-55.773 64.441-64.086l28.465-20.48c16.844-9.8516 3.1406-6.875 18.922-10.512 10.395-2.4102 1.9141 1.2266 13.395-3.332 3.0703-1.2266 2.9531-10.82 24.023-0.11719l-76.652 48.781c-11.148 4.8672-11.195 0.23438-23.836 9.1641-6 4.2266-8.5977 7.3008-15.707 13.652-11.645 10.441-17.172 19.512-33.047 26.93zm137.88-118.13c14.715-10.652 30.285-11.031 31.891-28.156-17.859 1.3945-31.629 19.773-46.039 27-8.5273 4.3008-23.363 4.8672-31.676 7.8672-9.0469 3.2344-17.34 9.3555-25.605 13.465-44.125 21.992-53.645 39.613-75.875 81.094-10.465 19.488-10.605 30.945-4.3242 56.812 7.4883 30.758-4.6758 11.738 22.746 55.652 5.9297 9.4961 10.086 16.18 16.348 22.891 13.371 14.34 29.316 39.945 69.707 47.883 50.859 9.9922 88.629 9.875 125.05-19.254 33.164-26.48 46.535-59.621 56.34-100.77 10.891-45.852-1.9141-91.699-30.094-116.2-19.984-17.363-52.559-31.254-79.324-38.172-4.7227-1.2266-10.582-2.2188-15.992-3.707-4.9844-1.3945-3.1641-0.49609-7.4414-2.5039-4.8906-2.3164-4.5117-2.7383-5.7148-3.8984z"/>
  <path d="m572.36 861.9 39.309 2.7656c-4.6523 9.8984-8.7891 11.031-16.797 18.52-9.5195-5.293-12.969-13.512-22.512-21.285zm197.79-44.055c-4.4648-3.7578-2.8828-2.5977-8.4102-6.2852l21.613-22.227c-1.8672 8.8359-8.8828 18.52-13.203 28.512zm-250.91-332.69 8.4102-1.0625 2.9766-23.34c45.379-14.953 99.047-4.9844 136.75 6.6133 22.844 7.0156 35.242 14.387 56.859 21.426 23.93 7.7969 37.844 17.41 47.387 34.109 6.3555 11.125-0.94531 3.0469 8.9062 10.914 17.102 13.629 5.6445-1.3008 19.891 39.07 8.9531 25.395 10.418 38.125 12.828 68.363 5.9062 74.387-19.301 122.43-68.715 167.15-24.828 22.465-47.055 32.41-80.812 40.418-24.141 5.7148-15.898-4.2266-27.684-1.3008-6.543 1.6289-3.6133 3.4961-12.992 5.3398-5.6914 1.1328-13.016 0.61328-18.945 0.37891-17.906-0.73047-19.277-2.125-34.984-6.707-50.055-14.621-58.418-22.371-101.74-58.301-28.746-23.836-65.953-50.906-68.906-94.723 6.1406 3.0469 10.133 5.668 18.945 6.3086-2.0078-7.3945-5.9297-15.047-8.3164-23.078l-13.512-2.3633c-0.49609-21.426-2.7656-34.914-1.2539-55.984 1.0391-14.293 6.1406-39.285 16.961-45.473 18.402 9.7812 1.9375 18.805 26.078 26.031-0.37891-21.828-14.457-28.371-19.109-45.449 6.0234-9.9453 1.1328-7.3711 11.363-14.242 3.4727 15.07 9.332 24.637 26.125 29.363-5.4805-20.738-5.0781-5.125-11.434-22.797-5.4336-15.07 2.9297-9.1875-9.5898-20.906l38.527-33.566c12.828-10.086 27.707-20.668 44.363-24.543l1.6289 18.355zm33.332 371.1c0.26172 0.875 0.35547 1.3477 0.49609 2.6445 1.4414 13.891 10.465 13.488 21.449 21.449 9.875 7.1328 12.402 13.133 23.008 21.781l7.6289-11.293c2.7656-4.5117 7.1797-10.844 9.2344-13.395 9-11.148 37.348-20.504 27.402 4.3242-3.1406 7.8906-6.543 2.7148-1.7969 14.293 11.363-4.418 6.0703-5.8359 16.348-12.449 13.254 7.1562 13.156 15.613 28.629 16.133l-20.031-25.324c5.8125-10.867 3.875-5.1719 10.961-13.773 14.859 11.242 7.2031 5.9297 4.2031 22.156 15.852 1.3945 6.6836-0.96875 18.566-8.668 6.8281 9.9922 10.559 17.457 26.387 19.371-3.9688-21.426-30.52-22.652-12.852-42.566 7.2031-8.125 3.2852-5.2695 11.812-6.1406 11.055 16.797-6.707 10.984-3.1641 26.125 0.61328 0.14062 1.6523-0.49609 1.8438 0.070313l6.8047-2.6914c2.2695-1.9375 6.4727-8.9531 8.5273-11.434 0.51953 0.63672 1.2031 0.89844 1.4414 2.0078l14.195 10.441c2.7383-16.961-19.277-31.254 8.457-41.766l-6.3086 23.906c14.953-3.3555 7.8672 0.23438 14.977-12.875 6.4023 3.0938 5.8359 4.582 14.766 3.9453-1.8438-19.488-11.34-4.6289-3.0703-28.914 10.062 3.3086 9.5195 5.5977 13.086 6.4258 15.52 3.6367 6.1406 2.1719 11.621-2.4102l-12.684-16.227c0.70703-4.2031 4.3008-12.094 4.4414-13.676 0.51953-6.4961 0.56641-1.5117-0.92188-6.3555l-3.0938-6.4727c-2.8359-5.8594 10.133-22.652 13.418-28.582 23.293 17.148 3.543 16.723 20.93 22.016 4.2266-27.781-21.566-29.598 14.836-54.758l-1.7969-26.48c-3.6367-1.7734-1.9609-0.28516-6.5664-2.3867-0.58984-0.28516-1.6992-0.85156-2.293-1.1328l-4.4414-2.668c0.66016-0.44922 1.9375-1.5117 2.2695-0.78125 0.28516 0.68359 1.7734-0.58984 2.1953-0.70703 0.37891-0.070313 1.6289-0.42578 2.1016-0.51953 0.44922-0.09375 1.5586-0.30859 2.0078-0.40234 4.3945-0.82812-2.1953 3.5898 6.6602-0.875-8.8125-35.41 2.7891-10.465 6.332-36.402-11.078 2.3867-23.668 18.945-25.039-5.8828-1.1094-20.219 0.44922-11.812 5.1016-16.254 4.0391 14.27-3.8516 6.1641 2.6914 18.402 3.0938-2.3398 13.605-10.773 17.078-15.402-5.8359-10.016 1.3477-0.21094-5.0781-5.6445-27.758-23.41-16.016 5.7383-30.188-38.691-21.828-68.387-17.977-60.992-60.047-96.875-17.316-14.766-19.723-22.109-48.047-30.473-58.18-17.172-72.637-17.48-135.78-14.93-78.758 3.1406-146.48 69.047-176.93 136.91-18.852 42.023-14.293 86.668-7.6055 133.8 8.5273 59.953 117.21 129.83 165.83 150.07z"/>
  <path d="m519.16 279.07c15.285-12.922 77.598-12 102.02-14.504 34.559-3.5664 68.953 5.668 66.992 43.062-39.898 16.133-60.262 11.859-103.23 17.598-33.496 4.4883-70.156 11.504-90.684-13.488 4.1797-13.441 6.2852-17.527 18.781-23.387 3.7305-0.78125-8.4336-6.0469 12.637 10.277l19.086 10.18c-1.3477-5.5977-5.2188-16.891-8.6445-20.527-7.7461-8.2422-0.30859-1.1328-7.7227-4.8672-0.85156-0.40234-3.9688-1.6992-4.6055-2.0078l-4.6289-2.3398zm-38.551 42.332c14.738 10.348 30.945 21.828 57.969 20.668 25.984-1.1094 47.883-4.7969 71.93-5.9062 48.426-2.1953 115.75-0.80469 86.691-55.488-8.0078-15.07-5.8125-11.363-19.156-19.867-11.715-7.4648-15.047-8.3164-31.348-9.1641-19.867-1.0625-132.85 5.0781-142.2 16.086-12.355 14.551-25.109 34.227-23.883 53.668z"/>
  <path d="m962.41 429.31c7.1797-16.418 13.324-10.797 27.211-14.812 3.4492 6.0938 1.1562 4.6289 4.9844 10.203-9 6.332-19.676 7.4883-32.195 4.6055zm8.5977-27.211c4.6523-8.5273 4.582-8.457 11.125-13.844-2.8125 8.3867-3.7578 10.156-11.125 13.844zm19.488-18.117 11.363 6.1641c-3.1406 9.2852 3.7812 1.1562-7.0156 9.0938l-4.3477-15.262zm-29.504-10.746c-11.316 4.582-17.316 5.2695-21.449 19.559-5.8125 19.961 12.211 71.977 57.141 46.891 55.301-30.898 8.4805-84.355-35.691-66.449z"/>
  <path d="m616.42 769.82c10.371-3.0469 37.371-23.387 49.156-30.73 18.828-11.715 42.141-23.574 46.254-35.387-13.418 0.66016-90.309 42.543-95.41 66.117z"/>
  <path d="m571.13 680.12c11.977 2.4102 4.1797 1.4648 6.9688 8.6445-12 3.1406-11.102 4.6523-17.387-4.6055 0.89844-0.63672-3.8984-6.9453 10.418-4.0391zm-21.684-2.1719c1.0156 28.938 23.906 26.008 38.008 12.875-0.30859-12.828-4.4648-14.48-9.2852-22.418-17.293 0.37891-20.031 0.58984-28.723 9.543z"/>
  <path d="m562.23 658.09c18.828-1.3242 23.883-18.496 55.797-31.984 0.94531-0.40234 3.9453-1.1562 4.8438-1.6289 9.9922-5.5039 3.8047 0.75781 8.1484-9.9453-18.141-3.8984-40.18 17.219-55.039 28.488-10.488 7.9375-10.039 2.5508-13.746 15.07z"/>
  <path d="m1011.3 929.39c15.707-5.668 35.598-38.715 35.621-54.309-15.188-0.78125-13.016 8.457-20.504 22.371-6.0469 11.195-12.332 17.504-15.117 31.938z"/>
  <path d="m830.22 802.32c-4.0156-22.488-9.707-34.582-26.031-32.574 0 14.457 0.47266 5.3867 9.4727 18.379 8.8125 12.758 1.8906 10.867 16.559 14.195z"/>
  <path d="m560.64 293.53c4.3008 13.746-0.63672 4.4414 10.062 14.789 8.125-1.1562 6.9453-1.8438 8.2422-2.2422 12.023-3.707 3.1406-0.51953 16.629 0.42578 0.40234-8.0781-1.2031-9.0938-4.3242-14.195l-30.613 1.2266z"/>
  <path d="m638.86 300c8.293 2.7656 23.172 2.0781 35.457 2.9766-3.2852-13.746-1.8906-14.078-16.488-13.746-11.598 0.26172-17.883-2.5742-18.969 10.773z"/>
  <path d="m478.28 532.72c1.3242-6.4727 1.9375-11.41 0.42578-19.203-2.9297-15.355-0.046875-10.348-11.883-14.078-2.7891 4.1562-6.2109 0.14062-1.0391 18.781 5.293 19.062-0.68359 9.7305 12.496 14.504z"/>
  <path d="m411.52 720.09c9.9688 6.4727 35.031-0.99219 39.309-9.8047-7.9141-3.0703-8.9297-1.0391-19.984 0.21094-17.008 1.9375-15.828-2.9297-19.324 9.5898z"/>
  <path d="m418.23 651.8c-1.582-8.8828-3.6367-10.535-7.0391-16.395-8.6445-14.953 3.7578-8.2188-13.938-11.078-4.4414 10.582-5.7656 8.125 3.8984 17.504 5.7383 5.5977 8.7656 7.5117 17.078 9.9688z"/>
  <path d="m776.55 935.43c-6.2852-13.652-17.551-16.961-29.148-9.5195 0.11719 0.09375-4.2539 12.969 29.148 9.5195z"/>
  <path d="m519.23 485.15c-10.324-5.6211-9.5195-10.062-19.914-3.5195 1.8203 16.938 22.723 16.395 19.914 3.5195z"/>
  <path d="m609.92 290.91c-0.070313 0.16406-8.6445-2.3867-1.0859 9.0234 3.0234 4.5352 6.2109 3.875 12.164 4.8672-0.94531-11.93-1.5352-14.859-11.078-13.891z"/>
 </g>
</svg>
