<svg height='100px' width='100px'  fill="#000000" xmlns="http://www.w3.org/2000/svg" data-name="Слой 1" viewBox="0 0 100 100" x="0px" y="0px"><title>map-01</title><g><path d="M88.55316,46.99941c-0.32883.48522-.59694,0.9398-0.92692,1.34385a4.55581,4.55581,0,0,1-.69175.51334c-1.09967.9009-2.27425,1.69447-3.29846,2.708-1.33829,1.32427-2.86018,2.46123-4.27564,3.70987-0.98116.86551-1.90309,1.79784-2.87634,2.67268-0.57893.52036-1.21626,0.97508-1.80939,1.4804q-2.55732,2.17861-5.09984,4.37465c-0.9045.777-1.8274,1.53392-2.70775,2.33744-2.44893,2.23525-4.85489,4.5182-7.32714,6.72707a43.08129,43.08129,0,0,1-4.756,4.09653A28.26759,28.26759,0,0,0,52.028,79.38058a12.035,12.035,0,0,1-1.24838.95269,0.812,0.812,0,0,1-1.26125-.22539,2.38816,2.38816,0,0,0-.57944-0.51453c-1.90432-1.11768-3.827-2.20442-5.7223-3.337-0.67218-.40166-1.28117-0.90831-1.92382-1.3602-2.1202-1.4909-4.30062-2.90353-6.3499-4.48612-2.74711-2.12151-5.65567-4.001-8.54015-5.91452a64.18291,64.18291,0,0,1-6.15566-5.012c-1.85517-1.591-3.74968-3.1384-5.559-4.77979a35.027,35.027,0,0,0-2.84657-2.15254c-0.53253-.393-0.50422-0.44861-0.0466-0.87576,1.18968-1.11043,2.34852-2.254,3.51622-3.3878,0.62649-.60834,1.24076-1.22925,1.86951-1.83524,1.55166-1.49545,3.08931-3.00614,4.66761-4.47305,2.49523-2.31913,4.99529-4.63418,7.53821-6.90058,2.12861-1.89714,4.33308-3.7089,6.48237-5.5832,1.88567-1.6444,3.73477-3.33066,5.61271-4.984,1.20123-1.0576,2.44019-2.07259,3.63359-3.13878,0.64548-.57667,1.2308-1.22071,1.92372-1.915a3.2053,3.2053,0,0,1,1.46293.64105c2.37807,1.51625,4.75863,3.029,7.11708,4.57542,0.89856,0.58915,1.71455,1.30415,2.61277,1.89386,3.25432,2.1365,6.5367,4.23027,9.79045,6.36764q3.17081,2.08291,6.28811,4.24685c0.88513,0.61107,1.70891,1.31024,2.575,1.94987,0.91227,0.6738,1.84269,1.323,2.76343,1.98537,0.98958,0.71193,1.99811,1.39966,2.96044,2.14684a32.737,32.737,0,0,0,4.21538,2.7338c0.37547,0.20854.70377,0.50053,1.07142,0.72527A4.4508,4.4508,0,0,0,88.55316,46.99941ZM55.91887,27.35761a0.70964,0.70964,0,0,0,.83964-0.72293l-0.90477.25941c0.03432,0.208.05645,0.34218,0.07848,0.47636l-0.643-.13912a1.041,1.041,0,0,0,.72091.58573ZM65.5,38.0114a2.05568,2.05568,0,0,0-1.25164.48747,0.91173,0.91173,0,0,0,1.42342-.37863c0.30506,0.03439.6886,0.24309,0.72224-.32523,0.67412,0.37246,1.12613-.10229,1.74141-0.44121a1.34142,1.34142,0,0,0-.55674-0.31042,1.71751,1.71751,0,0,0-1.23129.6851A0.8,0.8,0,0,0,65.5,38.0114Zm-7.63271-9.05785a1.794,1.794,0,0,0,1.31709-.5101c-0.62869-.79605-1.36979-0.91-1.80458-0.17719,0.16906,0.23744.33443,0.46971,0.49892,0.70112l-0.91549-.51518C57.21022,28.73577,57.33914,29.27841,57.86731,28.95355ZM70.78163,39.43044a2.15686,2.15686,0,0,0-1.63281.52644c0.65418,0.68785.88412,0.696,2.00048,0.10142q-0.18934-.3207-0.37719-0.63937l0.90363,0.4812C71.45923,39.555,71.29766,39.07586,70.78163,39.43044Zm-9.62309-8.73182,0.69586-.64469c-0.60418-.36245-1.13092-0.70614-1.6844-0.99927a0.93669,0.93669,0,0,0-1.02863.42545c-0.16313.35189,0.10152,0.50159,0.32118,0.70539a1.65681,1.65681,0,0,0,1.713.49782l-0.42159.40193a1.15291,1.15291,0,0,0,1.73832.36374,0.867,0.867,0,0,1,1.11913.044l-1.66764.54908c0.36058,0.29608.59259,0.49576,0.83448,0.68268,0.24932,0.19266.50824,0.37292,0.80873,0.592l1.762-1.07617a0.90213,0.90213,0,0,0-.1463-0.23087c-0.5507-.31989-1.12152-0.60828-1.65434-0.95517a1.92938,1.92938,0,0,0-2.2179-.35456A0.37423,0.37423,0,0,1,61.15854,30.69862ZM76.22116,46.43217l0.01139,0.01339a16.91216,16.91216,0,0,0,3.64518-3.42483,2.815,2.815,0,0,0-.93782.23522c-1.59414.69394-3.18234,1.4015-4.77754,2.09295a5.43155,5.43155,0,0,1-.73519.20593,2.55545,2.55545,0,0,1,.45883-0.36762c1.61958-.77661,3.23387-1.56639,4.8766-2.29134a9.1039,9.1039,0,0,1,1.66659-.3961c-0.798-.945-1.013-1.01221-2.136-0.6362-0.27434.09185-.54339,0.20091-0.81079,0.31182-1.51337.62776-3.02549,1.2585-4.60167,1.91472-0.05542-.22-0.10907-0.433-0.163-0.64578a0.74524,0.74524,0,0,0,.79631.07265c1.40575-.64946,2.8351-1.24814,4.25962-1.85652,0.31038-.13255.63626-0.22877,1.03468-0.37a1.01152,1.01152,0,0,0-1.18457-.45219c-1.18172.469-2.37512,0.90863-3.55568,1.38042-0.5634.22515-1.10831,0.49653-1.70911,0.76844l0.37606,0.47147-1.1069-.42826V42.56692a1.03881,1.03881,0,0,0,1.14427-.28081L72.0717,41.5309l0.121-.14317c0.20306,0.17429.40266,0.35282,0.61014,0.52171a0.66794,0.66794,0,0,0,.77683.17357c1.27259-.5421,2.56414-1.0396,4.01926-1.62223-0.26208-.19849-0.48785-0.37209-0.71633-0.54208-1.18564-.88222-0.99828-0.75835-2.06654-0.22769a3.67856,3.67856,0,0,1-.53348.29086,0.84283,0.84283,0,0,0-.72863.91231,1.872,1.872,0,0,0-.79431-0.17551,18.59368,18.59368,0,0,0-1.70088.77554l0.4615,0.975-1.11851-.74368A8.7538,8.7538,0,0,1,67.189,42.768l2.8831-1.2592a0.51288,0.51288,0,0,0-.78195-0.27525c-0.50175.14486-.98616,0.3623-1.4947,0.469a28.64269,28.64269,0,0,0-6.74525,2.56458,36.094,36.094,0,0,1-3.68491,1.57717c-1.584.57224-3.20628,1.03847-4.81322,1.54679-0.74758.23649-1.51026,0.4312-2.2435,0.70531a4.88243,4.88243,0,0,0-2.06015,1.272,1.569,1.569,0,0,0,.07913,2.26492c1.16167,1.178,2.28357,2.396,3.46443,3.55414,1.61651,1.5854,3.23037,3.18395,5.47671,3.89816a5.30912,5.30912,0,0,0,3.995-.11867,8.03653,8.03653,0,0,0,1.3781-.90026c1.92873-1.45168,3.90728-2.84566,5.75215-4.398,2.05764-1.73138,3.99018-3.61141,5.99883-5.44651-0.4473-.42754-0.90457-0.8256-1.31582-1.26655-0.66815-.7164-0.655-0.72714-1.583-0.38148a0.22432,0.22432,0,0,1-.1214-0.04832l0.80715-.81019c0.38575-.05338.8253-0.1142,1.26432-0.17466l-0.7095.6,1.89882,1.85074c0.50739-.37557.93949-0.6618,1.32662-0.99957A1.59142,1.59142,0,0,0,76.22116,46.43217Zm4.17137-1.77826L80.44615,44.719a4.36136,4.36136,0,0,1-.81783.45616,7.61215,7.61215,0,0,0-3.18413,2.01116,11.8928,11.8928,0,0,1-2.34721,1.9689,5.01626,5.01626,0,0,0-1.0255,1.137c-0.58852.53389-1.1652,1.08159-1.768,1.59877a42.66446,42.66446,0,0,1-3.77413,3.05153c-1.583,1.07356-2.98435,2.41252-4.55,3.5149a6.60167,6.60167,0,0,1-2.512,1.43412,7.05231,7.05231,0,0,1-3.50279-.29525A10.36411,10.36411,0,0,1,52.736,56.90323c-1.67118-1.61346-3.285-3.28678-4.90924-4.94826a2.06167,2.06167,0,0,1,.08228-3.08215,7.93617,7.93617,0,0,1,1.60113-1.02722c2.21239-.80074,4.4596-1.50466,6.68409-2.27295a39.31368,39.31368,0,0,0,4.07486-1.52142,31.54819,31.54819,0,0,1,6.51983-2.66171,0.48592,0.48592,0,0,0,.50478-0.38967,2.383,2.383,0,0,0,1.88235-.34189,1.26144,1.26144,0,0,0-1.89975.11,0.48032,0.48032,0,0,0,.034.24871,1.09186,1.09186,0,0,1-.87473-0.61018,1.87412,1.87412,0,0,0,1.86983-.71852c-0.2407-.28-0.45957-0.53452-0.678-0.78885a1.80971,1.80971,0,0,1,.36809.1856c0.84121,0.698,1.20943.6812,1.99783-.108-0.97374-.997-1.68019-1.01575-2.35269-0.06242a2.37873,2.37873,0,0,0-1.86569.46437,1.24313,1.24313,0,0,1-1.11185.13388,1.23768,1.23768,0,0,1-.29361.41744,5.93009,5.93009,0,0,1-1.059.39574c-0.54242.14228-1.10511,0.2101-1.64339,0.36461a15.5461,15.5461,0,0,1-1.71411.58023,3.88462,3.88462,0,0,1-3.52835-.76561c-0.71081-.67715-1.34262-1.43655-2.02432-2.1452a1.67548,1.67548,0,0,1-.47147-1.18457,3.44722,3.44722,0,0,1,.929-2.80367,0.88962,0.88962,0,0,0,.41862-0.97467,13.60846,13.60846,0,0,0,2.76608-3.6055,1.19482,1.19482,0,0,0-1.296.30185,0.72715,0.72715,0,0,1-.9397.09223l1.57814-.78272c-0.468-.30522-0.82006-0.5348-1.17336-0.76524a2.39892,2.39892,0,0,0-.46633.33384c-1.06411,1.29826-2.09821,2.62162-3.18235,3.90269a15.10255,15.10255,0,0,1-1.55472,1.52128,1.965,1.965,0,0,1-2.36151.251,22.88092,22.88092,0,0,1-2.72551-1.70037c-0.93571-.68595-1.77005-1.50854-2.68906-2.21921-1.28388-.9928-2.60526-1.93709-3.99707-2.96607-0.56988.48423-1.18052,1.00311-1.87734,1.59521,0.7939,0.55509,1.474,1.04144,2.16573,1.51072,0.505,0.34262,1.05224.62786,1.53354,0.99967,1.31064,1.01248,2.617,2.0326,3.88717,3.09495,2.09581,1.7529,4.16678,3.5357,6.23659,5.3194a12.40369,12.40369,0,0,1,1.2375,1.23129,1.41461,1.41461,0,0,1-.34968,2.28238c-0.22349.13592-.46026,0.25-0.69116,0.374a0.53013,0.53013,0,0,1,.25274-0.66474c0.7975-.758.8275-1.05738,0.04033-1.85871C50.794,40.75255,49.89786,39.87312,48.948,39.061c-1.5677-1.34027-3.18258-2.62549-4.78432-3.92565-0.36126-.29325-0.79223-0.51006-1.11925-0.8345-1.706-1.69264-3.84-2.80274-5.72467-4.25031a0.74139,0.74139,0,0,0-1.08663.07344c-0.46742.43745-.965,0.8434-1.45765,1.25313-1.5211,1.26493-3.07382,2.49349-4.56247,3.79541-1.81718,1.58927-3.58471,3.23543-5.368,4.86323-0.98847.90228-1.99061,1.79172-2.94222,2.73186-2.07129,2.04633-4.10413,4.13158-6.17312,6.18026-0.94761.9383-1.94657,1.82463-2.91346,2.74375a2.29691,2.29691,0,0,0-.28479.46071l0.738,0.46831c0.29288-.29111.55472-0.55559,0.82113-0.81534,0.6041-.589,1.18254-1.20815,1.82145-1.75678,1.52233-1.30714,3.06827-2.587,4.61466-3.86582,1.72685-1.428,3.45566-2.854,5.201-4.25935,1.15562-.9305,2.32154-1.851,3.52318-2.72023A10.702,10.702,0,0,1,31.083,38.20261a1.58718,1.58718,0,0,1,1.71758.26971c0.57572,0.44341,1.17745.853,1.76714,1.27832a16.36881,16.36881,0,0,1,1.68643,1.23716c1.27215,1.19452,2.4925,2.44413,3.73695,3.66826a9.8142,9.8142,0,0,0,.897.83189,2.86384,2.86384,0,0,0,2.2896.88493,31.61872,31.61872,0,0,0,5.37553-1.473,6.71755,6.71755,0,0,1,2.83989-.74657,0.64456,0.64456,0,0,1-.64077.48907c-0.62546.2357-1.28651,0.38482-1.89613,0.65308a30.10819,30.10819,0,0,1-5.26513,1.528,2.88136,2.88136,0,0,1-2.75069-.69127c-1.18271-1.0736-2.37172-2.15212-3.44482-3.33159a20.12406,20.12406,0,0,0-4.5919-3.57807,2.37871,2.37871,0,0,0-1.473-.35868,3.90888,3.90888,0,0,0-1.641.76488c-1.83225,1.3818-3.62864,2.81162-5.42393,4.24176-0.68051.5421-1.30989,1.14794-1.98333,1.69942-1.44013,1.17929-2.92256,2.30859-4.3333,3.52162-1.25471,1.07886-2.43952,2.23932-3.64569,3.37388a3.571,3.571,0,0,0-.39871.55393,13.251,13.251,0,0,0,2.74313,2.27756c1.4921-1.32713,2.88916-2.59948,4.32155-3.83073,0.6831-.58717,1.44911-1.07678,2.15034-1.64424a62.76316,62.76316,0,0,1,6.84918-4.6597,3.25072,3.25072,0,0,1,3.09845-.12905c0.72022,0.313,1.43542.64036,2.13654,0.99371a15.94649,15.94649,0,0,1,1.41758.82734c0.391,0.25059.7637,0.53134,1.13341,0.81326,0.64582,0.49246,1.3071.96852,1.91844,1.50132,0.96367,0.83988,1.87592,1.7387,2.83882,2.57951,0.89649,0.7828,1.80767,1.55267,2.75447,2.27291,1.04063,0.79162,2.13565,1.51137,3.19307,2.28155a4.96218,4.96218,0,0,1,.82918.76854,1.83077,1.83077,0,0,1,.1172,2.39628,18.33745,18.33745,0,0,1-1.87887,2.05794c-1.10275,1.032-2.26157,2.00432-3.40157,2.99627-0.81166.70628-1.62438,1.41157-2.44889,2.1027-1.132.94882-2.27556,1.88383-3.49468,2.89131l1.63277,1.556c-0.66583-.36965-1.33164-0.73933-2.04485-1.13529l-0.88946.82214a26.48427,26.48427,0,0,0,3.48377,2.26765,0.95283,0.95283,0,0,0,.50608-1.0593,2.87049,2.87049,0,0,0,.66182-0.32486c0.37327-.32082.67153-0.73357,1.05967-1.03163a48.19709,48.19709,0,0,0,4.64279-4.608c1.32959-1.34191,2.61228-2.73016,3.92209-4.09179a2.06211,2.06211,0,0,1,3.11435-.14565,32.97474,32.97474,0,0,1,2.77282,2.51839c1.01185,1.0043,1.97825,2.0559,2.93405,3.11433a0.82091,0.82091,0,0,0,.99662.24145c0.55763-.17033,1.14611-0.23969,1.916-0.39056-0.72869.7329-1.61692,0.4083-2.30487,0.92295l1.187,1.28944a7.72647,7.72647,0,0,1,2.279-1.91775,5.04121,5.04121,0,0,0,.55442-0.474c-0.81087-.49932-1.21493-1.30119-2.15946-1.49574a0.73671,0.73671,0,0,0,.39291-0.96068,3.25946,3.25946,0,0,1,1.05455-3.45507c0.29529-.27676.61386-0.52849,0.91727-0.79676a16.06266,16.06266,0,0,0,1.8013-1.635,9.07518,9.07518,0,0,1,2.21595-1.90058,7.77213,7.77213,0,0,0,2.12588-1.982c-0.308.15067-.57641,0.30419-0.86139,0.41489a8.36436,8.36436,0,0,1-.834.2423,0.8293,0.8293,0,0,1-.92528.12334c0.65744-.27854,1.20805-0.51271,1.7594-0.745A4.1158,4.1158,0,0,1,71.13,54.46484a3.64513,3.64513,0,0,0,1.99872-1.25136,1.53717,1.53717,0,0,1-.6274-0.78761,0.67337,0.67337,0,0,1,.25536.037c0.87805,0.56409.87,0.55887,1.617-.15237a5.78277,5.78277,0,0,1,.68607-0.49384l-0.42533-.66848a1.013,1.013,0,0,0,1.36914-.31356,2.24281,2.24281,0,0,1,.474-0.36965c0.9591-.69042,1.92186-1.37577,2.877-2.0716a2.77315,2.77315,0,0,0,.35166-0.36774l-1.22071.16594c0.64961-.3071,1.28793-0.64154,1.95125-0.91545a8.93275,8.93275,0,0,0,3.09113-2.50995l-2.48054-1.928-2.14658,2.21836ZM46.8162,21.60746a1.36114,1.36114,0,0,1,1.44869.32737l0.86982-.4581-1.96591-1.11264-7.47212,6.93164c0.40967,0.35193.7239,0.654,1.07008,0.9134,1.161,0.87,2.36994,1.68012,3.49237,2.59664a34.228,34.228,0,0,0,4.42519,3.22384,1.42252,1.42252,0,0,0,1.7777.01108,8.93571,8.93571,0,0,0,1.12221-.95283c0.66981-.76512,1.23886-1.62145,1.93452-2.36009A12.423,12.423,0,0,1,55.45349,28.463a0.51894,0.51894,0,0,0,.07516-0.20124c-0.29782-.2375-0.60644-0.48364-0.94233-0.75153a7.08829,7.08829,0,0,0-.67918.45622c-1.17263,1.00432-2.34713,2.00691-3.49806,3.03575a10.99121,10.99121,0,0,0-1.25623,1.322c-0.42248.52837-.45336,0.54926-1.00111,0.12251-1.30839-1.01941-2.61709-2.03887-3.943-3.03514-0.83763-.62934-1.71172-1.20989-2.55949-1.826a0.719,0.719,0,0,1-.09567-1.22332q2.12788-1.943,4.25945-3.88194c0.1698-.1553.315-0.33744,0.47167-0.50713ZM59.43893,32.45069c-0.568-.32946-1.136-0.65891-1.75727-1.01927l-0.49856.63023,0.34819,0.274a7.49741,7.49741,0,0,0-1.32935.96239A21.97345,21.97345,0,0,0,54.829,35.20656a2.49079,2.49079,0,0,0,.12106,3.04441c0.45347,0.52578.98954,0.9807,1.4386,1.50981a3.07486,3.07486,0,0,0,3.34107.95309c1.54483-.4247,3.0186-1.10793,4.60151-1.70957-0.58-.46884-1.03748-0.84409-1.50154-1.211-0.18188-.14381-0.38508-0.26062-0.56708-0.40431a0.87428,0.87428,0,0,0-1.04692-.06153c-0.4935.24883-1.02937,0.41362-1.547,0.61465l-0.06171-.1565c0.49877-.22747,1.01-0.43223,1.48955-0.69471a1.88025,1.88025,0,0,0,.41578-0.53545,7.44964,7.44964,0,0,0,3.78516-1.47885c-0.37848-.28882-0.73717-0.57683-1.11054-0.84441a1.0258,1.0258,0,0,0-1.6138-.01994,1.60452,1.60452,0,0,1-1.03369.34649l-0.051-.064c0.51261-.339,1.02522-0.678,1.612-1.06608-0.40571-.30628-0.76233-0.5848-1.1287-0.84979a1.18162,1.18162,0,0,0-1.57068.254,1.2897,1.2897,0,0,0,.09155.52313,1.175,1.175,0,0,0-1.37879-.17581q-0.03777-.042-0.075-0.08453c0.17761-.19122.61095-0.23421,0.38255-0.66073a1.72953,1.72953,0,0,0,1.67509-.47189l-0.96636-.6987-1.16224.52355ZM47.01028,71.08829a23.08107,23.08107,0,0,0-2.25612,1.94154l0.83037,0.7628-0.05392.2122c-0.89561-.32316-0.77424.45561-1.01693,0.92234-0.42889-.57912.06926-0.91872,0.187-1.30981a1.02134,1.02134,0,0,0-.23174-0.15815c-0.49964.40632-.98964,0.82445-1.58091,1.325l4.37831,2.78892a11.92924,11.92924,0,0,1,1.38329-1.32267,28.55206,28.55206,0,0,0,3.71519-3.2809,0.80648,0.80648,0,0,1,1.1001-.15387c0.34228,0.21531.702,0.4028,1.05234,0.60533,0.59246,0.34246,1.18365.68707,1.704,0.98936L60.37094,70.805a1.56083,1.56083,0,0,0-1.95775-.65754c-0.40308.18455-.83818,0.29918-1.3584,0.48012,0.39337-.82352,1.36208-0.47679,1.78522-1.10329-1.65282-1.805-4.03014-2.56108-5.81518-4.25395a9.91837,9.91837,0,0,0-1.02239.75549q-2.16882,2.08893-4.30363,4.21307a10.133,10.133,0,0,0-.70505.86526Zm-10.60751-.74916,0.94324-.97228a2.53022,2.53022,0,0,1,.231-0.23548c1.52668-1.20623,3.07115-2.39055,4.5788-3.62006,1.26177-1.029,2.50809-2.08039,3.71068-3.17732,1.00821-.91967,1.96112-1.90244,2.90452-2.88977a1.2878,1.2878,0,0,0,.04057-1.94849,4.90523,4.90523,0,0,0-1.01347-.957,62.04421,62.04421,0,0,1-5.4333-4.22689c-0.84732-.70519-1.63357-1.48334-2.45564-2.21937-0.518-.46374-1.02818-0.941-1.583-1.35751a26.60227,26.60227,0,0,0-2.21484-1.51089,12.85,12.85,0,0,0-1.49642-.657,1.52809,1.52809,0,0,1-.40533-0.22757c-0.908-.80725-2.86793-1.31638-3.983-0.61031-0.639.40462-1.28267,0.80191-1.92317,1.20419a73.86361,73.86361,0,0,0-9.72246,7.38533,18.78841,18.78841,0,0,0-1.4226,1.58164c1.30884,1.12542,2.51179,2.17336,3.73,3.20329,1.11082,0.93913,2.21389,1.8901,3.364,2.77949,1.70248,1.31661,3.40416,2.641,5.17976,3.85433,1.607,1.09812,3.32487,2.03264,4.96859,3.079C35.05836,69.23515,35.64842,69.76008,36.40278,70.33913ZM74.5062,53.6333c0.22768,0.692,1.07051.77782,1.14747,1.48793a2.53095,2.53095,0,0,1-.76543-0.52386c-0.72663-.73535-0.7967-1.10657-2.14815-0.29066-0.14766.08916-.27126,0.21756-0.41686,0.31083-1.58911,1.018-2.69786,2.62986-4.37576,3.53972a1.84634,1.84634,0,0,0-.30773.30745c-0.27678.25747-.55693,0.51134-0.837,0.76524-0.94437.856-1.9258,1.67511-2.82331,2.57767a2.64694,2.64694,0,0,0-.34661,3.18286c0.34117-.11529.69046-0.24845,1.04866-0.35013a9.49324,9.49324,0,0,1,1.091-.25168,0.813,0.813,0,0,1,.98307.26117c-0.9523.29046-2.09107,0.0358-2.82929,1.08169l1.13155,0.875c0.43085-.30909.8237-0.55359,1.17388-0.84872,1.39875-1.17886,2.80227-2.35317,4.16944-3.56808,1.30528-1.15989,2.56461-2.37132,3.84962-3.55418,1.092-1.00521,2.17927-2.01617,3.29152-2.99869,1.28309-1.13343,2.7265-2.06181,3.97395-3.25568,1.70037-1.62739,3.53665-3.11273,5.31253-4.66138a4.05757,4.05757,0,0,0,.30385-0.354l-2.88368-2.16974a2.23548,2.23548,0,0,0-1.103.86917l1.09237-.2279,0.05358,0.19013c-0.19733.09751-.39517,0.194-0.59186,0.2927a17.69924,17.69924,0,0,0-2.46727,1.26772c-1.55312,1.11919-2.98957,2.398-4.62956,3.40366a7.77462,7.77462,0,0,0-.8383.70341,5.63361,5.63361,0,0,0,.95732.505,1.64672,1.64672,0,0,0,.82.00542c0.58806-.14669,1.15791-0.36516,1.74317-0.52515a1.69081,1.69081,0,0,1,.52636.02729l0.01721,0.13886c-0.68715.22943-1.37432,0.45885-2.17771,0.7271L78.62575,53.168c-0.74548.15759-1.3265-.52262-2.07291-0.23263C75.88483,53.19492,75.19588,53.40053,74.5062,53.6333ZM48.54509,31.93287c1.86783-1.68114,3.69336-3.32426,5.52493-4.97277a0.83573,0.83573,0,0,0-1.25287-.26643c-0.28593.17045-.59552,0.3012-0.89446,0.4498l-0.0734-.13785,1.2234-.829a3.15789,3.15789,0,0,0-.74127-0.502,0.94836,0.94836,0,0,1-.5993-0.44236,1.01446,1.01446,0,0,0-1.33037-.50529,0.29543,0.29543,0,0,1-.13744-0.06675l0.22891-.40618-1.0218-.719-1.18936.61421-0.05267-.101,0.913-.77457-1.11169-.76949-0.94419.3904L47.639,22.1698a1.043,1.043,0,0,0-.472-0.01737,46.84818,46.84818,0,0,0-5.30682,4.8518ZM60.50746,69.04574c-0.5543-.69558-1.01407-1.37988-1.5795-1.96142-1.52-1.56331-3.06209-3.10691-4.64027-4.61126-1.10131-1.04979-2.0224-.99874-3.12671.05344-0.12587.12-.236,0.25627-0.35549,0.38306-0.31936.33888-.63743,0.679-0.96033,1.01446-0.86709.90094-1.73885,1.79738-2.60439,2.69982-1.28734,1.34225-2.56756,2.69135-3.85738,4.03121-0.74941.77847-1.51645,1.54-2.26272,2.32144a1.64181,1.64181,0,0,0-.21254.45664c0.36123,0.23067.67879,0.43474,0.99763,0.63678a0.6102,0.6102,0,0,0,.99207-0.24652l-0.3623-.548c0.3802,0.04.61257,0.4246,1.01828,0.15789a0.74056,0.74056,0,0,0,.29424-0.81539,2.432,2.432,0,0,0,.73315-0.25484c0.81715-.70072,1.63467-1.40512,2.40145-2.15966,1.61633-1.5905,3.19847-3.21567,4.8-4.82125a1.3458,1.3458,0,0,1,2.11561-.18077c1.16577,0.8149,2.359,1.59042,3.53019,2.39771A7.06749,7.06749,0,0,1,59.013,68.8118,1.00442,1.00442,0,0,0,60.50746,69.04574ZM47.87762,78.00256c0.60753,0.38734,1.18.72709,1.72519,1.106A1.40575,1.40575,0,0,0,51.5241,78.838c0.76921-.66055,1.58658-1.26493,2.35748-1.9236a7.6895,7.6895,0,0,0,1.9166-1.82784c-0.63045-.90125-1.66218-1.09666-2.46438-1.63789a0.74592,0.74592,0,0,0-.60713.17512c-0.49026.39509-.94168,0.8381-1.41248,1.25767-0.52881.47127-1.065,0.93432-1.59111,1.40854a0.488,0.488,0,0,0-.18516.28722,0.64366,0.64366,0,0,1-.66039.6438A1.36318,1.36318,0,0,0,47.87762,78.00256ZM67.34986,36.6787a8.67947,8.67947,0,0,1-.99283-0.75655A1.02992,1.02992,0,0,0,64.94,35.79788a17.00476,17.00476,0,0,1-1.775.73628c-0.28118.12694-.57,0.23712-0.87234,0.36192a4.35075,4.35075,0,0,0,1.55219,1.273,9.56533,9.56533,0,0,0,1.191-.46093c0.08008-.03172.17134-0.037,0.24909-0.07268C65.93044,37.33935,66.57406,37.03894,67.34986,36.6787Zm1.09151-2.53556c-0.78751.41475-1.44262,0.75976-2.222,1.17025,0.46259,0.341.85649,0.61581,1.23245,0.91332a0.725,0.725,0,0,0,.87973.02257c0.46034-.23783.9343-0.45264,1.41568-0.644a1.5828,1.5828,0,0,1,.58229.11914c-0.77942.36758-1.38777,0.65448-2.15537,1.01646a1.52946,1.52946,0,0,0,.5994.22193c0.7133-.317,1.40981-0.67188,2.22841-1.07176ZM68.145,33.953c-0.68005-.48366-1.234-0.89053-1.80414-1.2734a0.64321,0.64321,0,0,0-.4724-0.12251,5.12231,5.12231,0,0,0-1.93951,1.0435l1.90276,1.44Zm5.52112,3.82591c-0.48894-.32674-0.88768-0.60223-1.29758-0.86a0.43059,0.43059,0,0,0-.32614-0.06311,10.77837,10.77837,0,0,0-2.24427.99017c0.379,0.28564.66522,0.52533,0.977,0.725a0.6555,0.6555,0,0,0,.47839.11554C72.03123,38.4176,72.796,38.11126,73.66615,37.77894ZM71.37228,39.0077L72.322,39.586c0.74133-.41457,1.68271-0.36965,2.30916-1.04045a0.65276,0.65276,0,0,0-.812-0.41036C73.06511,38.40368,72.31125,38.67286,71.37228,39.0077ZM51.11307,22.653l-1.08647.52066c1.37205,1.01235,1.13177,1.09425,2.33552.36847ZM58.48688,30.134l-0.52847.94565,0.71528,0.56767,1.21339-.65116Zm15.489,23.12734,0.10467,0.191c0.78148-.28372,1.563-0.56744,2.50251-0.90851l-1.06632-.58444ZM50.65918,22.433c-1.15069-.89769-1.26679-0.9073-1.98278-0.22l1.03477,0.75839Zm1.03017,1.91949c0.79621,0.75972.79621,0.75972,1.78587,0.072C52.6954,23.81089,52.6954,23.81089,51.68934,24.35247Zm4.32056,1.99779c-0.341-.75175-0.56376-0.82659-1.23568-0.41518C55.33808,26.73058,55.33808,26.73058,56.00991,26.35027ZM71.79065,36.536a2.97238,2.97238,0,0,0-2.36678.94779C70.18395,37.17939,70.944,36.875,71.79065,36.536ZM61.33,70.084c-0.40529-.62671-0.40529-0.62671-1.09674-0.358C60.72344,70.231,60.72344,70.231,61.33,70.084ZM71.89207,40.76474c-0.48559-.26774-0.71322-0.21277-1.48522.313C71.00233,41.38518,71.34971,40.80275,71.89207,40.76474ZM54.86493,25.2398c-0.45-.12464-0.66316-0.69317-1.16242-0.224C54.023,25.2991,54.22269,25.84555,54.86493,25.2398Zm2.086,2.67442,0.8864-.4508C57.167,27.04691,57.03821,27.4403,56.95091,27.91423ZM53.8866,25.75237c-0.2599-.338-0.38-0.7042-0.949-0.52907A1.04438,1.04438,0,0,0,53.8866,25.75237Zm19.00409,14.1353,0.12557,0.1962,1.08519-.48073a2.91761,2.91761,0,0,0-.987.184A2.03363,2.03363,0,0,0,72.89069,39.88767Z"></path><path d="M46.28464,21.97318l-0.32072-.112a3.041,3.041,0,0,1,1.181-.83147l-0.32875.57772Z"></path><path d="M74.82691,49.75014a6.44029,6.44029,0,0,0-.63646.41862,3.81021,3.81021,0,0,0-.41661.473,2.882,2.882,0,0,1-.48747-0.12971,0.88691,0.88691,0,0,1-.22608-0.2368Q73.9436,50.01268,74.82691,49.75014Z"></path><path d="M73.75763,50.62482c0.32626,0.1316.8599-.08062,0.89231,0.53818A0.78376,0.78376,0,0,1,73.75763,50.62482Z"></path><path d="M55.50962,30.74792l-0.62825.40262c0.05332-.46635.05332-0.46635,0.5296-0.5562Z"></path><path d="M40.88726,71.98276a1.17873,1.17873,0,0,1-.90155-0.71251A1.16065,1.16065,0,0,1,40.88726,71.98276Z"></path><path d="M39.17746,60.03728c-0.654-.74544.4314-0.9132,0.46663-1.52262l-1.19181.28692c0.14986,0.43324.72283,0.7989,0.10263,1.11946Q35.49457,57.548,32.52511,55.2454a0.64649,0.64649,0,0,0-.21809.04958c-1.14685.97845-2.32182,1.92717-3.42222,2.95559a6.3634,6.3634,0,0,0-1.5637,1.96828c-0.23087.50816-.49105,0.54408-0.9791,0.17842-0.97487-.73037-1.92359-1.49557-2.88627-2.24231a5.93,5.93,0,0,0-.77335-0.55377,1.18091,1.18091,0,0,1-.703-1.23368c0.54281-.52153.98984-0.96484,1.45192-1.39185,0.72655-.67141,1.47747-1.317,2.19263-2.00011,1.34543-1.28519,2.67636-2.58566,4.00573-3.88754a4.49066,4.49066,0,0,1,1.842-1.31456c0.60213,0.44412,1.23805.94567,1.90768,1.39723,0.57695,0.38906,1.211.69368,1.78676,1.08426,1.12983,0.76642,2.24271,1.5584,3.35163,2.355,1.41416,1.01595,2.81867,2.04534,4.2246,3.07268a0.50442,0.50442,0,0,1,.06574.87459c-0.54544.60025-1.09893,1.19577-1.68455,1.75618C40.5215,58.88955,39.877,59.42124,39.17746,60.03728Zm-15.841-4.07163c2.05855-.49906,3.99608-0.98416,5.94184-1.43366,0.906-.20929,1.83026-0.33838,2.742-0.52452a12.56241,12.56241,0,0,1,2.20667-.47064c1.07607-.0178,1.96118-0.592,3.14223-0.7011-0.571-.50555-0.98837-0.90171-1.43795-1.25712a0.871,0.871,0,0,0-.54756-0.14248,5.46969,5.46969,0,0,0-1.10981.1586c-0.72643.19454-1.43485,0.45733-2.16274,0.64536-2.18976.5657-4.37339,1.14015-6.50348,1.918A4.96767,4.96767,0,0,0,23.33645,55.96564Zm3.408,3.91072A17.05459,17.05459,0,0,1,28.01561,58.403c0.85378-.78608,1.75862-1.51675,2.64292-2.26966a4.56243,4.56243,0,0,0,1.31464-1.55763,53.84463,53.84463,0,0,0-9.20725,2.24441,9.20059,9.20059,0,0,1,.85341.66945,1.1764,1.1764,0,0,0,1.27085.32266c0.72487-.214,1.45785-0.40128,2.17922-0.62612a1.52287,1.52287,0,0,1,1.3249.08493c-1.14255.467-2.35861,0.69845-3.63732,1.19231C25.5168,59.00357,26.127,59.4374,26.74449,59.87636Zm7.98974-9.08609a2.00763,2.00763,0,0,0-2.046-.70248c-0.46813.1478-.95315,0.24321-1.41877,0.39778-0.99019.32867-1.98535,0.64863-2.95466,1.0323a5.11224,5.11224,0,0,0-2.08709,1.82463C28.96174,52.25886,31.94549,52.06027,34.73423,50.79027Zm6.85039,5.173,0.07373-.1797c-0.21859-.18063-0.44285-0.3549-0.65466-0.54317a1.72423,1.72423,0,0,0-1.76884-.35984,15.70682,15.70682,0,0,1-2.13936.3303,9.27921,9.27921,0,0,0-2.79086.59364,2.65983,2.65983,0,0,0,3.20818.88046,15.2754,15.2754,0,0,1,2.36-.587A15.50915,15.50915,0,0,1,41.58462,55.96329Zm-8.87128-1.5046a1.43815,1.43815,0,0,0,1.865.68972A20.67786,20.67786,0,0,1,37.4,54.67357q1.00005-.15658,2.0006-0.30994a3.3053,3.3053,0,0,0-1.1095-.9393,1.4002,1.4002,0,0,0-.90275-0.11806,25.95767,25.95767,0,0,1-3.706.86729A6.3396,6.3396,0,0,0,32.71334,54.45868Zm9.34,1.95533a14.82919,14.82919,0,0,0-5.59649,1.13123,2.56163,2.56163,0,0,1,.54362.34812,1.27862,1.27862,0,0,0,1.68528.405,2.22212,2.22212,0,0,1,.75927-0.16991A3.72194,3.72194,0,0,0,42.05336,56.414Zm-12.90555-6.0323,0.1305,0.18864,3.24313-1.07494c-0.26738-.18384-0.4276-0.30379-0.5971-0.40881a1.13651,1.13651,0,0,0-1.56574.07557C29.929,49.539,29.5495,49.973,29.14781,50.38171Z"></path><path d="M64.97551,44.69351c1.14707,0.69649,2.21749,1.33783,3.27768,1.99568a4.07682,4.07682,0,0,1,.83149.63156,0.759,0.759,0,0,1-.0539,1.32235c-0.69214.62335-1.40488,1.22455-2.12249,1.81868-1.68077,1.39153-3.37331,2.76888-5.05283,4.1619-0.41556.34467-.79971,0.72718-1.13889,1.03788-1.4001-.87323-2.68121-1.67173-3.96161-2.47136a2.81077,2.81077,0,0,1-.504-0.336,0.43233,0.43233,0,0,1-.0408-0.686c0.16566-.163.31609-0.34426,0.49574-0.48971,2.30267-1.86425,4.64366-3.68224,6.798-5.72351C63.9648,45.51814,64.46824,45.12612,64.97551,44.69351Zm-6.64831,6.41968,0.094,0.20607c0.316-.02743.63328-0.04434,0.94769-0.084,1.73021-.21843,3.45851-0.45243,5.19029-0.65733a3.78991,3.78991,0,0,0,1.26716-.04387,6.67968,6.67968,0,0,0,2.19095-1.97922c-0.62982.08261-1.0699,0.13627-1.50874,0.19865-1.83927.26149-3.67184,0.59443-5.51945,0.76435C59.769,49.63,59.213,50.586,58.32719,51.11319Zm-1.49268,1.30069a1.81128,1.81128,0,0,0,1.52351.65719c1.56267-.13261,3.12984-0.21176,4.69385-0.33018a1.17626,1.17626,0,0,0,.55138-0.21623,14.0378,14.0378,0,0,0,1.17409-.906,3.11881,3.11881,0,0,0,.40913-0.61569c-1.27065.086-2.40443,0.11359-3.52465,0.25136-1.32488.163-2.6368,0.42927-3.95716,0.63243A0.99567,0.99567,0,0,0,56.83452,52.41388Zm4.37993-3.59666c2.555,0.0199,4.89613-.64906,7.33533-0.68747a0.33173,0.33173,0,0,0-.04347-0.54044,2.29893,2.29893,0,0,0-2.00116-.63828c-1.0593.18566-2.11531,0.39066-3.17606,0.56755A3.97566,3.97566,0,0,0,61.21445,48.81722Zm1.20489,4.6202-0.10564-.20271c-0.569.06208-1.13728,0.13238-1.70725,0.18394-0.57189.05172-1.14545,0.08475-1.71828,0.126l-0.03157.19786c0.50727,0.31873,1.00139.66239,1.52974,0.94114a0.70063,0.70063,0,0,0,.6172-0.03588C61.49961,54.27661,61.951,53.84566,62.41934,53.43742Zm4.11522-6.95313a1.73055,1.73055,0,0,0-2.95009.44566C64.55534,46.78329,65.48147,46.64338,66.53456,46.48429Z"></path><path d="M70.61709,44.16126c-0.203-.17415-0.6636-0.09992-0.56688-0.58913,0.52394-.119.54546,0.23461,0.575,0.58035Z"></path><path d="M70.62516,44.15248l0.8417,0.58828-0.16156.17731-0.68819-.75683Z"></path><path d="M68.65274,44.58386L69.33242,44.16a0.569,0.569,0,0,1,.093.10666A0.64238,0.64238,0,0,1,68.65274,44.58386Z"></path><path d="M38.63979,40.06079c0.90576-.77841,1.71469-1.47462,2.52482-2.16945,0.48334-.41455.96385-0.8326,1.45437-1.23851a0.973,0.973,0,0,1,1.27423-.032q2.06929,1.4504,4.11936,2.928a3.34559,3.34559,0,0,1,.48631.59131l-4.26356,4.0213c-1.63839-1.11219-3.246-2.19241-4.83774-3.29542A5.96088,5.96088,0,0,1,38.63979,40.06079Zm9.0374-.01727c-1.35615-.95311-2.55813-1.80521-3.76826-2.64559-0.71506-.49657-0.83312-0.46928-1.47177.13817-0.91555.87077-1.84271,1.72938-2.81675,2.64175a40.42066,40.42066,0,0,0,4.57619,3.14032Z"></path><path d="M41.8519,35.22321c-0.42191.36613-.81828,0.69388-1.19626,1.04162q-1.08873,1.00157-2.15944,2.02263c-0.69144.66095-.83531,0.66747-1.61655,0.09126-0.91061-.67163-1.83524-1.32423-2.74887-1.99182-0.42025-.30708-0.83529-0.62206-1.24053-0.94856a0.52974,0.52974,0,0,1-.03825-0.88555,9.21954,9.21954,0,0,1,.86053-0.866q1.29832-1.09487,2.62852-2.15177a0.8686,0.8686,0,0,1,1.17937-.039A29.04465,29.04465,0,0,1,41.8519,35.22321ZM36.87241,31.9164c-1.18105.99255-2.33242,1.96014-3.53426,2.97017a25.48352,25.48352,0,0,0,4.37673,3.32787l3.192-3.0493A13.83251,13.83251,0,0,0,36.87241,31.9164Z"></path><path d="M73.21436,55.99266l-0.05957-.36588a0.28,0.28,0,0,1,.14009-0.024,0.95432,0.95432,0,0,0,.97164.09545,5.66029,5.66029,0,0,1,1.34448-.34632,2.27994,2.27994,0,0,1,.85649.01926c-0.55114.54176-1.33973,0.37076-2.028,0.731L75.013,56.61079l-0.07147.15662a1.58391,1.58391,0,0,1-.58356-0.16873,1.38174,1.38174,0,0,0-1.40227-.14284c-0.669.19786-1.33048,0.421-1.99927,0.61945A0.94011,0.94011,0,0,1,70.45,57.06511,13.36406,13.36406,0,0,1,73.21436,55.99266Z"></path><path d="M68.00823,59.91226A17.261,17.261,0,0,1,72.685,58.68467l0.05407,0.207-4.68115,1.22795Z"></path><path d="M65.1263,63.01832a7.83716,7.83716,0,0,1,3.78283-1.20326L68.971,62.0375Z"></path><path d="M81.29853,49.02173l-0.4777.20186C80.80164,48.78207,81.02,48.81362,81.29853,49.02173Z"></path><path d="M58.79248,71.851q-1.265.29118-2.53,0.58235a3.50811,3.50811,0,0,1,2.50967-.76569Z"></path><path d="M46.99375,71.10419a2.34164,2.34164,0,0,1,.57509.26131,10.00675,10.00675,0,0,1,.76718.79069c-1.01929-.25985-1.26566-0.46823-1.32575-1.06784Z"></path><path d="M55.64249,72.54984l-0.855.23049C55.28842,72.21954,55.28842,72.21954,55.64249,72.54984Z"></path><path d="M46.073,72.344l0.53917-.55618,0.13948,0.13762-0.544.51609Z"></path><path d="M49.05056,72.97594l-0.39416-.329,0.07007-.09818,0.43231,0.27389Z"></path><path d="M61.53947,34.55872a1.14175,1.14175,0,0,1-.99765.39192,1.06082,1.06082,0,0,1,.94676-0.45573Z"></path><path d="M59.11384,33.1801a0.38978,0.38978,0,0,1-.5802.2281c0.04727-.313.28562-0.29916,0.50517-0.31261Q59.076,33.138,59.11384,33.1801Z"></path><path d="M78.50112,48.17652a3.596,3.596,0,0,1-.4721.351c-0.65869.34376-1.32011,0.68365-1.993,0.99838a1.49177,1.49177,0,0,1-1.22838.23457A10.5366,10.5366,0,0,1,78.50112,48.17652Z"></path><path d="M80.39253,44.65391l1.07326-.65177c-0.19727.46469-.19727,0.46469-1.01982,0.71666Z"></path><path d="M76.22116,46.43217a0.41014,0.41014,0,0,1-.6961.16734q0.35357-.07708.70733-0.15407Z"></path></g></svg>