<?xml version="1.0" encoding="UTF-8"?>
<svg width="1200pt" height="1200pt" version="1.1" viewBox="0 0 1200 1200" xmlns="http://www.w3.org/2000/svg">
 <g fill-rule="evenodd">
  <path d="m642.85 1061.8c2.6914-13.156 0.73047-6.7578 7.2539-9.7812-2.4336 6.1641-0.875 2.8594-4.3945 7.2266-0.37891 0.47266-2.293 1.8672-2.8594 2.5508zm-45.211-29.387c5.1953-2.9531 9.5664-5.2695 16.133-5.3633 5.8594 15.426 3.8984 12.141 0.82812 26.172 10.277-0.96875 7.9141-3 14.148-0.58984-2.1719 9.4492-8.9297 20.27-14.668 28.133-5.8594-6.7578-10.938-11.645-16.746-18.449l-16.465-19.773 16.773-10.133zm64.133-2.4805c6.2852-7.9375 14.363-15 26.812-18.52-7.4414 31.371-21.379 43.676-39.07 59.621-5.457 4.9141-10.156 8.4805-15.449 12.707 1.4648-13.891 16.016-15.52 25.086-27 7.7969-9.8516 2.1953-10.723 8.0781-18.781 5.2188-7.1797 7.8672-4.4648 11.621-14.812-9.7812 2.9531-5.668 5.3398-17.078 6.7812zm-9.2852-14.883c-1.7461 9.3086-9.4023 21.07-16.062 26.031-7.582-4.9375-7.0391-5.0078-11.219-15.141 4.7734-2.8828-5.8359-0.11719 7.4414-3.3086 26.148-6.2852 9-3.6602 19.844-7.582zm-33.969-2.457c1.3945-6.4023-0.44922-4.2266 5.1953-7.2266 17.812-9.3555 18.285 4.7969 19.844 8.9531-18.285-0.47266-18.262 3.6602-25.039-1.7227zm33.969 2.457-3.3555-18.141 14.41-3.8047c-1.6523 5.1016-2.4805 7.6289-4.7969 12.707l-6.2617 9.2344zm14.766-1.2539c0.44922-5.9062 4.0391-15.473 9.0469-19.938l18.73-13.465-27.781 33.402zm-41.434-50.172 9.332 27.613-23.27 9.1172-9.4492-28.797 23.387-7.9375zm-23.125 0.70703c-5.4805-4.6992-0.023437 3.8281-5.1484-6.3555l-3.5195-22.301 23.504-0.58984 5.0547 19.582-19.891 9.6602zm22.535-29.125c6.9453-4.4648 18.543-6.543 28.062-8.293l3.7812 13.676c-6.0703 4.9609-16.395 9.2344-26.883 10.984l-4.9609-16.371zm92.148-18.922 9.8984 6.6836 10.512-4.8672-4.4414 12.188c-6 1.7461-6.0938-0.070313-10.891-2.1484-4.3711 5.8828-12.473 12.117-15.047 16.723-6.2344 11.148 1.5586 8.3398-13.039 16.371l23.008-44.953zm-75.52-24.094 7.8672 27.449-28.938 6.8984-7.2773-29.574zm50.621 35.172c8.9297-17.34-11.668-6.4727 20.316-23.148-7.0625 13.844-13.016 27.188-20.93 41.172-7.9375 14.055-17.738 25.227-22.488 42.211-15.355-2.5039-11.93-0.89844-26.055 1.6992l-9.5898-29.551 24.047-8.8594c0.37891 0.58984 0.68359 1.4883 0.85156 1.9375l1.5352 3.9219c5.5977 15.402 0.82812 9.4492 8.293 13.914 6.2617-8.7148 0.35547-13.535-0.42578-24.684 19.512-3.7305 17.293-3.5195 21.285-10.18l-25.156 1.4414-2.9531-10.039c14.125-17.102 28.867-0.70703 31.277 0.16406zm-21.543-43.938 7.4883 27.355-21.355 5.668c-3.3789-8.0312-6.7812-16.961-6.875-27.355l20.738-5.668zm24.188-50.645c4.6289 7.2266 0.99219 0.33203 3.8281 8.1484l4.8672 20.172c-11.906 3.543-15.922 8.7383-29.883 10.773l-6.7578-30.805 27.945-8.293zm71.055 28.699c0.89844-8.1719 1.7461-8.2695 8.7148-11.48-2.2695 5.125-3.6836 10.062-8.7148 11.48zm-106.16-17.316 7.6758 32.031c-16.891 6.8984-14.055 3.543-22.82 4.3945l-8.0781-33.332 23.219-3.0938zm27.828-48.332 5.4805 29.691-27.543 7.6758c-5.3398-8.2695-5.9531-20.598-7.9609-31.227zm38.668-9.8281 6.2109 21.543-30.875 12.613-6.4727-26.551 31.133-7.6055zm8.4102-2.9062c11.457-6.332 33.141-12.211 45.379-15.828-8.1016 18.613-51.023 123.07-65.031 128.71l-28.109 9.8281-9.6367-24.449c8.6445-6.0469 20.621-9.2344 31.277-12.922 8.1719-2.8125 18.379-9.6367 21.117-21.449-12.805 1.3711-5.9297 4.2266-18.262 5.125l-7.582-23.242 31.086-13.18c9.4258 7.5352 2.7383 10.535 15.234 9.4492-5.0312-18.285-10.746-9.0703 2.8594-20.387-7.9609-6.9922-7.6758 0.78125-14.031-7.0625-2.1719-2.668-3.6602-10.961-4.3008-14.598zm-19.227-37.227 8.2695 32.812-31.652 7.4883-7.9609-33.402 31.348-6.8984zm32.812-11.242c5.8125 7.4648 9.4023 21.379 11.812 30.566l-28.82 9.2344-8.8828-31.418 25.891-8.3867zm-9.4727-42.852 8.6445 35.148-26.93 7.2031-6.4727-37.016 24.758-5.3398zm38.668-14.504 10.797 33.875-31.984 11.363c-5.125-7.9844-8.457-21.922-10.016-33.66l31.203-11.574zm66.543 41.738-8.0078 15.73c-8.293 10.844 1.0625 1.6992-13.301 8.0547-5.5039 2.4336-26.031 14.457-18.262 21.566 8.6914 3.2852 8.6445-8.293 21.309-12.473-2.5273 12.758-22.227 42.945-28.629 56.055-11.906 24.402-17.125 30.332-41.457 41.691l0.58984 19.488c-16.465 9.6602-19.488 11.621-18.164 22.582 14.34 0.49609 4.7969-4.0625 20.738-12.805-3.9453 10.629-10.062 20.859-18.141 26.645-3.2852-4.7461-2.0547 4.1328-0.82813-9.7305-4.9375 2.0781-6.7578 3.9219-10.797 2.0078l24.66-50.574c1.8672-3.7812 4.3242-9.5195 6.2617-12.379 6.707-9.8984 16.062-0.89844 29.078-19.773-5.5508-3.4492 6.3789-3.1172-8.3164-2.0547-5.6211 0.40234-9.707 4.0391-12.637 8.4805 0.1875-6.6133 2.0078-9 5.293-15.992 3.9922-8.5273 2.2188-8.1016 8.2422-10.465 8.0312-3.1406 20.219-2.9062 24.309-13.699-11.504-3.2617-12.262 0.51953-22.109 3.8984l32.527-70.156c21.707-41.766 19.512-53.691 50.242-56.293-2.7383 13.301-15.047 53.598-22.605 60.188zm35.316-91.133c-1.4883 10.062-5.4102 15-7.6055 25.301l-24.496-1.0625c5.7383-18.07 1.1562-7.6289 14.457-14.551 8.8828-4.6289 7.0391-7.0156 17.645-9.6836zm-409.63-43.395c-7.0859-3.1641-4.2773-1.9844-5.7148-6.332zm300.5-27.637c27.426-27.164 16.797-39.141 47.906-39.473l17.125 38.148c-9.6133 8.2695-55.254 27.992-70.652 34.371l-7.9375-17.621zm-350.62-13.938c10.016-5.0547 8.8594 0.37891 14.27-7.9844-8.5273-4.9844-10.371-1.9609-22.348-2.4336l-8.9766-15.379c25.016-18.52 23.789-4.7461 35.316 18.52 2.668 5.4102 12.875 21.922 15.473 25.227-11.148-4.0391 0.75781-4.3711-16.844-7.0156-8.6914-1.3008-13.488-2.6445-16.891-10.938zm389.84-45.188c4.7461 5.8125 3.9453 4.9375 5.457 13.867l-13.844 4.0156zm-416.36 2.5039c5.3867-4.5352 4.9609-4.3945 13.039-6.0234 9.543-1.9375 4.5586-3.3555 10.441 3.3555l-19.746 9.8984-3.7305-7.2266zm429.97 7.5352c-14.691-20.316-1.4648-29.148 2.5273-50.387 6.7812 6.6602 9.4492 15.262 12.309 25.324-9.4023 3.6133-6.0703 1.0156-11.219 9.5195l15.141-4.6523 4.6055 12.117zm28.418-26.645c9.1875-8.5273 30.52-19.961 42.309-22.203-7.1562 51.852-27.73 120.61-46.773 169.39l-54.852 118.61c-4.6758 8.9062-13.867 11.836-23.551 14.125l-10.441-28.652c0.54297-0.42578 1.3242-0.94531 1.7227-1.1797l22.797-9.7578c10.629-4.0156 14.27-5.0312 19.488-13.062-4.3242-12.473-9.4258-13.039-15.402-33.781 11.504-6.3555 39.426-9.3789 43.203-22.277-9.6602-6.2617-30.211 10.371-46.301 12.449l-5.125-25.797c20.504-17.457 67.914-20.715 73.844-48.047-17.148-0.78125-56.242 34.699-69.07 36.828-7.1328-1.6523-2.0078-0.49609-6.7812-3.7812l-4.2031-3.5664c-8.3633 14.668 10.746 11.621-34.348 23.125l-13.441-31.512c36.188-6.9922 22.844-15.402 43.559-7.6992 0.56641-12.164 4.5586-10.418 17.906-15.805 7.7461-3.1172 13.746-6.0938 21.828-10.062 47.195-23.148 20.645-11.078 45.094-6.4961l-4.8203-14.551c10.086-8.2695 21.52-8.3867 18.262-19.844-10.039-4.8438-12.285 5.3867-21.613 12.852-7.6523-5.9297-18.023-25.016-18-35.316 24.875-14.766 26.242-4.6055 33.66-0.44922 0.23438-0.56641 0.33203-1.4883 0.37891-1.8438 0.875-9.3555-0.58984-6.4492-1.5352-11.008 10.488-5.8359 18.047-6.8281 21.684-16.82-16.465-1.5117-23.27 23.527-32.27-0.78125l2.7891-3.0938zm-449.77-31.203c0.89844 1.3008-0.49609-2.2422 2.7383 4.7969l3.4492 13.441c-0.21094 11.293-1.5117-5.1016-1.1562 10.371 0.046875 1.7734 0.94531 5.0078 1.4414 7.2773-10.348 2.0078-21.496 7.2266-21.969 0.875-0.73047-10.277 10.605-6.707 18.73-15.805-3.2852-1.8438 3.4727-2.9297-8.6914-2.5039-7.3008 0.26172-12.285 6.6836-16.938 10.227l-4.9141-11.102c14.457-5.2188 6.9219-11.031 25.227-11.41l2.0781-6.1641zm447.59-37.395 11.504 24.73-21.379 9.5898c3.6836 3.0938-0.49609 2.3164 7.0391 2.0781l19.324-4.6289 5.668 13.227c-4.3242 4.2266-21.707 15.73-26.859 18.309-12.707-27.707-14.48-20.055-14.195-58.227zm30.07 215.36c-5.668-10.277-3.9688-1.418-14.457-8.293l22.914-18.852c-10.254-3.0469-14.172 2.2188-23.125 6.4258l8.9531-32.219c2.4805-3.4023 14.219 2.5977 25.535-12.52-7.8438-1.4883-15.969 4.1562-23.27 7.7227 9.0469-30.355 6.9922-21.117 15.262-25.629 7.1328-3.9219 19.133-7.3711 21.828-14.219-10.938-5.6914-16.301 2.0547-25.348 6.6133 6.5664-24.707 14.055-10.984 27.332-26.008-7.9141-3.707-11.293-0.92188-19.371 0.66016 1.8203-20.078 13.371-8.2422 23.219-22.016-7.6523-4.3711-11.195-0.1875-19.867 1.8906 4.3477-21.945 18.449-9.875 25.203-23.242-8.0781-3.0234-14.148-0.046875-21.566 2.6445 11.219-80.219 1.8438-59.008 32.883-66.758l-0.61328 21.426c-6.8516 2.9297-6.6836 0.78125-12.66 2.668-8.3633 2.6445-3.9922-0.56641-8.5742 5.3398l3.7812 1.9375c0.66016 0.16406 1.3945 0.49609 2.1719 0.61328 0.80469 0.14062 1.5117 0.21094 2.4102 0.26172 0.070312 0.023438 11.316-1.5586 11.859-1.6289-0.16406 28.348-5.1484 56.031-13.582 79.961-3.8984 10.961-4.7734 25.676-8.6211 36.875-3.8047 11.031-8.3633 18.992-11.789 30.52-12.426-5.125-26.691 0.070313-28.277 14.527 13.254-0.1875 11.293-6.6602 25.418-11.078-3.2344 13.984-8.9766 34.914-17.645 42.379zm-477.66-177.97c-20.148-4.582-16.535 4.6289-32.859 9.9453l-6.9219-42.355c7.0625-4.582 19.227-11.668 29.574-10.203l4.0625 17.738c-7.2539 5.5977-22.418-3.6133-28.867 11.148 7.1094 3.6367 21.828-0.92188 32.387-1.4648l2.6211 15.188zm430.06-39.094c-1.2773-9 0.54297-19.652 4.1094-26.906 4.9609 6.543 7.7461 12.684 8.9062 22.891zm-463.61-21.023c9.707-5.7148 11.008-10.723 23.668-7.9844l0.47266 13.535c-12.828 1.8438-21.613 7.418-29.883 12.852l-1.1328-14.715 6.875-3.6836zm-7.0859-25.676c0.54297-0.40234 1.3242-0.92188 1.6992-1.1562l5.1016-3.0938c13.418-7.9375 9.7812-8.2695 18.73-8.4336l2.457 21.262c-22.348 1.8438-14.195 5.9531-29.172 13.086l1.1797-21.66zm221.5-211.96c13.797-1.8906 84.449 0.30859 99.898 8.3164 54.094 28.039 62.715 46.723 93.543 74.551 39.285 35.434 37.465 68.836 45.164 120.95 2.8359 19.016-1.8672 28.109-2.2188 48.141-0.28516 16.652-18.07 72.188-25.441 87.828-11.219 23.836-31.512 45.66-49.156 63.047-13.254 13.086-18.402 13.277-34.465 21.59-17.031 8.8125-59.242 29.387-78.922 30.922-17.34 1.3711-35.055 3.2344-51.355 4.0625-21.852 1.1094-67.203-11.219-84.047-21.426-27.285-16.488-36.355-34.629-50.621-61.512-19.699-37.18-38.34-78.73-42.566-123.12-5.5039-57.566-11.977-75.426 21.262-133.84 20.691-36.426 19.773-58.395 74.102-94.016 36.758-24.094 35.906-18.781 84.828-25.488zm330.54 206.62c13.109-6.4727 17.574 0.70703 23.457-7.2031 4.6055 9 5.8359 4.2031 4.9844 16.301 0.75781-17.859-1.1797-8.5508-3.6602-6.0234-0.75781 1.5586-3.7812 30.637-3.0469 37.465l-20.836-3.4023c-2.7383-5.7148-2.293-2.2422-1.2031-11.434 15.637-4.5586 13.18 2.7383 18.758-7.0156-6.6133-5.0547-0.82812-1.3477-9.6367-3.1875l-7.0625-1.4648c-0.40234-0.82813-1.4648-0.40234-2.2422-0.68359l0.49609-13.348zm-3.8516-25.82c17.906 0.82812 23.363-3.2344 26.031 14.34l-22.82-0.61328-3.2109-13.723zm-38.691 23.148c-8.5273 7.9609-18.473 15.969-31.773 18.969-9.3789-19.301-11.195-42.402-13.984-67.82 8.668 1.8438 10.488 3.4961 15.684 10.133l30.07 38.715zm-27.758 22.844c50.883-14.504 62.504-52.961 27.496-32.125-4.2539-9.4492-10.371-14.195-16.016-23.789l24.969-12.285c-0.58984-0.35547-1.4648-0.61328-1.8906-0.73047l-5.8828-1.1094c-6.6133 0.09375-15.355 6.0234-23.906 7.1562-4.2031-7.3945-4.0625-4.7227-5.9766-13.488l45.707-8.0078c16.465 49.039 17.621 79.652 12.637 129.99-2.6445 27 2.0078 24.426-21.496 28.062l-6.2852-11.457c12.613-12.969 14.293 0.16406 22.465-23.836-15.285 0.99219-10.699 7.9375-25.676 14.977-5.1953-6.7305-8.7656-13.062-12.473-23.668 18.637-3.6602 35.434-9.332 35.172-25.254-10.203 2.0781-1.7227 2.7656-19.016 11.645-7.9375 4.0625-11.953 4.9609-20.055 8.2188l-9.7812-24.309zm66.117-52.938c-3.8047-18.613 10.301 0.63672 19.156-15.262-11.387-7.6992-13.301 0-23.41-5.3398-2.125-7.7227-2.9531-13.773 24.094-9.6133 1.7969 9.1641 3.0469 21.188 3.1172 30.758-10.254-1.418-16.746-3.5664-22.961-0.54297zm-533.17-24.758c14.27-1.3008 8.9531-2.2695 22.348-6.8516-5.8828 33-9.2344 19.156-28.086 39.852 13.938 2.1016 8.4336-2.668 21.684-8.0547-1.7461 16.465 0.14062 11.977-12.945 18.07-6.6602 3.0938-10.984 8.6445-15.684 10.109 5.3398-12.992 2.0781-13.277 4.4414-26.953 1.5352-8.9531 5.4336-16.891 8.2422-26.172zm457.37-38.078c4.6523 6.4023 3.543 2.9062 6.9219 10.746l-20.598 9.5898-6.4258-17.766 20.102-2.5742zm-452.81 31.652c8.5508-19.016 8.4805-31.156 36.898-39.781-4.6289 26.906-19.891 26.766-36.898 39.781zm482.24-61.18c9.3086 16.844 21.355 30.52 22.016 53.789-48.141 2.8125-41.125 20.008-55.82 1.9609l7.2773-5.8594c15.684-8.9062 19.371 0.40234 27.402 3.6602-2.5742-8.0781-2.5039-6.875-6.6602-12.543 12.262-1.9375 6.7578-1.4883 10.109-8.1016-11.621 0.16406-14.078 2.3164-21.969-1.5352 0.96875-17.906 13.109-2.125 20.645-18.309-15.164-8.0547-30.164 21.164-42.66-3.0234zm-446.91 0.070313c11.172 1.0859 6.2109 3.332 14.906-2.1953-8.7148 16.559-7.2539 14.504-26.316 19.961 3.8281-6.9219 6.8984-12 11.41-17.766zm438.33-6.9688c-7.8906-4.3945-11.148-7.6055-14.457-16.465 8.125 0.56641 5.8125 0.14062 10.512 6.8281 3.9453 5.6445 3.2617 2.457 3.9453 9.6367zm14.551-35.008 7.7461 9.5898c-9.3086 5.2188-12.922-6.4492-15.637 8.0078 7.1328 4.0859 14.812 2.8594 23.977 4.5117-3.6133 9.707 1.6992-1.0391-3.9453 4.8438-5.6914 5.9531-4.6992-1.5352-7.2266 9.332l23.953 5.125c0.35547 0 1.2539-0.16406 1.5586-0.16406l25.559 54.875-27.852-0.61328c-6.332-35.008 4.6992-8.8359 17.316-13.867-3.4727-15.047-17.293-6.707-28.961-19.016 11.504-5.0781 7.2539 4.1328 17.293-2.3164-7.4414-9.2617-11.883-4.9844-19.938-8.3398-8.0078-3.332-30.992-41.715-32.527-47.953zm-29.551 13.086c-18.758-3.3555-18.473-9-28.441-19.488l13.109-2.0547c7.6758 7.9609 13.371 10.773 15.332 21.543zm-2.6211-24.543c15.023-4.8438 14.812-4.0391 28.324 0.73047-9.4492 4.7461-9.2852 1.3242-17.621 10.156l-10.699-10.891zm-408.33 36.66c11.055-14.242 29.031-32.766 50.953-37.867-3.3555 6.3555-1.1094 3.0234-5.8594 8.7148-18.309 21.898-25.844 30.262-45.094 29.148zm395.62-49.652 18.07-0.070312c-7.2773 6.8984-4.5586 0.54297-9.2617 11.34l-8.8125-11.27zm-5.8359-22.699c-13.348-0.82813-17.836 2.7383-26.527-2.5508 16.723-9.7305 6.7812 6.3555 20.527-1.7461-2.0781-6.6367 0.023438-5.7148-7.8438-8.293-16.203-5.293-19.652 7.1328-33.211-6.9453 16.652-2.2695 21.234 2.293 31.418-6.5898 16.227 15.07 40.629 21.758 47.812 43.301-12.898-3.9688-24.613-6.6602-34.348 1.3242-4.2773-5.3633-4.3945-3.7578-7.9844-9.9219 27.309-3.9219 19.773 7.7227 31.371 0.14063-2.0781-3.2109 2.1016-3.1875-9.1406-6.8281-4.3008-1.3945-7.418-1.6055-12.07-1.8906zm-101.64-23.812c8.1719-2.125 14.41-5.5977 21.684-6.8047 4.2031 3.0938 10.156 6.8984 13.301 13.652l-27.473 6.8281zm36.52-10.109c23.766-2.5977 35.031-4.5117 42.07 6.3555-19.512 2.1016-35.078 3.6133-42.07-6.3555zm-76.395-0.23437c16.016-3.9453 17.766-7.6055 23.574 6.6133l-16.227 4.1797-7.3477-10.797zm31.723 3.332c-3.7812-7.8906-4.1328-4.3477-4.1797-12.758 23.055-3.2852 17.457 10.039 17.457 10.086l-13.277 2.668zm-47.691-8.5039c-5.3398 5.8828-13.348 7.7227-21.449 9.6367-7.2266-4.8672-8.3867-6.1875-12.234-12.309 7.0859-4.7227 18.59-6.4023 27.969-4.9609l5.7148 7.6289zm69.402-8.0078c10.582-3.3086 30.969-1.5352 38.859 3.2344-10.512 4.1328-26.977 6.4961-36.402-0.42578l-2.457-2.8125zm-43.82 0c-12.828 9.4727-18.07 8.9766-22.441-2.668 1.6523-1.9141 9.8516-5.3633 12.992-5.3633 8.6211-0.023438 7.1094 1.7969 9.4492 8.0312zm59.055-10.676c-3.8984 2.0078-15.379 3.7578-22.109 4.4648-9.7578 1.0391-10.867-1.8438-14.906-7.0156 10.891-0.89844 34.418 1.1328 37.016 2.5508zm-127.44 7.9609c-0.99219-1.1797-4.9609-5.4102-5.1484-5.6211-3.2617-4.1094-0.66016-0.40234-3.875-5.9531 8.9062-1.7734 20.953-6.6602 28.746-0.28516 7.3008 5.9766 2.3633 2.3398 5.3164 8.2422l-25.039 3.6133zm46.277-9.8984c-13.723 0.68359-9.2852 2.293-16.395-6.2344 4.3008 0.26172 4.1094-0.70703 9.3086 1.1094 13.109 4.5586 1.3945-0.09375 7.0859 5.125zm-86.789 952.63c-8.0312-29.195-39.945-64.773-58.016-91.582-10.773-15.992-14.906-15.023-22.914-25.277-7.9141-10.133-9.1641-22.535-18.684-31.891-12.52-12.309-8.668-16.039-16.629-31.488-11.738-22.797-22.844-42-34.961-63.781-6.3789-11.434-9.8281-22.938-15.992-34.723l-49.559-97.277c-3.0234-7.3008-3.332-14.078-6.0469-20.789-2.8828-7.1094-4.9141-7.5117-8.1016-15.566-4.9844-12.543-7.9375-22.82-11.812-36.309-7.5352-26.363-36.402-128.39-39.117-155.88-3.3086-33.211-12.094-49.324-9.9688-87.023 3.7305-67.016 19.488-98.172 51.637-144.76 11.527-16.699 31.773-38.195 47.125-51.637 49.465-43.301 98.789-68.34 167.08-77.738 23.293-3.2109 25.773-5.5039 39.355 7.2031-6.8281 5.8125-10.441 4.9609-18.52 7.6758 3.7578 2.9531-0.28516 1.4414 6.1641 2.5977 14.055 2.5039-10.844 0.54297 4.6055 0.26172 4.8672-0.09375 7.3477-1.8438 11.363-1.7734 8.2695 0.11719 10.062 4.7734 14.859 9.332-10.418 8.5039-7.9375-2.0078-12.332 11.668 13.277-0.75781 11.668-6.1172 21.285-1.1562 8.0078 4.1328 21.898 18.945 28.629 24.992 5.5273 4.9844 7.418 7.5586 16.512 7.4414-3.8281-8.8828-1.7461-3.3555-8.8359-9.6602-8.7656-7.7969-3.8984-0.96875-7.9844-10.676l22.441-6.3789 6 9.543c-10.844 0.99219-8.7656-1.4883-10.348 5.1953 20.008 2.1484 11.621-2.3164 25.348 9.2109l2.6445-11.219 15.852-2.0078 7.0625 12.613c-10.82 5.5742-9.5664 0.14062-14.293 8.4805 8.7383 3.4023 14.859-2.457 21.805 0.046875 9.2852 3.3789 3.9922 9.543 16.582 9.875-3.6602-8.4805-3.4258-2.8594-7.5117-13.086l24.164-7.5117c8.5977-4.3711 14.34 3.1406 20.621 9.543 3.0234 3.0938 1.6992 1.2266 3.6602 4.2031-13.961 6.9688-48.07 7.8203-46.938 25.559 10.371-1.2031 6.0234-5.1016 18.684-8.7656 6.5664-1.8906 16.938-2.4805 24.945-3.9922 24.684-4.6055 23.836 1.8906 37.016 12.992-28.301 8.0781-8.4102-2.9531-30.473-4.0859-0.44922 12.566 0.16406 4.1562 3.6836 16.203-13.156 2.1484-8.0078-1.7227-11.434 7.4414 12.285 5.8125 10.086-5.9062 25.109-2.3633 6.5195 1.5352 14.598 9.3789 18.637 15.707-9.6133 8.8828-16.488 3.1641-22.559 15.52 16.062 1.2266 24.781-15.684 37.652-3.4258l8.3867 10.535c-38.102 13.395-14.551 8.7383-41.906 3.8047 1.2031 17.031 9.1172 11.527 19.629 21.613-3.4492 2.8359 5.5977 1.7461-6.5898 3.7305-7.0859 1.1328-9.707-6.1875-13.867-12.781-11.715-18.426-31.676-34.465-47.836-48.379-18.969-16.324-29.008-28.914-55.961-39.969-48.73-19.961-81.73-18.285-132.29-18.094-24.262 0.09375-42.543 7.418-62.363 15.707-22.914 9.5898-31.867 4.1797-54.59 22.773-33.211 27.164-46.746 48.613-66.473 85.652-18.234 34.227-9.3086 1.418-24.07 53.293-11.93 42.023-12.566 95.242 0 137.53 13.699 46.016 30.828 63.309 57.852 96.945 5.5508 6.8984 12.211 17.242 18.285 21.922 20.102 15.449 48.262 36.852 73.938 40.254l-11.574-8.6914c42.922 10.465 43.82 42.758 135.54 20.953 95.434-22.699 88.938-39.52 118.06-50.102l8.0312 18.898c-23.551 10.82-64.301 17.316-85.203 31.301 8.3633 6.3086 31.844-6.8281 42.07-9.4258 6.4492 5.6914 13.371 19.891 15.234 28.086-13.254 7.7227-34.227 6.2852-49.039 10.133 15.234 7.6992 72.309-8.8594 90.875-13.559l5.0078 28.395-30.047 11.293c-7.0859-9.875 2.1484-7.2031-8.0078-15.164-3.3086 7.5586-0.80469 7.7227-0.49609 18.707l-57.234 18.473 27.355-2.8359 6 38.387-30.805 7.0625c-1.7969-7.1562-1.3945-13.797-6.1875-18.684-4.6758 7.9375-2.0547 10.582-1.0156 21.543l-41.195 11.008c8.6914 6.6602 6.1406 2.5977 9.7578 2.5273 10.277-0.23438 23.219-5.5039 32.293-7.3711l8.5273 34.203c-34.371 17.363-26.93 4.2773-29.977-10.039-2.0547-9.7812 0.30859-2.4805-2.4102-6.5195-4.2266 6.543-4.5117 15.828-1.2266 33.66 2.1953 11.836 4.1328 20.055 5.6445 31.676l-22.016 3.3789c-1.9844-8.5508-2.457-19.324-6.4258-26.293-7.8438 12.852-1.4883-1.2539-2.8125 8.9297-0.16406 1.3242 0.023438 8.9531 0.14062 10.488 1.5117 18.211 9.6367 34.559 13.156 51.496l-27.684 7.1094-5.7148-7.0391c-2.8594 8.6211 3.332-6.4492-1.2031 4.1328-2.9531 6.8984 3.1641 2.8828-4.7227 6.2109 9.8047 5.7148 14.691 19.914 11.977 32.906-10.062 0.875-8.1719 2.6445-15.969-0.49609-5.0781-2.0312-3.5195-4.582-8.6445-5.0547-3.6836 17.457 1.9609 25.629 5.0312 41.574l-13.395 11.172 17.031-2.3164 9.4492 31.254-8.1016 6.7578c0.75781 0.21094 1.4883 0.30859 2.2695 0.54297 0.75781 0.21094 1.5117 0.23438 2.2695 0.44922l8.1953 2.8359c-2.5039 2.5977-0.51953 1.0156-4.3477 3.6367-2.8594 1.9609 2.0078-0.99219-3.2852 2.0078-3.332 1.9141-5.3633 2.3867-8.9531 4.3945-4.3477 2.457-4.9141 3.1875-7.8438 5.5273l-6.3086 5.1719c-0.28516-0.51953-1.1094 0.89844-1.7227 1.2773zm130.68-964.02c-11.906 14.102-23.766 3.4961-38.055-1.6758zm-71.527-9.8984 34.535-0.046874c-4.2031 3.5898-5.5273 4.5586-10.582 7.6289zm-23.977 1045.7c16.488-5.7148 22.652-8.8359 33.402-20.316 39.707-42.355 22.488 7.6758 46.371-60.332 10.277-29.293 24.758-48.402 36.449-72.992l19.961-36.141c12.828-21.852 25.961-50.172 37.016-72.473 15.73-31.746 65.598-114.88 74.551-141.61 10.086-30.117 20.48-50.48 31.746-77.691l29.148-80.031c7.3945-27.309 14.125-59.387 20.125-86.293 3.9688-17.789 10.156-71.219 8.5977-93.309-3.9922-55.961-28.016-126.76-55.062-163.23-34.203-46.109-36-52.277-74.859-87.922-9.4961-8.7148-23.551-13.582-35.789-20.242-48.473-26.34-104.53-51.332-174.14-44.195-99.875 10.203-160.25 27.66-234.5 90.969-10.039 8.5508-42.992 44.172-51.285 58.109-82.676 138.8-55.82 182.95-16.961 339.61 9.7578 39.309 38.859 119.29 57.234 159.16 12.023 26.055 25.535 48.684 36.66 72.781 12.188 26.41 23.363 49.82 37.914 71.551 8.2422 12.355 12.047 20.387 20.195 33.188 7.582 11.977 10.301 25.086 19.156 36.805 31.746 42.023 93.047 143.01 109.3 162.99l24.758 31.605z"/>
  <path d="m822.8 711.95c11.148-2.4805 14.34-6.1641 24.898-16.559 7.7227-7.6055 4.0625-1.5352 5.1016-10.676-10.348-0.30859-12.355 3.2344-17.906 8.6445-6.1172 6-10.203 8.1016-12.094 18.59z"/>
  <path d="m844.25 719.01-1.1094-5.5039c-11.48 2.1016-18.66 3.9922-19.301 15.637 8.0547-0.56641 14.977-5.6211 20.41-10.133z"/>
  <path d="m913.68 454.8c2.3633 1.6289-4.9141 3.7812 8.1719 2.9062 4.7969-0.33203 4.8906-1.6055 7.4883-3.1641-5.0781-6.2109-18.59-10.277-15.66 0.26172z"/>
 </g>
</svg>
