<?xml version="1.0" encoding="UTF-8"?>
<svg width="1200pt" height="1200pt" version="1.1" viewBox="0 0 1200 1200" xmlns="http://www.w3.org/2000/svg">
 <path d="m320.29 1109.6c1.3242-1.1562 1.9609-2.2422 6.3086-2.8828 0.92188-0.11719 3.2617-0.30859 4.1328-0.16406 3.4961 0.54297 1.7969 0.47266 3.3789 1.5117-4.1328 2.4805-9.543 3.8047-13.82 1.5352zm24.66-9.2109c0.070313-0.070312-2.4336-5.2188 3.8984 0-2.8828 2.0312 0.49609 2.6211-3.8984 0zm61.227-46.133c-1.9141-2.6445-1.7969-1.8906-3.4492-5.3164l8.293 0.47266c-2.7148 4.9844 0.40234 1.8906-4.8438 4.8438zm18.758-19.961c-3.8047 1.1797-4.3242 0.23438-8.3633-1.1562-7.0859-2.457-5.0078-0.44922-7.418-5.0312l13.254 3.8516c2.5977 1.4883 1.3945 1.1328 2.5273 2.3398zm90.449-169.44c19.746-0.30859 14.738 8.9531 19.914 3.6367 4.6055-4.7461-9.1641-8.1484-12.285-11.078 22.348-1.8672 9.9219 7.3008 23.457 1.9141-1.4883 7.3242-12.402 23.078-16.277 28.301-7.4883-6.9453-4.582-5.7891-16.723-8.2422 3.875-2.6211 6.6367-0.37891 11.055-3.4023-1.6992-9.1875-2.9531-2.3867-9.1406-11.125zm152.12-245.2c-4.0391-6.4492-2.6445-5.457-7.6992-11.574l11.93 3.8984-4.2266 7.6758zm19.914-46.465c0.14062-0.070313-2.7148-4.4414 4.2266 0-3.2617 2.3398 0.23438 2.4805-4.2266 0zm41.836-30.73c3.7305-1.9141 6.8984-0.070313 18.117 1.6289 6.0469 0.89844 12.66 2.3398 19.559 2.3633-2.1484-4.0391-0.49609-0.96875-5.6914-4.1797l41.574 2.3867c6.7812 2.2695 0.44922 0.58984 4.8906 5.2695 2.5977 2.7148 3.5195 1.4883 6.1406 4.7461-6.6133-1.418-9.6367-5.3633-17.172-5.1719-7.6992 0.21094-7.3477 4.5117-18.613 0.63672-10.723-3.6836-8.9531 0.21094-19.676-1.7227-24.473-4.3711 0.85156 8.3164-29.125-5.9531zm192.23-18.023c-2.3398 0.82812-0.44922 0.85156-3.3555 0.82812-6.0469-0.023437-0.40234 0.47266-2.6914-1.2539 7.6289-4.2031 5.8828 0.30859 6.0469 0.42578zm14.789-12.117c-0.78125 4.8203 1.0859 1.9609-3.332 3.875 1.2773-5.1016-1.1094-2.5742 3.332-3.875zm16.133-11.363c-1.1562 2.1953-2.4336 5.125-5.7148 5.6211-4.1094 0.58984-3.3555-1.5352-3.6367-5.5977l9.3555-0.023437zm45.355-66.094c-0.92188 0.70703 3.5898 2.7148-5.6445 1.2031-3.332-0.54297-2.9531-1.1094-4.3477-3zm2.9531-19.891c3.0234-1.8906-4.2031-1.6992 4.7461-1.5117 3.8281 0.09375 2.8125 1.3945 2.8594 1.4414-3.5664 2.1016-3.1172 1.1562-7.6055 0.070313zm-48.473-40.039c1.9141-3.543 7.5352-6.9922 11.41-8.3398 6.3086-2.1719 44.93 0.42578 53.242 5.2695l-0.56641 15.094c-9.6367 0.58984-21.73-4.6758-31.395-6.543-9-1.6992-25.629-2.7891-32.691-5.4805zm22.277-13.652c1.1562-1.2031 0.89844-1.1328 2.6914-2.5039 0.26172-0.21094 0.66016-0.47266 0.94531-0.68359l13.723-8.9297c4.9141 2.3164 0.26172-0.40234 4.6289 5.1719l23.102 0.92188-1.9141 8.7148c-0.023437-0.023438-9.4492-7.7734-16.582-7.1562-8.9766 4.0859 3.4961 4.8672-10.629 4.582-5.9766-0.11719-9.7812-0.49609-15.969-0.11719zm26.645-17.078c4.1562-3.0938 9.4492-5.5273 16.324-3.8984l0.30859 6.707c-6.6133 0.023438-11.812-0.28516-16.629-2.8125zm-272.5-1.0625c2.3164-1.582-2.5977-1.5586 4.7227-1.7969 5.457-0.16406 1.4414 0.35547 3.1875 1.3008-1.6055 1.2031 1.3477 1.3711-4.2773 1.5117-0.09375 0-3.1641-0.875-3.6367-1.0156zm39.023-140.98 5.293 0.63672c-3.5898 2.0547-2.4336 1.4414-5.293-0.63672zm81.992-84.805c3.875 0.046876 9.3086 3.0703 11.41 5.5742-3.4727 0.40234-5.1484 0.99219-8.6914-0.47266-4.2031-1.7227-3.0469-0.99219-2.7148-5.1016zm-220.42 581.48c-3.2852 10.016-1.9375 15.66-9.4023 11.242-0.63672-4.5117 1.1797 2.4102 3.2617-6.2344-14.148-13.016-23.766-7.3008-29.363-7.4414l-36.992-3.5195c-9.6602-0.40234-18.094-4.9844-19.133 4.0625 3.6133 2.4102 48.59 3.8281 57.637 5.1016l-0.070313 1.582c0 0.11719-0.070312 0.63672-0.070312 0.80469-0.73047 10.559 10.512 5.1484 18.52 10.156-8.7656 7.7461-14.645-4.0156-24.355 1.5352 2.5508 5.9766 5.2695 4.5586 12.402 5.7148 9.543 1.5352 6.6602 3.707 14.102 5.2422 3.7305-9.3555-3.8984-4.9844 2.5273-8.457 3.7578 6.8984-8.2695 21.59-10.961 28.109-1.8203 4.3711-2.0781 7.3945-5.9531 9.543-2.4336-4.2773 3.2617-0.26172 0-6.543-1.0859-2.0547-4.5117-3.4727-7.5586-4.582-6.543-2.4102-14.102-6.5664-18-1.3477 4.1328 5.668 11.789 3.543 17.645 6.3555 3.6836 1.7734 3.8984 2.9062 5.3867 4.7227-4.1562-0.61328-9.9688-1.2266-13.535-2.6914-5.293-2.1719-6.3086-5.2695-12.59-3.2344-1.418 8.7148 3.6367 8.293 11.668 9.2109 6.3789 0.73047 11.668 1.7461 16.746 4.0391l-3.0703 7.6289c-14.883-4.8906-24.543-11.527-41.27-15.234-9.0938-2.0312-42.828-10.062-45.426 1.4883 3.8516 2.7891 35.195-1.1094 55.156 5.5508 8.5273 2.8359 4.9141 3.0703 8.5273 5.5508l10.676 3c3.5664 0.875 7.6523 2.5508 10.086 3.3555-4.0625 11.621-8.3398 15.684-12.992 25.348-4.4648 9.2344-7.3711 16.512-13.746 23.836-10.227-2.1953-13.254-5.9062-22.348-9-7.2773-2.457-17.551-4.1797-25.512-5.1484l-52.016-1.9609c-6.875 1.3945-3.2344 0.70703-4.8906 3.2617 3.5664 6.0234 6.4258 3.3789 14.031 3.4023l49.227 1.0625c1.5352 2.9531-1.0156 4.3242 2.7891 6.4961 1.9141 1.0859 8.6914 1.7461 11.387 2.0312 8.5039 0.89844 17.195 3.4023 24.637 3.5195l-4.7227 9.2852c-5.668-4.1797-11.102-6.5664-20.148-7.4883-7.8906-0.82812-17.219-6.1875-19.938 2.1484 11.789 5.3633 23.645 1.3477 36.828 9.1641-1.2031 6.0703-5.0312 11.172-8.2188 16.062-9.4961-0.26172-30.094-12.094-38.457-8.125-6.1406 2.8828 1.2539 4.0156-13.277 3.8047-15.898-0.21094-34.039 2.0781-49.512-1.3008-5.4102-1.1797-8.293-2.9766-9.9219 2.9766 7.3008 6.9922 48.684 3.7812 62.434 3.4492 0.09375 0.21094 0.14062 0.37891 0.16406 0.66016l3.5664 7.3945c2.457 5.3867-0.96875 2.6445 3.6836 7.2031 2.9531 2.9062 1.7734-1.1094 5.293 4.2266-5.2422 2.4805-8.8125-0.49609-14.645-0.92187l-4.4648 0.85156c-4.1797 8.4102 3.875 7.3242 12.332 8.3398 18.473 2.2422 10.629 1.6055 8.7891 6.4023l12.023 0.070312-12.945 20.691c-5.0078 6.5898-9.5898 13.746-13.395 19.938-23.27-8.5977-19.203-9.9453-50.738-18.805-8.7383-2.457-51.07-11.883-57.211-8.7891 2.0078 10.18 21.047 6.8516 40.277 10.652 6.543 1.2773 13.227 2.5508 20.008 4.3711l14.504 3.875c3.5898 1.7461 2.5977 0.75781 4.5117 4.1562-0.35547 0.16406-0.96875-0.1875-1.1328 0.23438-0.51953 1.2031-6.2109-1.5352-8.6914 4.3945 2.9297 5.3867 22.18 10.559 28.676 7.6758-2.3398-3.8516-7.1328-4.5586-11.621-6.707-4.9375-2.3398-1.9844-0.54297-4.5117-2.9531l19.277 1.9141c2.4805 11.125-2.3398 14.172-12.117 27.781-5.9297 8.2422-10.465 18.426-18.52 24.07-12.047-12.262-26.738-8.8359-53.219-15.52-9.7305-2.4805-18.094-4.1797-27.828-5.8828l-21.852-4.4883c-6.2344-1.6055-1.1797-2.8828-6.2617 0.61328-3.8281 9.9688 13.324 7.8438 21.473 8.9297 23.527 3.1406 67.938 9.9453 84.875 20.883-1.8203 3.707-1.3945 2.5742-3.8047 6.332-3.543-1.4883-3.332-2.4336-5.9297-3.875-2.6914-1.4883-4.6055-1.9141-7.8906-3.0234-6.5898-2.1953-11.148-5.3633-17.93-1.9609 1.4883 8.1719 21.637 7.7227 28.723 12.309-4.7969 10.441-14.387-3.707-24.094-2.8828-7.7227 0.66016-2.668 2.293-8.4336 4.3477-6.5898-3.2109-65.906-12.781-79.418-12.66-7.7734 0.046875-7.8438-0.1875-8.5508 5.0312l86.527 14.148c1.1094 2.3164-0.61328 0.44922 1.6758 3.2617 2.125 2.6445 2.293 2.125 6.1406 3.0469 5.0312 1.2031 8.125 0.92188 12.473 4.1328l-3.2852 4.0625c-5.6914-2.4805-21.945-15.309-31.582-8.668 0.1875 8.6211 1.3477 4.7227 13.773 7.582 5.5742 1.3008 11.125 2.9062 13.156 7.3711-8.668 5.8359-21.234-12.637-30.852-1.9609-1.7461 1.9844-2.2422 2.6211-3.4258 4.0391-18.73-2.3164-52.395-9.8516-73.914-14.434-9.1875-1.9609-16.746-7.8906-19.82 0.26172 4.7734 6.543 71.41 13.961 83.977 16.961 10.039 2.3867 17.789 6.2344 26.668 8.7383-4.8438 3.4258-14.078-0.875-19.559-2.0547-6.4258-1.3711-9.9453-0.63672-16.277 1.6758-4.1797 1.5117-1.2773-0.61328-5.1719 2.5508 1.4883 8.3867 16.203 8.5977 26.434 16.914-4.9375 3.332-15.637-1.7734-21.922-4.0391-11.836-4.2773-70.133-15.828-77.457-14.195-0.26172 9.5898 6.4961 7.2266 19.652 9.0938 17.031 2.4336 34.844 4.6758 50.836 10.512 4.2031 1.5586 9.8984 1.6758 12.473 2.9062 3.8047 1.8203 2.5508 3.543 4.3008 7.2773 0.11719 0.26172 0.44922 0.75781 0.58984 1.1797-5.5742 2.5273-13.891 9.8281-18.309 14.172-4.2773 4.2031-14.668 15.117-20.574 6.9219l11.812-1.6289c-0.63672-5.4102-2.5977-4.3008-1.582-6.875 1.1328-2.8594 4.3242-0.63672 7.0625-2.2695-2.1719-7.0859-18.52-13.797-26.457-13.301-6.6836 8.1953 0.68359 1.6055-1.7734 6.8516-9.4961-1.1094-21.992-2.3867-31.039-4.1328-5.0312-0.96875-8.8359-1.9844-13.797-3.0234-7.7227-1.6523-9.707-2.7383-10.629 4.6523 8.6211 5.0547 32.031 5.457 44.457 6.4727 9.1406 0.75781 10.559-1.0625 10.746 7.0859-4.6992 3.1641-6.8984 0.44922-13.535 0.51953-3.707 4.7969-0.09375 2.125-3.1172 6.543-24.805 2.125-41.008-6.7812-61.465-6.4961-10.844 0.16406-9.0234-1.8906-14.691-8.9766l-10.867-15.164c-13.133-26.789-18.52-36.402-10.844-71.242 2.7891-12.613 4.582-15.637 9.3789-25.891 9.707-20.668 3.2344-14.242 21.234-47.953 4.5586-8.5273 7.7734-13.938 12.969-22.371l20.977-31.301c3.2852-4.1328 5.8594-6.2344 8.7148-9.7578l123.19-158.1c20.621-28.016 24.852-26.93 40.867-46.773 3.1641-3.8984 6.0469-6.2617 8.7891-9.6133 26.316-32.102 55.867-62.172 81.164-94.086 12.402-15.613 31.301-28.277 42.117-45.473 13.203-20.977 21.117-22.156 23.41-30.473-4.7227-4.4883-7.9375-2.7891-13.227-7.7969-3.9688-3.7578-6.4961-7.2539-11.457-11.574-8.1016-7.0156-13.465-17.363-18.758-27.355l-15.992-28.488c-5.7891-10.844-15.023-38.953-14.812-51.66 0.1875-11.148-3-9.4727-3.4023-17.148-0.23438-4.5586 1.3242-15.188 1.4883-20.738 1.1094-38.766-1.8906-18.141 7.5352-55.844 11.977-47.977 20.715-46.441 27.73-62.953 5.0547-11.883 4.0625-5.5039 10.605-12.566 39.922-42.969 65.27-63.473 129.88-74.812 17.078-3.0234 66.234-5.7891 80.125 3.875-9.2109 3.9688-66.707-11.621-75.234 3.0703 5.9766 3.5195 22.488-0.58984 31.039-0.40234 11.48 0.28516 22.746 1.1094 33.781 1.3008 10.797 0.1875 29.715-3.875 38.363 2.2695 3.332 2.3633 2.6445 4.2031 3.4727 5.8828 4.2031 8.3867 3.8047 1.7461 11.859 6.332l-14.031 0.42578c-32.598-3.7305-65.953-5.3398-98.41-2.5508-8.1484 0.68359-10.676-0.26172-11.93 6.7305 4.7227 2.5273 21.898-2.0078 29.363-2.4102 32.148-1.7227 67.418-0.47266 98.242 3.7305 0.23438 0.33203 0.49609 0.49609 0.61328 1.0156l4.0859 3.8984c-0.35547 0.26172-0.96875 0-1.1797 0.49609-0.1875 0.49609-0.89844 0.37891-1.1562 0.47266-3.9219 1.582-4.3008 0.21094-6.5898 3.5664 2.5039 4.6289 11.977 5.4336 15.637 9.875-6.0703-0.54297-10.723-1.8672-15.637-2.6211-10.371-1.6055-1.8438 2.4336-13.203 1.0859-22.441-2.668-45.875-1.8203-68.668-2.3398-8.0078-0.16406-18.992-1.8672-26.48 1.4648-4.9609 2.2188-3.0469 1.1328-3.9922 4.582 6.3086 3.1406 93.094-4.582 94.227 0.92188 0.11719 0.56641 0.54297 0.78125 0.70703 0.99219 7.3008 9.5898 6.6367 2.1016 16.652 7.2773-8.9297 2.2188-15.73-2.0078-25.773-3-3.8281 3.6367-2.5742 0.58984-2.0078 7.1562-7.8906-0.85156-10.559-1.0859-10.371 6.5195 0 0.1875 0.1875 0.66016 0.070313 0.96875-9.6602-2.3398-37.867-3.1406-49.133-3.2344-8.2422-0.09375-16.914 0.61328-24.805 0.875-4.1094 0.11719-8.1484 0.046875-12.262 0.11719l-8.1719 1.1094c-2.8594 1.2773-0.78125 0-2.6914 2.0547 2.2188 4.0625 2.9531 4.2773 8.7891 3.875 41.457-2.8359 52.512-2.8125 96.355 3.0234-7.2031 6.0234-24.852-6-27.781 3.875 3.2617 3.3555 2.0312 2.3867 7.4414 2.9766 3.4258 0.37891 7.5352-0.23438 10.605 1.6289-10.109 6.4258-20.008-5.4336-28.652 0.16406 1.0859 7.2773 7.7734 5.3164 16.559 7.0859-2.9766 3.707-4.6992 3.1172-10.914 2.6445-5.1953-0.40234-9.8984-0.33203-15.117-0.26172-5.1016 8.8359-2.7891 3.7812-10.676 8.6445 0.42578 5.668-1.1562 4.8906 4.2031 5.7383l6.7812 0.35547c0.21094 0.046875 0.70703 0.1875 0.99219 0.37891-5.5039 2.7383-12.023 0.44922-17.953 3.0703-5.457 2.3867-2.293 0.37891-4.1797 4.4414 2.8828 4.6992 3.6602 1.2539 8.0312 2.8594-10.535 8.8594-14.008 5.4336-27.473 4.7969-8.6211-0.42578-6.7578-1.3242-9.707 3.1172 6.0938 8.1484 23.738-2.6914 28.277 7.9375-9.4492 4.8203-13.723-7.6523-21.047-0.09375l8.0078 6.6367c-7.0391 0-8.8828-0.99219-14.055 2.4102 2.1016 6.1875 6.7578 2.9062 14.836 3-2.4805 2.3398-2.9766 2.3398-4.1797 6.0234 3.7305 2.1953 1.8672 1.2539 6.1406 2.2695 1.418 0.33203 2.7383 0.47266 3.9453 0.85156 3.875 1.2266 1.2773-0.30859 3.9453 1.6992-2.8359 2.3398-0.49609 1.7734-5.293 1.9844-6.8984 0.33203-8.9062-4.9609-13.535 1.0859 1.2773 3.6367 0.58984 1.9609 3.4258 3.5664l11.668 4.3008c5.8125 1.8906 2.125-3.707 4.6523 2.9062 0.046874 3.4492-4.7734 2.5039-8.7891 3.2109-6.543 1.2031-5.0547-1.418-11.715 0.73047l0.28516 5.4805 18.875 1.7461-7.8438 4.5117c-8.5273 3.0469 0.16406-1.7227-7.0625 5.8125 1.1328 3.6133 1.2539 1.5352 2.7891 3.875 1.9375 3-0.44922 3.5664 2.2188 7.0625 3.6836 4.8672 0.61328-3.2617 3.6602 4.3945-11.316 2.3867-15.59-4.4648-18.188 4.7227 4.6055 2.6445 22.395 6.2109 25.039-0.63672 2.3867-6.2617-5.7656-3.875 2.2188-6.543 0.875 1.5586 0.80469 4.7969 0.28516 7.1562-2.5039 11.691-12.805 3.543-21.355 10.559 3.3555 8.5977 10.371 0.66016 17.977 5.8594-2.8594 2.5039-5.1016 0.85156-10.301 1.0625-1.8672 2.7383-2.1719 4.0625-1.4648 8.6445-5.5039-1.0859-4.6758-1.9609-9.0234 0.47266l-0.33203 5.457c11.551 2.9062 13.133-0.16406 21.543 7.8672-4.7227 3.4023-6.4961 5.457-7.5117 12.023 1.7969 1.1562 6 2.293 7.6758 4.0391 4.0391 4.1562-0.23438 4.5352 5.3633 8.8125 3.8984 1.6523 8.8125-0.26172 15.543 1.2031l47.457 12.59c10.016 2.1719 23.172 5.7891 32.691 7.3711 17.363 2.8828 36.66 11.977 53.102 9l2.0312-0.30859c0.28516-0.046874 0.73047-0.046874 1.0391-0.070312 9.3086-0.82812 9.7578-5.2695 17.621-11.434 3.6133-2.8359 7.6992-4.9609 12.922-8.4805 13.488-9.0703 10.938-8.5977 29.93-7.7969 7.0156 0.28516 33.945 1.8672 38.48 3.1172 5.1484 2.3633 1.3008 5.3398 10.18 7.5117 4.582 1.1094 11.293 0.70703 10.629 4.418-1.3477 7.7227-22.82-4.2773-25.441-5.1953-3.8516 2.125-2.6445-1.0156-3.2852 5.8359-8.5508-1.3945-17.125-3.0469-26.102-3.875-7.582-0.70703-21.141-5.125-27.828-0.33203 7.9375 9.5664 37.938 4.3711 51.117 8.9062 8.3164 2.8594 1.4648 5.9062 14.504 7.6289l-11.883 5.6211c-4.2031 1.0859-3.2344-1.2031-9.0703 0.42578 1.4648 8.5039 2.125 3.5898 6.1875 8.5039 2.2188 2.7148 0.66016-2.1719 1.6289 3.1172l-99.707-11.219c-13.914-1.2031-93.566-12.234-101.1-9.1641 7.1797 5.5273 164.46 17.668 189.59 22.156-1.9844 11.195 12.07 10.016 23.055 13.797l-3.0469 9.543c-0.070313-0.09375-2.7148-12.707-24.047-9.8047-2.4805 5.5508 0.70703 2.457-3.332 6.7578-12.309-1.0625-10.348 1.3242-24.875-1.8672-30.426-6.6367-100.54-15.023-133.89-19.535-23.527-3.1875-34.109-2.4102-57.59-2.4102 4.1094 7.0156 39.211 5.1719 59.195 7.9141l121.8 16.844c5.5273 0.89844 10.156 0.58984 15.262 1.5352 4.3008 0.80469 7.2266 2.9297 12.613 4.2539 8.5977 2.125 22.086 1.7461 29.055 6.1641-5.2188 10.652-16.844 3.2344-27.449 0.89844l-1.5352 6.7812c-5.6211-2.3867-6.2344-3.0469-11.195 0 2.2188 8.0078 7.3242 4.3008 14.34 7.6758l-4.0625 0.68359c-1.4414-0.09375-4.4883-0.94531-6.0938-1.3711-30.73-7.9375-134.15-18.379-166.65-18.875-3.4258-0.046875-10.914 0.09375-13.867-0.47266-8.5977-1.6523-3.6836-4.582-9.7305-3.6133-4.7969 14.242 42.164 10.227 47.27 10.629 19.535 1.4883 37.512 2.8594 56.41 4.7227l62.316 7.582c8.4102 2.7148-2.125 3.6133 14.219 5.1484 8.3633 0.78125 18.047 2.4805 27.66 3.4023-1.3242 3.9219-6.3789 9.1172-9.1406 10.465-10.039 4.8672 6.543-5.5977-2.9766-8.3633-0.85156-0.26172-15.449-0.61328-16.844-0.40234l-4.0859 1.7734c-5.0078 2.6211-10.301 0.1875-10.746 8.5039-0.28516 5.6211-1.0391 2.5039 0.85156 7.7461l-14.953-1.9141c-0.47266 2.4102-1.3008 5.1016-1.5352 6.9453-0.35547 2.7891-0.11719 2.0312-0.21094 3.543l-15 2.1953c-1.6523 4.3242-0.23438 5.293-2.0781 8.7148-13.301-4.2773-5.5273 3.1172-34.629-1.6289-32.789-5.3398-64.676-6.3555-95.031-10.938-10.535-1.582-9.0234-6.2344-16.465-2.8125 1.2539 6.8047 3.9688 6.4258 11.102 7.9609 22.062 4.7734 106.49 6.0703 114.76 15.707-6.3086 8.8125-8.5977-4.0859-19.465 2.7383 2.457 7.0391 2.3633 2.293 6.1875 8.0078-3.0703 1.582-22.891-1.0156-27.402-1.8438-4.7734-0.875-7.6289 0.70703-15.094-0.23438l-49.465-4.8906c-9.2852-0.99219-19.039-4.1328-27.117 0.42578-5.4336 3.0703-13.156-0.63672-22.227-2.9531 1.7734 5.7891 8.4336 5.0312 2.1484 7.4883-8.3398 3.2852-2.0547-0.21094-6.8984-1.4648-6.1172-1.5586-11.293-9.3086-16.938-4.3477l-3.3086 5.5742c-6.9922-0.99219-13.156-4.0625-20.242-4.1328-9.1406-0.11719-4.2266-1.1797-6.3789 3.3086 3.9219 6.9688 4.8672 2.2188 12.285 4.0391 6.6602 1.6055-0.14062 0.61328 3.5664 8.4336 10.324 0.94531 10.629-0.40234 18.211 5.9766-1.8906 4.9141-2.8125 5.8359-5.9062 7.8672l-0.63672-2.0312c-0.80469-5.3164 0.26172 0.85156-0.28516-3.1875-0.35547-2.6445 0.85156-2.8359-1.8438-4.9609l-2.0312-0.96875c-2.668-0.51953-1.2266-0.54297-3.2617 0.58984-3.8281 2.1484-0.89844 0.63672-2.4805 2.6445-0.26172 0.33203-0.49609 0.78125-0.70703 1.0859-0.23438 0.33203-0.54297 0.875-0.73047 1.1328-0.16406 0.26172-0.37891 0.82812-0.68359 1.1328-4.7734-4.4648-40.062-13.371-35.195-3.543 3.332 6.7578 24.59 1.7227 30.73 9.4492-4.6523 2.4805-5.8594 0.33203-7.7734 4.6055 5.1016 5.1953 4.2773 2.3164 11.008 4.6758l-18.332 1.5117c-6.8516-0.33203-14.078-3.1406-20.789-0.66016-0.30859 0.11719-0.82812 0.35547-1.1562 0.63672 3.8047 5.457 17.293 5.2695 23.293 6.2109 6.9453 1.0625 22.418 1.9844 17.316 10.676-2.4805 1.9375-6.543-4.7734-15.66-4.5586l-0.99219 3.707c-0.046875 0.21094-0.14062 0.73047-0.16406 0.92188-0.046876 0.21094-0.16406 0.78125-0.1875 0.92188-0.046876 0.16406-0.046876 0.66016-0.1875 0.92188-12.898 0.78125-1.8672 4.2773-26.789 0.23438-7.3242-1.2031-22.582-6.6367-27.262 0.92188 4.1562 5.293 13.699 3.2344 20.906 4.1562 6.9688 0.89844 15.73 0.89844 21.59 5.0781-3.0703 9.2344-0.58984 2.8828-4.6055 6.875-1.2773 1.2773-0.40234 0.16406-2.2695 2.3164l-3.0938 3.9219c-8.5977-1.3008-44.219-6.8984-48-5.9766 1.1797 8.457 3.8281 6.4023 13.277 7.7227 13.109 1.8438 44.953 0.23438 50.242 11.102-6.8047-2.3164-8.3164-4.0625-15.234-1.2773 2.3633 8.4805 8.7383 5.5742 16.699 9.1172-2.1953 5.7656-3.6602 5.9766-5.8828 12.969-4.8203-1.7461-3-1.0156-6.5195-3.7305 2.457-1.0859 4.8906-0.44922 5.0547-3.4727-2.0078-1.9609-14.691-10.086-15.781-10.535l-3.9922 3.6602c-0.21094 0.21094-0.54297 0.61328-0.73047 0.80469l-1.4414 1.6992c-8.2422-2.3633-43.441-9.4961-50.715-4.4648 1.0156 8.7656 12.285 5.6211 21.566 6.2344 9.5898 0.63672 16.867 0.99219 26.078 3.0938 2.668 4.3477-1.2031 7.8438 7.2266 9.543 3.7305 0.73047 8.9766 0.14062 12.07 3.1641 2.6211 2.5508 1.1562-0.28516 2.2695 4.1328-6.3555-1.2031-13.371-6.707-21.355-3.1172 1.2266 10.723 11.316 1.7734 16.559 12.332-0.44922 0.26172-1.5586 0.54297-1.8203 0.51953-4.4414-0.35547-10.961-5.6914-16.371-6.8281-6.0469-1.2539-4.3008 1.3242-8.457 2.5977-11.242 3.4492-54.332-9.6836-62.41-5.5508 1.8203 10.867 26.859 8.3867 36.969 9.2852 28.961 2.5977 15.426 3.5664 25.582 7.8672 3.0703 1.2773 7.7969 0.70703 11.27 0.78125 4.5352 2.4805 1.8203 1.3711-1.0391 4.6758l7.3945 1.2266-4.6289 9.5898zm-24.141-226.3c-3.9922 7.5117-10.418 12.707-14.836 18.805-16.605 22.867-29.766 31.418-46.133 52.254l-107.17 121.87c-6.1172 6.6836-9.4961 10.488-15.73 18.117l-44.953 53.41c-4.7227 5.9297-9.1875 12.262-14.48 19.348l-41.715 55.156c-19.324 24.047-40.277 50.434-56.434 75.73-2.7656 4.3242-3.543 6.4023-6.4727 10.418l-22.984 43.203c-1.7461 4.3242-2.7656 8.3867-4.0625 12.59-7.4648 23.883-22.559 46.086-16.062 79.348 1.7227 8.7383 8.2422 30.426 13.203 35.859 4.582 4.9844 3.875 3.8984 6.9219 10.016 1.9375 3.8984 11.008 15.496 15.52 18.309 14.125 8.7891 27.094 16.867 44.008 20.551 17.242 3.7812 41.953 3.9453 55.156-5.2422 18.758-13.086 17.457-8.8594 28.723-20.41 4.8906-5.0078 5.4336-3.707 9.875-7.0625 7.0859-5.3633 10.062-12.707 15.59-16.676 6.1406-4.3945 13.227-10.441 17.953-15.898 15.023-17.293 30.73-33.898 43.18-53.598 5.2188-8.2422 8.8125-12.707 14.953-18.945l33.047-48.402c2.1484-3.5664 3.9688-6.7578 6.4727-10.418l26.738-39.379c4.7461-8.5039 5.9297-13.723 11.34-20.859l24.945-41.172c3.7812-6.2852 6.9922-14.645 10.867-21.426 3.707-6.4492 10.961-14.977 12.898-20.906 5.1953-15.781 12.262-34.277 20.055-46.109 3.332-5.0312 6.0938-15.875 9.6836-22.535 4.2031-7.8203 6.6836-15.898 10.512-23.316 11.34-22.039 23.457-42.992 32.738-65.621 2.1016-5.1484 2.9062-7.4648 5.125-11.789 3.4492-6.5898 6.0234-15.332 10.844-21.496 5.2422-6.6836 4.7461-1.7227 6.8516-9.9219l10.82-23.504c49.254 3.0234 66.898 19.465 123.9 10.324 9.8281-1.582 20.738-3 30.66-4.3711l27-8.5039c10.512-4.5352 13.629-6.7812 22.938-12.379 8.8359-5.3164 13.277-6.5195 21.875-13.535 22.062-18.023 28.746-18.309 45.828-41.789 14.668-20.172 22.371-32.008 32.457-56.598 2.9531-7.1797 3.9688-19.559 7.0859-28.277 4.8203-13.465 1.2266-18.922 2.9297-29.078 1.3008-7.8203 4.3477-6.7812 2.7383-14.621-4.8203-23.457 1.4648-9.6367-8.1719-20.766-1.8906-2.1719-1.4648-3.2617-4.0625-6.707-7.582-0.30859-26.27 11.41-32.953 16.203-5.1484 3.707-8.6914 5.8594-14.836 9.8047l-16.418 9.7305c-15.52 9.8281-32.242 18.828-45.945 29.34-4.8203 3.707-11.836 7.4883-16.699 10.348-5.1016 1.3008-137.69-26.008-142.11-32.789-2.8828-10.797-0.40234-52.938-0.63672-66.426-0.1875-10.867-2.457-24.707-2.0781-33.852 0.35547-8.8828-0.11719-10.348-0.37891-18.543-0.33203-11.434 3.1172-1.6055 0.30859-15.496 4.2031-1.9609 5.668-5.0547 10.039-8.5977 11.008-8.9297 22.18-18.285 35.102-24.852 6.4961-3.3086 9.2109-6.9219 17.715-8.5039 4.3008-10.395 4.0391-6.1172 16.891-15.285 11.598-8.2695 25.441-20.27 39.543-26.551 6.7578-3.0234 16.867-7.9375 22.277-11.434-0.40234-7.7461 0.37891-4.2266-3.0703-8.8359-0.1875-0.26172-0.51953-0.58984-0.70703-0.85156l-1.6992-3c-7.5117-13.488-25.723-17.645-39.805-22.984l-65.102-16.086c-18.637-1.5586-33.473-2.2422-51.332 0.28516-25.348 3.5898-51.805 9.8047-74.883 20.715-4.0625 1.9141-4.1562 3.2852-8.5742 5.3867-14.293 6.8047-36.473 24.309-45.566 37.395-9.3086 13.371-30.637 30.117-36.496 45.094-3.8281 9.7305-6 10.371-10.086 17.387l-16.82 66.379-1.6992 49.773c0.875 15.637 1.9141 8.7383 3.7305 18.66 1.7734 9.8047 0.66016 13.891 4.8672 22.961 13.984 30.117 1.7734 17.219 26.906 56.148 7.5586 11.715 11.363 24.023 22.891 32.41 4.6523 3.3789 10.773 9.8281 15.473 12.07z" fill-rule="evenodd"/>
 <path d="m488.12 900.23-2.3867 1.2266c-1.1797 0.78125-0.99219 0.47266-2.1016 1.3711-2.8594 2.293-8.6211 7.5352-9.0703 10.891 6.0469 4.1328 7.6758 2.0781 15.164 3.4492 10.016 1.8203 7.0625 5.1953 12.684 5.8594 0.92188-3.8984 2.5977-4.9375-3.2109-9.4961l-4.2539-2.668c7.9141 0.51953 6.1641 1.9375 12.684 2.4805 3.8047-6.9922-0.92187-0.73047 1.6289-5.7891 2.8828-5.7148 0.42578 3.9922 3.6602-5.4336l-2.5273-2.5977c-0.23438-0.23438-0.61328-0.56641-0.89844-0.80469l4.8438-2.7383c-3.6133-7.6758-23.551-12.52-29.551-10.723-1.4883 4.418-0.61328 2.8828 1.4883 7.3477-13.891-0.33203-65.078-9.3789-81.164-8.457-1.5586 17.789 32.434-0.14062 83.008 16.086z" fill-rule="evenodd"/>
 <path d="m372.26 937.49c5.5039 5.2422 17.527 1.3477 37.465 4.1094 11.859 1.6523 23.883 3.707 34.844 6.0938-0.046874 14.789 1.2031 1.5586-4.8203 9.7812 3.5898 3.4727 2.6914 3.4258 8.8828 3.7578l-2.7383 3.4258c-1.1328 2.4805-0.66016 0.56641-0.80469 3.5664 5.4805 3 8.8125 2.4805 13.82 4.2539 8.1016 2.8828 5.1719 6.0938 10.914 2.5508 1.3945-5.0078 2.457-3.4727-2.9297-6.2109 9.4023-5.7656 5.7148 3.1172 7.1562-5.3867 1.3477-7.8203 1.7734-2.3867 2.2188-8.5742-12.234-10.582-57-18.566-76.203-20.457-7.4648-0.70703-26.691-5.3164-27.805 3.0938z" fill-rule="evenodd"/>
 <path d="m914.22 500.22c-4.8203-7.0391-26.031-7.3008-36.094-8.5742l-92.363-13.559c-4.7969-0.96875-23.172-12.566-27.945-3.543-4.8672 9.1641 27.992 9.8984 33.684 10.441l103.35 14.48c6.1875 1.5352 11.387 6.8984 19.371 0.75781z" fill-rule="evenodd"/>
 <path d="m473.55 780.71c3.332 5.5508 14.434 3.6836 26.41 3.7812 15.922 0.11719 40.039-0.85156 55.371 2.4102 3.8984 0.85156 7.6289 1.6055 10.914 2.8125 8.0312 2.9766 8.668 7.0625 14.738 0.40234-2.0781-4.9844-2.1953-5.0078-8.7148-6.4961-3.6133-0.82813-9.3555-2.3633-12.449-2.6445-21.094-1.9609-44.598 0.51953-73.676-3.4492-8.5508-1.1562-8.1016-2.0547-12.59 3.1875z" fill-rule="evenodd"/>
 <path d="m531.19 716.34c2.6211 11.078 30.164 4.7461 49.441 10.086 9.543 2.6211 2.5742 5.457 2.8125 12.449 7.4414 2.1953 16.441 5.3164 22.984 7.0391-1.4648-6.8047-3.0469-5.2422-3.4258-7.2031-1.0859-5.8828 1.3711 4.1562 1.7461-7.1797-7.3008-7.0859-22.016-9.8281-34.301-11.645-5.7891-0.85156-36.73-6.2344-39.262-3.543z" fill-rule="evenodd"/>
 <path d="m705.54 516.36c1.4648 3.6367-5.5273 3.543 15.805 4.3945 19.961 0.80469 44.125 6.7812 58.039 4.6289-5.4805-3.6133-27.426-5.125-36.023-6.6836-9.5664-1.7734-28.676-7.8203-37.82-2.3398z" fill-rule="evenodd"/>
 <path d="m709.32 190.46c2.1719 6.4961 0.37891 5.1719 24.309 4.582 8.3164-0.1875 20.363 1.6758 25.395-3-6.4258-2.3867-46.395-5.2188-49.699-1.582z" fill-rule="evenodd"/>
 <path d="m551.15 774.57c4.9609 4.7461 25.371 5.4336 33 8.5742 3.5664-7.4648-7.9844-8.9766-14.859-10.254-8.0078-1.4648-18.402-8.2188-18.141 1.6758z" fill-rule="evenodd"/>
 <path d="m539.67 793.02c4.9141 3.8047 9.1875 3.1172 19.418 5.4336 17.055 3.8281 10.891 7.5117 17.387 5.3164 1.1328-9.1641-8.457-8.7891-17.008-10.488-7.6055-1.5352-19.039-7.6289-19.797-0.26172z" fill-rule="evenodd"/>
 <path d="m544.49 847.2c1.4648-2.293 1.9141 0.875 1.1562-3.1641-1.1797-6.2109-25.016-11.293-27.164-9.2852-7.6992 7.1797 6.5195 7.7227 10.395 8.1016 5.4805 0.51953 14.148 4.5352 15.613 4.3477z" fill-rule="evenodd"/>
 <path d="m707.41 208.96c4.582 3.1641 10.348 0.28516 18.332 0.51953 6.7812 0.1875 12.922 1.4648 20.691 1.5352-5.293-8.8125-39.211-10.559-39.023-2.0547z" fill-rule="evenodd"/>
 <path d="m357.07 1065c1.3477 2.9297-2.0078 2.6445 10.465 6.2852 5.668 1.6289 8.1016 3.7578 15 2.3633 0.30859-10.301-20.527-10.844-20.906-10.797-8.0312 1.0859-1.9141-0.070313-4.5586 2.1484z" fill-rule="evenodd"/>
 <path d="m456.05 939.38c1.1562 6.7305-0.16406 3.543 7.3945 5.4336 7.0391 1.7734 4.6055 3.2344 11.621 2.9766 0.92188-11.27-15.781-13.324-19.016-8.4102z" fill-rule="evenodd"/>
 <path d="m765.07 485.62c-6.0234-2.9766-25.512-7.2031-32.242-5.4336 1.8438 6.0703 23.977 6.9922 27.094 6.8516 4.6758-0.1875-2.0547 0.68359 2.6914-0.33203z" fill-rule="evenodd"/>
 <path d="m544.7 805.3c1.2773 2.3633-2.5508 1.0625 3.8047 3.6133 1.9375 0.78125 4.3242 0.89844 6.5195 1.418 5.1484 1.1797 6.7578 2.6445 12.449 2.9531-1.2266-8.2188-16.652-12.402-22.773-7.9844z" fill-rule="evenodd"/>
 <path d="m1007 376.94c-5.3164-1.1797-6.4258-1.9609-12-2.1484 1.4883 9 12.828 11.363 20.008 7.9844-1.4883-5.4102-1.7461-4.418-8.0078-5.8359z" fill-rule="evenodd"/>
 <path d="m629.27 698.86-0.68359-5.1719c-6-3.3789-15.992-6.4492-20.293-0.99219z" fill-rule="evenodd"/>
 <path d="m715.84 360.5 11.41 0.63672c-1.4414-6.8516-13.867-12.781-11.41-0.63672z" fill-rule="evenodd"/>
</svg>
