<?xml version="1.0" encoding="UTF-8" standalone="no"?>
<!-- Created with Inkscape (http://www.inkscape.org/) -->

<svg
   width="59.981102"
   height="59.981102"
   viewBox="0 0 15.87 15.87"
   version="1.1"
   id="svg1"
   xml:space="preserve"
   xmlns="http://www.w3.org/2000/svg"
   xmlns:svg="http://www.w3.org/2000/svg"><defs
     id="defs1" /><g
     id="layer8"
     style="display:inline"
     transform="translate(18.488741,1.2784784)"><g
       id="g8"
       transform="matrix(0.01167564,0,0,0.01167564,-17.818121,-0.19123864)"><path
         d="m 667.71,1159.8 c -5.5469,-3.168 -10.461,-7.3359 -14.488,-12.297 -15.719,-30.512 -28.758,-62.52 -46.035,-92.074 h -0.004 c -13.754,-25.578 -20.879,-54.195 -20.719,-83.234 -2.6758,-61.734 -3.6953,-123.54 -6.4609,-185.27 -1.293,-28.871 -5.0664,-57.633 -7.8555,-87.965 -28.16,-6.4727 -55.164,-14.375 -82.73,-18.652 v -0.004 c -54.492,-10.008 -107.5,-26.871 -157.75,-50.191 -10.473,-5.2109 -20.625,-11.047 -30.398,-17.477 -7.4258,-4.6445 -11.879,-12.832 -11.738,-21.59 -4.6211,-48.043 7.0273,-88.297 45.297,-121.91 26.438,-23.223 52.656,-44.145 86.945,-53.023 h -0.004 c 10.613,-2.5195 21.391,-4.2891 32.25,-5.2969 18.734,-2.1133 21.293,-3.4688 26.02,-21.188 v 0.004 c 3.7891,-13.547 6.7422,-27.312 8.8359,-41.219 4.6875,-33.984 8.4883,-68.09 12.773,-103.18 -5.6484,-3.332 -10.758,-6.6875 -16.16,-9.4766 -33.363,-17.207 -47.207,-45.926 -49.613,-82.02 -0.98047,-14.691 -3.7461,-29.266 -6.0195,-46.289 h 0.004 c 22.734,-29.277001 55.934,-48.602001 92.621,-53.910001 26.223,-4.3164 52.441,-8.8008 78.797,-12.164 34.277,-4.3711 67.082,5.3047 99.234,14.637 8.8633,2.4023 16.852,7.2969 23.012,14.109 6.1562,6.8125 10.227,15.254 11.723,24.316 3.8203,27.500001 10.961,54.859001 5.5117,83.434001 v -0.004 c -5.01559,24.805 -19.816,46.539 -41.05499,60.293 -3.832,1.6836 -6.92971,4.6797 -8.74221,8.4531 -1.80859,3.7695 -2.207,8.0625 -1.125,12.105 2.5078,11.441 3.7305,23.207 6.8203,34.473 10.109,36.844 20.816,73.523 32.34,113.93 13.27301,0.74219 28.586,2.3164 43.895,2.332 v -0.004 c 28.371,-1.0195 56.27,7.4531 79.27701,24.082 23.01199,16.629 39.812,40.461 47.74199,67.719 21.957,68.859 12.199,60.227 -26.414,99.305 -28.07799,27.348 -59.586,50.941 -93.72699,70.195 -24.58601,14.512 -52.44501,14.691 -78.594,22.125 -7.4766,2.125 -15.297,3.043 -23.375,4.5938 -3.0547,62.371 0.46094,124.89 10.484,186.53 1.9922,12.32 2.6094,24.863 3.918,37.301 3.1758,30.109 6.4336,60.215 9.5664,90.328 2.582,20.957 -0.62891,42.223 -9.2773,61.488 -8.1328,19.465 -14.785,39.516 -19.906,59.984 -1.1016,7.5391 -1.207,15.195 -0.31641,22.766 z M 596.855,135.6 c -7.5508,-0.0898 -16.453,-6.5508 -23.727,6.4805 l 18.906,2.5078 c -15.273,8.625 -32.977,11.926 -50.332,9.3945 l 22.664,-9.9727 c -1.293,-8.6328 -2.5078,-16.742 -4.1953,-28.031 l -56.32,15.918 c 5.0898,-18.816 3.9258,-38.777 -3.3164,-56.875 -22.812,5.4609 -36.891,20.062 -51.332,39.93 7.4922,10.391 12.816,24.934 22.992,30.324 19.113,10.293 39.816,17.32 61.246,20.785 25.645,2.6484 51.449,3.3789 77.199,2.1758 24.254,1.9609 48.516,-3.7383 69.359,-16.297 l -25.199,1.9922 c 14.391,-12.633 35.926,-7.7031 50.289,-25.156 -24.051,2.4648 -45.18,4.6289 -66.305,6.7891 l 14.773,-12.656 -2.0781,-5.3359 c -19.125,2.3281 -39.207,0.83984 -54.625,18.027 z m 47.062,662.92 0.004,0.004 c -5.9492,16.797 -6.4141,35.047 -1.3242,52.125 5.8789,-6.8281 9.6992,-15.184 11.016,-24.098 1.3125,-8.9141 0.0664,-18.02 -3.5938,-26.254 -2,-1.0508 -4.2422,-1.5508 -6.4961,-1.4531 6.0859,-13.461 8.6836,-28.234 7.5586,-42.961 -1.1953,-18.18 -1.3555,-36.41 -0.47266,-54.609 h -50.336 c -6.2266,27.172 -7.4883,55.246 -3.7227,82.867 2.2578,28.695 4.0547,57.43 5.7617,86.164 1.9023,32.023 3.2305,64.082 5.3906,96.086 0.57031,7.0156 2.3984,13.875 5.3984,20.242 8.4961,18.309 17.891,36.203 26.754,54.344 7.375,15.094 14.5,30.309 21.734,45.469 l 4.2695,-1.7578 h 0.004 c -0.59375,-3.6289 -1.4102,-7.2188 -2.4492,-10.746 -6.8203,-14.691 -12.266,-29.98 -16.27,-45.676 -6.1953,-37.664 -10.453,-75.625 -12.758,-113.73 -1.2422,-23.531 -3.9805,-46.973 -4.2188,-70.676 -0.37891,-37.551 -4.4297,-75.062 -6.6719,-112.61 0.008,-5.668 0.38672,-11.324 1.1328,-16.941 l 4.668,-0.46094 0.004,0.004 c 1.9727,7.9648 3.5156,16.027 4.6211,24.16 1.1484,13.254 0.42969,26.707 2.1094,39.867 h -0.004 c 1.7852,7.1719 4.4336,14.102 7.8945,20.633 z m 96.879,-339.76 -35.473,43.375 h 0.004 c -3.0977,0.26172 -6.1484,0.9375 -9.0664,2.0117 -27.75,14.965 -59.398,21.133 -90.738,17.688 -24.121,-2.5273 -48.059,-6.6016 -71.656,-12.199 -14.34,-3.7031 -28.059,-9.4922 -40.719,-17.18 -7.2305,-3.2148 -13.055,-8.9336 -16.402,-16.105 -3.3477,-7.1719 -3.9922,-15.309 -1.8164,-22.914 0.90234,-7.0352 0.98438,-14.152 0.25391,-21.207 -65.25,6.457 -102.53,49.855 -141.22,96.281 2.5039,-26.648 22.066,-38.461 35.691,-57.613 -40.59,15.805 -70.586,69.219 -61.301,105.36 1.8359,6.4258 5.9375,11.969 11.551,15.598 26.297,15.09 53.18,29.16 79.98,43.359 v 0.004 c 5.5273,2.9219 11.32,5.3125 17.301,7.1289 56.062,17 111.76,35.973 170.63,40.773 47.754,3.8945 96.281,5.8633 141.1,-13.871 49.41,-21.887 95.18,-51.207 135.71,-86.941 8.4844,-6.8984 16.5,-14.352 23.988,-22.316 4.3516,-5.0898 6.7227,-11.578 6.6758,-18.277 -2.0469,-34.852 -18.434,-67.301 -45.262,-89.641 -26.832,-22.336 -61.711,-32.57 -96.359,-28.27 -6.4844,1.2266 -12.867,2.9492 -19.09,5.1445 z m -124.74,-83.762 -6.293,21.277 c 11.133,-1.5664 22.145,-3.8906 32.961,-6.9609 3.3711,-3.2344 5.8398,-7.293 7.1641,-11.773 -3.4453,-2.293 -7.2969,-3.9141 -11.348,-4.7812 -7.6758,0.36328 -15.32,1.2109 -22.887,2.543 l 29.555,-15.195 c -10.477,-24.711 -5.1719,-54.062 -30.246,-74.559 l 31.621,-7.0625 -0.625,-1.7461 h -34.734 c 15.23,-5.5781 31.016,-9.5078 47.082,-11.715 6.8945,-1.2422 11.547,-4.3359 6.8594,-14.527 -46.66,14.121 -94.059,2.4414 -143.86,3.4375 -1.8281,13.512 -3.3477,25.629 -5.1211,37.711 -7.6875,52.449 -15,104.96 -23.512,157.27 h 0.004 c -1.4453,4.8242 -1.0391,10.012 1.1367,14.555 2.1797,4.5391 5.9727,8.1016 10.641,9.9922 42.426,24.129 91.336,34.375 139.88,29.312 21.855,-2.9688 41.941,-13.629 56.652,-30.066 l -13.793,-6.8438 30.457,-12.297 c -0.37109,-4.7383 -0.76563,-9.8008 -1.2148,-15.566 l -84.309,16.246 v 0.004 c 5.7305,-3.918 11.98,-7.0117 18.57,-9.1992 5.1445,-2.5625 8.9141,-7.2461 10.316,-12.824 -1.9141,-11.727 -4.7617,-23.277 -8.5234,-34.547 l -43.793,4.8789 -8.8516,-20.383 -17.355,-1.0547 c 16.676,-11.367 16.402,-11.312 13.289,-27.098 -3.625,-18.383 -7.0352,-36.82 -9.8711,-55.336 -1.1445,-7.4727 2.7695,-9.9727 7.6836,-7.4531 4.7773,26.512 9.0273,51.473 14.066,76.273 h -0.008 c 2.1289,3.1602 5.0156,5.7344 8.4023,7.4844 z m -29.812,-167.91 c 8.3477,-7.9102 20.566,-6.0117 28.613,-17.188 -28.883,-2.5234 -56.137,-2.9766 -82.605,-7.7617 -26.074,-4.7148 -51.355,-13.82 -79.418,-21.684 v -0.004 c 1.6602,8.582 3.9766,17.023 6.9297,25.25 14.152,31.438 69.184,58.828 102.57,51.496 v 0.004 c 2.9102,-1 5.6992,-2.3086 8.332,-3.8984 16.09,-7.5 32.215,-14.922 48.246,-22.531 2.6016,-1.4844 5.0781,-3.1719 7.4102,-5.0469 l -1.2148,-2.7891 z m 15.953,-133.94 -0.83984,-5.0898 c 6.8828,-2.9492 14.336,-4.332 21.82,-4.0469 11.395,3.6328 21.969,9.4609 31.129,17.152 11.562,10.812 26.832,16.781 42.66,16.684 -0.19531,11.207 1.4375,20.684 14.777,21.453 5.1172,-9.7969 5.3516,-21.422 0.64062,-31.422 -4.7109,-9.9961 -13.824,-17.215 -24.637,-19.508 -21.125,-5.5273 -42.641,-9.4297 -64.359,-11.672 -19.207,-3.7227 -39.082,1.1914 -54.344,13.438 l 2.0781,34.398 22.312,-4.1406 0.0586,-2.6094 -15.254,-4.0977 0.004,-0.0039 c 4.5664,-3.7344 9.5547,-6.918 14.863,-9.4883 5.7734,-1.7461 12.152,-1.3906 18.145,-2.5859 2.0273,-1.332 3.7305,-3.1016 4.9844,-5.1797 z m 72.871,364.75 36.598,-14.328 c -4.457,-21.102 -5.0703,-41.781 -15.293,-60.578 -22.355,10.336 13.922,24.191 -5.918,32.73 h -28.02 c 4.4805,14.957 7.9492,26.535 12.633,42.172 z M 515.358,84.948 c 3.8867,29.184 6.8789,33.309 20.762,30.609 23.016,-4.4766 26.945,-14.105 17.223,-44.926 z m 154.43,982.64 c 16.988,-28.227 19.266,-45.078 9.8203,-67.184 -25.691,18.105 -18.102,41.398 -9.8203,67.184 z m -5.7031,-851.07 1.4375,5.8398 c 14.152,5.3672 24.93,-1.2656 36.461,-10.051 18.801,-14.328 13.961,-31.922 10.191,-51.051 -28.855,6.7617 -7.2617,29.418 -15.695,43.863 z m 4.3008,726.03 3.6445,-1.5742 c -0.52344,-9.2773 -0.95703,-18.559 -1.6797,-27.82 h 0.004 c -0.60938,-1.2734 -1.5273,-2.3711 -2.6719,-3.1914 -25.262,21.496 -26.156,24.719 -13.766,57.52 3.2188,-5.7109 5.9336,-11.691 8.1133,-17.875 1.2188,-7.4609 1.9141,-15 2.082,-22.559 z m -16.102,-723.37 -4.6406,-5.1406 c -6.2031,19.406 -19.723,5.125 -29.754,10.547 -10.379,4.4766 -21.172,7.9219 -32.227,10.285 l 0.6875,2.3438 h 63.539 z m 2.9688,790.14 c 19.555,-14.289 30.77,-27.941 16.562,-51.457 v 0.004 c -0.71875,5.4023 -2.7461,10.547 -5.9102,14.984 -20.801,6.4609 -12.168,20.668 -10.652,36.469 z m -8.6328,-99.664 c 18.246,-14.637 8.7539,-32.293 7.3438,-51.562 -21.953,16.176 -6.8867,34.734 -7.3438,51.562 z m 8.6602,204.8 h -0.004 c 1.9023,-2.2656 3.5781,-4.7148 5.0039,-7.3047 -13.598,-28.504 -27.254,-56.98 -40.965,-85.43 l -4.125,1.8711 c 12.902,29.234 25.801,58.473 40.086,90.863 z m -83.406,-996.43 c 17.105,6.2344 36.211,3.3867 50.754,-7.5703 -18.605,-7.4922 -24.5,-6.6797 -50.754,7.5703 z m 76.242,215.73 c 12.508,-0.32812 20.406,-3.0312 16.273,-14.785 -2.4727,-4.0859 -6.8945,-6.5938 -11.668,-6.6133 -12.543,3.6836 -6.8438,12.461 -4.6055,21.398 z m 21.105,5.5703 c -8.5625,1.5977 -17.793,0.51562 -16.246,12.738 h -0.004 c -0.0781,2.8281 1.2852,5.5 3.625,7.0977 2.3359,1.5938 5.3242,1.8906 7.9297,0.78906 12.461,-2.957 7.6758,-10.957 4.6953,-20.625 z m -0.19141,48.352 c 4.2461,-3.0312 7.8906,-6.8203 10.754,-11.18 -1.1211,-3.6836 -3.7109,-6.7461 -7.1602,-8.457 -4.9297,2.3789 -9.5312,5.3828 -13.691,8.9414 z m 7.2812,-65.102 c 3.1289,-18.531 2.5938,-20.355 -9.4648,-36.18 4.0078,15.312 6.7344,25.746 9.4648,36.18 z m -16.223,-28.086 c -3.0352,-2.7969 -6.6758,-4.8594 -10.633,-6.0234 -3.5742,1.8359 -6.7695,4.332 -9.418,7.3516 2.3047,3.1289 5.3906,5.5938 8.9492,7.1523 4.3047,-1.9297 8.1055,-4.832 11.102,-8.4805 z m 28.113,-96.941 -0.96484,-6.75 v -0.004 c -10.867,-0.73828 -21.508,3.3516 -29.078,11.184 z m -3.8242,-76.379 c -5.3633,-11.992 -12.336,-15.203 -26.781,-3.7422 z m -18.133,722.88 -2.9844,0.33984 1.3008,26.82 5.3125,-0.69141 z m -2.4297,-54.254 -4.5156,-0.29297 4.1406,22.746 1.8359,-0.27734 z m 21.246,-430.48 c 7.9922,-11.727 6.0898,-17.277 -2.7617,-22.156 0.70703,5.6641 1.4102,11.328 2.7617,22.152 z m -47.473,-260.62 0.58203,7.6055 19.168,-3.5117 -0.85547,-5.7891 z m -20.09,-9.0078 0.84766,3.168 15.949,-3.2891 -1.1445,-4.5703 z m -100.29,-20.383 0.99609,3.5312 13.934,-4.7305 -0.58984,-2.2188 z"
         id="path1-35" /><path
         d="m 740.8,458.71 20.055,-29.309 4.6875,1.543 -4.0547,24.418 -56.238,61.293 -3.1094,-1.3164 3.1836,-13.254 c 11.828,-14.457 23.652,-28.914 35.477,-43.375 z"
         id="path2-62" /><path
         d="m 761.06,455.14 h 24.309 l 1.2383,-3.8867 -14.238,-10.82 1.418,-3.8086 30.637,7.6211 -8.0195,15.668 c 15.145,23.434 26.387,-9.4805 42.254,-2.2773 l -8.418,18.703 17.215,14.699 -1.8516,3.4844 -27.383,-13.039 c -14.211,14.703 -28.625,29.617 -43.039,44.531 l 0.375,-0.40234 c -14.336,5.7188 -28.137,12.055 -33.266,28.516 l 0.36719,-0.39844 c -17.18,3.3203 -17.18,3.3203 -38.125,19.852 3.4492,9.3398 7.1367,19.316 11.176,30.254 l 35.18,-7.7148 v -0.004 c -3.5234,5.4805 -8.1992,10.125 -13.703,13.613 -21.359,-1.332 -27.098,11.547 -30.465,29.52 l -3.7969,-19.551 c -6.7773,-0.14844 -13.543,0.66406 -20.09,2.4141 -5.1211,2.8203 -9.2891,7.0898 -11.984,12.277 -2.6445,6.3086 -6.1289,12.23 -10.355,17.605 0.42969,-7.4492 0.85937,-14.898 1.418,-24.598 h -55.141 l -0.61719,-5.5039 55.023,-9.6797 c -4.25,-14.551 -8.4531,-28.93 -12.969,-44.391 v 0.004 c 4.5312,0.92188 8.6211,3.3398 11.613,6.8672 2.9922,3.5234 4.7109,7.9531 4.8828,12.574 2.4336,8.8516 5.4531,17.547 8.875,28.434 l 30.254,-7.7852 v 0.004 c -1.2461,-8.5547 -3.2305,-16.98 -5.9375,-25.188 -3.293,-6.6445 -7.668,-12.695 -12.949,-17.902 -3.0273,-0.44922 -6.1211,-0.12109 -8.9883,0.95312 1.9805,-6.1875 3.8047,-11.891 5.0977,-15.938 38.496,-19.469 62.23,-53.977 94.184,-81.242 z m -32.555,84.914 c 12.297,-1.6953 23.359,-8.3555 30.613,-18.43 -4.6133,-8.1016 -9.9688,-13.047 -17.266,-6.9531 l 0.004,0.004 c -6.6172,6.3125 -12.75,13.109 -18.352,20.332 -6.7578,1.2734 -12.988,4.5117 -17.91,9.3125 -4.9219,4.8008 -8.3125,10.949 -9.7539,17.672 7.0117,0.0117 13.863,-2.0703 19.684,-5.9805 5.8203,-3.9062 10.34,-9.4648 12.98,-15.957 z m 79.316,-61.883 c -17.367,-10.176 -17.762,-10.586 -26.164,-2.457 -9.2031,8.9023 -17.578,18.656 -29.227,31.164 6.2305,2.4766 12.953,3.4609 19.633,2.875 12.441,-9.3281 23.512,-20.488 35.758,-31.582 z"
         id="path3-9" /><path
         d="m 775.18,526.02 26.023,10.227 21.215,-23.852 4.1992,2.7227 v -0.004 c -3.6914,7.8555 -8.043,15.383 -13.004,22.5 -3.3477,2.4766 -5.1758,6.5117 -4.832,10.664 0.34766,4.1484 2.8164,7.8281 6.5273,9.7188 16.781,-4.5234 24.387,-21.734 40.555,-29.535 -1.2422,4.6445 -3.2148,9.0586 -5.8438,13.082 -7.457,7.9062 -15.352,15.387 -23.645,22.414 -3.6367,2.1367 -6.1562,5.7578 -6.8945,9.9102 -0.74219,4.1484 0.37109,8.418 3.0469,11.68 10.617,-3.4102 21.609,-6.6172 32.359,-10.5 7.7109,-2.7852 9.8477,0.73828 10.121,7.4297 l -58.738,18.852 c 0.58203,-7.5742 1.0703,-13.891 1.8438,-23.938 l -44.203,24.918 -2.7969,-3.4844 c 2.1953,-2.8047 4.6914,-5.3594 7.4414,-7.6172 9.7305,-6.4023 19.969,-12.051 29.566,-18.637 4.5156,-3.0977 4.0547,-3.7695 0.96484,-18.547 -18.695,11.441 -36.711,22.469 -56.43,34.539 v -34.828 l -0.36719,0.39453 c 3.6797,5.6953 7.3594,11.395 12.188,18.863 12.434,-9.2852 23.773,-17.75 35.559,-26.547 l -14.477,-20.832 z"
         id="path4-1" /><path
         d="m 386.54,574.69 c 25.07,-32.566 58.07,-58.16 95.852,-74.34 -30.793,26.066 -61.582,52.133 -92.375,78.199 z"
         id="path5-2" /><path
         d="m 371.64,545.74 c 8.2422,-30.559 57.004,-78.762 85.797,-85.098 -16.422,14.703 -31.363,27.07 -45.086,40.664 -13.473,13.344 -25.707,27.938 -40.711,44.434 z"
         id="path6-7" /><path
         d="m 453.18,588.32 c 12.535,-17.684 30.125,-31.164 50.461,-38.672 -15.789,14.191 -29.219,31.367 -50.461,38.672 z"
         id="path7-09" /><path
         d="m 612.96,608.28 c 2.7383,-14.238 5.4805,-28.48 8.2188,-42.723 9.6562,16.539 -1.5859,29.242 -1.9219,43.895 z"
         id="path8-36" /><path
         d="m 349.32,555.68 c 6.5625,8.3906 13.125,16.785 19.688,25.176 l -4.0547,3.1289 h -0.004 c -9.8477,-5.1484 -17.16,-14.102 -20.23,-24.781 z"
         id="path9-06" /><path
         d="m 537.45,405.93 c -0.52344,-34.047 -4.6914,-63.629 3.6523,-94.512 6.6523,31.32 5.3945,63.801 -3.6523,94.512 z"
         id="path10-2" /><path
         d="m 563.54,452.97 c -7.2656,-33.418 -5.7578,-68.152 4.3867,-100.81 l 4.6406,0.44922 c -3.0078,33.453 -6.0156,66.91 -9.0273,100.36 z"
         id="path11-61" /><path
         d="m 613.33,857.04 c 1.3008,1.8359 2.2812,3.875 2.9062,6.0352 3.125,31.078 6.0508,62.18 6.9883,93.48 -11.645,-32.223 -10.254,-65.84 -9.8945,-99.516 z"
         id="path12-8" /><path
         d="m 609.32,780.6 v 42.355 l -2.6211,0.22656 c -1.0938,-14.406 -2.1836,-28.812 -3.2773,-43.223 z"
         id="path13-79" /><path
         d="m 591.67,144.88 4.8203,-9.7148 42.738,0.0781 h 0.004 c -14.043,9.1641 -31.059,12.613 -47.562,9.6367 z"
         id="path14-2" /><path
         d="m 542.6,222.88 c -7.3594,-13.164 -7.3594,-13.164 3.2656,-28.266 z"
         id="path15-02" /></g></g></svg>
