<?xml version="1.0" encoding="UTF-8" standalone="no"?>
<!-- Created with Inkscape (http://www.inkscape.org/) -->

<svg
   width="59.981102"
   height="59.981102"
   viewBox="0 0 15.87 15.87"
   version="1.1"
   id="svg1"
   xml:space="preserve"
   xmlns="http://www.w3.org/2000/svg"
   xmlns:svg="http://www.w3.org/2000/svg"><defs
     id="defs1" /><g
     id="layer8"
     style="display:inline"
     transform="translate(17.941313,-39.220541)"><path
       d="m -12.390173,48.972636 c -0.305686,0.250146 -0.625314,0.514121 -0.931001,0.764267 -0.680909,0.555838 -1.334005,1.139443 -2.028799,1.681405 -0.250149,0.194558 -0.50024,0.375168 -0.694794,0.625314 -0.0556,0.06948 -0.166729,0.13896 -0.236208,0.111183 -0.06948,-0.02775 -0.0556,-0.138959 -0.0556,-0.22232 -0.01389,-0.319628 -0.01389,-0.639198 -0.02777,-0.944943 -0.02777,-0.458588 0.208438,-0.708681 0.56972,-0.958826 0.305686,-0.208444 0.625315,-0.41688 0.903232,-0.667032 0.305685,-0.277912 0.653084,-0.528065 0.958828,-0.819867 0.277919,-0.264035 0.597547,-0.458588 0.861522,-0.736507 0.111183,-0.111183 0.264033,-0.152837 0.333513,-0.305687 0.0417,-0.08336 0.125074,0.05558 0.222323,0.02775 -0.0556,-0.111183 -0.01389,-0.194552 0.08337,-0.264028 0.389107,-0.27792 0.722562,-0.625316 1.083902,-0.931001 0.305686,-0.264036 0.597546,-0.541954 0.958827,-0.708681 0.208438,-0.09725 0.291802,-0.333512 0.4724717,-0.458588 -0.08337,-0.264029 0.2223235,-0.291802 0.2918025,-0.458588 0.069482,-0.180668 0.208438,-0.333511 0.2918021,-0.514124 0.1945529,-0.444644 0.3473971,-0.903232 0.4446449,-1.361795 0.083366,-0.347398 0.2084393,-0.667026 0.4168773,-0.944943 0.5419508,-0.75039 1.2784214,-1.181151 2.2372369,-1.195047 0.2918025,0 0.583605,0.01389 0.8615221,0.111183 0.2918017,0.09725 0.486355,0.305686 0.4307606,0.667025 -0.069479,0.458587 -0.2640337,0.819869 -0.5141251,1.181151 -0.1111865,0.166728 -0.2640337,0.291802 -0.3751662,0.444646 -0.3473969,0.458587 -0.7365041,0.875463 -1.1672543,1.264525 -0.3751649,0.333513 -0.8198682,0.555832 -1.306212,0.680909 -0.1806699,0.04172 -0.3473982,0.111183 -0.5419515,0.125076 -0.3891072,0.04172 -0.5975452,0.347395 -0.8476376,0.597547 -0.069482,0.06948 0,0.125069 0.055597,0.166727 0.041712,0.02776 0.097253,0.08337 0.1250751,0.01391 0.1111831,-0.291802 0.3891069,-0.264035 0.6114301,-0.333512 0.4863557,-0.152843 0.9865962,-0.250146 1.4590679,-0.430762 0.1528432,-0.05558 0.2779168,-0.125077 0.3751659,-0.236209 0.1111854,-0.12507 0.2223226,-0.250146 0.3473969,-0.361279 0.250149,-0.250149 0.5280661,-0.416876 0.9032323,-0.361281 0.4446447,0.0556 0.8893484,0.09725 1.2645258,0.347399 0.3335115,0.222318 0.6670251,0.486353 0.7642729,0.875459 0.1250748,0.444652 0.097253,0.917123 -0.1945533,1.306215 -0.3196281,0.430763 -0.7365061,0.708682 -1.2923178,0.764275 -0.2223233,0.01391 -0.458587,0.01391 -0.6809103,0.01391 -0.2362061,0 -0.4307607,-0.152843 -0.5975453,-0.277919 -0.1945546,-0.138959 -0.4029926,-0.305686 -0.458587,-0.583605 -0.027774,-0.152842 -0.1528435,-0.180669 -0.2918024,-0.152842 -0.2640334,0.05557 -0.5002401,0.152842 -0.7503891,0.208442 -0.3335129,0.08337 -0.6670264,0.152842 -1.0144229,0.166726 -0.097253,0 -0.18067,-0.01391 -0.2362061,-0.125076 -0.055597,-0.125076 -0.1528442,-0.125076 -0.2223232,0 -0.2640341,0.514129 -0.6530829,0.944943 -0.9588279,1.431279 -0.250148,0.402989 -0.514124,0.805983 -0.750389,1.222835 -0.236206,0.41688 -0.528067,0.819867 -0.792042,1.236733 -0.264033,0.416879 -0.541951,0.819874 -0.750391,1.264526 -0.06948,0.13896 -0.194553,0.23621 -0.264031,0.361286 -0.152845,0.277912 -0.333515,0.555831 -0.639201,0.69479 -0.347397,0.152844 -0.694793,0.305687 -1.083901,0.31963 -0.125075,0 -0.194555,-0.13896 -0.111183,-0.250153 0.125075,-0.194553 0.264034,-0.389106 0.416878,-0.555832 0.347396,-0.402995 0.583602,-0.88935 0.875463,-1.320111 0.264033,-0.402989 0.486356,-0.819868 0.750388,-1.222837 0.194555,-0.291802 0.347399,-0.597548 0.528069,-0.903233 -0.06944,-0.05557 -0.06944,-0.06947 -0.08332,-0.06947 z m 3.6407224,-4.029807 c -0.1111865,-0.125076 -0.2362056,-0.125076 -0.3612818,-0.02775 -0.069482,0.05558 -0.152842,0.09725 -0.2362061,0.152843 -0.2640341,0.180669 -0.5975468,0.250146 -0.7920425,0.541948 -0.01389,0.02776 -0.0556,0.04172 -0.04171,0.08337 0.01389,0.04173 0.0556,0.02775 0.08337,0.04173 0.1389577,0.02775 0.2640317,0 0.3612807,-0.125076 0.250149,-0.319629 0.5280671,-0.583605 0.9588273,-0.611431 -3.37e-5,-0.02782 0.013838,-0.05558 0.027774,-0.05558 0.2640338,0.01391 0.4863571,-0.09725 0.7642742,-0.18067 -0.166727,-0.06947 -0.2779171,0.05558 -0.4307606,0.01391 0.2084379,-0.125076 0.4307606,-0.138959 0.5975458,-0.277917 -0.083365,-0.02777 -0.1528423,0 -0.1945533,0.0417 -0.1389589,0.152847 -0.2223233,-0.01389 -0.3056871,-0.0417 -0.097251,-0.04171 -0.1806699,-0.111183 -0.1528423,-0.250149 0.027774,-0.277917 0.055593,-0.541951 0.166727,-0.805985 0.01389,-0.02777 0,-0.06948 0,-0.09725 -0.01389,-0.04171 -0.04171,-0.01389 -0.069479,0 -0.097254,0.08337 -0.2362081,0.125073 -0.3056871,0.222322 0.027774,0.08337 0.1250755,0.0139 0.1389588,0.09725 -0.097251,0.01388 0.01389,0.222322 -0.1667269,0.166728 -0.06948,-0.02777 -0.1528436,0.06948 -0.1528436,0.125074 -0.01389,0.06948 0.083367,0.0556 0.1389582,0.06948 0.055593,0.01389 0.1389602,0.0556 0.069481,0.138959 -0.069481,0.08337 -0.083368,0.08337 0.01389,0.138959 0.055593,0.02777 0.083365,0.0417 0.083365,0.09725 0,0.06948 -0.069479,0.0556 -0.1111842,0.0556 -0.083367,-0.01389 -0.138959,0.0417 -0.2223234,0.08337 0.1389589,0.08337 0.2640324,0.138962 0.3891079,0.208439 0.041703,0.02775 0.055593,0.05557 0.055593,0.09725 -0.01389,0.05557 -0.04171,0.04173 -0.083367,0.02776 -0.1251669,-0.05544 -0.1668654,0.01404 -0.2224147,0.06962 z m -5.7945834,7.962343 c 0.0556,-0.02775 0.08337,-0.05557 0.09725,-0.04172 0.583605,0.04172 0.931002,-0.305686 1.25063,-0.736507 0.389108,-0.514122 0.68091,-1.069961 1.028307,-1.598026 0.319628,-0.486355 0.639198,-0.958827 0.917117,-1.472961 0.264033,-0.500246 0.639199,-0.944943 0.931002,-1.431279 0.236206,-0.402989 0.5419504,-0.778157 0.7225627,-1.208939 0.083367,-0.19456 0,-0.347403 -0.222323,-0.37517 -0.06948,0 -0.138959,0 -0.1806697,-0.08337 -0.0556,-0.09725 -0.18067,-0.08337 -0.277918,-0.06947 -0.08337,0.01391 -0.194554,0.13896 -0.222322,0.22232 0.361281,-0.08337 0.5280657,-0.05557 0.6114307,0.125076 0.1111829,0.222325 0.0556,0.416878 -0.1667297,0.583605 -0.09725,0.06947 -0.347396,0.04172 -0.458587,-0.06948 -0.08337,-0.06948 -0.06948,-0.180669 -0.09725,-0.277913 -0.01389,-0.08337 -0.02777,-0.180668 0.0417,-0.264036 -0.0556,0.04173 -0.111184,0.05557 -0.152844,0.125076 -0.389108,0.597549 -0.694793,1.236733 -1.028307,1.875945 -0.264033,0.486355 -0.514124,0.986593 -0.792042,1.472961 -0.250149,0.444646 -0.514123,0.861524 -0.778157,1.292319 -0.250149,0.41688 -0.472471,0.847634 -0.764275,1.236733 -0.125074,0.222327 -0.347397,0.389113 -0.458587,0.694798 z m 3.849159,-6.864571 c -0.08337,0.04174 -0.138959,0.05557 -0.166727,0.08337 -0.361282,0.305686 -0.708678,0.625315 -1.056076,0.944944 -0.250149,0.222319 -0.50024,0.444645 -0.764272,0.653081 -0.347398,0.291802 -0.722563,0.569722 -1.056078,0.875467 -0.555834,0.500239 -1.125555,1.000477 -1.736985,1.431279 -0.194553,0.138953 -0.389108,0.291795 -0.528066,0.486355 -0.264033,0.389105 -0.152844,0.819867 -0.08337,1.250629 0.222324,-0.180669 0.402994,-0.375169 0.61143,-0.514129 0.402994,-0.264028 0.722564,-0.611431 1.111672,-0.88935 0.305686,-0.208436 0.541951,-0.486355 0.833753,-0.722558 0.08337,-0.06948 0.194554,-0.09725 0.277918,-0.180669 0.138958,-0.138959 0.277917,-0.305686 0.444644,-0.416878 0.347399,-0.23621 0.625316,-0.541949 0.889349,-0.875468 0.222324,-0.291795 0.305686,-0.667024 0.514124,-0.97271 0.06948,-0.09725 0.152844,-0.194553 0.194555,-0.305686 0.111138,-0.277918 0.27787,-0.569768 0.514124,-0.84768 z m 5.2804364,-0.639198 c 0.055593,-0.111183 0.1667283,-0.06948 0.2223227,-0.125076 -0.5697196,-0.264035 -1.1811501,0.02776 -1.1533814,0.708682 0.01389,0.180669 0.041703,0.347396 0.1945546,0.472472 0.2640324,0.250145 0.5975453,0.291802 0.9310005,0.250145 0.3612815,-0.02775 0.5419514,-0.222319 0.5975458,-0.625315 0.04171,-0.250145 -0.1667269,-0.528065 -0.4168759,-0.625314 -0.1111865,-0.04173 -0.2362073,-0.02775 -0.3751663,-0.05557 z m -1.5980261,-2.26503 c 0.2501491,-0.250149 0.416876,-0.50024 0.583603,-0.736505 0.06948,-0.09725 0.055593,-0.166727 -0.069478,-0.18067 -0.3612829,-0.0417 -0.7225631,0 -1.0283076,0.222323 -0.1389588,0.111183 -0.3196287,0.194554 -0.416876,0.347396 -0.2223233,0.361329 -0.3195837,0.792089 -0.3751669,1.208943 -0.01389,0.111183 0,0.264034 0.1250755,0.319629 0.1111854,0.04171 0.208438,-0.0417 0.2779171,-0.125074 0.2918025,-0.389108 0.6669796,-0.708679 0.9032327,-1.056077 z m 0.1528423,-1.042191 c -0.1806699,-0.166728 -0.639199,-0.194555 -0.7920405,-0.08337 -0.01389,0.01389 -0.069481,0.01389 -0.04171,0.0556 0.083365,0.125076 -0.027774,0.125076 -0.097252,0.166729 -0.083368,0.0556 -0.2640338,0.0417 -0.2640338,0.125073 0.01389,0.166727 -0.06948,0.236208 -0.1806699,0.319629 -0.027774,0.02777 -0.04171,0.09725 -0.04171,0.152843 0.01389,0.08337 0.01389,0.138959 -0.069479,0.166727 -0.055593,0.02777 -0.055593,0.08337 -0.055593,0.138959 0,0.02777 0.04171,0.04171 0.083367,0.04171 0.097252,0.01388 0.055593,-0.06948 0.069479,-0.09725 0.1250742,-0.305685 0.3056858,-0.555834 0.5836028,-0.722561 0.2363015,-0.139054 0.4864032,-0.278011 0.8060207,-0.264082 z m -0.6670247,4.127076 c 0.097253,0.06948 0.1667267,0.08337 0.2779168,0.04172 0.1528435,-0.06948 0.3196301,-0.111183 0.3891079,0.125071 0,0.01391 0.01389,0.05557 0.04171,0.05557 0.027774,-0.01391 0.055593,-0.04172 0.06948,-0.05557 0.027774,-0.04173 -0.06948,-0.08336 0.01389,-0.138954 0.236208,0.194553 0.3196301,0.514122 0.5975472,0.708675 -0.027774,-0.09725 -0.1528435,-0.13896 -0.069479,-0.208437 0.069479,-0.06948 0.083366,-0.08337 0.01389,-0.111183 -0.208438,-0.125076 -0.3891079,-0.277919 -0.4863571,-0.514122 -0.01389,-0.02775 -0.041703,-0.05557 -0.083365,-0.04174 -0.1250742,0.04174 -0.1806699,0.04174 -0.2362068,-0.05557 -0.069479,-0.152843 -0.1667282,-0.09725 -0.2640336,-0.06948 -0.1528437,0.05557 0.027774,0.138959 -0.027774,0.208435 -0.055639,-0.01391 -0.1529366,-0.02776 -0.2362992,0.05558 z m 1.042191,-0.611431 c 0.083365,-0.26403 0.2918025,-0.416872 0.5141251,-0.541948 -0.1528436,-0.111183 -0.2223226,-0.125076 -0.4168773,-0.04174 0.041703,0.04174 0.1389595,0.04174 0.1250748,0.111183 -0.01389,0.06948 -0.097253,0.06948 -0.1667282,0.06948 -0.1111843,0 -0.2223214,0.02775 -0.3335115,0.01391 -0.1389589,0 -0.2501497,0.06948 -0.389108,0.18067 0.1806694,0 0.3335115,0.01391 0.4446441,0.152844 -0.01389,-0.05557 -0.01389,-0.08337 -0.01389,-0.09725 -0.027774,-0.06948 -0.055593,-0.152843 0.027774,-0.166726 0.069481,-0.02775 0.1111865,0.05557 0.1250755,0.125076 -0.013838,0.08337 0.02782,0.12503 0.083411,0.194507 z m -1.6258184,0.88935 c -0.208438,-0.06947 -0.4168759,0 -0.6253152,0.02776 -0.1111854,0.01391 -0.1945534,0 -0.2362063,-0.111183 0.041703,-0.06948 0.1250737,-0.02775 0.1806694,-0.06948 -0.083365,-0.05557 -0.1667288,-0.02775 -0.2362077,-0.01391 -0.1111831,0.01391 -0.083367,-0.125076 -0.1667271,-0.13896 -0.041701,-0.01391 -0.055597,-0.01391 -0.069482,0.02776 -0.069482,0.208436 0.083367,0.444645 0.3056862,0.444645 0.2917569,-0.02776 0.569674,-0.05551 0.847591,-0.166693 z m 0.9865952,-4.627329 c 0.2640344,-0.09725 0.2779191,0.222323 0.5002418,0.166727 0.1667269,-0.0417 0.3612802,0.02777 0.458587,-0.111183 -0.2640338,-0.152797 -0.5558362,-0.319538 -0.9588288,-0.05555 z m 2.0426959,5.363809 c -0.1111865,-0.08337 -0.1667269,-0.180669 -0.3335127,-0.138959 -0.097253,0.01391 -0.138959,0.05557 -0.1945534,0.111183 -0.083367,-0.125076 -0.2223233,-0.01391 -0.3196288,-0.05557 -0.1250748,-0.05557 -0.1806692,0.01391 -0.2362073,0.125076 0.3613279,0.05558 0.7087247,0.04167 1.0839022,-0.04173 z m -1.9176317,-3.154363 c -0.083368,-0.0139 -0.1250755,-0.02777 -0.1528435,-0.02777 -0.027774,0 -0.055593,-0.01389 -0.083365,-0.01389 -0.069479,-0.01389 -0.1250748,0 -0.1528435,0.08337 -0.01389,0.04171 -0.055593,0.08337 0.027774,0.111183 0.069479,0.01389 0.1250741,0.125076 0.208438,0.02777 0.083365,-0.09725 0.1667269,-0.208438 0.2779177,-0.277918 0.027774,-0.01389 0.069479,-0.06948 0.01389,-0.111183 -0.069479,-0.0556 -0.1389582,-0.06948 -0.2223228,-0.04171 -0.041703,0.01389 -0.1111853,0.02777 -0.1111853,0.0556 -0.01389,0.09725 0.097251,0.06948 0.1389588,0.111183 0,0 0.01389,0.01389 0.055593,0.08337 z m 0.2918018,-0.653085 c 0.041703,0.08337 0.166727,0.02777 0.1528423,0.125076 -0.01389,0.06948 -0.083365,0.06948 -0.1389583,0.09725 -0.041703,0.02777 -0.1250741,0 -0.1111854,0.08337 0,0.02777 0.01389,0.08337 0.041703,0.08337 0.06948,0.02777 0.097253,-0.04171 0.1389588,-0.08337 0.083368,-0.08337 0.1389588,-0.194554 0.2362074,-0.236208 0.1389589,-0.0556 0.1667269,-0.138959 0.1528422,-0.291802 -0.1389118,0.138959 -0.3334651,0.111138 -0.472424,0.222322 z m 0.8059839,-1.500755 c 0.1389589,0.09725 0.2362081,0.06948 0.3473969,0.0556 0.055593,0 0.1250755,-0.02777 0.1806698,0.02777 0.083368,0.08337 0.083368,0.08337 0.125075,-0.02777 0.01389,-0.0556 0.027774,-0.111183 0.055593,-0.166727 0.027774,-0.08337 -0.027774,-0.09725 -0.069479,-0.08337 -0.069479,0.0417 -0.1945546,0.01389 -0.2223227,0.138959 -0.01389,0.0417 -0.04171,0.06948 -0.097254,0.0417 -0.097342,-0.08341 -0.180703,-4.6e-5 -0.3196619,0.01385 z m 0.5002404,3.084884 c -0.4307607,-0.291802 -0.6114305,-0.333512 -0.861522,-0.236202 0.138959,0.05557 0.3335136,-0.02775 0.3891079,0.208435 0,0.01391 0.069479,0.02776 0.1111865,0.02776 h 0.3612353 z m -0.8198686,2.195554 c -0.1111865,-0.264037 -0.3473969,-0.402989 -0.4724717,-0.611432 -0.01389,-0.02776 -0.055593,-0.04173 -0.083365,-0.02776 -0.04171,0.02776 -0.01389,0.05557 0,0.08337 0.097253,0.250152 0.2640336,0.444692 0.5558361,0.555838 z M -7.179285,41.30214 c -0.04171,-0.09725 -0.027774,-0.236207 -0.1806699,-0.194555 -0.1945543,0.0556 -0.3612812,0.18067 -0.5141242,0.319629 -0.027774,0.01389 -0.055593,0.04171 -0.01389,0.08337 0.041703,0.02777 0.041703,-0.01389 0.069479,-0.02777 0.1945546,-0.111183 0.3891079,-0.236254 0.6391984,-0.18067 z m -0.5280208,0.486356 c -0.069479,-0.0417 -0.1806699,0.02777 -0.2084379,-0.0556 -0.069479,-0.305685 -0.1389589,0 -0.1945533,0.01389 -0.027774,0.01388 -0.1528436,0.09725 -0.04171,0.152842 0.083365,0.04171 0.1945539,0.166728 0.2779171,0.01388 0.04171,-0.06944 0.1111865,-0.06944 0.1667733,-0.125029 z m 2.6680097,2.918137 c 0.2779183,0.194552 0.5558361,0.375162 0.8337532,0.583604 -0.2223227,-0.277873 -0.5141251,-0.444645 -0.8337532,-0.583604 z M -7.4293873,43.84511 c 0.1806696,0.02777 0.2501493,-0.166727 0.4168763,-0.194555 0.055593,-0.01389 0,-0.111183 0,-0.166727 -0.01389,-0.0556 -0.083365,-0.0417 -0.097254,-0.01389 -0.1111842,0.138912 -0.2918474,0.194508 -0.3196278,0.375165 z m 1.8481523,-1.347901 c -0.083366,-0.0417 -0.1806693,0.04171 -0.1806693,0.0556 -0.01389,0.208438 -0.1806699,0.152844 -0.3056871,0.194554 -0.1250743,0.0417 -0.01389,0.13896 -0.01389,0.180669 0.027774,0.08337 0.097253,0.01389 0.1250755,-0.01389 0.1389582,-0.139005 0.250102,-0.277964 0.3751649,-0.416922 z m 1.0144218,3.015408 c 0.04171,0.166726 0.083367,0.305685 0.1111865,0.444645 0.01389,0.02775 0.01389,0.06947 0.055593,0.06947 0.01389,0 0.027774,-0.01391 0.041703,-0.01391 -0.083365,-0.111183 0.055593,-0.18067 0.055593,-0.277919 -0.013976,-0.166727 -0.1807037,-0.111183 -0.2640794,-0.22232 z m -0.486355,-0.416879 c -0.2362081,-0.194553 -0.3751663,-0.430762 -0.6947951,-0.389105 0.2779177,0.01391 0.3612815,0.361279 0.6947951,0.389105 z m -1.4312767,1.056076 c -0.069479,-0.152842 0,-0.319628 -0.01389,-0.514121 -0.041703,0.111183 -0.1528435,0.02775 -0.1667269,0.152842 -0.02782,0.152843 0.055546,0.26403 0.1806236,0.361279 z m 1.3201103,-4.807976 c 0,-0.208438 -0.1806699,-0.305686 -0.4863571,-0.291801 0.01389,0.01388 0.01389,0.02777 0.027774,0.02777 0.15289,0.09725 0.3057335,0.18067 0.4585884,0.264033 z m -2.640219,4.238248 c 0.166727,-0.02775 0.2918025,-0.05558 0.4168757,-0.08337 0.055593,-0.01391 0.097254,-0.04172 0.097254,-0.111183 0,-0.02775 -0.01389,-0.06948 -0.04171,-0.05557 -0.1527949,0.06948 -0.3334648,0.06948 -0.472425,0.250145 z m 2.2789249,-4.0576 c -0.097252,-0.125075 -0.2084379,-0.152844 -0.3335122,-0.13896 -0.01389,0 -0.041703,0.13896 -0.01389,0.166728 0.1111865,0.111183 0.2223234,-0.01384 0.3473982,-0.02777 z m -0.2223214,0.764273 c 0.2640324,0.111183 0.2640324,0.111183 0.375165,-0.09725 -0.1389589,-0.01389 -0.2779178,-0.02777 -0.375165,0.09725 z m 0.7364578,4.905249 c 0.097253,0.02776 0.1667282,-0.02775 0.2362073,-0.06948 0.041703,-0.02775 0.138959,-0.01391 0.1111854,-0.111183 -0.01389,-0.06947 -0.1111854,-0.08336 -0.1528423,-0.06947 -0.083368,0.02775 -0.083368,0.180669 -0.2084393,0.180669 0,0.01391 0,0.04174 0.01389,0.06948 z m -2.9459273,-2.515156 c 0.2640343,-0.01391 0.3196287,-0.04172 0.4168759,-0.18067 -0.236206,-0.166728 -0.236206,0.208437 -0.4168759,0.18067 z m 1.3479012,-1.403486 c -0.01389,-0.06948 -0.083368,-0.0556 -0.1111865,-0.08337 -0.041703,-0.0417 -0.083365,-0.08337 -0.1250743,0 -0.027774,0.04171 -0.097253,0.06948 -0.055593,0.125074 0.027774,0.0417 0.097251,0.0417 0.1389588,0.02777 0.055639,0 0.1112318,-0.01393 0.15289,-0.06948 z m 1.5146503,1.250631 c -0.1389588,-0.06948 -0.250149,-0.08337 -0.3335122,0.06948 0.138959,0.06948 0.2501491,0.08337 0.3335122,-0.06948 z M -6.164828,42.677843 c -0.1528436,-0.125074 -0.2640337,-0.09725 -0.3056851,0.09725 0.1111389,0.02781 0.2083909,0.01393 0.3056851,-0.09725 z m 0.5002404,1.736987 c -0.1945533,-0.0556 -0.3751649,-0.09725 -0.5836043,0.0556 0.2084394,-0.01388 0.3890623,-0.06948 0.5836043,-0.0556 z m -3.2099497,1.334002 c 0.083367,0.06948 0.1667289,0.152843 0.277919,0.111183 0.041703,-0.01391 0.027774,-0.08337 0,-0.125076 -0.083367,-0.09725 -0.1667733,-0.02776 -0.277919,0.01391 z m 2.0565922,-0.778157 c 0.1111842,0.01391 0.2223226,0.01391 0.3196281,-0.05557 -0.208438,-0.138959 -0.250149,-0.138959 -0.3196281,0.05557 z m -0.9171175,-0.639197 c 0.097254,0.06948 0.1945547,0.02777 0.2779185,0.09725 0.041702,0.0556 0.097251,-0.01389 0.1111842,-0.0417 0.027774,-0.0556 -0.041703,-0.0556 -0.069479,-0.06948 -0.097297,-0.02777 -0.1945529,-0.05555 -0.3196284,0.01393 z m 3.0293024,2.445677 c 0.01389,0.06948 0.1111865,0.05558 0.1250749,0.13896 0,0.04173 0.04171,0.09725 0.097253,0.04173 0.041703,-0.04173 0.055593,-0.08337 0.01389,-0.138959 -0.069479,-0.06948 -0.1389582,-0.08341 -0.2362073,-0.04173 z m -3.4600749,-4.696811 c -0.083365,-0.152844 -0.166727,-0.04171 -0.250149,-0.01389 -0.041703,0.01389 -0.083365,0.0556 -0.041703,0.08337 0.06948,0.06948 0.1250748,-0.0417 0.1945546,-0.0417 0.02782,0.01393 0.069524,-0.01384 0.097298,-0.02777 z m 1.4729635,-1.153335 c -0.097252,0.01388 -0.1945533,-0.0556 -0.250149,0.0556 -0.01389,0.02777 0.027774,0.111183 0.055593,0.111183 0.1250755,0.04167 0.08341,-0.166774 0.1945546,-0.166774 z"
       id="path1-5"
       style="stroke-width:0.351093;stroke-dasharray:none" /></g></svg>
