<?xml version="1.0" encoding="UTF-8" standalone="no"?>
<svg
   height="72.71492"
   width="83.638832"
   fill="#000000"
   data-name="Ğ¡Ğ»Ğ¾Ğ¹ 1"
   viewBox="0 0 83.638832 72.71492"
   x="0px"
   y="0px"
   version="1.1"
   id="svg74"
   sodipodi:docname="noun_Map_2592596-edit.svg"
   xml:space="preserve"
   inkscape:version="1.4.2 (ebf0e940d0, 2025-05-08)"
   xmlns:inkscape="http://www.inkscape.org/namespaces/inkscape"
   xmlns:sodipodi="http://sodipodi.sourceforge.net/DTD/sodipodi-0.dtd"
   xmlns="http://www.w3.org/2000/svg"
   xmlns:svg="http://www.w3.org/2000/svg"
   xmlns:rdf="http://www.w3.org/1999/02/22-rdf-syntax-ns#"
   xmlns:cc="http://creativecommons.org/ns#"
   xmlns:dc="http://purl.org/dc/elements/1.1/"><defs
     id="defs78" /><sodipodi:namedview
     id="namedview76"
     pagecolor="#505050"
     bordercolor="#eeeeee"
     borderopacity="1"
     inkscape:showpageshadow="0"
     inkscape:pageopacity="0"
     inkscape:pagecheckerboard="0"
     inkscape:deskcolor="#505050"
     showgrid="false"
     inkscape:zoom="5.7063517"
     inkscape:cx="55.552131"
     inkscape:cy="43.372721"
     inkscape:window-width="1920"
     inkscape:window-height="1043"
     inkscape:window-x="0"
     inkscape:window-y="0"
     inkscape:window-maximized="1"
     inkscape:current-layer="svg74" /><title
     id="title2">Map-01-01</title><g
     id="g72"
     inkscape:export-filename="colored-full-linework.png"
     inkscape:export-xdpi="300"
     inkscape:export-ydpi="300"
     transform="translate(-8.1827235,-13.64774)"><path
       d="m 64.40041,13.64774 a 15.53343,15.53343 0 0 0 2.60333,3.02563 c 0.94073,1.093 1.79365,2.264 2.64994,3.42677 1.00711,1.36755 1.92615,2.80275 2.9795,4.13246 0.75849,0.95748 1.61547,1.83079 2.348,2.82339 1.50047,2.03328 3.10551,3.98953 4.67368,5.97261 1.32317,1.67326 2.63461,3.3564 3.98886,5.00425 1.3527,1.646 2.73947,3.26459 4.138,4.872 a 10.58261,10.58261 0 0 0 1.554,1.50731 8.52874,8.52874 0 0 1 2.05712,2.62625 4.64793,4.64793 0 0 1 0.40982,2.10257 13.61713,13.61713 0 0 1 -1.78658,7.49286 6.04619,6.04619 0 0 0 -1.08414,2.44485 1.62215,1.62215 0 0 1 -0.53348,0.7959 c -1.05873,1.08988 -2.12277,2.17531 -3.2108,3.23579 a 30.24542,30.24542 0 0 1 -8.4559,6.00654 c -2.35808,1.07964 -4.82647,1.92907 -7.27659,2.79359 -1.9048,0.67207 -3.86532,1.18458 -5.78505,1.81674 a 5.79848,5.79848 0 0 1 -2.891,0.12359 13.70384,13.70384 0 0 0 -4.618,0.0031 7.24535,7.24535 0 0 1 -3.72169,-0.54182 3.17956,3.17956 0 0 0 -1.68172,-0.19358 13.80511,13.80511 0 0 1 -1.84045,0.007 c -2.16855,0.02773 -4.34751,-0.05 -6.50068,0.14887 a 6.57414,6.57414 0 0 0 -2.76214,1.16621 9.99739,9.99739 0 0 0 -3.04713,3.18179 0.7209,0.7209 0 0 0 0.03507,0.98212 c 0.77566,0.84183 1.289,1.87425 2.15162,2.67919 a 13.99115,13.99115 0 0 1 1.88708,2.62769 0.60989,0.60989 0 0 1 -0.051,0.58213 c -0.64723,0.62749 -1.05818,1.484 -2.08478,1.744 a 2.04057,2.04057 0 0 1 -1.84225,-0.22206 14.1734,14.1734 0 0 1 -1.91,-1.59366 14.59044,14.59044 0 0 1 -0.80521,-1.38962 c -1.08726,-1.44389 -2.22032,-2.85315 -3.3252,-4.2839 -1.7451,-2.25991 -3.46566,-4.53894 -5.22558,-6.78716 -2.29391,-2.93033 -4.63554,-5.82342 -6.91946,-8.76141 -1.552,-1.99649 -3.03482,-4.04669 -4.55876,-6.0652 -1.32509,-1.75513 -2.66948,-3.49569 -3.99462,-5.25077 -0.41294,-0.54694 -0.817,-1.104 -1.179,-1.68517 a 3.74957,3.74957 0 0 1 -0.41087,-3.22178 10.81291,10.81291 0 0 1 2.61886,-4.431 12.216,12.216 0 0 1 6.95925,-3.44951 c 0.84907,-0.13886 1.73746,-0.01979 2.59849,-0.10908 a 17.97076,17.97076 0 0 0 1.88526,-0.422 c 0.278,-0.05986 0.56459,-0.08023 0.84728,-0.11827 0.78644,-0.10589 1.57129,-0.22725 2.36015,-0.3107 a 9.8563,9.8563 0 0 1 1.162,-0.009 c 0.10664,0.0014 0.21337,0.05459 0.31916,0.05155 1.692,-0.04873 3.3899,-0.03165 5.07434,-0.17328 2.15814,-0.18147 4.3198,-0.4068 6.45385,-0.76755 a 19.98682,19.98682 0 0 0 7.796,-2.79928 c 0.60118,-0.39444 1.29309,-0.6498 1.898,-1.03946 a 23.388,23.388 0 0 0 4.95487,-3.832 68.4712,68.4712 0 0 0 5.01344,-6.1149 c 1.47184,-2.08767 2.66768,-4.37229 3.94352,-6.59409 a 8.46558,8.46558 0 0 0 0.702,-1.80845 2.27426,2.27426 0 0 1 1.43959,-1.40202 z m 21.98373,35.56508 c -0.38611,0.62739 -0.77219,1.25478 -1.17724,1.913 0.37213,0.39185 0.67287,0.70851 1.01976,1.07383 l 1.14614,-1.44319 0.12074,0.10671 a 4.65959,4.65959 0 0 1 -0.40156,0.86912 c -0.57709,0.78587 -0.59521,0.77843 0.07149,1.48325 0.21317,0.22538 0.45021,0.42814 0.70644,0.66962 a 2.44645,2.44645 0 0 0 0.32583,-0.38733 c 0.74893,-1.52072 1.45157,-3.06587 2.25167,-4.55891 A 1.29657,1.29657 0 0 0 90.4183,47.43086 13.9238,13.9238 0 0 0 88.01866,44.88761 c -0.40393,1.05279 -0.79064,2.04746 -1.16616,3.04633 -0.13961,0.37143 -0.253,0.75272 -0.37829,1.12952 q -0.04483,0.0748 -0.09007,0.14936 z m -70.86163,0.30553 c 0.37355,0.2636 0.7471,0.52719 1.13224,0.79892 0.17376,-0.125 0.31943,-0.22808 0.46339,-0.33354 a 10.0679,10.0679 0 0 1 5.038,-2.1041 c 1.86654,-0.16947 3.74468,-0.256 5.61891,-0.2777 1.00131,-0.01161 2.00537,0.28067 3.00769,0.27737 a 30.57693,30.57693 0 0 0 6.658,-0.78522 59.82835,59.82835 0 0 0 7.9065,-2.2483 c 1.24806,-0.46958 2.46737,-1.01881 3.72611,-1.456 1.21421,-0.42168 2.36108,-0.39717 3.12553,0.88354 a 1.14585,1.14585 0 0 0 0.23606,0.22253 44.72863,44.72863 0 0 1 7.07193,8.04092 c 1.20026,1.76285 2.42665,3.50972 3.69708,5.22239 1.20585,1.62561 2.49175,3.19158 3.72673,4.79589 0.41748,0.54234 0.775,1.13042 1.18049,1.68249 q 1.82769,2.48857 3.67383,4.96346 c 0.16719,0.22473 0.36429,0.42722 0.59219,0.69184 0.76617,-0.28851 1.49311,-0.56224 2.30734,-0.86882 -0.21819,-0.35371 -0.36259,-0.59536 -0.51428,-0.83237 -0.64177,-1.00266 -1.32911,-1.97919 -1.918,-3.01191 A 2.392,2.392 0 0 1 73.4,61.71 24.55537,24.55537 0 0 0 79.54989,56.95075 c 1.002,-1.03888 1.97879,-2.10936 2.88243,-3.23352 0.69356,-0.86283 1.25495,-1.83189 1.86,-2.73124 l -0.70846,-0.99248 0.13207,-0.14238 0.99076,0.53658 a 17.26385,17.26385 0 0 0 2.027,-4.34791 2.39109,2.39109 0 0 0 -0.09947,-0.942 1.14567,1.14567 0 0 0 0.32156,-1.72056 c -0.33948,-0.44676 -0.73992,-0.8472 -1.13513,-1.293 a 1.28327,1.28327 0 0 0 0.07147,1.74338 7.95354,7.95354 0 0 1 0.71019,1.19042 l -1.30715,-1.12695 c -0.2435,0.73255 -0.44349,1.38146 -0.67422,2.01925 a 15.96837,15.96837 0 0 1 -2.79938,4.60741 c -2.25786,2.77372 -4.419,5.63169 -7.3064,7.81539 a 19.55458,19.55458 0 0 0 -2.37266,1.87 2.41183,2.41183 0 0 1 -1.9235,0.725 3.71857,3.71857 0 0 1 -2.98452,-1.71447 c -1.13468,-1.40592 -2.2519,-2.82594 -3.38,-4.2372 -2.02994,-2.53945 -4.07595,-5.0662 -6.08881,-7.61906 -1.22837,-1.55794 -2.405,-3.15666 -3.60964,-4.73336 a 1.744,1.744 0 0 1 0.03275,-2.44205 5.48955,5.48955 0 0 1 0.8346,-0.84241 c 0.98749,-0.78877 2.05991,-1.48315 2.97883,-2.343 1.39723,-1.30742 2.74242,-2.67892 4.01906,-4.1044 A 30.54337,30.54337 0 0 0 66.02575,27.917 c 0.37093,-0.64451 0.79236,-1.21389 -0.041,-2.09279 0.4871,0.22261 0.69329,0.31681 0.942,0.43044 l 0.64788,-0.955 -0.61651,-1.08459 0.143,-0.07072 0.82288,0.5924 c 0.86155,-1.09078 0.78645,-1.36705 -0.67174,-2.49632 -0.19056,0.30768 -0.37487,0.607 -0.56084,0.90519 -0.72639,1.16489 -1.37152,2.39183 -2.20042,3.47859 -1.07086,1.4038 -2.268,2.7142 -3.451,4.02859 a 22.05088,22.05088 0 0 1 -2.29273,2.27773 c -0.84168,0.69563 -1.294,0.61518 -2.01955,-0.23986 -0.72339,-0.85254 -1.37886,-1.76285 -2.06009,-2.65088 A 4.25281,4.25281 0 0 1 54.4237,29.56753 l -0.64963,0.72606 c 0.668,0.73435 1.24152,1.38143 1.83359,2.01107 a 2.82444,2.82444 0 0 1 0.81078,2.1673 2.7766,2.7766 0 0 1 -1.03921,1.96012 28.04,28.04 0 0 1 -2.60845,2.11109 40.61705,40.61705 0 0 1 -5.17614,3.333 47.59559,47.59559 0 0 1 -5.43851,1.79712 17.55377,17.55377 0 0 1 -6.33541,1.21414 c -1.98011,-0.06652 -3.97885,0.21864 -5.94735,0.06562 A 36.72347,36.72347 0 0 0 24.25484,44.9512 16.12649,16.12649 0 0 0 16.287,47.80068 c -0.38221,0.25918 -0.72277,0.57979 -1.07253,0.8638 l 0.3274,0.87531 L 14.837,49.18 a 8.63863,8.63863 0 0 0 -2.16865,3.79006 1.22083,1.22083 0 0 0 0.20918,1.30759 c 0.27822,0.3096 0.53188,0.64122 0.87186,1.05476 0.17278,-0.50485 0.26994,-0.88839 0.43224,-1.242 a 11.78637,11.78637 0 0 1 1.06737,-2.11378 2.00026,2.00026 0 0 0 0.2735,-2.45828 z m 64.66344,-9.27368 -0.93292,-0.542 -0.0627,-0.69728 -1.10453,1.175 a 1.23773,1.23773 0 0 1 0.27136,-0.80734 0.91875,0.91875 0 0 0 0.0062,-1.41947 4.12855,4.12855 0 0 1 -0.5029,-0.87683 l 0.182,-0.1119 1.04547,1.2211 c 0.26477,-0.146 0.51254,-0.28264 0.76028,-0.41908 l -0.26008,0.94835 c 0.20207,-0.27945 0.77287,-0.46359 0.24143,-0.93257 q -0.44441,-0.73728 -0.88884,-1.47456 l 0.19525,-0.12875 5.622,6.2893 a 2.06162,2.06162 0 0 0 -0.46641,-2.3989 13.44737,13.44737 0 0 1 -1.16611,-1.28226 q -5.71909,-7.15707 -11.43,-14.32071 a 6.37993,6.37993 0 0 0 -1.69288,-1.73309 c -0.204,0.41763 -0.37141,0.76026 -0.532,1.08893 0.33511,0.50078 0.62859,0.93933 0.922,1.37789 a 1.00182,1.00182 0 0 1 -0.61593,-0.33793 c -0.17817,-0.15494 -0.37712,-0.286 -0.61136,-0.46049 -0.25284,0.47365 -0.73585,0.76231 -0.51206,1.39449 l 0.63365,-0.54282 a 2.00091,2.00091 0 0 0 0.55492,2.11481 0.4043,0.4043 0 0 1 0.01243,0.20856 2.84942,2.84942 0 0 1 -1.529,-1.48065 c -1.01894,0.69319 -1.02086,0.73213 -0.26824,1.51757 0.08617,0.08991 0.06962,0.275 0.15222,0.37215 0.59292,0.69765 1.19919,1.384 1.80628,2.07978 a 1.10272,1.10272 0 0 0 0.52989,-1.48734 c 0.37907,-0.1607 0.75814,-0.32141 1.32946,-0.56359 -0.54152,0.92376 -0.98846,1.68619 -1.45786,2.487 a 12.279,12.279 0 0 0 0.82578,0.92231 1.59519,1.59519 0 0 1 0.49991,1.67106 4.95145,4.95145 0 0 1 -0.48071,1.31024 A 7.94236,7.94236 0 0 1 68.071,37.713 c -0.79555,0.39886 -0.82865,0.70692 -0.31624,1.46725 0.40371,0.59908 0.84191,1.17675 1.29132,1.74285 1.05613,1.33038 2.12651,2.64949 3.19438,3.97051 a 6.17575,6.17575 0 0 0 2.18011,2.1035 C 74.97,46.39866 75.486,45.79786 76.043,45.238 c 1.06846,-1.07383 2.16066,-2.12407 3.24223,-3.18486 a 0.75191,0.75191 0 0 1 1.15151,0.02234 5.77168,5.77168 0 0 1 0.56166,0.655 10.92634,10.92634 0 0 0 1.44888,1.73652 0.90621,0.90621 0 0 1 0.27628,1.278 20.09552,20.09552 0 0 1 -3.26282,5.33339 27.31122,27.31122 0 0 1 -5.42014,5.13263 1.82325,1.82325 0 0 1 -2.704,-0.13182 61.04362,61.04362 0 0 1 -6.23844,-6.9232 C 63.28689,46.94736 61.5041,44.71534 59.71497,42.48863 a 11.9742,11.9742 0 0 1 -1.09619,-1.47349 1.16444,1.16444 0 0 1 0.14605,-1.57012 31.82178,31.82178 0 0 0 4.40372,-4.62658 23.66259,23.66259 0 0 0 3.50265,-5.07224 c 0.29512,-0.61905 0.60088,-1.233 0.92558,-1.898 l -0.39769,-0.3265 c -0.57434,0.81353 -1.05428,1.62306 -1.65888,2.32521 -1.76926,2.0546 -3.53408,4.11823 -5.40833,6.07513 -1.09342,1.14165 -2.39355,2.08523 -3.59978,3.11894 a 18.47719,18.47719 0 0 0 -1.46683,1.27989 c -0.845,0.8958 -0.83063,1.14594 -0.06063,2.13166 q 2.36955,3.03345 4.74045,6.06585 c 0.91268,1.16976 1.81274,2.34945 2.73188,3.51406 1.81384,2.29832 3.62626,4.59792 5.46235,6.87842 a 3.0515,3.0515 0 0 0 2.43747,1.22114 1.13888,1.13888 0 0 0 0.61925,-0.13013 c 0.88617,-0.61483 1.78688,-1.21738 2.61464,-1.9059 A 31.60143,31.60143 0 0 0 78.1276,53.8903 c 0.63837,-0.78587 1.30595,-1.54845 1.9728,-2.31063 a 18.6333,18.6333 0 0 0 3.99949,-6.49713 c 0.67759,-2.09656 0.72876,-2.128 -0.8646,-3.6653 a 0.62624,0.62624 0 0 0 -0.19555,-0.08207 l -0.73759,0.35633 c 0.6232,-0.97543 -0.0195,-1.36845 -0.44816,-1.83716 -0.43152,-0.47183 -0.878,-0.93 -1.38108,-1.46088 l -0.55273,0.8997 c 0.091,0.175 0.15766,0.30164 0.22286,0.42909 0.0656,0.12818 0.1297,0.25711 0.19443,0.38568 z M 17.49555,51.88445 16.63695,51.437 a 7.46564,7.46564 0 0 0 -2.07612,3.851 2.1505,2.1505 0 0 0 0.30918,1.75 c 0.99547,1.33173 1.89282,2.74169 2.94693,4.02378 3.05339,3.71373 6.17338,7.37262 9.24614,11.07057 a 17.40176,17.40176 0 0 1 1.91945,2.61665 39.66785,39.66785 0 0 0 3.74972,5.43479 c 0.36789,0.46329 0.76657,0.90212 1.17687,1.38228 a 10.94448,10.94448 0 0 1 0.64451,-2.25062 29.07251,29.07251 0 0 1 2.36677,-3.74256 7.39674,7.39674 0 0 1 2.14166,-1.93271 13.31189,13.31189 0 0 1 4.8112,-1.58347 37.477,37.477 0 0 1 6.923,0.10636 8.20826,8.20826 0 0 1 2.15065,0.21327 11.78557,11.78557 0 0 0 3.541,0.33354 14.76328,14.76328 0 0 0 1.515,0.0049 c 1.50354,-0.12259 3.02009,0.39489 4.51735,-0.101 a 0.63992,0.63992 0 0 1 0.51162,0.04868 1.09134,1.09134 0 0 0 1.13386,-0.0065 c 1.783,-0.58638 3.55844,-1.19569 5.33345,-1.806 0.60587,-0.20831 1.2027,-0.443 1.92919,-0.71208 -0.25261,-0.43705 -0.41591,-0.78931 -0.64039,-1.09692 -1.85251,-2.53853 -3.61336,-5.15335 -5.6045,-7.57878 -2.1827,-2.65877 -4.073,-5.51859 -6.11534,-8.27251 C 57.88654,51.59636 56.77691,49.93536 55.46078,48.46015 54.16824,47.01132 52.64535,45.7694 51.24452,44.415 a 1.42193,1.42193 0 0 0 -1.67673,-0.34584 c -0.59973,0.24557 -1.22689,0.43089 -1.80962,0.71021 a 46.979,46.979 0 0 1 -7.38986,2.45883 39.47326,39.47326 0 0 1 -6.47312,1.23054 14.21176,14.21176 0 0 1 -5.383,-0.124 2.76448,2.76448 0 0 0 -0.8643,-0.03662 c -1.87512,0.11417 -3.75921,0.15948 -5.6214,0.38426 a 9.72549,9.72549 0 0 0 -4.86139,2.24468 c 0.11535,0.35323 0.21485,0.65782 0.31434,0.9624 z m -2.936,-3.8149 a 15.089,15.089 0 0 1 4.55461,-2.70348 19.41762,19.41762 0 0 1 5.2485,-1.20468 47.25438,47.25438 0 0 1 7.44109,-0.0043 59.35779,59.35779 0 0 0 6.91694,-0.25079 4.88174,4.88174 0 0 0 1.0403,-0.29318 C 41.4816,43.07325 43.20633,42.54573 44.9191,41.982 a 29.12879,29.12879 0 0 0 3.24817,-1.1915 13.40564,13.40564 0 0 0 2.16231,-1.428 c 1.42524,-1.0457 2.835,-2.11278 4.23775,-3.18856 a 4.25883,4.25883 0 0 0 0.75494,-0.77678 1.55244,1.55244 0 0 0 0.16265,-1.832 6.3875,6.3875 0 0 0 -2.33292,-2.4798 2.25777,2.25777 0 0 0 -0.31816,0.17333 41.96445,41.96445 0 0 1 -6.94575,4.60361 15.98565,15.98565 0 0 1 -4.53709,1.73156 c -1.06744,0.18676 -2.14391,0.3281 -3.204,0.54888 a 98.04432,98.04432 0 0 1 -12.82111,1.28558 c -2.80749,0.20875 -5.60423,0.57654 -8.39967,0.92239 a 4.11369,4.11369 0 0 0 -1.831,0.57522 c -1.663,1.18084 -3.54017,2.15709 -4.46725,4.14589 A 2.23682,2.23682 0 0 1 10.13565,45.6452 C 9.1898,46.5832 9.2858,47.80748 9.2414,48.98086 a 1.38647,1.38647 0 0 0 0.34779,0.65245 q 0.90918,1.34756 1.83885,2.68116 a 1.69617,1.69617 0 0 0 0.33626,0.2939 c 0.83986,-1.46815 1.64033,-2.86738 2.4633,-4.306 a 7.1185,7.1185 0 0 1 -1.00468,-1.30585 c -0.21015,-0.44412 -0.96956,-0.62037 -0.691,-1.4828 0.70629,0.89041 1.32284,1.66754 2.02761,2.55583 z M 67.7644,29.44716 c -0.31422,0.575 -0.54861,1.06347 -0.83534,1.519 A 42.01349,42.01349 0 0 1 59.83064,39.547 c -0.71713,0.66041 -0.76473,0.70187 -0.16028,1.49571 0.76464,1.00422 1.64393,1.92029 2.43464,2.90571 2.26235,2.81965 4.47324,5.68124 6.77092,8.47156 a 35.31333,35.31333 0 0 0 3.0279,3.10502 c 0.673,0.63795 0.74823,0.631 1.485,0.08991 a 23.83427,23.83427 0 0 0 4.55282,-4.00149 c 0.93284,-1.14584 1.84108,-2.31725 2.67682,-3.53455 a 18.03111,18.03111 0 0 0 1.2541,-2.37915 0.76891,0.76891 0 0 0 0.018,-0.61556 5.88162,5.88162 0 0 0 -2.17229,-2.40014 16.19029,16.19029 0 0 0 -3.18566,2.94 c -0.43314,0.6217 -0.92863,1.20086 -1.40964,1.788 -0.66406,0.81058 -0.82678,0.85781 -1.52768,0.12241 C 72.77516,46.674 72.0188,45.749 71.27609,44.819 c -1.44274,-1.8066 -2.88348,-3.61605 -4.2719,-5.46427 -0.776,-1.033 -0.68248,-1.34486 0.348,-2.12664 a 2.8965,2.8965 0 0 1 0.36447,-0.23549 8.0261,8.0261 0 0 0 2.76985,-2.85053 1.781,1.781 0 0 0 -0.38049,-2.759 C 69.38379,30.736 68.612,30.14419 67.7644,29.44716 Z M 84.9772,51.468 c -0.42016,0.57345 -0.76648,1.0243 -1.08983,1.49106 a 32.24654,32.24654 0 0 1 -7.30155,7.63412 c -1.1285,0.83684 -2.29111,1.6282 -3.40867,2.479 a 1.25152,1.25152 0 0 0 -0.26657,1.75279 c 0.39559,0.92516 0.452,0.96445 1.29988,0.90037 l -0.42108,0.57582 c 0.4376,0.599 0.84583,1.14836 1.24349,1.70526 a 0.79827,0.79827 0 0 0 1.13491,0.25226 31.50028,31.50028 0 0 0 5.911,-3.95294 36.44114,36.44114 0 0 0 4.341,-4.36453 14.23548,14.23548 0 0 0 3.05863,-4.81434 c 0.41312,-1.26763 0.75025,-2.56167 1.07615,-3.85529 a 6.29227,6.29227 0 0 0 0.2123,-1.97048 c -1.0403,2.00308 -1.95957,3.77306 -2.92733,5.63648 C 87.26888,53.34156 85.90088,52.68627 84.9772,51.468 Z M 55.16208,28.81917 a 7.5723,7.5723 0 0 0 2.7864,3.78058 8.98671,8.98671 0 0 0 1.47586,-1.1219 c 1.82151,-2.101 3.59646,-4.24242 5.377,-6.37862 a 1.22636,1.22636 0 0 0 0.39986,-0.73335 c -0.3246,-0.72272 0.22815,-1.14357 0.47285,-1.65781 0.407,-0.85524 1.08089,-1.6613 0.16432,-2.66811 l 0.22675,-0.06682 c 0.36372,0.375 0.72741,0.75012 1.19379,1.231 0.095,-0.78193 0.60634,-1.359 0.10686,-2.00565 A 15.7958,15.7958 0 0 0 64.1004,15.88854 c -0.10244,0.21547 -0.19,0.37383 -0.25531,0.54087 a 21.57092,21.57092 0 0 1 -3.48535,6.20493 c -1.74354,2.06313 -3.47615,4.1354 -5.19766,6.18483 z M 39.25383,84.19908 a 22.22206,22.22206 0 0 0 -3.38741,-4.75124 3.81625,3.81625 0 0 0 0.39774,4.79053 c 1.0947,1.11696 1.76934,1.1225 2.98967,-0.03929 z M 68.90907,23.13756 69.457,21.85184 c -0.38541,-0.47023 -0.74306,-0.90658 -1.12545,-1.37317 -0.83649,1.36673 -0.8278,1.40771 0.57752,2.65889 z"
       id="path4" /><path
       d="m 86.4742,49.06345 q 0.475,-0.71452 0.95,-1.429 l 0.18037,0.12638 c -0.331,0.5381 -0.36784,1.28366 -1.22078,1.45272 0.0305,-0.05046 0.06053,-0.10023 0.09041,-0.1501 z"
       id="path6" /><path
       d="m 45.535,58.41318 c -1.417,0.36447 -2.65383,0.77074 -3.92308,0.98664 a 15.94441,15.94441 0 0 1 -4.74986,-0.02741 41.08118,41.08118 0 0 0 -4.5315,-0.28067 7.93947,7.93947 0 0 0 -3.96382,1.332 10.546,10.546 0 0 0 -3.811,3.63116 c -0.44394,0.707 -0.74591,0.74433 -1.34556,0.10808 -1.13968,-1.20925 -2.28133,-2.42166 -3.33915,-3.70137 -0.84808,-1.02593 -1.586,-2.14456 -2.34733,-3.23976 a 1.95913,1.95913 0 0 1 -0.40925,-1.62019 1.235,1.235 0 0 0 -0.24575,-0.76478 12.23169,12.23169 0 0 0 -0.774,-1.03137 c 0.78,-0.06468 0.78262,0.667 1.194,0.84216 1.09859,-0.50942 1.26474,-0.76021 1.01906,-1.71362 a 1.30351,1.30351 0 0 0 1.39828,-0.35778 c 1.43225,-0.83157 2.87908,-1.64852 4.37591,-2.353 a 5.77324,5.77324 0 0 1 1.919,-0.28626 34.38324,34.38324 0 0 1 6.04513,0.41524 c 0.89745,0.08073 1.79812,0.12688 2.69779,0.18127 a 24.53058,24.53058 0 0 0 8.78947,-0.96959 40.54738,40.54738 0 0 0 5.193,-2.15524 c 1.39533,-0.65642 1.92824,-0.71625 2.95185,0.434 1.34316,1.50924 2.59055,3.10586 3.84094,4.69492 q 2.38048,3.02517 4.69467,6.10232 c 1.23328,1.64535 2.40394,3.33753 3.61728,4.99806 0.40505,0.55435 0.859,1.07278 1.28553,1.61163 0.5733,0.72431 0.53366,1.10336 -0.29737,1.53183 a 16.20362,16.20362 0 0 1 -5.51626,1.8421 c -1.53637,0.17957 -3.0949,0.18407 -4.64468,0.22793 A 2.01752,2.01752 0 0 1 52.90257,67.96511 C 50.74847,65.10956 48.56031,62.27973 46.38035,59.44373 46.09628,59.07412 45.78931,58.72216 45.535,58.41318 Z M 18.10567,56.05859 a 0.81886,0.81886 0 0 0 -0.09768,0.41714 c 0.55188,0.887 1.0889,1.78863 1.7138,2.6235 0.64736,0.8649 1.37641,1.67 2.08987,2.48364 0.61114,0.697 1.25071,1.369 1.96441,2.14646 0.4204,-0.53807 0.73395,-0.96936 1.07792,-1.37482 a 11.09911,11.09911 0 0 1 8.25948,-4.156 19.99709,19.99709 0 0 1 3.55844,0.29884 c 2.83959,0.396 5.61374,0.39632 8.2443,-0.9781 0.7194,-0.37585 0.83075,-0.31656 1.3394,0.35728 1.45729,1.93054 2.89466,3.87615 4.35846,5.80173 0.93946,1.23578 1.88444,2.46979 2.88712,3.6536 a 2.4624,2.4624 0 0 0 1.1726,0.68178 5.2972,5.2972 0 0 0 1.505,0.11934 21.48024,21.48024 0 0 0 6.76864,-1.36071 13.87678,13.87678 0 0 0 1.64091,-0.82983 c -0.41531,-0.54961 -0.74858,-0.97423 -1.06439,-1.41146 -1.54174,-2.1342 -3.05352,-4.29057 -4.6257,-6.40206 -1.2067,-1.62059 -2.49,-3.184 -3.73437,-4.77675 -0.88914,-1.138 -1.74687,-2.30159 -2.66389,-3.41656 a 20.46064,20.46064 0 0 0 -1.72166,-1.79375 1.17044,1.17044 0 0 0 -1.576,-0.08624 23.45147,23.45147 0 0 1 -9.08567,3.04038 38.23609,38.23609 0 0 1 -11.44053,-0.30014 10.64112,10.64112 0 0 0 -8.06171,2.07072 14.22091,14.22091 0 0 0 -1.98209,1.863 1.25888,1.25888 0 0 0 -0.4564,1.26394 z"
       id="path8" /><path
       d="m 31.32045,71.51109 c -0.62512,-0.86677 -1.29354,-1.70611 -1.86444,-2.60723 -0.713,-1.12552 -1.33508,-2.30831 -2.01908,-3.45283 -0.24013,-0.40178 -0.436,-0.7511 0.08964,-1.05785 0.35763,0.74266 0.68288,1.46663 1.05074,2.16825 0.36267,0.69176 0.7685,1.36094 1.21771,2.1494 0.48458,-0.42677 0.85177,-0.75012 1.24659,-1.09787 L 30.755,66.79253 a 0.4892,0.4892 0 0 1 0.22588,-0.021 1.64053,1.64053 0 0 1 0.37136,0.38146 c 0.90721,1.55322 1.80341,3.11288 2.70265,4.67076 q -0.06324,0.06294 -0.127,0.12533 c -0.72359,-1.062 -1.45087,-2.1215 -2.16812,-3.18774 -0.17538,-0.26073 -0.31786,-0.54357 -0.561,-0.96417 -0.3937,0.5027 -0.71363,0.91115 -1.0614,1.35517 0.44507,0.7813 0.86852,1.52459 1.29194,2.26787 q -0.05416,0.04579 -0.10886,0.09088 z"
       id="path10" /><path
       d="m 33.91994,76.30364 c 0.05379,-0.93731 0.89028,-1.92682 2.29847,-2.7697 q -1.14922,1.38485 -2.29847,2.7697 z"
       id="path12" /><path
       d="m 36.54948,69.11369 a 14.57513,14.57513 0 0 1 -2.35469,-3.17538 c 0.80629,0.40785 1.4686,1.28308 2.44323,3.09747 z"
       id="path14" /><path
       d="m 31.42933,71.42021 c 0.48588,0.61715 0.97173,1.23433 1.5334,1.94774 a 2.78489,2.78489 0 0 1 -1.64211,-1.857 q 0.05444,-0.04495 0.10871,-0.09074 z"
       id="path16" /><path
       d="m 36.638,69.03579 q 0.72272,0.89578 1.44541,1.79158 l -0.18225,0.14318 a 3.86008,3.86008 0 0 1 -1.35158,-1.857 z"
       id="path18" /><path
       d="m 26.75513,62.85225 q -0.41647,0.58863 -0.833,1.17722 a 1.15832,1.15832 0 0 1 0.66436,-1.31963 z"
       id="path20" /><path
       d="M 29.14783,70.86568 28.352,69.4823 a 1.31277,1.31277 0 0 1 0.79583,1.38338 z"
       id="path22" /><path
       d="m 34.05493,71.82374 c 0.56456,0.12658 0.42662,0.60285 0.3572,1.05234 q -0.24206,-0.4635 -0.48421,-0.927 0.06377,-0.06241 0.12701,-0.12534 z"
       id="path24" /><path
       d="m 34.85722,69.45355 -0.59454,-1.03319 0.18874,-0.11817 0.66211,0.9938 z"
       id="path26" /><path
       d="m 17.47945,51.89957 0.70776,0.49052 c -0.7011,0.30131 -0.62394,-0.17024 -0.69176,-0.50545 z"
       id="path28" /><path
       d="m 29.88994,66.99295 0.33668,-0.49182 0.15973,0.09638 -0.31664,0.53705 z"
       id="path30" /><path
       d="m 75.05257,31.2485 a 9.7967,9.7967 0 0 1 -1.56046,3.56471 l -0.23192,-0.09358 c 0.21247,-0.50475 0.43,-1.0074 0.636,-1.51478 q 0.32287,-0.79539 0.62589,-1.59877 a 0.40743,0.40743 0 0 1 0.55175,-0.3397 z"
       id="path32" /><path
       d="m 75.70429,32.67319 a 4.61341,4.61341 0 0 1 -1.72206,2.80744 q 0.71616,-1.4515 1.4323,-2.903 z"
       id="path34" /><path
       d="M 75.07381,31.26637 74.17344,29.811 a 6.57445,6.57445 0 0 1 1.97966,2.36477 q -0.55033,-0.46354 -1.10061,-0.92718 z"
       id="path36" /><path
       d="m 74.86446,35.7444 c 0.50285,-0.66785 1.00571,-1.33568 1.56385,-2.077 a 2.40412,2.40412 0 0 1 -1.56385,2.077 z"
       id="path38" /><path
       d="m 73.69138,29.41376 -1.11746,-1.32549 0.18212,-0.15479 a 7.601,7.601 0 0 1 1.1602,1.31718 z"
       id="path40" /><path
       d="M 77.61586,35.504 A 1.43717,1.43717 0 0 1 76.79492,36.60374 1.30183,1.30183 0 0 1 77.61586,35.504 Z"
       id="path42" /><path
       d="m 71.5108,26.7642 -0.83567,-0.86944 0.18714,-0.18 a 2.25922,2.25922 0 0 1 0.76041,0.949 z"
       id="path44" /><path
       d="m 71.62268,26.66371 0.67888,0.70939 -0.17456,0.154 q -0.308,-0.38154 -0.61608,-0.763 z"
       id="path46" /><path
       d="m 82.004,42.74149 a 0.82545,0.82545 0 0 1 -0.2076,-0.28849 1.13265,1.13265 0 0 1 0.18309,-0.30571 0.518,0.518 0 0 1 0.19837,0.167 1.778,1.778 0 0 1 -0.17386,0.4272 z"
       id="path48" /><path
       d="m 80.33746,40.10791 0.54619,0.67427 -0.17481,0.14368 -0.52284,-0.68121 z"
       id="path50" /><path
       d="M 70.50467,28.54782 69.836,27.55916 a 1.05664,1.05664 0 0 1 0.66867,0.98866 z"
       id="path52" /><path
       d="m 82.50122,59.36173 c 0.77659,-0.83881 1.24529,-1.95792 2.40773,-2.44842 l -2.221,2.63663 z"
       id="path54" /><path
       d="m 86.65749,58.07168 c -0.83562,-0.35159 -0.97084,-1.1707 -1.33418,-1.83753 l 0.218,-0.15252 1.308,1.82488 z"
       id="path56" /><path
       d="m 85.74369,59.59976 c -0.35553,0.41883 -0.71106,0.83764 -1.12423,1.32439 a 1.33649,1.33649 0 0 1 0.943,-1.48183 z"
       id="path58" /><path
       d="m 80.98961,62.50054 1.24522,-1.12046 c -0.11667,0.71006 -0.11667,0.71006 -1.24522,1.12046 z"
       id="path60" /><path
       d="m 76.13413,64.55371 -0.53957,0.3777 -0.11105,-0.13587 0.52075,-0.42824 z"
       id="path62" /><path
       d="m 63.4138,19.7888 a 1.558,1.558 0 0 1 -0.675,1.49715 2.84174,2.84174 0 0 1 0.675,-1.49715 z"
       id="path64" /><path
       d="m 87.3728,50.75645 0.65282,-1.09945 0.24465,0.16495 q -0.38843,0.5206 -0.77678,1.0412 z"
       id="path66" /><path
       d="m 24.23621,59.22928 -1.44,1.32939 a 2.58326,2.58326 0 0 1 1.44,-1.32939 z"
       id="path68" /><path
       d="m 18.17593,55.99352 0.60914,0.62195 -0.22448,0.17491 Q 18.3332,56.42445 18.10574,56.05855 Z"
       id="path70" /></g><path
     style="fill:#d57a82;fill-opacity:1;stroke:#3fa38d;stroke-width:0.132073;stroke-linecap:square;stroke-linejoin:bevel;stroke-opacity:0.2"
     d="m 46.392422,54.274549 c -0.243895,-0.08719 -0.564063,-0.243015 -0.711486,-0.346274 -0.394984,-0.276658 -1.71235,-1.936172 -5.029437,-6.33569 -2.350597,-3.117642 -3.020241,-3.929296 -3.241808,-3.929296 -0.153587,0 -0.716348,0.186378 -1.250579,0.414173 -1.705363,0.727166 -2.58565,0.88793 -4.812715,0.878927 -1.180749,-0.0048 -2.548212,-0.09248 -3.380964,-0.216852 -4.991722,-0.745515 -8.752284,0.646475 -11.612987,4.2986 -0.863954,1.102971 -0.587177,1.209818 -2.527818,-0.97584 -1.861354,-2.096358 -2.228362,-2.560567 -3.156651,-3.992673 -0.8009725,-1.235691 -1.1088465,-1.94486 -0.53059,-1.222183 0.207169,0.258911 0.316221,0.317533 0.384668,0.206783 0.05853,-0.09471 -0.03567,-0.291511 -0.243254,-0.508182 -0.4728455,-0.493544 -0.3521625,-0.838963 0.659755,-1.888346 2.897579,-3.004862 6.012674,-3.993101 10.494582,-3.329324 4.893206,0.724691 9.895093,0.548208 13.790713,-0.486582 1.722987,-0.457675 3.566521,-1.179946 5.067412,-1.98534 1.628591,-0.87392 1.719993,-0.859645 3.031749,0.473505 0.586774,0.596345 1.954756,2.227386 3.039959,3.624535 1.085203,1.39715 2.475031,3.181537 3.088506,3.965304 0.613475,0.783767 1.943231,2.568154 2.955014,3.965304 1.011782,1.39715 2.303691,3.178625 2.870906,3.958835 l 1.031303,1.418561 -0.337409,0.224068 c -1.845562,1.22561 -7.95964,2.36686 -9.578869,1.787987 z M 15.418985,46.221993 c 0.352016,-0.330631 0.617373,-0.623804 0.589682,-0.651495 -0.09549,-0.09549 -0.869972,0.510212 -1.191984,0.932211 -0.435919,0.571273 -0.175638,0.449964 0.602302,-0.280716 z"
     id="path1067" /><path
     style="fill:#f7bb69;fill-opacity:1;stroke:#3fa38d;stroke-width:0.132073;stroke-linecap:square;stroke-linejoin:bevel;stroke-opacity:0.2"
     d="M 24.99975,66.994923 C 23.950157,65.774955 22.707697,64.05539 21.613903,62.308908 20.064838,59.835488 19.774411,59.462891 14.268167,52.884886 9.7983345,47.545023 7.1238805,44.127851 6.5579695,43.033499 c -0.555282,-1.073795 0.21365,-3.246651 1.808988,-5.111858 0.150627,-0.176107 0.852325,0.275676 0.934076,0.601398 0.05526,0.220194 0.161353,0.307536 0.373543,0.307536 0.3842895,0 0.3777605,-0.162387 -0.01498,-0.372576 -0.191742,-0.102617 -0.368001,-0.35575 -0.458849,-0.658971 -0.144338,-0.48176 -0.138308,-0.500108 0.280358,-0.853055 0.5927595,-0.499711 2.5066965,-1.423811 3.4018475,-1.642501 1.734694,-0.423795 6.662899,-0.687536 8.116481,-0.434366 3.797912,0.661481 11.49776,-0.833054 18.215614,-3.535637 2.674841,-1.076085 2.747821,-1.096668 3.204047,-0.903657 0.603306,0.255234 4.36123,3.815476 5.430462,5.144796 0.535891,0.666247 1.943483,2.549647 3.127982,4.185335 3.79917,5.246315 4.733383,6.504902 6.269079,8.445809 2.485623,3.141483 6.022333,8.136629 5.862325,8.279778 -0.07657,0.0685 -1.914278,0.715965 -4.801202,1.691566 -2.603858,0.879942 -2.944097,0.967036 -3.30828,0.846846 -0.277773,-0.09167 -0.613358,-0.09588 -1.062953,-0.01333 -0.972851,0.178623 -7.985788,-0.03798 -9.037886,-0.279147 -1.10662,-0.253666 -3.90671,-0.443398 -6.565732,-0.44489 -3.144087,-0.0018 -4.713276,0.314934 -6.922001,1.397024 -1.351612,0.662174 -2.393876,1.676602 -3.592371,3.496422 -1.093815,1.660874 -1.578702,2.602014 -1.875997,3.641211 -0.124483,0.435131 -0.248734,0.813549 -0.276113,0.840927 -0.02738,0.02738 -0.327374,-0.272876 -0.666657,-0.667232 z m 2.336914,-6.200284 c 0.408722,-0.494114 0.697448,-0.898354 0.641612,-0.898311 -0.05583,4.2e-5 -0.421628,0.251377 -0.812871,0.558519 -0.773098,0.606916 -1.274026,1.273776 -1.3955,1.85776 l -0.07733,0.371747 0.450475,-0.495663 c 0.247762,-0.272614 0.784886,-0.899938 1.19361,-1.394052 z m -2.698455,-1.301115 c -0.05133,-0.08519 -0.367563,-0.498724 -0.702745,-0.91896 -0.335182,-0.420236 -0.903615,-1.280424 -1.263182,-1.911528 l -0.65376,-1.147461 0.446274,-0.597767 c 0.245451,-0.328771 0.476194,-0.595025 0.51276,-0.591676 0.08767,0.008 2.946167,4.329489 3.049212,4.609771 0.125126,0.340341 0.301042,0.253933 0.301042,-0.147869 0,-0.208886 -0.09543,-0.433904 -0.22334,-0.526641 -0.122837,-0.08906 -0.801654,-1.165639 -1.508483,-2.392404 -1.659587,-2.880366 -2.024105,-3.305425 -1.956918,-2.281936 0.0302,0.459988 -0.01421,0.545734 -0.486668,0.939843 l -0.519895,0.433674 -0.37684,-0.599075 c -0.207263,-0.32949 -0.714658,-1.279449 -1.127546,-2.111021 -0.547383,-1.102448 -0.799543,-1.493205 -0.931023,-1.442752 -0.343488,0.131809 -0.176479,0.677457 0.649648,2.122512 1.074884,1.880177 1.704183,2.864289 2.630396,4.113473 0.414027,0.558397 0.752775,1.083249 0.752775,1.166336 0,0.231978 0.573933,0.957244 0.957819,1.210376 0.399584,0.263482 0.583119,0.293267 0.450474,0.07311 z m 5.283157,-2.278737 c 0,-0.04358 -0.310564,-0.463613 -0.690141,-0.933408 -0.379577,-0.469796 -0.918045,-1.249467 -1.196592,-1.732602 -0.533569,-0.925464 -1.748212,-2.331553 -1.891937,-2.190137 -0.12672,0.124687 0.443474,1.031751 1.390153,2.21145 0.463899,0.578087 0.909723,1.201419 0.990719,1.385182 0.298733,0.677764 1.397798,1.6681 1.397798,1.259515 z M 20.999433,56.86227 c 0,-0.303071 -0.659659,-1.180379 -0.789736,-1.050302 -0.06888,0.06888 0.624369,1.358136 0.730285,1.358136 0.0327,0 0.05945,-0.138526 0.05945,-0.307834 z m 5.873205,-1.158455 c 0.07904,-0.127887 -0.509101,-1.012026 -0.673211,-1.012026 -0.173668,0 -0.15059,0.09672 0.151201,0.633687 0.269542,0.479586 0.40069,0.574638 0.52201,0.378339 z m 22.317625,-0.575026 c 2.087299,-0.07558 3.116858,-0.248023 4.752525,-0.796022 1.171384,-0.39245 2.773619,-1.141215 3.147104,-1.470723 0.395164,-0.348634 0.260725,-0.785468 -0.562919,-1.829075 -0.428874,-0.543412 -1.44235,-1.908094 -2.252169,-3.03263 C 49.437286,41.282835 43.54635,33.885823 42.675406,33.43544 c -0.673647,-0.348355 -0.814171,-0.309757 -3.832107,1.052577 -2.752927,1.242705 -5.076717,1.916797 -7.738493,2.244804 -1.513448,0.1865 -6.186277,0.07679 -8.184679,-0.192165 -1.933274,-0.260188 -5.290447,-0.373405 -6.16446,-0.207889 -0.920649,0.174347 -2.315859,0.869107 -5.707197,2.841962 -0.149647,0.08705 -0.430622,0.137772 -0.624389,0.112705 -0.332021,-0.04295 -0.348018,-0.02414 -0.277851,0.32669 0.09098,0.454914 -0.1554785,0.870578 -0.6757035,1.139597 -0.368109,0.190357 -0.380844,0.186393 -0.787938,-0.245252 -0.22758,-0.241305 -0.508072,-0.438737 -0.623316,-0.438737 -0.234845,0 -0.221363,0.03071 0.387266,0.88221 0.329897,0.461539 0.409152,0.690493 0.409152,1.181977 0,0.760448 0.195811,1.147646 1.5042905,2.974594 1.811553,2.529355 4.881239,5.865804 5.396811,5.865804 0.201381,0 0.418571,-0.210973 0.797295,-0.774473 1.17827,-1.753137 3.48467,-3.563207 5.459595,-4.284709 0.856041,-0.312739 1.027029,-0.330887 3.07497,-0.326376 1.192689,0.0026 2.781909,0.08246 3.531599,0.177408 2.728317,0.345535 4.702512,0.175708 7.654256,-0.658449 l 1.086724,-0.307105 1.026072,1.321053 c 0.56434,0.726579 2.29504,2.979715 3.846001,5.006972 1.550961,2.027255 2.942211,3.752263 3.091666,3.833352 0.362394,0.196619 1.040022,0.312665 1.572852,0.269354 0.238538,-0.01939 1.270137,-0.06554 2.292441,-0.102555 z M 22.120355,53.194187 c 0.07607,-0.142144 0.107264,-0.289496 0.06931,-0.327447 -0.102347,-0.102346 -0.446739,0.217726 -0.446739,0.41519 0,0.256546 0.220618,0.205257 0.377427,-0.08774 z M 18.238659,49.76469 c 0.27449,-0.400347 0.358945,-0.621538 0.270525,-0.70852 -0.182468,-0.179501 -0.855476,0.599915 -0.855476,0.990734 0,0.441813 0.132297,0.377985 0.584951,-0.282214 z"
     id="path3674" /><path
     style="fill:#f7bb69;fill-opacity:1;stroke:#3fa38d;stroke-width:0.132073;stroke-linecap:square;stroke-linejoin:bevel;stroke-opacity:0.2"
     d="m 28.991998,71.229295 c -0.561272,-0.295469 -1.109821,-0.873915 -1.503772,-1.585729 -0.306574,-0.553938 -0.354002,-0.772572 -0.354448,-1.633938 -5.33e-4,-1.027936 0.323374,-2.095901 0.608492,-2.006281 0.392411,0.123344 3.10452,3.933476 3.194413,4.487699 0.0265,0.163368 -0.86872,0.776046 -1.263148,0.864485 -0.173919,0.039 -0.472834,-0.01637 -0.681537,-0.126236 z"
     id="path3676" /><path
     style="fill:#f7bb69;fill-opacity:1;stroke:#3fa38d;stroke-width:0.132073;stroke-linecap:square;stroke-linejoin:bevel;stroke-opacity:0.2"
     d="m 2.2759765,37.188691 -1.1442889,-1.641883 0.022215,-0.86741 c 0.03677,-1.43572 0.2885579,-2.175942 0.9483799,-2.788105 0.18365,-0.170384 0.446982,-0.53035 0.585184,-0.799926 0.563335,-1.098837 3.106689,-3.240775 4.717267,-3.972744 0.833918,-0.378995 6.6552675,-1.082945 11.2403005,-1.35924 4.868908,-0.2934 7.468429,-0.586496 12.143742,-1.369205 2.781993,-0.465743 3.819264,-0.722545 5.161039,-1.277744 1.900052,-0.786203 5.079883,-2.698017 7.392099,-4.444361 0.831214,-0.62779 1.581367,-1.143589 1.667005,-1.146221 0.323927,-0.01 1.882489,1.686078 2.213168,2.408376 0.612236,1.3373 0.320372,1.705147 -3.778644,4.762373 -1.456911,1.086627 -2.990368,2.14318 -3.407683,2.347896 -0.881712,0.432528 -3.0222,1.176356 -6.686689,2.323653 -3.177542,0.994841 -3.753707,1.064769 -8.384334,1.01759 -5.463474,-0.05567 -8.259564,0.0047 -9.756265,0.210729 -2.995941,0.412352 -5.8611765,1.527231 -7.9290795,3.085248 l -0.894761,0.674139 -0.963975,-1.224369 c -0.530186,-0.673403 -1.005796,-1.22703 -1.056912,-1.230282 -0.250881,-0.01596 -0.05283,0.691501 0.30979,1.106575 0.221499,0.253544 0.602242,0.738124 0.846095,1.076847 l 0.44337,0.615859 -1.182382,2.067044 c -0.65031,1.136875 -1.222425,2.067045 -1.271367,2.067045 -0.04894,0 -0.603915,-0.738848 -1.233274,-1.641884 z"
     id="path3678" /><path
     style="fill:#f7bb69;fill-opacity:1;stroke:#3fa38d;stroke-width:0.132073;stroke-linecap:square;stroke-linejoin:bevel;stroke-opacity:0.2"
     d="m 5.0513195,40.97861 c -0.274609,-0.329499 -0.538974,-0.726236 -0.587479,-0.881639 -0.196896,-0.630822 0.810614,-2.92072 1.75094,-3.979587 0.447879,-0.50434 0.490096,-0.523854 0.813813,-0.376169 0.239318,0.10918 0.380555,0.301066 0.472253,0.641605 0.171032,0.635167 0.05589,1.131575 -0.438419,1.890134 -0.553874,0.849967 -0.792903,1.33527 -1.180053,2.395867 l -0.331767,0.908878 z"
     id="path3680" /><path
     style="fill:#f7bb69;fill-opacity:1;stroke:#3fa38d;stroke-width:0.132073;stroke-linecap:square;stroke-linejoin:bevel;stroke-opacity:0.2"
     d="m 62.727795,54.29135 c -0.781166,-1.047184 -2.023537,-2.73771 -2.760825,-3.756723 -0.737289,-1.019013 -2.104456,-2.828679 -3.038149,-4.021481 -1.545657,-1.974587 -2.907943,-3.843841 -5.969943,-8.191618 -1.590377,-2.258199 -2.975353,-3.867541 -5.500242,-6.391279 -1.879671,-1.878814 -2.340787,-2.276716 -2.773416,-2.393211 -0.719985,-0.193872 -1.33429,-0.04119 -3.950454,0.98187 -7.104546,2.778254 -13.794086,4.062376 -18.066798,3.468097 -1.198656,-0.166718 -6.081112,0.05409 -7.475226,0.338059 -1.268055,0.258295 -2.599681,0.83249 -3.7551815,1.619227 l -0.967077,0.658446 -0.537674,-0.369929 c -0.324555,-0.2233 -0.594713,-0.530805 -0.681577,-0.775797 -0.138677,-0.391128 -0.125117,-0.422203 0.373424,-0.855777 1.808833,-1.573117 5.2575635,-2.92477 8.1703155,-3.202174 0.64746,-0.06166 3.825899,-0.108884 7.063197,-0.104936 6.369517,0.0078 7.433155,-0.07015 9.49597,-0.695596 5.303422,-1.608008 6.716605,-2.113102 8.032051,-2.870786 2.112244,-1.216633 4.894278,-3.191193 6.470663,-4.592581 1.120351,-0.995978 1.45345,-1.629363 1.38132,-2.626558 -0.068,-0.94016 -0.331144,-1.399483 -1.575326,-2.749824 l -1.040429,-1.1292 0.315256,-0.315255 0.315254,-0.315255 0.154168,0.294316 c 0.249212,0.475755 2.117015,2.825501 2.506473,3.15321 0.388717,0.327082 0.820613,0.382022 1.245188,0.158395 0.444206,-0.233967 1.674434,-1.420418 3.058768,-2.949923 2.618842,-2.893474 3.295754,-3.769786 4.64657,-6.015322 1.301714,-2.163913 1.194665,-2.075201 1.795803,-1.488205 0.611223,0.596843 0.686447,0.815989 0.442217,1.28828 -0.270681,0.523436 -0.392148,0.561355 -0.820699,0.2562 -0.511493,-0.364215 -0.5979,-0.216051 -0.24778,0.424875 l 0.291218,0.5331 -0.299851,0.441271 c -0.296272,0.436004 -0.304789,0.439195 -0.713493,0.267348 -0.541291,-0.227596 -0.557304,-0.222676 -0.330255,0.101481 0.40014,0.57128 0.256238,1.104409 -0.668075,2.475097 -1.229396,1.823106 -2.595822,3.401705 -5.410019,6.250066 -1.699214,1.719841 -2.93902,2.851306 -3.990592,3.641867 -2.198364,1.652711 -2.756659,2.492709 -2.332099,3.508823 0.104336,0.249711 0.875579,1.358661 1.713874,2.464333 1.617938,2.133986 11.674849,14.784257 12.226523,15.379356 0.793741,0.856222 2.254719,1.323519 3.308399,1.058198 0.323054,-0.08135 0.805321,-0.371501 1.250162,-0.752157 0.39832,-0.340848 1.337601,-1.081734 2.087291,-1.646413 0.763864,-0.575356 2.07123,-1.7551 2.973978,-2.683668 1.675903,-1.723836 4.924709,-5.626546 5.85842,-7.037576 0.665934,-1.006363 1.392538,-2.517767 1.761668,-3.664433 0.153579,-0.477075 0.323486,-0.915775 0.377574,-0.974891 0.05409,-0.05911 0.381758,0.157625 0.728158,0.481642 0.545544,0.510293 0.629818,0.652797 0.629818,1.064998 0,0.261732 -0.136768,0.839237 -0.303929,1.283343 -0.389812,1.035635 -1.544678,3.287411 -1.68601,3.287411 -0.05952,0 -0.304579,-0.09364 -0.544574,-0.208081 -0.239994,-0.114446 -0.473218,-0.171218 -0.518275,-0.126161 -0.04506,0.04506 0.07307,0.30557 0.262497,0.578918 l 0.344419,0.496996 -0.66678,1.016513 c -0.934293,1.424345 -1.503687,2.136259 -3.173971,3.96842 -2.283021,2.504283 -3.918773,3.853321 -6.654094,5.48777 -1.459631,0.872178 -1.858149,1.404715 -1.858284,2.483203 -8.9e-5,0.709213 0.215742,1.142826 1.72889,3.473406 0.509503,0.784748 0.926369,1.472757 0.926369,1.528912 0,0.08424 -0.520118,0.297313 -2.062596,0.844955 -0.07805,0.02771 -0.781037,-0.806407 -1.562202,-1.853592 z"
     id="path3682" /><path
     style="fill:#f7bb69;fill-opacity:1;stroke:#3fa38d;stroke-width:0.132073;stroke-linecap:square;stroke-linejoin:bevel;stroke-opacity:0.2"
     d="m 48.848282,18.063194 c -0.737731,-0.741364 -1.354129,-1.674114 -1.689846,-2.557115 -0.118931,-0.312813 0.02873,-0.514921 2.66817,-3.65202 1.536737,-1.826485 3.096376,-3.77429 3.465864,-4.328455 0.81401,-1.220867 1.755025,-3.01159 2.22172,-4.227867 0.189596,-0.494114 0.398149,-0.898389 0.463452,-0.898389 0.230404,0 1.835679,1.52556 2.583679,2.455378 0.753706,0.936911 0.757126,0.944812 0.690091,1.594313 -0.100549,0.97423 -0.166692,1.002087 -0.829426,0.349318 -0.362875,-0.357419 -0.622544,-0.529158 -0.674058,-0.445806 -0.04609,0.07457 0.0031,0.259611 0.109258,0.411202 0.322869,0.46096 0.229223,1.012674 -0.364568,2.147853 -0.397342,0.759617 -0.557621,1.21232 -0.557621,1.574983 0,0.415971 -0.09528,0.623603 -0.52153,1.136507 -1.948104,2.344141 -4.95991,5.891309 -5.256755,6.191166 -0.397755,0.401792 -1.275492,1.065879 -1.408792,1.065879 -0.04768,0 -0.45252,-0.367626 -0.899638,-0.816947 z m 6.309132,-11.16792 c 0.09167,-0.219311 0.166678,-0.491009 0.166678,-0.603773 0,-0.176675 -0.02836,-0.181509 -0.205068,-0.03496 -0.230752,0.191367 -0.538426,0.861421 -0.538426,1.172586 0,0.308663 0.366381,-0.03043 0.576816,-0.533854 z"
     id="path3684" /><path
     style="fill:#f7bb69;fill-opacity:1;stroke:#3fa38d;stroke-width:0.132073;stroke-linecap:square;stroke-linejoin:bevel;stroke-opacity:0.2"
     d="m 60.109267,8.842609 c -0.246468,-0.272811 -0.448124,-0.605491 -0.448124,-0.73929 0,-0.280201 0.376335,-1.119089 0.502037,-1.119089 0.106629,0 0.984952,1.120907 0.984952,1.256986 0,0.205726 -0.40196,1.097413 -0.494698,1.097413 -0.05282,0 -0.297698,-0.223209 -0.544167,-0.49602 z"
     id="path3686" /><path
     style="fill:#f7bb69;fill-opacity:1;stroke:#3fa38d;stroke-width:0.132073;stroke-linecap:square;stroke-linejoin:bevel;stroke-opacity:0.2"
     d="M 60.962258,46.153653 C 60.329651,45.859676 59.997705,45.49797 57.596438,42.486089 54.510708,38.615692 46.778878,28.683533 46.515853,28.252183 46.385677,28.0387 46.278962,27.768389 46.278707,27.651492 c -7.63e-4,-0.350081 0.69065,-1.035208 2.976362,-2.949305 1.194256,-1.000091 2.791223,-2.48219 3.548817,-3.293555 2.050716,-2.196267 4.814905,-5.41988 5.5323,-6.451799 0.610882,-0.878708 0.95321,-1.131465 0.95321,-0.703798 0,0.299032 -1.392122,2.905019 -2.207023,4.131443 -1.046235,1.574581 -3.564166,4.537102 -5.296385,6.231566 -1.662597,1.62636 -1.82103,1.905071 -1.471364,2.588386 0.271956,0.531455 0.298229,0.565084 4.774904,6.111894 3.900053,4.832349 5.721388,6.922911 7.575735,8.695567 0.901489,0.861773 1.139902,1.024801 1.598924,1.093349 0.296702,0.04431 0.68753,0.0241 0.868506,-0.04492 1.195164,-0.455769 5.180066,-4.22274 6.899515,-6.522187 1.252953,-1.675595 2.828562,-4.689227 2.686187,-5.137808 -0.05049,-0.159096 -0.406059,-0.629703 -0.790144,-1.045795 -0.384084,-0.416091 -0.914542,-1.043373 -1.178794,-1.39396 -0.548151,-0.727235 -0.93516,-0.956172 -1.346807,-0.79671 -0.153616,0.05951 -1.386897,1.229872 -2.740625,2.600812 l -2.461324,2.492617 -0.388738,-0.241119 c -0.556893,-0.345418 -0.923556,-0.759744 -3.188688,-3.603192 -2.553993,-3.20606 -3.333879,-4.291303 -3.333879,-4.639232 0,-0.208441 0.239776,-0.43231 0.978067,-0.913183 1.825491,-1.189 3.221602,-3.165008 3.333995,-4.718817 0.05125,-0.708485 0.05018,-0.711022 -0.635794,-1.507947 -0.614207,-0.713554 -0.670392,-0.824569 -0.529433,-1.0461 0.576149,-0.90547 1.200908,-2.075222 1.140586,-2.135544 -0.03947,-0.03947 -0.305041,0.03343 -0.590163,0.162007 -0.372828,0.168122 -0.53221,0.192351 -0.567567,0.08628 -0.02704,-0.08112 -0.319373,-0.485517 -0.64963,-0.898665 -0.619634,-0.775149 -0.849175,-1.457032 -0.676823,-2.010588 0.08541,-0.274334 0.08013,-0.276629 -0.154643,-0.06718 -0.373322,0.333045 -0.543207,0.280153 -0.39801,-0.123916 0.06735,-0.187422 0.200842,-0.444892 0.296654,-0.572156 0.166941,-0.221743 0.193736,-0.215286 0.64283,0.154895 0.714839,0.58923 0.844563,0.473822 0.333165,-0.296398 l -0.453274,-0.682681 0.222997,-0.494519 c 0.122649,-0.271985 0.25635,-0.492425 0.297114,-0.489866 0.277334,0.01741 1.670291,1.685416 7.025685,8.412961 3.332772,4.186689 6.405144,7.989463 6.827494,8.450611 0.508719,0.555448 0.814505,1.011491 0.905958,1.35112 0.132618,0.492507 0.06892,1.245188 -0.103788,1.226374 -0.06954,-0.0076 -4.155566,-4.546442 -5.255883,-5.838376 -0.544119,-0.638878 -0.649273,-0.279588 -0.151911,0.519052 0.233438,0.374845 0.425694,0.714407 0.427233,0.754582 0.0015,0.04018 -0.14229,0.139154 -0.31962,0.219952 -0.300572,0.136949 -0.355864,0.108908 -0.815984,-0.413816 -0.768495,-0.873057 -1.031859,-0.656204 -0.348586,0.287026 0.452789,0.625059 0.466853,0.983756 0.06196,1.580402 -0.506161,0.745868 -0.376224,0.910464 0.240741,0.304958 0.550327,-0.540104 0.55056,-0.54019 0.628296,-0.230467 0.04701,0.187291 0.242682,0.38848 0.494734,0.508675 0.229333,0.109362 0.542588,0.368748 0.696122,0.576415 0.274536,0.371328 0.48038,0.485358 0.48038,0.266113 0,-0.06131 -0.195168,-0.401481 -0.433705,-0.755947 -0.238538,-0.354466 -0.433497,-0.680701 -0.433242,-0.724968 2.48e-4,-0.04427 0.109758,-0.259736 0.243341,-0.478821 l 0.242878,-0.398339 1.01115,1.055831 c 0.998894,1.043029 1.010414,1.062355 0.950459,1.594282 l -0.06069,0.538454 0.35029,-0.122112 c 0.424027,-0.147816 0.718781,0.02757 1.317171,0.783754 0.520982,0.658364 0.526467,1.134943 0.03011,2.616467 -0.823474,2.457906 -1.888423,4.136033 -4.697492,7.40222 -2.775546,3.22721 -4.609763,4.934113 -7.503303,6.982496 -0.888944,0.629297 -1.054068,0.700891 -1.610905,0.698449 -0.341239,-0.0015 -0.843483,-0.106375 -1.116098,-0.233061 z M 73.993754,28.847028 c 0.119683,-0.311891 -0.159691,-0.496017 -0.314294,-0.20714 -0.129273,0.24155 -0.07647,0.401343 0.132619,0.401343 0.05893,0 0.140687,-0.08739 0.181675,-0.194203 z m -4.864072,-6.258923 c 0.320747,-0.381187 0.420679,-0.733986 0.207904,-0.733986 -0.16551,0 -0.75451,0.732923 -0.75451,0.938876 0,0.281384 0.200752,0.206134 0.546606,-0.20489 z m -1.617938,-1.019206 c 0.34504,-0.345039 0.579625,-0.716539 0.665099,-1.053283 0.07263,-0.286128 0.112604,-0.520233 0.08884,-0.520233 -0.06246,0 -1.54134,1.954737 -1.54134,2.037293 0,0.195964 0.310611,0.01302 0.787404,-0.463777 z m -0.920789,-0.446318 c 0.658966,-0.832014 1.111536,-2.098503 0.789197,-2.208518 -0.08899,-0.03037 -0.454858,0.557797 -0.902682,1.451149 -0.559219,1.115573 -0.691256,1.469155 -0.512996,1.373753 0.132024,-0.07066 0.413941,-0.34803 0.626481,-0.616384 z m -0.484086,-1.283677 c 0.259305,-0.529061 0.541756,-1.236191 0.627667,-1.5714 l 0.156202,-0.609469 0.495836,0.424418 c 0.27271,0.233429 0.518107,0.402147 0.545325,0.374929 0.152747,-0.152747 -1.265629,-1.945279 -1.740217,-2.19927 -0.203514,-0.108918 -0.178764,-0.01627 0.148428,0.555601 0.311789,0.544951 0.35808,0.707214 0.224737,0.787773 -0.23795,0.143756 -1.492623,3.342206 -1.381559,3.521912 0.125699,0.203386 0.341303,-0.09647 0.923581,-1.284494 z M 65.67433,15.653035 c 0.0877,-0.141905 -0.737336,-1.214244 -1.016694,-1.321443 -0.372845,-0.143074 -0.299516,0.107837 0.221982,0.759569 0.566912,0.708486 0.662384,0.775986 0.794712,0.561874 z m -1.879764,-2.37984 c -0.207145,-0.221632 -0.500796,-0.584194 -0.652558,-0.805693 -0.266631,-0.389152 -0.630803,-0.544014 -0.630803,-0.268245 0,0.2475 1.419017,1.711281 1.542509,1.591169 0.07327,-0.07126 -0.02426,-0.265919 -0.259148,-0.517231 z"
     id="path3688" /><path
     style="fill:#f7bb69;fill-opacity:1;stroke:#3fa38d;stroke-width:0.132073;stroke-linecap:square;stroke-linejoin:bevel;stroke-opacity:0.2"
     d="m 61.040866,15.4475 c -0.830313,-0.966585 -1.627554,-2.065245 -1.627554,-2.242895 0,-0.05792 0.137607,-0.234578 0.305793,-0.392581 l 0.305794,-0.287278 0.567179,0.63084 c 0.311949,0.346962 0.665785,0.662136 0.786302,0.700387 0.120518,0.03825 0.396825,0.321655 0.614016,0.629786 0.480791,0.682103 0.522157,1.262453 0.116083,1.628603 l -0.27881,0.251399 z"
     id="path3690" /><path
     style="fill:#f7bb69;fill-opacity:1;stroke:#3fa38d;stroke-width:0.132073;stroke-linecap:square;stroke-linejoin:bevel;stroke-opacity:0.2"
     d="m 79.069036,39.577371 c -0.314986,-0.336745 -0.572462,-0.656474 -0.57217,-0.710509 2.92e-4,-0.05403 0.167339,-0.349174 0.371216,-0.655866 0.203878,-0.306691 0.370925,-0.619305 0.371217,-0.694696 2.98e-4,-0.07539 0.198659,-0.396557 0.440817,-0.7137 0.388435,-0.508719 0.46638,-0.824069 0.202958,-0.821133 -0.04709,5.21e-4 -0.220738,0.237514 -0.385878,0.526642 -0.165139,0.289128 -0.555474,0.845146 -0.86741,1.235596 l -0.567156,0.709908 -0.484409,-0.483624 -0.484409,-0.483625 0.52898,-0.890405 c 0.291005,-0.489834 0.688709,-0.98186 0.884032,-1.093694 0.433777,-0.248364 1.056312,-1.319216 0.843413,-1.450795 -0.07867,-0.04862 -0.187643,-0.01087 -0.242156,0.08389 -0.213757,0.371575 -0.480147,0.660764 -0.483889,0.525301 -0.005,-0.180967 1.096978,-3.047014 1.22009,-3.173235 0.240439,-0.246512 2.43305,2.177503 2.564603,2.835266 0.05775,0.288771 -0.187849,0.893333 -1.2372,3.045423 -0.720093,1.47682 -1.358914,2.715816 -1.419604,2.753325 -0.06069,0.03751 -0.36806,-0.207322 -0.683045,-0.544067 z"
     id="path3692" /><path
     style="fill:#f7bb69;fill-opacity:1;stroke:#3fa38d;stroke-width:0.132073;stroke-linecap:square;stroke-linejoin:bevel;stroke-opacity:0.2"
     d="m 78.307793,31.276032 c 0.04065,-0.06578 -0.151222,-0.47608 -0.426392,-0.91178 -0.521238,-0.825322 -0.610506,-1.248862 -0.340924,-1.617538 0.145548,-0.199049 0.20297,-0.166148 0.661539,0.379042 0.870363,1.034774 0.967979,1.390587 0.533157,1.943374 -0.238433,0.303118 -0.592902,0.474723 -0.42738,0.206902 z"
     id="path3694" /><path
     id="path3696"
     style="fill:#f7bb69;fill-opacity:1;stroke:#3fa38d;stroke-width:0.132073;stroke-linecap:square;stroke-linejoin:bevel;stroke-opacity:0.2"
     d="m 82.598527,35.793666 -0.636719,1.177735 c -0.350436,0.647455 -0.965471,1.819752 -1.365234,2.603515 -0.983595,1.9284 -0.916548,1.854751 -1.183594,1.285156 -0.124035,-0.264559 -0.771402,-1.037213 -1.439453,-1.71875 -0.968562,-0.98811 -1.239078,-1.202903 -1.330078,-1.054687 -0.06276,0.102231 -0.633929,0.891975 -1.269531,1.753906 -2.662426,3.610475 -4.510018,5.386177 -8.927735,8.580078 -2.050331,1.482343 -2.154421,1.65615 -1.646484,2.765625 0.35337,0.771861 0.479958,0.899444 0.902344,0.902344 0.319361,0.0022 0.334647,0.03931 0.134765,0.359375 -0.122972,0.196909 -0.05732,0.355024 0.433594,1.042969 0.318121,0.445801 0.66428,0.898655 0.771484,1.005859 0.301679,0.301679 0.636697,0.237255 1.654297,-0.318359 3.19593,-1.744998 6.055196,-4.068567 8.894532,-7.230469 2.153121,-2.397731 2.970331,-3.641396 3.664062,-5.576172 0.425612,-1.187001 1.169785,-4.065651 1.265625,-4.896484 z m -5.207031,6.628906 c 0.01159,-2.47e-4 0.02169,0.0024 0.02734,0.0098 0.618879,0.807672 1.291062,1.843701 1.234376,1.900391 -0.107698,0.107699 -0.30964,0.08555 -0.560547,-0.06055 -0.331567,-0.193056 -1.00901,-1.600362 -0.847657,-1.761719 0.05418,-0.05419 0.11172,-0.08714 0.146485,-0.08789 z m -0.837891,0.876954 c 0.159293,-0.02162 -0.128978,0.404812 -0.857422,1.261718 -0.593843,0.698575 -1.120285,1.287954 -1.171875,1.308594 -0.514232,0.205704 0.757989,-1.668945 1.535157,-2.261719 0.257842,-0.196665 0.421734,-0.298765 0.49414,-0.308593 z m 0.816406,2.482422 c 0.05227,0.0053 0.09932,0.0251 0.138672,0.06445 0.08002,0.08002 -0.08905,0.354193 -0.492187,0.796875 -0.532778,0.585027 -0.616194,0.637682 -0.621094,0.390625 -0.011,-0.557506 0.608753,-1.28873 0.974609,-1.251953 z m -3.375,2.091796 c 0.01106,4.63e-4 0.01855,0.0053 0.02148,0.01367 0.07174,0.205174 -0.07703,0.461073 -0.376953,0.650391 -0.157008,0.09911 -0.42532,0.217179 -0.595704,0.261719 -0.248883,0.06506 -0.187222,-0.02845 0.310547,-0.476563 0.298172,-0.268423 0.563203,-0.452459 0.640625,-0.449219 z m -6.166015,2.890625 c 0.125308,-0.02015 0.171008,0.05088 0.07813,0.201172 -0.0447,0.07232 -0.186081,0.18716 -0.314453,0.25586 -0.370219,0.198129 -0.425021,-0.08278 -0.0625,-0.320313 0.120703,-0.07909 0.223643,-0.124628 0.298828,-0.136719 z" /><path
     style="fill:#f7bb69;fill-opacity:1;stroke:#3fa38d;stroke-width:0.0933895;stroke-linecap:square;stroke-linejoin:bevel;stroke-opacity:0.2"
     d="m 71.509175,24.799533 c 0,-0.05576 0.0422,-0.212388 0.09378,-0.348053 0.0861,-0.226464 0.101255,-0.233313 0.185022,-0.08363 0.0716,0.127934 0.05141,0.202862 -0.09378,0.348053 -0.101762,0.101762 -0.185022,0.139397 -0.185022,0.08363 z"
     id="path3706" /><path
     style="fill:#93aab1;fill-opacity:1;stroke:#3fa38d;stroke-width:0.0933895;stroke-linecap:square;stroke-linejoin:bevel;stroke-opacity:0.2"
     d="m 63.396925,41.531999 c -1.409156,-1.27918 -2.537595,-2.585167 -6.30282,-7.294503 -1.984324,-2.481883 -4.029518,-5.005387 -4.544875,-5.607786 -1.002797,-1.172165 -1.455901,-1.793451 -1.455901,-1.996296 0,-0.06941 0.645415,-0.768115 1.434257,-1.552682 0.788841,-0.784565 1.838142,-1.894052 2.331779,-2.465524 1.627068,-1.883621 3.521524,-4.521501 4.347744,-6.053894 0.18794,-0.348573 0.374493,-0.634439 0.41456,-0.635257 0.04007,-8.18e-4 0.67961,0.496188 1.421203,1.104457 1.458305,1.196131 1.704137,1.514986 1.704137,2.210346 0,0.481585 -0.133391,0.781222 -0.735331,1.651782 -0.632151,0.91425 -1.483035,1.7529 -2.375238,2.341085 -0.856263,0.564491 -1.358135,1.095176 -1.358135,1.436106 0,0.135002 0.123511,0.440469 0.27447,0.678816 0.52087,0.822396 4.860775,6.340013 6.025537,7.660677 1.205066,1.366362 1.441407,1.533825 1.853458,1.313303 0.151002,-0.08081 1.004797,-1.095859 2.098269,-2.494552 0.477508,-0.610797 1.660648,-1.742353 2.43357,-2.327471 l 0.566359,-0.428744 0.394588,0.282748 c 0.826343,0.592132 1.772529,1.846821 1.774339,2.352861 0.0039,1.093299 -2.96319,5.347932 -5.308515,7.612081 -1.51555,1.463095 -3.521818,2.979137 -3.942466,2.979137 -0.136707,0 -0.491577,-0.258876 -1.050989,-0.76669 z"
     id="path4434" /><metadata
     id="metadata6550"><rdf:RDF><cc:Work
         rdf:about=""><dc:title>Map-01-01</dc:title></cc:Work></rdf:RDF></metadata></svg>
