<svg height='100px' width='100px'  fill="#000000" xmlns="http://www.w3.org/2000/svg" data-name="Слой 1" viewBox="0 0 100 100" x="0px" y="0px"><title>book</title><g><path d="M63.71628,13.24531a35.55228,35.55228,0,0,0,5.95264.0612,7.63933,7.63933,0,0,0,4.43875-1.61728c1.10714-.79211,1.71552-0.50451,1.79267.85466,0.092,1.62056.02875,3.25218-.01695,4.87766-0.05174,1.8385-.14793,3.676-0.244,5.513-0.15279,2.92091-.18106,5.85751-0.52233,8.75684a73.40363,73.40363,0,0,0-.06672,8.93236c0.0035,0.97072-.07118,1.94208-0.05664,2.91239,0.04367,2.92422.17887,5.84857,0.15446,8.77186-0.02306,2.7615-.25669,5.52084-0.29715,8.28265a60.82066,60.82066,0,0,0,.188,6.61547A2.07056,2.07056,0,0,1,74.2793,69.298c-2.642,2.15829-5.28218,4.32-7.88057,6.53031-2.3498,1.99891-4.58855,4.13141-6.98047,6.07693a67.50871,67.50871,0,0,1-6.16768,4.49191c-2.69007,1.72247-5.47794,3.298-8.27307,4.84778-1.12428.62337-2.38671,0.9942-3.573,1.51038a18.93223,18.93223,0,0,0-2.03978,1.00638c-3.63606,2.13475-7.39252,1.87082-11.09744.37-1.75537-.71107-2.56349-2.30554-2.78131-4.24068a135.31065,135.31065,0,0,1-.46261-14.29c-0.03309-5.03385.026-10.069,0.104-15.10262,0.05033-3.24632.31452-6.49178,0.29133-9.73624a85.158,85.158,0,0,0-.88116-14.25433,27.31135,27.31135,0,0,1-.48181-3.69713,14.47766,14.47766,0,0,1,.34616-2.70326,3.76483,3.76483,0,0,0,.22013-0.60131c-0.12159-2.16536,1.32508-3.39956,2.84347-4.42074,2.692-1.81049,5.48675-3.47208,8.27693-5.13142,1.81287-1.07813,3.7082-2.01669,5.54126-3.06212,4.00045-2.28143,7.98575-4.58945,11.97524-6.89,1.68951-.97432,3.356-1.99039,5.06649-2.926,1.42291-.77831,2.87743-1.505,4.35157-2.18141,0.97722-.44839,1.45957-0.16649,1.50253.90685A22.67751,22.67751,0,0,1,64.00526,8.872c-0.10416,1.0782-.285,2.1489-0.39723,3.22655A6.58474,6.58474,0,0,0,63.71628,13.24531ZM74.23955,28.37983a14.079,14.079,0,0,0,.20817-4.69869,6.21053,6.21053,0,0,0-3.87793,1.0123l0.932,0.88891C72.97213,24.709,72.97213,24.709,73.916,25.571l-1.55206.75876c-0.03123.28541-.06123,0.55934-0.09882,0.90312-1.37949-.86337-1.37949-0.86337-2.885-0.13275l-1.00127-.68354a3.2276,3.2276,0,0,0,2.20666-.7924c-0.35079-.84231-0.83649-1.26124-1.73633-0.83144-0.47152.22524-.93991,0.457-1.40969,0.68586l-0.757-.2063-0.03007-.30808,2.59906-.98-0.221-1.15091a3.46026,3.46026,0,0,0,1.49948.75313,35.25368,35.25368,0,0,0,3.863-.88781c0.16018-1.0635-.30786-1.35589-1.09459-1.23909-1.01067.15-2.02123,0.325-3.01334,0.56558a8.3553,8.3553,0,0,0-1.40917.62208q-1.54885.29416-3.09773,0.58825c2.12484-1.66182,4.86569-1.6505,7.26366-2.60665-0.68541-1.30045-.6837-1.28974-1.85268-1.10151a9.69532,9.69532,0,0,1-1.09614.05631l-0.00858-.25261,1.434-.78838c-1.17044-1.01973-2.12289.362-3.48158-.03866,1.65941-.70084,3.02456-1.27983,4.39569-1.84438a1.0558,1.0558,0,0,1,.28458.25055c-0.29361.33416-.58783,0.66907-0.95149,1.08292,1.106,0.83826,1.99585.11844,3.03327,0.00058V12.77061c-0.90534.49467-1.62975,0.89045-2.48435,1.35737,0.781,0.26383,1.402-.51757,2.11108.25682-0.47759.18237-.84694,0.35687-1.23471,0.46592a16.26088,16.26088,0,0,0-5.78708,2.85817c-2.29262,1.81322-4.58623,3.62715-6.92934,5.37387-0.9941.74107-2.11822,1.30685-3.17741,1.9617C53.5193,27.38,49.75,29.72909,45.96521,32.05313c-1.56849.96313-3.16,1.88963-4.75664,2.80575a1.89941,1.89941,0,0,0-1.09642,1.97189c0.173,2.42315.29988,4.85174,0.355,7.28022,0.02672,1.177-.19032,2.35739-0.22522,3.53836-0.08644,2.92586-.14115,5.85275-0.188,8.77954-0.01631,1.01886.0035,2.03975,0.04942,3.05778,0.088,1.9481.27387,3.894,0.29667,5.8423,0.03537,3.02719-.03168,6.05564-0.05535,9.08354-0.01353,1.73492-.00251,3.47047-0.04641,5.20465-0.06853,2.70853-.21167,5.41561-0.24872,8.12433-0.01875,1.37171.12548,2.74564,0.19694,4.13678,4.39476-.77092,17.49927-8.8682,19.32436-11.93907a12.50511,12.50511,0,0,1-1.97048.2793c-0.61864-.00974-1.283.4928-1.93543,0.026a0.88254,0.88254,0,0,1,.14086-0.26287,17.07144,17.07144,0,0,1,2.20357-.46611,7.62441,7.62441,0,0,0,5.7501-2.84366q0.065-.07569.13208-0.14964c2.90734-2.42839,5.793-4.88351,8.73513-7.269A2.29054,2.29054,0,0,0,73.67844,66.629,3.57031,3.57031,0,0,1,73.57,65.49961c0.17562-3.89063.3689-7.78043,0.55047-11.6708a10.83434,10.83434,0,0,0-.01991-1.13383c-0.079-1.35033-.22724-2.69956-0.23971-4.0502-0.025-2.70618.03766-5.413,0.03512-8.11954-0.00225-2.43283-.0435-4.8656-0.06734-7.29839a2.13093,2.13093,0,0,0-2.31187-2.11272c-1.12142.126-2.22908,0.37986-3.34024,0.5907-0.97808.18562-1.95266,0.38974-2.92875,0.58568,1.8996-1.46288,4.34433-1.22481,6.43312-2.15176a1.32849,1.32849,0,0,0-1.71208-.83022c-1.63513.37854-3.29331,0.65749-4.94206,0.97722l-0.08192-.36131c1.69777-.43891,3.39554-0.87784,5.10817-1.32061l-0.13037-.92489a2.87928,2.87928,0,0,0,2.978.14108c0.70354-.34693,1.23179-0.3642,1.36448.5841-0.75558.16652-1.51115,0.33307-2.43676,0.53706,0.83337,0.87067,1.4981,1.56518,2.28133,2.38347C74.15616,30.27,74.19784,29.32492,74.23955,28.37983ZM57.64678,8.86448c-2.59649,1.32929-5.23176,2.589-7.7785,4.00763-2.50143,1.39335-4.89882,2.9721-7.36824,4.4246-2.09732,1.23365-4.18588,2.49663-6.36186,3.57862a49.4513,49.4513,0,0,0-8.387,5.22015c-1.969,1.53045-2.06033,3.57428-1.82451,6.02236,0.74879-.862,1.32087-1.49671,1.86683-2.15311,3.12361-3.7554,7.43468-5.89835,11.47749-8.38537,2.76018-1.698,5.65346-3.17824,8.46554-4.79369,3.04858-1.75128,6.07619-3.53942,9.09892-5.33505a3.32148,3.32148,0,0,0,.62044-0.73268,1.69459,1.69459,0,0,1,.52519-0.52062c1.1594-.44148,2.33159-0.85109,3.5107-1.23716a1.80453,1.80453,0,0,1,.70477.15311c-0.07168.47406-.15491,0.88209-0.18919,1.29424-0.03039.36539-.00637,0.73528-0.00637,1.10322l0.23344-.0008c0.12-.93911.23994-1.87825,0.39552-3.09614-1.23195.19778-2.28336,0.34757-3.32656,0.54149C58.727,9.06239,58.15586,9.378,57.6297,8.8438c1.6715-.37674,3.343-0.75349,5.05794-1.14v-1.631c-0.7587.357-1.84528,0.60414-1.86918,0.92949-0.06888.93654-.71213,0.74191-1.18229,0.94638C58.96684,8.23969,58.30935,8.55788,57.64678,8.86448Zm6.19212,6.17858,0.01392,0.01756,0.11433-.445c-1.06324-.17713-2.00483-0.94779-3.19764-0.52557-1.34926.47759-2.73558,0.85048-4.10577,1.26893l0.01781,0.02052c0.45241-1.04575,1.43709-1.1921,2.38025-1.42362,0.65428-.1606,1.29967-0.35751,2.0064-0.55416-0.33124-.952-0.591-1.69854-0.94863-2.72638-0.43074,1.47275-.4282,1.48009-1.54444,1.86583-0.56259.19443-1.149,0.3242-1.7024,0.54027-1.14663.44769-2.28834,0.91116-3.41191,1.41326-0.54108.24177-1.03375,0.59066-1.55308,0.88264-3.06656,1.72421-6.16036,3.40188-9.19443,5.1814-2.80137,1.643-5.58081,3.33142-8.28941,5.12161a41.57009,41.57009,0,0,0-4.58633,3.59274A13.36176,13.36176,0,0,0,27.673,31.8988c-0.855,1.28366-.6646,2.09532.67872,2.80366a10.14258,10.14258,0,0,0,2.59684.85948c3.60207,0.77166,6.84129-.56143,10.01869-1.93922a40.99,40.99,0,0,0,4.96893-2.75394c3.835-2.34349,7.64136-4.73387,11.44976-7.12055,1.6047-1.00564,3.23587-1.98026,4.76484-3.09286,2.2291-1.6221,4.38231-3.349,6.55485-5.048,0.44868-.35089.84-0.77516,1.25777-1.16557l-0.13709-.24872Q66.83259,14.6181,63.8389,15.04307ZM25.54043,34.10838a9.206,9.206,0,0,0-.12314,1.39753c0.265,3.292.60086,6.57906,0.8196,9.87395,0.14684,2.21219.20286,4.43547,0.17842,6.65248-0.01968,1.78431-.2838,3.56512-0.32712,5.35023-0.06818,2.81179-.02341,5.62622-0.06413,8.43895-0.01881,1.29861-.18643,2.59626-0.18006,3.89381,0.00955,1.94366.13542,3.88648,0.17154,5.8304,0.06046,3.25366.06521,6.50844,0.1403,9.76165a14.9008,14.9008,0,0,0,.97538,5.57049,4.15932,4.15932,0,0,0,1.45918,1.8494,9.93976,9.93976,0,0,0,9.4955.50776,1.3313,1.3313,0,0,0,.93667-1.35872c-0.00872-1.1373.03157-2.27509,0.059-3.41249,0.05477-2.27213.13944-4.54385,0.16613-6.8163,0.0291-2.48229.00659-4.96516,0.00659-7.51363-1.85487.35362-3.69491,0.9566-5.59564,0.32487,1.90613-.46357,3.95537-0.36394,5.67333-1.68243,0-1.3008.02338-2.6501-.00428-3.9984-0.092-4.4866-.24425-8.9724-0.28879-13.45936-0.02418-2.4363.12253-4.87434,0.19305-7.31158,0.04837-1.67124.10329-3.34232,0.13823-5.01382a1.71664,1.71664,0,0,0-.25908-0.53165c-0.30792.53313-.4865,0.84237-0.675,1.16869-0.95991-.9748-1.98688-0.39047-3.22613-0.3414a2.92274,2.92274,0,0,0,.39781,1.21166,1.115,1.115,0,0,0,1.04588.08358c0.75673-1.00047,1.56739-.16125,2.46672-0.3305-0.3105.66122-.534,1.13727-0.7859,1.67372l-0.54542-.74857a13.5393,13.5393,0,0,0-1.8166.22306,1.0354,1.0354,0,0,0-.55063.6345,0.848,0.848,0,0,0,.49091.49531,6.34289,6.34289,0,0,0,1.14023.19154l0.00322,0.24428-1.5509.6601c0.03943,0.666.079,1.335,0.12047,2.03589a4.95127,4.95127,0,0,0,.94184.09776c1.185-.13645,1.41249-0.41247,1.48128-1.64214,0.01952-.34967.099-0.696,0.15108-1.04388a10.159,10.159,0,0,1,.27084,3.03639c-0.045,1.40869-.13012,1.54582-1.56216,1.773a1.411,1.411,0,0,0-1.48163,1.15216c-0.50921-.44106-0.96422-0.83514-1.2991-1.12524a2.8596,2.8596,0,0,0,.60778-1.23085,2.06267,2.06267,0,0,1,.06926-1.48253,2.58746,2.58746,0,0,0-.41321-2.17594,12.05912,12.05912,0,0,0,.16687-1.58634,5.81063,5.81063,0,0,0-.26451-2.19916c-0.42337-.86829.51988-1.4121,0.06985-2.2101,1.29282-.0083.44795,1.17149,1.08788,1.43568a2.948,2.948,0,0,0,2.43325-.395,1.75432,1.75432,0,0,0,.063-0.7988c-0.75661.04965-1.3831,0.09075-2.21923,0.14565,0.85151-.87344,2.55323-0.15083,2.45065-1.98585H36.27678l-0.02923-.24563c0.86894-.21871,1.73787-0.43746,2.66592-0.67109-0.006-.97879.48624-1.92838-0.29387-2.82041-0.55661.18134-1.06334,0.36877-1.58232,0.51162a14.54357,14.54357,0,0,1-7.21388.38022,8.48735,8.48735,0,0,1-2.27229-.85083A16.22667,16.22667,0,0,1,25.54043,34.10838ZM37.9496,50.93305l-0.07307-.57487a16.198,16.198,0,0,0-1.80255.02624,0.68374,0.68374,0,0,0-.40517.54259,0.66876,0.66876,0,0,0,.51692.41993A16.74119,16.74119,0,0,0,37.9496,50.93305ZM74.08673,20.38818l0.29966-.06313a2.00067,2.00067,0,0,0-.039-1.05768,2.07437,2.07437,0,0,0-1.05887-.18565l-0.11413.3Q73.63057,19.88493,74.08673,20.38818ZM38.94467,41.50068l0.3916-.02322q-0.04549-.77534-0.091-1.55064l-0.37478.02232Q38.90754,40.72491,38.94467,41.50068Z"></path><path d="M63.00482,64.73078c0.79323,0.63093,1.53987-.13182,2.60636.0793-0.84675-1.06128-1.42368-1.95877-2.5779-2.15285-0.41543-.06988-0.417-0.23412-0.50052-0.606-0.08893-.39585-0.56218-0.70531-0.71371-1.29411a7.06405,7.06405,0,0,0,1.78939,1.02809,9.28677,9.28677,0,0,0,2.43984-.1587c-1.325-1.48945-2.393-2.69-3.461-3.89053l0.299-.28162a19.69233,19.69233,0,0,1,2.21531,2.19643,3.25429,3.25429,0,0,0,4.08066,1.31045,1.15717,1.15717,0,0,1,.48239-0.02177,1.64218,1.64218,0,0,1,.38224.1724c-0.48453,1.00983-1.81345.13256-2.35819,1.18223,0.51687,0.57275,1.08158,1.19853,1.60117,1.77428,1.065-.10686,2.012-0.20189,3.15043-0.31616a1.39174,1.39174,0,0,1-1.41888.84681c-1.87575.23708-3.75441,0.45129-5.62912,0.6957a14.25363,14.25363,0,0,0-1.41053.34471c0.34783,0.53017.61012,0.91759,0.85961,1.313a1.353,1.353,0,0,0,1.65516.622,32.16353,32.16353,0,0,1,3.36467-.48431,1.74629,1.74629,0,0,1,.95761.2127c-1.33084.87-2.98067,0.52892-4.46709,1.12338,0.2694,1.11775,1.31776,1.36763,2.136,2.01917-0.8171.652-1.71452,0.2665-2.50393,0.42-0.7888.1534-1.58891,0.24878-2.52982,0.39173,0.46724,0.97915,1.35351,1.39544,2.32876,2.14433a53.01293,53.01293,0,0,1-5.44944.72863c0.54313,1.52238.89682,1.7956,2.3551,1.82036a1.0123,1.0123,0,0,1,1.20294.57195q-0.06681.07366-.13214,0.1498c-1.93581.14034-3.87137,0.28039-5.86848,0.42485l-0.10844,1.00227a9.26846,9.26846,0,0,0-2.24058-.628,10.81064,10.81064,0,0,0-2.46271.52091c0.44331-1.161,1.54466-.80835,2.28059-1.34431q-1.19125-1.7596-2.3927-3.53412l0.24727-.22148c0.819,0.93393,1.66008,1.84963,2.44959,2.80787a2.15791,2.15791,0,0,0,2.15433.80179c0.85128-.13021,1.704-0.25129,2.56643-0.37787-0.855-1.89339-1.25595-2.132-3.15043-1.91179-0.65929.07667-1.31939,0.14632-1.97913,0.2192l-0.07023-.45383c0.95065-.19874,1.90127-0.39752,3.00133-0.62752-0.44743-1.43072-1.76862-2.16048-2.38516-3.3959a7.85553,7.85553,0,0,1,2.65257,2.37909,2.09926,2.09926,0,0,0,2.06467.97091c1.05147-.09394,2.10587-0.15542,3.44725-0.25168-0.97316-1.1638-1.76637-1.89452-3.236-1.73826l0.58443-.91515c-0.27116-.52612-0.53979-1.04726-0.80841-1.5684l0.12767-.11716A4.154,4.154,0,0,0,65.691,70.31809a3.57177,3.57177,0,0,1,.807-0.05187c-0.79532-2.33124-2.65206-1.67793-4.54832-1.41268,0.76648-1.07852,1.81493-.48621,2.57536-1.10894-0.59729-.9066-1.2051-1.82917-1.81293-2.75175ZM64.568,62.43563l-0.05789.36751c1.07209,0.78909,1.85657,2.27525,3.89195,1.29221-0.68364-.73564-1.28491-1.38261-1.89175-2.03563C65.80536,62.19617,65.18669,62.3159,64.568,62.43563Z"></path><path d="M49.1521,80.86079a2.0599,2.0599,0,0,1,.49978.12317c1.19844,2.16228,3.08167,1.69192,4.94773,1.2934a5.51764,5.51764,0,0,1,1.56348-.16986c-0.95033,1.41866-3.06513.34108-3.74637,1.6741-1.97215.14777-3.74936,0.28094-5.65716,0.42392,0.94667-1.50327,2.58362-.41083,3.67884-1.32067C50.05461,82.2809,49.67054,81.6765,49.1521,80.86079Z"></path><path d="M66.65069,37.942c1.264-.33458,2.528-0.66913,3.93668-1.042-0.50927-.90737-1.21432-0.54587-1.76646-0.55452a8.64529,8.64529,0,0,1-1.6724.00479c1.76862-.79745,3.671-0.93306,5.48681-1.46l0.163,0.40816c-0.5.3-1,.6-1.61406,0.96837,0.36529,0.29229.66981,0.536,0.97554,0.78072A10.44613,10.44613,0,0,1,66.65069,37.942Z"></path><path d="M68.9765,32.94448a15.93026,15.93026,0,0,0,2.23071.20521,14.90721,14.90721,0,0,0,2.1205-.38758l0.13819,0.39761c-0.39684.16646-.789,0.34519-1.19159,0.49644-0.587.22068-1.18281,0.418-1.77148,0.63453a1.21316,1.21316,0,0,1-.25139.16761c-1.65651-.56433-3.14039.47582-4.7303,0.49567a2.38262,2.38262,0,0,1-.46946-0.13269,6.39849,6.39849,0,0,1,3.03408-.94766C68.71058,33.76557,69.1015,33.56978,68.9765,32.94448Z"></path><path d="M55.78168,81.44991c-1.5654-.45145-3.38432-2.08519-5.3866-4.6848C51.26292,76.99257,54.431,79.71136,55.78168,81.44991Z"></path><path d="M73.27947,55.63084c-2.022.38636-4.044,0.77275-6.41946,1.22667,0.714-1.0179,1.55225-.80166,2.18292-1.03266a12.57519,12.57519,0,0,1,2.0451-.49123c0.71032-.13111,1.43123-0.205,2.14751-0.3039Z"></path><path d="M67.23989,53.98748L72.9254,53.242C72.04029,54.13246,68.65828,54.61667,67.23989,53.98748Z"></path><path d="M72.63764,42.1245a6.52027,6.52027,0,0,1-3.61493.87125A5.55937,5.55937,0,0,1,72.63764,42.1245Z"></path><path d="M62.71211,64.99285a4.89361,4.89361,0,0,1-1.61959-2.15092,4.17373,4.17373,0,0,1,1.91221,1.889Z"></path><path d="M52.96693,73.11381l-0.86366-.96754,0.36468-.29q0.37292,0.51818.74605,1.03623Z"></path><path d="M60.50539,68.8308c-0.29643-.28284-0.59292-0.56565-1.135-1.08276a1.25809,1.25809,0,0,1,1.2624.96583Z"></path><path d="M37.192,66.87766c0.67556-.03946,1.08379-0.06332,1.68423-0.09841a1.59025,1.59025,0,0,1-.33889.61015c-1.5784.33622-3.16436,0.63694-4.90268,0.97651-0.18327-1.29688-.34648-2.45164-0.50968-3.60641,1.158,1.68758,2.32052.23129,3.55647,0.30689-0.04738-.6262-0.08175-1.08025-0.11874-1.5692h-2.379L34.136,63.13583a14.12453,14.12453,0,0,1,1.47143-.30625c0.78722-.08268.99941-0.50959,0.85721-1.41207h-2.403l-0.05778-.40758a15.42088,15.42088,0,0,1,1.61567-.40073c0.91389-.1296.9729-0.6619,0.79529-1.46372-0.77507.08146-1.49309,0.15694-2.2111,0.23238L34.12413,59.032c0.97448-.67579,2.19951-0.62633,3.22963-1.04031-0.02068,1.47832-.059,2.84781-0.02939,4.21582a1.527,1.527,0,0,0,.63575.39626,3.92938,3.92938,0,0,0-.634,1.30456,2.75879,2.75879,0,0,0,.60478,1.13775C37.74468,65.50775,37.50053,66.11285,37.192,66.87766Zm-3.10528.5759a7.63119,7.63119,0,0,0,1.3445-.127c0.51361-.144,1.39017-0.08725,1.20555-0.92242-0.17922-.81063-0.93525-0.43489-1.45976-0.32532C34.53711,66.21242,33.67692,66.21161,34.08669,67.45356Z"></path><path d="M35.2494,82.25c-1.74109,1.35-1.73231,1.34965-1.64236,3.67989a14.661,14.661,0,0,1-.09516,2.389c-0.829-1.47858-.1086-3.38258-1.37428-4.85257,0.87405-1.12692.30869-2.52181,0.26737-3.86561a3.24724,3.24724,0,0,1,.27345-2.27988c0.23216,0.39372.40887,0.69328,0.59115,1.0024l5.08569-.567,0.0868,0.45508c-0.52641.12764-1.04713,0.29233-1.58055,0.37452-0.8537.13159-1.71354,0.24869-2.575,0.29718a1.02843,1.02843,0,0,0-1.07975,1.27675c0.04071,0.74959.08889,1.4988,0.14082,2.36581C34.05768,82.42265,34.65356,82.33631,35.2494,82.25Z"></path><path d="M37.36437,88.675c-0.31982-.38652-0.63961-0.77307-1.01111-1.22211-0.65076.039-1.37316,0.08229-2.228,0.13349a1.453,1.453,0,0,1,1.48928-.69126c0.54239-.1005,1.14219-0.178,1.05379-0.93432-0.0821-.7028-0.64061-0.57587-1.12875-0.55223-0.4198.02032-.84134,0.00424-1.4924,0.00424a1.72682,1.72682,0,0,1,1.4598-.7477,0.9865,0.9865,0,0,0,.976-1.20281c-0.02376-.95908-0.00592-1.91912-0.00592-3.05955,0.83655,0.51419.55481,1.2151,0.64193,1.7672,0.092,0.583.09533,1.18,0.13693,1.76428L38.402,84.476l-1.11817.9175a1.9951,1.9951,0,0,0,.10889.70483,1.10509,1.10509,0,0,1,.06911,1.39834,2.05474,2.05474,0,0,0,.06506,1.06459Q37.44692,88.61994,37.36437,88.675Z"></path><path d="M32.8723,72.56476a1.901,1.901,0,0,1,1.89523-.78777,2.41189,2.41189,0,0,0,1.10862-.152c1.04539-.25293,1.078-0.339.67546-1.7325-0.856.12905-1.73726,0.2619-2.70065,0.40717-0.02431-.39009-0.0466-0.7484-0.07258-1.1658,1.27186,0.28757,2.49628.64746,3.26678-.81279,0.37851,0.316.73674,0.61494,1.09527,0.91422-0.24685.48386-.49557,0.9714-0.80253,1.57312l1.29646,0.36825A10.44044,10.44044,0,0,1,32.8723,72.56476Z"></path><path d="M37.18058,76.21873c-1.40631.12159-2.81263,0.24315-4.38144,0.3788A4.2757,4.2757,0,0,1,37.18058,76.21873Z"></path><path d="M33.63939,54.26974a19.681,19.681,0,0,1,4.68509-1.01008A5.80255,5.80255,0,0,1,33.63939,54.26974Z"></path><path d="M37.5269,88.56123c0.44232,0.17832.41167,0.51361,0.09487,0.6974a2.79654,2.79654,0,0,1-2.53551.22453q1.13915-.40414,2.27822-0.80816Q37.44686,88.62,37.5269,88.56123Z"></path><path d="M34.52839,56.06525q0.39575-.11915.79153-0.23836l0.10487,0.29705-0.80163.29937Z"></path><path d="M56.66371,15.359a16.38992,16.38992,0,0,1-1.55109,1.3783q-8.61748,5.9482-17.26293,11.85581a7.93248,7.93248,0,0,1-3.43819,1.81023,6.79714,6.79714,0,0,1,.81938-0.791q5.67739-3.91938,11.37423-7.81046,4.224-2.87912,8.48423-5.70469a10.513,10.513,0,0,1,1.59213-.71769Z"></path><path d="M56.45536,14.28154L34.64278,28.43228A1.95764,1.95764,0,0,1,35.80463,26.817c3.31666-2.14079,6.64688-4.26062,9.96682-6.3964,2.91065-1.87243,5.80728-3.76682,8.72587-5.62677a18.34042,18.34042,0,0,1,1.793-.89392Z"></path><path d="M60.50491,15.28371L37.80678,30.0256l-0.18093-.15221a2.87708,2.87708,0,0,1,.47261-0.62932c1.03472-.78921,2.05274-1.60969,3.14618-2.31082q8.55843-5.48762,17.15681-10.91294A2.87843,2.87843,0,0,1,60.50491,15.28371Z"></path><path d="M60.70295,17.08468C54.36138,21.85039,47.7501,26.24373,41.1346,30.63087,41.82663,29.22426,57.74827,18.18307,60.70295,17.08468Z"></path><path d="M54.80061,23.2631c-0.46441,1.01449-9.49125,7.68154-10.881,8.29957a1.28093,1.28093,0,0,1-1.137-.10207Q48.79161,27.36187,54.80061,23.2631Z"></path><path d="M65.5625,16.33216q-0.92782.26078-1.85558,0.52159L63.58838,16.522l1.79016-.70274Z"></path><path d="M63.8389,15.04307l-1.79283.723-0.10645-.40964q0.95643-.148,1.913-0.29593Z"></path></g></svg>