<svg height='100px' width='100px'  fill="#000000" xmlns="http://www.w3.org/2000/svg" data-name="Слой 1" viewBox="0 0 100 100" x="0px" y="0px"><title>mp-01-01-01-01-01</title><g><path d="M36.096,41.09053c-0.04645-.22245-0.07329-0.40916-0.12485-0.58877a16.29322,16.29322,0,0,1-.76563-3.92746,8.08514,8.08514,0,0,1,.54919-4.05156,10.67366,10.67366,0,0,1,2.30692-3.33286c0.6128-.53939,1.25592-1.04719,1.91033-1.53579A9.86739,9.86739,0,0,1,43.04948,26.337a1.49232,1.49232,0,0,1,.51307-0.05639,20.4278,20.4278,0,0,1,4.11315.34391A9.58865,9.58865,0,0,1,51.731,28.67218a4.71209,4.71209,0,0,1,.65676.86655c0.12278,0.17575.219,0.37,0.32829,0.55523,0.52552,0.89113,1.095,1.75987,1.5635,2.68a6.51841,6.51841,0,0,1,.61259,2.42767,18.35043,18.35043,0,0,1-1.05676,7.63515c-0.075.21779-.12342,0.44469-0.18824,0.68214,1.22576,0.395,2.39309.76663,3.55722,1.14806,0.65381,0.21421,1.289.50236,1.95575,0.65688a32.6749,32.6749,0,0,0,6.07806.84172,9.70963,9.70963,0,0,0,1.93034-.13323,22.73236,22.73236,0,0,1,3.73651-.17288,24.07884,24.07884,0,0,0,4.5044-.37829c2.179-.41106,4.32669-0.99575,6.47776-1.54538,2.48391-.63467,4.95628-1.31441,7.43524-1.96862,0.87444-.23077,1.75475-0.43931,2.62959-0.66864a4.94615,4.94615,0,0,0,.60295-0.22964,0.54059,0.54059,0,0,1,.63256.198,0.39221,0.39221,0,0,1-.02682.53167c-0.459.73119-.906,1.47059-1.38739,2.18681-1.0577,1.57357-2.16792,3.11293-3.1904,4.70873-0.7198,1.12337-1.32348,2.32069-1.993,3.47692-0.302.52152-.63458,1.02557-0.95921,1.53375-1.033,1.617-2.07586,3.22782-3.09982,4.85056a18.29914,18.29914,0,0,0-1.03029,1.79488C80.74614,61.914,79.67281,63.276,78.7794,64.75067c-0.65975,1.089-1.31229,2.18539-1.90076,3.31359a15.85161,15.85161,0,0,1-2.17188,2.888,0.76433,0.76433,0,0,1-.36.2574c-0.71113.166-1.42783,0.30862-2.14382,0.45331a6.02255,6.02255,0,0,0-.6985.11706,45.07635,45.07635,0,0,1-6.2486,1.32729c-0.80336.14466-1.60192,0.31993-2.40877,0.44011a14.12106,14.12106,0,0,1-1.86622.16683c-1.20627.01776-2.41369,0.00269-3.61969-.03164a8.94956,8.94956,0,0,1-1.18822-.19c-1.0391-.17245-2.07859-0.34247-3.11728-0.51739-0.76245-.1284-1.5239-0.26275-2.28568-0.39513a3.54147,3.54147,0,0,1-.44374-0.08442A37.65883,37.65883,0,0,1,46.02269,71.114a41.50172,41.50172,0,0,0-5.30222-1.83619,24.84,24.84,0,0,0-3.23-.59484c-0.91319-.14165-1.83443-0.23142-2.75215-0.34378-0.10681-.01307-0.21364-0.02726-0.3209-0.03512-1.71826-.1259-3.43509-0.28381-5.15554-0.36272-0.92176-.04228-1.85023.04235-2.77482,0.08729-0.71058.03454-1.41959,0.09988-2.12969,0.14559-1.33423.08592-2.67374,0.12043-4.00206,0.26109A34.61194,34.61194,0,0,0,12.96505,69.97a24.87271,24.87271,0,0,0-4.98141,2.1458c-0.16619.10007-.34635,0.1769-0.51268,0.27679a0.506,0.506,0,0,1-.65042.0713c-0.21835-.2057-0.0381-0.42363.06339-0.64262,0.40622-.87652.76154-1.77779,1.19309-2.64119a43.33745,43.33745,0,0,1,3.01555-4.977c1.3116-1.92644,2.48449-3.93865,3.67236-5.94328a32.1421,32.1421,0,0,1,2.76986-4.06028c1.03306-1.25523,1.90862-2.61152,2.86864-3.91191q1.24721-1.68941,2.4543-3.40829c0.42025-.5989.7662-1.25132,1.20328-1.83656a2.98209,2.98209,0,0,1,1.27263-1.112,44.05206,44.05206,0,0,1,7.30317-2.186c0.6948-.14954,1.404-0.23093,2.10381-0.35882C35.17718,41.30621,35.60847,41.1979,36.096,41.09053ZM46.72074,27.82407a1.04087,1.04087,0,0,0,.25755-0.27356,1.08877,1.08877,0,0,0,.01093-0.38191,0.8304,0.8304,0,0,0-.30657-0.288,3.84793,3.84793,0,0,0-1.14314-.00146c-0.64923.13707-1.28031,0.36013-1.919,0.5472l0.00625,0.00812,0.25685-.37841a3.70215,3.70215,0,0,0-1.95256.61253,1.04958,1.04958,0,0,1-.36046.09559,6.80118,6.80118,0,0,0-1.21215.41179,8.90133,8.90133,0,0,0-2.55593,2.16091A8.1213,8.1213,0,0,0,35.9982,34.3627a7.10549,7.10549,0,0,0-.24225,2.10937c0.09945,0.68337.17069,1.37428,0.32505,2.04563a36.23485,36.23485,0,0,0,2.26431,7.13209A43.75031,43.75031,0,0,0,41.508,51.13947c0.70513,1.08473,1.36828,2.19706,2.0856,3.27347,0.53349,0.80057,1.12367,1.56337,1.72146,2.38836,0.54973-.60018,1.19528-1.064.88348-1.97288a1.36972,1.36972,0,0,1-.01441-0.32239,23.49245,23.49245,0,0,0-.11828-2.75531,1.326,1.326,0,0,1-.0066-0.25855q0.00957-2.5225.02291-5.045a0.35025,0.35025,0,0,1,.06905-0.13114,14.56046,14.56046,0,0,1,.11273,2.19579,9.976,9.976,0,0,0,.0379,2.12483,19.41154,19.41154,0,0,0,.0972,2.10912c0.58515-.15233.59211-0.15241,0.58706-0.62556-0.00874-.8188.00127-1.63925-0.04948-2.45571a5.69318,5.69318,0,0,0-.15651-2.38912,0.345,0.345,0,0,1,.04093-0.11351c0.05343-.26729.10646-0.53469,0.15462-0.803,0.02981-.16606.0508-0.33371,0.07574-0.50064a5.75432,5.75432,0,0,1,.17308.77277,1.23824,1.23824,0,0,0,.29322.3681,0.71779,0.71779,0,0,0-.30515.72023c0.02467,0.36217-.01925.72876-0.0281,1.09356-0.00546.22511-.001,0.45045-0.001,0.69492,0.68025-.186.775-0.27665,0.72338-0.903a4.29379,4.29379,0,0,1,.17506-1.35192q0.106,0.32667.21191,0.65343a1.19267,1.19267,0,0,0-.02565,1.09013c0.71747-.17617.73339-0.20648,0.57316-1.084H48.28564a1.21088,1.21088,0,0,1,.18324-0.17089c0.51013-.31065.53771-0.39087,0.319-1.03227a2.90615,2.90615,0,0,1-1.27867.29558,1.02548,1.02548,0,0,0,.48757-1.03739,12.98627,12.98627,0,0,1,.02725-1.48612,0.46119,0.46119,0,0,1,.09991-0.17163c0.06932,0.76132.026,1.5,0.11006,2.243,0.64906-.14686.68493-0.1846,0.69054-0.71578,0.00444-.42154.0009-0.84316,0.0009-1.26474,0.32252,0.50175-.034,1.09508.27372,1.57891,0.57842,0.03437.77863-.24855,0.69686-0.70684a5.70383,5.70383,0,0,1-.00619-1.1315c0.01448-.96623-0.01722-1.93322-0.03458-2.89982a0.43679,0.43679,0,0,1,.27382-0.50747v2.55209c0.99625,0.00378,1.19389-.18818.99394-0.92886H50.6148l0.5968-.39784L51.093,41.01768l-0.76863.11463a1.03659,1.03659,0,0,1,.23983-0.19514,0.69039,0.69039,0,0,0,.57066-0.85443c-0.038-.55917-0.06364-1.12131-0.05091-1.68116a2.82129,2.82129,0,0,1,.281-1.38129l0.06144,0.86947c0.79137-.0763.863-0.1272,0.80794-0.59044l-0.58.08152a5.383,5.383,0,0,1,1.18875-.59445c1.01352-.171,1.00813-0.20291,1.36812.00914-0.27412.04788-.47912,0.08129-0.68311,0.11994-0.23248.044-.46714,0.08124-0.69524,0.14232-0.29053.07782-.28993,0.26317-0.1815,0.47714a1.44352,1.44352,0,0,1,.84645.07766,0.59174,0.59174,0,0,1-.581.22036c-0.30941.04312-.39968,0.19381-0.26982,0.52531,0.24527-.074.46584-0.14971,0.69129-0.20583,0.2025-.0504.43652-0.18241,0.58546,0.12695-0.3638.10034-.69908,0.17432-1.01908,0.29041a0.48938,0.48938,0,0,0-.30277.28336c-0.03456.39631-.01161,0.79762-0.00992,1.27272a5.45477,5.45477,0,0,1,.721-0.13791c0.19113-.00871.43268-0.24324,0.63156,0.12688-0.33689.07066-.6257,0.14843-0.91962,0.18828a0.42959,0.42959,0,0,0-.42791.52441c0.02189,0.24518.05139,0.48968,0.08006,0.75817l1.16734-.19861c0.15512-.8961.31531-1.80079,0.467-2.70693,0.06758-.40378.13261-0.809,0.17224-1.21618a1.45546,1.45546,0,0,0-.32391-1.26523,0.52466,0.52466,0,0,0-.573-0.23455c-0.31118.064-.62846,0.09841-1.06265,0.16357,0.2563-.2796.37765-0.51395,0.16956-0.74721a0.46984,0.46984,0,0,1-.11827-0.53836,1.549,1.549,0,0,0-.05436-0.58505l-0.92509.21469c0.30546-.43185,1.041-0.21723.95459-0.97551l0.29,0.34847a1.08662,1.08662,0,0,1,.90328.05139,0.29174,0.29174,0,0,1-.04233.09463q-0.21525.04715-.43217,0.0866c-0.495.091-.53485,0.18092-0.28365,0.70687l1.27974-.21072a5.49043,5.49043,0,0,0-.3448-1.25616c-0.40792-.73459-0.75812-1.4921-1.09492-2.25849a1.82446,1.82446,0,0,0-.369-0.33943,1.17456,1.17456,0,0,0-.98239-0.27085,1.02768,1.02768,0,0,0-.52531.28665,0.51053,0.51053,0,0,0,.22019.67934,3.151,3.151,0,0,1,1.66241-.36267c-0.03352.3065-.28046,0.26721-0.48567,0.30657-0.31337.06011-.627,0.12223-0.93575,0.20205a0.46978,0.46978,0,0,0-.34892.64483c0.101,0.54721.141,1.10547,0.23544,1.65413a8.93063,8.93063,0,0,0,.53019,2.40176c0.08789,0.18538-.02981.27383-0.30687,0.238-0.53771-2.10556-.61952-4.30149-0.94482-6.45564l-0.4113-.165a0.5383,0.5383,0,0,0,.19991-0.83564l-1.04414.20349,1.08675-.652A7.49626,7.49626,0,0,0,48.02976,27.298a0.71345,0.71345,0,0,0-.76025-0.11525,0.874,0.874,0,0,0,.76544.10893,3.31984,3.31984,0,0,1-.388.30553c-0.293.16955-.168,0.3236-0.0474,0.47962a1.04762,1.04762,0,0,1,.744.06823l-0.70861.322c0.08654,0.36377.15373,0.71326,0.25979,1.05051a0.79578,0.79578,0,0,0,.26334.24342l-0.30241.5169-0.46653-1.65343c-0.51311.05563-.542,0.08247-0.48887,0.4521,0.02762,0.19234.06374,0.38344,0.096,0.5751l-0.13451.03481-0.32107-.73336c-0.17387.01374-.32128,0.02538-0.46851,0.03692,0.1393-.25.57637-0.39192,0.29326-0.79774-0.62426.15629-.64366,0.21142-0.28258,0.79195v0.90087a3.67426,3.67426,0,0,1-.51738-2.06274c0.41865,0.29821.49712,0.27851,0.68082-.20823l-0.68241.07369,0.78236-.668c0.20273,0.04425.42849,0.09351,0.65407,0.14288a0.80995,0.80995,0,0,1-.18972.1651c-0.29662.12493-.25461,0.29463-0.08223,0.49169a0.41931,0.41931,0,0,0,.1488.60452c0.212-.05362.44129-0.07978,0.40043-0.38239-0.04514-.33425-0.29694-0.21573-0.49361-0.21394C46.76284,27.82794,46.74169,27.82548,46.72074,27.82407ZM52.18406,38.7026l0.12744-.65094a2.27006,2.27006,0,0,0-.57065.098,0.66461,0.66461,0,0,0-.32728.32743,0.33205,0.33205,0,0,0,.26127.48009,1.545,1.545,0,0,0-.21133,1.5877c0.79865-.16479.92384-0.23737,0.91359-0.72348A7.19559,7.19559,0,0,0,52.18406,38.7026Zm33.309,5.32021-0.95718.48957c0.25352,0.94037.487,1.80634,0.72212,2.67853l0.497-.06009-0.63272.49882c-0.23661-.85719-0.42929-1.627-0.66682-2.38271a0.92093,0.92093,0,0,1,.03775-0.99865l-0.53842.142-0.03351-.07707,0.39787-.35779c-0.90018.234-1.72635,0.4487-2.55267,0.66357l-0.45942.19782c-0.2132.0324-.4286,0.05433-0.63923,0.09891-1.44987.30688-2.89358,0.64577-4.34966,0.91921-1.01522.19064-2.046,0.30026-3.07161,0.43288-0.49869.06448-.47843,0.05672-0.61438,0.56149-0.34178,1.269-.634,2.55766-1.07625,3.79179a48.19751,48.19751,0,0,1-2.53147,6.14774,11.56255,11.56255,0,0,0-.48547,1.26784,0.35891,0.35891,0,0,0,.16935.54174,3.87345,3.87345,0,0,0,2.76493.27462c0.74315-.28577,1.51469-0.49706,2.26989-0.75245,0.59183-.20012,1.18749-0.39386,1.7648-0.631,1.49408-.61367,2.96894-1.27536,4.47271-1.86359a1.09575,1.09575,0,0,0,.92179-1.12255,0.84543,0.84543,0,0,1,.37927-0.8328c-0.06514.43656-.12787,0.74187-0.15253,1.05025a0.42739,0.42739,0,0,0,.50066.567c0.2535,0.01056.50778,0.00194,0.782,0.00194V54.74l-1.08207.45129-0.07251-.151c0.29089-.16312.57692-0.33586,0.87427-0.4862a0.44648,0.44648,0,0,0,.27324-0.51893c-0.07054-.55609-0.12333-1.115-0.16336-1.67413a0.60017,0.60017,0,0,1,.22638-0.684,0.68252,0.68252,0,0,1,.09349.20193,2.00135,2.00135,0,0,0,.0309,1.0063c0.32865,0.36628-.103.65244,0.04692,0.9541a1.8301,1.8301,0,0,1,.09783.33845c0.66324-.09335,1.29036-0.1816,2.00944-0.2828a3.06144,3.06144,0,0,0,.64375-1.31894c-0.5234.13734-.97949,0.24-1.42178,0.38486a0.63453,0.63453,0,0,0-.26348.31975,1.39189,1.39189,0,0,0-.07985.35329l-0.05-.01268v-0.747a7.06082,7.06082,0,0,1,.83215-0.2804,3.04146,3.04146,0,0,0,2.14031-1.55467c1.18626-2.00212,2.48423-3.93833,3.74711-5.89465,0.38525-.5968.81281-1.16616,1.20485-1.75876a6.74493,6.74493,0,0,0,.88181-1.69885c-0.35451.11787-.61957,0.19449-0.8761,0.2933-1.04448.40233-2.09177,0.79833-3.12644,1.22473-0.39837.16417-.38432,0.19828-0.16235,0.69321a5.19779,5.19779,0,0,1,1.9193-.77626,1.12962,1.12962,0,0,1-.34962.25162c-0.46225.23351-.92484,0.46639-1.38983,0.69433-0.27692.13574-.40163,0.31188-0.20059,0.61341a2.22735,2.22735,0,0,1,1.38146-.20989l-1.39633.56415,0.0758,0.72307,0.415,0.2058c-0.28694.46083-.84055,0.21278-1.21472,0.57911L87.856,47.66392,85.26429,48.703V47.92073l0.32793,0.42639,0.84982-.43153L86.255,47.08835l-0.5068.04792,0.42789-.46066c-0.165-.65184-0.325-1.28916-0.48806-1.92568-0.06271-.24481-0.13243-0.48783-0.19889-0.73162a0.97682,0.97682,0,0,0,.97943-0.12679c0.22937-.15263.49653-0.24718,0.73732-0.38438a3.0338,3.0338,0,0,0,.35479-0.27482A3.4119,3.4119,0,0,0,85.49306,44.02282ZM49.19257,50.634a12.61036,12.61036,0,0,0,.96933-1.35644c0.65434-1.215,1.25463-2.459,1.87607-3.69171,0.30127-.59757.60717-1.19292,0.89862-1.79524,0.09717-.20082.15591-0.42024,0.28056-0.76476l-1.7337.39553v1.74047a4.49251,4.49251,0,0,1-.31041-1.55447c-0.92779-.06926-1.16247.172-0.96484,0.96863,0.29071,0.17628.57487-.28468,0.942,0.02129a2.96747,2.96747,0,0,0-.86976.317,0.92415,0.92415,0,0,0-.11529.90276l0.67246,0.17359-0.62205.26336c-0.01252.18331-.014,0.334-0.03793,0.481a0.48391,0.48391,0,0,1-.13787.1505l-0.19-.47257c-0.75094.08281-.80978,0.163-0.64659,0.83642l0.64461,0.15293c-0.677.362-.70991,0.42047-0.63146,1.08637a16.114,16.114,0,0,1-.01792,2.15552l-0.27729-1.36548c-0.78719-.048-0.95193.24819-0.59841,1.14807l0.48954-.24966c0.07593,0.35816.08476,0.4187-.12118,0.45111a0.62527,0.62527,0,0,0-.56637.58584,1.34667,1.34667,0,0,0-.539-0.23795,0.43672,0.43672,0,0,0-.34559.53739c0.01857,0.29674.03727,0.59349,0.05776,0.91937a1.34428,1.34428,0,0,0,1.20533-.41274C48.7719,51.582,48.96591,51.098,49.19257,50.634ZM53.34484,53.101l-0.00766-.00887a1.02714,1.02714,0,0,0-.48243.99141q-0.039.04152-.08061,0.08034l-0.19779-.48692a18.73986,18.73986,0,0,0-4.76124,2.97256,1.28569,1.28569,0,0,0,.25959.02284q1.02642-.12608,2.0515-0.263a25.441,25.441,0,0,0,2.556-.36533c1.84207-.44183,3.66644-0.95774,5.49612-1.45048a0.71272,0.71272,0,0,0,.39088-0.2052,5.60225,5.60225,0,0,0,.64856-1.10479,58.85518,58.85518,0,0,0,1.84633-5.65,7.19731,7.19731,0,0,0,.1663-1.01751,0.39216,0.39216,0,0,0-.35034-0.46153c-0.56726-.13015-1.12843-0.29756-1.70181-0.38815a22.99482,22.99482,0,0,1-5.21181-1.47886c-0.19069-.07883-0.37622-0.1701-0.55982-0.25362a1.6689,1.6689,0,0,0-.137.19724c-0.96925,2.06881-1.87275,4.17169-2.92471,6.19748-0.84182,1.62109-1.86426,3.14834-2.80543,4.71792-0.15468.258-.31357,0.51422-0.45194,0.78091a0.36226,0.36226,0,0,0,.13692.52875c0.50432-.32465,1.00056-0.61335,1.46311-0.9485a25.69682,25.69682,0,0,0,2.66991-1.63249,4.20042,4.20042,0,0,0,1.37813-.63269A3.29516,3.29516,0,0,1,53.34484,53.101ZM9.124,70.86159c0.62554-.2245,1.26417-0.41842,1.87413-0.67933A23.73678,23.73678,0,0,1,16.28,68.48945c0.9529-.16435,1.91887-0.25353,2.8795-0.37207a0.95469,0.95469,0,0,0,1.10222-.75765,0.60839,0.60839,0,0,1,.17216-0.26946c0.89712-1.02,1.80177-2.03344,2.69424-3.05749a8.25433,8.25433,0,0,0,.87433-1.11029A9.69085,9.69085,0,0,0,24.6987,61.468a16.74182,16.74182,0,0,1,2.43-4.47355,0.34316,0.34316,0,0,0,.02826-0.15769c-0.26907,0-.5231.02028-0.77284-0.00381-0.74949-.07227-1.502-0.13279-2.24456-0.25226a8.276,8.276,0,0,0-2.63842.08987,43.52894,43.52894,0,0,0-5.53893,1.52408,1.4904,1.4904,0,0,0-.86083.72445c-0.67,1.07812-1.36489,2.14073-2.046,3.212a5.81412,5.81412,0,0,0-.45418.77937,12.38282,12.38282,0,0,1-1.76539,2.77346,20.90872,20.90872,0,0,0-2.8457,4.83249c-0.10655.24656-.16388,0.5144-0.29136,0.92495l1.43756-.58606Zm42.63634,1.20528c0.35716,0.1187.65273,0.24041,0.95972,0.31512a29.57958,29.57958,0,0,0,5.702.64327c1.15787,0.05206,2.32114.03371,3.48014-.00631,0.75013-.0259,1.49678-0.14948,2.2453-0.22622a0.49186,0.49186,0,0,0,.44935-0.30177c0.29385-.62272.61224-1.234,0.92577-1.84732a79.15922,79.15922,0,0,1,4.27275-7.31083,5.03135,5.03135,0,0,0,.84289-2.07481,0.34617,0.34617,0,0,0-.31579-0.45751,2.2275,2.2275,0,0,0-.38684-0.02587,4.76621,4.76621,0,0,1-3.55422-1.58365c-0.32744-.33964-0.57716-0.75288-0.88679-1.11143a3.2998,3.2998,0,0,0-.81808-0.80788A8.81978,8.81978,0,0,0,61.05019,56.001c-1.14379-.069-1.00853-0.09386-1.42894.93736a0.82519,0.82519,0,0,0-.05643.252,2.1838,2.1838,0,0,1-.28526.76225A10.7755,10.7755,0,0,1,58.266,59.43642c-0.806,1.19669-1.62173,2.38868-2.37531,3.61824-0.82021,1.33825-1.72372,2.62444-2.41542,4.04511a21.12415,21.12415,0,0,0-1.48213,3.77816C51.89437,71.247,51.84444,71.62917,51.76031,72.06686Zm-16.922-4.43642a16.62782,16.62782,0,0,1,.63413-1.64345,16.00236,16.00236,0,0,1,.93705-1.46967,1.65882,1.65882,0,0,1,1.93969-.75038c1.61222,0.389,3.21745.81263,4.841,1.1469a16.2187,16.2187,0,0,0,2.88408.34227,18.78874,18.78874,0,0,0,5.35209-.8141,6.32565,6.32565,0,0,1,1.6903-.24057A7.24885,7.24885,0,0,1,52.43443,66.46a35.997,35.997,0,0,0-2.08919,4.162c-0.12959.31017-.22379,0.63514-0.35918,1.025l1.33416,0.32636a8.13023,8.13023,0,0,0,.28312-0.88431,17.811,17.811,0,0,1,2.26319-5.54972c1.302-2.20929,2.74535-4.33768,4.18544-6.46185a6.98767,6.98767,0,0,0,1.18994-2.34117,3.84991,3.84991,0,0,1,.27417-0.65559,0.81681,0.81681,0,0,1,.90778-0.55083,9.6294,9.6294,0,0,1,3.73225.93778,4.003,4.003,0,0,1,1.88677,1.49418,4.64713,4.64713,0,0,0,.54917.71948,4.2362,4.2362,0,0,0,3.42134,1.6695,2.07711,2.07711,0,0,1,.63667.07925,0.51839,0.51839,0,0,1,.46527.71354,6.686,6.686,0,0,1-.68492,2.00706c-0.89445,1.3971-1.79995,2.78907-2.63607,4.221-0.81575,1.39707-1.55531,2.83885-2.31764,4.26668-0.1571.29426-.26713,0.61367-0.40787,0.94254a1.18763,1.18763,0,0,0,1.29638-.48322c0.4507-.907.9288-1.80159,1.346-2.72375a54.19886,54.19886,0,0,1,2.771-4.8985,19.20818,19.20818,0,0,0,.97145-2.03487c0.16258-.37341.24605-0.78043,0.386-1.16472a2.10462,2.10462,0,0,1,1.75593-1.67206,1.05979,1.05979,0,0,0,.24053-0.09408c1.431-.54029,2.85344-1.10543,4.30041-1.59876,0.29079-.09916.3004-0.40394,0.544-0.45965a0.86889,0.86889,0,0,0,.69231-0.58252c0.62631,0.38519,1.00675-.14285,1.51877-0.27077L80.7647,55.818c-0.24765.07884-.42775,0.12258-0.59722,0.19221q-2.41984.99427-4.83718,1.99469c-0.13927.05732-.28625,0.09591-0.42963,0.14328-1.10418.36484-2.204,0.74369-3.31465,1.0877a2.44874,2.44874,0,0,1-1.38967.1475c-0.51862-.1388-1.05394-0.219-1.56666-0.37511a0.76464,0.76464,0,0,1-.50183-1.21154c0.499-1.09976.98639-2.205,1.50022-3.29779a41.06614,41.06614,0,0,0,2.51127-7.19848,3.3888,3.3888,0,0,0,.06289-0.70294,0.60244,0.60244,0,0,0-.1018-0.20509l-0.53922.04273c-0.20647.84093-.36811,1.645-0.60413,2.42659-0.36144,1.197-.71858,2.40051-1.18,3.56054-0.50875,1.27919-1.11742,2.52-1.71653,3.7611a4.65979,4.65979,0,0,1-.733,1.05384c-0.29885.33413-.50074,0.30561-0.81217-0.01579-0.10489-.10826-0.18139-0.24679-0.29463-0.34373a9.40745,9.40745,0,0,0-2.042-1.55636,8.00358,8.00358,0,0,0-3.39527-.669,3.824,3.824,0,0,1-.72337-0.14637c0.06844-.26071.135-0.52194,0.20735-0.78156a0.35384,0.35384,0,0,1,.07433-0.104,9.6088,9.6088,0,0,0,1.40579-2.66892,14.55771,14.55771,0,0,0,.63408-4.07677,2.43254,2.43254,0,0,0-.05014-0.44021,4.055,4.055,0,0,0-.39123-0.12844,0.19338,0.19338,0,0,0-.11647.0185c-0.45515,1.52241-.88187,3.01074-1.34771,4.48673-0.31814,1.008-.73891,1.98532-1.02313,3.00172a1.65418,1.65418,0,0,1-1.33957,1.22515c-1.14844.2918-2.30051,0.56927-3.44921,0.86013-0.9158.23187-1.8205,0.5169-2.74563,0.69988-0.79944.15812-1.61951,0.218-2.43274,0.29843-0.62085.06137-1.24476,0.10377-1.86827,0.12218a1.19566,1.19566,0,0,1-1.10462-.32261c-0.221.31451-.4067,0.57825-0.59179,0.84241a0.44552,0.44552,0,0,1-.56124.15678,1.20568,1.20568,0,0,1-.69036-0.72549,0.88485,0.88485,0,0,0-.79721-0.56653,3.43,3.43,0,0,1-1.67291-.40484,8.76309,8.76309,0,0,0-1.22677-.40542,26.01249,26.01249,0,0,0-4.50392-.82212,19.16869,19.16869,0,0,0-5.15768.15125c-0.75716.13915-1.51637,0.26718-2.32466,0.409a1.75246,1.75246,0,0,1,.00855-0.53566,12.42881,12.42881,0,0,1,.59479-1.57,21.44591,21.44591,0,0,1,2.52667-3.67472c0.557-.71377,1.182-1.37778,1.701-2.11708a11.8402,11.8402,0,0,0,1.79877-4.127,3.05522,3.05522,0,0,0-.01766-1.57234l-0.70127.17786a8.50226,8.50226,0,0,1-.18439,1.67643,10.86483,10.86483,0,0,1-1.966,3.60582c-0.15076.18306-.29292,0.37369-0.43125,0.56642-0.72958,1.01656-1.43833,2.04866-2.18923,3.04915a7.634,7.634,0,0,0-1.73643,4.18,4.4819,4.4819,0,0,1-.09676.51451c-0.73009.02248-1.45507,0.07123-2.179,0.059-0.62356-.01051-1.24539-0.1-1.86906-0.13615-0.36533-.02116-0.73281-0.01129-1.09921-0.00652a16.34313,16.34313,0,0,0-2.3758.06128,30.86838,30.86838,0,0,0-3.39652.79373,1.93642,1.93642,0,0,0-1.36087,1.45878c0.20168-.061.32317-0.098,0.44479-0.1345,1.238-.372,2.46164-0.80518,3.71777-1.09984a13.14082,13.14082,0,0,1,4.49266-.36289,6.72691,6.72691,0,0,0,2.68885.19568,0.58576,0.58576,0,0,1,.43375.301,0.57424,0.57424,0,0,1-.13391.444,10.28765,10.28765,0,0,0-.83226,1.07133c-0.65022,1.21476-1.3214,2.427-1.84733,3.69708a9.86518,9.86518,0,0,1-2.20063,3.23169,12.52727,12.52727,0,0,0-2.11208,2.72354c0.42909-.0314.81212-0.04323,1.18944-0.0959a0.522,0.522,0,0,0,.35678-0.21665,5.93479,5.93479,0,0,1,1.31807-1.897,0.74637,0.74637,0,0,0,.14249-0.28736,5.34752,5.34752,0,0,1,1.58127-1.84631,1.1158,1.1158,0,0,1,.54169-0.16588c0.16794-.02988.34366-0.01252,0.51481-0.02828,1.2875-.11865,2.57328-0.31752,3.86238-0.34137,1.59413-.02953,3.19135.07593,4.78642,0.1424,0.71225,0.02969.82581,0.223,0.596,0.90072a1.84844,1.84844,0,0,1-.15243.35683c-0.3407.56936-.693,1.13181-1.03279,1.7017a4.44748,4.44748,0,0,0-.58058,1.541ZM17.27509,55.66252L17.35534,55.787c0.6211-.14371,1.23753-0.31364,1.86436-0.42511,0.97358-.17312,1.95-0.35486,2.93332-0.43962a14.16863,14.16863,0,0,1,1.99986.0814c0.60185,0.0342,1.20268.08783,1.80474,0.11653,0.47391,0.0226.95016,0.04469,1.42323,0.02216,0.46934-.02238.524-0.11308,0.6283-0.57154,0.11439-.503.23473-1.00631,0.38787-1.49848a9.691,9.691,0,0,1,1.594-2.79558c0.84173-1.1484,1.65032-2.32158,2.51009-3.45612a13.305,13.305,0,0,0,1.62169-2.71125,3.61964,3.61964,0,0,0,.32454-2.13228,4.78675,4.78675,0,0,0-.787.05688c-0.94215.2298-1.88892,0.45-2.81435,0.73709-1.62374.50363-3.22891,1.067-4.85068,1.57722a2.05058,2.05058,0,0,0-1.2102.99437,12.89863,12.89863,0,0,1-.76071,1.20032c-0.73989,1.00517-1.48848,2.00456-2.25837,2.98684-0.57014.72741-1.21386,1.39868-1.76267,2.1409-0.833,1.12651-1.614,2.29151-2.41191,3.44371C17.47183,55.28731,17.37988,55.47935,17.27509,55.66252Zm49.409,16.67216c0.57066-.0716.99856-0.09889,1.41493-0.18315,0.8026-.16244,1.60478-0.334,2.396-0.54374,1.20716-.31991,2.408-0.665,3.604-1.0247a1.39944,1.39944,0,0,0,.64608-0.39751,16.27676,16.27676,0,0,0,1.49612-1.94221c1.18615-1.95279,2.30326-3.94738,3.46732-5.91379,0.868-1.46626,1.76833-2.91335,2.64913-4.37207A3.80545,3.80545,0,0,0,82.56,57.48369a1.562,1.562,0,0,0-1.26755.12654l-0.11375,1.31524c-0.217-.64087-0.25213-0.68438-0.70434-0.59974a4.02325,4.02325,0,0,0-.78744.27744,0.38359,0.38359,0,0,0-.20666.61159L80.22057,59.407a3.35668,3.35668,0,0,1-.35782.14337,4.94961,4.94961,0,0,0-1.53171.36952,3.02771,3.02771,0,0,1-1.16092.28111,0.82835,0.82835,0,0,0,.64291-1.07139,1.19069,1.19069,0,0,1,.1517-0.27006,4.532,4.532,0,0,0,.08228-0.53108,2.07469,2.07469,0,0,0-.37032.062c-1.50221.5958-3.00608,1.1878-4.49892,1.80641a1.14121,1.14121,0,0,0-.49754.46895,11.92828,11.92828,0,0,0-.58491,1.22289,15.9886,15.9886,0,0,1-1.096,2.54746c-1.33734,2.03892-2.45576,4.2049-3.59379,6.35807C67.16565,71.24818,66.96821,71.72456,66.68409,72.33467ZM44.107,55.98235a57.67968,57.67968,0,0,1-7.83823-14.10456c-0.17116.76876-.35606,1.53253-0.50959,2.30255a10.0073,10.0073,0,0,1-2.11752,4.24032c-0.99055,1.24692-2.014,2.46941-2.94314,3.76361a7.75867,7.75867,0,0,0-1.26711,2.58791c0.25786-.03269.46675-0.05786,0.67526-0.08583,1.08735-.14583,2.171-0.35959,3.263-0.41918a26.03784,26.03784,0,0,1,3.09762.09044,18.94257,18.94257,0,0,1,6.39,1.455A1.888,1.888,0,0,0,44.107,55.98235Zm8.38224,8.68889a5.17782,5.17782,0,0,0-.802.10178,23.11034,23.11034,0,0,1-5.40054.90351,17.1079,17.1079,0,0,1-4.907-.7116c-1.06716-.26081-2.13047-0.5381-3.2009-0.78453a1.17863,1.17863,0,0,0-1.49911.6834,1.471,1.471,0,0,1-.18613.33875,5.41132,5.41132,0,0,0-1.09822,2.08822,1.21432,1.21432,0,0,0-.00538.37817c0.16843,0.03007.29355,0.05642,0.41986,0.07429,1.00195,0.14176,2.01832.21863,3.00252,0.43921,1.1293,0.25308,2.23042.63219,3.34325,0.95835,0.5364,0.15721,1.08074.29319,1.60568,0.48261,1.74264,0.62877,3.47325,1.29214,5.27084,1.75516,0.46579,0.12.51454,0.10631,0.70878-.29636,0.18694-.38755.34006-0.79133,0.52435-1.18026,0.424-.89471.83548-1.79644,1.29434-2.67316A5.89752,5.89752,0,0,0,52.48928,64.67125Zm14.49434-7.75447a2.48724,2.48724,0,0,0,.54456-0.54724,35.71163,35.71163,0,0,0,3.178-8.0441,3.79381,3.79381,0,0,0,.2308-1.83113c-0.22957.06839-.42867,0.1332-0.631,0.18566a1.02207,1.02207,0,0,1-.30377.04136c-0.12841-.42859-0.46922-0.19209-0.673-0.17527a36.86535,36.86535,0,0,1-4.64132-.01447c-0.59509-.02578-1.1899-0.05813-1.85633-0.091-0.04315.43545-.09445,0.83725-0.1207,1.24071a9.6505,9.6505,0,0,1-.51081,2.98c-0.41405,1.03877-.93649,2.03418-1.4058,3.0512a4.91831,4.91831,0,0,0-.16834.51076,9.26777,9.26777,0,0,1,4.18638.89,2.22075,2.22075,0,0,1,.509.27253C65.86825,55.86935,66.39718,56.37331,66.98362,56.91677ZM35.1681,63.50257c-1.10525-.08231-2.12827-0.198-3.15351-0.22311-0.92247-.02259-1.84872.03335-2.77088,0.09258-1.11554.07163-2.229,0.17763-3.342,0.28356a0.92273,0.92273,0,0,0-.47163.1785,4.21392,4.21392,0,0,0-1.39922,1.66345,2.12752,2.12752,0,0,1-.62251.8817,1.90423,1.90423,0,0,0-.65642,1.19206c0.21179,0,.38163.00916,0.55022-0.00148,1.24518-.07843,2.48911-0.18875,3.73544-0.23378,1.13884-.04116,2.28128-0.04383,3.42006-0.00408,0.70536,0.02461,1.40483.19277,2.11065,0.23626,0.672,0.04142.67809,0.0086,0.93406-.63636a6.9671,6.9671,0,0,1,.92547-1.76343,7.337,7.337,0,0,0,.66144-1.17384A2.01171,2.01171,0,0,0,35.1681,63.50257Zm48.44114-7.79684a16.91306,16.91306,0,0,0-2.44532.07614v0.58238c0.48861,0.20926.89187-.31765,1.50169-0.05721l-1.4646.51582,0.03124,0.17294a7.05381,7.05381,0,0,0,1.719-.00534Zm-37.09894-.50957L46.633,55.24338a10.61407,10.61407,0,0,0,1.55762-2.67476l-0.83111.20748a2.96176,2.96176,0,0,1-.21969,1.28819l-0.15264-1.13278c-0.59756.11343-.62693,0.11443-0.61286,0.52525C46.39415,54.03744,46.46261,54.61644,46.51031,55.19616Zm7.1928-13.45488a1.65643,1.65643,0,0,0-.517.04217,4.89456,4.89456,0,0,1-1.25057.38032c-0.5669.1514-.60681,0.29747-0.35113,0.9081,0.533-.09388,1.07545-0.18456,1.6149-0.29035a0.302,0.302,0,0,0,.18174-0.16308C53.48528,42.37011,53.569,42.11319,53.70311,41.74128Zm30.7241,12.62063a1.70532,1.70532,0,0,0-1.36231.09859c-0.42075.10224-.43148,0.17981-0.29875,0.71929a2.14183,2.14183,0,0,1,.68869.01316,0.49687,0.49687,0,0,0,.70768-0.32831C84.23373,54.71232,84.31883,54.5665,84.42721,54.36191ZM51.4729,41.98809c1.01071-.13692,1.18235-0.47811.71391-1.423l-0.71391.30436v1.11866Zm35.70478,3.24342c0.73287-.29069.72947-0.28981,0.56456-0.92164a1.25393,1.25393,0,0,1,.04128-0.239c-0.00219-.15708-0.02207-0.31389-0.03863-0.52066-0.36323.13937-.7529,0.18466-0.76454,0.57129A5.3018,5.3018,0,0,0,87.17768,45.23151Zm-0.91653.5238C86.967,45.535,86.96471,45.533,86.73,44.91882a1.59963,1.59963,0,0,1-.00648-0.29143c-0.02522-.15971-0.06825-0.31661-0.12165-0.55407l-0.71316.418Zm-35.0939-16.075c-0.25664.16793-.49209,0.34959-0.17008,0.64658l1.04558-.28763a2.83294,2.83294,0,0,0-1.14129-1.09166C50.71544,29.39074,50.71544,29.39074,51.16725,29.68027Zm1.81593,6.09507,1.22762-.2133-0.04635-.55085a1.51676,1.51676,0,0,0-1.22119.1826Zm34.27645,10.826c-0.80978.26978-.885,0.49035-0.43806,1.13784l0.65141-.24883ZM47.89187,49.59393c-0.77661.13031-.86641,0.30642-0.54811,1.07495C47.934,50.55314,47.934,50.55314,47.89187,49.59393Zm33.009,8.3-0.03845-.16175a2.071,2.071,0,0,0-1.28206.15769c-0.18143.05656-.1928,0.26113-0.03,0.46307Zm-1.866.98761c-0.84444.19155-.85336,0.19958-0.821,0.7066C79.04285,59.484,79.08346,59.4513,79.03489,58.88152Zm0.01727-.81289c-0.70959.07671-.7378,0.1046-0.72653,0.71864C79.04482,58.68449,79.09832,58.63157,79.05215,58.06863Zm8.81826-12.80121c-0.65386.29729-.68584,0.38685-0.33835,0.84974C88.11188,45.91287,88.11188,45.91287,87.87041,45.26742ZM86.4805,46.53971c0.73424-.23679.74642-0.26135,0.38809-0.79917l-0.57385.30486ZM80.85086,56.94112l-1.14962.36232,0.03846,0.12574C80.08509,57.1835,80.61848,57.5577,80.85086,56.94112Z"></path><path d="M81.04753,45.01326l0.25957-.19639,0.45949-.1979q0.25886,0.04422.51754,0.08856l0.01079,0.1308-1.18034.25577Z"></path><path d="M38.67285,36.39522A6.33966,6.33966,0,0,1,40.52746,31.926a2.5327,2.5327,0,0,1,.708-0.43614c0.78587-.40009,1.56978-0.80608,2.37254-1.16985a1.90485,1.90485,0,0,1,.87814-0.16114,7.74793,7.74793,0,0,1,2.94278.68022,6.64672,6.64672,0,0,1,1.39266,1.02171,5.61894,5.61894,0,0,1,1.38583,1.9283,6.24682,6.24682,0,0,1,.43893,2.07046,6.31308,6.31308,0,0,1-1.22274,4.10815,4.59547,4.59547,0,0,1-.9107.91121,6.52646,6.52646,0,0,1-4.39118,1.44859,4.8,4.8,0,0,1-3.26453-1.2235,7.46366,7.46366,0,0,1-1.23067-1.57089A6.928,6.928,0,0,1,38.67285,36.39522Zm11.35552,0.079c-0.01824-.28708-0.02879-0.52442-0.049-0.76093a4.87981,4.87981,0,0,0-2.0442-3.85835c-0.1403-.09692-0.2442-0.24519-0.38-0.35017a2.53836,2.53836,0,0,0-1.31465-.64687,5.00913,5.00913,0,0,0-2.23755.10026c-0.32016.11952-.66252,0.178-0.99,0.27977a4.96783,4.96783,0,0,0-3.74469,5.17242,4.7996,4.7996,0,0,0,.66221,2.40726c0.59535,1.01418,1.154,2.08967,2.40982,2.47524a6.38616,6.38616,0,0,0,2.51634.4454,13.65069,13.65069,0,0,0,1.42676-.33762,4.90293,4.90293,0,0,0,2.2672-1.30681A4.96233,4.96233,0,0,0,50.02837,36.47425Z"></path><path d="M48.40881,29.65112c0.22737-.2499.65081-0.4242,0.30331-0.91889l-0.50562.07063a0.31527,0.31527,0,0,1,.00186-0.12386,1.63549,1.63549,0,0,1,1.38453-.26076l-0.585.19877a0.53518,0.53518,0,0,0,.32.62431A1.05185,1.05185,0,0,1,48.40881,29.65112Z"></path><path d="M53.4685,33.06765l-1.42833.30732a1.08567,1.08567,0,0,1,1.40793-.46285Z"></path><path d="M49.22806,30.00259L49.538,31.68865l-0.16785.03357-0.34124-1.6661Z"></path><path d="M52.97681,32.22559a3.06683,3.06683,0,0,1-1.33942.279A1.03551,1.03551,0,0,1,52.97681,32.22559Z"></path><path d="M49.186,42.82582l-0.089,1.14865a1.57093,1.57093,0,0,1-.10816-1.16433Z"></path><path d="M48.06538,43.85193l0.09977-1.03407,0.0806,0.006v1.03955Z"></path><path d="M43.62055,27.42634a1.54065,1.54065,0,0,1-.88482.41231,1.12368,1.12368,0,0,1,.891-0.40424Z"></path><path d="M44.87828,29.55526L44.774,29.10862l0.09409-.03491,0.17968,0.40337Z"></path><path d="M50.10846,39.71982l-0.03764.31038-0.0841-.00872L50.0085,39.708Z"></path><path d="M58.48709,55.85338a4.17072,4.17072,0,0,1-.11792.65327,13.91024,13.91024,0,0,1-1.4994,2.70438c-0.61851.957-1.17438,1.95477-1.74766,2.94052a1.59893,1.59893,0,0,1-1.26332.86548,12.68156,12.68156,0,0,0-1.88037.43139,14.682,14.682,0,0,1-5.91383.75151,37.98507,37.98507,0,0,1-4.78759-.677,24.202,24.202,0,0,1-2.80841-.959c-0.614-.23919-0.69044-0.50137-0.35553-1.09716a14.48465,14.48465,0,0,1,2.09815-3.24518,3.01942,3.01942,0,0,0,.29646-0.49449,1.01548,1.01548,0,0,1,1.13121-.55437c0.94678,0.20391,1.89254.41446,2.84412,0.59344,0.548,0.10308,1.10706.14666,1.66042,0.22224a15.939,15.939,0,0,0,6.526-.502c1.74063-.48863,3.47222-1.00945,5.20889-1.51229C58.03846,55.92772,58.2064,55.9081,58.48709,55.85338ZM38.33881,61.931a1.44556,1.44556,0,0,0,.32777.25694,23.20531,23.20531,0,0,0,2.87058.96722c1.343,0.28494,2.72016.41159,4.08428,0.594a12.49489,12.49489,0,0,0,5.24435-.39591c0.98708-.29037,1.997-0.50244,2.99236-0.76594a0.94781,0.94781,0,0,0,.48907-0.26959q0.59533-.76181,1.12862-1.57161c0.568-.86231,1.11062-1.74136,1.66729-2.61119a6.22974,6.22974,0,0,0,.74207-1.7235,1.37843,1.37843,0,0,0-.31287.00285c-1.5447.45914-3.09082,0.914-4.63076,1.38871a13.58816,13.58816,0,0,1-4.12938.65845c-0.58-.00443-1.16792.1351-1.73936,0.07869-1.02567-.10125-2.04446-0.285-3.06065-0.46514-0.72033-.12771-1.42983-0.31529-2.14754-0.45927a0.79937,0.79937,0,0,0-1.09.518,2.54265,2.54265,0,0,1-.41047.57014A15.75892,15.75892,0,0,0,38.33881,61.931Z"></path><path d="M35.09524,55.55452a10.61137,10.61137,0,0,1,3.41931.39006,0.9277,0.9277,0,0,1,.82282,1.3603,6.64019,6.64019,0,0,1-.95159,2.0451c-0.44064.69083-.8826,1.38265-1.3637,2.04521a1.22141,1.22141,0,0,1-1.3268.55578,14.07314,14.07314,0,0,0-4.23626-.38114c-1.39486.11768-2.78953,0.23746-4.18483,0.3495a6.30234,6.30234,0,0,1-.96957.02717,0.33908,0.33908,0,0,1-.32848-0.496,2.59837,2.59837,0,0,1,.17872-0.55148c0.37474-.75223.7556-1.5017,1.15162-2.24289,0.131-.24508.31833-0.45949,0.47228-0.69294a3.192,3.192,0,0,0,.5026-0.82044,1.09111,1.09111,0,0,1,.96546-0.81415c1.03573-.19909,2.08426-0.33527,3.11472-0.55687A9.03081,9.03081,0,0,1,35.09524,55.55452ZM26.459,61.59665A3.11184,3.11184,0,0,0,26.8186,61.595a26.91327,26.91327,0,0,1,4.37193-.37153c0.19352,0.0017.38716-.02439,0.58082-0.026,0.60036-.005,1.20458-0.0478,1.80019.00471,0.76931,0.06782,1.53063.22253,2.2981,0.318a0.65143,0.65143,0,0,0,.461-0.107,3.94946,3.94946,0,0,0,.69406-0.75636c0.562-.84123,1.11685-1.68932,1.624-2.564a2.9098,2.9098,0,0,0,.29143-1.046,0.50231,0.50231,0,0,0-.46556-0.6539,20.11215,20.11215,0,0,0-2.34884-.38609,15.66779,15.66779,0,0,0-4.367.25978c-0.52639.1066-1.07144,0.12343-1.59564,0.23775-0.6637.14477-1.3894,0.23419-1.59027,1.08363a0.98726,0.98726,0,0,1-.18857.25922,10.50745,10.50745,0,0,0-.82185,1.232C27.16884,59.87964,26.84171,60.71282,26.459,61.59665Z"></path><path d="M86.995,49.28712c-0.19885.50245-.59071,0.15276-0.84506,0.30063a4.65684,4.65684,0,0,1-.90893.29144c-0.2854.09279-.56934,0.19145-0.84889,0.30043-0.29685.11572-.58777,0.24661-0.943,0.397V49.8987l0.08105-.07832L83.734,50.205C84.82724,49.87021,85.769,49.17693,86.995,49.28712Z"></path><path d="M84.05166,51.52173a2.11691,2.11691,0,0,1,1.73045-.54028,4.56522,4.56522,0,0,1-1.69052.58888Z"></path><path d="M84.09159,51.57033a1.32632,1.32632,0,0,0-.54135.9027L83.47089,50.7676c0.31007,0.30887.11252,0.79627,0.58084,0.75423Z"></path><path d="M83.40107,44.72114l-0.66408.33134a0.66,0.66,0,0,1,.58794-0.44432Z"></path><path d="M83.15484,45.08626l0.463-.25274,0.0679,0.12729-0.46779.24357Z"></path><path d="M80.43036,45.3114l-0.39445.28788L79.95949,45.442q0.2384-.06135.47688-0.12266Z"></path><path d="M81.11458,45.0941q-0.342.10871-.68415,0.21736l0.006,0.00793q0.30557-.15294.61127-0.30589Z"></path><path d="M15.9536,67.1506l-0.71144-.07326a0.32682,0.32682,0,0,1,.4246-0.22253,1.05514,1.05514,0,0,0,1.01424-.54493,4.0153,4.0153,0,0,1,.501-0.5634l0.11213,0.07776-0.61681.93474a0.73825,0.73825,0,0,0,.8909-0.21418,0.72653,0.72653,0,0,1,.52-0.25362,1.21506,1.21506,0,0,0-.19941.33757,1.41025,1.41025,0,0,0,.04284.42077l-0.54224.14546L17.808,67.43323,17.01274,67.82c-0.6123-.517-1.2958.24407-1.98669-0.11256l0.97064-.37683Zm0.44767,0.11829H17.1219A0.41126,0.41126,0,0,0,16.40127,67.26889Z"></path><path d="M14.94259,63.54325A4.44292,4.44292,0,0,0,13.21517,64.753l0.22148-.52155a2.25135,2.25135,0,0,0-1.8044,1.27636,1.91337,1.91337,0,0,1,.66948-1.38421,4.2954,4.2954,0,0,1,1.05292-1.21323,0.52741,0.52741,0,0,1-.18144.61982c-0.10609.15183-.213,0.30307-0.37364,0.53135C13.60308,64.05415,14.09812,63.2987,14.94259,63.54325Z"></path><path d="M14.19111,64.8945a1.23,1.23,0,0,1-.24846.19289c-0.66581.28491-1.34,0.55053-2.00269,0.84232-0.34483.15182-.67173,0.34436-1.0616,0.547a0.55513,0.55513,0,0,1,.43116-0.57719c0.78362-.33829,1.58155-0.64424,2.38033-0.94589a2.06933,2.06933,0,0,1,.50095-0.05979Z"></path><path d="M13.134,66.36455c-1.01315.47758-2.02571,0.95646-3.04182,1.42767a0.80117,0.80117,0,0,1-.27768-0.11141,19.16332,19.16332,0,0,1,3.251-1.43945Z"></path><path d="M14.78307,66.55723a7.03589,7.03589,0,0,1,1.23266-2.26446,0.54666,0.54666,0,0,1,.54526-0.24754C15.95339,64.90372,15.36823,65.73048,14.78307,66.55723Z"></path><path d="M19.465,66.50554l-1.00433,1.28823A1.47137,1.47137,0,0,1,19.465,66.50554Z"></path><path d="M9.41867,69.53515l1.45124-.62824L10.933,69.04958a7.31629,7.31629,0,0,1-1.42558.63221Z"></path><path d="M9.13627,70.85526A0.68013,0.68013,0,0,1,9.079,70.66467a2.865,2.865,0,0,1,.67779-0.3351,1.3573,1.3573,0,0,1-.63269.532Z"></path><path d="M14.19079,64.89386l0.64888-.317,0.08257,0.10366-0.3117.41017-0.41943-.19619Z"></path><path d="M10.08246,68.70041L9.454,69.12587a0.59351,0.59351,0,0,1,.54745-0.517Z"></path><path d="M11.52806,67.97042l-0.30281.19226-0.06558-.104,0.29952-.19748Z"></path><path d="M10.00144,68.60886l0.51621-.29791,0.07008,0.12341q-0.25274.13291-.50538,0.26593Z"></path><path d="M12.28641,67.50307l0.2943-.12951,0.04321,0.08651-0.27455.154Z"></path><path d="M13.61759,66.1249l0.27338-.19809,0.07344,0.082-0.24736.23919Z"></path><path d="M57.49331,51.283a0.245,0.245,0,0,0-.10979-0.0595,1.81274,1.81274,0,0,0-1.40547.87421c-0.3307-.27908-0.59606.06116-0.90629,0.13832l-0.08237-.09526a3.12637,3.12637,0,0,1,.37073-0.25961,1.2161,1.2161,0,0,0,.78258-1.15841,0.23771,0.23771,0,0,1,.19277-0.20213l-0.1198.79464a7.13865,7.13865,0,0,0,1.08861-.56582,1.07413,1.07413,0,0,0,.26333-0.6218,3.00455,3.00455,0,0,1,.66664-1.68919,1.30154,1.30154,0,0,1-.21955.96978,9.16215,9.16215,0,0,1-.26633,1.024,4.42238,4.42238,0,0,0,.86832-0.26836,0.89267,0.89267,0,0,0,.28954-0.457,1.78924,1.78924,0,0,1,.73618-1.17261l-0.703,1.88858a1.73169,1.73169,0,0,0-1.45093.85664Z"></path><path d="M51.22206,52.43818a0.99782,0.99782,0,0,0,.34582-1.21237l0.70714-1.131a1.20788,1.20788,0,0,1-.12391.93634,8.31258,8.31258,0,0,0-.31672.83427l0.30363,0.146c-0.459.45206-.59966,0.39306-0.33192,1.03016l-0.48132.40876C51.14846,53.077,51.74775,52.72858,51.22206,52.43818Z"></path><path d="M52.79884,50.46387l0.892-1.17894,0.1149,0.039-0.63346,2.68436-0.32274-.40378a1.34039,1.34039,0,0,0,.311-1.11826Z"></path><path d="M49.6923,53.46412a2.28253,2.28253,0,0,0,.92821-1.7243,5.3145,5.3145,0,0,1,.4394-1.1689l0.15225,0.05058c-0.10585.37245-.21806,0.74324-0.31546,1.11788a3.19154,3.19154,0,0,0-.18133.875,0.54628,0.54628,0,0,1-.40595.6273c-0.20082.07054-.39144,0.17016-0.58661,0.25676Z"></path><path d="M56.29112,50.03357A5.81089,5.81089,0,0,1,57.015,47.624l0.13419,0.03921q-0.3534,1.20728-.70676,2.41453Z"></path><path d="M55.46343,48.654a0.97187,0.97187,0,0,1,.06807.34928A15.42221,15.42221,0,0,1,54.7,50.7368,3.84139,3.84139,0,0,1,55.46343,48.654Z"></path><path d="M60.21607,48.76942l-1.00305,2.336-0.1195-.04775a24.72221,24.72221,0,0,1,.91845-2.35675Z"></path><path d="M55.07175,52.236a3.78435,3.78435,0,0,1-1.73452.85608L53.34484,53.101a3.69048,3.69048,0,0,1,1.64459-.96012Z"></path><path d="M52.85475,54.08351l0.4917-.39365a3.97628,3.97628,0,0,1-.90932,1.25823l-0.12031-.08595q0.22874-.34919.4574-0.69834Q52.81576,54.12506,52.85475,54.08351Z"></path><path d="M57.48844,51.27947l0.20866,0.6284-0.41641.30662a1.25877,1.25877,0,0,1,.2126-0.93148Z"></path><path d="M50.266,54.05658c-0.03432-.446.16756-0.54119,0.47548-0.50378Z"></path><path d="M55.70243,53.57023l0.57872-.57242,0.1,0.09855a2.7091,2.7091,0,0,1-.56426.58666Z"></path><path d="M49.72279,53.49846a1.11508,1.11508,0,0,1-.79951.52775,1.10216,1.10216,0,0,1,.76927-0.5618Z"></path><path d="M47.71759,55.30646l0.6503-.37331,0.07371,0.1186a2.758,2.758,0,0,1-.63262.40345Z"></path><path d="M53.7961,54.5756l-0.458.33263-0.09973-.12809,0.45029-.35981Z"></path><path d="M53.17995,52.3429a1.49692,1.49692,0,0,1-.2369.10955,0.18877,0.18877,0,0,1-.06245-0.1233,0.22752,0.22752,0,0,1,.13435-0.11293A0.485,0.485,0,0,1,53.17995,52.3429Z"></path><path d="M55.963,52.8375l-0.21126.19076-0.06346-.05716,0.19232-.235Z"></path><path d="M76.74051,61.58661c0.36166,0.36919.6308-.00663,0.91569-0.11645,0.38942-.15011.09774-0.59407,0.34814-0.92494l0.19775,0.69572,0.9166-.21011a1.14981,1.14981,0,0,1-.74559.47271c-0.33671.13591-.70205,0.203-1.03386,0.34821a4.28975,4.28975,0,0,0-.65615.44294l-0.22345-.18279Z"></path><path d="M73.96968,65.18271c0.10724,0.99749.20382,1.89589,0.31483,2.9286A4.82093,4.82093,0,0,1,73.96968,65.18271Z"></path><path d="M75.777,63.60367c0.18314-.10537.37235-0.20166,0.54754-0.31889,0.15017-.10048.28427-0.22494,0.44841-0.35727a2.0135,2.0135,0,0,0,1.1965-.07615,3.75812,3.75812,0,0,1-2.1996.74308Z"></path><path d="M75.505,65.40794l-0.34906.29941v-1.565l0.08853-.0238a2.90772,2.90772,0,0,1,.114.35756c0.0585,0.31234.10394,0.62714,0.15461,0.94095Z"></path><path d="M75.51313,65.417a1.78524,1.78524,0,0,1,1.43547-.64789,0.964,0.964,0,0,1-.72522.39456,6.11058,6.11058,0,0,1-.7183.24425Z"></path><path d="M79.26617,60.91078l-0.08145-.90216,0.14418-.01505a1.72607,1.72607,0,0,1,.069.91547Z"></path><path d="M75.76981,63.59445l-0.48844.17769-0.02951-.14859,0.52505-.01991Z"></path><path d="M44.572,32.96774a3.82023,3.82023,0,0,1,1.92391.4846,3.02038,3.02038,0,0,1,1.52,2.42765,3.82929,3.82929,0,0,1-1.36384,3.70021,2.79117,2.79117,0,0,1-1.99346.604,3.15183,3.15183,0,0,1-2.90381-1.60044,3.52924,3.52924,0,0,1-.35752-1.02733A14.35565,14.35565,0,0,1,41.256,35.946c-0.10025-1.88489,1.15184-2.80588,2.86274-2.97627C44.26843,32.9548,44.42085,32.96774,44.572,32.96774Zm-0.04157,2.23574a1.48653,1.48653,0,0,0-.14494,1.36661c-0.65709.25844-.67056,0.28381-0.41194,0.69424,0.2646,0.06941.2439-.54293,0.6231-0.22978V37.681c0.3236-.04673.44124-0.18619,0.35938-0.45345a1.073,1.073,0,0,1-.13285-0.35724c0.02541-.18327.05077-0.452,0.39252-0.31813v0.85423a1.69891,1.69891,0,0,0,.55446-0.5371,1.8893,1.8893,0,0,0-.161-1.22045,0.38462,0.38462,0,0,0-.18443-0.04194l0.52152-.9787c0.01484,0.349.03448,0.65335,0.0383,0.95785a0.2816,0.2816,0,0,0,.264.3527,0.58551,0.58551,0,0,0-.04041.74487c0.45932-.20888.478-0.28167,0.20735-0.77829l0.25754-.88566c0.06735,0.47493.11363,0.9204,0.2,1.358a2.78615,2.78615,0,0,1-.14183,1.19849l-0.28688-.72885a1.52677,1.52677,0,0,0-.311.54671c0.04549,0.50723.14931,1.00923,0.2435,1.5883a3.32782,3.32782,0,0,0,.30512-0.24273,3.11784,3.11784,0,0,0,.14709-3.98891,3.848,3.848,0,0,0-2.05759-1.26886,2.45591,2.45591,0,0,0-2.66982,1.24041C41.29678,36.26115,41.985,38.815,43.704,39.456a2.70608,2.70608,0,0,0,1.99715-.0025,0.47469,0.47469,0,0,0,.27391-0.75027l-0.68885.22569-0.28266-1.00329c-0.37487.08667-.31441,0.31941-0.32636,0.53248a0.59743,0.59743,0,0,1-.08691.63935l-0.2277-.75852c-0.48941.08414-.0902,0.47772-0.32,0.64043l-0.42348-.44882,0.11532-.57856-0.12729-.07113-0.6648.45889a7.42651,7.42651,0,0,1-.33739-3.19434c0.45423,0.27841.52928,0.20023,0.69032-.68091l0.26407,0.32864c0.41459-.06764.34968-0.45119,0.48594-0.74,0.12057,0.243.37522,0.34844,0.18324,0.65374C44.06638,34.96465,44.24,35.15094,44.53039,35.20348Zm-0.97821,1.94908-0.36358-.0704c0.24907-.42465.24907-0.42465,0.11735-0.73354-0.48592.25962-.52244,0.55909-0.15416,1.40147C43.502,37.69221,43.68437,37.53653,43.55218,37.15256Zm2.29557,0.25257c-0.63649.18292-.713,0.46845-0.2936,1.09594C46.05132,38.33436,46.05874,38.30664,45.84775,37.40513Zm-1.90412-2.51476c-0.30259.228-.52093,0.37031-0.32279,0.72056C44.04606,35.5643,43.98852,35.28932,43.94363,34.89037Zm0.063,0.94346c-0.405.25573-.405,0.25573-0.17218,0.63279A0.3725,0.3725,0,0,0,44.00667,35.83383Zm-1.12864.35355c0.28067-.18145.5601-0.27117,0.32665-0.70627A0.54228,0.54228,0,0,0,42.878,36.18737Zm1.516,1.28593c-0.38921.10052-.47426,0.22324-0.37761,0.41667a0.423,0.423,0,0,0,.20017.0868Z"></path><path d="M45.04943,35.84118l-0.13749.36486-0.38754-.999c0.11442-.18242.0918-0.54124,0.43787-0.40225Z"></path><path d="M45.25781,33.95l-0.5515.30629a0.44082,0.44082,0,0,1,.46152-0.46242Z"></path></g></svg>