<svg height='100px' width='100px'  fill="#000000" xmlns="http://www.w3.org/2000/svg" data-name="Ğ¡Ğ»Ğ¾Ğ¹ 1" viewBox="0 0 100 100" x="0px" y="0px"><title>Map-01</title><g><path d="M8.68359,48.18481a0.79756,0.79756,0,0,1,.18459-0.29012,26.52785,26.52785,0,0,1,2.69764-.98338,37.23991,37.23991,0,0,0,3.92314-.94922c1.13038-.429,2.38189-0.52579,3.55422-0.85946A115.83159,115.83159,0,0,0,31.86482,40.8658c2.16811-.901,4.3065-1.87639,6.4368-2.86453,2.132-.98892,4.2416-2.02649,6.35156-3.062,0.72227-.35446,1.41777-0.76388,2.12231-1.15394,1.66218-.92021,3.3255-1.83847,4.98052-2.77146a7.33883,7.33883,0,0,0,.77826-0.58256c-0.18484-1.06909-.38245-2.10682-0.53988-3.15062a5.34055,5.34055,0,0,1,.69239-3.253A11.05324,11.05324,0,0,1,55.45564,20.715a7.31873,7.31873,0,0,1,4.00117-1.54162,15.4648,15.4648,0,0,1,4.01444-.02487,1.88578,1.88578,0,0,1,.69486.30994q2.25469,1.41181,4.49568,2.8454a7.14634,7.14634,0,0,1,.68539.53563c2.31033,1.91183,4.63563,3.80607,6.92274,5.74531,1.45074,1.23006,2.83872,2.53389,4.26478,3.79338,1.32889,1.17367,2.64189,2.36811,4.01529,3.4879,1.395,1.13738,2.8216,2.24274,4.29563,3.27461a6.16524,6.16524,0,0,1,2.45162,5.02823,10.79326,10.79326,0,0,1-1.95411,6.45152,26.52143,26.52143,0,0,1-5.81482,6.284c-0.83586.70532-1.7469,1.32413-2.64311,1.95478-2.29323,1.61372-4.54031,3.30246-6.91018,4.79566q-5.68506,3.582-11.5129,6.9361c-2.64932,1.5347-5.39556,2.90146-8.088,4.36269-1.158.62849-2.2632,1.35817-3.43929,1.94841-1.5262.76595-3.11137,1.41363-4.64787,2.16014-1.067.51839-2.1037,1.10191-3.13679,1.68663-0.60253.341-.67311,0.29994-1.18825-0.19439-1.2556-1.2049-2.54816-2.3718-3.84049-3.53775-2.44336-2.20436-4.90072-4.39322-7.34515-6.59642-1.67659-1.51115-3.3679-3.00757-5.00152-4.5642-1.07061-1.02014-2.04926-2.13672-3.07042-3.20884-1.17812-1.23692-2.3342-2.496-3.54307-3.70214a38.53944,38.53944,0,0,1-3.6577-4.11523c-0.86845-1.15648-1.94411-2.15544-2.845-3.29a25.8998,25.8998,0,0,0-2.72382-2.56123,4.6865,4.6865,0,0,0-.81148-0.48084C8.972,48.40547,8.83337,48.29246,8.68359,48.18481ZM76.88418,33.30675c0.9726-.1107,1.94518-0.22137,2.94123-0.33472-1.02341-1.50222-2.57372-1.77707-3.80474-.70339a0.662,0.662,0,0,0,1.08072.3005c0.7846-.4138.80364-0.37771,1.388-0.00138-0.29433.07414-.53572,0.12528-0.771,0.19657a0.90077,0.90077,0,0,0-.81943.55822,1.91682,1.91682,0,0,0-1.43075.7067A1.39619,1.39619,0,0,0,76.88418,33.30675ZM83.14365,46.044l0.5751-.92667-2.25009-1.43157c-0.10918.26278-.20213,0.46347-0.2759,0.671a2.87433,2.87433,0,0,0-.15471.55435,1.79,1.79,0,0,0,.86892,1.59214,0.77834,0.77834,0,0,0,1.12682-.34836Q83.08861,46.09928,83.14365,46.044Zm-2.7773-3.24433,0.01757,0.01879c0.2114-.45269.6589-0.069,0.94622-0.26884,0.71926-.50036,1.44367-0.99335,2.20652-1.51709a11.60117,11.60117,0,0,1-.94658-0.71565,1.06389,1.06389,0,0,0-1.47029-.00111c-1.50852.93974-2.18245,2.44919-2.88884,4.04276l1.757,1.25344c0.33652-.926.628-1.72786,0.93221-2.565ZM50.78778,34.59778L51.139,34.64709a3.80828,3.80828,0,0,0-1.21793-1.51774l-7.79058,4.021a1.6543,1.6543,0,0,0,2.00489,1.33829A14.52,14.52,0,0,0,49.0482,36.068l-0.88657-.793a1.5639,1.5639,0,0,1,.78556.28264,1.40875,1.40875,0,0,0,1.84631-.5818,0.54188,0.54188,0,0,0-.12842-0.24537Zm14.99537-8.40964c-0.848-.33392-0.848-0.33392-1.41815.27238,0.37564,0.305.73883,0.62085,1.12346,0.908,0.98144,0.73277,2.03219,1.38553,2.94392,2.19558a20.43018,20.43018,0,0,0,3.31782,2.47909c1.45813,0.84421,1.72207.85986,3.10264-.16515l-0.215-.65583a1.03735,1.03735,0,0,0,1.31259.06474c0.42987-.18339.88346-0.31127,1.44335-0.50363-0.303-.27616-0.54676-0.51713-0.81007-0.73449-0.54683-.45142-1.10191-0.89294-1.65731-1.33388-1.86666-1.48187-3.72732-2.97146-5.60587-4.4381-0.91349-.7132-1.93412-1.30454-2.775-2.09126a10.75882,10.75882,0,0,0-3.29807-1.934,4.87992,4.87992,0,0,0-3.37226-.26784c-0.78407.221-1.56055,0.469-2.5417,0.76577,2.18378,2.03591,4.51106,3.53278,6.55759,5.45519l0.80832-.67689c-0.641-.47665-1.03982-1.18271-1.92557-0.71254a0.73917,0.73917,0,0,1,.06423-0.27c0.706-.37254,1.39954-0.77752,2.13476-1.08114a0.52018,0.52018,0,0,1,.68442.50121,2.3008,2.3008,0,0,0-1.6991.49312c0.87054,0.89873,1.4,1.1862,2.7185.23419l0.50777,0.45944c-0.53411.17306-1,.324-1.4761,0.4783l0.1648,0.47088Q65.82832,26.145,65.78314,26.18814ZM61.36975,70.22621c-0.60364-.71256-1.18106-1.43754-1.80458-2.12044-1.04162-1.14081-2.11056-2.25677-3.17226-3.37916-0.59754-.63167-1.17661-1.28434-1.81278-1.875-0.75482-.70085-1.57849-1.327-2.34375-2.01723-3.1131-2.80784-6.14953-5.70327-9.51489-8.21988a5.67383,5.67383,0,0,0-3.46973-1.476,6.52521,6.52521,0,0,0-2.995.49582c-1.21746.59118-2.42448,1.20464-3.65161,1.77488-0.99349.46167-2.01,0.87375-3.01637,1.30763q-3.76964,1.62528-7.53907,3.251c-0.57817.24965-1.15294,0.50715-1.81685,0.79961,0.47741,0.55722.82659,1.01731,1.22877,1.42514q2.58167,2.61794,5.18975,5.20988c1.16365,1.1622,2.29976,2.35513,3.51049,3.46641q5.09726,4.67844,10.2498,9.29661c0.71456,0.64445,1.47267,1.24062,2.22228,1.8687l1.75859-.81493c-0.17479-.76753-0.87811-0.14665-1.13041-0.56148-0.0069-.88936,1.00175-0.61876,1.33386-1.14l-0.71723-.97073a0.75959,0.75959,0,0,1,.56243.2226c0.70163,0.62212.69951,0.616,1.51758,0.22836,0.7775-.36842,1.5634-0.71915,2.34682-1.075,0.16972-.07708.34465-0.14271,0.54531-0.22518-1.82656-1.31729-1.82656-1.31729-1.69164-1.93812a2.87109,2.87109,0,0,0,1.50834,1.16033l-0.19258-.61693c0.73551,0.25935,1.04723,1.15278,1.92327.87571l-0.23346.7061c-1.0113-.228-1.6979.37711-2.54449,0.77993a0.80851,0.80851,0,0,0,1.17817.25693c1.55621-.77948,3.13063-1.524,4.67107-2.33338,2.56644-1.34837,5.11232-2.73586,7.66444-4.11142A1.30291,1.30291,0,0,0,61.36975,70.22621ZM74.18419,47.36249c-0.1768-.136-0.34527-0.2842-0.53124-0.40552-0.86048-.56139-0.85469-0.54743-1.74861.04927-1.44689.96581-2.87769,1.95983-4.364,2.86161-2.66976,1.61979-5.37644,3.17874-8.06595,4.766-0.66545.39271-1.311,0.821-1.98922,1.18976a13.30744,13.30744,0,0,1-3.3003,1.57413,3.38465,3.38465,0,0,1-2.62185-.1764,7.45287,7.45287,0,0,1-1.24157-1.07221q-1.87324-1.82008-3.72153-3.66576a22.52718,22.52718,0,0,1-1.70829-1.8468,4.98116,4.98116,0,0,1-.77514-1.42567c-0.25664-.72774-0.15333-0.86493.50869-1.22174,1.61367-.86972,3.2289-1.73679,4.83333-2.62336,0.8176-.45176,1.59423-0.98039,2.42444-1.40588,0.77127-.39527,1.64473-0.60981,2.37534-1.062,1.75186-1.08421,3.4862-2.20707,5.14367-3.42825a4.74918,4.74918,0,0,0,1.7546-1.71573c-1.31736-1.23144-1.41915-1.24859-2.87131-.51517-0.11515.05815-.22943,0.11887-0.3479,0.16956a2.35815,2.35815,0,0,1-2.99315-.75827,25.5918,25.5918,0,0,0-2.06583-2.303,25.30546,25.30546,0,0,0-2.12107-1.64943l-0.12109.1469c0.331,0.34623.67331,0.68248,0.99,1.04129a1.19343,1.19343,0,0,1,.09253,1.50313,18.28224,18.28224,0,0,1-1.83843,1.12475c-0.67259.37352-1.3545,0.73547-2.055,1.05233a35.68806,35.68806,0,0,1-3.63085,1.5343,1.88625,1.88625,0,0,1-2.29067-.81174c-0.154-.23825-0.34794-0.45071-0.5782-0.74477l-1.16427.56292a8.1783,8.1783,0,0,0,.65977.74034c0.87978,0.7566,1.81006,1.45833,2.65173,2.25427A18.863,18.863,0,0,1,45.47475,43.319a1.05679,1.05679,0,0,1-.21311,1.62376,4.70275,4.70275,0,0,1-.88515.57971q-1.44344.78814-2.90206,1.54839c-0.685.35923-1.36022,0.745-2.07026,1.04748-3.3213,1.41459-6.67189,2.762-9.973,4.22158a2.94666,2.94666,0,0,1-3.77944-.83795c-1.6063-1.892-3.31709-3.69578-5.00191-5.52a1.04474,1.04474,0,0,0-.71031-0.368,7.27116,7.27116,0,0,0-1.33688.38619,1.599,1.599,0,0,0,.15681.29213c1.84508,1.75075,3.39526,3.78775,5.29043,5.48642,1.07246,0.96127,1.64529,2.37338-.508,3.08365-1.13121.37312-2.25485,0.77-3.37537,1.1744-0.59639.21523-1.17879,0.46917-1.89108,0.75526,0.37531,0.39271.66565,0.68266,0.93987,0.98712a0.89023,0.89023,0,0,0,1.12849.22743c1.635-.68221,3.28981-1.31752,4.91945-2.01206,1.92662-.82112,3.84016-1.67356,5.74923-2.53491,1.26326-.57,2.55179-1.10416,3.75115-1.79045a7.44117,7.44117,0,0,1,4.74995-1.225,4.65757,4.65757,0,0,1,2.18383.68573q2.04811,1.45533,3.99543,3.05112c1.222,1.00074,2.3745,2.08616,3.56576,3.12493,1.677,1.46232,3.41117,2.86337,5.02785,4.38923,1.40359,1.32473,2.67709,2.78723,4.00941,4.18756,1.26186,1.32626,2.52542,2.65088,3.84766,4.03857L64.01471,68.642a0.64348,0.64348,0,0,0-.07875-0.22115c-1.94122-1.69856-3.89546-3.38239-5.82448-5.09464a15.31979,15.31979,0,0,1-1.91512-1.91628c-0.97953-1.24511-.95595-2.18033.26577-2.99869,0.10722-.07182.20372-0.1605,0.31386-0.227,1.26653-.7653,2.5464-1.50921,3.80015-2.29484,2.92435-1.8325,5.83289-3.69025,8.75477-5.5267C70.91078,49.36968,72.50493,48.39948,74.18419,47.36249Zm9.95868-7.40974c0.71171,0.52772,1.248.9254,1.79949,1.33432-0.51374.44733-.17569,0.76581,0.06152,1.03692a4.49468,4.49468,0,0,1,.89821,4.01039,6.02046,6.02046,0,0,1-4.98021,4.78571,2.73419,2.73419,0,0,1-2.19078-.39953c-1.44865-.90283-2.93976-1.73737-4.4094-2.60676a0.9339,0.9339,0,0,0-1.07967-.02091c-1.19948.75479-2.42591,1.46682-3.62306,2.22517-2.25828,1.43055-4.48808,2.90656-6.75859,4.31723-2.05042,1.27394-4.14019,2.48453-6.21018,3.72706a6.46345,6.46345,0,0,0-.63615.44049c-1.01677.79022-1.08183,1.50248-.15436,2.398,1.25161,1.20849,2.5342,2.38516,3.81424,3.56382q1.422,1.30939,2.87346,2.58674c0.95374,0.83483,1.09365.823,2.1745,0.15106,1.72535-1.07263,3.46058-2.12935,5.1904-3.19479,1.77678-1.09439,3.57014-2.16335,5.32038-3.29872,0.86219-.55929,1.59463-1.32417,2.47164-1.85392a41.80368,41.80368,0,0,0,4.92279-3.73777,11.50921,11.50921,0,0,0,1.14533-.8532c1.27613-1.36425,2.53451-2.74646,3.76007-4.15626A9.09109,9.09109,0,0,0,90.535,46.2773a7.15732,7.15732,0,0,0-.01425-1.61567c-0.0043-.1861-0.03349-0.37348-0.01957-0.55789a3.39247,3.39247,0,0,0-1.08187-2.971c-0.38111-.34329-0.69929-0.75642-1.04643-1.13747a3.66755,3.66755,0,0,0-2.71157-1.29331,4.54717,4.54717,0,0,0-3.10309.70376c0.595,0.43867,1.1191.825,1.75881,1.29663ZM61.89249,38.2329c-1.06791.86411-2.03528,1.70558-3.06279,2.46574a23.35019,23.35019,0,0,1-6.3148,3.69021,4.04819,4.04819,0,0,0-.86791.42244,54.17072,54.17072,0,0,1-5.99716,3.31359,1.01761,1.01761,0,0,0-.56136,1.63166,2.3741,2.3741,0,0,0,.433.63312q1.19962,1.25532,2.42626,2.48473c1.06907,1.07228,2.15386,2.12888,3.22253,3.20158a2.34993,2.34993,0,0,0,2.6318.67961,14.44977,14.44977,0,0,0,1.79871-.66048c0.971-.50236,1.90025-1.08595,2.84262-1.64293,2.71787-1.60637,5.44724-3.19388,8.14483-4.83366,1.56787-.95305,3.08772-1.98566,4.61842-2.99871a7.81843,7.81843,0,0,0,.80987-0.71472Q66.83708,41.98,61.89249,38.2329Zm6.58824,4.15468c0.02612-.33432.0336-0.462,0.04638-0.5891a8.05139,8.05139,0,0,1,.90991-3.71376c0.5-.785.94009-1.60788,1.41743-2.4076a0.65575,0.65575,0,0,0-.0618-0.94791c-0.42989-.38791-0.81862-0.824-1.265-1.19063-2.49127-2.04613-4.963-4.118-7.50343-6.10169a29.47081,29.47081,0,0,0-7.00928-4.43127c-0.60839-.24464-0.89238-0.11633-1.00836.53166a8.13434,8.13434,0,0,1-.17651.93462c-0.1961.64532-.40391,1.28877-0.64568,1.91811-0.34057.88651,0.20093,1.70611,0.1567,2.56951a0.80193,0.80193,0,0,0,.63439.74319,0.29991,0.29991,0,0,1,.07619.255,0.89542,0.89542,0,0,0,.55212.83091c1.22147,1.10029,2.45044,2.19224,3.67638,3.28759,1.12959,1.00929,2.22842,2.05577,3.3949,3.02042,1.88672,1.5603,3.81478,3.07078,5.73329,4.59232C67.70305,41.92267,68.04011,42.103,68.48073,42.38758Zm7.82283-7.1889a0.96376,0.96376,0,0,0-1.163.24417A9.78077,9.78077,0,0,0,71.21143,41.972a3.0304,3.0304,0,0,0,1.63224,3.4858c0.8017,0.40342,1.5197.971,2.28642,1.44676,0.74066,0.45962,1.4954.89653,2.26373,1.35521a11.78041,11.78041,0,0,1-.29072-2.47473,7.30488,7.30488,0,0,1,2.28435-4.97825c1.80873-1.61051,3.74785-2.9722,6.38617-3.00826-0.61923-.54357-1.16844-1.03312-1.72577-1.51319-0.87923-.75733-1.78434-1.4861-2.63806-2.27093a1.27467,1.27467,0,0,0-1.44017-.231c-0.75535.36324-1.50449,0.73894-2.27843,1.06515a1.98283,1.98283,0,0,0-.3859.28689q-0.57758.44029-1.15512,0.88067l-0.11263-.10952ZM10.44427,48.0763c2.90732,2.48094,4.79757,5.56717,7.291,8.04535,0.49486-.14258.9049-0.23322,1.29487-0.378,1.50809-.55981,3.03171-1.08628,4.50621-1.72519,0.99317-.43034,1.004-0.77.25595-1.55765-0.13287-.13991-0.29028-0.25617-0.42961-0.39038-0.43969-.42355-0.89617-0.832-1.30961-1.28-0.78594-.85166-1.53592-1.73648-2.32273-2.5873a10.28611,10.28611,0,0,1-1.052-.99173,1.76433,1.76433,0,0,0-2.126-.65258c-1.31963.29722-2.65729,0.51492-3.97557,0.81749C11.92815,47.5252,11.30582,47.78876,10.44427,48.0763Zm10.6573-2.7681c0.44377,0.4764.84124,0.8849,1.21844,1.31133,1.34457,1.52007,2.70118,3.03017,4.01446,4.577a1.97626,1.97626,0,0,0,2.30951.72763c0.27552-.09024.56-0.15845,0.82659-0.26971q2.45053-1.02252,4.89387-2.06225c0.97708-.41578,1.92989-0.89575,2.92566-1.259a43.7391,43.7391,0,0,0,7.14941-3.60411,0.83506,0.83506,0,0,0,.36506-1.36044,1.9396,1.9396,0,0,0-.4095-0.53382q-2.26441-2.02987-4.5439-4.043a0.80792,0.80792,0,0,0-.97213-0.11248c-1.55657.69386-3.117,1.38157-4.69714,2.01925-1.37324.55417-2.77919,1.02668-4.16265,1.55627-1.25945.48213-2.49049,1.04449-3.76624,1.47646-1.40165.47458-2.84106,0.83728-4.26173,1.25649C21.69475,45.07536,21.40823,45.19676,21.10157,45.3082ZM55.04345,22.18508a27.04592,27.04592,0,0,1,2.80853,1.4798q3.302,2.27677,6.50676,4.69336c1.46285,1.10892,2.84629,2.32434,4.24318,3.51793,0.9311,0.79563,1.83743,1.6218,2.72794,2.4628a0.95866,0.95866,0,0,1,.24283,1.45206c-0.31472.5983-.7049,1.15641-1.03481,1.74732A7.90773,7.90773,0,0,0,69.201,41.90517a2.21142,2.21142,0,0,0,1.455,2.027c-0.48344-4.18367,1.62364-7.05383,4.61926-9.5785-0.51652-.08011-0.85211-0.2287-0.71795-0.76132a1.44785,1.44785,0,0,0,1.5361-.64116,0.67227,0.67227,0,0,0-.9443-0.298,3.58655,3.58655,0,0,0-.58882.33046,2.1303,2.1303,0,0,1-2.45445.05174A11.84671,11.84671,0,0,1,69.13906,31.058,19.55716,19.55716,0,0,0,67.47959,29.729c-1.93683-1.503-3.88415-2.99263-5.81261-4.50632-1.69647-1.33159-3.373-2.6886-5.146-4.10441C56.09593,21.42516,55.64624,21.74986,55.04345,22.18508ZM82.00018,42.8775c0.68435,0.57009,1.223,1.07446,1.818,1.5a1.19939,1.19939,0,0,1,.54239,1.69647,2.3752,2.3752,0,0,1-3.62377.97988c-0.78331-.70034-1.67211-1.28269-2.52778-1.92755a1.07587,1.07587,0,0,0-.20409.27687c-0.26329,1.17407.31662,2.19325,0.6168,3.26316a0.48627,0.48627,0,0,0,.19693.20677c0.36221,0.26147.71483,0.54059,1.0979,0.76791a3.57283,3.57283,0,0,0,2.467.63573c1.86122-.36375,4.36616-2.67181,3.93981-5.25051-0.16366-.98992-0.14532-2.24094-1.59973-2.46656a0.89077,0.89077,0,0,1-.2628-0.27362,0.9496,0.9496,0,0,0-1.44408-.1658C82.72164,42.30476,82.45543,42.53548,82.00018,42.8775Zm-22.8893-6.71263L53.044,30.97741l-0.96917.6492a1.01738,1.01738,0,0,0,.043.288,35.26163,35.26163,0,0,0,3.661,4.588,1.77945,1.77945,0,0,0,.82867.40022C57.51461,37.152,58.18369,36.56716,59.11087,36.16487ZM45.56774,77.67545c0.88168,0.79594,1.33435-.15184,1.98568-0.27986C46.98186,76.78393,46.95724,76.7875,45.56774,77.67545Zm30.7205-42.94207c0.65748,0.37789.94148,0.239,1.36427-.65993ZM45.59286,78.40807c-0.52734-.41053-0.52734-0.41053-1.0876.16765C44.95965,79.031,45.26186,78.72533,45.59286,78.40807Zm5.459-45.9811,0.95689,0.81152C51.80408,32.81577,51.76383,32.217,51.05189,32.427Z"></path><path d="M40.73829,54.7005c1.91757,1.80683,3.8394,3.66171,5.81295,5.45982a42.85332,42.85332,0,0,0,3.42838,2.83222A27.61082,27.61082,0,0,1,54.17286,66.847c0.68876,0.76947,1.39675,1.52228,2.06821,2.30646,0.53462,0.62437.45659,0.89412-.27236,1.23251-1.95754.90868-3.92017,1.80694-5.8654,2.74134a0.88773,0.88773,0,0,1-1.13684-.15872c-0.52371-.51971-1.02465-1.06284-1.55716-1.57317-1.65212-1.58335-3.31816-3.1522-4.97139-4.73443-0.72146-.69049-1.44119-1.38426-2.13053-2.10635a1.05575,1.05575,0,0,0-1.38778-.22487c-1.5333.75016-3.08445,1.46423-4.60944,2.23058a7.996,7.996,0,0,0-1.14308.8847,2.59158,2.59158,0,0,1-1.20041-.83457c-1.61984-1.5736-3.21921-3.16834-4.8185-4.763-0.42718-.42593-0.4063-0.82225.17816-1.0587,1.31531-.53215,2.40222-1.45842,3.76395-1.941,2.18049-.77278,4.28341-1.76616,6.41211-2.68254C38.5324,55.72186,39.54649,55.24151,40.73829,54.7005Zm-1.1852,8.48262a11.41972,11.41972,0,0,1,2.55708,2.11982c2.34186,2.21767,4.62632,4.496,6.92908,6.75485a0.86808,0.86808,0,0,0,1.1209.20739c1.50683-.72745,3.03892-1.40243,4.55189-2.11746a7.16415,7.16415,0,0,0,.87771-0.5861c-0.3117-.38506-0.5452-0.69152-0.79718-0.98191a27.46987,27.46987,0,0,0-5.15106-4.93831,34.87826,34.87826,0,0,1-3.57836-2.9469c-1.3416-1.20421-2.56174-2.54807-3.93932-3.7068-1.78352-1.50019-1.1921-1.38535-3.45927-.47756-1.6437.65815-3.26764,1.3681-4.88383,2.09195-1.98463.88884-3.952,1.81623-6.08844,2.80148,0.97309,0.95435,1.77183,1.82905,2.66711,2.59017,0.90189,0.76673,1.50983,1.86632,2.68878,2.37178Z"></path><path d="M55.12538,71.69844A8.89338,8.89338,0,0,1,51.4972,73.103,14.72333,14.72333,0,0,1,55.12538,71.69844Z"></path><path d="M53.08833,73.96035l0.88508-.34458,0.08491,0.20336-0.86264.38978Z"></path><path d="M44.824,40.65674A4.54754,4.54754,0,0,1,45.3248,40.085a18.74739,18.74739,0,0,1,3.49538-2.3995c1.03824-.49128,2.043-1.059,3.033-1.64295a0.90046,0.90046,0,0,1,.8-0.11,3.63449,3.63449,0,0,1,1.79038,1.25811c0.41028,0.48963.80262,0.99449,1.21762,1.48,0.41685,0.48767.4463,0.71953-.03669,1.13223a7.13253,7.13253,0,0,1-1.42532.99317c-1.64475.81531-3.32862,1.55191-4.97,2.3737a1.533,1.533,0,0,1-1.72479-.13038C46.57739,42.31051,45.73363,41.47579,44.824,40.65674Zm0.75637-.18076c0.72685,0.7204,1.29567,1.33087,1.916,1.88355a1.325,1.325,0,0,0,1.5996.22211c1.327-.65209,2.70581-1.19961,4.02577-1.86463a24.10045,24.10045,0,0,0,2.14131-1.35739c-0.58042-.72883-1.064-1.36356-1.577-1.97348a1.415,1.415,0,0,0-2.09989-.46175c-1.06275.53572-2.13935,1.05084-3.16411,1.6529C47.48514,39.12774,46.60932,39.78228,45.58041,40.476Z"></path><path d="M69.31494,60.054l3.0214,2.17929c-1.55463,1.142-3.1754,2.349-4.81975,3.52287a3.515,3.515,0,0,1-.97325.30542,1.13843,1.13843,0,0,0-.3326-0.902,36.97179,36.97179,0,0,1-5.46349-4.73637,0.92655,0.92655,0,0,1,.15469-1.59388c1.46395-.99562,2.94893-1.96043,4.43-2.93061,1.93854-1.26983,3.87349-2.54546,5.82572-3.794,1.30166-.83245,2.63167-1.62048,3.947-2.43158a0.921,0.921,0,0,1,1.074.01725,12.69736,12.69736,0,0,0,3.97125,1.708,0.99029,0.99029,0,0,1,.62461.511c0.13149,0.32879-.20572.48008-0.46207,0.62869-0.805.4667-1.64019,0.89267-2.39714,1.42841-1.46722,1.03839-2.8755,2.15972-4.33411,3.21071-1.10921.79921-2.25777,1.54392-3.39056,2.31031C69.92869,59.66487,69.65952,59.83161,69.31494,60.054Zm10.47818-7.98549c-0.993-.44394-1.837-0.76118-2.622-1.18727a2.5256,2.5256,0,0,0-2.94414.027c-2.36109,1.62171-4.79092,3.14329-7.19122,4.708Q64.28695,57.40813,61.544,59.209a5.38625,5.38625,0,0,0-.523.45472c0.26512,0.32069.49466,0.58543,0.71018,0.86113,1.29093,1.65127,3.0932,2.70826,4.68352,4.00892,0.77777,0.63613.82141,0.58414,1.67167-.02968,0.2614-.18871.5177-0.38443,0.77864-0.57379,0.723-.52461,1.44718-1.04754,2.30007-1.66459-0.84567-.60407-1.56132-1.13845-2.30109-1.637-0.71485-.48181-0.72805-0.64009.01641-1.12769,0.61918-.40556,1.2655-0.77136,1.87042-1.19656a12.75266,12.75266,0,0,0,1.7434-1.37135A13.90061,13.90061,0,0,1,74.24207,55.775c1.23561-.92689,2.5207-1.78878,3.80024-2.65562C78.567,52.76384,79.12955,52.46413,79.79313,52.06852Z"></path><path d="M82.43891,53.197c0.5015-.44906,1.012-0.88856,1.50253-1.34935,0.88622-.83249,1.7577-1.68066,2.64278-2.5144a3.20977,3.20977,0,0,1,.46057-0.30475c0.24056,0.37052-.0275.52278-0.207,0.67662Q84.70952,51.52943,82.569,53.3395Z"></path><path d="M77.28908,55.06142l2.87543,2.56412C79.47649,57.6092,77.96267,56.277,77.28908,55.06142Z"></path><path d="M87.61155,41.25344q-1.19688-.83273-2.3938-1.66548l0.15006-.223a14.03039,14.03039,0,0,1,2.4196,1.6704Z"></path><path d="M87.09889,50.365a16.67381,16.67381,0,0,1-2.07275,2.23023L84.837,52.41486q1.05584-1.09736,2.11171-2.19472Z"></path><path d="M75.53318,56.88553l1.70026,1.64927C76.11156,58.108,76.09793,58.09513,75.53318,56.88553Z"></path><path d="M74.74375,58.40271c0.78173,0.00871.93306,0.7521,1.514,1.06362C75.71506,59.58951,75.24827,59.23306,74.74375,58.40271Z"></path><path d="M82.569,53.3395l-1.47713,1.43794L80.63163,54.179c0.94357,0.12374,1.17267-.76083,1.80728-0.982Z"></path><path d="M86.4468,41.30137L84.68686,39.9515l0.12626-.17257a6.9476,6.9476,0,0,1,1.79835,1.31527Z"></path><path d="M77.30286,57.48913a2.66062,2.66062,0,0,1-1.1396-1.077L76.3,56.2653l1.14032,1.0764Z"></path><path d="M74.92161,60.31554l-0.286.20042-0.07171-.08313,0.28231-.26254Z"></path><path d="M55.12293,54.41367a42.83974,42.83974,0,0,0-3.89513-2.39053c-0.6447-.31234-1.045-0.98937-1.79893-1.0776a0.26579,0.26579,0,0,1-.14536-0.1196c-0.357-.51819-0.70978-1.03933-1.12513-1.64989a7.27538,7.27538,0,0,1,1.06179-.91948c1.97713-1.148,3.97944-2.25262,5.96635-3.384a0.69689,0.69689,0,0,1,.87626.041c1.83411,1.369,3.70357,2.69122,5.52082,4.08188,1.15557,0.8843,1.05957,1.14715-.25864,1.80864-1.32085.6628-2.595,1.42089-3.87458,2.16306C56.64485,53.43439,55.86688,53.94918,55.12293,54.41367Zm-1.29915-3.66316a1.8415,1.8415,0,0,1,.06365-0.55593c0.43569-.96347.922-1.90479,1.33535-2.87731a3.52755,3.52755,0,0,0,.52367-1.7233A1.14065,1.14065,0,0,0,54.6378,46.28c-0.81344,1.527-1.63346,3.05261-2.37721,4.6139-0.37974.79716-.19731,1.01987,0.65638,1.26379l0.92175-1.42561c-0.08656.37265-.20343,0.74132-0.25305,1.11883-0.08776.66772,0.06688,0.86638,0.781,1.061L55.31048,51.088l0.15874,0.06432-0.72894,2.20925c0.862,0.0897,1.1427-.095,1.343-0.67032a15.82415,15.82415,0,0,1,.66108-1.5894,17.33009,17.33009,0,0,0,1.44642-3.776l-0.67749-.34338-1.77315,3.49487a1.5958,1.5958,0,0,1,.12866-0.94384c0.31112-.7743.64243-1.54047,0.95121-2.31565,0.23608-.59262.22624-0.59654-0.595-1.01408-0.37294.73547-.73689,1.47768-1.12306,2.20816C54.68689,49.19707,54.25094,49.97121,53.82378,50.75051Zm-2.27433.602A27.16632,27.16632,0,0,0,53.951,46.497a1.12209,1.12209,0,0,0-1.06912.67858c-0.5869,1.10089-1.1636,2.20723-1.75482,3.3058C50.91023,50.88425,51.0077,51.14661,51.54945,51.35246Zm5.25944,1.2682a5.6801,5.6801,0,0,0,.9809-0.83839,6.65531,6.65531,0,0,0,.49889-1.1272c0.34941-.78719.70532-1.57148,1.07419-2.39166l-0.73631-.485C58.03254,49.37048,57.05132,50.71736,56.80889,52.62066Zm2.92223-3.94551c-0.36749,1.00987-1.127,1.78858-1.37482,2.90532,1.28708-.36112,1.51513-1.41744,1.87737-2.35816C60.35545,48.906,60.14205,48.756,59.73113,48.67515Zm-9.19907,1.847a12.13135,12.13135,0,0,0,1.3872-2.964,2.3317,2.3317,0,0,0-.74008.41284,22.87616,22.87616,0,0,0-1.083,2.02613C49.95853,50.291,50.19629,50.44964,50.53205,50.5222Zm-1.549-1.27811,0.586,0.53284,0.55909-.99669-0.14213-.12152ZM61.3163,49.98316l-0.006-.2512a1.04971,1.04971,0,0,0-.53823-0.11143,0.53927,0.53927,0,0,0-.19634.78919Z"></path><path d="M83.568,36.87019c-0.66652.17321-1.34172,0.31913-1.99712,0.52732-0.65623.20844-1.29274,0.47908-1.96994,0.62747,1.265-.58775,2.42188-1.479,3.91009-1.42794Z"></path><path d="M79.78554,35.72119c-0.95992-.29237-1.51086.55088-2.4667,0.79024a2.34227,2.34227,0,0,1,.36362-0.48371c0.39478-.27144.799-0.53289,1.21862-0.76352C79.34972,35.01765,79.58507,35.132,79.78554,35.72119Z"></path><path d="M81.404,36.22961l-2.54838,1.21733A2.985,2.985,0,0,1,81.404,36.22961Z"></path><path d="M64.43119,23.20267c-0.48714-.35954-0.98759-0.70265-1.45756-1.08339a1.24192,1.24192,0,0,0-1.42476-.20581c-0.50555.231-1.03881,0.40131-1.5599,0.5983l-0.07547-.20225c0.818-.33336,1.63146-0.679,2.45806-0.98952a0.64314,0.64314,0,0,1,.54947.04088c0.567,0.54827,1.09534,1.13653,1.637,1.71105Z"></path><path d="M73.60069,29.03465c-0.55092.15836-.97218,0.248-1.36814,0.40238-0.37969.148-.73313,0.36335-1.17888,0.59017A2.0925,2.0925,0,0,1,73.60069,29.03465Z"></path><path d="M74.612,30.36479c-1.0194.51334-1.86516,0.93925-2.72351,1.37151A3.36581,3.36581,0,0,1,74.612,30.36479Z"></path><path d="M69.73562,26.94318q-1.00442.46273-2.00886,0.92545L67.64989,27.678a4.01393,4.01393,0,0,1,2.03156-.79994Z"></path><path d="M65.87307,26.10138L66.819,26.199a0.59733,0.59733,0,0,1-.88974.50047l-0.146-.51136Q65.82827,26.14495,65.87307,26.10138Z"></path><path d="M69.68145,26.878l0.6219-.29682,0.07539,0.23357q-0.32164.06409-.64318,0.12831Z"></path><path d="M23.47015,45.44418c2.43806-.93722,4.7213-1.79405,6.98819-2.69214,2.33244-.924,4.70718-1.77132,6.94661-2.88672a2.05726,2.05726,0,0,1,2.51171.22433c1.11959,0.86669,2.271,1.69527,3.35349,2.60591,0.73,0.61413.68934,0.89092-.10014,1.38927a23.48423,23.48423,0,0,1-5.3112,2.7256c-0.79516.25459-1.54879,0.63835-2.32231,0.96094Q32.86274,48.88646,30.18839,50a5.12326,5.12326,0,0,0-.612.28079c-0.74025.43152-.868,0.44357-1.47806-0.19033-0.66865-.69475-1.26014-1.46513-1.9434-2.144-0.68141-.67709-1.43848-1.27766-2.15422-1.92085C23.82078,45.86393,23.672,45.66756,23.47015,45.44418Zm1.33265,0.28489a13.11905,13.11905,0,0,1,1.12912.94477c0.66342,0.70129,1.29071,1.43681,1.932,2.159,0.8091,0.9112,1.17142.99366,2.26812,0.51492,0.29555-.129.58937-0.26243,0.888-0.384,1.07079-.43591,2.15224-0.847,3.21262-1.30674,1.03263-.44773,2.04221-0.94831,3.06579-1.41724,1.52028-.69646,3.05217-1.36837,4.56009-2.09048a5.96814,5.96814,0,0,0,1.014-.81653,27.11411,27.11411,0,0,0-3.93714-3.01045,0.883,0.883,0,0,0-.71563-0.02445,57.36644,57.36644,0,0,1-5.45207,2.22491c-2.004.70238-3.94493,1.58462-5.91434,2.386C26.20608,45.17221,25.55577,45.42815,24.8028,45.72907Z"></path><path d="M80.21316,47.54308c-0.57624.65044-.69254,0.67077-1.02673,0.13425-0.18321-.29413-0.61858-0.55052-0.24535-1.05329Z"></path><path d="M50.66508,34.73047a0.96837,0.96837,0,0,1-.61553-0.86538q0.36909,0.36639.7382,0.73273Z"></path><path d="M80.36636,42.79965l-0.04849.37606-0.73062-.36437a1.12067,1.12067,0,0,1,.34211-0.12428,3.83252,3.83252,0,0,1,.45447.13131Z"></path><path d="M82.85213,45.2408a1.67207,1.67207,0,0,1-1.3105-.93555A1.89379,1.89379,0,0,1,82.85213,45.2408Z"></path><path d="M83.0338,46.15485l-1.20168-.69225,0.11893-.1855a2.02034,2.02034,0,0,1,1.19259.7669Q83.08858,46.09927,83.0338,46.15485Z"></path><path d="M25.83819,46.07027c0.38853-.39868.70891-0.51341,1.05137-0.18377a0.41593,0.41593,0,0,1-.04221.40276C26.42429,46.65367,26.19784,46.28,25.83819,46.07027Z"></path></g></svg>